<?xml version="1.0" encoding="utf-8" standalone="no"?>
<!DOCTYPE svg PUBLIC "-//W3C//DTD SVG 1.1//EN"
  "http://www.w3.org/Graphics/SVG/1.1/DTD/svg11.dtd">
<svg xmlns:xlink="http://www.w3.org/1999/xlink" width="712.693125pt" height="352.15075pt" viewBox="0 0 712.693125 352.15075" xmlns="http://www.w3.org/2000/svg" version="1.1">
 <metadata>
  <rdf:RDF xmlns:dc="http://purl.org/dc/elements/1.1/" xmlns:cc="http://creativecommons.org/ns#" xmlns:rdf="http://www.w3.org/1999/02/22-rdf-syntax-ns#">
   <cc:Work>
    <dc:type rdf:resource="http://purl.org/dc/dcmitype/StillImage"/>
    <dc:date>2026-06-05T16:34:10.590978</dc:date>
    <dc:format>image/svg+xml</dc:format>
    <dc:creator>
     <cc:Agent>
      <dc:title>Matplotlib v3.10.9, https://matplotlib.org/</dc:title>
     </cc:Agent>
    </dc:creator>
   </cc:Work>
  </rdf:RDF>
 </metadata>
 <defs>
  <style type="text/css">*{stroke-linejoin: round; stroke-linecap: butt}</style>
 </defs>
 <g id="figure_1">
  <g id="patch_1">
   <path d="M -0 352.15075 
L 712.693125 352.15075 
L 712.693125 0 
L -0 0 
z
" style="fill: #ffffff"/>
  </g>
  <g id="axes_1">
   <g id="patch_2">
    <path d="M 41.903125 303.815464 
L 705.493125 303.815464 
L 705.493125 7.2 
L 41.903125 7.2 
z
" style="fill: #fafafa"/>
   </g>
   <g id="matplotlib.axis_1">
    <g id="xtick_1">
     <g id="line2d_1">
      <path d="M 65.888306 303.815464 
L 65.888306 7.2 
" clip-path="url(#p906ef1a0f2)" style="fill: none; stroke: #b0b0b0; stroke-opacity: 0.3; stroke-width: 0.8; stroke-linecap: square"/>
     </g>
     <g id="line2d_2">
      <defs>
       <path id="ma3c4f511e7" d="M 0 0 
L 0 3.5 
" style="stroke: #000000; stroke-width: 0.8"/>
      </defs>
      <g>
       <use xlink:href="#ma3c4f511e7" x="65.888306" y="303.815464" style="stroke: #000000; stroke-width: 0.8"/>
      </g>
     </g>
     <g id="text_1">
      <!-- 深铃(台铃) -->
      <g transform="translate(24.184627 341.64268) rotate(-30) scale(0.1 -0.1)">
       <defs>
        <path id="STHeiti-6df1" d="M 1869 4352 
L 1498 3904 
Q 1088 4435 762 4678 
L 1114 5082 
Q 1459 4794 1869 4352 
z
M 5830 3718 
L 5293 3718 
L 5293 4403 
L 2618 4403 
L 2618 3718 
L 2093 3718 
L 2093 4922 
Q 2573 4851 3997 4851 
Q 5421 4851 5830 4922 
L 5830 3718 
z
M 3194 4090 
Q 3450 3898 3622 3782 
Q 3699 3731 3699 3696 
Q 3699 3661 3603 3645 
Q 3507 3629 3245 3366 
Q 2982 3085 2432 2630 
Q 2259 2842 1997 2938 
Q 2349 3142 2697 3478 
Q 3046 3814 3194 4090 
z
M 5600 3040 
L 5126 2714 
Q 4659 3322 4128 3757 
L 4550 4026 
Q 5171 3533 5600 3040 
z
M 1587 2944 
L 1222 2502 
Q 890 2886 384 3206 
L 678 3629 
Q 1254 3245 1587 2944 
z
M 3098 1830 
Q 2138 1818 1952 1798 
L 1952 2323 
Q 2458 2278 3507 2266 
Q 3501 2714 3456 3040 
Q 3930 3014 4064 2995 
Q 4198 2976 4198 2937 
Q 4198 2899 4112 2838 
Q 4026 2778 4026 2586 
L 4026 2266 
Q 5293 2266 5920 2323 
L 5920 1792 
Q 5632 1818 4390 1837 
Q 4934 602 6086 333 
Q 5824 102 5670 -192 
Q 5030 115 4646 595 
Q 4262 1075 4051 1837 
L 4026 1837 
L 4026 269 
Q 4026 -109 4070 -608 
L 3450 -608 
Q 3507 -128 3507 269 
L 3507 1805 
Q 3232 1216 2800 659 
Q 2368 102 1926 -237 
Q 1715 -32 1408 96 
Q 1818 275 2307 777 
Q 2797 1280 3098 1830 
z
M 1690 1792 
Q 1658 1734 1427 928 
Q 1197 122 1082 -416 
Q 742 -211 403 -90 
Q 678 435 896 1084 
Q 1114 1734 1190 2093 
Q 1376 1869 1690 1792 
z
" transform="scale(0.015625)"/>
        <path id="STHeiti-94c3" d="M 4262 4550 
Q 3846 3642 2944 2515 
Q 2778 2701 2528 2829 
Q 3546 3898 3936 5318 
Q 4294 5184 4602 5146 
Q 4691 5133 4691 5104 
Q 4691 5075 4640 5052 
Q 4589 5030 4480 4915 
Q 4704 4390 5062 3952 
Q 5421 3514 6240 3264 
Q 5990 3027 5856 2682 
Q 5408 2867 4998 3273 
Q 4589 3680 4262 4550 
z
M 1190 3846 
Q 762 3162 474 2848 
Q 333 3136 179 3258 
Q 1011 4096 1312 5254 
Q 1619 5094 1808 5062 
Q 1997 5030 1997 4998 
Q 1997 4966 1917 4915 
Q 1837 4864 1763 4755 
Q 1690 4646 1466 4282 
L 1978 4282 
Q 2426 4282 2720 4320 
L 2720 3814 
Q 2381 3846 1978 3846 
L 1190 3846 
z
M 4672 2682 
L 4147 2470 
Q 3994 3014 3821 3309 
L 4333 3494 
Q 4467 3085 4672 2682 
z
M 1197 1491 
Q 749 1485 378 1434 
L 378 1978 
Q 762 1926 1197 1920 
L 1197 2688 
Q 934 2669 800 2643 
L 800 3187 
Q 1146 3130 1597 3130 
Q 2048 3130 2387 3187 
L 2387 2643 
Q 2138 2694 1690 2701 
L 1690 1920 
Q 2214 1939 2496 1978 
L 2496 1434 
Q 2182 1472 1690 1485 
L 1690 429 
Q 2272 762 2541 1050 
Q 2522 710 2630 486 
L 1754 -134 
Q 1306 -454 1248 -518 
Q 1126 -230 947 -26 
Q 1197 198 1197 710 
L 1197 1491 
z
M 4173 691 
L 4851 1741 
L 4122 1741 
Q 3520 1741 2797 1683 
L 2797 2221 
Q 3200 2176 4265 2176 
Q 5331 2176 5728 2221 
L 5728 1779 
Q 5491 1734 5244 1414 
Q 4998 1094 4538 384 
Q 4864 109 5178 -198 
L 4698 -659 
Q 4090 224 3290 768 
L 3629 1107 
Q 3981 851 4173 691 
z
" transform="scale(0.015625)"/>
        <path id="STHeiti-28" d="M 1466 5370 
L 1978 5370 
Q 1651 4704 1475 3865 
Q 1299 3027 1299 2176 
Q 1299 506 1824 -762 
L 1338 -762 
Q 832 480 832 2118 
Q 832 3891 1466 5370 
z
" transform="scale(0.015625)"/>
        <path id="STHeiti-53f0" d="M 4941 2906 
Q 3014 2803 2028 2736 
Q 1043 2669 646 2560 
Q 602 2816 493 3104 
Q 986 3200 1251 3446 
Q 1517 3693 2067 4275 
Q 2618 4858 2899 5306 
Q 3270 5075 3533 4979 
Q 3648 4934 3648 4883 
Q 3648 4832 3510 4825 
Q 3373 4819 3091 4538 
Q 2246 3699 1613 3200 
L 4570 3309 
Q 4179 3686 3725 4102 
L 4166 4403 
Q 4954 3738 5805 2835 
L 5280 2483 
Q 5075 2758 4941 2906 
z
M 1696 -83 
L 1696 -525 
L 1082 -525 
Q 1165 -26 1165 448 
L 1165 1453 
Q 1165 1818 1133 2042 
Q 1472 2010 3085 2010 
Q 4698 2010 5165 2042 
Q 5133 1843 5133 1453 
L 5133 525 
Q 5133 -58 5171 -448 
L 4589 -448 
L 4589 -83 
L 1696 -83 
z
M 4589 378 
L 4589 1555 
L 1696 1555 
L 1696 378 
L 4589 378 
z
" transform="scale(0.015625)"/>
        <path id="STHeiti-29" d="M 896 5370 
Q 1530 3891 1530 2118 
Q 1530 480 1024 -762 
L 538 -762 
Q 1062 506 1062 2176 
Q 1062 3027 886 3865 
Q 710 4704 384 5370 
L 896 5370 
z
" transform="scale(0.015625)"/>
       </defs>
       <use xlink:href="#STHeiti-6df1"/>
       <use xlink:href="#STHeiti-94c3" transform="translate(99.999985 0)"/>
       <use xlink:href="#STHeiti-28" transform="translate(199.999969 0)"/>
       <use xlink:href="#STHeiti-53f0" transform="translate(236.899963 0)"/>
       <use xlink:href="#STHeiti-94c3" transform="translate(336.899948 0)"/>
       <use xlink:href="#STHeiti-29" transform="translate(436.899933 0)"/>
      </g>
     </g>
    </g>
    <g id="xtick_2">
     <g id="line2d_3">
      <path d="M 225.789511 303.815464 
L 225.789511 7.2 
" clip-path="url(#p906ef1a0f2)" style="fill: none; stroke: #b0b0b0; stroke-opacity: 0.3; stroke-width: 0.8; stroke-linecap: square"/>
     </g>
     <g id="line2d_4">
      <g>
       <use xlink:href="#ma3c4f511e7" x="225.789511" y="303.815464" style="stroke: #000000; stroke-width: 0.8"/>
      </g>
     </g>
     <g id="text_2">
      <!-- 快松果2020 -->
      <g transform="translate(179.945148 343.789735) rotate(-30) scale(0.1 -0.1)">
       <defs>
        <path id="STHeiti-5feb" d="M 3622 3699 
Q 3034 3693 2746 3648 
L 2746 4173 
Q 3066 4134 3622 4128 
Q 3622 4730 3584 5248 
Q 3821 5210 4275 5210 
Q 4352 5210 4352 5174 
Q 4352 5139 4291 5091 
Q 4230 5043 4195 4844 
Q 4160 4646 4134 4128 
Q 5235 4128 5562 4179 
Q 5523 4032 5510 3699 
L 5446 2240 
Q 5920 2259 6112 2291 
L 6112 1741 
Q 5741 1798 5056 1798 
L 4320 1798 
Q 4602 1043 4944 675 
Q 5286 307 6099 58 
Q 5830 -211 5683 -614 
Q 4941 -218 4557 352 
Q 4173 922 4058 1798 
L 4013 1798 
Q 3891 979 3513 403 
Q 3136 -173 2432 -602 
Q 2285 -416 1971 -224 
Q 3302 435 3526 1798 
Q 2797 1798 2483 1741 
L 2483 2291 
Q 2778 2234 3571 2234 
Q 3622 2995 3622 3699 
z
M 4998 2234 
L 5037 3699 
L 4115 3699 
Q 4096 2688 4058 2234 
L 4998 2234 
z
M 1248 5158 
Q 1485 5107 1862 5107 
Q 2016 5107 2016 5052 
Q 2016 4998 1933 4947 
Q 1850 4896 1821 4806 
Q 1792 4717 1792 4614 
L 1792 506 
Q 1792 19 1843 -570 
L 1222 -570 
Q 1293 6 1293 512 
L 1293 4314 
Q 1293 4730 1248 5158 
z
M 2816 2970 
L 2310 2758 
Q 2182 3264 1920 3731 
L 2400 3936 
Q 2662 3360 2816 2970 
z
M 979 3782 
Q 915 2701 858 2016 
L 275 2067 
Q 474 2733 474 3475 
Q 474 3635 467 3814 
L 979 3782 
z
" transform="scale(0.015625)"/>
        <path id="STHeiti-677e" d="M 1267 2298 
Q 992 1402 570 659 
Q 422 1011 250 1280 
Q 768 1869 1261 3494 
Q 762 3488 403 3443 
L 403 3981 
Q 691 3936 1267 3930 
Q 1267 4826 1210 5210 
Q 1402 5184 1549 5184 
L 1843 5197 
Q 1933 5197 1933 5152 
Q 1933 5107 1856 5036 
Q 1779 4966 1779 4864 
L 1779 3930 
Q 2323 3936 2592 3981 
L 2592 3443 
Q 2227 3488 1779 3488 
L 1779 595 
Q 1779 96 1843 -608 
L 1203 -608 
Q 1267 96 1267 595 
L 1267 2298 
z
M 6163 2752 
Q 5888 2522 5651 2202 
Q 5139 2650 4860 3206 
Q 4582 3763 4448 5030 
L 4960 5069 
Q 4973 4115 5254 3574 
Q 5536 3034 6163 2752 
z
M 3430 4986 
Q 3795 4851 4090 4832 
Q 4160 4826 4160 4800 
Q 4160 4774 4105 4732 
Q 4051 4691 3980 4553 
Q 3910 4416 3878 4320 
Q 3552 3322 2931 2349 
Q 2669 2522 2413 2598 
Q 3200 3462 3430 4986 
z
M 5094 179 
Q 3085 -115 2822 -224 
Q 2778 38 2630 352 
Q 2797 422 2889 508 
Q 2982 595 3187 1020 
Q 3392 1446 3561 1958 
Q 3731 2470 3802 2912 
Q 4205 2784 4371 2774 
Q 4538 2765 4538 2720 
Q 4538 2675 4403 2592 
Q 4326 2541 4156 2064 
Q 3987 1587 3360 397 
L 4954 525 
Q 4698 1107 4499 1421 
L 5005 1632 
Q 5389 941 5856 -77 
L 5293 -339 
Q 5165 13 5094 179 
z
M 2733 1837 
L 2234 1555 
Q 2048 1978 1811 2374 
L 2227 2618 
Q 2445 2240 2733 1837 
z
" transform="scale(0.015625)"/>
        <path id="STHeiti-679c" d="M 2874 1363 
Q 2003 218 762 -397 
Q 589 -70 256 96 
Q 1510 467 2381 1363 
Q 1005 1357 499 1306 
L 499 1818 
Q 954 1773 2982 1766 
L 2982 2317 
Q 1574 2317 1107 2272 
Q 1152 2534 1152 2880 
L 1152 4339 
Q 1152 4762 1107 4947 
Q 1786 4870 3251 4870 
Q 4717 4870 5370 4947 
Q 5325 4704 5325 4339 
L 5325 2874 
Q 5325 2515 5370 2272 
Q 4883 2317 3488 2317 
L 3488 1766 
Q 5293 1766 5939 1818 
L 5939 1306 
Q 5280 1363 3955 1363 
Q 4333 896 4819 662 
Q 5306 429 6061 384 
Q 5798 102 5728 -288 
Q 4883 -45 4422 297 
Q 3962 640 3610 1363 
L 3488 1363 
L 3488 589 
Q 3488 -32 3539 -653 
L 2925 -653 
Q 2982 -32 2982 589 
L 2982 1363 
L 2874 1363 
z
M 2982 3776 
L 2982 4461 
L 1658 4461 
L 1658 3776 
L 2982 3776 
z
M 4819 3776 
L 4819 4461 
L 3488 4461 
L 3488 3776 
L 4819 3776 
z
M 3488 3386 
L 3488 2720 
L 4819 2720 
L 4819 3386 
L 3488 3386 
z
M 1658 3386 
L 1658 2720 
L 2982 2720 
L 2982 3386 
L 1658 3386 
z
" transform="scale(0.015625)"/>
        <path id="STHeiti-32" d="M 742 3539 
L 301 3539 
Q 333 4243 768 4668 
Q 1203 5094 1820 5094 
Q 2438 5094 2844 4694 
Q 3251 4294 3251 3718 
Q 3251 3290 3024 2925 
Q 2797 2560 2336 2061 
L 1190 826 
L 3315 826 
L 3315 384 
L 192 384 
L 1946 2278 
Q 2406 2778 2604 3066 
Q 2803 3354 2803 3725 
Q 2803 4096 2512 4377 
Q 2221 4659 1789 4659 
Q 1357 4659 1072 4368 
Q 787 4077 742 3539 
z
" transform="scale(0.015625)"/>
        <path id="STHeiti-30" d="M 1747 269 
Q 1005 269 605 880 
Q 205 1491 205 2681 
Q 205 3872 605 4483 
Q 1005 5094 1741 5094 
Q 2477 5094 2909 4470 
Q 3341 3846 3341 2681 
Q 3341 1517 2905 893 
Q 2470 269 1747 269 
z
M 1760 4659 
Q 1229 4659 934 4147 
Q 640 3635 640 2669 
Q 640 685 1760 685 
Q 2304 685 2608 1206 
Q 2912 1728 2912 2681 
Q 2912 3635 2598 4147 
Q 2285 4659 1760 4659 
z
" transform="scale(0.015625)"/>
       </defs>
       <use xlink:href="#STHeiti-5feb"/>
       <use xlink:href="#STHeiti-677e" transform="translate(99.999985 0)"/>
       <use xlink:href="#STHeiti-679c" transform="translate(199.999969 0)"/>
       <use xlink:href="#STHeiti-32" transform="translate(299.999954 0)"/>
       <use xlink:href="#STHeiti-30" transform="translate(355.399948 0)"/>
       <use xlink:href="#STHeiti-32" transform="translate(410.799942 0)"/>
       <use xlink:href="#STHeiti-30" transform="translate(466.199936 0)"/>
      </g>
     </g>
    </g>
    <g id="xtick_3">
     <g id="line2d_5">
      <path d="M 385.690715 303.815464 
L 385.690715 7.2 
" clip-path="url(#p906ef1a0f2)" style="fill: none; stroke: #b0b0b0; stroke-opacity: 0.3; stroke-width: 0.8; stroke-linecap: square"/>
     </g>
     <g id="line2d_6">
      <g>
       <use xlink:href="#ma3c4f511e7" x="385.690715" y="303.815464" style="stroke: #000000; stroke-width: 0.8"/>
      </g>
     </g>
     <g id="text_3">
      <!-- 小遛2020 -->
      <g transform="translate(348.506607 338.789735) rotate(-30) scale(0.1 -0.1)">
       <defs>
        <path id="STHeiti-5c0f" d="M 2931 5114 
Q 3066 5094 3283 5094 
L 3667 5107 
Q 3757 5107 3757 5046 
Q 3757 4986 3683 4941 
Q 3610 4896 3584 4800 
Q 3558 4704 3558 4518 
L 3558 269 
Q 3558 -19 3491 -147 
Q 3424 -275 3200 -345 
Q 2976 -416 2432 -486 
Q 2381 -147 2176 166 
Q 2342 160 2464 160 
Q 2797 160 2889 217 
Q 2982 275 2982 435 
L 2982 4083 
Q 2982 4813 2931 5114 
z
M 1453 3571 
Q 1792 3450 1997 3424 
Q 2202 3398 2202 3344 
Q 2202 3290 2099 3232 
Q 1997 3174 1882 2835 
Q 1517 1715 1011 966 
Q 742 1101 442 1146 
Q 1235 2259 1453 3571 
z
M 6112 1306 
L 5504 1037 
Q 5056 2253 4352 3334 
L 4864 3552 
Q 5574 2451 6112 1306 
z
" transform="scale(0.015625)"/>
        <path id="STHeiti-905b" d="M 3539 3392 
L 2797 2950 
Q 2573 2822 2464 2682 
Q 2336 2906 2163 3078 
Q 2298 3168 2326 3235 
Q 2355 3302 2355 3533 
L 2355 4275 
Q 2355 4525 2336 4819 
Q 2848 4794 3514 5165 
Q 3680 4851 3846 4742 
Q 3904 4710 3904 4678 
Q 3904 4646 3821 4646 
L 3744 4646 
Q 3558 4646 3436 4608 
Q 3315 4570 2829 4467 
L 2829 3405 
L 3392 3699 
Q 3270 3942 3174 4077 
L 3571 4269 
Q 3878 3699 4051 3322 
L 3648 3123 
L 3539 3392 
z
M 4403 4435 
Q 4211 4435 4038 4410 
L 4038 4896 
Q 4198 4870 4902 4870 
Q 5606 4870 5792 4896 
L 5696 3219 
Q 5683 3053 5632 2976 
Q 5581 2899 5417 2851 
Q 5254 2803 4877 2752 
Q 4864 3053 4710 3290 
Q 4947 3238 5100 3238 
Q 5254 3238 5261 3366 
L 5312 4442 
L 4806 4442 
Q 4774 3962 4716 3738 
Q 4659 3514 4473 3190 
Q 4288 2867 4013 2579 
Q 3891 2701 3635 2816 
Q 4006 3104 4179 3421 
Q 4352 3738 4403 4435 
z
M 1882 3635 
L 1312 3398 
Q 1158 3974 742 4576 
L 1274 4813 
Q 1555 4301 1882 3635 
z
M 1158 589 
L 1158 2496 
Q 627 2496 429 2470 
L 429 3014 
Q 698 2976 1059 2976 
Q 1421 2976 1696 3014 
Q 1658 2701 1658 2240 
L 1658 691 
Q 1747 653 2000 432 
Q 2253 211 2793 96 
Q 3334 -19 4169 -19 
Q 5005 -19 6112 141 
Q 5926 -205 5907 -499 
Q 5286 -506 4553 -506 
Q 3821 -506 3257 -458 
Q 2694 -410 2368 -291 
Q 2042 -173 1760 51 
Q 1549 218 1430 218 
Q 1312 218 1171 38 
Q 1030 -141 819 -518 
Q 557 -154 301 -32 
Q 666 288 1158 589 
z
M 5146 595 
L 2867 595 
L 2867 269 
L 2394 269 
Q 2426 621 2426 1082 
L 2426 2163 
Q 2426 2502 2413 2573 
Q 2995 2541 3993 2541 
Q 4992 2541 5645 2573 
Q 5619 2458 5619 2163 
L 5619 1107 
Q 5619 646 5658 346 
L 5146 346 
L 5146 595 
z
M 4243 1760 
L 5146 1760 
L 5146 2163 
L 4243 2163 
L 4243 1760 
z
M 2867 1760 
L 3808 1760 
L 3808 2163 
L 2867 2163 
L 2867 1760 
z
M 2867 960 
L 3808 960 
L 3808 1389 
L 2867 1389 
L 2867 960 
z
M 4243 960 
L 5146 960 
L 5146 1389 
L 4243 1389 
L 4243 960 
z
" transform="scale(0.015625)"/>
       </defs>
       <use xlink:href="#STHeiti-5c0f"/>
       <use xlink:href="#STHeiti-905b" transform="translate(99.999985 0)"/>
       <use xlink:href="#STHeiti-32" transform="translate(199.999969 0)"/>
       <use xlink:href="#STHeiti-30" transform="translate(255.399963 0)"/>
       <use xlink:href="#STHeiti-32" transform="translate(310.799957 0)"/>
       <use xlink:href="#STHeiti-30" transform="translate(366.199951 0)"/>
      </g>
     </g>
    </g>
    <g id="xtick_4">
     <g id="line2d_7">
      <path d="M 545.59192 303.815464 
L 545.59192 7.2 
" clip-path="url(#p906ef1a0f2)" style="fill: none; stroke: #b0b0b0; stroke-opacity: 0.3; stroke-width: 0.8; stroke-linecap: square"/>
     </g>
     <g id="line2d_8">
      <g>
       <use xlink:href="#ma3c4f511e7" x="545.59192" y="303.815464" style="stroke: #000000; stroke-width: 0.8"/>
      </g>
     </g>
     <g id="text_4">
      <!-- 富士达2020 -->
      <g transform="translate(499.747558 343.789735) rotate(-30) scale(0.1 -0.1)">
       <defs>
        <path id="STHeiti-5bcc" d="M 2989 4621 
Q 2925 4890 2816 5133 
L 3475 5222 
Q 3590 4928 3642 4621 
Q 5267 4621 5850 4659 
L 5850 3501 
L 5350 3501 
L 5350 4224 
L 1062 4224 
L 1062 3533 
L 576 3533 
L 576 4659 
Q 1178 4621 2989 4621 
z
M 4845 3462 
Q 4256 3501 3193 3501 
Q 2131 3501 1549 3462 
L 1549 3904 
Q 2086 3859 3193 3859 
Q 4301 3859 4845 3904 
L 4845 3462 
z
M 4954 2022 
Q 4346 2042 3226 2042 
Q 2106 2042 1510 2022 
Q 1530 2304 1530 2598 
Q 1530 2893 1510 3200 
Q 2131 3162 3232 3162 
Q 4333 3162 4954 3200 
Q 4934 2893 4934 2598 
Q 4934 2304 4954 2022 
z
M 4448 2400 
L 4448 2803 
L 2016 2803 
L 2016 2400 
L 4448 2400 
z
M 1555 -326 
L 1555 -627 
L 1018 -627 
Q 1056 -339 1056 -70 
L 1056 1222 
Q 1056 1504 1030 1722 
Q 1606 1696 3228 1696 
Q 4851 1696 5434 1722 
Q 5408 1504 5408 1222 
L 5408 -13 
Q 5408 -365 5440 -614 
L 4902 -614 
L 4902 -326 
L 1555 -326 
z
M 2982 1344 
L 1555 1344 
L 1555 877 
L 2982 877 
L 2982 1344 
z
M 4902 877 
L 4902 1344 
L 3462 1344 
L 3462 877 
L 4902 877 
z
M 1555 518 
L 1555 38 
L 2982 38 
L 2982 518 
L 1555 518 
z
M 4902 38 
L 4902 518 
L 3462 518 
L 3462 38 
L 4902 38 
z
" transform="scale(0.015625)"/>
        <path id="STHeiti-58eb" d="M 2874 2630 
Q 1299 2624 493 2566 
L 493 3206 
Q 1318 3149 2874 3142 
Q 2874 4749 2816 5165 
Q 3162 5120 3558 5120 
Q 3648 5120 3648 5085 
Q 3648 5050 3590 5011 
Q 3533 4973 3507 4912 
Q 3482 4851 3482 4736 
L 3482 3142 
Q 5056 3149 5882 3206 
L 5882 2566 
Q 5056 2624 3482 2630 
L 3482 301 
Q 4742 307 5414 365 
L 5414 -269 
Q 4678 -205 3232 -205 
Q 1786 -205 1056 -269 
L 1056 365 
Q 1715 307 2874 301 
L 2874 2630 
z
" transform="scale(0.015625)"/>
        <path id="STHeiti-8fbe" d="M 4134 3699 
Q 5280 3699 5779 3750 
L 5779 3226 
Q 5338 3264 4090 3251 
Q 3981 2349 3705 1830 
Q 3430 1312 2579 570 
Q 2438 819 2035 998 
Q 3437 1600 3558 3251 
Q 2611 3238 2182 3200 
L 2182 3750 
Q 2630 3706 3584 3699 
Q 3610 4326 3610 4620 
Q 3610 4915 3584 5152 
Q 3840 5114 4022 5107 
Q 4205 5101 4307 5101 
Q 4410 5101 4410 5069 
Q 4410 5037 4339 4986 
Q 4230 4896 4217 4621 
Q 4205 4346 4134 3699 
z
M 1894 4038 
L 1306 3725 
Q 1056 4371 698 4838 
L 1261 5114 
Q 1613 4640 1894 4038 
z
M 1645 666 
Q 1805 627 2227 403 
Q 2758 122 3734 122 
Q 4710 122 6048 250 
Q 5850 -141 5811 -435 
Q 4467 -435 3884 -425 
Q 3302 -416 2956 -371 
Q 2611 -326 2396 -230 
Q 2182 -134 1843 90 
Q 1587 262 1449 262 
Q 1312 262 1171 96 
Q 1030 -70 806 -442 
Q 576 -211 307 -45 
Q 794 506 1101 640 
L 1101 2534 
Q 570 2534 371 2509 
L 371 3008 
Q 710 2976 1036 2976 
Q 1363 2976 1702 3008 
Q 1645 2746 1645 2278 
L 1645 666 
z
M 5715 1050 
L 5286 653 
Q 4806 1446 4115 2221 
L 4474 2509 
Q 5210 1773 5715 1050 
z
" transform="scale(0.015625)"/>
       </defs>
       <use xlink:href="#STHeiti-5bcc"/>
       <use xlink:href="#STHeiti-58eb" transform="translate(99.999985 0)"/>
       <use xlink:href="#STHeiti-8fbe" transform="translate(199.999969 0)"/>
       <use xlink:href="#STHeiti-32" transform="translate(299.999954 0)"/>
       <use xlink:href="#STHeiti-30" transform="translate(355.399948 0)"/>
       <use xlink:href="#STHeiti-32" transform="translate(410.799942 0)"/>
       <use xlink:href="#STHeiti-30" transform="translate(466.199936 0)"/>
      </g>
     </g>
    </g>
    <g id="xtick_5">
     <g id="line2d_9">
      <path d="M 705.493125 303.815464 
L 705.493125 7.2 
" clip-path="url(#p906ef1a0f2)" style="fill: none; stroke: #b0b0b0; stroke-opacity: 0.3; stroke-width: 0.8; stroke-linecap: square"/>
     </g>
     <g id="line2d_10">
      <g>
       <use xlink:href="#ma3c4f511e7" x="705.493125" y="303.815464" style="stroke: #000000; stroke-width: 0.8"/>
      </g>
     </g>
     <g id="text_5">
      <!-- 青奇2021 -->
      <g transform="translate(668.309016 338.815445) rotate(-30) scale(0.1 -0.1)">
       <defs>
        <path id="STHeiti-9752" d="M 3437 3891 
Q 4659 3904 5338 3955 
L 5338 3437 
Q 4800 3488 3437 3501 
L 3437 3072 
Q 5408 3085 5958 3136 
L 5958 2618 
Q 5229 2682 3206 2682 
Q 1184 2682 461 2618 
L 461 3136 
Q 1197 3085 2912 3072 
L 2912 3501 
Q 1574 3488 1056 3437 
L 1056 3955 
Q 1728 3904 2912 3891 
L 2912 4282 
Q 1293 4269 774 4218 
L 774 4736 
Q 1299 4685 2912 4672 
Q 2899 5120 2886 5210 
Q 3059 5184 3251 5184 
L 3526 5197 
Q 3578 5197 3578 5168 
Q 3578 5139 3530 5104 
Q 3482 5069 3459 5001 
Q 3437 4934 3437 4870 
L 3437 4672 
Q 4947 4685 5606 4736 
L 5606 4218 
Q 4947 4269 3437 4282 
L 3437 3891 
z
M 1843 378 
L 1843 -506 
L 1286 -506 
Q 1338 45 1338 410 
L 1338 1779 
Q 1338 2022 1318 2336 
Q 1792 2304 3225 2304 
Q 4659 2304 5146 2336 
Q 5126 2022 5126 1779 
L 5126 70 
Q 5126 -237 5068 -355 
Q 5011 -474 4812 -522 
Q 4614 -570 4090 -602 
Q 4013 -269 3859 -38 
Q 4083 -58 4281 -58 
Q 4480 -58 4547 3 
Q 4614 64 4614 230 
L 4614 378 
L 1843 378 
z
M 4614 1530 
L 4614 1933 
L 1843 1933 
L 1843 1530 
L 4614 1530 
z
M 1843 1178 
L 1843 730 
L 4614 730 
L 4614 1178 
L 1843 1178 
z
" transform="scale(0.015625)"/>
        <path id="STHeiti-5947" d="M 2765 4147 
Q 1485 4134 851 4083 
L 851 4621 
Q 1702 4563 2899 4557 
Q 2976 4928 2995 5267 
Q 3405 5165 3661 5152 
Q 3725 5146 3725 5117 
Q 3725 5088 3680 5059 
Q 3635 5030 3564 4889 
Q 3494 4749 3424 4557 
Q 4838 4570 5702 4621 
L 5702 4083 
Q 4941 4147 3283 4147 
Q 3251 4058 3181 3942 
Q 4416 3744 5510 3366 
L 5178 2874 
Q 4262 3277 2918 3603 
Q 2336 3034 1152 2874 
Q 1082 3117 813 3315 
Q 2317 3443 2765 4147 
z
M 5088 2323 
L 5088 186 
Q 5088 -166 5040 -307 
Q 4992 -448 4809 -528 
Q 4627 -608 4147 -704 
Q 4115 -397 3917 -90 
Q 4115 -102 4284 -102 
Q 4454 -102 4508 -51 
Q 4563 0 4563 166 
L 4563 2330 
L 1856 2330 
Q 1178 2330 448 2259 
L 448 2835 
Q 979 2778 3315 2778 
Q 5651 2778 6054 2835 
L 6054 2259 
Q 5626 2317 5088 2323 
z
M 1792 339 
L 1792 -122 
L 1248 -122 
Q 1293 160 1293 538 
L 1293 1363 
Q 1293 1760 1242 1926 
Q 1574 1869 2560 1869 
Q 3546 1869 3802 1926 
Q 3750 1702 3750 1363 
L 3750 659 
Q 3750 288 3802 0 
L 3251 0 
L 3251 339 
L 1792 339 
z
M 3251 736 
L 3251 1453 
L 1792 1453 
L 1792 736 
L 3251 736 
z
" transform="scale(0.015625)"/>
        <path id="STHeiti-31" d="M 1184 4979 
L 2086 4979 
L 2086 384 
L 1632 384 
L 1632 4531 
L 909 4531 
L 1184 4979 
z
" transform="scale(0.015625)"/>
       </defs>
       <use xlink:href="#STHeiti-9752"/>
       <use xlink:href="#STHeiti-5947" transform="translate(99.999985 0)"/>
       <use xlink:href="#STHeiti-32" transform="translate(199.999969 0)"/>
       <use xlink:href="#STHeiti-30" transform="translate(255.399963 0)"/>
       <use xlink:href="#STHeiti-32" transform="translate(310.799957 0)"/>
       <use xlink:href="#STHeiti-31" transform="translate(366.199951 0)"/>
      </g>
     </g>
    </g>
   </g>
   <g id="matplotlib.axis_2">
    <g id="ytick_1">
     <g id="line2d_11">
      <path d="M 41.903125 290.422216 
L 705.493125 290.422216 
" clip-path="url(#p906ef1a0f2)" style="fill: none; stroke: #b0b0b0; stroke-opacity: 0.3; stroke-width: 0.8; stroke-linecap: square"/>
     </g>
     <g id="line2d_12">
      <defs>
       <path id="md9777ba876" d="M 0 0 
L -3.5 0 
" style="stroke: #000000; stroke-width: 0.8"/>
      </defs>
      <g>
       <use xlink:href="#md9777ba876" x="41.903125" y="290.422216" style="stroke: #000000; stroke-width: 0.8"/>
      </g>
     </g>
     <g id="text_6">
      <!-- 0 -->
      <g transform="translate(29.3625 294.401904) scale(0.1 -0.1)">
       <use xlink:href="#STHeiti-30"/>
      </g>
     </g>
    </g>
    <g id="ytick_2">
     <g id="line2d_13">
      <path d="M 41.903125 245.785497 
L 705.493125 245.785497 
" clip-path="url(#p906ef1a0f2)" style="fill: none; stroke: #b0b0b0; stroke-opacity: 0.3; stroke-width: 0.8; stroke-linecap: square"/>
     </g>
     <g id="line2d_14">
      <g>
       <use xlink:href="#md9777ba876" x="41.903125" y="245.785497" style="stroke: #000000; stroke-width: 0.8"/>
      </g>
     </g>
     <g id="text_7">
      <!-- 5000 -->
      <g transform="translate(12.740625 249.765184) scale(0.1 -0.1)">
       <defs>
        <path id="STHeiti-35" d="M 3149 4979 
L 3149 4544 
L 1510 4544 
L 1280 3290 
Q 1587 3379 1856 3379 
Q 2458 3379 2861 2953 
Q 3264 2528 3264 1862 
Q 3264 1197 2825 733 
Q 2387 269 1664 269 
Q 1114 269 726 598 
Q 339 928 262 1498 
L 730 1498 
Q 813 1114 1075 909 
Q 1338 704 1683 704 
Q 2138 704 2467 1043 
Q 2797 1382 2797 1888 
Q 2797 2349 2509 2646 
Q 2221 2944 1757 2944 
Q 1293 2944 730 2701 
L 1158 4979 
L 3149 4979 
z
" transform="scale(0.015625)"/>
       </defs>
       <use xlink:href="#STHeiti-35"/>
       <use xlink:href="#STHeiti-30" transform="translate(55.399994 0)"/>
       <use xlink:href="#STHeiti-30" transform="translate(110.799988 0)"/>
       <use xlink:href="#STHeiti-30" transform="translate(166.199982 0)"/>
      </g>
     </g>
    </g>
    <g id="ytick_3">
     <g id="line2d_15">
      <path d="M 41.903125 201.148778 
L 705.493125 201.148778 
" clip-path="url(#p906ef1a0f2)" style="fill: none; stroke: #b0b0b0; stroke-opacity: 0.3; stroke-width: 0.8; stroke-linecap: square"/>
     </g>
     <g id="line2d_16">
      <g>
       <use xlink:href="#md9777ba876" x="41.903125" y="201.148778" style="stroke: #000000; stroke-width: 0.8"/>
      </g>
     </g>
     <g id="text_8">
      <!-- 10000 -->
      <g transform="translate(7.2 205.128465) scale(0.1 -0.1)">
       <use xlink:href="#STHeiti-31"/>
       <use xlink:href="#STHeiti-30" transform="translate(55.399994 0)"/>
       <use xlink:href="#STHeiti-30" transform="translate(110.799988 0)"/>
       <use xlink:href="#STHeiti-30" transform="translate(166.199982 0)"/>
       <use xlink:href="#STHeiti-30" transform="translate(221.599976 0)"/>
      </g>
     </g>
    </g>
    <g id="ytick_4">
     <g id="line2d_17">
      <path d="M 41.903125 156.512058 
L 705.493125 156.512058 
" clip-path="url(#p906ef1a0f2)" style="fill: none; stroke: #b0b0b0; stroke-opacity: 0.3; stroke-width: 0.8; stroke-linecap: square"/>
     </g>
     <g id="line2d_18">
      <g>
       <use xlink:href="#md9777ba876" x="41.903125" y="156.512058" style="stroke: #000000; stroke-width: 0.8"/>
      </g>
     </g>
     <g id="text_9">
      <!-- 15000 -->
      <g transform="translate(7.2 160.491746) scale(0.1 -0.1)">
       <use xlink:href="#STHeiti-31"/>
       <use xlink:href="#STHeiti-35" transform="translate(55.399994 0)"/>
       <use xlink:href="#STHeiti-30" transform="translate(110.799988 0)"/>
       <use xlink:href="#STHeiti-30" transform="translate(166.199982 0)"/>
       <use xlink:href="#STHeiti-30" transform="translate(221.599976 0)"/>
      </g>
     </g>
    </g>
    <g id="ytick_5">
     <g id="line2d_19">
      <path d="M 41.903125 111.875339 
L 705.493125 111.875339 
" clip-path="url(#p906ef1a0f2)" style="fill: none; stroke: #b0b0b0; stroke-opacity: 0.3; stroke-width: 0.8; stroke-linecap: square"/>
     </g>
     <g id="line2d_20">
      <g>
       <use xlink:href="#md9777ba876" x="41.903125" y="111.875339" style="stroke: #000000; stroke-width: 0.8"/>
      </g>
     </g>
     <g id="text_10">
      <!-- 20000 -->
      <g transform="translate(7.2 115.855026) scale(0.1 -0.1)">
       <use xlink:href="#STHeiti-32"/>
       <use xlink:href="#STHeiti-30" transform="translate(55.399994 0)"/>
       <use xlink:href="#STHeiti-30" transform="translate(110.799988 0)"/>
       <use xlink:href="#STHeiti-30" transform="translate(166.199982 0)"/>
       <use xlink:href="#STHeiti-30" transform="translate(221.599976 0)"/>
      </g>
     </g>
    </g>
    <g id="ytick_6">
     <g id="line2d_21">
      <path d="M 41.903125 67.238619 
L 705.493125 67.238619 
" clip-path="url(#p906ef1a0f2)" style="fill: none; stroke: #b0b0b0; stroke-opacity: 0.3; stroke-width: 0.8; stroke-linecap: square"/>
     </g>
     <g id="line2d_22">
      <g>
       <use xlink:href="#md9777ba876" x="41.903125" y="67.238619" style="stroke: #000000; stroke-width: 0.8"/>
      </g>
     </g>
     <g id="text_11">
      <!-- 25000 -->
      <g transform="translate(7.2 71.218307) scale(0.1 -0.1)">
       <use xlink:href="#STHeiti-32"/>
       <use xlink:href="#STHeiti-35" transform="translate(55.399994 0)"/>
       <use xlink:href="#STHeiti-30" transform="translate(110.799988 0)"/>
       <use xlink:href="#STHeiti-30" transform="translate(166.199982 0)"/>
       <use xlink:href="#STHeiti-30" transform="translate(221.599976 0)"/>
      </g>
     </g>
    </g>
    <g id="ytick_7">
     <g id="line2d_23">
      <path d="M 41.903125 22.6019 
L 705.493125 22.6019 
" clip-path="url(#p906ef1a0f2)" style="fill: none; stroke: #b0b0b0; stroke-opacity: 0.3; stroke-width: 0.8; stroke-linecap: square"/>
     </g>
     <g id="line2d_24">
      <g>
       <use xlink:href="#md9777ba876" x="41.903125" y="22.6019" style="stroke: #000000; stroke-width: 0.8"/>
      </g>
     </g>
     <g id="text_12">
      <!-- 30000 -->
      <g transform="translate(7.2 26.581588) scale(0.1 -0.1)">
       <defs>
        <path id="STHeiti-33" d="M 845 3917 
L 378 3917 
Q 506 4486 867 4790 
Q 1229 5094 1750 5094 
Q 2272 5094 2659 4748 
Q 3046 4403 3046 3910 
Q 3046 3315 2458 2970 
Q 2861 2803 3081 2473 
Q 3302 2144 3302 1754 
Q 3302 1146 2857 707 
Q 2413 269 1734 269 
Q 1133 269 742 611 
Q 352 954 224 1613 
L 672 1613 
Q 794 1158 1046 937 
Q 1299 717 1760 717 
Q 2221 717 2534 1011 
Q 2848 1306 2848 1741 
Q 2848 2176 2502 2441 
Q 2157 2707 1498 2720 
L 1498 3142 
Q 1971 3142 2268 3360 
Q 2566 3578 2566 3901 
Q 2566 4224 2326 4438 
Q 2086 4653 1747 4653 
Q 1408 4653 1200 4470 
Q 992 4288 845 3917 
z
" transform="scale(0.015625)"/>
       </defs>
       <use xlink:href="#STHeiti-33"/>
       <use xlink:href="#STHeiti-30" transform="translate(55.399994 0)"/>
       <use xlink:href="#STHeiti-30" transform="translate(110.799988 0)"/>
       <use xlink:href="#STHeiti-30" transform="translate(166.199982 0)"/>
       <use xlink:href="#STHeiti-30" transform="translate(221.599976 0)"/>
      </g>
     </g>
    </g>
   </g>
   <g id="line2d_25">
    <path d="M 65.888306 290.332943 
L 225.789511 20.682521 
L 385.690715 289.797302 
L 545.59192 44.92026 
" clip-path="url(#p906ef1a0f2)" style="fill: none; stroke: #1a365d; stroke-width: 2; stroke-linecap: square"/>
    <defs>
     <path id="m575518a732" d="M 0 3 
C 0.795609 3 1.55874 2.683901 2.12132 2.12132 
C 2.683901 1.55874 3 0.795609 3 0 
C 3 -0.795609 2.683901 -1.55874 2.12132 -2.12132 
C 1.55874 -2.683901 0.795609 -3 0 -3 
C -0.795609 -3 -1.55874 -2.683901 -2.12132 -2.12132 
C -2.683901 -1.55874 -3 -0.795609 -3 0 
C -3 0.795609 -2.683901 1.55874 -2.12132 2.12132 
C -1.55874 2.683901 -0.795609 3 0 3 
z
" style="stroke: #1a365d"/>
    </defs>
    <g clip-path="url(#p906ef1a0f2)">
     <use xlink:href="#m575518a732" x="65.888306" y="290.332943" style="fill: #1a365d; stroke: #1a365d"/>
     <use xlink:href="#m575518a732" x="225.789511" y="20.682521" style="fill: #1a365d; stroke: #1a365d"/>
     <use xlink:href="#m575518a732" x="385.690715" y="289.797302" style="fill: #1a365d; stroke: #1a365d"/>
     <use xlink:href="#m575518a732" x="545.59192" y="44.92026" style="fill: #1a365d; stroke: #1a365d"/>
    </g>
   </g>
   <g id="patch_3">
    <path d="M 41.903125 303.815464 
L 41.903125 7.2 
" style="fill: none; stroke: #000000; stroke-width: 0.8; stroke-linejoin: miter; stroke-linecap: square"/>
   </g>
   <g id="patch_4">
    <path d="M 705.493125 303.815464 
L 705.493125 7.2 
" style="fill: none; stroke: #000000; stroke-width: 0.8; stroke-linejoin: miter; stroke-linecap: square"/>
   </g>
   <g id="patch_5">
    <path d="M 41.903125 303.815464 
L 705.493125 303.815464 
" style="fill: none; stroke: #000000; stroke-width: 0.8; stroke-linejoin: miter; stroke-linecap: square"/>
   </g>
   <g id="patch_6">
    <path d="M 41.903125 7.2 
L 705.493125 7.2 
" style="fill: none; stroke: #000000; stroke-width: 0.8; stroke-linejoin: miter; stroke-linecap: square"/>
   </g>
   <g id="legend_1">
    <g id="patch_7">
     <path d="M 634.393125 27.296719 
L 699.193125 27.296719 
Q 700.993125 27.296719 700.993125 25.496719 
L 700.993125 13.5 
Q 700.993125 11.7 699.193125 11.7 
L 634.393125 11.7 
Q 632.593125 11.7 632.593125 13.5 
L 632.593125 25.496719 
Q 632.593125 27.296719 634.393125 27.296719 
z
" style="fill: #ffffff; opacity: 0.8; stroke: #cccccc; stroke-linejoin: miter"/>
    </g>
    <g id="line2d_26">
     <path d="M 636.193125 19.340156 
L 645.193125 19.340156 
L 654.193125 19.340156 
" style="fill: none; stroke: #1a365d; stroke-width: 2; stroke-linecap: square"/>
     <g>
      <use xlink:href="#m575518a732" x="645.193125" y="19.340156" style="fill: #1a365d; stroke: #1a365d"/>
     </g>
    </g>
    <g id="text_13">
     <!-- 核心条款 -->
     <g transform="translate(661.393125 22.490156) scale(0.09 -0.09)">
      <defs>
       <path id="STHeiti-6838" d="M 4608 4646 
L 4019 4499 
Q 3936 4832 3802 5133 
L 4339 5274 
Q 4429 5024 4608 4646 
z
M 1242 2208 
Q 909 1318 538 787 
Q 384 1178 218 1395 
Q 864 2150 1242 3392 
Q 723 3379 397 3341 
L 397 3904 
Q 653 3866 1242 3853 
Q 1242 4947 1190 5222 
Q 1472 5171 1773 5171 
Q 1901 5171 1901 5139 
Q 1901 5107 1811 5050 
Q 1741 4998 1741 4877 
L 1741 3853 
Q 2272 3866 2496 3904 
L 2496 3341 
Q 2176 3386 1741 3386 
L 1741 2502 
L 2093 2656 
Q 2374 2189 2611 1824 
L 2150 1562 
Q 2003 1958 1741 2406 
L 1741 563 
Q 1741 6 1792 -640 
L 1184 -640 
Q 1242 -26 1242 563 
L 1242 2208 
z
M 6086 3840 
Q 5453 3891 4361 3891 
Q 3270 3891 2637 3840 
L 2637 4371 
Q 3277 4320 4365 4320 
Q 5453 4320 6086 4371 
L 6086 3840 
z
M 4429 2650 
Q 4736 3110 4877 3411 
Q 5126 3277 5427 3200 
Q 5517 3181 5517 3142 
Q 5517 3104 5443 3088 
Q 5370 3072 5322 3030 
Q 5274 2989 5210 2899 
Q 4563 1997 4102 1539 
Q 3642 1082 2746 493 
Q 2522 736 2246 883 
Q 3366 1382 4154 2278 
Q 3142 2227 2835 2112 
Q 2803 2323 2701 2592 
Q 2950 2675 3168 2960 
Q 3386 3245 3731 3840 
Q 3942 3706 4269 3597 
Q 4352 3571 4352 3542 
Q 4352 3514 4291 3498 
Q 4230 3482 4054 3309 
Q 3878 3136 3386 2618 
Q 3853 2618 4429 2650 
z
M 5018 934 
Q 5606 506 6093 -45 
L 5613 -435 
Q 5152 166 4691 589 
Q 3942 -154 2746 -627 
Q 2573 -333 2342 -166 
Q 3053 77 3517 333 
Q 3981 589 4515 1104 
Q 5050 1619 5306 2304 
Q 5606 2144 5766 2099 
Q 5926 2054 5926 2019 
Q 5926 1984 5846 1955 
Q 5766 1926 5658 1766 
Q 5338 1286 5018 934 
z
" transform="scale(0.015625)"/>
       <path id="STHeiti-5fc3" d="M 4122 3853 
L 3558 3411 
Q 3053 4166 2419 4717 
L 2925 5114 
Q 3469 4467 4122 3853 
z
M 5139 717 
Q 4973 192 4854 3 
Q 4736 -186 4502 -234 
Q 4269 -282 4003 -298 
Q 3738 -314 3424 -314 
Q 2701 -314 2505 -259 
Q 2310 -205 2230 -35 
Q 2150 134 2150 512 
L 2150 2419 
Q 2150 3002 2093 3277 
Q 2317 3245 2470 3245 
L 2765 3245 
Q 2861 3245 2861 3213 
Q 2861 3181 2797 3130 
Q 2720 3059 2720 2931 
L 2720 602 
Q 2720 448 2768 361 
Q 2816 275 2960 262 
Q 3104 250 3386 250 
Q 4013 250 4166 294 
Q 4320 339 4390 515 
Q 4461 691 4525 1171 
Q 4723 819 5139 717 
z
M 6074 1645 
L 5408 1318 
Q 5101 2112 4416 2899 
L 4909 3232 
Q 5446 2477 6074 1645 
z
M 832 3091 
Q 1018 3034 1123 3021 
Q 1229 3008 1379 3008 
Q 1530 3008 1530 2976 
Q 1530 2944 1469 2886 
Q 1408 2829 1305 2310 
Q 1203 1792 979 806 
Q 749 922 294 947 
Q 838 1920 832 3091 
z
" transform="scale(0.015625)"/>
       <path id="STHeiti-6761" d="M 3251 2899 
Q 2278 2432 710 2125 
Q 685 2381 416 2656 
Q 1523 2675 2810 3181 
Q 2406 3482 1965 4038 
Q 1632 3674 1094 3302 
Q 915 3501 627 3616 
Q 1203 3930 1635 4387 
Q 2067 4845 2234 5325 
Q 2650 5216 2819 5187 
Q 2989 5158 2989 5116 
Q 2989 5075 2899 5056 
Q 2758 5024 2458 4646 
L 3386 4646 
Q 5178 4646 5325 4659 
Q 4634 3680 3776 3174 
Q 4538 2854 5600 2854 
Q 5856 2854 6131 2874 
Q 5888 2618 5779 2208 
Q 4051 2458 3251 2899 
z
M 3309 3411 
Q 3898 3693 4301 4224 
L 2342 4224 
Q 2803 3718 3309 3411 
z
M 3526 1434 
L 3526 64 
Q 3526 -166 3465 -265 
Q 3405 -365 3187 -425 
Q 2970 -486 2432 -563 
Q 2400 -205 2157 96 
Q 2637 32 2781 32 
Q 2925 32 2960 73 
Q 2995 115 2995 224 
L 2995 1434 
Q 1542 1434 749 1370 
L 749 1939 
Q 1549 1875 2995 1875 
Q 2989 2298 2957 2534 
Q 3354 2470 3526 2470 
Q 3699 2470 3699 2435 
Q 3699 2400 3612 2365 
Q 3526 2330 3526 2138 
L 3526 1875 
Q 4870 1882 5626 1939 
L 5626 1370 
Q 4870 1427 3526 1434 
z
M 1894 1254 
Q 2010 1152 2160 1069 
Q 2310 986 2403 963 
Q 2496 941 2496 890 
Q 2496 845 2387 845 
Q 2278 845 2061 672 
Q 1120 -83 781 -301 
Q 602 -19 326 122 
Q 762 269 1187 582 
Q 1613 896 1894 1254 
z
M 6042 154 
L 5587 -301 
Q 5350 -96 4825 249 
Q 4301 595 3936 774 
L 4339 1139 
L 6042 154 
z
" transform="scale(0.015625)"/>
       <path id="STHeiti-6b3e" d="M 1824 4147 
Q 1037 4147 550 4102 
L 550 4589 
Q 1050 4544 1824 4544 
Q 1824 5005 1798 5248 
Q 2074 5210 2387 5210 
Q 2470 5210 2470 5181 
Q 2470 5152 2413 5107 
Q 2317 5037 2317 4819 
L 2317 4544 
Q 3002 4550 3546 4589 
L 3546 4102 
Q 3002 4141 2317 4147 
L 2317 3590 
Q 2893 3597 3309 3635 
L 3309 3155 
Q 2861 3200 1971 3200 
Q 1082 3200 736 3155 
L 736 3635 
Q 1248 3590 1824 3590 
L 1824 4147 
z
M 4365 4141 
L 5357 4141 
Q 5786 4141 6080 4192 
L 5766 2899 
L 5235 2957 
L 5421 3674 
L 4224 3674 
Q 4077 3232 3885 2739 
Q 3661 2848 3354 2925 
Q 3936 3942 4000 5178 
Q 4435 5082 4698 5082 
Q 4781 5082 4781 5030 
Q 4781 4979 4707 4928 
Q 4634 4877 4566 4729 
Q 4499 4582 4365 4141 
z
M 4339 3168 
Q 4627 3123 4832 3123 
L 4992 3136 
Q 5043 3136 5043 3097 
Q 5043 3059 5004 3020 
Q 4966 2982 4940 2921 
Q 4915 2861 4873 2675 
Q 4832 2490 4832 2426 
Q 4832 1440 5165 880 
Q 5498 320 6170 0 
Q 5875 -339 5741 -595 
Q 5261 -237 5005 220 
Q 4749 678 4653 1350 
Q 4512 710 4221 272 
Q 3930 -166 3328 -640 
Q 3142 -448 2848 -301 
Q 3456 83 3763 470 
Q 4070 858 4208 1533 
Q 4346 2208 4346 2925 
Q 4346 3059 4339 3168 
z
M 3270 2291 
Q 2816 2336 1965 2336 
Q 1114 2336 762 2291 
L 762 2803 
Q 1210 2758 2013 2758 
Q 2816 2758 3270 2803 
L 3270 2291 
z
M 2362 1427 
L 2362 -38 
Q 2362 -262 2294 -380 
Q 2227 -499 2038 -560 
Q 1850 -621 1466 -646 
Q 1440 -384 1235 -70 
Q 1446 -102 1584 -102 
Q 1722 -102 1792 -51 
Q 1862 0 1862 134 
L 1862 1427 
Q 915 1427 525 1382 
L 525 1888 
Q 1062 1843 2003 1843 
Q 2944 1843 3475 1888 
L 3475 1382 
Q 2950 1421 2362 1427 
z
M 3494 506 
L 3021 205 
Q 2874 621 2624 966 
L 3072 1190 
Q 3302 736 3494 506 
z
M 992 1146 
Q 1280 1024 1414 989 
Q 1549 954 1549 915 
Q 1549 877 1469 822 
Q 1389 768 1328 678 
Q 1267 589 870 -115 
Q 659 6 403 51 
Q 915 730 992 1146 
z
" transform="scale(0.015625)"/>
      </defs>
      <use xlink:href="#STHeiti-6838"/>
      <use xlink:href="#STHeiti-5fc3" transform="translate(99.999985 0)"/>
      <use xlink:href="#STHeiti-6761" transform="translate(199.999969 0)"/>
      <use xlink:href="#STHeiti-6b3e" transform="translate(299.999954 0)"/>
     </g>
    </g>
   </g>
  </g>
 </g>
 <defs>
  <clipPath id="p906ef1a0f2">
   <rect x="41.903125" y="7.2" width="663.59" height="296.615464"/>
  </clipPath>
 </defs>
</svg>
