<?xml version="1.0" encoding="utf-8" standalone="no"?>
<!DOCTYPE svg PUBLIC "-//W3C//DTD SVG 1.1//EN"
  "http://www.w3.org/Graphics/SVG/1.1/DTD/svg11.dtd">
<svg xmlns:xlink="http://www.w3.org/1999/xlink" width="710.684101pt" height="352.315583pt" viewBox="0 0 710.684101 352.315583" xmlns="http://www.w3.org/2000/svg" version="1.1">
 <metadata>
  <rdf:RDF xmlns:dc="http://purl.org/dc/elements/1.1/" xmlns:cc="http://creativecommons.org/ns#" xmlns:rdf="http://www.w3.org/1999/02/22-rdf-syntax-ns#">
   <cc:Work>
    <dc:type rdf:resource="http://purl.org/dc/dcmitype/StillImage"/>
    <dc:date>2026-06-04T15:39:47.295449</dc:date>
    <dc:format>image/svg+xml</dc:format>
    <dc:creator>
     <cc:Agent>
      <dc:title>Matplotlib v3.10.9, https://matplotlib.org/</dc:title>
     </cc:Agent>
    </dc:creator>
   </cc:Work>
  </rdf:RDF>
 </metadata>
 <defs>
  <style type="text/css">*{stroke-linejoin: round; stroke-linecap: butt}</style>
 </defs>
 <g id="figure_1">
  <g id="patch_1">
   <path d="M -0 352.315583 
L 710.684101 352.315583 
L 710.684101 0 
L -0 0 
z
" style="fill: #ffffff"/>
  </g>
  <g id="axes_1">
   <g id="patch_2">
    <path d="M 87.291633 274.925464 
L 703.484101 274.925464 
L 703.484101 7.2 
L 87.291633 7.2 
z
" style="fill: #fafafa"/>
   </g>
   <g id="matplotlib.axis_1">
    <g id="xtick_1">
     <g id="line2d_1">
      <path d="M 107.168809 274.925464 
L 107.168809 7.2 
" clip-path="url(#paa1f3541ef)" style="fill: none; stroke: #b0b0b0; stroke-opacity: 0.3; stroke-width: 0.8; stroke-linecap: square"/>
     </g>
     <g id="line2d_2">
      <defs>
       <path id="mfcfa07d512" d="M 0 0 
L 0 3.5 
" style="stroke: #000000; stroke-width: 0.8"/>
      </defs>
      <g>
       <use xlink:href="#mfcfa07d512" x="107.168809" y="274.925464" style="stroke: #000000; stroke-width: 0.8"/>
      </g>
     </g>
     <g id="text_1">
      <!-- 滁州北侧4GWh（在建） -->
      <g transform="translate(11.269531 343.954568) rotate(-30) scale(0.1 -0.1)">
       <defs>
        <path id="STHeiti-6ec1" d="M 4192 2906 
Q 3878 2906 3712 2880 
L 3712 3302 
Q 3597 3142 3277 2790 
Q 3098 2982 2874 3078 
Q 3898 4051 4122 5197 
Q 4506 5107 4838 5069 
Q 4915 5062 4915 5033 
Q 4915 5005 4844 4979 
Q 4774 4954 4704 4883 
Q 4896 4403 5312 4022 
Q 5728 3642 6214 3475 
Q 5965 3213 5843 2925 
Q 4851 3558 4506 4538 
Q 4186 3885 3757 3354 
Q 4058 3309 4522 3309 
Q 4986 3309 5274 3360 
L 5274 2880 
Q 5011 2906 4678 2912 
L 4678 2208 
Q 5274 2227 5626 2278 
L 5626 1754 
Q 5299 1779 4678 1792 
L 4678 13 
Q 4678 -173 4627 -269 
Q 4576 -365 4397 -445 
Q 4218 -525 3814 -614 
Q 3789 -275 3565 32 
Q 3706 26 3856 26 
Q 4006 26 4099 58 
Q 4192 90 4192 205 
L 4192 1792 
Q 3674 1786 3373 1754 
L 3373 2278 
Q 3661 2221 4192 2214 
L 4192 2906 
z
M 1619 4429 
L 1261 3968 
Q 934 4326 493 4589 
L 819 5005 
Q 1222 4736 1619 4429 
z
M 3334 4851 
L 2758 3046 
Q 3219 2234 3219 1709 
Q 3219 1075 2522 800 
Q 2483 1101 2266 1370 
Q 2522 1408 2627 1501 
Q 2733 1594 2733 1894 
Q 2733 2368 2368 2963 
L 2739 4384 
L 2144 4384 
L 2144 -563 
L 1645 -563 
Q 1690 -64 1690 813 
L 1690 4198 
Q 1690 4653 1670 4851 
Q 1946 4826 2502 4826 
Q 3059 4826 3334 4851 
z
M 1472 2899 
L 1126 2470 
Q 691 2906 288 3136 
L 666 3520 
Q 1146 3206 1472 2899 
z
M 1414 1773 
Q 1280 1453 1178 934 
L 902 -416 
Q 576 -211 269 -102 
Q 467 282 659 922 
Q 851 1562 928 2131 
Q 1094 1901 1414 1773 
z
M 3373 1350 
Q 3629 1229 3795 1206 
Q 3962 1184 3962 1152 
Q 3962 1120 3891 1075 
Q 3821 1030 3677 713 
Q 3533 397 3194 -134 
Q 2976 -45 2682 32 
Q 3194 672 3373 1350 
z
M 6067 141 
L 5549 -45 
Q 5306 589 4947 1158 
L 5402 1344 
Q 5779 806 6067 141 
z
" transform="scale(0.015625)"/>
        <path id="STHeiti-5dde" d="M 5011 5133 
Q 5299 5069 5626 5069 
Q 5754 5069 5754 5027 
Q 5754 4986 5686 4947 
Q 5619 4909 5600 4806 
Q 5581 4704 5581 4461 
L 5581 595 
Q 5581 96 5632 -582 
L 5037 -582 
Q 5082 19 5082 595 
L 5082 4141 
Q 5082 4826 5011 5133 
z
M 1651 5069 
Q 1850 5030 2259 5030 
Q 2374 5030 2374 4985 
Q 2374 4941 2310 4890 
Q 2202 4800 2202 4288 
L 2208 3603 
Q 2208 1901 1974 1037 
Q 1741 173 1075 -659 
Q 858 -416 474 -288 
Q 1050 134 1386 841 
Q 1722 1549 1722 3258 
Q 1722 4122 1651 5069 
z
M 3226 4813 
Q 3514 4749 3846 4749 
Q 3968 4749 3968 4707 
Q 3968 4666 3885 4618 
Q 3802 4570 3802 4141 
L 3802 819 
Q 3802 275 3846 -352 
L 3251 -352 
Q 3296 262 3296 819 
L 3296 3821 
Q 3296 4506 3226 4813 
z
M 1402 3616 
Q 1350 2470 1126 1498 
L 531 1600 
Q 890 2451 915 3667 
L 1402 3616 
z
M 3117 1824 
L 2624 1709 
Q 2547 2675 2336 3469 
L 2790 3565 
Q 2925 2925 3117 1824 
z
M 4826 1773 
L 4294 1651 
Q 4211 2598 3981 3437 
L 4435 3539 
Q 4678 2624 4826 1773 
z
" transform="scale(0.015625)"/>
        <path id="STHeiti-5317" d="M 3949 2867 
Q 4947 3450 5344 3917 
Q 5530 3603 5766 3386 
Q 5824 3334 5824 3305 
Q 5824 3277 5715 3264 
Q 5542 3245 3949 2336 
L 3949 518 
Q 3949 269 4086 208 
Q 4224 147 4553 147 
Q 4883 147 5020 198 
Q 5158 250 5225 435 
Q 5293 621 5338 1075 
Q 5683 736 5990 710 
Q 5837 186 5696 -32 
Q 5555 -250 5318 -314 
Q 5082 -378 4550 -378 
Q 4019 -378 3792 -326 
Q 3565 -275 3491 -124 
Q 3418 26 3418 378 
L 3418 4282 
Q 3418 4787 3386 5050 
Q 3520 5030 4006 5030 
Q 4109 5030 4109 4992 
Q 4109 4954 4029 4896 
Q 3949 4838 3949 4723 
L 3949 2867 
z
M 2022 2893 
L 960 2893 
Q 717 2893 544 2861 
L 544 3443 
Q 717 3411 960 3411 
L 2022 3411 
L 2022 4102 
Q 2022 4800 1958 4992 
Q 2246 4960 2445 4960 
L 2637 4966 
Q 2714 4966 2714 4934 
Q 2714 4902 2630 4838 
Q 2547 4774 2547 4640 
L 2547 589 
Q 2547 64 2586 -454 
L 1965 -454 
Q 2022 45 2022 678 
Q 1312 352 742 45 
Q 602 358 384 717 
Q 1139 819 2022 1152 
L 2022 2893 
z
" transform="scale(0.015625)"/>
        <path id="STHeiti-4fa7" d="M 1402 4102 
L 1402 -557 
L 896 -557 
Q 966 141 966 819 
L 966 2989 
Q 794 2586 582 2221 
Q 397 2458 218 2573 
Q 826 3437 1286 5158 
Q 1549 5030 1779 4960 
Q 1882 4928 1882 4899 
Q 1882 4870 1766 4787 
Q 1651 4704 1402 4102 
z
M 5254 5082 
Q 5370 5050 5773 5050 
Q 5869 5050 5869 4998 
Q 5869 4947 5808 4905 
Q 5747 4864 5747 4730 
L 5747 115 
Q 5747 -179 5699 -300 
Q 5651 -422 5491 -483 
Q 5331 -544 4915 -621 
Q 4858 -301 4672 -13 
Q 4845 -32 4995 -32 
Q 5146 -32 5226 19 
Q 5306 70 5306 275 
L 5306 4096 
Q 5306 4742 5254 5082 
z
M 4019 1197 
L 3533 1197 
L 3533 4198 
L 2342 4198 
L 2342 1146 
L 1856 1146 
Q 1907 1587 1907 2099 
L 1907 3674 
Q 1907 4339 1862 4685 
Q 2093 4614 2889 4614 
Q 3686 4614 4006 4685 
Q 3968 4314 3968 3674 
L 3968 2099 
Q 3968 1632 4019 1197 
z
M 4902 1011 
L 4358 1011 
Q 4416 1485 4416 1971 
L 4416 3539 
Q 4416 4026 4346 4429 
Q 4493 4397 4659 4397 
L 4890 4410 
Q 4934 4410 4934 4378 
Q 4934 4346 4896 4307 
Q 4858 4269 4858 4122 
L 4858 1978 
Q 4858 1510 4902 1011 
z
M 2688 3885 
Q 2835 3853 2957 3853 
L 3168 3853 
Q 3245 3853 3245 3817 
Q 3245 3782 3200 3731 
Q 3130 3648 3130 3258 
L 3136 2784 
Q 3136 1459 2941 816 
Q 2746 173 2035 -442 
Q 1894 -294 1568 -160 
Q 2086 218 2316 538 
Q 2547 858 2633 1302 
Q 2720 1747 2720 2444 
Q 2720 3142 2688 3885 
z
M 4301 122 
L 3866 -166 
Q 3526 397 3123 794 
L 3482 1056 
Q 3891 621 4301 122 
z
" transform="scale(0.015625)"/>
        <path id="STHeiti-34" d="M 2726 5094 
L 2816 5094 
L 2816 1894 
L 3373 1894 
L 3373 1453 
L 2816 1453 
L 2816 384 
L 2362 384 
L 2362 1453 
L 160 1453 
L 2726 5094 
z
M 2362 1894 
L 2362 3808 
L 1005 1894 
L 2362 1894 
z
" transform="scale(0.015625)"/>
        <path id="STHeiti-47" d="M 5318 4211 
L 4966 3872 
Q 4582 4243 4124 4441 
Q 3667 4640 3180 4640 
Q 2694 4640 2208 4377 
Q 1722 4115 1450 3670 
Q 1178 3226 1178 2707 
Q 1178 1901 1782 1302 
Q 2387 704 3296 704 
Q 3987 704 4483 1091 
Q 4979 1478 5075 2144 
L 3610 2144 
L 3610 2586 
L 5594 2586 
Q 5574 1491 4940 880 
Q 4307 269 3283 269 
Q 2106 269 1398 992 
Q 691 1715 691 2691 
Q 691 3667 1395 4380 
Q 2099 5094 3244 5094 
Q 4390 5094 5318 4211 
z
" transform="scale(0.015625)"/>
        <path id="STHeiti-57" d="M 301 4979 
L 774 4979 
L 1709 1555 
L 3027 4979 
L 3117 4979 
L 4422 1555 
L 5376 4979 
L 5843 4979 
L 4525 269 
L 4435 269 
L 3072 3859 
L 1683 269 
L 1600 269 
L 301 4979 
z
" transform="scale(0.015625)"/>
        <path id="STHeiti-68" d="M 486 5094 
L 928 5094 
L 928 3174 
Q 1453 3872 2202 3872 
Q 2586 3872 2893 3664 
Q 3200 3456 3328 3120 
Q 3456 2784 3456 2131 
L 3456 384 
L 3014 384 
L 3014 2003 
Q 3014 2528 2982 2726 
Q 2950 2925 2841 3104 
Q 2733 3283 2550 3376 
Q 2368 3469 2109 3469 
Q 1850 3469 1613 3347 
Q 1376 3226 1209 3008 
Q 1043 2790 985 2560 
Q 928 2330 928 1632 
L 928 384 
L 486 384 
L 486 5094 
z
" transform="scale(0.015625)"/>
        <path id="STHeiti-ff08" d="M 5651 -749 
L 5274 -749 
Q 4646 173 4409 835 
Q 4173 1498 4173 2266 
Q 4173 3034 4432 3750 
Q 4691 4467 5254 5267 
L 5645 5267 
Q 5082 4237 4928 3606 
Q 4774 2976 4774 2093 
Q 4774 1472 4953 861 
Q 5133 250 5651 -749 
z
" transform="scale(0.015625)"/>
        <path id="STHeiti-5728" d="M 2291 3853 
Q 1261 3834 800 3795 
L 800 4384 
Q 1453 4339 2502 4320 
Q 2701 4806 2758 5318 
Q 3162 5190 3443 5165 
Q 3558 5152 3558 5107 
Q 3558 5062 3450 4986 
Q 3386 4941 3085 4320 
Q 4947 4307 5939 4384 
L 5939 3795 
Q 4870 3872 2861 3859 
Q 2541 3194 1907 2438 
L 1907 653 
Q 1907 224 1939 -480 
L 1350 -480 
Q 1389 352 1389 653 
L 1389 1869 
Q 1075 1562 742 1261 
Q 512 1542 269 1651 
Q 851 2022 1376 2566 
Q 1357 2912 1318 3034 
Q 1549 2989 1747 3002 
Q 2074 3418 2291 3853 
z
M 4224 2304 
Q 5120 2310 5619 2368 
L 5619 1792 
Q 5107 1850 4224 1850 
L 4224 288 
Q 5312 294 5926 352 
L 5926 -237 
Q 5267 -173 4000 -173 
Q 2733 -173 2080 -237 
L 2080 352 
Q 2688 294 3706 288 
L 3706 1850 
Q 2931 1830 2419 1773 
L 2419 2368 
Q 2912 2310 3706 2304 
Q 3706 3258 3648 3514 
Q 3962 3450 4282 3450 
Q 4365 3450 4365 3421 
Q 4365 3392 4317 3357 
Q 4269 3322 4246 3254 
Q 4224 3187 4224 3123 
L 4224 2304 
z
" transform="scale(0.015625)"/>
        <path id="STHeiti-5efa" d="M 4045 2080 
Q 4922 2080 5382 2131 
L 5382 1677 
Q 4922 1722 4045 1722 
L 4045 1171 
Q 5114 1171 5606 1222 
L 5606 768 
Q 5107 813 4051 813 
Q 4051 627 4083 275 
L 3552 275 
Q 3571 518 3584 813 
Q 2675 813 2234 768 
L 2234 1222 
Q 2662 1171 3584 1171 
L 3584 1722 
Q 2829 1722 2400 1677 
L 2400 2131 
Q 2816 2080 3584 2080 
L 3584 2624 
Q 2829 2624 2554 2592 
L 2554 3008 
Q 2739 2982 3584 2976 
L 3584 3482 
Q 2726 3482 2214 3437 
L 2214 3891 
Q 2637 3853 3584 3853 
L 3584 4294 
Q 2867 4294 2554 4262 
L 2554 4691 
Q 2835 4666 3584 4659 
Q 3578 5030 3552 5242 
Q 3776 5210 4077 5210 
Q 4211 5210 4211 5171 
Q 4211 5133 4128 5085 
Q 4045 5037 4045 4659 
Q 5082 4659 5389 4717 
Q 5370 4602 5370 4352 
L 5370 3853 
Q 5792 3853 6003 3891 
L 6003 3450 
Q 5856 3469 5370 3482 
L 5370 3123 
Q 5370 2822 5395 2605 
Q 5126 2624 4045 2624 
L 4045 2080 
z
M 4045 3853 
L 4922 3853 
L 4922 4294 
L 4045 4294 
L 4045 3853 
z
M 4922 3482 
L 4045 3482 
L 4045 2976 
L 4922 2976 
L 4922 3482 
z
M 1670 826 
Q 2061 410 2509 246 
Q 2957 83 3725 83 
Q 4493 83 5958 237 
Q 5792 -109 5773 -410 
Q 5107 -435 4602 -435 
Q 3270 -435 2595 -256 
Q 1920 -77 1446 384 
Q 1184 -70 774 -448 
Q 653 -243 378 -102 
Q 845 275 1133 768 
Q 762 1286 493 1830 
L 915 2035 
Q 1043 1613 1344 1216 
Q 1536 1715 1606 2445 
Q 1024 2406 774 2323 
Q 742 2547 640 2726 
Q 845 2854 947 3078 
L 1459 4205 
L 1037 4205 
Q 832 4205 595 4160 
L 595 4634 
Q 806 4621 1267 4621 
Q 1728 4621 2112 4653 
Q 1792 3738 1318 2816 
Q 2022 2842 2144 2906 
Q 2022 1619 1670 826 
z
" transform="scale(0.015625)"/>
        <path id="STHeiti-ff09" d="M 1120 5267 
Q 1747 4346 1984 3683 
Q 2221 3021 2221 2253 
Q 2221 1485 1961 768 
Q 1702 51 1139 -749 
L 749 -749 
Q 1312 282 1465 912 
Q 1619 1542 1619 2426 
Q 1619 3046 1440 3657 
Q 1261 4269 742 5267 
L 1120 5267 
z
" transform="scale(0.015625)"/>
       </defs>
       <use xlink:href="#STHeiti-6ec1"/>
       <use xlink:href="#STHeiti-5dde" transform="translate(99.999985 0)"/>
       <use xlink:href="#STHeiti-5317" transform="translate(199.999969 0)"/>
       <use xlink:href="#STHeiti-4fa7" transform="translate(299.999954 0)"/>
       <use xlink:href="#STHeiti-34" transform="translate(399.999939 0)"/>
       <use xlink:href="#STHeiti-47" transform="translate(455.399933 0)"/>
       <use xlink:href="#STHeiti-57" transform="translate(542.599915 0)"/>
       <use xlink:href="#STHeiti-68" transform="translate(638.599899 0)"/>
       <use xlink:href="#STHeiti-ff08" transform="translate(699.599884 0)"/>
       <use xlink:href="#STHeiti-5728" transform="translate(799.599869 0)"/>
       <use xlink:href="#STHeiti-5efa" transform="translate(899.599854 0)"/>
       <use xlink:href="#STHeiti-ff09" transform="translate(999.599838 0)"/>
      </g>
     </g>
    </g>
    <g id="xtick_2">
     <g id="line2d_3">
      <path d="M 305.940573 274.925464 
L 305.940573 7.2 
" clip-path="url(#paa1f3541ef)" style="fill: none; stroke: #b0b0b0; stroke-opacity: 0.3; stroke-width: 0.8; stroke-linecap: square"/>
     </g>
     <g id="line2d_4">
      <g>
       <use xlink:href="#mfcfa07d512" x="305.940573" y="274.925464" style="stroke: #000000; stroke-width: 0.8"/>
      </g>
     </g>
     <g id="text_2">
      <!-- B3-1金砖72（搁浅） -->
      <g transform="translate(226.268446 334.56958) rotate(-30) scale(0.1 -0.1)">
       <defs>
        <path id="STHeiti-42" d="M 570 4979 
L 1478 4979 
Q 2202 4979 2576 4688 
Q 2950 4397 2950 3853 
Q 2950 3552 2800 3299 
Q 2650 3046 2362 2893 
Q 2835 2739 3081 2432 
Q 3328 2125 3328 1702 
Q 3328 1133 2912 758 
Q 2496 384 1837 384 
L 570 384 
L 570 4979 
z
M 1024 4531 
L 1024 3059 
L 1286 3059 
Q 1888 3059 2182 3251 
Q 2477 3443 2477 3853 
Q 2477 4531 1555 4531 
L 1024 4531 
z
M 1024 2598 
L 1024 832 
L 1594 832 
Q 2086 832 2320 931 
Q 2554 1030 2701 1238 
Q 2848 1446 2848 1664 
Q 2848 1882 2765 2048 
Q 2682 2214 2518 2342 
Q 2355 2470 2128 2534 
Q 1901 2598 1280 2598 
L 1024 2598 
z
" transform="scale(0.015625)"/>
        <path id="STHeiti-33" d="M 845 3917 
L 378 3917 
Q 506 4486 867 4790 
Q 1229 5094 1750 5094 
Q 2272 5094 2659 4748 
Q 3046 4403 3046 3910 
Q 3046 3315 2458 2970 
Q 2861 2803 3081 2473 
Q 3302 2144 3302 1754 
Q 3302 1146 2857 707 
Q 2413 269 1734 269 
Q 1133 269 742 611 
Q 352 954 224 1613 
L 672 1613 
Q 794 1158 1046 937 
Q 1299 717 1760 717 
Q 2221 717 2534 1011 
Q 2848 1306 2848 1741 
Q 2848 2176 2502 2441 
Q 2157 2707 1498 2720 
L 1498 3142 
Q 1971 3142 2268 3360 
Q 2566 3578 2566 3901 
Q 2566 4224 2326 4438 
Q 2086 4653 1747 4653 
Q 1408 4653 1200 4470 
Q 992 4288 845 3917 
z
" transform="scale(0.015625)"/>
        <path id="STHeiti-2d" d="M 205 2304 
L 1920 2304 
L 1920 1920 
L 205 1920 
L 205 2304 
z
" transform="scale(0.015625)"/>
        <path id="STHeiti-31" d="M 1184 4979 
L 2086 4979 
L 2086 384 
L 1632 384 
L 1632 4531 
L 909 4531 
L 1184 4979 
z
" transform="scale(0.015625)"/>
        <path id="STHeiti-91d1" d="M 3386 4947 
Q 4038 4243 4636 3878 
Q 5235 3514 6138 3302 
Q 6042 3213 5958 3024 
Q 5875 2835 5869 2688 
Q 4192 3251 3123 4698 
Q 2586 3968 1632 3187 
Q 2182 3142 3200 3142 
Q 4218 3142 4736 3194 
L 4736 2662 
Q 4314 2694 3405 2707 
L 3405 1920 
Q 4768 1920 5261 1958 
L 5261 1440 
Q 4768 1478 3405 1478 
L 3405 154 
L 4006 147 
Q 4288 787 4371 1299 
Q 4736 1146 4922 1094 
Q 4979 1075 4979 1024 
Q 4979 973 4934 954 
Q 4826 902 4390 147 
Q 5094 154 5632 211 
L 5632 -390 
Q 4525 -320 3024 -320 
Q 1523 -320 646 -384 
L 646 218 
Q 1472 154 2886 154 
L 2886 1478 
Q 1638 1478 1005 1434 
L 1005 1965 
Q 1664 1920 2886 1920 
L 2886 2707 
Q 1990 2707 1574 2662 
L 1574 3142 
Q 1037 2720 678 2528 
Q 570 2797 275 2925 
Q 742 3130 1184 3469 
Q 1626 3808 1984 4173 
Q 2342 4538 2505 4787 
Q 2669 5037 2778 5306 
Q 3219 5126 3360 5107 
Q 3501 5088 3501 5040 
Q 3501 4992 3386 4947 
z
M 2234 525 
L 1709 275 
Q 1491 774 1286 1037 
L 1805 1261 
Q 2080 832 2234 525 
z
" transform="scale(0.015625)"/>
        <path id="STHeiti-7816" d="M 4224 531 
L 5011 1466 
L 3994 1466 
Q 3526 1466 3347 1434 
Q 3456 1722 3578 2598 
Q 2944 2566 2867 2560 
L 2867 3098 
Q 3181 3066 3648 3053 
Q 3744 3757 3750 3859 
Q 3226 3846 2976 3808 
L 2976 4352 
Q 3309 4294 3789 4294 
Q 3827 4813 3827 5235 
Q 4058 5139 4448 5139 
Q 4563 5139 4563 5097 
Q 4563 5056 4502 5005 
Q 4442 4954 4400 4813 
Q 4358 4672 4294 4294 
L 5018 4294 
Q 5395 4294 5728 4352 
L 5728 3808 
Q 5395 3866 5018 3866 
L 4230 3866 
L 4115 3046 
L 5242 3046 
Q 5555 3046 6042 3098 
L 6042 2560 
Q 5606 2605 5242 2605 
L 4058 2605 
L 3968 1894 
L 5005 1894 
Q 5318 1894 5741 1933 
L 5741 1427 
Q 5626 1395 5562 1350 
Q 5498 1306 5357 1146 
L 4595 269 
Q 4819 115 5286 -243 
L 4890 -710 
Q 4576 -397 4054 12 
Q 3533 422 3213 621 
L 3501 1005 
L 4224 531 
z
M 941 2022 
Q 736 1683 550 1434 
Q 442 1741 269 1946 
Q 742 2458 976 2963 
Q 1210 3469 1344 4243 
Q 877 4237 531 4179 
L 531 4762 
Q 928 4691 1609 4691 
Q 2291 4691 2752 4762 
L 2752 4179 
Q 2445 4237 1862 4243 
Q 1741 3584 1440 2925 
Q 2566 2925 2662 2957 
Q 2598 2746 2598 2342 
L 2598 890 
Q 2598 531 2637 102 
L 2112 102 
L 2112 582 
L 1389 582 
L 1389 -269 
L 883 -269 
Q 941 186 941 704 
L 941 2022 
z
M 2112 966 
L 2112 2509 
L 1389 2509 
L 1389 966 
L 2112 966 
z
" transform="scale(0.015625)"/>
        <path id="STHeiti-37" d="M 461 4979 
L 3373 4979 
L 915 269 
L 538 461 
L 2662 4544 
L 461 4544 
L 461 4979 
z
" transform="scale(0.015625)"/>
        <path id="STHeiti-32" d="M 742 3539 
L 301 3539 
Q 333 4243 768 4668 
Q 1203 5094 1820 5094 
Q 2438 5094 2844 4694 
Q 3251 4294 3251 3718 
Q 3251 3290 3024 2925 
Q 2797 2560 2336 2061 
L 1190 826 
L 3315 826 
L 3315 384 
L 192 384 
L 1946 2278 
Q 2406 2778 2604 3066 
Q 2803 3354 2803 3725 
Q 2803 4096 2512 4377 
Q 2221 4659 1789 4659 
Q 1357 4659 1072 4368 
Q 787 4077 742 3539 
z
" transform="scale(0.015625)"/>
        <path id="STHeiti-6401" d="M 1075 2253 
L 1075 3469 
Q 678 3462 435 3411 
L 435 3949 
Q 640 3904 1075 3898 
Q 1075 4941 1005 5229 
Q 1197 5184 1594 5184 
Q 1747 5184 1747 5136 
Q 1747 5088 1670 5030 
Q 1594 4973 1571 4925 
Q 1549 4877 1549 4794 
L 1549 3904 
Q 1862 3904 2099 3949 
L 2099 3411 
Q 1875 3456 1549 3462 
L 1549 2419 
Q 1888 2560 2074 2656 
Q 2054 2573 2054 2473 
Q 2054 2374 2106 2182 
Q 1888 2125 1549 1984 
L 1549 32 
Q 1549 -166 1481 -281 
Q 1414 -397 1225 -470 
Q 1037 -544 666 -582 
Q 646 -250 442 45 
Q 698 13 838 13 
Q 979 13 1027 61 
Q 1075 109 1075 230 
L 1075 1760 
Q 614 1517 429 1395 
Q 390 1818 333 2061 
Q 634 2112 1075 2253 
z
M 3443 4282 
L 2976 4058 
L 2470 4915 
L 2918 5120 
Q 3168 4672 3443 4282 
z
M 5856 4781 
Q 5798 4429 5798 4045 
L 5798 -13 
Q 5798 -358 5628 -464 
Q 5459 -570 4883 -621 
Q 4838 -320 4659 -38 
Q 4896 -70 5033 -70 
Q 5171 -70 5232 -16 
Q 5293 38 5293 224 
L 5293 4307 
Q 4115 4307 3661 4243 
L 3661 4781 
Q 4141 4723 4752 4723 
Q 5363 4723 5856 4781 
z
M 3962 2246 
Q 3699 2016 3309 1779 
Q 3494 1722 3993 1722 
Q 4493 1722 4800 1766 
Q 4762 1491 4762 985 
Q 4762 480 4800 173 
Q 4499 218 4019 218 
Q 3539 218 3245 166 
Q 3290 531 3290 1020 
Q 3290 1510 3251 1741 
Q 3098 1651 3021 1613 
Q 2925 1779 2778 1965 
Q 3341 2182 3718 2483 
Q 3507 2746 3424 2995 
Q 3290 2771 3168 2630 
Q 3034 2739 2810 2784 
Q 3002 2970 3222 3357 
Q 3443 3744 3565 4115 
Q 3693 4006 3936 3955 
Q 4019 3942 4019 3904 
Q 4019 3866 3948 3811 
Q 3878 3757 3821 3667 
L 4992 3667 
Q 4666 2995 4250 2534 
Q 4704 2266 5293 2195 
Q 5120 1978 5062 1741 
Q 4390 1894 3962 2246 
z
M 3968 2746 
Q 4224 3059 4378 3341 
L 3622 3341 
Q 3616 3322 3590 3283 
Q 3712 2963 3968 2746 
z
M 3699 1382 
L 3699 576 
L 4346 576 
L 4346 1382 
L 3699 1382 
z
M 2202 4070 
Q 2451 4013 2707 4013 
Q 2778 4013 2778 3965 
Q 2778 3917 2742 3862 
Q 2707 3808 2707 3654 
L 2707 -538 
L 2182 -538 
Q 2253 -32 2253 390 
L 2253 3290 
Q 2253 3750 2202 4070 
z
" transform="scale(0.015625)"/>
        <path id="STHeiti-6d45" d="M 3174 2938 
Q 2688 2829 2189 2682 
L 2086 3187 
Q 2541 3258 3155 3386 
L 3098 5165 
Q 3488 5082 3750 5082 
Q 3872 5082 3872 5043 
Q 3872 5005 3789 4921 
Q 3706 4838 3680 4569 
Q 3654 4301 3667 3494 
Q 4896 3750 5645 3955 
L 5741 3475 
Q 5466 3424 4992 3328 
L 3680 3053 
Q 3725 2554 3776 2291 
Q 4890 2534 5818 2784 
L 5914 2298 
L 3872 1882 
Q 3994 1427 4211 1050 
Q 4685 1466 4998 1971 
Q 5216 1760 5498 1613 
Q 5549 1587 5549 1545 
Q 5549 1504 5462 1497 
Q 5376 1491 5232 1385 
Q 5088 1280 4873 1056 
Q 4659 832 4474 685 
Q 4653 467 4915 272 
Q 5178 77 5274 77 
Q 5370 77 5427 262 
Q 5485 448 5536 749 
Q 5747 442 6048 397 
Q 5907 -83 5782 -339 
Q 5658 -595 5466 -595 
Q 5274 -595 4906 -371 
Q 4538 -147 4077 358 
Q 3424 -141 2650 -525 
Q 2509 -288 2253 -70 
Q 2957 115 3808 730 
Q 3526 1184 3366 1773 
Q 2509 1581 2061 1446 
L 1952 1946 
Q 2547 2035 3270 2182 
Q 3200 2541 3174 2938 
z
M 5216 4333 
L 4666 3968 
Q 4538 4250 4275 4544 
L 4813 4858 
L 5216 4333 
z
M 2202 4058 
L 1792 3552 
Q 1318 4064 826 4371 
L 1222 4826 
Q 1722 4397 2202 4058 
z
M 1741 2694 
L 1395 2144 
Q 915 2547 442 2746 
L 755 3238 
Q 1261 2918 1741 2694 
z
M 1645 1363 
Q 1370 698 1018 -730 
Q 659 -422 410 -282 
Q 890 640 1158 1741 
Q 1357 1510 1645 1363 
z
" transform="scale(0.015625)"/>
       </defs>
       <use xlink:href="#STHeiti-42"/>
       <use xlink:href="#STHeiti-33" transform="translate(57.399994 0)"/>
       <use xlink:href="#STHeiti-2d" transform="translate(112.799988 0)"/>
       <use xlink:href="#STHeiti-31" transform="translate(145.999985 0)"/>
       <use xlink:href="#STHeiti-91d1" transform="translate(201.399979 0)"/>
       <use xlink:href="#STHeiti-7816" transform="translate(301.399963 0)"/>
       <use xlink:href="#STHeiti-37" transform="translate(401.399948 0)"/>
       <use xlink:href="#STHeiti-32" transform="translate(456.799942 0)"/>
       <use xlink:href="#STHeiti-ff08" transform="translate(512.199936 0)"/>
       <use xlink:href="#STHeiti-6401" transform="translate(612.199921 0)"/>
       <use xlink:href="#STHeiti-6d45" transform="translate(712.199905 0)"/>
       <use xlink:href="#STHeiti-ff09" transform="translate(812.19989 0)"/>
      </g>
     </g>
    </g>
    <g id="xtick_3">
     <g id="line2d_5">
      <path d="M 504.712337 274.925464 
L 504.712337 7.2 
" clip-path="url(#paa1f3541ef)" style="fill: none; stroke: #b0b0b0; stroke-opacity: 0.3; stroke-width: 0.8; stroke-linecap: square"/>
     </g>
     <g id="line2d_6">
      <g>
       <use xlink:href="#mfcfa07d512" x="504.712337" y="274.925464" style="stroke: #000000; stroke-width: 0.8"/>
      </g>
     </g>
     <g id="text_3">
      <!-- B1老型号1833（濒死） -->
      <g transform="translate(414.457109 340.626962) rotate(-30) scale(0.1 -0.1)">
       <defs>
        <path id="STHeiti-8001" d="M 2592 3904 
Q 1536 3891 1107 3846 
L 1107 4384 
Q 1645 4326 2592 4326 
Q 2592 5011 2541 5254 
Q 2829 5190 2934 5180 
Q 3040 5171 3181 5171 
Q 3322 5171 3322 5116 
Q 3322 5062 3226 5014 
Q 3130 4966 3130 4819 
L 3130 4326 
Q 3827 4346 4115 4384 
L 4115 3846 
Q 3693 3891 3130 3898 
L 3130 3027 
L 3590 3027 
Q 4326 3795 4922 4858 
Q 5274 4627 5472 4563 
Q 5581 4525 5581 4477 
Q 5581 4429 5491 4410 
Q 5370 4384 5050 3952 
Q 4730 3520 4256 3027 
Q 5280 3027 6048 3091 
L 6048 2547 
Q 5216 2611 3834 2611 
Q 3277 2074 2579 1587 
L 2579 1190 
Q 4115 1568 4838 2067 
Q 5030 1728 5229 1536 
Q 5280 1478 5280 1449 
Q 5280 1421 5257 1411 
Q 5235 1402 5200 1405 
Q 5165 1408 5158 1408 
Q 4973 1408 2579 755 
L 2579 320 
Q 2579 211 2633 150 
Q 2688 90 2864 61 
Q 3040 32 3565 32 
Q 4090 32 4410 86 
Q 4730 141 4877 301 
Q 5024 461 5107 813 
Q 5350 595 5728 506 
Q 5562 45 5370 -137 
Q 5178 -320 4781 -377 
Q 4384 -435 3593 -435 
Q 2803 -435 2505 -377 
Q 2208 -320 2115 -182 
Q 2022 -45 2022 237 
L 2022 1210 
Q 1274 730 659 461 
Q 474 678 243 890 
Q 1107 1197 2022 1766 
L 2022 2112 
L 2445 2054 
Q 2822 2323 3155 2611 
Q 1216 2611 416 2547 
L 416 3091 
Q 1210 3027 2592 3027 
L 2592 3904 
z
" transform="scale(0.015625)"/>
        <path id="STHeiti-578b" d="M 5114 5146 
Q 5267 5114 5414 5114 
L 5683 5114 
Q 5766 5114 5766 5069 
Q 5766 5024 5712 4969 
Q 5658 4915 5658 4787 
L 5658 2272 
Q 5658 2010 5584 1885 
Q 5510 1760 5318 1702 
Q 5126 1645 4710 1600 
Q 4698 1952 4474 2202 
Q 4659 2163 4794 2163 
Q 5165 2163 5165 2438 
L 5165 4102 
Q 5165 4742 5114 5146 
z
M 1421 4474 
Q 966 4480 723 4429 
L 723 4928 
Q 1062 4883 2240 4883 
Q 3418 4883 3622 4928 
L 3622 4429 
Q 3443 4454 3091 4467 
L 3091 3469 
Q 3590 3482 3744 3507 
L 3744 3014 
Q 3488 3040 3091 3040 
Q 3085 2586 3136 1965 
L 2573 1965 
Q 2630 2502 2618 3046 
L 1888 3046 
Q 1760 2086 723 1466 
Q 595 1734 371 1850 
Q 1306 2451 1402 3046 
Q 755 3046 493 3014 
L 493 3507 
Q 819 3469 1421 3469 
L 1421 4474 
z
M 2618 4474 
L 1907 4474 
L 1907 3469 
L 2618 3469 
L 2618 4474 
z
M 4013 4762 
Q 4250 4710 4557 4710 
Q 4627 4710 4627 4668 
Q 4627 4627 4579 4595 
Q 4531 4563 4531 4416 
L 4531 3290 
Q 4531 2842 4563 2483 
L 4032 2483 
Q 4064 2861 4064 3290 
L 4064 4058 
Q 4064 4506 4013 4762 
z
M 3021 832 
Q 1632 832 1133 787 
L 1133 1312 
Q 1645 1267 3021 1267 
Q 3008 1664 2982 1824 
Q 3258 1786 3571 1786 
Q 3667 1786 3667 1750 
Q 3667 1715 3619 1680 
Q 3571 1645 3542 1577 
Q 3514 1510 3514 1453 
L 3514 1267 
Q 4723 1267 5350 1312 
L 5350 787 
Q 4723 832 3514 832 
L 3514 122 
Q 5197 122 6048 166 
L 6048 -352 
Q 5139 -307 3388 -307 
Q 1638 -307 486 -352 
L 486 166 
Q 1299 122 3021 122 
L 3021 832 
z
" transform="scale(0.015625)"/>
        <path id="STHeiti-53f7" d="M 5139 3098 
Q 4448 3136 3190 3136 
Q 1933 3136 1235 3098 
Q 1267 3450 1267 4013 
Q 1267 4576 1235 4922 
Q 2010 4890 3187 4890 
Q 4365 4890 5139 4922 
Q 5107 4576 5107 4013 
Q 5107 3450 5139 3098 
z
M 4595 3603 
L 4595 4422 
L 1786 4422 
L 1786 3603 
L 4595 3603 
z
M 1773 2176 
Q 928 2170 294 2125 
L 294 2726 
Q 1248 2662 3193 2662 
Q 5139 2662 6086 2726 
L 6086 2125 
Q 5286 2189 2336 2182 
L 2221 1459 
L 3789 1459 
Q 4710 1459 5235 1504 
Q 5133 704 5046 310 
Q 4960 -83 4848 -240 
Q 4736 -397 4425 -499 
Q 4115 -602 3398 -704 
Q 3309 -320 3110 -19 
Q 3462 -38 3699 -38 
Q 3936 -38 4080 -16 
Q 4224 6 4301 57 
Q 4378 109 4413 182 
Q 4448 256 4502 518 
Q 4557 781 4570 1011 
L 2752 1011 
Q 2022 1011 1562 941 
L 1773 2176 
z
" transform="scale(0.015625)"/>
        <path id="STHeiti-38" d="M 2458 2906 
Q 3328 2477 3328 1702 
Q 3328 1088 2896 678 
Q 2464 269 1763 269 
Q 1062 269 640 678 
Q 218 1088 218 1664 
Q 218 2470 1107 2906 
Q 435 3264 435 3898 
Q 435 4371 828 4732 
Q 1222 5094 1779 5094 
Q 2336 5094 2726 4742 
Q 3117 4390 3117 3885 
Q 3117 3270 2458 2906 
z
M 2656 3904 
Q 2656 4211 2416 4432 
Q 2176 4653 1789 4653 
Q 1402 4653 1152 4432 
Q 902 4211 902 3897 
Q 902 3584 1174 3337 
Q 1446 3091 1792 3091 
Q 2138 3091 2397 3334 
Q 2656 3578 2656 3904 
z
M 2867 1696 
Q 2867 2086 2550 2380 
Q 2234 2675 1782 2675 
Q 1331 2675 1004 2371 
Q 678 2067 678 1654 
Q 678 1242 979 973 
Q 1280 704 1766 704 
Q 2253 704 2560 992 
Q 2867 1280 2867 1696 
z
" transform="scale(0.015625)"/>
        <path id="STHeiti-6fd2" d="M 2573 2957 
L 2573 4422 
Q 2573 4947 2528 5126 
Q 2701 5082 3046 5082 
Q 3130 5082 3130 5046 
Q 3130 5011 3050 4960 
Q 2970 4909 2970 4787 
L 2970 4096 
Q 3354 4109 3533 4141 
L 3533 3686 
Q 3354 3718 2970 3731 
L 2970 2957 
Q 3392 2963 3520 2995 
L 3520 2541 
Q 3373 2586 2835 2592 
L 2835 1043 
Q 3155 1542 3219 2106 
Q 3443 1971 3635 1958 
Q 3680 1952 3680 1926 
Q 3680 1901 3635 1888 
Q 3590 1875 3507 1594 
Q 3309 947 2822 352 
Q 2336 -243 1728 -589 
Q 1613 -403 1325 -224 
Q 1997 90 2451 557 
L 2451 2592 
Q 1645 2592 1434 2541 
L 1434 2995 
Q 1587 2970 1779 2963 
L 1779 3808 
Q 1779 4256 1728 4442 
Q 1894 4410 2227 4410 
Q 2304 4410 2304 4384 
Q 2304 4358 2253 4333 
Q 2163 4275 2163 4166 
L 2163 2957 
L 2573 2957 
z
M 1594 4390 
L 1306 3936 
Q 998 4224 525 4499 
L 851 4902 
Q 1210 4678 1594 4390 
z
M 4422 4365 
Q 3859 4358 3590 4314 
L 3590 4794 
Q 3936 4742 4749 4742 
Q 5562 4742 5914 4794 
L 5914 4314 
Q 5510 4365 4890 4365 
Q 4826 3974 4787 3571 
Q 5478 3571 5741 3629 
Q 5696 3392 5696 2867 
L 5696 1626 
Q 5696 1190 5741 864 
L 5248 864 
L 5248 3194 
L 4128 3194 
L 4128 819 
L 3680 819 
Q 3725 1158 3725 1581 
L 3725 2867 
Q 3725 3430 3686 3629 
Q 3962 3584 4339 3578 
Q 4403 4013 4422 4365 
z
M 1331 2854 
L 1088 2381 
Q 634 2739 320 2867 
L 614 3315 
L 1331 2854 
z
M 4435 2835 
Q 4576 2816 4697 2816 
Q 4819 2816 4877 2822 
L 4954 2835 
Q 4986 2835 4986 2816 
Q 4986 2797 4950 2768 
Q 4915 2739 4886 2624 
Q 4858 2509 4858 2374 
Q 4858 992 4557 390 
Q 4256 -211 3558 -563 
Q 3437 -333 3174 -179 
Q 3616 32 3891 237 
Q 4166 442 4307 794 
Q 4448 1146 4448 2086 
Q 4448 2368 4435 2835 
z
M 1722 2170 
Q 1978 2086 2176 2074 
Q 2246 2067 2246 2038 
Q 2246 2010 2208 1978 
Q 2170 1946 2141 1882 
Q 2112 1818 2048 1494 
Q 1984 1171 1907 890 
Q 1664 947 1466 960 
Q 1741 1683 1722 2170 
z
M 1338 1594 
Q 1184 1037 941 -486 
Q 691 -365 339 -237 
Q 794 909 870 1830 
Q 1088 1658 1338 1594 
z
M 6131 -115 
L 5773 -512 
Q 5312 6 4755 486 
L 5037 819 
Q 5606 390 6131 -115 
z
" transform="scale(0.015625)"/>
        <path id="STHeiti-6b7b" d="M 1632 4237 
Q 915 4224 602 4186 
L 602 4787 
Q 960 4730 3113 4730 
Q 5267 4730 5786 4787 
L 5786 4186 
Q 5338 4230 4122 4243 
L 4122 2342 
Q 4947 3104 5158 3526 
Q 5331 3366 5683 3168 
Q 5734 3136 5734 3107 
Q 5734 3078 5613 3034 
Q 5434 2976 4122 1760 
L 4122 909 
Q 4122 640 4157 531 
Q 4192 422 4310 387 
Q 4429 352 4739 352 
Q 5050 352 5197 425 
Q 5344 499 5405 691 
Q 5466 883 5498 1331 
Q 5651 1030 6093 922 
Q 5939 358 5801 131 
Q 5664 -96 5440 -153 
Q 5216 -211 4701 -211 
Q 4186 -211 3962 -160 
Q 3738 -109 3664 41 
Q 3590 192 3590 544 
L 3590 4243 
L 2131 4243 
Q 2003 3667 1875 3277 
Q 2854 3277 3219 3334 
Q 3098 2413 2867 1753 
Q 2637 1094 2109 483 
Q 1581 -128 1152 -442 
Q 928 -154 512 -32 
Q 1638 563 2144 1382 
Q 1869 1638 1382 1837 
L 1779 2234 
Q 1907 2080 2342 1747 
Q 2586 2285 2637 2874 
L 1734 2874 
Q 1421 2048 870 1478 
Q 698 1683 390 1818 
Q 1293 2502 1632 4237 
z
" transform="scale(0.015625)"/>
       </defs>
       <use xlink:href="#STHeiti-42"/>
       <use xlink:href="#STHeiti-31" transform="translate(57.399994 0)"/>
       <use xlink:href="#STHeiti-8001" transform="translate(112.799988 0)"/>
       <use xlink:href="#STHeiti-578b" transform="translate(212.799973 0)"/>
       <use xlink:href="#STHeiti-53f7" transform="translate(312.799957 0)"/>
       <use xlink:href="#STHeiti-31" transform="translate(412.799942 0)"/>
       <use xlink:href="#STHeiti-38" transform="translate(468.199936 0)"/>
       <use xlink:href="#STHeiti-33" transform="translate(523.59993 0)"/>
       <use xlink:href="#STHeiti-33" transform="translate(578.999924 0)"/>
       <use xlink:href="#STHeiti-ff08" transform="translate(634.399918 0)"/>
       <use xlink:href="#STHeiti-6fd2" transform="translate(734.399902 0)"/>
       <use xlink:href="#STHeiti-6b7b" transform="translate(834.399887 0)"/>
       <use xlink:href="#STHeiti-ff09" transform="translate(934.399872 0)"/>
      </g>
     </g>
    </g>
    <g id="xtick_4">
     <g id="line2d_7">
      <path d="M 703.484101 274.925464 
L 703.484101 7.2 
" clip-path="url(#paa1f3541ef)" style="fill: none; stroke: #b0b0b0; stroke-opacity: 0.3; stroke-width: 0.8; stroke-linecap: square"/>
     </g>
     <g id="line2d_8">
      <g>
       <use xlink:href="#mfcfa07d512" x="703.484101" y="274.925464" style="stroke: #000000; stroke-width: 0.8"/>
      </g>
     </g>
     <g id="text_4">
      <!-- 2027年后新扩产 -->
      <g transform="translate(640.31923 324.960627) rotate(-30) scale(0.1 -0.1)">
       <defs>
        <path id="STHeiti-30" d="M 1747 269 
Q 1005 269 605 880 
Q 205 1491 205 2681 
Q 205 3872 605 4483 
Q 1005 5094 1741 5094 
Q 2477 5094 2909 4470 
Q 3341 3846 3341 2681 
Q 3341 1517 2905 893 
Q 2470 269 1747 269 
z
M 1760 4659 
Q 1229 4659 934 4147 
Q 640 3635 640 2669 
Q 640 685 1760 685 
Q 2304 685 2608 1206 
Q 2912 1728 2912 2681 
Q 2912 3635 2598 4147 
Q 2285 4659 1760 4659 
z
" transform="scale(0.015625)"/>
        <path id="STHeiti-5e74" d="M 2125 4346 
L 3738 4346 
Q 5107 4346 5696 4397 
L 5696 3827 
Q 5088 3878 3770 3878 
L 3770 2886 
Q 4819 2893 5395 2938 
L 5395 2406 
Q 4602 2451 3770 2458 
L 3770 1338 
Q 5658 1338 6080 1395 
L 6080 819 
Q 5709 870 3770 877 
Q 3770 -26 3821 -704 
L 3174 -704 
Q 3226 -19 3226 877 
Q 973 877 371 819 
L 371 1395 
Q 730 1357 1466 1344 
L 1466 2349 
Q 1466 2682 1421 2938 
Q 2093 2886 3226 2886 
L 3226 3878 
L 1862 3878 
Q 1510 3277 1120 2803 
Q 922 2938 563 3040 
Q 973 3430 1341 4028 
Q 1709 4627 1907 5216 
Q 2234 5088 2426 5043 
Q 2618 4998 2618 4966 
Q 2618 4934 2522 4886 
Q 2426 4838 2125 4346 
z
M 3226 2458 
L 1984 2458 
L 1984 1338 
L 3226 1338 
L 3226 2458 
z
" transform="scale(0.015625)"/>
        <path id="STHeiti-540e" d="M 1651 2906 
Q 1626 896 851 -371 
Q 640 -128 262 -51 
Q 1107 787 1107 3046 
Q 1107 3866 1024 4698 
Q 2054 4672 3225 4800 
Q 4397 4928 5094 5152 
Q 5242 4768 5414 4544 
Q 5453 4493 5453 4457 
Q 5453 4422 5373 4435 
Q 5293 4448 5107 4448 
Q 4922 4448 4118 4384 
Q 3315 4320 1651 4250 
L 1651 3386 
L 4800 3386 
Q 5453 3386 5939 3430 
L 5939 2861 
Q 5453 2906 4800 2906 
L 1651 2906 
z
M 4755 58 
L 2573 58 
L 2573 -621 
L 1990 -621 
Q 2022 -269 2022 198 
L 2022 1510 
Q 2022 1914 1997 2112 
Q 2470 2086 3779 2086 
Q 5088 2086 5318 2112 
Q 5286 1971 5286 1510 
L 5286 237 
Q 5286 -70 5325 -582 
L 4755 -582 
L 4755 58 
z
M 2573 518 
L 4755 518 
L 4755 1619 
L 2573 1619 
L 2573 518 
z
" transform="scale(0.015625)"/>
        <path id="STHeiti-65b0" d="M 1888 4506 
Q 1792 4832 1696 5062 
L 2272 5178 
Q 2368 4762 2432 4506 
Q 3027 4525 3373 4570 
L 3373 4026 
Q 2880 4096 2025 4096 
Q 1171 4096 666 4026 
L 666 4570 
Q 1082 4512 1888 4506 
z
M 4269 3072 
L 5101 3072 
Q 5760 3072 6048 3149 
L 6048 2547 
Q 5760 2618 5370 2630 
L 5370 371 
Q 5370 -205 5421 -646 
L 4800 -646 
Q 4851 -186 4851 371 
L 4851 2630 
L 4269 2630 
Q 4256 1491 4080 755 
Q 3904 19 3501 -582 
Q 3322 -422 2918 -320 
Q 3462 218 3622 1123 
Q 3782 2029 3782 3379 
Q 3782 4128 3731 4678 
Q 4115 4659 4652 4761 
Q 5190 4864 5638 5043 
Q 5702 4902 5801 4748 
Q 5901 4595 5971 4531 
Q 6042 4467 6042 4435 
Q 6042 4403 5997 4403 
Q 5952 4403 5891 4416 
Q 5830 4429 5760 4429 
Q 5645 4429 5072 4358 
Q 4499 4288 4269 4282 
L 4269 3072 
z
M 1779 3309 
L 1267 3123 
Q 1171 3539 998 3763 
L 1478 3949 
Q 1587 3661 1779 3309 
z
M 2522 3053 
Q 3021 3059 3424 3104 
L 3424 2592 
Q 3008 2650 2266 2656 
L 2266 2016 
Q 2874 2022 3341 2074 
L 3341 1542 
Q 2982 1600 2266 1600 
L 2266 154 
Q 2266 -96 2211 -211 
Q 2157 -326 1974 -393 
Q 1792 -461 1363 -531 
Q 1350 -198 1139 77 
Q 1402 32 1539 32 
Q 1677 32 1734 128 
Q 1792 224 1792 570 
L 1792 1606 
Q 1024 1600 563 1542 
L 563 2074 
Q 1030 2016 1792 2016 
L 1792 2656 
Q 896 2650 448 2592 
L 448 3104 
Q 1018 3040 2138 3046 
Q 2406 3565 2534 3942 
Q 2784 3776 3034 3712 
Q 3091 3699 3091 3667 
Q 3091 3635 3017 3603 
Q 2944 3571 2522 3053 
z
M 1062 1408 
Q 1408 1248 1507 1225 
Q 1606 1203 1606 1180 
Q 1606 1158 1520 1107 
Q 1434 1056 1206 707 
Q 979 358 774 -19 
Q 563 154 256 186 
Q 845 749 1062 1408 
z
M 3354 582 
L 2912 262 
Q 2701 762 2381 1088 
L 2758 1344 
Q 2970 1088 3354 582 
z
" transform="scale(0.015625)"/>
        <path id="STHeiti-6269" d="M 4858 4627 
L 4237 4435 
Q 4122 4781 3949 5120 
L 4531 5293 
Q 4704 5011 4858 4627 
z
M 1293 2202 
L 1293 3539 
Q 755 3526 448 3482 
L 448 4051 
Q 704 4013 1293 4000 
Q 1293 4902 1222 5274 
Q 1446 5229 1850 5229 
Q 2010 5229 2010 5181 
Q 2010 5133 1923 5065 
Q 1837 4998 1817 4953 
Q 1798 4909 1798 4838 
L 1798 4000 
Q 2272 4000 2573 4051 
L 2573 3482 
Q 2342 3520 1798 3533 
L 1798 2406 
Q 2170 2566 2496 2726 
Q 2477 2630 2477 2492 
Q 2477 2355 2554 2195 
Q 2272 2112 1798 1914 
L 1798 154 
Q 1798 -205 1574 -352 
Q 1350 -499 685 -576 
Q 666 -301 474 58 
Q 621 45 822 45 
Q 1024 45 1158 115 
Q 1293 186 1293 352 
L 1293 1677 
Q 730 1389 454 1203 
Q 429 1542 326 1882 
Q 813 2016 1293 2202 
z
M 6067 3757 
Q 5722 3808 4506 3808 
L 3494 3808 
Q 3514 3264 3514 2829 
Q 3514 1530 3309 765 
Q 3104 0 2650 -608 
Q 2374 -384 2029 -307 
Q 2541 115 2761 812 
Q 2982 1510 2982 2829 
Q 2982 3469 2931 4346 
Q 3130 4288 4470 4288 
Q 5811 4288 6067 4346 
L 6067 3757 
z
" transform="scale(0.015625)"/>
        <path id="STHeiti-4ea7" d="M 3200 4416 
Q 3078 4813 2931 5094 
L 3622 5210 
Q 3718 4864 3814 4416 
Q 5120 4422 5869 4480 
L 5869 3930 
Q 4998 3994 3302 3994 
Q 1606 3994 730 3930 
L 730 4480 
Q 1587 4416 3200 4416 
z
M 3923 2714 
Q 4397 3629 4416 3904 
Q 4525 3834 4736 3731 
Q 4947 3629 5027 3603 
Q 5107 3578 5107 3539 
Q 5107 3501 5020 3475 
Q 4934 3450 4828 3312 
Q 4723 3174 4435 2714 
Q 5875 2714 6029 2752 
L 6029 2253 
Q 5562 2298 4429 2298 
L 1702 2298 
Q 1722 1229 1523 630 
Q 1325 32 749 -672 
Q 576 -397 288 -218 
Q 768 147 969 656 
Q 1171 1165 1171 1971 
Q 1171 2323 1133 2752 
Q 1331 2714 3923 2714 
z
M 2925 3014 
L 2330 2842 
Q 2208 3283 2016 3597 
L 2579 3789 
Q 2803 3373 2925 3014 
z
" transform="scale(0.015625)"/>
       </defs>
       <use xlink:href="#STHeiti-32"/>
       <use xlink:href="#STHeiti-30" transform="translate(55.399994 0)"/>
       <use xlink:href="#STHeiti-32" transform="translate(110.799988 0)"/>
       <use xlink:href="#STHeiti-37" transform="translate(166.199982 0)"/>
       <use xlink:href="#STHeiti-5e74" transform="translate(221.599976 0)"/>
       <use xlink:href="#STHeiti-540e" transform="translate(321.59996 0)"/>
       <use xlink:href="#STHeiti-65b0" transform="translate(421.599945 0)"/>
       <use xlink:href="#STHeiti-6269" transform="translate(521.59993 0)"/>
       <use xlink:href="#STHeiti-4ea7" transform="translate(621.599915 0)"/>
      </g>
     </g>
    </g>
   </g>
   <g id="matplotlib.axis_2">
    <g id="ytick_1">
     <g id="line2d_9">
      <path d="M 87.291633 262.852411 
L 703.484101 262.852411 
" clip-path="url(#paa1f3541ef)" style="fill: none; stroke: #b0b0b0; stroke-opacity: 0.3; stroke-width: 0.8; stroke-linecap: square"/>
     </g>
     <g id="line2d_10">
      <defs>
       <path id="m085b578e24" d="M 0 0 
L -3.5 0 
" style="stroke: #000000; stroke-width: 0.8"/>
      </defs>
      <g>
       <use xlink:href="#m085b578e24" x="87.291633" y="262.852411" style="stroke: #000000; stroke-width: 0.8"/>
      </g>
     </g>
     <g id="text_5">
      <!-- 0 -->
      <g transform="translate(74.751008 266.832098) scale(0.1 -0.1)">
       <use xlink:href="#STHeiti-30"/>
      </g>
     </g>
    </g>
    <g id="ytick_2">
     <g id="line2d_11">
      <path d="M 87.291633 232.763054 
L 703.484101 232.763054 
" clip-path="url(#paa1f3541ef)" style="fill: none; stroke: #b0b0b0; stroke-opacity: 0.3; stroke-width: 0.8; stroke-linecap: square"/>
     </g>
     <g id="line2d_12">
      <g>
       <use xlink:href="#m085b578e24" x="87.291633" y="232.763054" style="stroke: #000000; stroke-width: 0.8"/>
      </g>
     </g>
     <g id="text_6">
      <!-- 250 -->
      <g transform="translate(63.669758 236.742742) scale(0.1 -0.1)">
       <defs>
        <path id="STHeiti-35" d="M 3149 4979 
L 3149 4544 
L 1510 4544 
L 1280 3290 
Q 1587 3379 1856 3379 
Q 2458 3379 2861 2953 
Q 3264 2528 3264 1862 
Q 3264 1197 2825 733 
Q 2387 269 1664 269 
Q 1114 269 726 598 
Q 339 928 262 1498 
L 730 1498 
Q 813 1114 1075 909 
Q 1338 704 1683 704 
Q 2138 704 2467 1043 
Q 2797 1382 2797 1888 
Q 2797 2349 2509 2646 
Q 2221 2944 1757 2944 
Q 1293 2944 730 2701 
L 1158 4979 
L 3149 4979 
z
" transform="scale(0.015625)"/>
       </defs>
       <use xlink:href="#STHeiti-32"/>
       <use xlink:href="#STHeiti-35" transform="translate(55.399994 0)"/>
       <use xlink:href="#STHeiti-30" transform="translate(110.799988 0)"/>
      </g>
     </g>
    </g>
    <g id="ytick_3">
     <g id="line2d_13">
      <path d="M 87.291633 202.673698 
L 703.484101 202.673698 
" clip-path="url(#paa1f3541ef)" style="fill: none; stroke: #b0b0b0; stroke-opacity: 0.3; stroke-width: 0.8; stroke-linecap: square"/>
     </g>
     <g id="line2d_14">
      <g>
       <use xlink:href="#m085b578e24" x="87.291633" y="202.673698" style="stroke: #000000; stroke-width: 0.8"/>
      </g>
     </g>
     <g id="text_7">
      <!-- 500 -->
      <g transform="translate(63.669758 206.653385) scale(0.1 -0.1)">
       <use xlink:href="#STHeiti-35"/>
       <use xlink:href="#STHeiti-30" transform="translate(55.399994 0)"/>
       <use xlink:href="#STHeiti-30" transform="translate(110.799988 0)"/>
      </g>
     </g>
    </g>
    <g id="ytick_4">
     <g id="line2d_15">
      <path d="M 87.291633 172.584342 
L 703.484101 172.584342 
" clip-path="url(#paa1f3541ef)" style="fill: none; stroke: #b0b0b0; stroke-opacity: 0.3; stroke-width: 0.8; stroke-linecap: square"/>
     </g>
     <g id="line2d_16">
      <g>
       <use xlink:href="#m085b578e24" x="87.291633" y="172.584342" style="stroke: #000000; stroke-width: 0.8"/>
      </g>
     </g>
     <g id="text_8">
      <!-- 750 -->
      <g transform="translate(63.669758 176.564029) scale(0.1 -0.1)">
       <use xlink:href="#STHeiti-37"/>
       <use xlink:href="#STHeiti-35" transform="translate(55.399994 0)"/>
       <use xlink:href="#STHeiti-30" transform="translate(110.799988 0)"/>
      </g>
     </g>
    </g>
    <g id="ytick_5">
     <g id="line2d_17">
      <path d="M 87.291633 142.494985 
L 703.484101 142.494985 
" clip-path="url(#paa1f3541ef)" style="fill: none; stroke: #b0b0b0; stroke-opacity: 0.3; stroke-width: 0.8; stroke-linecap: square"/>
     </g>
     <g id="line2d_18">
      <g>
       <use xlink:href="#m085b578e24" x="87.291633" y="142.494985" style="stroke: #000000; stroke-width: 0.8"/>
      </g>
     </g>
     <g id="text_9">
      <!-- 1000 -->
      <g transform="translate(58.129133 146.474673) scale(0.1 -0.1)">
       <use xlink:href="#STHeiti-31"/>
       <use xlink:href="#STHeiti-30" transform="translate(55.399994 0)"/>
       <use xlink:href="#STHeiti-30" transform="translate(110.799988 0)"/>
       <use xlink:href="#STHeiti-30" transform="translate(166.199982 0)"/>
      </g>
     </g>
    </g>
    <g id="ytick_6">
     <g id="line2d_19">
      <path d="M 87.291633 112.405629 
L 703.484101 112.405629 
" clip-path="url(#paa1f3541ef)" style="fill: none; stroke: #b0b0b0; stroke-opacity: 0.3; stroke-width: 0.8; stroke-linecap: square"/>
     </g>
     <g id="line2d_20">
      <g>
       <use xlink:href="#m085b578e24" x="87.291633" y="112.405629" style="stroke: #000000; stroke-width: 0.8"/>
      </g>
     </g>
     <g id="text_10">
      <!-- 1250 -->
      <g transform="translate(58.129133 116.385317) scale(0.1 -0.1)">
       <use xlink:href="#STHeiti-31"/>
       <use xlink:href="#STHeiti-32" transform="translate(55.399994 0)"/>
       <use xlink:href="#STHeiti-35" transform="translate(110.799988 0)"/>
       <use xlink:href="#STHeiti-30" transform="translate(166.199982 0)"/>
      </g>
     </g>
    </g>
    <g id="ytick_7">
     <g id="line2d_21">
      <path d="M 87.291633 82.316273 
L 703.484101 82.316273 
" clip-path="url(#paa1f3541ef)" style="fill: none; stroke: #b0b0b0; stroke-opacity: 0.3; stroke-width: 0.8; stroke-linecap: square"/>
     </g>
     <g id="line2d_22">
      <g>
       <use xlink:href="#m085b578e24" x="87.291633" y="82.316273" style="stroke: #000000; stroke-width: 0.8"/>
      </g>
     </g>
     <g id="text_11">
      <!-- 1500 -->
      <g transform="translate(58.129133 86.29596) scale(0.1 -0.1)">
       <use xlink:href="#STHeiti-31"/>
       <use xlink:href="#STHeiti-35" transform="translate(55.399994 0)"/>
       <use xlink:href="#STHeiti-30" transform="translate(110.799988 0)"/>
       <use xlink:href="#STHeiti-30" transform="translate(166.199982 0)"/>
      </g>
     </g>
    </g>
    <g id="ytick_8">
     <g id="line2d_23">
      <path d="M 87.291633 52.226916 
L 703.484101 52.226916 
" clip-path="url(#paa1f3541ef)" style="fill: none; stroke: #b0b0b0; stroke-opacity: 0.3; stroke-width: 0.8; stroke-linecap: square"/>
     </g>
     <g id="line2d_24">
      <g>
       <use xlink:href="#m085b578e24" x="87.291633" y="52.226916" style="stroke: #000000; stroke-width: 0.8"/>
      </g>
     </g>
     <g id="text_12">
      <!-- 1750 -->
      <g transform="translate(58.129133 56.206604) scale(0.1 -0.1)">
       <use xlink:href="#STHeiti-31"/>
       <use xlink:href="#STHeiti-37" transform="translate(55.399994 0)"/>
       <use xlink:href="#STHeiti-35" transform="translate(110.799988 0)"/>
       <use xlink:href="#STHeiti-30" transform="translate(166.199982 0)"/>
      </g>
     </g>
    </g>
    <g id="ytick_9">
     <g id="line2d_25">
      <path d="M 87.291633 22.13756 
L 703.484101 22.13756 
" clip-path="url(#paa1f3541ef)" style="fill: none; stroke: #b0b0b0; stroke-opacity: 0.3; stroke-width: 0.8; stroke-linecap: square"/>
     </g>
     <g id="line2d_26">
      <g>
       <use xlink:href="#m085b578e24" x="87.291633" y="22.13756" style="stroke: #000000; stroke-width: 0.8"/>
      </g>
     </g>
     <g id="text_13">
      <!-- 2000 -->
      <g transform="translate(58.129133 26.117248) scale(0.1 -0.1)">
       <use xlink:href="#STHeiti-32"/>
       <use xlink:href="#STHeiti-30" transform="translate(55.399994 0)"/>
       <use xlink:href="#STHeiti-30" transform="translate(110.799988 0)"/>
       <use xlink:href="#STHeiti-30" transform="translate(166.199982 0)"/>
      </g>
     </g>
    </g>
   </g>
   <g id="line2d_27">
    <path d="M 107.168809 19.369339 
L 305.940573 262.756125 
L 504.712337 261.961766 
" clip-path="url(#paa1f3541ef)" style="fill: none; stroke: #1a365d; stroke-width: 2; stroke-linecap: square"/>
    <defs>
     <path id="m394c34c812" d="M 0 3 
C 0.795609 3 1.55874 2.683901 2.12132 2.12132 
C 2.683901 1.55874 3 0.795609 3 0 
C 3 -0.795609 2.683901 -1.55874 2.12132 -2.12132 
C 1.55874 -2.683901 0.795609 -3 0 -3 
C -0.795609 -3 -1.55874 -2.683901 -2.12132 -2.12132 
C -2.683901 -1.55874 -3 -0.795609 -3 0 
C -3 0.795609 -2.683901 1.55874 -2.12132 2.12132 
C -1.55874 2.683901 -0.795609 3 0 3 
z
" style="stroke: #1a365d"/>
    </defs>
    <g clip-path="url(#paa1f3541ef)">
     <use xlink:href="#m394c34c812" x="107.168809" y="19.369339" style="fill: #1a365d; stroke: #1a365d"/>
     <use xlink:href="#m394c34c812" x="305.940573" y="262.756125" style="fill: #1a365d; stroke: #1a365d"/>
     <use xlink:href="#m394c34c812" x="504.712337" y="261.961766" style="fill: #1a365d; stroke: #1a365d"/>
    </g>
   </g>
   <g id="patch_3">
    <path d="M 87.291633 274.925464 
L 87.291633 7.2 
" style="fill: none; stroke: #000000; stroke-width: 0.8; stroke-linejoin: miter; stroke-linecap: square"/>
   </g>
   <g id="patch_4">
    <path d="M 703.484101 274.925464 
L 703.484101 7.2 
" style="fill: none; stroke: #000000; stroke-width: 0.8; stroke-linejoin: miter; stroke-linecap: square"/>
   </g>
   <g id="patch_5">
    <path d="M 87.291633 274.925464 
L 703.484101 274.925464 
" style="fill: none; stroke: #000000; stroke-width: 0.8; stroke-linejoin: miter; stroke-linecap: square"/>
   </g>
   <g id="patch_6">
    <path d="M 87.291633 7.2 
L 703.484101 7.2 
" style="fill: none; stroke: #000000; stroke-width: 0.8; stroke-linejoin: miter; stroke-linecap: square"/>
   </g>
   <g id="legend_1">
    <g id="patch_7">
     <path d="M 632.384101 27.341719 
L 697.184101 27.341719 
Q 698.984101 27.341719 698.984101 25.541719 
L 698.984101 13.5 
Q 698.984101 11.7 697.184101 11.7 
L 632.384101 11.7 
Q 630.584101 11.7 630.584101 13.5 
L 630.584101 25.541719 
Q 630.584101 27.341719 632.384101 27.341719 
z
" style="fill: #ffffff; opacity: 0.8; stroke: #cccccc; stroke-linejoin: miter"/>
    </g>
    <g id="line2d_28">
     <path d="M 634.184101 19.385156 
L 643.184101 19.385156 
L 652.184101 19.385156 
" style="fill: none; stroke: #1a365d; stroke-width: 2; stroke-linecap: square"/>
     <g>
      <use xlink:href="#m394c34c812" x="643.184101" y="19.385156" style="fill: #1a365d; stroke: #1a365d"/>
     </g>
    </g>
    <g id="text_14">
     <!-- 当前状态 -->
     <g transform="translate(659.384101 22.535156) scale(0.09 -0.09)">
      <defs>
       <path id="STHeiti-5f53" d="M 4890 1568 
L 4890 2438 
L 1939 2438 
Q 1389 2438 813 2368 
L 813 2918 
Q 1408 2854 2893 2848 
L 2893 4102 
Q 2893 4710 2854 5152 
Q 3066 5114 3558 5114 
Q 3629 5114 3629 5088 
Q 3629 5062 3581 5017 
Q 3533 4973 3494 4848 
Q 3456 4723 3456 4576 
L 3456 2848 
Q 4838 2854 5459 2918 
Q 5434 2611 5434 1920 
L 5434 474 
Q 5434 -282 5472 -672 
L 4890 -672 
L 4890 -224 
L 1690 -224 
Q 1088 -224 742 -269 
L 742 282 
Q 1088 237 1690 237 
L 4890 237 
L 4890 1133 
L 1926 1133 
Q 1402 1133 979 1101 
L 979 1600 
Q 1402 1568 1926 1568 
L 4890 1568 
z
M 4960 4794 
Q 5069 4691 5264 4572 
Q 5459 4454 5562 4410 
Q 5600 4390 5600 4364 
Q 5600 4339 5510 4307 
Q 5344 4250 4429 3200 
Q 4262 3379 4032 3501 
Q 4781 4314 4960 4794 
z
M 2317 3533 
L 1830 3206 
Q 1331 4006 934 4403 
L 1370 4678 
Q 1875 4102 2317 3533 
z
" transform="scale(0.015625)"/>
       <path id="STHeiti-524d" d="M 2746 4576 
L 2125 4333 
Q 2003 4685 1741 4992 
L 2310 5254 
Q 2496 4941 2746 4576 
z
M 4128 4218 
Q 5344 4237 6035 4282 
L 6035 3718 
Q 5094 3782 3238 3782 
Q 1382 3782 442 3718 
L 442 4282 
Q 1382 4218 2458 4218 
L 3565 4218 
Q 3834 4691 4058 5254 
Q 4442 5075 4710 5011 
Q 4762 4998 4762 4969 
Q 4762 4941 4672 4902 
Q 4486 4813 4128 4218 
z
M 4832 3405 
Q 5037 3379 5216 3379 
L 5440 3386 
Q 5536 3386 5536 3350 
Q 5536 3315 5472 3273 
Q 5408 3232 5408 3130 
L 5408 -6 
Q 5408 -243 5344 -361 
Q 5280 -480 5069 -550 
Q 4858 -621 4403 -666 
Q 4371 -314 4173 6 
Q 4474 -45 4634 -45 
Q 4896 -45 4896 115 
L 4896 2611 
Q 4896 3162 4832 3405 
z
M 1408 762 
L 1408 -563 
L 870 -563 
Q 928 122 928 550 
L 928 2592 
Q 928 3034 883 3283 
Q 1434 3238 2080 3238 
Q 2726 3238 3258 3283 
Q 3213 2957 3213 2592 
L 3213 58 
Q 3213 -218 3171 -330 
Q 3130 -442 2966 -499 
Q 2803 -557 2394 -602 
Q 2323 -307 2118 26 
Q 2394 -19 2506 -19 
Q 2618 -19 2666 25 
Q 2714 70 2714 205 
L 2714 762 
L 1408 762 
z
M 2714 2202 
L 2714 2803 
L 1408 2803 
L 1408 2202 
L 2714 2202 
z
M 1408 1786 
L 1408 1184 
L 2714 1184 
L 2714 1786 
L 1408 1786 
z
M 3750 3085 
Q 3987 3034 4314 3034 
Q 4397 3034 4397 2995 
Q 4397 2957 4339 2915 
Q 4282 2874 4282 2739 
L 4282 1338 
Q 4282 979 4320 531 
L 3750 531 
Q 3789 1005 3789 1338 
L 3789 2381 
Q 3789 2848 3750 3085 
z
" transform="scale(0.015625)"/>
       <path id="STHeiti-72b6" d="M 4173 2163 
Q 3936 365 2925 -493 
Q 2694 -250 2438 -128 
Q 3098 416 3434 1168 
Q 3770 1920 3821 3021 
Q 3040 3002 2605 2957 
L 2605 3526 
Q 3149 3469 3840 3462 
Q 3859 4621 3795 5274 
Q 4160 5216 4480 5216 
Q 4557 5216 4557 5184 
Q 4557 5152 4518 5120 
Q 4480 5088 4432 4912 
Q 4384 4736 4384 4614 
Q 4371 3981 4333 3462 
Q 5440 3462 6003 3526 
L 6003 2957 
Q 5440 3021 4352 3021 
Q 4634 672 6125 198 
Q 5856 -77 5696 -429 
Q 5235 -115 4918 253 
Q 4602 621 4451 1011 
Q 4301 1402 4173 2163 
z
M 1715 5190 
Q 1907 5152 2067 5152 
Q 2458 5152 2458 5110 
Q 2458 5069 2394 5018 
Q 2298 4934 2298 4774 
L 2298 499 
Q 2298 -19 2355 -563 
L 1728 -563 
Q 1779 -83 1779 499 
L 1779 4179 
Q 1779 4883 1715 5190 
z
M 5747 4045 
L 5197 3770 
Q 5011 4275 4781 4678 
L 5274 4909 
Q 5530 4493 5747 4045 
z
M 1542 3226 
L 1011 2925 
Q 774 3507 390 4006 
L 851 4301 
Q 1216 3840 1542 3226 
z
M 1690 2125 
Q 1139 1274 755 435 
Q 550 710 282 928 
Q 941 1766 1318 2573 
Q 1453 2330 1690 2125 
z
" transform="scale(0.015625)"/>
       <path id="STHeiti-6001" d="M 3021 3910 
Q 2547 2528 806 1613 
Q 608 1914 352 2112 
Q 1939 2701 2445 3910 
Q 1229 3898 506 3846 
L 506 4442 
Q 1254 4384 2579 4378 
Q 2682 4966 2682 5331 
Q 3078 5203 3418 5184 
Q 3501 5178 3501 5142 
Q 3501 5107 3443 5081 
Q 3386 5056 3338 4937 
Q 3290 4819 3162 4378 
Q 4877 4378 5741 4442 
L 5741 3859 
Q 5146 3904 3904 3910 
Q 4141 3366 4624 3049 
Q 5107 2733 6003 2528 
Q 5773 2221 5645 1894 
Q 4730 2234 4230 2688 
Q 3731 3142 3462 3910 
L 3021 3910 
z
M 3603 2221 
L 3008 2003 
Q 2886 2470 2656 2848 
L 3104 3072 
Q 3437 2586 3603 2221 
z
M 3891 960 
L 3341 691 
Q 3162 1152 2867 1517 
L 3373 1728 
Q 3725 1248 3891 960 
z
M 6048 403 
L 5453 51 
Q 5197 749 4634 1325 
L 5101 1568 
Q 5651 947 6048 403 
z
M 4845 339 
Q 4710 -83 4582 -243 
Q 4454 -403 4224 -444 
Q 3994 -486 3267 -486 
Q 2541 -486 2371 -454 
Q 2202 -422 2106 -294 
Q 2010 -166 2010 45 
L 2010 614 
Q 2010 1050 1952 1293 
Q 2234 1235 2470 1235 
L 2618 1242 
Q 2688 1242 2688 1213 
Q 2688 1184 2637 1139 
Q 2586 1094 2566 1059 
Q 2547 1024 2547 934 
L 2547 403 
Q 2547 262 2595 156 
Q 2643 51 2720 9 
Q 2797 -32 3021 -32 
Q 3245 -32 3414 -19 
Q 3584 -6 3773 22 
Q 3962 51 4000 70 
Q 4038 90 4080 157 
Q 4122 224 4166 355 
Q 4211 486 4256 704 
Q 4435 403 4845 339 
z
M 1478 1190 
Q 1293 352 1082 -237 
L 422 -96 
Q 826 525 883 1280 
L 1478 1190 
z
" transform="scale(0.015625)"/>
      </defs>
      <use xlink:href="#STHeiti-5f53"/>
      <use xlink:href="#STHeiti-524d" transform="translate(99.999985 0)"/>
      <use xlink:href="#STHeiti-72b6" transform="translate(199.999969 0)"/>
      <use xlink:href="#STHeiti-6001" transform="translate(299.999954 0)"/>
     </g>
    </g>
   </g>
  </g>
 </g>
 <defs>
  <clipPath id="paa1f3541ef">
   <rect x="87.291633" y="7.2" width="616.192468" height="267.725464"/>
  </clipPath>
 </defs>
</svg>
