<?xml version="1.0" encoding="utf-8" standalone="no"?>
<!DOCTYPE svg PUBLIC "-//W3C//DTD SVG 1.1//EN"
  "http://www.w3.org/Graphics/SVG/1.1/DTD/svg11.dtd">
<svg xmlns:xlink="http://www.w3.org/1999/xlink" width="712.81125pt" height="352.156074pt" viewBox="0 0 712.81125 352.156074" xmlns="http://www.w3.org/2000/svg" version="1.1">
 <metadata>
  <rdf:RDF xmlns:dc="http://purl.org/dc/elements/1.1/" xmlns:cc="http://creativecommons.org/ns#" xmlns:rdf="http://www.w3.org/1999/02/22-rdf-syntax-ns#">
   <cc:Work>
    <dc:type rdf:resource="http://purl.org/dc/dcmitype/StillImage"/>
    <dc:date>2026-06-05T10:58:59.141951</dc:date>
    <dc:format>image/svg+xml</dc:format>
    <dc:creator>
     <cc:Agent>
      <dc:title>Matplotlib v3.10.9, https://matplotlib.org/</dc:title>
     </cc:Agent>
    </dc:creator>
   </cc:Work>
  </rdf:RDF>
 </metadata>
 <defs>
  <style type="text/css">*{stroke-linejoin: round; stroke-linecap: butt}</style>
 </defs>
 <g id="figure_1">
  <g id="patch_1">
   <path d="M 0 352.156074 
L 712.81125 352.156074 
L 712.81125 0 
L 0 0 
z
" style="fill: #ffffff"/>
  </g>
  <g id="axes_1">
   <g id="patch_2">
    <path d="M 25.28125 225.292779 
L 705.61125 225.292779 
L 705.61125 7.2 
L 25.28125 7.2 
z
" style="fill: #fafafa"/>
   </g>
   <g id="matplotlib.axis_1">
    <g id="xtick_1">
     <g id="line2d_1">
      <path d="M 56.205341 225.292779 
L 56.205341 7.2 
" clip-path="url(#p3579464a3f)" style="fill: none; stroke: #b0b0b0; stroke-opacity: 0.3; stroke-width: 0.8; stroke-linecap: square"/>
     </g>
     <g id="line2d_2">
      <defs>
       <path id="m4a19aac596" d="M 0 0 
L 0 3.5 
" style="stroke: #000000; stroke-width: 0.8"/>
      </defs>
      <g>
       <use xlink:href="#m4a19aac596" x="56.205341" y="225.292779" style="stroke: #000000; stroke-width: 0.8"/>
      </g>
     </g>
     <g id="text_1">
      <!-- 成功概率 -->
      <g transform="translate(20.894012 259.246692) rotate(-30) scale(0.1 -0.1)">
       <defs>
        <path id="STHeiti-6210" d="M 3392 3610 
L 1491 3610 
L 1491 2720 
Q 2778 2720 3066 2778 
L 2976 1056 
Q 2957 813 2877 688 
Q 2797 563 2585 480 
Q 2374 397 1907 294 
Q 1907 550 1670 947 
Q 1984 890 2163 890 
Q 2342 890 2412 957 
Q 2483 1024 2490 1203 
L 2547 2310 
L 1485 2310 
Q 1472 1382 1357 832 
Q 1242 282 845 -422 
Q 582 -224 282 -160 
Q 685 320 835 937 
Q 986 1555 986 2771 
Q 986 3334 954 4141 
Q 1453 4077 3347 4077 
L 3251 5248 
Q 3514 5203 3750 5203 
L 3930 5210 
Q 4006 5210 4006 5178 
Q 4006 5146 3942 5072 
Q 3878 4998 3878 4461 
Q 3878 4288 3885 4077 
Q 5274 4083 5798 4141 
L 5798 3546 
Q 5126 3610 3904 3610 
Q 3968 2432 4301 1549 
Q 4666 2202 4832 3187 
Q 5152 3014 5434 2938 
Q 5510 2912 5510 2883 
Q 5510 2854 5452 2832 
Q 5395 2810 5328 2685 
Q 5261 2560 5222 2451 
Q 4973 1632 4563 1030 
Q 4858 557 5050 326 
Q 5242 96 5347 96 
Q 5453 96 5510 256 
Q 5568 416 5600 755 
Q 5882 410 6144 358 
Q 5971 -160 5840 -397 
Q 5709 -634 5529 -634 
Q 5350 -634 4972 -304 
Q 4595 26 4230 589 
Q 3725 0 2899 -557 
Q 2752 -237 2470 -109 
Q 3424 326 3987 1056 
Q 3744 1542 3638 2019 
Q 3533 2496 3392 3610 
z
M 5331 4474 
L 4794 4211 
Q 4634 4646 4416 4922 
L 4922 5165 
Q 5178 4819 5331 4474 
z
" transform="scale(0.015625)"/>
        <path id="STHeiti-529f" d="M 3750 3430 
Q 3091 3424 2771 3379 
L 2771 3968 
Q 3046 3936 3750 3930 
Q 3750 5018 3712 5306 
Q 3987 5235 4250 5235 
L 4474 5242 
Q 4550 5242 4550 5210 
Q 4550 5178 4451 5098 
Q 4352 5018 4294 3930 
Q 5446 3930 5920 3968 
L 5670 454 
Q 5638 19 5558 -163 
Q 5478 -346 5267 -426 
Q 5056 -506 4518 -589 
Q 4486 -269 4224 96 
Q 4454 64 4668 64 
Q 4883 64 4998 195 
Q 5114 326 5146 755 
L 5338 3430 
L 4269 3430 
Q 4192 1773 3869 979 
Q 3546 186 2413 -666 
Q 2221 -397 1856 -262 
Q 2861 307 3299 1171 
Q 3738 2035 3750 3430 
z
M 1830 1178 
Q 2419 1331 2797 1485 
Q 2746 1344 2746 1190 
Q 2746 1037 2758 909 
Q 2406 838 1667 614 
Q 928 390 454 205 
Q 410 602 250 909 
Q 672 928 1306 1056 
L 1306 3917 
Q 736 3910 429 3853 
L 429 4480 
Q 819 4422 1536 4422 
Q 2253 4422 2637 4480 
L 2637 3853 
Q 2368 3898 1830 3917 
L 1830 1178 
z
" transform="scale(0.015625)"/>
        <path id="STHeiti-6982" d="M 1107 2163 
Q 877 1261 589 762 
Q 474 1018 256 1286 
Q 768 1958 1107 3386 
L 1107 3494 
Q 742 3488 435 3437 
L 435 3930 
Q 659 3898 1107 3885 
Q 1107 4813 1056 5139 
Q 1222 5101 1606 5101 
Q 1702 5101 1702 5059 
Q 1702 5018 1628 4950 
Q 1555 4883 1555 4774 
L 1555 3891 
Q 1862 3904 2054 3930 
L 2054 3437 
Q 1843 3469 1555 3488 
L 1555 2509 
L 1850 2701 
L 2189 2010 
L 1811 1773 
Q 1709 2106 1555 2426 
L 1555 627 
Q 1555 128 1619 -576 
L 1043 -576 
Q 1107 128 1107 627 
L 1107 2163 
z
M 4742 4390 
Q 4128 4378 3846 4333 
L 3846 4838 
Q 4205 4781 4899 4781 
Q 5594 4781 5933 4838 
L 5933 4333 
Q 5683 4378 5197 4390 
Q 5197 3392 5133 2810 
Q 5728 2822 6003 2867 
L 6003 2387 
Q 5779 2413 5069 2413 
Q 5037 2208 4947 1875 
Q 5229 1850 5309 1850 
Q 5389 1850 5389 1814 
Q 5389 1779 5357 1766 
Q 5242 1709 5242 1594 
L 5242 211 
Q 5235 64 5276 35 
Q 5318 6 5472 6 
Q 5574 6 5622 124 
Q 5670 243 5722 634 
Q 5965 442 6202 358 
Q 6086 -147 5942 -300 
Q 5798 -454 5481 -454 
Q 5165 -454 5040 -432 
Q 4915 -410 4876 -346 
Q 4838 -282 4838 -122 
L 4838 1517 
Q 4435 294 3456 -538 
Q 3251 -346 2976 -198 
Q 3610 166 4045 851 
Q 4480 1536 4634 2406 
Q 4070 2394 3859 2355 
L 3859 3872 
Q 4013 3834 4147 3834 
L 4378 3834 
Q 4416 3834 4416 3802 
Q 4416 3770 4358 3725 
Q 4301 3680 4275 2810 
L 4685 2810 
Q 4742 3482 4742 4390 
z
M 3226 1190 
Q 3110 1427 3008 1587 
L 3360 1754 
Q 3642 1293 3872 768 
L 3494 544 
L 3379 851 
L 2733 237 
Q 2483 13 2374 -128 
Q 2221 134 2074 301 
Q 2259 422 2259 1184 
L 2259 4179 
Q 2259 4550 2234 4794 
Q 2477 4749 2941 4749 
Q 3405 4749 3648 4794 
Q 3629 4512 3629 4179 
L 3629 2765 
Q 3629 2490 3648 2138 
Q 3437 2150 3226 2150 
L 2643 2150 
L 2643 666 
L 3226 1190 
z
M 3232 3674 
L 3232 4365 
L 2643 4365 
L 2643 3674 
L 3232 3674 
z
M 3232 2554 
L 3232 3283 
L 2643 3283 
L 2643 2554 
L 3232 2554 
z
" transform="scale(0.015625)"/>
        <path id="STHeiti-7387" d="M 3066 4621 
Q 2970 4934 2867 5152 
L 3526 5254 
Q 3546 4902 3616 4621 
Q 5018 4627 5837 4685 
L 5837 4115 
Q 4941 4179 3277 4179 
Q 1613 4179 678 4115 
L 678 4685 
Q 1568 4621 3066 4621 
z
M 3046 2790 
L 2662 2739 
Q 2195 2675 2106 2637 
Q 2106 2854 2010 3059 
Q 2336 3155 2842 4128 
Q 3110 3955 3251 3913 
Q 3392 3872 3392 3846 
Q 3392 3821 3251 3769 
Q 3110 3718 2944 3497 
Q 2778 3277 2573 3085 
L 3373 3142 
Q 3686 3501 3859 3770 
Q 4077 3546 4307 3443 
Q 4397 3405 4397 3360 
Q 4397 3315 4307 3308 
Q 4218 3302 3965 3126 
Q 3712 2950 3411 2636 
Q 3110 2323 2624 1952 
L 3808 2035 
Q 3661 2278 3552 2413 
L 3942 2656 
Q 4211 2176 4595 1600 
L 4141 1389 
Q 4109 1466 4000 1683 
L 3456 1651 
L 3456 1018 
Q 5126 1018 5990 1075 
L 5990 518 
Q 5126 576 3456 576 
Q 3469 -160 3520 -691 
L 2886 -691 
Q 2944 -70 2944 576 
Q 1325 563 506 518 
L 506 1075 
Q 1331 1030 2950 1018 
L 2950 1613 
Q 2419 1574 2093 1491 
Q 2048 1786 1933 1965 
Q 2157 1965 2377 2147 
Q 2598 2330 3046 2790 
z
M 5248 3898 
Q 5453 3629 5709 3475 
Q 5760 3443 5760 3414 
Q 5760 3386 5677 3386 
Q 5594 3386 5389 3296 
Q 5184 3206 4755 2803 
Q 4595 3002 4384 3117 
Q 4934 3482 5248 3898 
z
M 1958 3238 
L 1587 2848 
Q 1261 3219 877 3507 
L 1222 3859 
Q 1517 3558 1958 3238 
z
M 5811 1933 
L 5414 1485 
Q 5030 1920 4461 2291 
L 4826 2675 
Q 5242 2317 5811 1933 
z
M 2003 2170 
Q 1824 2099 1024 1350 
Q 890 1645 704 1888 
Q 1018 2003 1357 2272 
Q 1696 2541 1798 2662 
Q 1830 2413 2003 2170 
z
" transform="scale(0.015625)"/>
       </defs>
       <use xlink:href="#STHeiti-6210"/>
       <use xlink:href="#STHeiti-529f" transform="translate(99.999985 0)"/>
       <use xlink:href="#STHeiti-6982" transform="translate(199.999969 0)"/>
       <use xlink:href="#STHeiti-7387" transform="translate(299.999954 0)"/>
      </g>
     </g>
    </g>
    <g id="xtick_2">
     <g id="line2d_3">
      <path d="M 210.825795 225.292779 
L 210.825795 7.2 
" clip-path="url(#p3579464a3f)" style="fill: none; stroke: #b0b0b0; stroke-opacity: 0.3; stroke-width: 0.8; stroke-linecap: square"/>
     </g>
     <g id="line2d_4">
      <g>
       <use xlink:href="#m4a19aac596" x="210.825795" y="225.292779" style="stroke: #000000; stroke-width: 0.8"/>
      </g>
     </g>
     <g id="text_2">
      <!-- 成功时价值 -->
      <g transform="translate(166.854213 264.220982) rotate(-30) scale(0.1 -0.1)">
       <defs>
        <path id="STHeiti-65f6" d="M 4851 3795 
Q 4851 4909 4781 5261 
Q 4979 5229 5421 5229 
Q 5530 5229 5530 5184 
Q 5530 5158 5491 5133 
Q 5376 5069 5376 4883 
L 5376 3802 
Q 5728 3808 6144 3846 
L 6144 3258 
Q 5862 3290 5376 3302 
L 5376 83 
Q 5376 -186 5299 -310 
Q 5222 -435 4988 -502 
Q 4755 -570 4230 -614 
Q 4192 -224 3962 70 
Q 4230 51 4428 51 
Q 4627 51 4739 89 
Q 4851 128 4851 275 
L 4851 3309 
L 4077 3309 
Q 3379 3309 2867 3258 
L 2867 3846 
Q 3373 3795 4077 3795 
L 4851 3795 
z
M 1165 634 
L 1165 -224 
L 627 -224 
Q 672 173 672 627 
L 672 3949 
Q 672 4422 634 4659 
Q 864 4608 1683 4608 
Q 2502 4608 2726 4659 
Q 2688 4435 2688 3949 
L 2688 896 
Q 2688 486 2733 51 
L 2195 51 
L 2195 634 
L 1165 634 
z
M 2195 2829 
L 2195 4154 
L 1165 4154 
L 1165 2829 
L 2195 2829 
z
M 2195 1062 
L 2195 2381 
L 1165 2381 
L 1165 1062 
L 2195 1062 
z
M 4243 1574 
L 3674 1370 
Q 3526 1933 3238 2579 
L 3757 2758 
Q 3891 2163 4243 1574 
z
" transform="scale(0.015625)"/>
        <path id="STHeiti-4ef7" d="M 4051 4416 
Q 3654 3718 3264 3219 
Q 2874 2720 2227 2163 
Q 2054 2374 1754 2547 
Q 2547 3014 3027 3721 
Q 3507 4429 3661 5210 
Q 4141 5005 4333 4986 
Q 4403 4979 4403 4928 
Q 4403 4877 4288 4781 
Q 4730 3488 6240 3008 
Q 5965 2688 5850 2387 
Q 5126 2778 4707 3258 
Q 4288 3738 4051 4416 
z
M 1139 2688 
Q 947 2394 666 2035 
Q 480 2317 211 2470 
Q 717 2899 1072 3657 
Q 1427 4416 1517 5133 
Q 1824 4992 2144 4934 
Q 2266 4915 2266 4870 
Q 2266 4826 2205 4771 
Q 2144 4717 2099 4633 
Q 2054 4550 1939 4269 
L 1677 3654 
L 1677 -614 
L 1069 -614 
Q 1139 83 1139 762 
L 1139 2688 
z
M 4461 2829 
Q 4774 2771 5101 2771 
Q 5210 2771 5210 2736 
Q 5210 2701 5136 2643 
Q 5062 2586 5062 2157 
L 5062 576 
Q 5062 141 5114 -595 
L 4461 -595 
Q 4518 147 4518 576 
L 4518 1837 
Q 4518 2445 4461 2829 
z
M 3014 2758 
Q 3136 2720 3648 2720 
Q 3693 2720 3693 2701 
Q 3693 2682 3661 2640 
Q 3629 2598 3597 2384 
Q 3565 2170 3552 1901 
Q 3514 947 3254 403 
Q 2995 -141 2374 -672 
Q 2227 -512 1798 -294 
Q 2451 109 2745 633 
Q 3040 1158 3040 2118 
Q 3040 2406 3014 2758 
z
" transform="scale(0.015625)"/>
        <path id="STHeiti-503c" d="M 2438 109 
L 2438 2912 
Q 2438 3322 2406 3610 
Q 2861 3571 3507 3565 
Q 3552 3834 3571 4186 
Q 2490 4173 2086 4147 
L 2086 4646 
Q 2586 4602 3597 4595 
Q 3610 5024 3590 5229 
Q 3840 5184 4294 5184 
Q 4346 5184 4346 5155 
Q 4346 5126 4301 5088 
Q 4192 4998 4128 4595 
Q 5440 4595 6022 4646 
L 6022 4147 
Q 5338 4192 4077 4186 
L 4013 3565 
Q 5043 3565 5434 3610 
Q 5408 3405 5408 2912 
L 5408 102 
Q 5805 109 6118 147 
L 6118 -365 
Q 5754 -320 3965 -320 
Q 2176 -320 1830 -358 
L 1830 147 
Q 2106 122 2438 109 
z
M 4915 2688 
L 4915 3155 
L 2925 3155 
L 2925 2688 
L 4915 2688 
z
M 2925 2323 
L 2925 1824 
L 4915 1824 
L 4915 2323 
L 2925 2323 
z
M 2925 1466 
L 2925 973 
L 4915 973 
L 4915 1466 
L 2925 1466 
z
M 4915 102 
L 4915 608 
L 2925 608 
L 2925 102 
L 4915 102 
z
M 1549 4026 
L 1549 -627 
L 966 -627 
Q 1037 70 1037 749 
L 1037 3066 
Q 845 2726 595 2349 
Q 448 2579 186 2752 
Q 685 3354 944 3933 
Q 1203 4512 1408 5216 
Q 1786 5024 1926 4995 
Q 2067 4966 2067 4918 
Q 2067 4870 1984 4825 
Q 1901 4781 1766 4493 
L 1549 4026 
z
" transform="scale(0.015625)"/>
       </defs>
       <use xlink:href="#STHeiti-6210"/>
       <use xlink:href="#STHeiti-529f" transform="translate(99.999985 0)"/>
       <use xlink:href="#STHeiti-65f6" transform="translate(199.999969 0)"/>
       <use xlink:href="#STHeiti-4ef7" transform="translate(299.999954 0)"/>
       <use xlink:href="#STHeiti-503c" transform="translate(399.999939 0)"/>
      </g>
     </g>
    </g>
    <g id="xtick_3">
     <g id="line2d_5">
      <path d="M 365.44625 225.292779 
L 365.44625 7.2 
" clip-path="url(#p3579464a3f)" style="fill: none; stroke: #b0b0b0; stroke-opacity: 0.3; stroke-width: 0.8; stroke-linecap: square"/>
     </g>
     <g id="line2d_6">
      <g>
       <use xlink:href="#m4a19aac596" x="365.44625" y="225.292779" style="stroke: #000000; stroke-width: 0.8"/>
      </g>
     </g>
     <g id="text_3">
      <!-- 失败时价值 -->
      <g transform="translate(321.474667 264.220982) rotate(-30) scale(0.1 -0.1)">
       <defs>
        <path id="STHeiti-5931" d="M 3334 1747 
Q 3046 947 2521 432 
Q 1997 -83 998 -563 
Q 768 -179 461 6 
Q 1299 134 1984 704 
Q 2669 1274 2918 2048 
Q 1626 2042 678 1984 
L 678 2566 
Q 1485 2502 3014 2502 
Q 3072 2918 3085 3590 
L 1760 3590 
Q 1613 3270 1344 2816 
Q 1126 2957 800 2976 
Q 1459 3910 1594 4915 
Q 1965 4774 2259 4774 
Q 2317 4774 2317 4748 
Q 2317 4723 2266 4685 
Q 2106 4557 1933 4051 
L 3085 4051 
Q 3085 4851 3046 5248 
Q 3366 5203 3712 5203 
Q 3834 5203 3834 5174 
Q 3834 5146 3802 5114 
Q 3718 5043 3680 4828 
Q 3642 4614 3629 4051 
Q 4813 4051 5446 4109 
L 5446 3533 
Q 4717 3590 3616 3590 
Q 3603 3034 3546 2502 
Q 5114 2502 5920 2566 
L 5920 1984 
Q 4954 2042 3616 2048 
Q 3891 1325 4412 873 
Q 4934 422 6125 307 
Q 5805 96 5709 -416 
Q 4755 -115 4204 317 
Q 3654 749 3334 1747 
z
" transform="scale(0.015625)"/>
        <path id="STHeiti-8d25" d="M 4262 3981 
L 5274 3981 
Q 5830 3981 6093 4032 
L 6093 3482 
Q 5773 3507 5491 3514 
Q 5459 1523 4864 717 
Q 5267 288 6202 58 
Q 5990 -179 5888 -595 
Q 5171 -307 4525 326 
Q 3936 -301 3123 -698 
Q 3021 -493 2637 -256 
Q 3418 -45 4218 704 
Q 3840 1286 3667 2451 
Q 3578 2298 3469 2157 
Q 3334 2368 3104 2490 
Q 3514 3168 3754 3961 
Q 3994 4755 3974 5280 
Q 4301 5178 4627 5165 
Q 4710 5158 4710 5123 
Q 4710 5088 4617 5030 
Q 4525 4973 4262 3981 
z
M 4979 3514 
L 4128 3514 
Q 3981 3034 3750 2605 
L 4102 2701 
Q 4141 1914 4557 1114 
Q 5005 1811 4979 3514 
z
M 3059 1293 
L 2534 1293 
L 2534 4275 
L 1088 4275 
L 1088 1254 
L 563 1254 
Q 589 1510 589 1882 
L 589 4275 
Q 589 4595 570 4781 
Q 838 4749 1856 4749 
Q 2874 4749 3053 4781 
Q 3034 4595 3034 4275 
L 3034 1894 
Q 3034 1542 3059 1293 
z
M 1517 3782 
Q 1824 3725 2157 3725 
Q 2227 3725 2227 3693 
Q 2227 3661 2172 3587 
Q 2118 3514 2076 3344 
Q 2035 3174 2035 2611 
Q 2035 2048 1971 1526 
Q 1907 1005 1798 758 
Q 1690 512 1437 160 
Q 1184 -192 717 -563 
Q 582 -384 269 -205 
Q 794 115 1085 480 
Q 1376 845 1469 1309 
Q 1562 1773 1562 2518 
Q 1562 3264 1517 3782 
z
M 3238 288 
L 2848 -134 
Q 2381 410 1926 698 
L 2266 1037 
Q 2771 723 3238 288 
z
" transform="scale(0.015625)"/>
       </defs>
       <use xlink:href="#STHeiti-5931"/>
       <use xlink:href="#STHeiti-8d25" transform="translate(99.999985 0)"/>
       <use xlink:href="#STHeiti-65f6" transform="translate(199.999969 0)"/>
       <use xlink:href="#STHeiti-4ef7" transform="translate(299.999954 0)"/>
       <use xlink:href="#STHeiti-503c" transform="translate(399.999939 0)"/>
      </g>
     </g>
    </g>
    <g id="xtick_4">
     <g id="line2d_7">
      <path d="M 520.066705 225.292779 
L 520.066705 7.2 
" clip-path="url(#p3579464a3f)" style="fill: none; stroke: #b0b0b0; stroke-opacity: 0.3; stroke-width: 0.8; stroke-linecap: square"/>
     </g>
     <g id="line2d_8">
      <g>
       <use xlink:href="#m4a19aac596" x="520.066705" y="225.292779" style="stroke: #000000; stroke-width: 0.8"/>
      </g>
     </g>
     <g id="text_4">
      <!-- 期望价值 -->
      <g transform="translate(484.755376 259.1858) rotate(-30) scale(0.1 -0.1)">
       <defs>
        <path id="STHeiti-671f" d="M 1082 4320 
Q 1082 4870 1018 5107 
Q 1216 5062 1555 5062 
Q 1613 5062 1613 5036 
Q 1613 5011 1561 4963 
Q 1510 4915 1510 4774 
L 1510 4320 
L 2554 4320 
Q 2554 4966 2502 5126 
Q 2784 5069 3034 5056 
Q 3130 5050 3130 5005 
Q 3130 4979 3056 4928 
Q 2982 4877 2982 4749 
L 2982 4326 
Q 3238 4339 3437 4371 
L 3437 3827 
Q 3290 3853 2982 3878 
L 2982 1395 
Q 3264 1421 3418 1446 
L 3418 960 
Q 3136 1018 1971 1018 
Q 806 1018 512 960 
L 512 1446 
Q 781 1402 1082 1389 
L 1082 3878 
Q 838 3872 538 3827 
L 538 4371 
Q 838 4326 1082 4320 
z
M 1510 3322 
L 2554 3322 
L 2554 3885 
L 1510 3885 
L 1510 3322 
z
M 2554 2957 
L 1510 2957 
L 1510 2349 
L 2554 2349 
L 2554 2957 
z
M 1510 1997 
L 1510 1389 
L 2554 1389 
L 2554 1997 
L 1510 1997 
z
M 4160 1427 
Q 4000 160 3347 -614 
Q 3200 -461 2880 -352 
Q 3264 51 3494 630 
Q 3725 1210 3725 2611 
L 3725 4051 
Q 3725 4486 3674 4883 
Q 4058 4832 4710 4832 
Q 5363 4832 5754 4883 
Q 5702 4550 5702 4051 
L 5702 32 
Q 5702 -218 5654 -326 
Q 5606 -435 5424 -486 
Q 5242 -538 4794 -576 
Q 4806 -301 4614 13 
Q 4832 -6 4963 -6 
Q 5094 -6 5161 35 
Q 5229 77 5229 269 
L 5229 1427 
L 4160 1427 
z
M 5229 3360 
L 5229 4403 
L 4186 4403 
L 4186 3360 
L 5229 3360 
z
M 4186 2957 
L 4186 1824 
L 5229 1824 
L 5229 2957 
L 4186 2957 
z
M 3149 339 
L 2746 19 
Q 2534 416 2182 659 
L 2554 934 
Q 2893 659 3149 339 
z
M 1286 883 
Q 1510 723 1805 640 
Q 1862 627 1862 601 
Q 1862 576 1818 563 
Q 1683 518 1475 281 
Q 1267 45 864 -448 
Q 678 -282 384 -205 
Q 954 160 1286 883 
z
" transform="scale(0.015625)"/>
        <path id="STHeiti-671b" d="M 1734 4448 
Q 1696 4826 1574 5120 
L 2144 5203 
Q 2176 4890 2278 4448 
Q 2810 4454 3104 4493 
L 3104 3987 
Q 2810 4026 2323 4026 
L 1536 4026 
L 1536 3040 
Q 2195 3245 2669 3488 
Q 2682 3309 2835 3110 
L 1645 2605 
Q 1402 2496 1242 2304 
Q 1101 2509 838 2682 
Q 954 2790 992 2905 
Q 1030 3021 1030 3366 
L 1030 4026 
Q 672 4019 454 3987 
L 454 4493 
Q 691 4448 1734 4448 
z
M 3789 2982 
Q 3648 2528 3027 2112 
Q 2925 2272 2643 2413 
Q 3040 2650 3213 2918 
Q 3386 3187 3434 3616 
Q 3482 4045 3475 4986 
Q 3923 4947 4601 4947 
Q 5280 4947 5741 4986 
Q 5715 4768 5715 4173 
L 5715 2771 
Q 5715 2579 5657 2480 
Q 5600 2381 5408 2313 
Q 5216 2246 4787 2176 
Q 4762 2406 4589 2656 
Q 4736 2643 4902 2643 
Q 5069 2643 5149 2716 
Q 5229 2790 5229 2982 
L 3789 2982 
z
M 5229 4154 
L 5229 4538 
L 3962 4538 
L 3949 4154 
L 5229 4154 
z
M 3930 3763 
Q 3904 3507 3885 3379 
L 5229 3379 
L 5229 3763 
L 3930 3763 
z
M 2976 698 
Q 1613 698 1037 659 
L 1037 1165 
Q 1734 1120 2976 1120 
L 2976 1600 
Q 1434 1600 787 1562 
L 787 2080 
Q 1568 2035 3302 2035 
Q 5037 2035 5728 2080 
L 5728 1562 
Q 5056 1600 3507 1600 
L 3507 1120 
Q 4998 1133 5421 1165 
L 5421 659 
Q 4851 698 3507 698 
L 3507 134 
Q 5306 134 6042 179 
L 6042 -333 
Q 5389 -294 3264 -294 
Q 1139 -294 493 -333 
L 493 179 
Q 1229 134 2976 134 
L 2976 698 
z
" transform="scale(0.015625)"/>
       </defs>
       <use xlink:href="#STHeiti-671f"/>
       <use xlink:href="#STHeiti-671b" transform="translate(99.999985 0)"/>
       <use xlink:href="#STHeiti-4ef7" transform="translate(199.999969 0)"/>
       <use xlink:href="#STHeiti-503c" transform="translate(299.999954 0)"/>
      </g>
     </g>
    </g>
    <g id="xtick_5">
     <g id="line2d_9">
      <path d="M 674.687159 225.292779 
L 674.687159 7.2 
" clip-path="url(#p3579464a3f)" style="fill: none; stroke: #b0b0b0; stroke-opacity: 0.3; stroke-width: 0.8; stroke-linecap: square"/>
     </g>
     <g id="line2d_10">
      <g>
       <use xlink:href="#m4a19aac596" x="674.687159" y="225.292779" style="stroke: #000000; stroke-width: 0.8"/>
      </g>
     </g>
     <g id="text_5">
      <!-- 折现到2026（5%/年，情景A 5年，情景B 7年） -->
      <g transform="translate(492.978295 343.795059) rotate(-30) scale(0.1 -0.1)">
       <defs>
        <path id="STHeiti-6298" d="M 1414 1715 
Q 826 1504 493 1338 
Q 448 1670 346 1990 
Q 941 2093 1414 2227 
L 1414 3341 
Q 742 3328 442 3290 
L 442 3859 
Q 800 3808 1414 3802 
Q 1414 4838 1344 5261 
Q 1574 5216 1978 5216 
Q 2138 5216 2138 5165 
Q 2138 5114 2058 5053 
Q 1978 4992 1955 4944 
Q 1933 4896 1933 4813 
L 1933 3802 
Q 2464 3814 2778 3859 
L 2778 3290 
Q 2483 3334 1933 3334 
L 1933 2381 
Q 2298 2496 2707 2675 
Q 2675 2547 2675 2403 
Q 2675 2259 2707 2138 
Q 2330 2029 1933 1894 
L 1933 269 
Q 1933 -19 1872 -144 
Q 1811 -269 1596 -352 
Q 1382 -435 858 -525 
Q 864 -166 627 160 
Q 947 134 1126 134 
Q 1306 134 1360 179 
Q 1414 224 1414 346 
L 1414 1715 
z
M 4666 2771 
L 3744 2771 
Q 3725 1594 3504 784 
Q 3283 -26 2803 -653 
Q 2547 -416 2182 -333 
Q 2810 282 3014 1069 
Q 3219 1856 3219 3277 
Q 3219 4154 3162 4672 
Q 3597 4653 4365 4816 
Q 5133 4979 5485 5184 
Q 5549 5037 5661 4854 
Q 5773 4672 5837 4614 
Q 5901 4557 5901 4537 
Q 5901 4518 5843 4508 
Q 5786 4499 5651 4486 
L 4787 4371 
Q 4064 4262 3744 4230 
L 3744 3251 
L 4890 3251 
Q 5696 3251 6093 3328 
L 6093 2694 
Q 5747 2752 5197 2765 
L 5197 467 
Q 5197 58 5242 -550 
L 4627 -550 
Q 4666 -19 4666 467 
L 4666 2771 
z
" transform="scale(0.015625)"/>
        <path id="STHeiti-73b0" d="M 5626 1683 
L 5075 1683 
L 5075 4403 
L 3258 4403 
L 3258 1651 
L 2714 1651 
Q 2771 2138 2771 2669 
L 2771 4352 
Q 2771 4717 2746 4883 
Q 3206 4845 4256 4845 
Q 5306 4845 5594 4883 
Q 5568 4730 5568 4352 
L 5568 2701 
Q 5568 2093 5626 1683 
z
M 1690 966 
Q 2157 1088 2573 1235 
Q 2541 1126 2541 969 
Q 2541 813 2566 730 
Q 1133 448 474 77 
Q 435 448 326 736 
Q 691 755 1190 858 
L 1190 2432 
Q 742 2419 493 2381 
L 493 2925 
Q 646 2899 1190 2874 
L 1190 4179 
Q 698 4166 435 4128 
L 435 4685 
Q 832 4634 1501 4634 
Q 2170 4634 2534 4685 
L 2534 4128 
Q 2240 4173 1690 4186 
L 1690 2874 
Q 2144 2880 2451 2925 
L 2451 2381 
Q 2170 2432 1690 2438 
L 1690 966 
z
M 3872 4013 
Q 4160 3949 4467 3949 
Q 4518 3949 4518 3913 
Q 4518 3878 4480 3849 
Q 4442 3821 4406 3616 
Q 4371 3411 4281 2547 
Q 4192 1683 3760 915 
Q 3328 147 2285 -538 
Q 2093 -269 1766 -115 
Q 2150 26 2620 365 
Q 3091 704 3401 1197 
Q 3712 1690 3798 2362 
Q 3885 3034 3885 3472 
Q 3885 3910 3872 4013 
z
M 4154 1773 
Q 4416 1734 4672 1734 
Q 4742 1734 4742 1708 
Q 4742 1683 4688 1638 
Q 4634 1594 4634 1485 
L 4634 397 
Q 4634 237 4656 176 
Q 4678 115 4761 92 
Q 4845 70 5101 70 
Q 5357 70 5459 201 
Q 5562 333 5613 774 
Q 5786 563 6144 474 
Q 6048 45 5958 -124 
Q 5869 -294 5693 -348 
Q 5517 -403 5037 -403 
Q 4557 -403 4413 -358 
Q 4269 -314 4211 -208 
Q 4154 -102 4154 282 
L 4154 1773 
z
" transform="scale(0.015625)"/>
        <path id="STHeiti-5230" d="M 5082 5094 
Q 5286 5056 5504 5056 
L 5658 5062 
Q 5741 5062 5741 5020 
Q 5741 4979 5689 4931 
Q 5638 4883 5625 4784 
Q 5613 4685 5613 4384 
L 5613 211 
Q 5613 -160 5558 -304 
Q 5504 -448 5305 -515 
Q 5107 -582 4576 -653 
Q 4518 -326 4250 -19 
Q 4518 -38 4732 -38 
Q 4947 -38 5030 29 
Q 5114 96 5114 282 
L 5114 3968 
Q 5114 4685 5082 5094 
z
M 3507 4218 
Q 3059 4282 2006 4282 
Q 954 4282 512 4218 
L 512 4774 
Q 1050 4710 2048 4710 
Q 3046 4710 3507 4774 
L 3507 4218 
z
M 3936 4320 
Q 4166 4262 4358 4262 
L 4506 4275 
Q 4557 4275 4557 4236 
Q 4557 4198 4512 4150 
Q 4467 4102 4460 4022 
Q 4454 3942 4454 3686 
L 4454 1645 
Q 4454 1222 4486 858 
L 3942 858 
Q 3981 1203 3981 1645 
L 3981 3315 
Q 3981 3910 3936 4320 
z
M 2906 3034 
Q 2707 3360 2477 3674 
L 2880 3917 
Q 3238 3322 3680 2682 
L 3238 2426 
Q 3200 2509 3110 2675 
L 2214 2592 
L 2214 1722 
Q 3008 1734 3373 1786 
L 3373 1267 
Q 3130 1306 2214 1293 
L 2214 480 
Q 3142 627 3616 742 
Q 3578 563 3578 454 
Q 3578 346 3590 243 
Q 1242 -70 582 -365 
Q 544 -70 410 250 
Q 890 288 1709 403 
L 1709 1286 
Q 1024 1274 646 1216 
L 646 1760 
Q 960 1709 1709 1722 
L 1709 2541 
Q 826 2458 627 2368 
Q 627 2643 474 2874 
Q 774 2963 924 3139 
Q 1075 3315 1280 3612 
Q 1485 3910 1536 4218 
Q 1901 4045 2093 4013 
Q 2214 3987 2214 3939 
Q 2214 3891 2099 3846 
Q 1984 3802 1817 3619 
Q 1651 3437 1248 2893 
L 2906 3034 
z
" transform="scale(0.015625)"/>
        <path id="STHeiti-32" d="M 742 3539 
L 301 3539 
Q 333 4243 768 4668 
Q 1203 5094 1820 5094 
Q 2438 5094 2844 4694 
Q 3251 4294 3251 3718 
Q 3251 3290 3024 2925 
Q 2797 2560 2336 2061 
L 1190 826 
L 3315 826 
L 3315 384 
L 192 384 
L 1946 2278 
Q 2406 2778 2604 3066 
Q 2803 3354 2803 3725 
Q 2803 4096 2512 4377 
Q 2221 4659 1789 4659 
Q 1357 4659 1072 4368 
Q 787 4077 742 3539 
z
" transform="scale(0.015625)"/>
        <path id="STHeiti-30" d="M 1747 269 
Q 1005 269 605 880 
Q 205 1491 205 2681 
Q 205 3872 605 4483 
Q 1005 5094 1741 5094 
Q 2477 5094 2909 4470 
Q 3341 3846 3341 2681 
Q 3341 1517 2905 893 
Q 2470 269 1747 269 
z
M 1760 4659 
Q 1229 4659 934 4147 
Q 640 3635 640 2669 
Q 640 685 1760 685 
Q 2304 685 2608 1206 
Q 2912 1728 2912 2681 
Q 2912 3635 2598 4147 
Q 2285 4659 1760 4659 
z
" transform="scale(0.015625)"/>
        <path id="STHeiti-36" d="M 2349 5094 
L 2726 4851 
L 1485 2970 
Q 1747 3059 1984 3059 
Q 2496 3059 2880 2652 
Q 3264 2246 3264 1660 
Q 3264 1075 2845 672 
Q 2426 269 1827 269 
Q 1229 269 829 678 
Q 429 1088 429 1677 
Q 429 1958 537 2256 
Q 646 2554 954 3014 
L 2349 5094 
z
M 2810 1683 
Q 2810 2086 2528 2368 
Q 2246 2650 1843 2650 
Q 1440 2650 1158 2368 
Q 877 2086 877 1683 
Q 877 1280 1161 998 
Q 1446 717 1843 717 
Q 2240 717 2525 998 
Q 2810 1280 2810 1683 
z
" transform="scale(0.015625)"/>
        <path id="STHeiti-ff08" d="M 5651 -749 
L 5274 -749 
Q 4646 173 4409 835 
Q 4173 1498 4173 2266 
Q 4173 3034 4432 3750 
Q 4691 4467 5254 5267 
L 5645 5267 
Q 5082 4237 4928 3606 
Q 4774 2976 4774 2093 
Q 4774 1472 4953 861 
Q 5133 250 5651 -749 
z
" transform="scale(0.015625)"/>
        <path id="STHeiti-35" d="M 3149 4979 
L 3149 4544 
L 1510 4544 
L 1280 3290 
Q 1587 3379 1856 3379 
Q 2458 3379 2861 2953 
Q 3264 2528 3264 1862 
Q 3264 1197 2825 733 
Q 2387 269 1664 269 
Q 1114 269 726 598 
Q 339 928 262 1498 
L 730 1498 
Q 813 1114 1075 909 
Q 1338 704 1683 704 
Q 2138 704 2467 1043 
Q 2797 1382 2797 1888 
Q 2797 2349 2509 2646 
Q 2221 2944 1757 2944 
Q 1293 2944 730 2701 
L 1158 4979 
L 3149 4979 
z
" transform="scale(0.015625)"/>
        <path id="STHeiti-25" d="M 4314 5184 
L 966 64 
L 550 64 
L 3603 4730 
Q 3232 4640 2845 4614 
Q 2458 4589 2278 4595 
L 2112 4602 
Q 2304 4333 2304 4032 
Q 2304 3571 1993 3248 
Q 1683 2925 1225 2925 
Q 768 2925 454 3238 
Q 141 3552 141 4006 
Q 141 4461 464 4774 
Q 787 5088 1210 5088 
Q 1382 5088 1702 5021 
Q 2022 4954 2490 4954 
Q 3232 4954 3949 5184 
L 4314 5184 
z
M 1914 4013 
Q 1914 4301 1712 4499 
Q 1510 4698 1225 4698 
Q 941 4698 739 4496 
Q 538 4294 538 4012 
Q 538 3731 739 3529 
Q 941 3328 1225 3328 
Q 1510 3328 1712 3526 
Q 1914 3725 1914 4013 
z
M 2656 1331 
Q 2656 1773 2973 2093 
Q 3290 2413 3734 2413 
Q 4179 2413 4496 2096 
Q 4813 1779 4813 1331 
Q 4813 883 4496 566 
Q 4179 250 3734 250 
Q 3290 250 2973 566 
Q 2656 883 2656 1331 
z
M 4422 1331 
Q 4422 1613 4220 1814 
Q 4019 2016 3734 2016 
Q 3450 2016 3251 1814 
Q 3053 1613 3053 1331 
Q 3053 1050 3251 848 
Q 3450 646 3734 646 
Q 4019 646 4220 844 
Q 4422 1043 4422 1331 
z
" transform="scale(0.015625)"/>
        <path id="STHeiti-2f" d="M 2611 5094 
L 704 -243 
L 224 -243 
L 2131 5094 
L 2611 5094 
z
" transform="scale(0.015625)"/>
        <path id="STHeiti-5e74" d="M 2125 4346 
L 3738 4346 
Q 5107 4346 5696 4397 
L 5696 3827 
Q 5088 3878 3770 3878 
L 3770 2886 
Q 4819 2893 5395 2938 
L 5395 2406 
Q 4602 2451 3770 2458 
L 3770 1338 
Q 5658 1338 6080 1395 
L 6080 819 
Q 5709 870 3770 877 
Q 3770 -26 3821 -704 
L 3174 -704 
Q 3226 -19 3226 877 
Q 973 877 371 819 
L 371 1395 
Q 730 1357 1466 1344 
L 1466 2349 
Q 1466 2682 1421 2938 
Q 2093 2886 3226 2886 
L 3226 3878 
L 1862 3878 
Q 1510 3277 1120 2803 
Q 922 2938 563 3040 
Q 973 3430 1341 4028 
Q 1709 4627 1907 5216 
Q 2234 5088 2426 5043 
Q 2618 4998 2618 4966 
Q 2618 4934 2522 4886 
Q 2426 4838 2125 4346 
z
M 3226 2458 
L 1984 2458 
L 1984 1338 
L 3226 1338 
L 3226 2458 
z
" transform="scale(0.015625)"/>
        <path id="STHeiti-ff0c" d="M 1952 435 
Q 1952 0 1776 -253 
Q 1600 -506 1286 -557 
L 1286 -262 
Q 1626 -224 1626 384 
L 1286 384 
L 1286 1062 
L 1952 1062 
L 1952 435 
z
" transform="scale(0.015625)"/>
        <path id="STHeiti-60c5" d="M 4301 3814 
Q 5197 3827 5619 3878 
L 5619 3392 
Q 5197 3443 4301 3456 
L 4301 3046 
Q 5581 3046 6093 3110 
L 6093 2611 
Q 5555 2675 4220 2675 
Q 2886 2675 2355 2611 
L 2355 3110 
Q 2733 3059 3814 3046 
L 3814 3456 
Q 3021 3443 2643 3392 
L 2643 3878 
Q 3027 3827 3814 3814 
L 3814 4224 
Q 2848 4211 2490 4160 
L 2490 4666 
Q 2861 4614 3814 4602 
Q 3814 5056 3795 5210 
Q 3930 5184 4122 5184 
L 4352 5197 
Q 4403 5197 4403 5168 
Q 4403 5139 4352 5088 
Q 4301 5037 4301 4870 
L 4301 4602 
Q 5402 4602 5869 4666 
L 5869 4160 
Q 5402 4224 4301 4224 
L 4301 3814 
z
M 1126 5133 
Q 1408 5082 1741 5082 
Q 1875 5082 1875 5037 
Q 1875 4992 1772 4928 
Q 1670 4864 1670 4595 
L 1670 525 
Q 1670 58 1722 -518 
L 1126 -518 
Q 1171 -6 1171 531 
L 1171 4282 
Q 1171 4838 1126 5133 
z
M 2502 3341 
L 2086 3110 
Q 2003 3450 1754 3808 
L 2131 4019 
Q 2355 3661 2502 3341 
z
M 973 3757 
Q 877 3053 794 2259 
L 230 2298 
Q 448 2957 454 3757 
L 973 3757 
z
M 3142 461 
L 3142 -531 
L 2598 -531 
Q 2637 13 2637 384 
L 2637 1754 
Q 2637 2131 2618 2298 
Q 3027 2278 4099 2278 
Q 5171 2278 5549 2298 
Q 5536 2074 5536 1754 
L 5536 166 
Q 5536 -256 5478 -358 
Q 5421 -461 5283 -509 
Q 5146 -557 4608 -589 
Q 4608 -339 4429 -77 
Q 4582 -83 4672 -83 
Q 4909 -83 4966 -16 
Q 5024 51 5024 282 
L 5024 461 
L 3142 461 
z
M 5024 1530 
L 5024 1907 
L 3142 1907 
L 3142 1530 
L 5024 1530 
z
M 3142 1178 
L 3142 819 
L 5024 819 
L 5024 1178 
L 3142 1178 
z
" transform="scale(0.015625)"/>
        <path id="STHeiti-666f" d="M 5152 3130 
Q 4634 3168 3232 3168 
Q 1830 3168 1139 3130 
Q 1178 3443 1178 4006 
Q 1178 4570 1139 4922 
Q 1747 4870 3148 4870 
Q 4550 4870 5152 4922 
Q 5114 4589 5114 4013 
Q 5114 3437 5152 3130 
z
M 4608 4173 
L 4608 4512 
L 1690 4512 
L 1690 4173 
L 4608 4173 
z
M 4608 3507 
L 4608 3846 
L 1690 3846 
L 1690 3507 
L 4608 3507 
z
M 3002 2733 
Q 2925 2893 2784 3091 
L 3418 3149 
Q 3456 2938 3526 2733 
Q 5005 2739 5914 2790 
L 5914 2323 
Q 4928 2381 3155 2381 
Q 1382 2381 397 2323 
L 397 2790 
Q 1357 2733 3002 2733 
z
M 3507 890 
L 3507 -122 
Q 3507 -314 3446 -406 
Q 3386 -499 3200 -553 
Q 3014 -608 2592 -666 
Q 2534 -410 2387 -160 
Q 2586 -186 2720 -186 
Q 2854 -186 2915 -131 
Q 2976 -77 2976 102 
L 2976 890 
Q 1920 890 1350 851 
Q 1389 1146 1389 1472 
Q 1389 1798 1350 2054 
Q 2010 2016 3181 2016 
Q 4352 2016 4998 2054 
Q 4973 1779 4969 1436 
Q 4966 1094 4998 851 
Q 4518 877 3507 890 
z
M 4512 1222 
L 4512 1664 
L 1837 1664 
L 1837 1222 
L 4512 1222 
z
M 1965 762 
Q 2195 525 2342 480 
Q 2426 454 2426 419 
Q 2426 384 2278 336 
Q 2131 288 1760 -29 
Q 1389 -346 954 -589 
Q 813 -403 589 -243 
Q 1344 102 1965 762 
z
M 5722 102 
L 5427 -410 
Q 4781 32 3942 326 
L 4198 717 
Q 4986 429 5722 102 
z
" transform="scale(0.015625)"/>
        <path id="STHeiti-41" d="M 2438 5165 
L 4582 384 
L 4090 384 
L 3366 1952 
L 1382 1952 
L 666 384 
L 154 384 
L 2323 5165 
L 2438 5165 
z
M 2381 4147 
L 1594 2419 
L 3162 2419 
L 2381 4147 
z
" transform="scale(0.015625)"/>
        <path id="STHeiti-20" transform="scale(0.015625)"/>
        <path id="STHeiti-42" d="M 570 4979 
L 1478 4979 
Q 2202 4979 2576 4688 
Q 2950 4397 2950 3853 
Q 2950 3552 2800 3299 
Q 2650 3046 2362 2893 
Q 2835 2739 3081 2432 
Q 3328 2125 3328 1702 
Q 3328 1133 2912 758 
Q 2496 384 1837 384 
L 570 384 
L 570 4979 
z
M 1024 4531 
L 1024 3059 
L 1286 3059 
Q 1888 3059 2182 3251 
Q 2477 3443 2477 3853 
Q 2477 4531 1555 4531 
L 1024 4531 
z
M 1024 2598 
L 1024 832 
L 1594 832 
Q 2086 832 2320 931 
Q 2554 1030 2701 1238 
Q 2848 1446 2848 1664 
Q 2848 1882 2765 2048 
Q 2682 2214 2518 2342 
Q 2355 2470 2128 2534 
Q 1901 2598 1280 2598 
L 1024 2598 
z
" transform="scale(0.015625)"/>
        <path id="STHeiti-37" d="M 461 4979 
L 3373 4979 
L 915 269 
L 538 461 
L 2662 4544 
L 461 4544 
L 461 4979 
z
" transform="scale(0.015625)"/>
        <path id="STHeiti-ff09" d="M 1120 5267 
Q 1747 4346 1984 3683 
Q 2221 3021 2221 2253 
Q 2221 1485 1961 768 
Q 1702 51 1139 -749 
L 749 -749 
Q 1312 282 1465 912 
Q 1619 1542 1619 2426 
Q 1619 3046 1440 3657 
Q 1261 4269 742 5267 
L 1120 5267 
z
" transform="scale(0.015625)"/>
       </defs>
       <use xlink:href="#STHeiti-6298"/>
       <use xlink:href="#STHeiti-73b0" transform="translate(99.999985 0)"/>
       <use xlink:href="#STHeiti-5230" transform="translate(199.999969 0)"/>
       <use xlink:href="#STHeiti-32" transform="translate(299.999954 0)"/>
       <use xlink:href="#STHeiti-30" transform="translate(355.399948 0)"/>
       <use xlink:href="#STHeiti-32" transform="translate(410.799942 0)"/>
       <use xlink:href="#STHeiti-36" transform="translate(466.199936 0)"/>
       <use xlink:href="#STHeiti-ff08" transform="translate(521.59993 0)"/>
       <use xlink:href="#STHeiti-35" transform="translate(621.599915 0)"/>
       <use xlink:href="#STHeiti-25" transform="translate(676.999908 0)"/>
       <use xlink:href="#STHeiti-2f" transform="translate(754.499893 0)"/>
       <use xlink:href="#STHeiti-5e74" transform="translate(798.19989 0)"/>
       <use xlink:href="#STHeiti-ff0c" transform="translate(898.199875 0)"/>
       <use xlink:href="#STHeiti-60c5" transform="translate(998.19986 0)"/>
       <use xlink:href="#STHeiti-666f" transform="translate(1098.199844 0)"/>
       <use xlink:href="#STHeiti-41" transform="translate(1198.199829 0)"/>
       <use xlink:href="#STHeiti-20" transform="translate(1272.199814 0)"/>
       <use xlink:href="#STHeiti-35" transform="translate(1297.199799 0)"/>
       <use xlink:href="#STHeiti-5e74" transform="translate(1352.599792 0)"/>
       <use xlink:href="#STHeiti-ff0c" transform="translate(1452.599777 0)"/>
       <use xlink:href="#STHeiti-60c5" transform="translate(1552.599762 0)"/>
       <use xlink:href="#STHeiti-666f" transform="translate(1652.599747 0)"/>
       <use xlink:href="#STHeiti-42" transform="translate(1752.599731 0)"/>
       <use xlink:href="#STHeiti-20" transform="translate(1809.999725 0)"/>
       <use xlink:href="#STHeiti-37" transform="translate(1834.99971 0)"/>
       <use xlink:href="#STHeiti-5e74" transform="translate(1890.399704 0)"/>
       <use xlink:href="#STHeiti-ff09" transform="translate(1990.399689 0)"/>
      </g>
     </g>
    </g>
   </g>
   <g id="matplotlib.axis_2">
    <g id="ytick_1">
     <g id="line2d_11">
      <path d="M 25.28125 208.983788 
L 705.61125 208.983788 
" clip-path="url(#p3579464a3f)" style="fill: none; stroke: #b0b0b0; stroke-opacity: 0.3; stroke-width: 0.8; stroke-linecap: square"/>
     </g>
     <g id="line2d_12">
      <defs>
       <path id="me49a3b45b5" d="M 0 0 
L -3.5 0 
" style="stroke: #000000; stroke-width: 0.8"/>
      </defs>
      <g>
       <use xlink:href="#me49a3b45b5" x="25.28125" y="208.983788" style="stroke: #000000; stroke-width: 0.8"/>
      </g>
     </g>
     <g id="text_6">
      <!-- 2 -->
      <g transform="translate(12.740625 212.963476) scale(0.1 -0.1)">
       <use xlink:href="#STHeiti-32"/>
      </g>
     </g>
    </g>
    <g id="ytick_2">
     <g id="line2d_13">
      <path d="M 25.28125 183.401057 
L 705.61125 183.401057 
" clip-path="url(#p3579464a3f)" style="fill: none; stroke: #b0b0b0; stroke-opacity: 0.3; stroke-width: 0.8; stroke-linecap: square"/>
     </g>
     <g id="line2d_14">
      <g>
       <use xlink:href="#me49a3b45b5" x="25.28125" y="183.401057" style="stroke: #000000; stroke-width: 0.8"/>
      </g>
     </g>
     <g id="text_7">
      <!-- 4 -->
      <g transform="translate(12.740625 187.380745) scale(0.1 -0.1)">
       <defs>
        <path id="STHeiti-34" d="M 2726 5094 
L 2816 5094 
L 2816 1894 
L 3373 1894 
L 3373 1453 
L 2816 1453 
L 2816 384 
L 2362 384 
L 2362 1453 
L 160 1453 
L 2726 5094 
z
M 2362 1894 
L 2362 3808 
L 1005 1894 
L 2362 1894 
z
" transform="scale(0.015625)"/>
       </defs>
       <use xlink:href="#STHeiti-34"/>
      </g>
     </g>
    </g>
    <g id="ytick_3">
     <g id="line2d_15">
      <path d="M 25.28125 157.818327 
L 705.61125 157.818327 
" clip-path="url(#p3579464a3f)" style="fill: none; stroke: #b0b0b0; stroke-opacity: 0.3; stroke-width: 0.8; stroke-linecap: square"/>
     </g>
     <g id="line2d_16">
      <g>
       <use xlink:href="#me49a3b45b5" x="25.28125" y="157.818327" style="stroke: #000000; stroke-width: 0.8"/>
      </g>
     </g>
     <g id="text_8">
      <!-- 6 -->
      <g transform="translate(12.740625 161.798014) scale(0.1 -0.1)">
       <use xlink:href="#STHeiti-36"/>
      </g>
     </g>
    </g>
    <g id="ytick_4">
     <g id="line2d_17">
      <path d="M 25.28125 132.235596 
L 705.61125 132.235596 
" clip-path="url(#p3579464a3f)" style="fill: none; stroke: #b0b0b0; stroke-opacity: 0.3; stroke-width: 0.8; stroke-linecap: square"/>
     </g>
     <g id="line2d_18">
      <g>
       <use xlink:href="#me49a3b45b5" x="25.28125" y="132.235596" style="stroke: #000000; stroke-width: 0.8"/>
      </g>
     </g>
     <g id="text_9">
      <!-- 8 -->
      <g transform="translate(12.740625 136.215284) scale(0.1 -0.1)">
       <defs>
        <path id="STHeiti-38" d="M 2458 2906 
Q 3328 2477 3328 1702 
Q 3328 1088 2896 678 
Q 2464 269 1763 269 
Q 1062 269 640 678 
Q 218 1088 218 1664 
Q 218 2470 1107 2906 
Q 435 3264 435 3898 
Q 435 4371 828 4732 
Q 1222 5094 1779 5094 
Q 2336 5094 2726 4742 
Q 3117 4390 3117 3885 
Q 3117 3270 2458 2906 
z
M 2656 3904 
Q 2656 4211 2416 4432 
Q 2176 4653 1789 4653 
Q 1402 4653 1152 4432 
Q 902 4211 902 3897 
Q 902 3584 1174 3337 
Q 1446 3091 1792 3091 
Q 2138 3091 2397 3334 
Q 2656 3578 2656 3904 
z
M 2867 1696 
Q 2867 2086 2550 2380 
Q 2234 2675 1782 2675 
Q 1331 2675 1004 2371 
Q 678 2067 678 1654 
Q 678 1242 979 973 
Q 1280 704 1766 704 
Q 2253 704 2560 992 
Q 2867 1280 2867 1696 
z
" transform="scale(0.015625)"/>
       </defs>
       <use xlink:href="#STHeiti-38"/>
      </g>
     </g>
    </g>
    <g id="ytick_5">
     <g id="line2d_19">
      <path d="M 25.28125 106.652865 
L 705.61125 106.652865 
" clip-path="url(#p3579464a3f)" style="fill: none; stroke: #b0b0b0; stroke-opacity: 0.3; stroke-width: 0.8; stroke-linecap: square"/>
     </g>
     <g id="line2d_20">
      <g>
       <use xlink:href="#me49a3b45b5" x="25.28125" y="106.652865" style="stroke: #000000; stroke-width: 0.8"/>
      </g>
     </g>
     <g id="text_10">
      <!-- 10 -->
      <g transform="translate(7.2 110.632553) scale(0.1 -0.1)">
       <defs>
        <path id="STHeiti-31" d="M 1184 4979 
L 2086 4979 
L 2086 384 
L 1632 384 
L 1632 4531 
L 909 4531 
L 1184 4979 
z
" transform="scale(0.015625)"/>
       </defs>
       <use xlink:href="#STHeiti-31"/>
       <use xlink:href="#STHeiti-30" transform="translate(55.399994 0)"/>
      </g>
     </g>
    </g>
    <g id="ytick_6">
     <g id="line2d_21">
      <path d="M 25.28125 81.070135 
L 705.61125 81.070135 
" clip-path="url(#p3579464a3f)" style="fill: none; stroke: #b0b0b0; stroke-opacity: 0.3; stroke-width: 0.8; stroke-linecap: square"/>
     </g>
     <g id="line2d_22">
      <g>
       <use xlink:href="#me49a3b45b5" x="25.28125" y="81.070135" style="stroke: #000000; stroke-width: 0.8"/>
      </g>
     </g>
     <g id="text_11">
      <!-- 12 -->
      <g transform="translate(7.2 85.049822) scale(0.1 -0.1)">
       <use xlink:href="#STHeiti-31"/>
       <use xlink:href="#STHeiti-32" transform="translate(55.399994 0)"/>
      </g>
     </g>
    </g>
    <g id="ytick_7">
     <g id="line2d_23">
      <path d="M 25.28125 55.487404 
L 705.61125 55.487404 
" clip-path="url(#p3579464a3f)" style="fill: none; stroke: #b0b0b0; stroke-opacity: 0.3; stroke-width: 0.8; stroke-linecap: square"/>
     </g>
     <g id="line2d_24">
      <g>
       <use xlink:href="#me49a3b45b5" x="25.28125" y="55.487404" style="stroke: #000000; stroke-width: 0.8"/>
      </g>
     </g>
     <g id="text_12">
      <!-- 14 -->
      <g transform="translate(7.2 59.467092) scale(0.1 -0.1)">
       <use xlink:href="#STHeiti-31"/>
       <use xlink:href="#STHeiti-34" transform="translate(55.399994 0)"/>
      </g>
     </g>
    </g>
    <g id="ytick_8">
     <g id="line2d_25">
      <path d="M 25.28125 29.904673 
L 705.61125 29.904673 
" clip-path="url(#p3579464a3f)" style="fill: none; stroke: #b0b0b0; stroke-opacity: 0.3; stroke-width: 0.8; stroke-linecap: square"/>
     </g>
     <g id="line2d_26">
      <g>
       <use xlink:href="#me49a3b45b5" x="25.28125" y="29.904673" style="stroke: #000000; stroke-width: 0.8"/>
      </g>
     </g>
     <g id="text_13">
      <!-- 16 -->
      <g transform="translate(7.2 33.884361) scale(0.1 -0.1)">
       <use xlink:href="#STHeiti-31"/>
       <use xlink:href="#STHeiti-36" transform="translate(55.399994 0)"/>
      </g>
     </g>
    </g>
   </g>
   <g id="line2d_27">
    <path d="M 56.205341 17.113308 
L 210.825795 146.66386 
M 674.687159 199.774005 
" clip-path="url(#p3579464a3f)" style="fill: none; stroke: #1a365d; stroke-width: 2; stroke-linecap: square"/>
    <defs>
     <path id="m3ed3a4c011" d="M 0 3 
C 0.795609 3 1.55874 2.683901 2.12132 2.12132 
C 2.683901 1.55874 3 0.795609 3 0 
C 3 -0.795609 2.683901 -1.55874 2.12132 -2.12132 
C 1.55874 -2.683901 0.795609 -3 0 -3 
C -0.795609 -3 -1.55874 -2.683901 -2.12132 -2.12132 
C -2.683901 -1.55874 -3 -0.795609 -3 0 
C -3 0.795609 -2.683901 1.55874 -2.12132 2.12132 
C -1.55874 2.683901 -0.795609 3 0 3 
z
" style="stroke: #1a365d"/>
    </defs>
    <g clip-path="url(#p3579464a3f)">
     <use xlink:href="#m3ed3a4c011" x="56.205341" y="17.113308" style="fill: #1a365d; stroke: #1a365d"/>
     <use xlink:href="#m3ed3a4c011" x="210.825795" y="146.66386" style="fill: #1a365d; stroke: #1a365d"/>
     <use xlink:href="#m3ed3a4c011" x="674.687159" y="199.774005" style="fill: #1a365d; stroke: #1a365d"/>
    </g>
   </g>
   <g id="line2d_28">
    <path d="M 56.205341 215.379471 
L 210.825795 146.663847 
M 674.687159 213.460766 
" clip-path="url(#p3579464a3f)" style="fill: none; stroke: #d69e2e; stroke-width: 2; stroke-linecap: square"/>
    <defs>
     <path id="m1fc4d54b33" d="M 0 3 
C 0.795609 3 1.55874 2.683901 2.12132 2.12132 
C 2.683901 1.55874 3 0.795609 3 0 
C 3 -0.795609 2.683901 -1.55874 2.12132 -2.12132 
C 1.55874 -2.683901 0.795609 -3 0 -3 
C -0.795609 -3 -1.55874 -2.683901 -2.12132 -2.12132 
C -2.683901 -1.55874 -3 -0.795609 -3 0 
C -3 0.795609 -2.683901 1.55874 -2.12132 2.12132 
C -1.55874 2.683901 -0.795609 3 0 3 
z
" style="stroke: #d69e2e"/>
    </defs>
    <g clip-path="url(#p3579464a3f)">
     <use xlink:href="#m1fc4d54b33" x="56.205341" y="215.379471" style="fill: #d69e2e; stroke: #d69e2e"/>
     <use xlink:href="#m1fc4d54b33" x="210.825795" y="146.663847" style="fill: #d69e2e; stroke: #d69e2e"/>
     <use xlink:href="#m1fc4d54b33" x="674.687159" y="213.460766" style="fill: #d69e2e; stroke: #d69e2e"/>
    </g>
   </g>
   <g id="patch_3">
    <path d="M 25.28125 225.292779 
L 25.28125 7.2 
" style="fill: none; stroke: #000000; stroke-width: 0.8; stroke-linejoin: miter; stroke-linecap: square"/>
   </g>
   <g id="patch_4">
    <path d="M 705.61125 225.292779 
L 705.61125 7.2 
" style="fill: none; stroke: #000000; stroke-width: 0.8; stroke-linejoin: miter; stroke-linecap: square"/>
   </g>
   <g id="patch_5">
    <path d="M 25.28125 225.292779 
L 705.61125 225.292779 
" style="fill: none; stroke: #000000; stroke-width: 0.8; stroke-linejoin: miter; stroke-linecap: square"/>
   </g>
   <g id="patch_6">
    <path d="M 25.28125 7.2 
L 705.61125 7.2 
" style="fill: none; stroke: #000000; stroke-width: 0.8; stroke-linejoin: miter; stroke-linecap: square"/>
   </g>
   <g id="legend_1">
    <g id="patch_7">
     <path d="M 593.344687 40.222969 
L 699.31125 40.222969 
Q 701.11125 40.222969 701.11125 38.422969 
L 701.11125 13.5 
Q 701.11125 11.7 699.31125 11.7 
L 593.344687 11.7 
Q 591.544688 11.7 591.544688 13.5 
L 591.544688 38.422969 
Q 591.544688 40.222969 593.344687 40.222969 
z
" style="fill: #ffffff; opacity: 0.8; stroke: #cccccc; stroke-linejoin: miter"/>
    </g>
    <g id="line2d_29">
     <path d="M 595.144688 19.368281 
L 604.144688 19.368281 
L 613.144688 19.368281 
" style="fill: none; stroke: #1a365d; stroke-width: 2; stroke-linecap: square"/>
     <g>
      <use xlink:href="#m3ed3a4c011" x="604.144688" y="19.368281" style="fill: #1a365d; stroke: #1a365d"/>
     </g>
    </g>
    <g id="text_14">
     <!-- 情景A：天保入主 -->
     <g transform="translate(620.344688 22.518281) scale(0.09 -0.09)">
      <defs>
       <path id="STHeiti-ff1a" d="M 1926 3008 
L 1261 3008 
L 1261 3686 
L 1926 3686 
L 1926 3008 
z
M 1926 384 
L 1261 384 
L 1261 1062 
L 1926 1062 
L 1926 384 
z
" transform="scale(0.015625)"/>
       <path id="STHeiti-5929" d="M 2893 4218 
Q 1722 4211 1011 4160 
L 1011 4749 
Q 1741 4704 3152 4704 
Q 4563 4704 5338 4762 
L 5338 4160 
Q 4640 4211 3501 4218 
Q 3482 3443 3418 2886 
Q 4922 2886 5792 2944 
L 5792 2317 
Q 4966 2368 3603 2374 
Q 3904 1421 4547 845 
Q 5190 269 6042 198 
Q 5664 -90 5536 -474 
Q 3571 250 3290 2125 
Q 3053 1075 2464 432 
Q 1875 -211 800 -589 
Q 653 -320 358 -83 
Q 1466 250 2016 816 
Q 2566 1382 2752 2374 
Q 1421 2368 608 2317 
L 608 2931 
Q 1600 2886 2829 2886 
Q 2893 3539 2893 4218 
z
" transform="scale(0.015625)"/>
       <path id="STHeiti-4fdd" d="M 1638 3872 
L 1638 -557 
L 1075 -557 
Q 1146 19 1146 826 
L 1146 2899 
Q 883 2438 614 2042 
Q 480 2266 230 2451 
Q 685 2848 1040 3702 
Q 1395 4557 1453 5133 
Q 1747 5011 2061 4947 
Q 2170 4928 2170 4880 
Q 2170 4832 2067 4755 
Q 1990 4691 1638 3872 
z
M 4186 2253 
Q 5197 2259 5894 2310 
L 5894 1818 
Q 5299 1869 4493 1875 
Q 4826 1261 5197 960 
Q 5568 659 6246 506 
Q 5984 282 5798 -109 
Q 4646 416 4224 1875 
L 4186 1875 
L 4186 474 
Q 4186 45 4250 -550 
L 3629 -550 
Q 3686 -51 3686 474 
L 3686 1875 
L 3654 1875 
Q 3450 1222 3142 748 
Q 2835 275 2272 -256 
Q 2086 -64 1754 83 
Q 2861 902 3270 1869 
Q 2598 1862 1978 1818 
L 1978 2310 
Q 2675 2259 3686 2253 
L 3686 3040 
Q 2918 3040 2560 3014 
Q 2586 3309 2586 3945 
Q 2586 4582 2560 4909 
Q 2925 4870 3926 4870 
Q 4928 4870 5446 4909 
Q 5421 4582 5421 3961 
Q 5421 3341 5446 3014 
Q 5197 3040 4186 3040 
L 4186 2253 
z
M 3078 4448 
L 3078 3450 
L 4922 3450 
L 4922 4448 
L 3078 4448 
z
" transform="scale(0.015625)"/>
       <path id="STHeiti-5165" d="M 2893 3898 
Q 2470 4429 1984 4698 
L 2426 5133 
Q 3078 4608 3385 4150 
Q 3693 3693 3936 2938 
Q 4326 1722 4784 1210 
Q 5242 698 6074 326 
Q 5741 58 5549 -314 
Q 4768 218 4355 794 
Q 3942 1370 3571 2605 
Q 3456 2982 3264 3341 
Q 2938 2029 2317 1126 
Q 1696 224 986 -307 
Q 742 -26 422 102 
Q 1466 736 2086 1808 
Q 2707 2880 2893 3898 
z
" transform="scale(0.015625)"/>
       <path id="STHeiti-4e3b" d="M 3795 4582 
L 3155 4282 
Q 2963 4723 2694 5062 
L 3315 5325 
Q 3635 4883 3795 4582 
z
M 3520 416 
Q 5030 422 5837 480 
L 5837 -166 
Q 4960 -102 3225 -102 
Q 1491 -102 614 -166 
L 614 480 
Q 1421 422 2925 416 
L 2925 1971 
Q 1805 1965 1171 1907 
L 1171 2502 
Q 1805 2445 2925 2438 
L 2925 3706 
Q 1645 3699 941 3642 
L 941 4250 
Q 1722 4186 3245 4186 
Q 4768 4186 5549 4250 
L 5549 3642 
Q 4838 3699 3520 3706 
L 3520 2438 
Q 4608 2445 5229 2502 
L 5229 1907 
Q 4608 1965 3520 1971 
L 3520 416 
z
" transform="scale(0.015625)"/>
      </defs>
      <use xlink:href="#STHeiti-60c5"/>
      <use xlink:href="#STHeiti-666f" transform="translate(99.999985 0)"/>
      <use xlink:href="#STHeiti-41" transform="translate(199.999969 0)"/>
      <use xlink:href="#STHeiti-ff1a" transform="translate(273.999954 0)"/>
      <use xlink:href="#STHeiti-5929" transform="translate(373.999939 0)"/>
      <use xlink:href="#STHeiti-4fdd" transform="translate(473.999924 0)"/>
      <use xlink:href="#STHeiti-5165" transform="translate(573.999908 0)"/>
      <use xlink:href="#STHeiti-4e3b" transform="translate(673.999893 0)"/>
     </g>
    </g>
    <g id="line2d_30">
     <path d="M 595.144688 32.266406 
L 604.144688 32.266406 
L 613.144688 32.266406 
" style="fill: none; stroke: #d69e2e; stroke-width: 2; stroke-linecap: square"/>
     <g>
      <use xlink:href="#m1fc4d54b33" x="604.144688" y="32.266406" style="fill: #d69e2e; stroke: #d69e2e"/>
     </g>
    </g>
    <g id="text_15">
     <!-- 情景B：天保不参与 -->
     <g transform="translate(620.344688 35.416406) scale(0.09 -0.09)">
      <defs>
       <path id="STHeiti-4e0d" d="M 3354 4256 
Q 1331 4256 538 4198 
L 538 4787 
Q 1453 4723 3293 4723 
Q 5133 4723 6048 4787 
L 6048 4198 
Q 5427 4243 3987 4256 
Q 3795 3808 3520 3379 
L 3520 461 
Q 3520 -166 3578 -640 
L 2867 -640 
Q 2925 -166 2925 461 
L 2925 2573 
Q 2106 1619 883 762 
Q 659 1107 352 1312 
Q 2483 2246 3354 4256 
z
M 6048 1325 
L 5485 890 
Q 4755 1978 3898 2682 
L 4390 3046 
Q 5254 2240 6048 1325 
z
" transform="scale(0.015625)"/>
       <path id="STHeiti-53c2" d="M 4378 4051 
Q 4102 4282 3750 4550 
L 4154 4800 
Q 4915 4256 5363 3846 
L 4960 3462 
Q 4845 3610 4736 3718 
L 3110 3693 
Q 2950 3386 2797 3142 
L 4134 3142 
Q 5453 3142 5958 3200 
L 5958 2701 
Q 5389 2752 4390 2758 
Q 4710 2387 5107 2182 
Q 5504 1978 6112 1856 
Q 5978 1728 5859 1549 
Q 5741 1370 5734 1286 
Q 4461 1786 3930 2758 
L 2534 2758 
Q 1933 1946 787 1254 
Q 672 1402 410 1651 
Q 1421 2080 2003 2758 
Q 1210 2752 518 2701 
L 518 3200 
Q 1101 3142 2272 3142 
Q 2490 3514 2541 3680 
Q 1798 3654 1363 3597 
Q 1312 3878 1216 4083 
Q 1626 4166 1843 4323 
Q 2061 4480 2352 4793 
Q 2643 5107 2714 5306 
Q 3123 5062 3270 5030 
Q 3418 4998 3418 4960 
Q 3418 4922 3245 4845 
Q 3072 4768 2694 4467 
Q 2317 4166 2061 4051 
L 4378 4051 
z
M 3386 2541 
Q 3565 2336 3776 2234 
Q 3859 2195 3859 2150 
Q 3859 2106 3747 2106 
Q 3635 2106 3168 1798 
Q 2822 1574 2579 1456 
Q 2336 1338 1766 1120 
Q 1632 1318 1466 1472 
Q 1952 1606 2502 1913 
Q 3053 2221 3386 2541 
z
M 4115 1965 
Q 4192 1798 4461 1677 
Q 4538 1645 4538 1600 
Q 4538 1536 4416 1536 
Q 4397 1536 4205 1408 
Q 4013 1280 3878 1165 
Q 3526 883 2828 598 
Q 2131 314 1645 256 
Q 1536 480 1299 672 
Q 2867 787 4115 1965 
z
M 4806 1402 
Q 5005 1229 5216 1107 
Q 5286 1069 5286 1014 
Q 5286 960 5171 941 
Q 5094 934 4668 572 
Q 4243 211 3827 -13 
Q 3411 -237 2803 -397 
Q 2195 -557 1261 -666 
Q 1216 -422 998 -205 
Q 2208 -154 3075 169 
Q 3942 493 4806 1402 
z
" transform="scale(0.015625)"/>
       <path id="STHeiti-4e0e" d="M 2048 3840 
Q 2022 3373 2010 2829 
L 3962 2829 
Q 4973 2829 5504 2906 
Q 5472 2381 5392 1517 
Q 5312 653 5273 384 
Q 5235 115 5161 -61 
Q 5088 -237 4944 -339 
Q 4800 -442 4553 -499 
Q 4307 -557 3853 -608 
Q 3789 -243 3584 45 
Q 3910 13 4058 13 
Q 4403 13 4556 185 
Q 4710 358 4771 812 
Q 4832 1267 4883 2362 
L 3040 2362 
Q 2221 2362 1427 2285 
Q 1517 2989 1517 4314 
Q 1517 4902 1485 5171 
Q 1715 5088 2208 5088 
Q 2266 5088 2266 5056 
Q 2266 5024 2214 4960 
Q 2163 4896 2093 4307 
L 3802 4307 
Q 4973 4307 5683 4371 
L 5683 3776 
Q 4909 3840 3802 3840 
L 2048 3840 
z
M 4269 838 
Q 3475 896 2368 896 
Q 1261 896 608 838 
L 608 1440 
Q 1165 1389 2371 1389 
Q 3578 1389 4269 1459 
L 4269 838 
z
" transform="scale(0.015625)"/>
      </defs>
      <use xlink:href="#STHeiti-60c5"/>
      <use xlink:href="#STHeiti-666f" transform="translate(99.999985 0)"/>
      <use xlink:href="#STHeiti-42" transform="translate(199.999969 0)"/>
      <use xlink:href="#STHeiti-ff1a" transform="translate(257.399963 0)"/>
      <use xlink:href="#STHeiti-5929" transform="translate(357.399948 0)"/>
      <use xlink:href="#STHeiti-4fdd" transform="translate(457.399933 0)"/>
      <use xlink:href="#STHeiti-4e0d" transform="translate(557.399918 0)"/>
      <use xlink:href="#STHeiti-53c2" transform="translate(657.399902 0)"/>
      <use xlink:href="#STHeiti-4e0e" transform="translate(757.399887 0)"/>
     </g>
    </g>
   </g>
  </g>
 </g>
 <defs>
  <clipPath id="p3579464a3f">
   <rect x="25.28125" y="7.2" width="680.33" height="218.092779"/>
  </clipPath>
 </defs>
</svg>
