<?xml version="1.0" encoding="utf-8" standalone="no"?>
<!DOCTYPE svg PUBLIC "-//W3C//DTD SVG 1.1//EN"
  "http://www.w3.org/Graphics/SVG/1.1/DTD/svg11.dtd">
<svg xmlns:xlink="http://www.w3.org/1999/xlink" width="707.606726pt" height="351.456152pt" viewBox="0 0 707.606726 351.456152" xmlns="http://www.w3.org/2000/svg" version="1.1">
 <metadata>
  <rdf:RDF xmlns:dc="http://purl.org/dc/elements/1.1/" xmlns:cc="http://creativecommons.org/ns#" xmlns:rdf="http://www.w3.org/1999/02/22-rdf-syntax-ns#">
   <cc:Work>
    <dc:type rdf:resource="http://purl.org/dc/dcmitype/StillImage"/>
    <dc:date>2026-06-05T11:42:04.169552</dc:date>
    <dc:format>image/svg+xml</dc:format>
    <dc:creator>
     <cc:Agent>
      <dc:title>Matplotlib v3.10.9, https://matplotlib.org/</dc:title>
     </cc:Agent>
    </dc:creator>
   </cc:Work>
  </rdf:RDF>
 </metadata>
 <defs>
  <style type="text/css">*{stroke-linejoin: round; stroke-linecap: butt}</style>
 </defs>
 <g id="figure_1">
  <g id="patch_1">
   <path d="M 0 351.456152 
L 707.606726 351.456152 
L 707.606726 0 
L 0 0 
z
" style="fill: #ffffff"/>
  </g>
  <g id="axes_1">
   <g id="patch_2">
    <path d="M 34.216191 268.936671 
L 700.406726 268.936671 
L 700.406726 18.159375 
L 34.216191 18.159375 
z
" style="fill: #fafafa"/>
   </g>
   <g id="matplotlib.axis_1">
    <g id="xtick_1">
     <g id="line2d_1">
      <path d="M 64.497579 268.936671 
L 64.497579 18.159375 
" clip-path="url(#pf5037ec570)" style="fill: none; stroke: #b0b0b0; stroke-opacity: 0.3; stroke-width: 0.8; stroke-linecap: square"/>
     </g>
     <g id="line2d_2">
      <defs>
       <path id="m442f8f9758" d="M 0 0 
L 0 3.5 
" style="stroke: #000000; stroke-width: 0.8"/>
      </defs>
      <g>
       <use xlink:href="#m442f8f9758" x="64.497579" y="268.936671" style="stroke: #000000; stroke-width: 0.8"/>
      </g>
     </g>
     <g id="text_1">
      <!-- FY2025E 营收 -->
      <g transform="translate(11.179688 313.225785) rotate(-30) scale(0.1 -0.1)">
       <defs>
        <path id="STHeiti-46" d="M 557 4979 
L 2861 4979 
L 2861 4525 
L 1018 4525 
L 1018 3091 
L 2861 3091 
L 2861 2637 
L 1018 2637 
L 1018 384 
L 557 384 
L 557 4979 
z
" transform="scale(0.015625)"/>
        <path id="STHeiti-59" d="M 198 4979 
L 730 4979 
L 1901 3085 
L 3059 4979 
L 3590 4979 
L 2131 2579 
L 2131 384 
L 1683 384 
L 1683 2579 
L 198 4979 
z
" transform="scale(0.015625)"/>
        <path id="STHeiti-32" d="M 742 3539 
L 301 3539 
Q 333 4243 768 4668 
Q 1203 5094 1820 5094 
Q 2438 5094 2844 4694 
Q 3251 4294 3251 3718 
Q 3251 3290 3024 2925 
Q 2797 2560 2336 2061 
L 1190 826 
L 3315 826 
L 3315 384 
L 192 384 
L 1946 2278 
Q 2406 2778 2604 3066 
Q 2803 3354 2803 3725 
Q 2803 4096 2512 4377 
Q 2221 4659 1789 4659 
Q 1357 4659 1072 4368 
Q 787 4077 742 3539 
z
" transform="scale(0.015625)"/>
        <path id="STHeiti-30" d="M 1747 269 
Q 1005 269 605 880 
Q 205 1491 205 2681 
Q 205 3872 605 4483 
Q 1005 5094 1741 5094 
Q 2477 5094 2909 4470 
Q 3341 3846 3341 2681 
Q 3341 1517 2905 893 
Q 2470 269 1747 269 
z
M 1760 4659 
Q 1229 4659 934 4147 
Q 640 3635 640 2669 
Q 640 685 1760 685 
Q 2304 685 2608 1206 
Q 2912 1728 2912 2681 
Q 2912 3635 2598 4147 
Q 2285 4659 1760 4659 
z
" transform="scale(0.015625)"/>
        <path id="STHeiti-35" d="M 3149 4979 
L 3149 4544 
L 1510 4544 
L 1280 3290 
Q 1587 3379 1856 3379 
Q 2458 3379 2861 2953 
Q 3264 2528 3264 1862 
Q 3264 1197 2825 733 
Q 2387 269 1664 269 
Q 1114 269 726 598 
Q 339 928 262 1498 
L 730 1498 
Q 813 1114 1075 909 
Q 1338 704 1683 704 
Q 2138 704 2467 1043 
Q 2797 1382 2797 1888 
Q 2797 2349 2509 2646 
Q 2221 2944 1757 2944 
Q 1293 2944 730 2701 
L 1158 4979 
L 3149 4979 
z
" transform="scale(0.015625)"/>
        <path id="STHeiti-45" d="M 563 4979 
L 3200 4979 
L 3200 4525 
L 1024 4525 
L 1024 3091 
L 3181 3091 
L 3181 2643 
L 1024 2643 
L 1024 838 
L 3181 838 
L 3181 384 
L 563 384 
L 563 4979 
z
" transform="scale(0.015625)"/>
        <path id="STHeiti-20" transform="scale(0.015625)"/>
        <path id="STHeiti-8425" d="M 4282 3693 
Q 5274 3706 5856 3731 
L 5856 2662 
L 5344 2662 
L 5344 3277 
L 1082 3277 
L 1082 2624 
L 570 2624 
L 570 3731 
Q 1082 3699 2106 3693 
L 2106 4218 
Q 1056 4205 467 4160 
L 467 4666 
Q 1133 4614 2106 4614 
Q 2099 4973 2054 5178 
Q 2387 5133 2650 5133 
Q 2733 5133 2733 5101 
Q 2733 5069 2681 5037 
Q 2630 5005 2617 4979 
Q 2605 4954 2605 4890 
L 2605 4614 
L 3782 4614 
Q 3776 4947 3738 5171 
Q 4019 5133 4326 5133 
Q 4410 5133 4410 5101 
Q 4410 5069 4358 5037 
Q 4307 5005 4294 4979 
Q 4282 4954 4282 4890 
L 4282 4614 
Q 5299 4614 5965 4666 
L 5965 4160 
Q 5344 4218 4282 4218 
L 4282 3693 
z
M 2605 3693 
L 3782 3693 
L 3782 4218 
L 2605 4218 
L 2605 3693 
z
M 4794 1568 
Q 4230 1587 3270 1587 
Q 2310 1587 1587 1562 
Q 1619 1773 1619 2176 
Q 1619 2579 1587 2874 
Q 2086 2848 3190 2848 
Q 4294 2848 4794 2874 
Q 4774 2611 4774 2217 
Q 4774 1824 4794 1568 
z
M 4269 1971 
L 4269 2464 
L 2118 2464 
L 2118 1971 
L 4269 1971 
z
M 4698 -109 
L 1722 -109 
L 1722 -576 
L 1152 -576 
Q 1197 -333 1197 -64 
L 1197 890 
Q 1197 1037 1158 1197 
Q 1350 1184 3235 1184 
Q 5120 1184 5280 1197 
Q 5248 1082 5248 890 
L 5248 0 
Q 5248 -269 5293 -512 
L 4698 -512 
L 4698 -109 
z
M 1722 288 
L 4698 288 
L 4698 794 
L 1722 794 
L 1722 288 
z
" transform="scale(0.015625)"/>
        <path id="STHeiti-6536" d="M 1824 1664 
L 1824 4230 
Q 1824 4998 1773 5190 
Q 2003 5146 2413 5146 
Q 2522 5146 2522 5107 
Q 2522 5069 2435 5017 
Q 2349 4966 2349 4544 
L 2349 563 
Q 2349 26 2413 -589 
L 1766 -589 
Q 1824 6 1824 563 
L 1824 1197 
L 1082 992 
Q 826 922 614 762 
Q 512 1030 352 1293 
Q 608 1440 608 1722 
L 608 3539 
Q 608 4115 582 4282 
Q 806 4243 973 4243 
L 1171 4250 
Q 1261 4250 1261 4211 
Q 1261 4173 1203 4141 
Q 1082 4083 1082 3968 
L 1082 1510 
L 1824 1664 
z
M 4224 1286 
Q 4685 1984 4781 3462 
L 3629 3462 
Q 3226 2547 2970 2157 
Q 2733 2317 2522 2387 
Q 2906 2918 3203 3712 
Q 3501 4506 3565 5146 
Q 3981 5005 4250 4966 
Q 4326 4954 4326 4922 
Q 4326 4890 4278 4851 
Q 4230 4813 4150 4653 
Q 4070 4493 3821 3917 
L 5120 3917 
Q 5747 3917 5971 3974 
L 5971 3424 
Q 5754 3462 5318 3462 
Q 5178 1722 4576 896 
Q 5178 365 6061 173 
Q 5734 -134 5664 -493 
Q 4845 -115 4237 518 
Q 3699 -115 2899 -499 
Q 2790 -262 2483 -64 
Q 3213 173 3898 883 
Q 3450 1466 3315 2675 
L 3744 2810 
Q 3814 1888 4224 1286 
z
" transform="scale(0.015625)"/>
       </defs>
       <use xlink:href="#STHeiti-46"/>
       <use xlink:href="#STHeiti-59" transform="translate(48.499985 0)"/>
       <use xlink:href="#STHeiti-32" transform="translate(107.699982 0)"/>
       <use xlink:href="#STHeiti-30" transform="translate(163.099976 0)"/>
       <use xlink:href="#STHeiti-32" transform="translate(218.499969 0)"/>
       <use xlink:href="#STHeiti-35" transform="translate(273.899963 0)"/>
       <use xlink:href="#STHeiti-45" transform="translate(329.299957 0)"/>
       <use xlink:href="#STHeiti-20" transform="translate(382.899948 0)"/>
       <use xlink:href="#STHeiti-8425" transform="translate(407.899933 0)"/>
       <use xlink:href="#STHeiti-6536" transform="translate(507.899918 0)"/>
      </g>
     </g>
    </g>
    <g id="xtick_2">
     <g id="line2d_3">
      <path d="M 119.554648 268.936671 
L 119.554648 18.159375 
" clip-path="url(#pf5037ec570)" style="fill: none; stroke: #b0b0b0; stroke-opacity: 0.3; stroke-width: 0.8; stroke-linecap: square"/>
     </g>
     <g id="line2d_4">
      <g>
       <use xlink:href="#m442f8f9758" x="119.554648" y="268.936671" style="stroke: #000000; stroke-width: 0.8"/>
      </g>
     </g>
     <g id="text_2">
      <!-- FY2025E 净利 -->
      <g transform="translate(66.236757 313.312388) rotate(-30) scale(0.1 -0.1)">
       <defs>
        <path id="STHeiti-51c0" d="M 5510 2010 
L 5510 1325 
Q 5510 781 5549 550 
L 4986 550 
L 4986 934 
L 3878 934 
L 3878 -147 
Q 3878 -339 3795 -441 
Q 3712 -544 3478 -601 
Q 3245 -659 2758 -710 
Q 2765 -384 2630 -90 
Q 2944 -115 3094 -115 
Q 3245 -115 3289 -70 
Q 3334 -26 3334 115 
L 3334 934 
Q 2163 934 1926 909 
L 1926 1389 
Q 2272 1357 3334 1357 
L 3334 2016 
Q 2490 2016 1754 1965 
L 1754 2496 
Q 2381 2451 3334 2451 
L 3334 3110 
Q 2771 3104 2387 3046 
L 2387 3533 
Q 2816 3514 3661 3514 
L 4205 4224 
L 2874 4224 
Q 2470 3680 1939 3046 
Q 1786 3200 1530 3270 
Q 2362 4109 2842 5306 
Q 3187 5184 3526 5133 
Q 3610 5120 3610 5078 
Q 3610 5037 3530 5014 
Q 3450 4992 3174 4634 
L 4058 4634 
Q 4659 4634 5101 4691 
L 4243 3514 
Q 5306 3520 5536 3558 
Q 5510 3251 5510 2675 
L 5510 2470 
L 6131 2509 
L 6131 1984 
Q 5920 1997 5510 2010 
z
M 4986 2451 
L 4986 3110 
L 3878 3110 
L 3878 2451 
L 4986 2451 
z
M 4986 1357 
L 4986 2016 
L 3878 2016 
L 3878 1357 
L 4986 1357 
z
M 1523 3693 
L 1011 3392 
Q 806 3942 448 4454 
L 909 4762 
Q 1325 4096 1523 3693 
z
M 1613 2080 
Q 1254 1242 819 -70 
Q 595 230 211 365 
Q 410 646 691 1299 
Q 973 1952 1088 2400 
Q 1293 2170 1613 2080 
z
" transform="scale(0.015625)"/>
        <path id="STHeiti-5229" d="M 4909 5165 
Q 5165 5107 5555 5107 
Q 5645 5107 5645 5065 
Q 5645 5024 5577 4976 
Q 5510 4928 5510 4768 
L 5510 198 
Q 5510 -90 5433 -227 
Q 5357 -365 5120 -445 
Q 4883 -525 4352 -595 
Q 4333 -275 4070 64 
Q 4269 51 4483 51 
Q 4698 51 4826 112 
Q 4954 173 4954 435 
L 4954 4109 
Q 4954 4826 4909 5165 
z
M 1658 2016 
Q 1325 1210 730 422 
Q 550 698 307 909 
Q 1267 1837 1594 2880 
Q 742 2867 410 2835 
L 410 3392 
Q 749 3354 1658 3341 
L 1658 4218 
Q 1120 4134 685 4096 
Q 621 4320 442 4576 
Q 864 4576 1561 4688 
Q 2259 4800 2912 5011 
Q 2970 4851 3072 4697 
Q 3174 4544 3244 4489 
Q 3315 4435 3315 4403 
Q 3315 4352 3244 4365 
Q 3174 4378 3091 4378 
Q 2778 4378 2182 4301 
L 2182 3341 
Q 3066 3354 3386 3392 
L 3386 2835 
Q 3040 2867 2182 2880 
L 2182 525 
Q 2182 90 2227 -576 
L 1587 -576 
Q 1658 128 1658 525 
L 1658 2016 
z
M 3725 4186 
Q 3968 4134 4326 4134 
Q 4403 4134 4403 4099 
Q 4403 4064 4345 4029 
Q 4288 3994 4288 3834 
L 4288 1766 
Q 4288 1357 4314 966 
L 3725 966 
Q 3750 1382 3750 1766 
L 3750 3482 
Q 3750 3968 3725 4186 
z
M 3322 1485 
L 2874 1165 
Q 2630 1613 2227 2176 
L 2605 2458 
Q 2957 1933 3322 1485 
z
" transform="scale(0.015625)"/>
       </defs>
       <use xlink:href="#STHeiti-46"/>
       <use xlink:href="#STHeiti-59" transform="translate(48.499985 0)"/>
       <use xlink:href="#STHeiti-32" transform="translate(107.699982 0)"/>
       <use xlink:href="#STHeiti-30" transform="translate(163.099976 0)"/>
       <use xlink:href="#STHeiti-32" transform="translate(218.499969 0)"/>
       <use xlink:href="#STHeiti-35" transform="translate(273.899963 0)"/>
       <use xlink:href="#STHeiti-45" transform="translate(329.299957 0)"/>
       <use xlink:href="#STHeiti-20" transform="translate(382.899948 0)"/>
       <use xlink:href="#STHeiti-51c0" transform="translate(407.899933 0)"/>
       <use xlink:href="#STHeiti-5229" transform="translate(507.899918 0)"/>
      </g>
     </g>
    </g>
    <g id="xtick_3">
     <g id="line2d_5">
      <path d="M 174.611717 268.936671 
L 174.611717 18.159375 
" clip-path="url(#pf5037ec570)" style="fill: none; stroke: #b0b0b0; stroke-opacity: 0.3; stroke-width: 0.8; stroke-linecap: square"/>
     </g>
     <g id="line2d_6">
      <g>
       <use xlink:href="#m442f8f9758" x="174.611717" y="268.936671" style="stroke: #000000; stroke-width: 0.8"/>
      </g>
     </g>
     <g id="text_3">
      <!-- FY2026E 营收 -->
      <g transform="translate(121.293826 313.225785) rotate(-30) scale(0.1 -0.1)">
       <defs>
        <path id="STHeiti-36" d="M 2349 5094 
L 2726 4851 
L 1485 2970 
Q 1747 3059 1984 3059 
Q 2496 3059 2880 2652 
Q 3264 2246 3264 1660 
Q 3264 1075 2845 672 
Q 2426 269 1827 269 
Q 1229 269 829 678 
Q 429 1088 429 1677 
Q 429 1958 537 2256 
Q 646 2554 954 3014 
L 2349 5094 
z
M 2810 1683 
Q 2810 2086 2528 2368 
Q 2246 2650 1843 2650 
Q 1440 2650 1158 2368 
Q 877 2086 877 1683 
Q 877 1280 1161 998 
Q 1446 717 1843 717 
Q 2240 717 2525 998 
Q 2810 1280 2810 1683 
z
" transform="scale(0.015625)"/>
       </defs>
       <use xlink:href="#STHeiti-46"/>
       <use xlink:href="#STHeiti-59" transform="translate(48.499985 0)"/>
       <use xlink:href="#STHeiti-32" transform="translate(107.699982 0)"/>
       <use xlink:href="#STHeiti-30" transform="translate(163.099976 0)"/>
       <use xlink:href="#STHeiti-32" transform="translate(218.499969 0)"/>
       <use xlink:href="#STHeiti-36" transform="translate(273.899963 0)"/>
       <use xlink:href="#STHeiti-45" transform="translate(329.299957 0)"/>
       <use xlink:href="#STHeiti-20" transform="translate(382.899948 0)"/>
       <use xlink:href="#STHeiti-8425" transform="translate(407.899933 0)"/>
       <use xlink:href="#STHeiti-6536" transform="translate(507.899918 0)"/>
      </g>
     </g>
    </g>
    <g id="xtick_4">
     <g id="line2d_7">
      <path d="M 229.668786 268.936671 
L 229.668786 18.159375 
" clip-path="url(#pf5037ec570)" style="fill: none; stroke: #b0b0b0; stroke-opacity: 0.3; stroke-width: 0.8; stroke-linecap: square"/>
     </g>
     <g id="line2d_8">
      <g>
       <use xlink:href="#m442f8f9758" x="229.668786" y="268.936671" style="stroke: #000000; stroke-width: 0.8"/>
      </g>
     </g>
     <g id="text_4">
      <!-- FY2026E 净利 -->
      <g transform="translate(176.350895 313.312388) rotate(-30) scale(0.1 -0.1)">
       <use xlink:href="#STHeiti-46"/>
       <use xlink:href="#STHeiti-59" transform="translate(48.499985 0)"/>
       <use xlink:href="#STHeiti-32" transform="translate(107.699982 0)"/>
       <use xlink:href="#STHeiti-30" transform="translate(163.099976 0)"/>
       <use xlink:href="#STHeiti-32" transform="translate(218.499969 0)"/>
       <use xlink:href="#STHeiti-36" transform="translate(273.899963 0)"/>
       <use xlink:href="#STHeiti-45" transform="translate(329.299957 0)"/>
       <use xlink:href="#STHeiti-20" transform="translate(382.899948 0)"/>
       <use xlink:href="#STHeiti-51c0" transform="translate(407.899933 0)"/>
       <use xlink:href="#STHeiti-5229" transform="translate(507.899918 0)"/>
      </g>
     </g>
    </g>
    <g id="xtick_5">
     <g id="line2d_9">
      <path d="M 284.725855 268.936671 
L 284.725855 18.159375 
" clip-path="url(#pf5037ec570)" style="fill: none; stroke: #b0b0b0; stroke-opacity: 0.3; stroke-width: 0.8; stroke-linecap: square"/>
     </g>
     <g id="line2d_10">
      <g>
       <use xlink:href="#m442f8f9758" x="284.725855" y="268.936671" style="stroke: #000000; stroke-width: 0.8"/>
      </g>
     </g>
     <g id="text_5">
      <!-- FY2030E 营收 -->
      <g transform="translate(231.407964 313.225785) rotate(-30) scale(0.1 -0.1)">
       <defs>
        <path id="STHeiti-33" d="M 845 3917 
L 378 3917 
Q 506 4486 867 4790 
Q 1229 5094 1750 5094 
Q 2272 5094 2659 4748 
Q 3046 4403 3046 3910 
Q 3046 3315 2458 2970 
Q 2861 2803 3081 2473 
Q 3302 2144 3302 1754 
Q 3302 1146 2857 707 
Q 2413 269 1734 269 
Q 1133 269 742 611 
Q 352 954 224 1613 
L 672 1613 
Q 794 1158 1046 937 
Q 1299 717 1760 717 
Q 2221 717 2534 1011 
Q 2848 1306 2848 1741 
Q 2848 2176 2502 2441 
Q 2157 2707 1498 2720 
L 1498 3142 
Q 1971 3142 2268 3360 
Q 2566 3578 2566 3901 
Q 2566 4224 2326 4438 
Q 2086 4653 1747 4653 
Q 1408 4653 1200 4470 
Q 992 4288 845 3917 
z
" transform="scale(0.015625)"/>
       </defs>
       <use xlink:href="#STHeiti-46"/>
       <use xlink:href="#STHeiti-59" transform="translate(48.499985 0)"/>
       <use xlink:href="#STHeiti-32" transform="translate(107.699982 0)"/>
       <use xlink:href="#STHeiti-30" transform="translate(163.099976 0)"/>
       <use xlink:href="#STHeiti-33" transform="translate(218.499969 0)"/>
       <use xlink:href="#STHeiti-30" transform="translate(273.899963 0)"/>
       <use xlink:href="#STHeiti-45" transform="translate(329.299957 0)"/>
       <use xlink:href="#STHeiti-20" transform="translate(382.899948 0)"/>
       <use xlink:href="#STHeiti-8425" transform="translate(407.899933 0)"/>
       <use xlink:href="#STHeiti-6536" transform="translate(507.899918 0)"/>
      </g>
     </g>
    </g>
    <g id="xtick_6">
     <g id="line2d_11">
      <path d="M 339.782924 268.936671 
L 339.782924 18.159375 
" clip-path="url(#pf5037ec570)" style="fill: none; stroke: #b0b0b0; stroke-opacity: 0.3; stroke-width: 0.8; stroke-linecap: square"/>
     </g>
     <g id="line2d_12">
      <g>
       <use xlink:href="#m442f8f9758" x="339.782924" y="268.936671" style="stroke: #000000; stroke-width: 0.8"/>
      </g>
     </g>
     <g id="text_6">
      <!-- FY2030E 净利 -->
      <g transform="translate(286.465033 313.312388) rotate(-30) scale(0.1 -0.1)">
       <use xlink:href="#STHeiti-46"/>
       <use xlink:href="#STHeiti-59" transform="translate(48.499985 0)"/>
       <use xlink:href="#STHeiti-32" transform="translate(107.699982 0)"/>
       <use xlink:href="#STHeiti-30" transform="translate(163.099976 0)"/>
       <use xlink:href="#STHeiti-33" transform="translate(218.499969 0)"/>
       <use xlink:href="#STHeiti-30" transform="translate(273.899963 0)"/>
       <use xlink:href="#STHeiti-45" transform="translate(329.299957 0)"/>
       <use xlink:href="#STHeiti-20" transform="translate(382.899948 0)"/>
       <use xlink:href="#STHeiti-51c0" transform="translate(407.899933 0)"/>
       <use xlink:href="#STHeiti-5229" transform="translate(507.899918 0)"/>
      </g>
     </g>
    </g>
    <g id="xtick_7">
     <g id="line2d_13">
      <path d="M 394.839993 268.936671 
L 394.839993 18.159375 
" clip-path="url(#pf5037ec570)" style="fill: none; stroke: #b0b0b0; stroke-opacity: 0.3; stroke-width: 0.8; stroke-linecap: square"/>
     </g>
     <g id="line2d_14">
      <g>
       <use xlink:href="#m442f8f9758" x="394.839993" y="268.936671" style="stroke: #000000; stroke-width: 0.8"/>
      </g>
     </g>
     <g id="text_7">
      <!-- 新增产能规划 -->
      <g transform="translate(342.208156 312.890584) rotate(-30) scale(0.1 -0.1)">
       <defs>
        <path id="STHeiti-65b0" d="M 1888 4506 
Q 1792 4832 1696 5062 
L 2272 5178 
Q 2368 4762 2432 4506 
Q 3027 4525 3373 4570 
L 3373 4026 
Q 2880 4096 2025 4096 
Q 1171 4096 666 4026 
L 666 4570 
Q 1082 4512 1888 4506 
z
M 4269 3072 
L 5101 3072 
Q 5760 3072 6048 3149 
L 6048 2547 
Q 5760 2618 5370 2630 
L 5370 371 
Q 5370 -205 5421 -646 
L 4800 -646 
Q 4851 -186 4851 371 
L 4851 2630 
L 4269 2630 
Q 4256 1491 4080 755 
Q 3904 19 3501 -582 
Q 3322 -422 2918 -320 
Q 3462 218 3622 1123 
Q 3782 2029 3782 3379 
Q 3782 4128 3731 4678 
Q 4115 4659 4652 4761 
Q 5190 4864 5638 5043 
Q 5702 4902 5801 4748 
Q 5901 4595 5971 4531 
Q 6042 4467 6042 4435 
Q 6042 4403 5997 4403 
Q 5952 4403 5891 4416 
Q 5830 4429 5760 4429 
Q 5645 4429 5072 4358 
Q 4499 4288 4269 4282 
L 4269 3072 
z
M 1779 3309 
L 1267 3123 
Q 1171 3539 998 3763 
L 1478 3949 
Q 1587 3661 1779 3309 
z
M 2522 3053 
Q 3021 3059 3424 3104 
L 3424 2592 
Q 3008 2650 2266 2656 
L 2266 2016 
Q 2874 2022 3341 2074 
L 3341 1542 
Q 2982 1600 2266 1600 
L 2266 154 
Q 2266 -96 2211 -211 
Q 2157 -326 1974 -393 
Q 1792 -461 1363 -531 
Q 1350 -198 1139 77 
Q 1402 32 1539 32 
Q 1677 32 1734 128 
Q 1792 224 1792 570 
L 1792 1606 
Q 1024 1600 563 1542 
L 563 2074 
Q 1030 2016 1792 2016 
L 1792 2656 
Q 896 2650 448 2592 
L 448 3104 
Q 1018 3040 2138 3046 
Q 2406 3565 2534 3942 
Q 2784 3776 3034 3712 
Q 3091 3699 3091 3667 
Q 3091 3635 3017 3603 
Q 2944 3571 2522 3053 
z
M 1062 1408 
Q 1408 1248 1507 1225 
Q 1606 1203 1606 1180 
Q 1606 1158 1520 1107 
Q 1434 1056 1206 707 
Q 979 358 774 -19 
Q 563 154 256 186 
Q 845 749 1062 1408 
z
M 3354 582 
L 2912 262 
Q 2701 762 2381 1088 
L 2758 1344 
Q 2970 1088 3354 582 
z
" transform="scale(0.015625)"/>
        <path id="STHeiti-589e" d="M 4333 4275 
Q 4608 4787 4742 5325 
Q 4883 5254 5052 5196 
Q 5222 5139 5267 5136 
Q 5312 5133 5312 5110 
Q 5312 5088 5274 5056 
Q 5152 4954 4787 4275 
Q 5555 4282 5888 4333 
Q 5850 3994 5850 3254 
Q 5850 2515 5894 2080 
Q 5370 2131 4160 2131 
Q 2950 2131 2394 2086 
Q 2432 2547 2432 3235 
Q 2432 3923 2394 4333 
Q 2816 4275 4333 4275 
z
M 4301 2496 
L 5440 2496 
L 5440 3923 
L 4301 3923 
L 4301 2496 
z
M 4691 3648 
Q 4973 3590 5158 3590 
Q 5210 3590 5210 3568 
Q 5210 3546 5178 3514 
Q 5146 3482 5066 3264 
Q 4986 3046 4909 2771 
Q 4762 2822 4550 2810 
Q 4646 3117 4691 3648 
z
M 3878 3923 
L 2861 3923 
L 2861 2496 
L 3878 2496 
L 3878 3923 
z
M 3603 2803 
L 3213 2771 
Q 3213 3219 3142 3571 
L 3514 3610 
Q 3552 3334 3603 2803 
z
M 3904 4474 
L 3347 4307 
Q 3245 4710 3027 5050 
L 3558 5203 
Q 3802 4704 3904 4474 
z
M 1523 1120 
Q 1933 1248 2285 1389 
Q 2234 1254 2234 1132 
Q 2234 1011 2266 883 
Q 1414 659 493 154 
Q 403 531 256 832 
Q 653 890 1030 986 
L 1030 2944 
Q 602 2938 339 2886 
L 339 3469 
Q 608 3418 1030 3411 
Q 1030 4691 986 5037 
Q 1216 5011 1632 5011 
Q 1709 5011 1709 4979 
Q 1709 4947 1664 4908 
Q 1619 4870 1571 4716 
Q 1523 4563 1523 4442 
L 1523 3418 
Q 1843 3424 2099 3469 
L 2099 2886 
Q 1843 2931 1523 2938 
L 1523 1120 
z
M 3200 -198 
L 3200 -614 
L 2662 -614 
Q 2707 -301 2707 19 
L 2707 1075 
Q 2707 1574 2662 1792 
Q 3046 1741 4211 1741 
Q 5376 1741 5632 1792 
Q 5594 1542 5594 1075 
L 5594 141 
Q 5594 -250 5632 -544 
L 5107 -544 
L 5107 -198 
L 3200 -198 
z
M 5107 966 
L 5107 1421 
L 3200 1421 
L 3200 966 
L 5107 966 
z
M 3200 646 
L 3200 115 
L 5107 115 
L 5107 646 
L 3200 646 
z
" transform="scale(0.015625)"/>
        <path id="STHeiti-4ea7" d="M 3200 4416 
Q 3078 4813 2931 5094 
L 3622 5210 
Q 3718 4864 3814 4416 
Q 5120 4422 5869 4480 
L 5869 3930 
Q 4998 3994 3302 3994 
Q 1606 3994 730 3930 
L 730 4480 
Q 1587 4416 3200 4416 
z
M 3923 2714 
Q 4397 3629 4416 3904 
Q 4525 3834 4736 3731 
Q 4947 3629 5027 3603 
Q 5107 3578 5107 3539 
Q 5107 3501 5020 3475 
Q 4934 3450 4828 3312 
Q 4723 3174 4435 2714 
Q 5875 2714 6029 2752 
L 6029 2253 
Q 5562 2298 4429 2298 
L 1702 2298 
Q 1722 1229 1523 630 
Q 1325 32 749 -672 
Q 576 -397 288 -218 
Q 768 147 969 656 
Q 1171 1165 1171 1971 
Q 1171 2323 1133 2752 
Q 1331 2714 3923 2714 
z
M 2925 3014 
L 2330 2842 
Q 2208 3283 2016 3597 
L 2579 3789 
Q 2803 3373 2925 3014 
z
" transform="scale(0.015625)"/>
        <path id="STHeiti-80fd" d="M 2842 3334 
L 1363 3206 
Q 922 3162 736 3078 
Q 685 3347 589 3622 
Q 749 3693 841 3760 
Q 934 3827 1100 4044 
Q 1267 4262 1436 4556 
Q 1606 4851 1709 5101 
Q 2035 4922 2198 4893 
Q 2362 4864 2362 4825 
Q 2362 4787 2237 4704 
Q 2112 4621 1901 4358 
L 1274 3622 
L 2662 3648 
Q 2464 4000 2278 4237 
L 2669 4442 
Q 3136 3827 3443 3315 
L 2982 3046 
Q 2950 3130 2842 3334 
z
M 4179 3994 
Q 4902 4288 5363 4666 
Q 5562 4371 5760 4237 
Q 5811 4205 5811 4173 
Q 5811 4141 5782 4131 
Q 5754 4122 5670 4122 
Q 5459 4122 4179 3610 
L 4179 3264 
Q 4179 3174 4220 3123 
Q 4262 3072 4406 3043 
Q 4550 3014 4816 3014 
Q 5082 3014 5190 3056 
Q 5299 3098 5356 3222 
Q 5414 3347 5459 3635 
Q 5632 3386 5965 3302 
Q 5850 2957 5747 2819 
Q 5645 2682 5465 2646 
Q 5286 2611 4784 2611 
Q 4282 2611 4064 2646 
Q 3846 2682 3782 2797 
Q 3718 2912 3718 3219 
L 3718 4339 
Q 3718 4787 3674 5043 
Q 3891 5005 4262 5005 
Q 4365 5005 4365 4966 
Q 4365 4928 4272 4857 
Q 4179 4787 4179 4666 
L 4179 3994 
z
M 1350 640 
L 1350 -474 
L 806 -474 
Q 858 38 858 531 
L 858 2240 
Q 858 2598 813 2829 
Q 1216 2778 1977 2778 
Q 2739 2778 3110 2829 
Q 3066 2598 3066 2240 
L 3066 19 
Q 3066 -179 3002 -278 
Q 2938 -378 2758 -432 
Q 2579 -486 2202 -518 
Q 2182 -224 1997 45 
Q 2208 6 2330 6 
Q 2573 6 2573 198 
L 2573 640 
L 1350 640 
z
M 1350 1875 
L 2573 1875 
L 2573 2374 
L 1350 2374 
L 1350 1875 
z
M 2573 1517 
L 1350 1517 
L 1350 1011 
L 2573 1011 
L 2573 1517 
z
M 4122 1312 
Q 4890 1632 5344 1984 
Q 5504 1741 5709 1555 
Q 5747 1523 5747 1491 
Q 5747 1459 5728 1452 
Q 5709 1446 5651 1446 
Q 5459 1446 4122 902 
L 4122 256 
Q 4122 166 4160 124 
Q 4198 83 4336 64 
Q 4474 45 4826 45 
Q 5178 45 5293 237 
Q 5408 429 5434 762 
Q 5638 467 5965 397 
Q 5850 0 5750 -153 
Q 5651 -307 5456 -355 
Q 5261 -403 4742 -403 
Q 4224 -403 4006 -368 
Q 3789 -333 3725 -214 
Q 3661 -96 3661 211 
L 3661 1664 
Q 3661 2086 3610 2368 
Q 3827 2330 4205 2330 
Q 4307 2330 4307 2291 
Q 4307 2253 4214 2182 
Q 4122 2112 4122 1990 
L 4122 1312 
z
" transform="scale(0.015625)"/>
        <path id="STHeiti-89c4" d="M 1984 3635 
Q 1984 3008 1952 2605 
Q 2573 2618 2829 2656 
L 2829 2138 
Q 2598 2163 1907 2176 
Q 1888 2003 1837 1734 
Q 2426 1331 3008 800 
L 2566 422 
Q 2195 915 1734 1299 
Q 1446 243 685 -435 
Q 480 -186 192 -70 
Q 794 416 1066 918 
Q 1338 1421 1414 2176 
Q 717 2170 429 2138 
L 429 2656 
Q 781 2611 1453 2605 
Q 1485 3136 1485 3635 
Q 922 3629 614 3590 
L 614 4109 
Q 909 4064 1491 4058 
Q 1491 4960 1453 5216 
Q 1843 5133 2118 5133 
Q 2202 5133 2202 5104 
Q 2202 5075 2134 5040 
Q 2067 5005 2035 4793 
Q 2003 4582 1997 4058 
Q 2534 4070 2746 4109 
L 2746 3590 
Q 2438 3616 1984 3635 
z
M 5786 1459 
L 5203 1459 
L 5203 4320 
L 3571 4320 
L 3571 1472 
L 3021 1472 
Q 3085 1990 3085 2490 
L 3085 4288 
Q 3085 4608 3040 4838 
Q 3405 4774 4422 4774 
Q 5440 4774 5766 4838 
Q 5728 4698 5728 4288 
L 5728 2477 
Q 5728 1926 5786 1459 
z
M 4038 3782 
Q 4122 3744 4262 3725 
Q 4403 3706 4499 3706 
L 4653 3712 
Q 4698 3712 4698 3677 
Q 4698 3642 4666 3603 
Q 4582 3507 4518 2701 
Q 4416 1357 3936 633 
Q 3456 -90 2426 -576 
Q 2253 -301 1990 -154 
Q 2784 122 3229 544 
Q 3674 966 3866 1606 
Q 4058 2246 4058 3392 
Q 4058 3680 4038 3782 
z
M 6227 371 
Q 6093 -32 5977 -195 
Q 5862 -358 5686 -406 
Q 5510 -454 5152 -454 
Q 4794 -454 4672 -419 
Q 4550 -384 4515 -262 
Q 4480 -141 4480 192 
L 4480 1299 
Q 4480 1568 4442 1779 
Q 4570 1760 4723 1766 
L 4966 1766 
Q 5056 1766 5056 1737 
Q 5056 1709 4992 1664 
Q 4928 1619 4928 1510 
L 4928 198 
Q 4928 83 4966 54 
Q 5005 26 5165 26 
Q 5523 26 5600 176 
Q 5677 326 5702 678 
Q 5926 429 6227 371 
z
" transform="scale(0.015625)"/>
        <path id="STHeiti-5212" d="M 2170 1606 
Q 2778 2253 3002 2835 
Q 3309 2605 3488 2560 
Q 3565 2541 3565 2509 
Q 3565 2477 3520 2445 
Q 3392 2362 3181 2032 
Q 2970 1702 2394 1114 
Q 2714 614 2909 374 
Q 3104 134 3200 134 
Q 3296 134 3341 294 
Q 3386 454 3398 800 
Q 3571 467 3910 365 
Q 3814 -58 3705 -269 
Q 3597 -480 3430 -480 
Q 3059 -480 2739 -160 
Q 2419 160 2054 774 
Q 1440 166 838 -186 
Q 659 96 320 237 
Q 1018 448 1818 1242 
Q 1510 1965 1402 2854 
Q 934 2765 538 2637 
L 410 3200 
Q 800 3226 1357 3315 
Q 1293 4102 1248 5229 
Q 1446 5184 1734 5184 
L 1952 5190 
Q 2016 5190 2016 5161 
Q 2016 5133 1939 5043 
Q 1824 4896 1824 4441 
Q 1824 3987 1856 3398 
L 2874 3571 
Q 3334 3642 3699 3770 
L 3814 3226 
Q 3245 3174 2944 3123 
L 1894 2944 
Q 1978 2170 2170 1606 
z
M 5082 5088 
Q 5190 5062 5315 5049 
Q 5440 5037 5530 5037 
L 5696 5043 
Q 5779 5043 5779 5014 
Q 5779 4986 5718 4918 
Q 5658 4851 5658 4736 
L 5658 141 
Q 5658 -122 5597 -246 
Q 5536 -371 5325 -448 
Q 5114 -525 4634 -589 
Q 4589 -166 4307 90 
Q 4608 58 4790 58 
Q 4973 58 5059 102 
Q 5146 147 5146 307 
L 5146 4058 
Q 5146 4877 5082 5088 
z
M 3315 4166 
L 2790 3878 
Q 2586 4307 2272 4659 
L 2771 4909 
Q 3040 4467 3315 4166 
z
M 4026 4378 
Q 4237 4314 4602 4314 
Q 4685 4314 4685 4269 
Q 4685 4224 4627 4189 
Q 4570 4154 4570 4019 
L 4570 1491 
Q 4570 1043 4608 698 
L 4038 698 
Q 4077 1069 4077 1491 
L 4077 3667 
Q 4077 4122 4026 4378 
z
" transform="scale(0.015625)"/>
       </defs>
       <use xlink:href="#STHeiti-65b0"/>
       <use xlink:href="#STHeiti-589e" transform="translate(99.999985 0)"/>
       <use xlink:href="#STHeiti-4ea7" transform="translate(199.999969 0)"/>
       <use xlink:href="#STHeiti-80fd" transform="translate(299.999954 0)"/>
       <use xlink:href="#STHeiti-89c4" transform="translate(399.999939 0)"/>
       <use xlink:href="#STHeiti-5212" transform="translate(499.999924 0)"/>
      </g>
     </g>
    </g>
    <g id="xtick_8">
     <g id="line2d_15">
      <path d="M 449.897062 268.936671 
L 449.897062 18.159375 
" clip-path="url(#pf5037ec570)" style="fill: none; stroke: #b0b0b0; stroke-opacity: 0.3; stroke-width: 0.8; stroke-linecap: square"/>
     </g>
     <g id="line2d_16">
      <g>
       <use xlink:href="#m442f8f9758" x="449.897062" y="268.936671" style="stroke: #000000; stroke-width: 0.8"/>
      </g>
     </g>
     <g id="text_8">
      <!-- 2030总产能 -->
      <g transform="translate(404.052699 308.910942) rotate(-30) scale(0.1 -0.1)">
       <defs>
        <path id="STHeiti-603b" d="M 3411 3968 
Q 3885 4666 4102 5254 
Q 4454 5037 4794 4973 
Q 4877 4960 4877 4928 
Q 4877 4896 4806 4858 
Q 4595 4749 4451 4601 
Q 4307 4454 3962 3968 
Q 4838 3974 5120 4000 
Q 5088 3514 5088 3142 
Q 5088 2771 5120 2029 
Q 4960 2042 3155 2042 
Q 1350 2042 1210 2029 
Q 1242 2374 1242 3020 
Q 1242 3667 1210 4000 
Q 1734 3962 3411 3968 
z
M 1760 3584 
L 1760 2451 
L 4570 2451 
L 4570 3584 
L 1760 3584 
z
M 2701 4422 
L 2234 4038 
Q 1978 4397 1498 4838 
L 1882 5146 
Q 2355 4698 2701 4422 
z
M 3994 954 
L 3469 659 
Q 3264 1178 2925 1626 
L 3443 1850 
Q 3718 1363 3994 954 
z
M 6176 467 
L 5594 115 
Q 5357 640 4794 1325 
L 5286 1581 
Q 5664 1146 6176 467 
z
M 5056 435 
Q 4922 64 4832 -93 
Q 4742 -250 4620 -317 
Q 4499 -384 4176 -416 
Q 3853 -448 3152 -448 
Q 2451 -448 2198 -345 
Q 1946 -243 1946 160 
L 1946 845 
Q 1946 1274 1888 1517 
Q 2170 1459 2406 1459 
L 2554 1466 
Q 2624 1466 2624 1437 
Q 2624 1408 2550 1347 
Q 2477 1286 2477 1165 
L 2477 358 
Q 2477 179 2614 115 
Q 2752 51 3107 51 
Q 3462 51 3811 80 
Q 4160 109 4243 147 
Q 4326 186 4380 326 
Q 4435 467 4499 819 
Q 4762 493 5056 435 
z
M 1427 1389 
Q 1261 672 1101 -205 
L 448 -134 
Q 806 621 858 1434 
L 1427 1389 
z
" transform="scale(0.015625)"/>
       </defs>
       <use xlink:href="#STHeiti-32"/>
       <use xlink:href="#STHeiti-30" transform="translate(55.399994 0)"/>
       <use xlink:href="#STHeiti-33" transform="translate(110.799988 0)"/>
       <use xlink:href="#STHeiti-30" transform="translate(166.199982 0)"/>
       <use xlink:href="#STHeiti-603b" transform="translate(221.599976 0)"/>
       <use xlink:href="#STHeiti-4ea7" transform="translate(321.59996 0)"/>
       <use xlink:href="#STHeiti-80fd" transform="translate(421.599945 0)"/>
      </g>
     </g>
    </g>
    <g id="xtick_9">
     <g id="line2d_17">
      <path d="M 504.954131 268.936671 
L 504.954131 18.159375 
" clip-path="url(#pf5037ec570)" style="fill: none; stroke: #b0b0b0; stroke-opacity: 0.3; stroke-width: 0.8; stroke-linecap: square"/>
     </g>
     <g id="line2d_18">
      <g>
       <use xlink:href="#m442f8f9758" x="504.954131" y="268.936671" style="stroke: #000000; stroke-width: 0.8"/>
      </g>
     </g>
     <g id="text_9">
      <!-- FY2026E家用民用GM -->
      <g transform="translate(420.969468 330.931254) rotate(-30) scale(0.1 -0.1)">
       <defs>
        <path id="STHeiti-5bb6" d="M 3008 4544 
Q 2912 4851 2797 5139 
L 3437 5235 
Q 3507 4896 3642 4544 
Q 5197 4544 5760 4582 
L 5760 3270 
L 5242 3270 
L 5242 4109 
L 1171 4109 
L 1171 3206 
L 653 3206 
L 653 4582 
Q 1242 4544 3008 4544 
z
M 4608 1990 
Q 4742 1363 5097 966 
Q 5453 570 6099 301 
Q 5856 77 5696 -314 
Q 5152 -19 4765 541 
Q 4378 1101 4243 1760 
L 3808 1472 
Q 3942 1024 3942 605 
Q 3942 186 3776 -112 
Q 3610 -410 2797 -614 
Q 2765 -230 2515 38 
Q 2624 26 2720 26 
Q 3149 26 3309 234 
Q 3469 442 3469 838 
Q 3469 1037 3424 1235 
Q 2342 173 819 -397 
Q 627 -70 448 102 
Q 1088 166 1923 633 
Q 2758 1101 3258 1658 
Q 3187 1786 3078 1926 
Q 2189 1114 877 666 
Q 742 896 525 1094 
Q 1971 1421 2822 2234 
Q 2701 2355 2560 2477 
Q 1843 2048 838 1722 
Q 704 1978 493 2144 
Q 1146 2253 1782 2534 
Q 2419 2816 2842 3181 
Q 1965 3168 1645 3142 
L 1645 3648 
Q 2182 3603 3244 3603 
Q 4307 3603 4832 3648 
L 4832 3149 
Q 4435 3181 3501 3181 
Q 3238 2931 2944 2726 
Q 3424 2387 3654 1894 
Q 4563 2438 4947 2886 
Q 5178 2624 5421 2490 
Q 5459 2464 5459 2445 
Q 5459 2406 5353 2396 
Q 5248 2387 4608 1990 
z
" transform="scale(0.015625)"/>
        <path id="STHeiti-7528" d="M 3501 1491 
L 3501 1024 
Q 3501 454 3546 -70 
L 2931 -70 
Q 2976 467 2976 1024 
L 2976 1491 
L 1709 1491 
Q 1587 352 1024 -570 
Q 774 -352 461 -230 
Q 1203 621 1203 2310 
L 1203 3955 
Q 1203 4557 1152 4864 
Q 2048 4819 3421 4819 
Q 4794 4819 5530 4864 
Q 5472 4525 5472 3955 
L 5472 134 
Q 5472 -122 5417 -224 
Q 5363 -326 5164 -387 
Q 4966 -448 4435 -531 
Q 4365 -192 4230 83 
Q 4666 77 4803 134 
Q 4941 192 4941 358 
L 4941 1491 
L 3501 1491 
z
M 1728 3405 
L 2976 3405 
L 2976 4346 
L 1728 4346 
L 1728 3405 
z
M 3501 3405 
L 4941 3405 
L 4941 4346 
L 3501 4346 
L 3501 3405 
z
M 2976 2938 
L 1728 2938 
L 1728 1958 
L 2976 1958 
L 2976 2938 
z
M 4941 2938 
L 3501 2938 
L 3501 1958 
L 4941 1958 
L 4941 2938 
z
" transform="scale(0.015625)"/>
        <path id="STHeiti-6c11" d="M 3654 2285 
Q 5216 2285 5677 2330 
L 5677 1773 
Q 5261 1805 3763 1805 
Q 4045 922 4553 509 
Q 5062 96 5242 96 
Q 5357 96 5424 240 
Q 5491 384 5562 730 
Q 5811 448 6048 378 
Q 5894 -122 5769 -339 
Q 5645 -557 5449 -557 
Q 5254 -557 4793 -336 
Q 4333 -115 3891 445 
Q 3450 1005 3245 1805 
L 1562 1805 
L 1562 230 
Q 2182 538 2688 826 
Q 2682 499 2822 282 
L 1741 -237 
Q 1382 -403 1088 -653 
Q 934 -320 723 -115 
Q 883 -19 956 144 
Q 1030 307 1030 710 
L 1030 4192 
Q 1030 4589 986 4896 
Q 1382 4838 3065 4838 
Q 4749 4838 5306 4896 
Q 5267 4570 5267 4173 
L 5267 3610 
Q 5267 3347 5312 3034 
Q 4973 3072 3558 3078 
Q 3584 2746 3654 2285 
z
M 1562 3558 
L 4736 3558 
L 4736 4358 
L 1562 4358 
L 1562 3558 
z
M 1562 2285 
L 3142 2285 
Q 3078 2650 3034 3078 
L 1562 3078 
L 1562 2285 
z
" transform="scale(0.015625)"/>
        <path id="STHeiti-47" d="M 5318 4211 
L 4966 3872 
Q 4582 4243 4124 4441 
Q 3667 4640 3180 4640 
Q 2694 4640 2208 4377 
Q 1722 4115 1450 3670 
Q 1178 3226 1178 2707 
Q 1178 1901 1782 1302 
Q 2387 704 3296 704 
Q 3987 704 4483 1091 
Q 4979 1478 5075 2144 
L 3610 2144 
L 3610 2586 
L 5594 2586 
Q 5574 1491 4940 880 
Q 4307 269 3283 269 
Q 2106 269 1398 992 
Q 691 1715 691 2691 
Q 691 3667 1395 4380 
Q 2099 5094 3244 5094 
Q 4390 5094 5318 4211 
z
" transform="scale(0.015625)"/>
        <path id="STHeiti-4d" d="M 352 384 
L 1005 4979 
L 1075 4979 
L 2944 1210 
L 4800 4979 
L 4870 4979 
L 5530 384 
L 5075 384 
L 4627 3674 
L 3002 384 
L 2886 384 
L 1242 3699 
L 794 384 
L 352 384 
z
" transform="scale(0.015625)"/>
       </defs>
       <use xlink:href="#STHeiti-46"/>
       <use xlink:href="#STHeiti-59" transform="translate(48.499985 0)"/>
       <use xlink:href="#STHeiti-32" transform="translate(107.699982 0)"/>
       <use xlink:href="#STHeiti-30" transform="translate(163.099976 0)"/>
       <use xlink:href="#STHeiti-32" transform="translate(218.499969 0)"/>
       <use xlink:href="#STHeiti-36" transform="translate(273.899963 0)"/>
       <use xlink:href="#STHeiti-45" transform="translate(329.299957 0)"/>
       <use xlink:href="#STHeiti-5bb6" transform="translate(382.899948 0)"/>
       <use xlink:href="#STHeiti-7528" transform="translate(482.899933 0)"/>
       <use xlink:href="#STHeiti-6c11" transform="translate(582.899918 0)"/>
       <use xlink:href="#STHeiti-7528" transform="translate(682.899902 0)"/>
       <use xlink:href="#STHeiti-47" transform="translate(782.899887 0)"/>
       <use xlink:href="#STHeiti-4d" transform="translate(870.099869 0)"/>
      </g>
     </g>
    </g>
    <g id="xtick_10">
     <g id="line2d_19">
      <path d="M 560.0112 268.936671 
L 560.0112 18.159375 
" clip-path="url(#pf5037ec570)" style="fill: none; stroke: #b0b0b0; stroke-opacity: 0.3; stroke-width: 0.8; stroke-linecap: square"/>
     </g>
     <g id="line2d_20">
      <g>
       <use xlink:href="#m442f8f9758" x="560.0112" y="268.936671" style="stroke: #000000; stroke-width: 0.8"/>
      </g>
     </g>
     <g id="text_10">
      <!-- FY2026E储能GM -->
      <g transform="translate(493.347045 320.931254) rotate(-30) scale(0.1 -0.1)">
       <defs>
        <path id="STHeiti-50a8" d="M 4474 4448 
Q 4787 4454 4992 4493 
L 4992 4013 
Q 4768 4045 4474 4051 
L 4474 3194 
L 4646 3194 
Q 5146 3917 5382 4685 
Q 5568 4531 5888 4390 
Q 5933 4365 5933 4336 
Q 5933 4307 5865 4272 
Q 5798 4237 5577 3859 
Q 5357 3482 5146 3194 
Q 5696 3206 6086 3251 
L 6086 2733 
Q 5600 2778 4845 2784 
Q 4653 2541 4365 2234 
L 5139 2234 
Q 5504 2234 5670 2278 
Q 5619 2099 5619 1651 
L 5619 301 
Q 5619 -102 5677 -499 
L 5139 -499 
L 5139 -154 
L 3994 -154 
L 3994 -614 
L 3514 -614 
Q 3565 -211 3565 186 
L 3565 1466 
Q 3315 1242 3117 1088 
Q 3008 1261 2784 1446 
Q 3200 1709 3546 1997 
Q 3533 2157 3507 2278 
Q 3642 2253 3814 2240 
Q 4102 2509 4339 2790 
Q 3533 2790 3008 2733 
L 3008 3251 
Q 3482 3206 4013 3194 
L 4013 4058 
Q 3558 4051 3302 4013 
L 3302 4493 
Q 3610 4448 4013 4442 
Q 4013 5024 3955 5254 
Q 4192 5210 4506 5210 
Q 4563 5210 4563 5181 
Q 4563 5152 4518 5107 
Q 4474 5062 4474 4813 
L 4474 4448 
z
M 5139 1242 
L 5139 1830 
L 3994 1830 
L 3994 1242 
L 5139 1242 
z
M 3994 845 
L 3994 243 
L 5139 243 
L 5139 845 
L 3994 845 
z
M 1510 4070 
L 1510 -582 
L 954 -582 
Q 1024 64 1024 538 
L 1024 2970 
Q 832 2547 646 2202 
Q 518 2464 237 2637 
Q 608 3098 905 3808 
Q 1203 4518 1338 5165 
Q 1670 5056 1875 5050 
Q 1978 5043 1978 5001 
Q 1978 4960 1888 4870 
Q 1830 4813 1510 4070 
z
M 2957 3712 
L 2419 3565 
Q 2336 4141 2093 4627 
L 2586 4774 
Q 2733 4256 2957 3712 
z
M 3123 602 
L 2586 154 
Q 2426 26 2246 -218 
Q 2067 115 1926 250 
Q 2042 378 2090 515 
Q 2138 653 2138 909 
L 2138 2784 
Q 1856 2784 1658 2746 
L 1658 3277 
Q 1939 3226 2192 3226 
Q 2445 3226 2669 3277 
Q 2598 2989 2598 2470 
L 2598 794 
Q 2835 941 2982 1082 
Q 2982 832 3123 602 
z
" transform="scale(0.015625)"/>
       </defs>
       <use xlink:href="#STHeiti-46"/>
       <use xlink:href="#STHeiti-59" transform="translate(48.499985 0)"/>
       <use xlink:href="#STHeiti-32" transform="translate(107.699982 0)"/>
       <use xlink:href="#STHeiti-30" transform="translate(163.099976 0)"/>
       <use xlink:href="#STHeiti-32" transform="translate(218.499969 0)"/>
       <use xlink:href="#STHeiti-36" transform="translate(273.899963 0)"/>
       <use xlink:href="#STHeiti-45" transform="translate(329.299957 0)"/>
       <use xlink:href="#STHeiti-50a8" transform="translate(382.899948 0)"/>
       <use xlink:href="#STHeiti-80fd" transform="translate(482.899933 0)"/>
       <use xlink:href="#STHeiti-47" transform="translate(582.899918 0)"/>
       <use xlink:href="#STHeiti-4d" transform="translate(670.099899 0)"/>
      </g>
     </g>
    </g>
    <g id="xtick_11">
     <g id="line2d_21">
      <path d="M 615.068269 268.936671 
L 615.068269 18.159375 
" clip-path="url(#pf5037ec570)" style="fill: none; stroke: #b0b0b0; stroke-opacity: 0.3; stroke-width: 0.8; stroke-linecap: square"/>
     </g>
     <g id="line2d_22">
      <g>
       <use xlink:href="#m442f8f9758" x="615.068269" y="268.936671" style="stroke: #000000; stroke-width: 0.8"/>
      </g>
     </g>
     <g id="text_11">
      <!-- FY2026E海外(南亚/东南亚) -->
      <g transform="translate(510.43702 343.095136) rotate(-30) scale(0.1 -0.1)">
       <defs>
        <path id="STHeiti-6d77" d="M 2573 3546 
Q 2355 3258 2221 3091 
Q 2010 3264 1747 3296 
Q 2106 3661 2474 4246 
Q 2842 4832 3008 5312 
Q 3386 5146 3661 5101 
Q 3725 5088 3725 5043 
Q 3725 4998 3648 4985 
Q 3571 4973 3500 4899 
Q 3430 4826 3277 4589 
L 5030 4589 
Q 5606 4589 5965 4659 
L 5965 4134 
Q 5581 4166 5030 4166 
L 3002 4166 
Q 2829 3898 2611 3597 
L 4128 3597 
Q 4986 3597 5530 3648 
L 5421 2163 
Q 5811 2163 6074 2202 
L 6074 1722 
Q 5837 1754 5389 1766 
L 5312 672 
Q 5645 678 5837 710 
L 5837 186 
Q 5626 230 5286 237 
Q 5274 -314 5062 -461 
Q 4851 -608 4294 -698 
Q 4269 -429 4006 -154 
Q 4422 -166 4588 -83 
Q 4755 0 4787 250 
L 3251 250 
Q 2675 250 2221 205 
L 2381 1760 
Q 2010 1747 1792 1722 
L 1792 2202 
Q 1946 2182 2426 2157 
L 2573 3546 
z
M 2925 2157 
L 4934 2157 
L 5011 3213 
L 3046 3213 
L 2925 2157 
z
M 4365 2387 
L 3840 2298 
Q 3782 2618 3616 2899 
L 4096 3021 
Q 4282 2701 4365 2387 
z
M 4902 1766 
L 2880 1766 
L 2752 666 
L 4819 666 
L 4902 1766 
z
M 4224 896 
L 3718 781 
Q 3718 890 3641 1120 
Q 3565 1350 3482 1498 
L 3962 1619 
Q 4154 1126 4224 896 
z
M 2067 4358 
L 1664 3974 
Q 1293 4410 723 4755 
L 1120 5139 
Q 1619 4742 2067 4358 
z
M 1728 2931 
L 1395 2464 
Q 1005 2816 403 3078 
L 710 3533 
Q 1434 3098 1728 2931 
z
M 1651 1581 
Q 1536 1286 1353 739 
Q 1171 192 1113 9 
Q 1056 -173 979 -518 
Q 653 -224 365 -90 
Q 563 186 828 918 
Q 1094 1651 1165 1971 
Q 1331 1715 1651 1581 
z
" transform="scale(0.015625)"/>
        <path id="STHeiti-5916" d="M 4320 3098 
L 4320 730 
Q 4320 -38 4378 -499 
L 3718 -499 
Q 3776 -38 3776 730 
L 3776 4365 
Q 3776 4941 3718 5267 
Q 4070 5203 4365 5203 
Q 4493 5203 4493 5168 
Q 4493 5133 4403 5075 
Q 4320 5011 4320 4819 
L 4320 3648 
Q 5363 2893 6150 1965 
L 5670 1536 
Q 5024 2458 4320 3098 
z
M 2355 1926 
Q 2618 2579 2701 3450 
L 1632 3450 
Q 1261 2432 819 1766 
Q 544 2042 301 2074 
Q 742 2490 1097 3402 
Q 1453 4314 1485 5107 
Q 1914 4986 2163 4960 
Q 2246 4947 2246 4912 
Q 2246 4877 2169 4816 
Q 2093 4755 1974 4406 
Q 1856 4058 1798 3910 
Q 3002 3891 3283 3949 
Q 3238 3162 3065 2432 
Q 2893 1702 2669 1337 
Q 2445 973 2025 547 
Q 1606 122 966 -320 
Q 749 -32 371 115 
Q 1638 691 2118 1459 
Q 1805 1997 1395 2310 
L 1766 2662 
Q 2054 2374 2355 1926 
z
" transform="scale(0.015625)"/>
        <path id="STHeiti-28" d="M 1466 5370 
L 1978 5370 
Q 1651 4704 1475 3865 
Q 1299 3027 1299 2176 
Q 1299 506 1824 -762 
L 1338 -762 
Q 832 480 832 2118 
Q 832 3891 1466 5370 
z
" transform="scale(0.015625)"/>
        <path id="STHeiti-5357" d="M 3488 4550 
Q 4966 4550 5978 4614 
L 5978 4026 
Q 5107 4090 3430 4090 
L 3360 3456 
Q 5274 3456 5651 3533 
Q 5600 3174 5600 2586 
L 5600 134 
Q 5600 -160 5536 -288 
Q 5472 -416 5251 -486 
Q 5030 -557 4493 -621 
Q 4493 -480 4441 -285 
Q 4390 -90 4307 58 
Q 4518 26 4666 26 
Q 5069 26 5069 294 
L 5069 3014 
L 1414 3014 
L 1414 -538 
L 819 -538 
Q 883 -13 883 352 
L 883 2586 
Q 883 3174 832 3533 
Q 1306 3462 2848 3456 
Q 2880 3802 2886 4090 
Q 1299 4077 474 4026 
L 474 4614 
Q 1318 4557 2893 4550 
Q 2893 4915 2854 5210 
Q 3219 5139 3610 5139 
Q 3686 5139 3686 5107 
Q 3686 5075 3628 5040 
Q 3571 5005 3548 4912 
Q 3526 4819 3488 4550 
z
M 3386 1120 
Q 4134 1120 4653 1171 
L 4653 672 
Q 4205 710 3386 717 
Q 3386 96 3430 -384 
L 2842 -384 
Q 2886 96 2886 717 
Q 2131 710 1728 672 
L 1728 1171 
Q 2253 1126 2886 1120 
L 2886 1619 
Q 2278 1613 1843 1568 
L 1843 2054 
Q 2566 2003 3430 2003 
Q 3629 2502 3674 2982 
Q 4051 2778 4237 2752 
Q 4314 2739 4314 2713 
Q 4314 2688 4250 2656 
Q 4186 2624 4112 2499 
Q 4038 2374 3872 2016 
Q 4288 2022 4589 2054 
L 4589 1568 
Q 4218 1613 3386 1619 
L 3386 1120 
z
M 2957 2298 
L 2458 2118 
Q 2330 2458 2163 2720 
L 2675 2886 
Q 2752 2701 2957 2298 
z
" transform="scale(0.015625)"/>
        <path id="STHeiti-4e9a" d="M 4096 314 
Q 5440 301 6029 371 
L 6029 -250 
Q 5318 -192 3158 -192 
Q 998 -192 480 -250 
L 480 371 
Q 1210 294 2317 314 
L 2317 4269 
Q 1184 4256 762 4211 
L 762 4806 
Q 1261 4749 3165 4749 
Q 5069 4749 5709 4806 
L 5709 4211 
Q 5222 4269 4096 4269 
L 4096 314 
z
M 2854 314 
L 3558 314 
L 3558 4269 
L 2854 4269 
L 2854 314 
z
M 5082 3610 
Q 5395 3475 5683 3418 
Q 5786 3398 5786 3369 
Q 5786 3341 5696 3264 
Q 5606 3187 5449 2844 
Q 5293 2502 4819 1286 
Q 4563 1427 4269 1478 
Q 4774 2419 5082 3610 
z
M 1946 1446 
L 1357 1254 
Q 1190 2400 813 3290 
L 1312 3456 
Q 1715 2362 1946 1446 
z
" transform="scale(0.015625)"/>
        <path id="STHeiti-2f" d="M 2611 5094 
L 704 -243 
L 224 -243 
L 2131 5094 
L 2611 5094 
z
" transform="scale(0.015625)"/>
        <path id="STHeiti-4e1c" d="M 2131 3821 
Q 768 3808 493 3782 
L 493 4352 
Q 1114 4282 2330 4256 
Q 2605 4883 2688 5242 
Q 3066 5056 3392 4986 
Q 3450 4973 3450 4944 
Q 3450 4915 3392 4877 
Q 3238 4762 2950 4256 
Q 4717 4269 5811 4352 
L 5811 3776 
Q 5190 3821 2707 3821 
Q 2259 3066 1754 2374 
L 3098 2374 
Q 3098 3014 3034 3290 
Q 3258 3251 3434 3248 
Q 3610 3245 3696 3245 
Q 3782 3245 3782 3222 
Q 3782 3200 3750 3149 
Q 3648 2995 3648 2682 
L 3648 2374 
Q 4992 2394 5414 2502 
L 5414 1888 
Q 5050 1926 3648 1926 
L 3648 218 
Q 3648 -154 3587 -304 
Q 3526 -454 3337 -521 
Q 3149 -589 2662 -653 
Q 2598 -346 2381 26 
Q 2694 -32 2848 -32 
Q 3002 -32 3050 45 
Q 3098 122 3098 320 
L 3098 1926 
Q 1658 1907 1190 1728 
Q 1133 1978 934 2310 
Q 1197 2432 1523 2841 
Q 1850 3251 2131 3821 
z
M 6035 211 
L 5517 -243 
Q 4947 563 4198 1075 
L 4563 1427 
Q 5370 870 6035 211 
z
M 1792 1408 
Q 2080 1126 2323 1011 
Q 2387 979 2387 937 
Q 2387 896 2310 883 
Q 2086 851 774 -339 
Q 582 -77 314 64 
Q 1210 614 1792 1408 
z
" transform="scale(0.015625)"/>
        <path id="STHeiti-29" d="M 896 5370 
Q 1530 3891 1530 2118 
Q 1530 480 1024 -762 
L 538 -762 
Q 1062 506 1062 2176 
Q 1062 3027 886 3865 
Q 710 4704 384 5370 
L 896 5370 
z
" transform="scale(0.015625)"/>
       </defs>
       <use xlink:href="#STHeiti-46"/>
       <use xlink:href="#STHeiti-59" transform="translate(48.499985 0)"/>
       <use xlink:href="#STHeiti-32" transform="translate(107.699982 0)"/>
       <use xlink:href="#STHeiti-30" transform="translate(163.099976 0)"/>
       <use xlink:href="#STHeiti-32" transform="translate(218.499969 0)"/>
       <use xlink:href="#STHeiti-36" transform="translate(273.899963 0)"/>
       <use xlink:href="#STHeiti-45" transform="translate(329.299957 0)"/>
       <use xlink:href="#STHeiti-6d77" transform="translate(382.899948 0)"/>
       <use xlink:href="#STHeiti-5916" transform="translate(482.899933 0)"/>
       <use xlink:href="#STHeiti-28" transform="translate(582.899918 0)"/>
       <use xlink:href="#STHeiti-5357" transform="translate(619.799911 0)"/>
       <use xlink:href="#STHeiti-4e9a" transform="translate(719.799896 0)"/>
       <use xlink:href="#STHeiti-2f" transform="translate(819.799881 0)"/>
       <use xlink:href="#STHeiti-4e1c" transform="translate(863.499878 0)"/>
       <use xlink:href="#STHeiti-5357" transform="translate(963.499863 0)"/>
       <use xlink:href="#STHeiti-4e9a" transform="translate(1063.499847 0)"/>
       <use xlink:href="#STHeiti-29" transform="translate(1163.499832 0)"/>
      </g>
     </g>
    </g>
    <g id="xtick_12">
     <g id="line2d_23">
      <path d="M 670.125338 268.936671 
L 670.125338 18.159375 
" clip-path="url(#pf5037ec570)" style="fill: none; stroke: #b0b0b0; stroke-opacity: 0.3; stroke-width: 0.8; stroke-linecap: square"/>
     </g>
     <g id="line2d_24">
      <g>
       <use xlink:href="#m442f8f9758" x="670.125338" y="268.936671" style="stroke: #000000; stroke-width: 0.8"/>
      </g>
     </g>
     <g id="text_12">
      <!-- FY2026E家储 -->
      <g transform="translate(618.97251 311.975785) rotate(-30) scale(0.1 -0.1)">
       <use xlink:href="#STHeiti-46"/>
       <use xlink:href="#STHeiti-59" transform="translate(48.499985 0)"/>
       <use xlink:href="#STHeiti-32" transform="translate(107.699982 0)"/>
       <use xlink:href="#STHeiti-30" transform="translate(163.099976 0)"/>
       <use xlink:href="#STHeiti-32" transform="translate(218.499969 0)"/>
       <use xlink:href="#STHeiti-36" transform="translate(273.899963 0)"/>
       <use xlink:href="#STHeiti-45" transform="translate(329.299957 0)"/>
       <use xlink:href="#STHeiti-5bb6" transform="translate(382.899948 0)"/>
       <use xlink:href="#STHeiti-50a8" transform="translate(482.899933 0)"/>
      </g>
     </g>
    </g>
   </g>
   <g id="matplotlib.axis_2">
    <g id="ytick_1">
     <g id="line2d_25">
      <path d="M 34.216191 257.537703 
L 700.406726 257.537703 
" clip-path="url(#pf5037ec570)" style="fill: none; stroke: #b0b0b0; stroke-opacity: 0.3; stroke-width: 0.8; stroke-linecap: square"/>
     </g>
     <g id="line2d_26">
      <defs>
       <path id="m8331993f3d" d="M 0 0 
L -3.5 0 
" style="stroke: #000000; stroke-width: 0.8"/>
      </defs>
      <g>
       <use xlink:href="#m8331993f3d" x="34.216191" y="257.537703" style="stroke: #000000; stroke-width: 0.8"/>
      </g>
     </g>
     <g id="text_13">
      <!-- 0 -->
      <g transform="translate(21.675566 261.51739) scale(0.1 -0.1)">
       <use xlink:href="#STHeiti-30"/>
      </g>
     </g>
    </g>
    <g id="ytick_2">
     <g id="line2d_27">
      <path d="M 34.216191 203.291027 
L 700.406726 203.291027 
" clip-path="url(#pf5037ec570)" style="fill: none; stroke: #b0b0b0; stroke-opacity: 0.3; stroke-width: 0.8; stroke-linecap: square"/>
     </g>
     <g id="line2d_28">
      <g>
       <use xlink:href="#m8331993f3d" x="34.216191" y="203.291027" style="stroke: #000000; stroke-width: 0.8"/>
      </g>
     </g>
     <g id="text_14">
      <!-- 1 -->
      <g transform="translate(21.675566 207.270714) scale(0.1 -0.1)">
       <defs>
        <path id="STHeiti-31" d="M 1184 4979 
L 2086 4979 
L 2086 384 
L 1632 384 
L 1632 4531 
L 909 4531 
L 1184 4979 
z
" transform="scale(0.015625)"/>
       </defs>
       <use xlink:href="#STHeiti-31"/>
      </g>
     </g>
    </g>
    <g id="ytick_3">
     <g id="line2d_29">
      <path d="M 34.216191 149.044351 
L 700.406726 149.044351 
" clip-path="url(#pf5037ec570)" style="fill: none; stroke: #b0b0b0; stroke-opacity: 0.3; stroke-width: 0.8; stroke-linecap: square"/>
     </g>
     <g id="line2d_30">
      <g>
       <use xlink:href="#m8331993f3d" x="34.216191" y="149.044351" style="stroke: #000000; stroke-width: 0.8"/>
      </g>
     </g>
     <g id="text_15">
      <!-- 2 -->
      <g transform="translate(21.675566 153.024039) scale(0.1 -0.1)">
       <use xlink:href="#STHeiti-32"/>
      </g>
     </g>
    </g>
    <g id="ytick_4">
     <g id="line2d_31">
      <path d="M 34.216191 94.797675 
L 700.406726 94.797675 
" clip-path="url(#pf5037ec570)" style="fill: none; stroke: #b0b0b0; stroke-opacity: 0.3; stroke-width: 0.8; stroke-linecap: square"/>
     </g>
     <g id="line2d_32">
      <g>
       <use xlink:href="#m8331993f3d" x="34.216191" y="94.797675" style="stroke: #000000; stroke-width: 0.8"/>
      </g>
     </g>
     <g id="text_16">
      <!-- 3 -->
      <g transform="translate(21.675566 98.777363) scale(0.1 -0.1)">
       <use xlink:href="#STHeiti-33"/>
      </g>
     </g>
    </g>
    <g id="ytick_5">
     <g id="line2d_33">
      <path d="M 34.216191 40.550999 
L 700.406726 40.550999 
" clip-path="url(#pf5037ec570)" style="fill: none; stroke: #b0b0b0; stroke-opacity: 0.3; stroke-width: 0.8; stroke-linecap: square"/>
     </g>
     <g id="line2d_34">
      <g>
       <use xlink:href="#m8331993f3d" x="34.216191" y="40.550999" style="stroke: #000000; stroke-width: 0.8"/>
      </g>
     </g>
     <g id="text_17">
      <!-- 4 -->
      <g transform="translate(21.675566 44.530687) scale(0.1 -0.1)">
       <defs>
        <path id="STHeiti-34" d="M 2726 5094 
L 2816 5094 
L 2816 1894 
L 3373 1894 
L 3373 1453 
L 2816 1453 
L 2816 384 
L 2362 384 
L 2362 1453 
L 160 1453 
L 2726 5094 
z
M 2362 1894 
L 2362 3808 
L 1005 1894 
L 2362 1894 
z
" transform="scale(0.015625)"/>
       </defs>
       <use xlink:href="#STHeiti-34"/>
      </g>
     </g>
    </g>
    <g id="text_18">
     <!-- 1e13 -->
     <g transform="translate(34.216191 15.159375) scale(0.1 -0.1)">
      <defs>
       <path id="STHeiti-65" d="M 3347 1485 
L 3718 1293 
Q 3168 269 2093 269 
Q 1325 269 825 797 
Q 326 1325 326 2067 
Q 326 2810 828 3341 
Q 1331 3872 2070 3872 
Q 2810 3872 3312 3379 
Q 3814 2886 3834 2035 
L 774 2035 
Q 794 1421 1162 1046 
Q 1530 672 2054 672 
Q 2918 672 3347 1485 
z
M 3347 2413 
Q 3258 2899 2899 3174 
Q 2541 3450 2074 3450 
Q 1114 3450 819 2413 
L 3347 2413 
z
" transform="scale(0.015625)"/>
      </defs>
      <use xlink:href="#STHeiti-31"/>
      <use xlink:href="#STHeiti-65" transform="translate(55.399994 0)"/>
      <use xlink:href="#STHeiti-31" transform="translate(120.399979 0)"/>
      <use xlink:href="#STHeiti-33" transform="translate(175.799973 0)"/>
     </g>
    </g>
   </g>
   <g id="line2d_35">
    <path d="M 64.497579 257.537703 
L 119.554648 257.537703 
L 174.611717 257.537703 
L 229.668786 257.537703 
L 284.725855 257.537703 
L 339.782924 257.537703 
L 394.839993 29.558343 
L 449.897062 257.537703 
L 504.954131 257.537703 
L 560.0112 257.537703 
L 615.068269 257.537703 
L 670.125338 257.537703 
" clip-path="url(#pf5037ec570)" style="fill: none; stroke: #1a365d; stroke-width: 2; stroke-linecap: square"/>
    <defs>
     <path id="md04d1c8f2d" d="M 0 3 
C 0.795609 3 1.55874 2.683901 2.12132 2.12132 
C 2.683901 1.55874 3 0.795609 3 0 
C 3 -0.795609 2.683901 -1.55874 2.12132 -2.12132 
C 1.55874 -2.683901 0.795609 -3 0 -3 
C -0.795609 -3 -1.55874 -2.683901 -2.12132 -2.12132 
C -2.683901 -1.55874 -3 -0.795609 -3 0 
C -3 0.795609 -2.683901 1.55874 -2.12132 2.12132 
C -1.55874 2.683901 -0.795609 3 0 3 
z
" style="stroke: #1a365d"/>
    </defs>
    <g clip-path="url(#pf5037ec570)">
     <use xlink:href="#md04d1c8f2d" x="64.497579" y="257.537703" style="fill: #1a365d; stroke: #1a365d"/>
     <use xlink:href="#md04d1c8f2d" x="119.554648" y="257.537703" style="fill: #1a365d; stroke: #1a365d"/>
     <use xlink:href="#md04d1c8f2d" x="174.611717" y="257.537703" style="fill: #1a365d; stroke: #1a365d"/>
     <use xlink:href="#md04d1c8f2d" x="229.668786" y="257.537703" style="fill: #1a365d; stroke: #1a365d"/>
     <use xlink:href="#md04d1c8f2d" x="284.725855" y="257.537703" style="fill: #1a365d; stroke: #1a365d"/>
     <use xlink:href="#md04d1c8f2d" x="339.782924" y="257.537703" style="fill: #1a365d; stroke: #1a365d"/>
     <use xlink:href="#md04d1c8f2d" x="394.839993" y="29.558343" style="fill: #1a365d; stroke: #1a365d"/>
     <use xlink:href="#md04d1c8f2d" x="449.897062" y="257.537703" style="fill: #1a365d; stroke: #1a365d"/>
     <use xlink:href="#md04d1c8f2d" x="504.954131" y="257.537703" style="fill: #1a365d; stroke: #1a365d"/>
     <use xlink:href="#md04d1c8f2d" x="560.0112" y="257.537703" style="fill: #1a365d; stroke: #1a365d"/>
     <use xlink:href="#md04d1c8f2d" x="615.068269" y="257.537703" style="fill: #1a365d; stroke: #1a365d"/>
     <use xlink:href="#md04d1c8f2d" x="670.125338" y="257.537703" style="fill: #1a365d; stroke: #1a365d"/>
    </g>
   </g>
   <g id="line2d_36">
    <path d="M 64.497579 257.537703 
L 119.554648 257.537703 
L 174.611717 257.537703 
L 229.668786 257.537703 
L 284.725855 257.537703 
L 339.782924 257.537703 
M 504.954131 257.537703 
L 560.0112 257.537703 
L 615.068269 257.537703 
L 670.125338 257.537703 
" clip-path="url(#pf5037ec570)" style="fill: none; stroke: #d69e2e; stroke-width: 2; stroke-linecap: square"/>
    <defs>
     <path id="ma12b3e74ae" d="M 0 3 
C 0.795609 3 1.55874 2.683901 2.12132 2.12132 
C 2.683901 1.55874 3 0.795609 3 0 
C 3 -0.795609 2.683901 -1.55874 2.12132 -2.12132 
C 1.55874 -2.683901 0.795609 -3 0 -3 
C -0.795609 -3 -1.55874 -2.683901 -2.12132 -2.12132 
C -2.683901 -1.55874 -3 -0.795609 -3 0 
C -3 0.795609 -2.683901 1.55874 -2.12132 2.12132 
C -1.55874 2.683901 -0.795609 3 0 3 
z
" style="stroke: #d69e2e"/>
    </defs>
    <g clip-path="url(#pf5037ec570)">
     <use xlink:href="#ma12b3e74ae" x="64.497579" y="257.537703" style="fill: #d69e2e; stroke: #d69e2e"/>
     <use xlink:href="#ma12b3e74ae" x="119.554648" y="257.537703" style="fill: #d69e2e; stroke: #d69e2e"/>
     <use xlink:href="#ma12b3e74ae" x="174.611717" y="257.537703" style="fill: #d69e2e; stroke: #d69e2e"/>
     <use xlink:href="#ma12b3e74ae" x="229.668786" y="257.537703" style="fill: #d69e2e; stroke: #d69e2e"/>
     <use xlink:href="#ma12b3e74ae" x="284.725855" y="257.537703" style="fill: #d69e2e; stroke: #d69e2e"/>
     <use xlink:href="#ma12b3e74ae" x="339.782924" y="257.537703" style="fill: #d69e2e; stroke: #d69e2e"/>
     <use xlink:href="#ma12b3e74ae" x="504.954131" y="257.537703" style="fill: #d69e2e; stroke: #d69e2e"/>
     <use xlink:href="#ma12b3e74ae" x="560.0112" y="257.537703" style="fill: #d69e2e; stroke: #d69e2e"/>
     <use xlink:href="#ma12b3e74ae" x="615.068269" y="257.537703" style="fill: #d69e2e; stroke: #d69e2e"/>
     <use xlink:href="#ma12b3e74ae" x="670.125338" y="257.537703" style="fill: #d69e2e; stroke: #d69e2e"/>
    </g>
   </g>
   <g id="line2d_37">
    <path d="M 64.497579 257.537703 
L 119.554648 257.537703 
L 174.611717 257.537703 
L 229.668786 257.537703 
L 284.725855 257.537703 
L 339.782924 257.537703 
L 394.839993 257.537703 
L 449.897062 257.537703 
L 504.954131 257.537703 
L 560.0112 257.537703 
L 615.068269 257.537703 
L 670.125338 257.537703 
" clip-path="url(#pf5037ec570)" style="fill: none; stroke: #38a169; stroke-width: 2; stroke-linecap: square"/>
    <defs>
     <path id="m20f1498182" d="M 0 3 
C 0.795609 3 1.55874 2.683901 2.12132 2.12132 
C 2.683901 1.55874 3 0.795609 3 0 
C 3 -0.795609 2.683901 -1.55874 2.12132 -2.12132 
C 1.55874 -2.683901 0.795609 -3 0 -3 
C -0.795609 -3 -1.55874 -2.683901 -2.12132 -2.12132 
C -2.683901 -1.55874 -3 -0.795609 -3 0 
C -3 0.795609 -2.683901 1.55874 -2.12132 2.12132 
C -1.55874 2.683901 -0.795609 3 0 3 
z
" style="stroke: #38a169"/>
    </defs>
    <g clip-path="url(#pf5037ec570)">
     <use xlink:href="#m20f1498182" x="64.497579" y="257.537703" style="fill: #38a169; stroke: #38a169"/>
     <use xlink:href="#m20f1498182" x="119.554648" y="257.537703" style="fill: #38a169; stroke: #38a169"/>
     <use xlink:href="#m20f1498182" x="174.611717" y="257.537703" style="fill: #38a169; stroke: #38a169"/>
     <use xlink:href="#m20f1498182" x="229.668786" y="257.537703" style="fill: #38a169; stroke: #38a169"/>
     <use xlink:href="#m20f1498182" x="284.725855" y="257.537703" style="fill: #38a169; stroke: #38a169"/>
     <use xlink:href="#m20f1498182" x="339.782924" y="257.537703" style="fill: #38a169; stroke: #38a169"/>
     <use xlink:href="#m20f1498182" x="394.839993" y="257.537703" style="fill: #38a169; stroke: #38a169"/>
     <use xlink:href="#m20f1498182" x="449.897062" y="257.537703" style="fill: #38a169; stroke: #38a169"/>
     <use xlink:href="#m20f1498182" x="504.954131" y="257.537703" style="fill: #38a169; stroke: #38a169"/>
     <use xlink:href="#m20f1498182" x="560.0112" y="257.537703" style="fill: #38a169; stroke: #38a169"/>
     <use xlink:href="#m20f1498182" x="615.068269" y="257.537703" style="fill: #38a169; stroke: #38a169"/>
     <use xlink:href="#m20f1498182" x="670.125338" y="257.537703" style="fill: #38a169; stroke: #38a169"/>
    </g>
   </g>
   <g id="patch_3">
    <path d="M 34.216191 268.936671 
L 34.216191 18.159375 
" style="fill: none; stroke: #000000; stroke-width: 0.8; stroke-linejoin: miter; stroke-linecap: square"/>
   </g>
   <g id="patch_4">
    <path d="M 700.406726 268.936671 
L 700.406726 18.159375 
" style="fill: none; stroke: #000000; stroke-width: 0.8; stroke-linejoin: miter; stroke-linecap: square"/>
   </g>
   <g id="patch_5">
    <path d="M 34.216191 268.936671 
L 700.406726 268.936671 
" style="fill: none; stroke: #000000; stroke-width: 0.8; stroke-linejoin: miter; stroke-linecap: square"/>
   </g>
   <g id="patch_6">
    <path d="M 34.216191 18.159375 
L 700.406726 18.159375 
" style="fill: none; stroke: #000000; stroke-width: 0.8; stroke-linejoin: miter; stroke-linecap: square"/>
   </g>
   <g id="legend_1">
    <g id="patch_7">
     <path d="M 590.387351 64.059375 
L 694.106726 64.059375 
Q 695.906726 64.059375 695.906726 62.259375 
L 695.906726 24.459375 
Q 695.906726 22.659375 694.106726 22.659375 
L 590.387351 22.659375 
Q 588.587351 22.659375 588.587351 24.459375 
L 588.587351 62.259375 
Q 588.587351 64.059375 590.387351 64.059375 
z
" style="fill: #ffffff; opacity: 0.8; stroke: #cccccc; stroke-linejoin: miter"/>
    </g>
    <g id="line2d_38">
     <path d="M 592.187351 30.272813 
L 601.187351 30.272813 
L 610.187351 30.272813 
" style="fill: none; stroke: #1a365d; stroke-width: 2; stroke-linecap: square"/>
     <g>
      <use xlink:href="#md04d1c8f2d" x="601.187351" y="30.272813" style="fill: #1a365d; stroke: #1a365d"/>
     </g>
    </g>
    <g id="text_19">
     <!-- 202512版 -->
     <g transform="translate(617.387351 33.422813) scale(0.09 -0.09)">
      <defs>
       <path id="STHeiti-7248" d="M 1190 2880 
Q 1190 2349 1184 2150 
L 1914 2150 
Q 2202 2150 2381 2176 
Q 2355 2061 2355 1760 
L 2355 838 
Q 2355 416 2381 90 
L 1850 90 
Q 1888 378 1888 838 
L 1888 1779 
L 1171 1779 
Q 1146 1062 1059 556 
Q 973 51 730 -582 
Q 570 -384 326 -230 
Q 621 544 672 1309 
Q 723 2074 723 3197 
Q 723 4320 698 4730 
Q 896 4698 1056 4698 
L 1229 4704 
Q 1293 4704 1293 4678 
Q 1293 4653 1261 4614 
Q 1190 4518 1190 3309 
L 1798 3309 
L 1798 4378 
Q 1798 4870 1779 5114 
Q 2086 5056 2342 5056 
Q 2432 5056 2432 5014 
Q 2432 4973 2387 4947 
Q 2266 4877 2266 4723 
L 2266 3309 
Q 2560 3309 2746 3341 
L 2746 2848 
Q 2573 2880 2118 2880 
L 1190 2880 
z
M 3635 3053 
L 3450 3053 
Q 3437 1658 3296 931 
Q 3155 205 2656 -557 
Q 2477 -390 2163 -326 
Q 2720 294 2848 1222 
Q 2976 2150 2976 3520 
Q 2976 4294 2925 4698 
Q 3693 4691 4419 4780 
Q 5146 4870 5581 5030 
Q 5626 4870 5712 4707 
Q 5798 4544 5859 4483 
Q 5920 4422 5920 4393 
Q 5920 4365 5885 4365 
Q 5850 4365 5818 4371 
Q 5741 4390 5517 4390 
Q 5293 4390 5005 4352 
Q 4179 4243 3450 4250 
L 3450 3462 
L 4730 3462 
Q 5402 3462 5741 3520 
Q 5446 1472 4941 717 
Q 5523 166 6195 58 
Q 5965 -205 5875 -544 
Q 5107 -173 4646 339 
Q 4186 -160 3590 -576 
Q 3488 -371 3174 -173 
Q 3846 134 4339 698 
Q 3808 1677 3635 3053 
z
M 4096 3053 
Q 4134 2522 4281 1971 
Q 4429 1421 4621 1075 
Q 4992 1728 5152 3053 
L 4096 3053 
z
" transform="scale(0.015625)"/>
      </defs>
      <use xlink:href="#STHeiti-32"/>
      <use xlink:href="#STHeiti-30" transform="translate(55.399994 0)"/>
      <use xlink:href="#STHeiti-32" transform="translate(110.799988 0)"/>
      <use xlink:href="#STHeiti-35" transform="translate(166.199982 0)"/>
      <use xlink:href="#STHeiti-31" transform="translate(221.599976 0)"/>
      <use xlink:href="#STHeiti-32" transform="translate(276.999969 0)"/>
      <use xlink:href="#STHeiti-7248" transform="translate(332.399963 0)"/>
     </g>
    </g>
    <g id="line2d_39">
     <path d="M 592.187351 43.142813 
L 601.187351 43.142813 
L 610.187351 43.142813 
" style="fill: none; stroke: #d69e2e; stroke-width: 2; stroke-linecap: square"/>
     <g>
      <use xlink:href="#ma12b3e74ae" x="601.187351" y="43.142813" style="fill: #d69e2e; stroke: #d69e2e"/>
     </g>
    </g>
    <g id="text_20">
     <!-- 202604版 -->
     <g transform="translate(617.387351 46.292813) scale(0.09 -0.09)">
      <use xlink:href="#STHeiti-32"/>
      <use xlink:href="#STHeiti-30" transform="translate(55.399994 0)"/>
      <use xlink:href="#STHeiti-32" transform="translate(110.799988 0)"/>
      <use xlink:href="#STHeiti-36" transform="translate(166.199982 0)"/>
      <use xlink:href="#STHeiti-30" transform="translate(221.599976 0)"/>
      <use xlink:href="#STHeiti-34" transform="translate(276.999969 0)"/>
      <use xlink:href="#STHeiti-7248" transform="translate(332.399963 0)"/>
     </g>
    </g>
    <g id="line2d_40">
     <path d="M 592.187351 56.102813 
L 601.187351 56.102813 
L 610.187351 56.102813 
" style="fill: none; stroke: #38a169; stroke-width: 2; stroke-linecap: square"/>
     <g>
      <use xlink:href="#m20f1498182" x="601.187351" y="56.102813" style="fill: #38a169; stroke: #38a169"/>
     </g>
    </g>
    <g id="text_21">
     <!-- 202605版（最新） -->
     <g transform="translate(617.387351 59.252813) scale(0.09 -0.09)">
      <defs>
       <path id="STHeiti-ff08" d="M 5651 -749 
L 5274 -749 
Q 4646 173 4409 835 
Q 4173 1498 4173 2266 
Q 4173 3034 4432 3750 
Q 4691 4467 5254 5267 
L 5645 5267 
Q 5082 4237 4928 3606 
Q 4774 2976 4774 2093 
Q 4774 1472 4953 861 
Q 5133 250 5651 -749 
z
" transform="scale(0.015625)"/>
       <path id="STHeiti-6700" d="M 5190 3117 
Q 4710 3162 3219 3162 
Q 1728 3162 1254 3117 
Q 1299 3232 1299 3520 
L 1299 4570 
Q 1299 4877 1254 4986 
Q 1779 4947 3225 4947 
Q 4672 4947 5190 4986 
Q 5152 4877 5152 4570 
L 5152 3520 
Q 5152 3219 5190 3117 
z
M 4634 4205 
L 4634 4563 
L 1792 4563 
L 1792 4205 
L 4634 4205 
z
M 4634 3514 
L 4634 3853 
L 1792 3853 
L 1792 3514 
L 4634 3514 
z
M 1056 2406 
Q 838 2400 403 2362 
L 403 2880 
Q 960 2816 3161 2816 
Q 5363 2816 5907 2880 
L 5907 2362 
Q 5568 2413 3040 2413 
L 3040 570 
L 3398 634 
Q 3373 390 3379 205 
L 3040 179 
Q 3053 -358 3085 -666 
L 2554 -666 
Q 2592 -224 2592 128 
Q 1894 38 634 -211 
Q 602 38 506 320 
Q 730 326 1056 346 
L 1056 2406 
z
M 2598 2413 
L 1498 2413 
L 1498 2003 
L 2598 2003 
L 2598 2413 
z
M 2598 1216 
L 2598 1664 
L 1498 1664 
L 1498 1216 
L 2598 1216 
z
M 2598 506 
L 2598 890 
L 1498 890 
L 1498 390 
L 2598 506 
z
M 4723 307 
Q 5216 19 5894 0 
Q 5709 -288 5645 -589 
Q 4858 -352 4416 -26 
Q 4109 -314 3616 -653 
Q 3456 -429 3187 -282 
Q 3718 -45 4077 269 
Q 3731 646 3462 1235 
L 3853 1363 
Q 4058 883 4371 576 
Q 4723 1011 4870 1613 
Q 3674 1613 3360 1574 
L 3360 2048 
Q 3725 2003 4425 2003 
Q 5126 2003 5478 2048 
Q 5216 883 4723 307 
z
" transform="scale(0.015625)"/>
       <path id="STHeiti-ff09" d="M 1120 5267 
Q 1747 4346 1984 3683 
Q 2221 3021 2221 2253 
Q 2221 1485 1961 768 
Q 1702 51 1139 -749 
L 749 -749 
Q 1312 282 1465 912 
Q 1619 1542 1619 2426 
Q 1619 3046 1440 3657 
Q 1261 4269 742 5267 
L 1120 5267 
z
" transform="scale(0.015625)"/>
      </defs>
      <use xlink:href="#STHeiti-32"/>
      <use xlink:href="#STHeiti-30" transform="translate(55.399994 0)"/>
      <use xlink:href="#STHeiti-32" transform="translate(110.799988 0)"/>
      <use xlink:href="#STHeiti-36" transform="translate(166.199982 0)"/>
      <use xlink:href="#STHeiti-30" transform="translate(221.599976 0)"/>
      <use xlink:href="#STHeiti-35" transform="translate(276.999969 0)"/>
      <use xlink:href="#STHeiti-7248" transform="translate(332.399963 0)"/>
      <use xlink:href="#STHeiti-ff08" transform="translate(432.399948 0)"/>
      <use xlink:href="#STHeiti-6700" transform="translate(532.399933 0)"/>
      <use xlink:href="#STHeiti-65b0" transform="translate(632.399918 0)"/>
      <use xlink:href="#STHeiti-ff09" transform="translate(732.399902 0)"/>
     </g>
    </g>
   </g>
  </g>
 </g>
 <defs>
  <clipPath id="pf5037ec570">
   <rect x="34.216191" y="18.159375" width="666.190535" height="250.777296"/>
  </clipPath>
 </defs>
</svg>
