<?xml version="1.0" encoding="utf-8" standalone="no"?>
<!DOCTYPE svg PUBLIC "-//W3C//DTD SVG 1.1//EN"
  "http://www.w3.org/Graphics/SVG/1.1/DTD/svg11.dtd">
<svg xmlns:xlink="http://www.w3.org/1999/xlink" width="712.81125pt" height="352.141375pt" viewBox="0 0 712.81125 352.141375" xmlns="http://www.w3.org/2000/svg" version="1.1">
 <metadata>
  <rdf:RDF xmlns:dc="http://purl.org/dc/elements/1.1/" xmlns:cc="http://creativecommons.org/ns#" xmlns:rdf="http://www.w3.org/1999/02/22-rdf-syntax-ns#">
   <cc:Work>
    <dc:type rdf:resource="http://purl.org/dc/dcmitype/StillImage"/>
    <dc:date>2026-06-05T10:58:58.269778</dc:date>
    <dc:format>image/svg+xml</dc:format>
    <dc:creator>
     <cc:Agent>
      <dc:title>Matplotlib v3.10.9, https://matplotlib.org/</dc:title>
     </cc:Agent>
    </dc:creator>
   </cc:Work>
  </rdf:RDF>
 </metadata>
 <defs>
  <style type="text/css">*{stroke-linejoin: round; stroke-linecap: butt}</style>
 </defs>
 <g id="figure_1">
  <g id="patch_1">
   <path d="M 0 352.141375 
L 712.81125 352.141375 
L 712.81125 0 
L 0 0 
z
" style="fill: #ffffff"/>
  </g>
  <g id="axes_1">
   <g id="patch_2">
    <path d="M 25.28125 313.265464 
L 705.61125 313.265464 
L 705.61125 7.2 
L 25.28125 7.2 
z
" style="fill: #fafafa"/>
   </g>
   <g id="matplotlib.axis_1">
    <g id="xtick_1">
     <g id="line2d_1">
      <path d="M 56.205341 313.265464 
L 56.205341 7.2 
" clip-path="url(#p0d1195e58a)" style="fill: none; stroke: #b0b0b0; stroke-opacity: 0.3; stroke-width: 0.8; stroke-linecap: square"/>
     </g>
     <g id="line2d_2">
      <defs>
       <path id="m8be39bf661" d="M 0 0 
L 0 3.5 
" style="stroke: #000000; stroke-width: 0.8"/>
      </defs>
      <g>
       <use xlink:href="#m8be39bf661" x="56.205341" y="313.265464" style="stroke: #000000; stroke-width: 0.8"/>
      </g>
     </g>
     <g id="text_1">
      <!-- 202512 -->
      <g transform="translate(26.745096 343.78036) rotate(-30) scale(0.1 -0.1)">
       <defs>
        <path id="STHeiti-32" d="M 742 3539 
L 301 3539 
Q 333 4243 768 4668 
Q 1203 5094 1820 5094 
Q 2438 5094 2844 4694 
Q 3251 4294 3251 3718 
Q 3251 3290 3024 2925 
Q 2797 2560 2336 2061 
L 1190 826 
L 3315 826 
L 3315 384 
L 192 384 
L 1946 2278 
Q 2406 2778 2604 3066 
Q 2803 3354 2803 3725 
Q 2803 4096 2512 4377 
Q 2221 4659 1789 4659 
Q 1357 4659 1072 4368 
Q 787 4077 742 3539 
z
" transform="scale(0.015625)"/>
        <path id="STHeiti-30" d="M 1747 269 
Q 1005 269 605 880 
Q 205 1491 205 2681 
Q 205 3872 605 4483 
Q 1005 5094 1741 5094 
Q 2477 5094 2909 4470 
Q 3341 3846 3341 2681 
Q 3341 1517 2905 893 
Q 2470 269 1747 269 
z
M 1760 4659 
Q 1229 4659 934 4147 
Q 640 3635 640 2669 
Q 640 685 1760 685 
Q 2304 685 2608 1206 
Q 2912 1728 2912 2681 
Q 2912 3635 2598 4147 
Q 2285 4659 1760 4659 
z
" transform="scale(0.015625)"/>
        <path id="STHeiti-35" d="M 3149 4979 
L 3149 4544 
L 1510 4544 
L 1280 3290 
Q 1587 3379 1856 3379 
Q 2458 3379 2861 2953 
Q 3264 2528 3264 1862 
Q 3264 1197 2825 733 
Q 2387 269 1664 269 
Q 1114 269 726 598 
Q 339 928 262 1498 
L 730 1498 
Q 813 1114 1075 909 
Q 1338 704 1683 704 
Q 2138 704 2467 1043 
Q 2797 1382 2797 1888 
Q 2797 2349 2509 2646 
Q 2221 2944 1757 2944 
Q 1293 2944 730 2701 
L 1158 4979 
L 3149 4979 
z
" transform="scale(0.015625)"/>
        <path id="STHeiti-31" d="M 1184 4979 
L 2086 4979 
L 2086 384 
L 1632 384 
L 1632 4531 
L 909 4531 
L 1184 4979 
z
" transform="scale(0.015625)"/>
       </defs>
       <use xlink:href="#STHeiti-32"/>
       <use xlink:href="#STHeiti-30" transform="translate(55.399994 0)"/>
       <use xlink:href="#STHeiti-32" transform="translate(110.799988 0)"/>
       <use xlink:href="#STHeiti-35" transform="translate(166.199982 0)"/>
       <use xlink:href="#STHeiti-31" transform="translate(221.599976 0)"/>
       <use xlink:href="#STHeiti-32" transform="translate(276.999969 0)"/>
      </g>
     </g>
    </g>
    <g id="xtick_2">
     <g id="line2d_3">
      <path d="M 365.44625 313.265464 
L 365.44625 7.2 
" clip-path="url(#p0d1195e58a)" style="fill: none; stroke: #b0b0b0; stroke-opacity: 0.3; stroke-width: 0.8; stroke-linecap: square"/>
     </g>
     <g id="line2d_4">
      <g>
       <use xlink:href="#m8be39bf661" x="365.44625" y="313.265464" style="stroke: #000000; stroke-width: 0.8"/>
      </g>
     </g>
     <g id="text_2">
      <!-- 202604 -->
      <g transform="translate(335.986005 343.78036) rotate(-30) scale(0.1 -0.1)">
       <defs>
        <path id="STHeiti-36" d="M 2349 5094 
L 2726 4851 
L 1485 2970 
Q 1747 3059 1984 3059 
Q 2496 3059 2880 2652 
Q 3264 2246 3264 1660 
Q 3264 1075 2845 672 
Q 2426 269 1827 269 
Q 1229 269 829 678 
Q 429 1088 429 1677 
Q 429 1958 537 2256 
Q 646 2554 954 3014 
L 2349 5094 
z
M 2810 1683 
Q 2810 2086 2528 2368 
Q 2246 2650 1843 2650 
Q 1440 2650 1158 2368 
Q 877 2086 877 1683 
Q 877 1280 1161 998 
Q 1446 717 1843 717 
Q 2240 717 2525 998 
Q 2810 1280 2810 1683 
z
" transform="scale(0.015625)"/>
        <path id="STHeiti-34" d="M 2726 5094 
L 2816 5094 
L 2816 1894 
L 3373 1894 
L 3373 1453 
L 2816 1453 
L 2816 384 
L 2362 384 
L 2362 1453 
L 160 1453 
L 2726 5094 
z
M 2362 1894 
L 2362 3808 
L 1005 1894 
L 2362 1894 
z
" transform="scale(0.015625)"/>
       </defs>
       <use xlink:href="#STHeiti-32"/>
       <use xlink:href="#STHeiti-30" transform="translate(55.399994 0)"/>
       <use xlink:href="#STHeiti-32" transform="translate(110.799988 0)"/>
       <use xlink:href="#STHeiti-36" transform="translate(166.199982 0)"/>
       <use xlink:href="#STHeiti-30" transform="translate(221.599976 0)"/>
       <use xlink:href="#STHeiti-34" transform="translate(276.999969 0)"/>
      </g>
     </g>
    </g>
    <g id="xtick_3">
     <g id="line2d_5">
      <path d="M 674.687159 313.265464 
L 674.687159 7.2 
" clip-path="url(#p0d1195e58a)" style="fill: none; stroke: #b0b0b0; stroke-opacity: 0.3; stroke-width: 0.8; stroke-linecap: square"/>
     </g>
     <g id="line2d_6">
      <g>
       <use xlink:href="#m8be39bf661" x="674.687159" y="313.265464" style="stroke: #000000; stroke-width: 0.8"/>
      </g>
     </g>
     <g id="text_3">
      <!-- 202605 -->
      <g transform="translate(645.226915 343.78036) rotate(-30) scale(0.1 -0.1)">
       <use xlink:href="#STHeiti-32"/>
       <use xlink:href="#STHeiti-30" transform="translate(55.399994 0)"/>
       <use xlink:href="#STHeiti-32" transform="translate(110.799988 0)"/>
       <use xlink:href="#STHeiti-36" transform="translate(166.199982 0)"/>
       <use xlink:href="#STHeiti-30" transform="translate(221.599976 0)"/>
       <use xlink:href="#STHeiti-35" transform="translate(276.999969 0)"/>
      </g>
     </g>
    </g>
   </g>
   <g id="matplotlib.axis_2">
    <g id="ytick_1">
     <g id="line2d_7">
      <path d="M 25.28125 299.353397 
L 705.61125 299.353397 
" clip-path="url(#p0d1195e58a)" style="fill: none; stroke: #b0b0b0; stroke-opacity: 0.3; stroke-width: 0.8; stroke-linecap: square"/>
     </g>
     <g id="line2d_8">
      <defs>
       <path id="m2e49a85849" d="M 0 0 
L -3.5 0 
" style="stroke: #000000; stroke-width: 0.8"/>
      </defs>
      <g>
       <use xlink:href="#m2e49a85849" x="25.28125" y="299.353397" style="stroke: #000000; stroke-width: 0.8"/>
      </g>
     </g>
     <g id="text_4">
      <!-- 0 -->
      <g transform="translate(12.740625 303.333085) scale(0.1 -0.1)">
       <use xlink:href="#STHeiti-30"/>
      </g>
     </g>
    </g>
    <g id="ytick_2">
     <g id="line2d_9">
      <path d="M 25.28125 243.705131 
L 705.61125 243.705131 
" clip-path="url(#p0d1195e58a)" style="fill: none; stroke: #b0b0b0; stroke-opacity: 0.3; stroke-width: 0.8; stroke-linecap: square"/>
     </g>
     <g id="line2d_10">
      <g>
       <use xlink:href="#m2e49a85849" x="25.28125" y="243.705131" style="stroke: #000000; stroke-width: 0.8"/>
      </g>
     </g>
     <g id="text_5">
      <!-- 2 -->
      <g transform="translate(12.740625 247.684819) scale(0.1 -0.1)">
       <use xlink:href="#STHeiti-32"/>
      </g>
     </g>
    </g>
    <g id="ytick_3">
     <g id="line2d_11">
      <path d="M 25.28125 188.056865 
L 705.61125 188.056865 
" clip-path="url(#p0d1195e58a)" style="fill: none; stroke: #b0b0b0; stroke-opacity: 0.3; stroke-width: 0.8; stroke-linecap: square"/>
     </g>
     <g id="line2d_12">
      <g>
       <use xlink:href="#m2e49a85849" x="25.28125" y="188.056865" style="stroke: #000000; stroke-width: 0.8"/>
      </g>
     </g>
     <g id="text_6">
      <!-- 4 -->
      <g transform="translate(12.740625 192.036553) scale(0.1 -0.1)">
       <use xlink:href="#STHeiti-34"/>
      </g>
     </g>
    </g>
    <g id="ytick_4">
     <g id="line2d_13">
      <path d="M 25.28125 132.408599 
L 705.61125 132.408599 
" clip-path="url(#p0d1195e58a)" style="fill: none; stroke: #b0b0b0; stroke-opacity: 0.3; stroke-width: 0.8; stroke-linecap: square"/>
     </g>
     <g id="line2d_14">
      <g>
       <use xlink:href="#m2e49a85849" x="25.28125" y="132.408599" style="stroke: #000000; stroke-width: 0.8"/>
      </g>
     </g>
     <g id="text_7">
      <!-- 6 -->
      <g transform="translate(12.740625 136.388286) scale(0.1 -0.1)">
       <use xlink:href="#STHeiti-36"/>
      </g>
     </g>
    </g>
    <g id="ytick_5">
     <g id="line2d_15">
      <path d="M 25.28125 76.760333 
L 705.61125 76.760333 
" clip-path="url(#p0d1195e58a)" style="fill: none; stroke: #b0b0b0; stroke-opacity: 0.3; stroke-width: 0.8; stroke-linecap: square"/>
     </g>
     <g id="line2d_16">
      <g>
       <use xlink:href="#m2e49a85849" x="25.28125" y="76.760333" style="stroke: #000000; stroke-width: 0.8"/>
      </g>
     </g>
     <g id="text_8">
      <!-- 8 -->
      <g transform="translate(12.740625 80.74002) scale(0.1 -0.1)">
       <defs>
        <path id="STHeiti-38" d="M 2458 2906 
Q 3328 2477 3328 1702 
Q 3328 1088 2896 678 
Q 2464 269 1763 269 
Q 1062 269 640 678 
Q 218 1088 218 1664 
Q 218 2470 1107 2906 
Q 435 3264 435 3898 
Q 435 4371 828 4732 
Q 1222 5094 1779 5094 
Q 2336 5094 2726 4742 
Q 3117 4390 3117 3885 
Q 3117 3270 2458 2906 
z
M 2656 3904 
Q 2656 4211 2416 4432 
Q 2176 4653 1789 4653 
Q 1402 4653 1152 4432 
Q 902 4211 902 3897 
Q 902 3584 1174 3337 
Q 1446 3091 1792 3091 
Q 2138 3091 2397 3334 
Q 2656 3578 2656 3904 
z
M 2867 1696 
Q 2867 2086 2550 2380 
Q 2234 2675 1782 2675 
Q 1331 2675 1004 2371 
Q 678 2067 678 1654 
Q 678 1242 979 973 
Q 1280 704 1766 704 
Q 2253 704 2560 992 
Q 2867 1280 2867 1696 
z
" transform="scale(0.015625)"/>
       </defs>
       <use xlink:href="#STHeiti-38"/>
      </g>
     </g>
    </g>
    <g id="ytick_6">
     <g id="line2d_17">
      <path d="M 25.28125 21.112067 
L 705.61125 21.112067 
" clip-path="url(#p0d1195e58a)" style="fill: none; stroke: #b0b0b0; stroke-opacity: 0.3; stroke-width: 0.8; stroke-linecap: square"/>
     </g>
     <g id="line2d_18">
      <g>
       <use xlink:href="#m2e49a85849" x="25.28125" y="21.112067" style="stroke: #000000; stroke-width: 0.8"/>
      </g>
     </g>
     <g id="text_9">
      <!-- 10 -->
      <g transform="translate(7.2 25.091754) scale(0.1 -0.1)">
       <use xlink:href="#STHeiti-31"/>
       <use xlink:href="#STHeiti-30" transform="translate(55.399994 0)"/>
      </g>
     </g>
    </g>
   </g>
   <g id="line2d_19">
    <path d="M 56.205341 188.056865 
M 674.687159 243.705131 
" clip-path="url(#p0d1195e58a)" style="fill: none; stroke: #1a365d; stroke-width: 2; stroke-linecap: square"/>
    <defs>
     <path id="m22dbfa4e41" d="M 0 3 
C 0.795609 3 1.55874 2.683901 2.12132 2.12132 
C 2.683901 1.55874 3 0.795609 3 0 
C 3 -0.795609 2.683901 -1.55874 2.12132 -2.12132 
C 1.55874 -2.683901 0.795609 -3 0 -3 
C -0.795609 -3 -1.55874 -2.683901 -2.12132 -2.12132 
C -2.683901 -1.55874 -3 -0.795609 -3 0 
C -3 0.795609 -2.683901 1.55874 -2.12132 2.12132 
C -1.55874 2.683901 -0.795609 3 0 3 
z
" style="stroke: #1a365d"/>
    </defs>
    <g clip-path="url(#p0d1195e58a)">
     <use xlink:href="#m22dbfa4e41" x="56.205341" y="188.056865" style="fill: #1a365d; stroke: #1a365d"/>
     <use xlink:href="#m22dbfa4e41" x="674.687159" y="243.705131" style="fill: #1a365d; stroke: #1a365d"/>
    </g>
   </g>
   <g id="line2d_20">
    <path d="M 56.205341 299.353397 
M 674.687159 243.705131 
" clip-path="url(#p0d1195e58a)" style="fill: none; stroke: #d69e2e; stroke-width: 2; stroke-linecap: square"/>
    <defs>
     <path id="mb754081504" d="M 0 3 
C 0.795609 3 1.55874 2.683901 2.12132 2.12132 
C 2.683901 1.55874 3 0.795609 3 0 
C 3 -0.795609 2.683901 -1.55874 2.12132 -2.12132 
C 1.55874 -2.683901 0.795609 -3 0 -3 
C -0.795609 -3 -1.55874 -2.683901 -2.12132 -2.12132 
C -2.683901 -1.55874 -3 -0.795609 -3 0 
C -3 0.795609 -2.683901 1.55874 -2.12132 2.12132 
C -1.55874 2.683901 -0.795609 3 0 3 
z
" style="stroke: #d69e2e"/>
    </defs>
    <g clip-path="url(#p0d1195e58a)">
     <use xlink:href="#mb754081504" x="56.205341" y="299.353397" style="fill: #d69e2e; stroke: #d69e2e"/>
     <use xlink:href="#mb754081504" x="674.687159" y="243.705131" style="fill: #d69e2e; stroke: #d69e2e"/>
    </g>
   </g>
   <g id="line2d_21">
    <path d="M 56.205341 160.232732 
M 674.687159 188.056865 
" clip-path="url(#p0d1195e58a)" style="fill: none; stroke: #38a169; stroke-width: 2; stroke-linecap: square"/>
    <defs>
     <path id="mbf1a7b04fc" d="M 0 3 
C 0.795609 3 1.55874 2.683901 2.12132 2.12132 
C 2.683901 1.55874 3 0.795609 3 0 
C 3 -0.795609 2.683901 -1.55874 2.12132 -2.12132 
C 1.55874 -2.683901 0.795609 -3 0 -3 
C -0.795609 -3 -1.55874 -2.683901 -2.12132 -2.12132 
C -2.683901 -1.55874 -3 -0.795609 -3 0 
C -3 0.795609 -2.683901 1.55874 -2.12132 2.12132 
C -1.55874 2.683901 -0.795609 3 0 3 
z
" style="stroke: #38a169"/>
    </defs>
    <g clip-path="url(#p0d1195e58a)">
     <use xlink:href="#mbf1a7b04fc" x="56.205341" y="160.232732" style="fill: #38a169; stroke: #38a169"/>
     <use xlink:href="#mbf1a7b04fc" x="674.687159" y="188.056865" style="fill: #38a169; stroke: #38a169"/>
    </g>
   </g>
   <g id="line2d_22">
    <path d="M 56.205341 160.232732 
M 674.687159 188.056865 
" clip-path="url(#p0d1195e58a)" style="fill: none; stroke: #e53e3e; stroke-width: 2; stroke-linecap: square"/>
    <defs>
     <path id="m60bdc937d8" d="M 0 3 
C 0.795609 3 1.55874 2.683901 2.12132 2.12132 
C 2.683901 1.55874 3 0.795609 3 0 
C 3 -0.795609 2.683901 -1.55874 2.12132 -2.12132 
C 1.55874 -2.683901 0.795609 -3 0 -3 
C -0.795609 -3 -1.55874 -2.683901 -2.12132 -2.12132 
C -2.683901 -1.55874 -3 -0.795609 -3 0 
C -3 0.795609 -2.683901 1.55874 -2.12132 2.12132 
C -1.55874 2.683901 -0.795609 3 0 3 
z
" style="stroke: #e53e3e"/>
    </defs>
    <g clip-path="url(#p0d1195e58a)">
     <use xlink:href="#m60bdc937d8" x="56.205341" y="160.232732" style="fill: #e53e3e; stroke: #e53e3e"/>
     <use xlink:href="#m60bdc937d8" x="674.687159" y="188.056865" style="fill: #e53e3e; stroke: #e53e3e"/>
    </g>
   </g>
   <g id="line2d_23">
    <path d="M 56.205341 21.112067 
M 674.687159 76.760333 
" clip-path="url(#p0d1195e58a)" style="fill: none; stroke: #3182ce; stroke-width: 2; stroke-linecap: square"/>
    <defs>
     <path id="mcf6294cd9a" d="M 0 3 
C 0.795609 3 1.55874 2.683901 2.12132 2.12132 
C 2.683901 1.55874 3 0.795609 3 0 
C 3 -0.795609 2.683901 -1.55874 2.12132 -2.12132 
C 1.55874 -2.683901 0.795609 -3 0 -3 
C -0.795609 -3 -1.55874 -2.683901 -2.12132 -2.12132 
C -2.683901 -1.55874 -3 -0.795609 -3 0 
C -3 0.795609 -2.683901 1.55874 -2.12132 2.12132 
C -1.55874 2.683901 -0.795609 3 0 3 
z
" style="stroke: #3182ce"/>
    </defs>
    <g clip-path="url(#p0d1195e58a)">
     <use xlink:href="#mcf6294cd9a" x="56.205341" y="21.112067" style="fill: #3182ce; stroke: #3182ce"/>
     <use xlink:href="#mcf6294cd9a" x="674.687159" y="76.760333" style="fill: #3182ce; stroke: #3182ce"/>
    </g>
   </g>
   <g id="patch_3">
    <path d="M 25.28125 313.265464 
L 25.28125 7.2 
" style="fill: none; stroke: #000000; stroke-width: 0.8; stroke-linejoin: miter; stroke-linecap: square"/>
   </g>
   <g id="patch_4">
    <path d="M 705.61125 313.265464 
L 705.61125 7.2 
" style="fill: none; stroke: #000000; stroke-width: 0.8; stroke-linejoin: miter; stroke-linecap: square"/>
   </g>
   <g id="patch_5">
    <path d="M 25.28125 313.265464 
L 705.61125 313.265464 
" style="fill: none; stroke: #000000; stroke-width: 0.8; stroke-linejoin: miter; stroke-linecap: square"/>
   </g>
   <g id="patch_6">
    <path d="M 25.28125 7.2 
L 705.61125 7.2 
" style="fill: none; stroke: #000000; stroke-width: 0.8; stroke-linejoin: miter; stroke-linecap: square"/>
   </g>
   <g id="legend_1">
    <g id="patch_7">
     <path d="M 336.573125 308.765464 
L 394.319375 308.765464 
Q 396.119375 308.765464 396.119375 306.965464 
L 396.119375 243.515464 
Q 396.119375 241.715464 394.319375 241.715464 
L 336.573125 241.715464 
Q 334.773125 241.715464 334.773125 243.515464 
L 334.773125 306.965464 
Q 334.773125 308.765464 336.573125 308.765464 
z
" style="fill: #ffffff; opacity: 0.8; stroke: #cccccc; stroke-linejoin: miter"/>
    </g>
    <g id="line2d_24">
     <path d="M 338.373125 249.328901 
L 347.373125 249.328901 
L 356.373125 249.328901 
" style="fill: none; stroke: #1a365d; stroke-width: 2; stroke-linecap: square"/>
     <g>
      <use xlink:href="#m22dbfa4e41" x="347.373125" y="249.328901" style="fill: #1a365d; stroke: #1a365d"/>
     </g>
    </g>
    <g id="text_10">
     <!-- 2026年 -->
     <g transform="translate(363.573125 252.478901) scale(0.09 -0.09)">
      <defs>
       <path id="STHeiti-5e74" d="M 2125 4346 
L 3738 4346 
Q 5107 4346 5696 4397 
L 5696 3827 
Q 5088 3878 3770 3878 
L 3770 2886 
Q 4819 2893 5395 2938 
L 5395 2406 
Q 4602 2451 3770 2458 
L 3770 1338 
Q 5658 1338 6080 1395 
L 6080 819 
Q 5709 870 3770 877 
Q 3770 -26 3821 -704 
L 3174 -704 
Q 3226 -19 3226 877 
Q 973 877 371 819 
L 371 1395 
Q 730 1357 1466 1344 
L 1466 2349 
Q 1466 2682 1421 2938 
Q 2093 2886 3226 2886 
L 3226 3878 
L 1862 3878 
Q 1510 3277 1120 2803 
Q 922 2938 563 3040 
Q 973 3430 1341 4028 
Q 1709 4627 1907 5216 
Q 2234 5088 2426 5043 
Q 2618 4998 2618 4966 
Q 2618 4934 2522 4886 
Q 2426 4838 2125 4346 
z
M 3226 2458 
L 1984 2458 
L 1984 1338 
L 3226 1338 
L 3226 2458 
z
" transform="scale(0.015625)"/>
      </defs>
      <use xlink:href="#STHeiti-32"/>
      <use xlink:href="#STHeiti-30" transform="translate(55.399994 0)"/>
      <use xlink:href="#STHeiti-32" transform="translate(110.799988 0)"/>
      <use xlink:href="#STHeiti-36" transform="translate(166.199982 0)"/>
      <use xlink:href="#STHeiti-5e74" transform="translate(221.599976 0)"/>
     </g>
    </g>
    <g id="line2d_25">
     <path d="M 338.373125 262.198901 
L 347.373125 262.198901 
L 356.373125 262.198901 
" style="fill: none; stroke: #d69e2e; stroke-width: 2; stroke-linecap: square"/>
     <g>
      <use xlink:href="#mb754081504" x="347.373125" y="262.198901" style="fill: #d69e2e; stroke: #d69e2e"/>
     </g>
    </g>
    <g id="text_11">
     <!-- 2027年 -->
     <g transform="translate(363.573125 265.348901) scale(0.09 -0.09)">
      <defs>
       <path id="STHeiti-37" d="M 461 4979 
L 3373 4979 
L 915 269 
L 538 461 
L 2662 4544 
L 461 4544 
L 461 4979 
z
" transform="scale(0.015625)"/>
      </defs>
      <use xlink:href="#STHeiti-32"/>
      <use xlink:href="#STHeiti-30" transform="translate(55.399994 0)"/>
      <use xlink:href="#STHeiti-32" transform="translate(110.799988 0)"/>
      <use xlink:href="#STHeiti-37" transform="translate(166.199982 0)"/>
      <use xlink:href="#STHeiti-5e74" transform="translate(221.599976 0)"/>
     </g>
    </g>
    <g id="line2d_26">
     <path d="M 338.373125 275.068901 
L 347.373125 275.068901 
L 356.373125 275.068901 
" style="fill: none; stroke: #38a169; stroke-width: 2; stroke-linecap: square"/>
     <g>
      <use xlink:href="#mbf1a7b04fc" x="347.373125" y="275.068901" style="fill: #38a169; stroke: #38a169"/>
     </g>
    </g>
    <g id="text_12">
     <!-- 2028年 -->
     <g transform="translate(363.573125 278.218901) scale(0.09 -0.09)">
      <use xlink:href="#STHeiti-32"/>
      <use xlink:href="#STHeiti-30" transform="translate(55.399994 0)"/>
      <use xlink:href="#STHeiti-32" transform="translate(110.799988 0)"/>
      <use xlink:href="#STHeiti-38" transform="translate(166.199982 0)"/>
      <use xlink:href="#STHeiti-5e74" transform="translate(221.599976 0)"/>
     </g>
    </g>
    <g id="line2d_27">
     <path d="M 338.373125 287.938901 
L 347.373125 287.938901 
L 356.373125 287.938901 
" style="fill: none; stroke: #e53e3e; stroke-width: 2; stroke-linecap: square"/>
     <g>
      <use xlink:href="#m60bdc937d8" x="347.373125" y="287.938901" style="fill: #e53e3e; stroke: #e53e3e"/>
     </g>
    </g>
    <g id="text_13">
     <!-- 2029年 -->
     <g transform="translate(363.573125 291.088901) scale(0.09 -0.09)">
      <defs>
       <path id="STHeiti-39" d="M 1229 269 
L 851 512 
L 2093 2394 
Q 1850 2310 1613 2310 
Q 1062 2310 688 2707 
Q 314 3104 314 3696 
Q 314 4288 730 4691 
Q 1146 5094 1750 5094 
Q 2355 5094 2748 4681 
Q 3142 4269 3142 3693 
Q 3142 3373 3011 3049 
Q 2880 2726 2624 2349 
L 1229 269 
z
M 762 3680 
Q 762 3277 1043 2995 
Q 1325 2714 1728 2714 
Q 2131 2714 2412 2998 
Q 2694 3283 2694 3680 
Q 2694 4077 2412 4361 
Q 2131 4646 1728 4646 
Q 1325 4646 1043 4364 
Q 762 4083 762 3680 
z
" transform="scale(0.015625)"/>
      </defs>
      <use xlink:href="#STHeiti-32"/>
      <use xlink:href="#STHeiti-30" transform="translate(55.399994 0)"/>
      <use xlink:href="#STHeiti-32" transform="translate(110.799988 0)"/>
      <use xlink:href="#STHeiti-39" transform="translate(166.199982 0)"/>
      <use xlink:href="#STHeiti-5e74" transform="translate(221.599976 0)"/>
     </g>
    </g>
    <g id="line2d_28">
     <path d="M 338.373125 300.808901 
L 347.373125 300.808901 
L 356.373125 300.808901 
" style="fill: none; stroke: #3182ce; stroke-width: 2; stroke-linecap: square"/>
     <g>
      <use xlink:href="#mcf6294cd9a" x="347.373125" y="300.808901" style="fill: #3182ce; stroke: #3182ce"/>
     </g>
    </g>
    <g id="text_14">
     <!-- 2030年 -->
     <g transform="translate(363.573125 303.958901) scale(0.09 -0.09)">
      <defs>
       <path id="STHeiti-33" d="M 845 3917 
L 378 3917 
Q 506 4486 867 4790 
Q 1229 5094 1750 5094 
Q 2272 5094 2659 4748 
Q 3046 4403 3046 3910 
Q 3046 3315 2458 2970 
Q 2861 2803 3081 2473 
Q 3302 2144 3302 1754 
Q 3302 1146 2857 707 
Q 2413 269 1734 269 
Q 1133 269 742 611 
Q 352 954 224 1613 
L 672 1613 
Q 794 1158 1046 937 
Q 1299 717 1760 717 
Q 2221 717 2534 1011 
Q 2848 1306 2848 1741 
Q 2848 2176 2502 2441 
Q 2157 2707 1498 2720 
L 1498 3142 
Q 1971 3142 2268 3360 
Q 2566 3578 2566 3901 
Q 2566 4224 2326 4438 
Q 2086 4653 1747 4653 
Q 1408 4653 1200 4470 
Q 992 4288 845 3917 
z
" transform="scale(0.015625)"/>
      </defs>
      <use xlink:href="#STHeiti-32"/>
      <use xlink:href="#STHeiti-30" transform="translate(55.399994 0)"/>
      <use xlink:href="#STHeiti-33" transform="translate(110.799988 0)"/>
      <use xlink:href="#STHeiti-30" transform="translate(166.199982 0)"/>
      <use xlink:href="#STHeiti-5e74" transform="translate(221.599976 0)"/>
     </g>
    </g>
   </g>
  </g>
 </g>
 <defs>
  <clipPath id="p0d1195e58a">
   <rect x="25.28125" y="7.2" width="680.33" height="306.065464"/>
  </clipPath>
 </defs>
</svg>
