<?xml version="1.0" encoding="utf-8" standalone="no"?>
<!DOCTYPE svg PUBLIC "-//W3C//DTD SVG 1.1//EN"
  "http://www.w3.org/Graphics/SVG/1.1/DTD/svg11.dtd">
<svg xmlns:xlink="http://www.w3.org/1999/xlink" width="708.478804pt" height="352.187551pt" viewBox="0 0 708.478804 352.187551" xmlns="http://www.w3.org/2000/svg" version="1.1">
 <metadata>
  <rdf:RDF xmlns:dc="http://purl.org/dc/elements/1.1/" xmlns:cc="http://creativecommons.org/ns#" xmlns:rdf="http://www.w3.org/1999/02/22-rdf-syntax-ns#">
   <cc:Work>
    <dc:type rdf:resource="http://purl.org/dc/dcmitype/StillImage"/>
    <dc:date>2026-06-05T07:50:50.921998</dc:date>
    <dc:format>image/svg+xml</dc:format>
    <dc:creator>
     <cc:Agent>
      <dc:title>Matplotlib v3.10.9, https://matplotlib.org/</dc:title>
     </cc:Agent>
    </dc:creator>
   </cc:Work>
  </rdf:RDF>
 </metadata>
 <defs>
  <style type="text/css">*{stroke-linejoin: round; stroke-linecap: butt}</style>
 </defs>
 <g id="figure_1">
  <g id="patch_1">
   <path d="M 0 352.187551 
L 708.478804 352.187551 
L 708.478804 0 
L 0 0 
z
" style="fill: #ffffff"/>
  </g>
  <g id="axes_1">
   <g id="patch_2">
    <path d="M 54.262071 285.477264 
L 701.278804 285.477264 
L 701.278804 7.2 
L 54.262071 7.2 
z
" style="fill: #fafafa"/>
   </g>
   <g id="matplotlib.axis_1">
    <g id="xtick_1">
     <g id="line2d_1">
      <path d="M 83.671922 285.477264 
L 83.671922 7.2 
" clip-path="url(#p1db059b538)" style="fill: none; stroke: #b0b0b0; stroke-opacity: 0.3; stroke-width: 0.8; stroke-linecap: square"/>
     </g>
     <g id="line2d_2">
      <defs>
       <path id="m5cd637920b" d="M 0 0 
L 0 3.5 
" style="stroke: #000000; stroke-width: 0.8"/>
      </defs>
      <g>
       <use xlink:href="#m5cd637920b" x="83.671922" y="285.477264" style="stroke: #000000; stroke-width: 0.8"/>
      </g>
     </g>
     <g id="text_1">
      <!-- 星恒电源FY2025末 -->
      <g transform="translate(11.179688 340.836692) rotate(-30) scale(0.1 -0.1)">
       <defs>
        <path id="STHeiti-661f" d="M 3590 166 
Q 4966 173 5907 230 
L 5907 -339 
Q 5158 -282 3292 -282 
Q 1427 -282 608 -346 
L 608 224 
Q 1466 166 3059 166 
L 3059 736 
Q 2086 736 1510 678 
L 1510 1210 
Q 2003 1165 3059 1158 
L 3059 1702 
L 1581 1702 
Q 1274 1274 934 941 
Q 768 1146 538 1286 
Q 1178 1779 1600 2662 
Q 1933 2464 2086 2426 
Q 2182 2400 2182 2374 
Q 2182 2349 2105 2313 
Q 2029 2278 1907 2144 
L 3059 2144 
L 3059 2758 
Q 1472 2758 1190 2726 
Q 1216 2835 1216 3174 
L 1216 4474 
Q 1216 4774 1190 4928 
Q 1568 4896 3251 4896 
Q 4934 4896 5312 4928 
Q 5286 4742 5286 4474 
L 5286 3174 
Q 5286 2867 5312 2726 
Q 5062 2758 3590 2758 
L 3590 2144 
Q 5229 2144 5504 2176 
L 5504 1677 
Q 5126 1702 3590 1702 
L 3590 1158 
Q 4768 1158 5306 1210 
L 5306 678 
Q 4685 736 3590 736 
L 3590 166 
z
M 4768 4051 
L 4768 4474 
L 1734 4474 
L 1734 4051 
L 4768 4051 
z
M 4768 3174 
L 4768 3642 
L 1734 3642 
L 1734 3174 
L 4768 3174 
z
" transform="scale(0.015625)"/>
        <path id="STHeiti-6052" d="M 1120 5126 
Q 1376 5082 1773 5082 
Q 1920 5082 1920 5037 
Q 1920 4992 1811 4921 
Q 1702 4851 1702 4576 
L 1702 506 
Q 1702 64 1766 -653 
L 1120 -653 
Q 1184 -109 1184 512 
L 1184 4115 
Q 1184 4768 1120 5126 
z
M 5997 4282 
Q 5402 4346 4278 4346 
Q 3155 4346 2560 4282 
L 2560 4858 
Q 3194 4800 4282 4800 
Q 5370 4800 5997 4858 
L 5997 4282 
z
M 2624 2822 
L 2125 2669 
Q 2022 3277 1856 3731 
L 2291 3885 
Q 2419 3379 2624 2822 
z
M 2829 3162 
Q 2829 3482 2784 3776 
Q 3142 3725 4265 3725 
Q 5389 3725 5734 3776 
Q 5683 3520 5683 3162 
L 5683 1549 
Q 5683 1190 5722 883 
Q 5114 928 4214 928 
Q 3315 928 2790 883 
Q 2829 1190 2829 1542 
L 2829 3162 
z
M 3315 2534 
L 5152 2534 
L 5152 3277 
L 3315 3277 
L 3315 2534 
z
M 5152 2131 
L 3315 2131 
L 3315 1338 
L 5152 1338 
L 5152 2131 
z
M 960 3757 
Q 909 2854 762 2010 
L 205 2061 
Q 448 2835 448 3757 
L 960 3757 
z
M 6138 -352 
Q 5440 -294 4198 -294 
Q 2957 -294 2266 -352 
L 2266 224 
Q 2925 160 4201 160 
Q 5478 160 6138 224 
L 6138 -352 
z
" transform="scale(0.015625)"/>
        <path id="STHeiti-7535" d="M 3232 4269 
Q 4602 4275 5222 4346 
Q 5178 4083 5178 3622 
L 5178 1843 
Q 5178 1325 5242 851 
L 4640 851 
L 4640 1235 
L 3232 1235 
L 3232 448 
Q 3232 307 3302 243 
Q 3373 179 3613 147 
Q 3853 115 4218 115 
Q 5229 115 5417 224 
Q 5606 333 5638 922 
Q 5811 531 6176 531 
Q 6042 64 5914 -86 
Q 5786 -237 5450 -285 
Q 5114 -333 4378 -333 
Q 3642 -333 3277 -285 
Q 2912 -237 2809 -134 
Q 2707 -32 2707 205 
L 2707 1235 
L 1370 1235 
L 1370 582 
L 781 582 
Q 851 1024 851 1638 
L 851 3622 
Q 851 4045 806 4346 
Q 1440 4275 2707 4269 
Q 2707 4947 2637 5267 
Q 2912 5229 3334 5229 
Q 3437 5229 3437 5174 
Q 3437 5120 3373 5094 
Q 3309 5069 3270 4998 
Q 3232 4928 3232 4870 
L 3232 4269 
z
M 2707 3808 
L 1370 3808 
L 1370 2963 
L 2707 2963 
L 2707 3808 
z
M 4640 2963 
L 4640 3808 
L 3232 3808 
L 3232 2963 
L 4640 2963 
z
M 1370 2534 
L 1370 1670 
L 2707 1670 
L 2707 2534 
L 1370 2534 
z
M 4640 1670 
L 4640 2534 
L 3232 2534 
L 3232 1670 
L 4640 1670 
z
" transform="scale(0.015625)"/>
        <path id="STHeiti-6e90" d="M 1894 4422 
L 1549 3936 
Q 1158 4314 691 4634 
L 1018 5075 
Q 1466 4781 1894 4422 
z
M 5926 4358 
Q 5754 4410 3994 4410 
L 2579 4410 
Q 2611 2272 2448 1385 
Q 2285 499 1677 -384 
Q 1530 -109 1306 -19 
Q 1709 486 1888 1209 
Q 2067 1933 2067 3488 
Q 2067 4045 2048 4890 
Q 2182 4858 3923 4858 
Q 5664 4858 5926 4890 
L 5926 4358 
z
M 3808 3744 
Q 3942 4109 3968 4397 
Q 4333 4243 4550 4192 
Q 4627 4173 4627 4153 
Q 4627 4134 4570 4102 
Q 4461 4038 4314 3744 
Q 5434 3744 5555 3763 
Q 5536 3558 5536 3002 
L 5536 2253 
Q 5536 1824 5562 1478 
Q 5491 1491 4467 1491 
L 4467 -32 
Q 4467 -250 4409 -352 
Q 4352 -454 4160 -512 
Q 3968 -570 3533 -614 
Q 3520 -301 3354 -51 
Q 3526 -70 3673 -70 
Q 3821 -70 3897 -12 
Q 3974 45 3974 269 
L 3974 1491 
Q 3091 1491 3014 1478 
Q 3040 1709 3040 2253 
L 3040 3002 
Q 3040 3533 3021 3763 
Q 3110 3750 3808 3744 
z
M 5050 2822 
L 5050 3354 
L 3520 3354 
L 3520 2822 
L 5050 2822 
z
M 5050 1875 
L 5050 2432 
L 3520 2432 
L 3520 1875 
L 5050 1875 
z
M 1645 2989 
L 1363 2483 
Q 992 2797 378 3117 
L 640 3565 
Q 1261 3238 1645 2989 
z
M 1517 1683 
Q 1440 1491 1229 691 
Q 1018 -109 947 -454 
Q 589 -218 339 -115 
Q 506 179 723 790 
Q 941 1402 1018 1978 
Q 1254 1773 1517 1683 
z
M 3053 1146 
Q 3405 986 3520 957 
Q 3635 928 3635 893 
Q 3635 858 3539 829 
Q 3443 800 3366 707 
Q 3290 614 3072 278 
Q 2854 -58 2733 -224 
Q 2522 -26 2298 64 
Q 2720 474 3053 1146 
z
M 6010 186 
L 5504 -128 
Q 5178 454 4787 864 
L 5222 1139 
Q 5555 698 6010 186 
z
" transform="scale(0.015625)"/>
        <path id="STHeiti-46" d="M 557 4979 
L 2861 4979 
L 2861 4525 
L 1018 4525 
L 1018 3091 
L 2861 3091 
L 2861 2637 
L 1018 2637 
L 1018 384 
L 557 384 
L 557 4979 
z
" transform="scale(0.015625)"/>
        <path id="STHeiti-59" d="M 198 4979 
L 730 4979 
L 1901 3085 
L 3059 4979 
L 3590 4979 
L 2131 2579 
L 2131 384 
L 1683 384 
L 1683 2579 
L 198 4979 
z
" transform="scale(0.015625)"/>
        <path id="STHeiti-32" d="M 742 3539 
L 301 3539 
Q 333 4243 768 4668 
Q 1203 5094 1820 5094 
Q 2438 5094 2844 4694 
Q 3251 4294 3251 3718 
Q 3251 3290 3024 2925 
Q 2797 2560 2336 2061 
L 1190 826 
L 3315 826 
L 3315 384 
L 192 384 
L 1946 2278 
Q 2406 2778 2604 3066 
Q 2803 3354 2803 3725 
Q 2803 4096 2512 4377 
Q 2221 4659 1789 4659 
Q 1357 4659 1072 4368 
Q 787 4077 742 3539 
z
" transform="scale(0.015625)"/>
        <path id="STHeiti-30" d="M 1747 269 
Q 1005 269 605 880 
Q 205 1491 205 2681 
Q 205 3872 605 4483 
Q 1005 5094 1741 5094 
Q 2477 5094 2909 4470 
Q 3341 3846 3341 2681 
Q 3341 1517 2905 893 
Q 2470 269 1747 269 
z
M 1760 4659 
Q 1229 4659 934 4147 
Q 640 3635 640 2669 
Q 640 685 1760 685 
Q 2304 685 2608 1206 
Q 2912 1728 2912 2681 
Q 2912 3635 2598 4147 
Q 2285 4659 1760 4659 
z
" transform="scale(0.015625)"/>
        <path id="STHeiti-35" d="M 3149 4979 
L 3149 4544 
L 1510 4544 
L 1280 3290 
Q 1587 3379 1856 3379 
Q 2458 3379 2861 2953 
Q 3264 2528 3264 1862 
Q 3264 1197 2825 733 
Q 2387 269 1664 269 
Q 1114 269 726 598 
Q 339 928 262 1498 
L 730 1498 
Q 813 1114 1075 909 
Q 1338 704 1683 704 
Q 2138 704 2467 1043 
Q 2797 1382 2797 1888 
Q 2797 2349 2509 2646 
Q 2221 2944 1757 2944 
Q 1293 2944 730 2701 
L 1158 4979 
L 3149 4979 
z
" transform="scale(0.015625)"/>
        <path id="STHeiti-672b" d="M 2675 2253 
Q 1510 2253 992 2214 
L 992 2752 
Q 1728 2694 2976 2694 
L 2976 3712 
Q 1626 3712 672 3648 
L 672 4211 
Q 1638 4147 2976 4147 
Q 2976 4973 2931 5222 
Q 3238 5178 3597 5178 
Q 3686 5178 3686 5139 
Q 3686 5101 3606 5065 
Q 3526 5030 3526 4928 
L 3526 4147 
Q 4992 4154 5779 4211 
L 5779 3648 
Q 4992 3706 3526 3712 
L 3526 2694 
Q 4691 2701 5402 2752 
L 5402 2214 
Q 5133 2240 3808 2253 
Q 4576 806 6054 563 
Q 5773 218 5677 -77 
Q 3936 666 3526 2176 
L 3526 326 
Q 3526 -186 3558 -614 
L 2938 -614 
Q 2976 -230 2976 326 
L 2976 2022 
Q 2534 1286 2038 803 
Q 1542 320 794 -90 
Q 672 160 339 403 
Q 1190 736 1718 1158 
Q 2246 1581 2675 2253 
z
" transform="scale(0.015625)"/>
       </defs>
       <use xlink:href="#STHeiti-661f"/>
       <use xlink:href="#STHeiti-6052" transform="translate(99.999985 0)"/>
       <use xlink:href="#STHeiti-7535" transform="translate(199.999969 0)"/>
       <use xlink:href="#STHeiti-6e90" transform="translate(299.999954 0)"/>
       <use xlink:href="#STHeiti-46" transform="translate(399.999939 0)"/>
       <use xlink:href="#STHeiti-59" transform="translate(448.499924 0)"/>
       <use xlink:href="#STHeiti-32" transform="translate(507.699921 0)"/>
       <use xlink:href="#STHeiti-30" transform="translate(563.099915 0)"/>
       <use xlink:href="#STHeiti-32" transform="translate(618.499908 0)"/>
       <use xlink:href="#STHeiti-35" transform="translate(673.899902 0)"/>
       <use xlink:href="#STHeiti-672b" transform="translate(729.299896 0)"/>
      </g>
     </g>
    </g>
    <g id="xtick_2">
     <g id="line2d_3">
      <path d="M 279.737599 285.477264 
L 279.737599 7.2 
" clip-path="url(#p1db059b538)" style="fill: none; stroke: #b0b0b0; stroke-opacity: 0.3; stroke-width: 0.8; stroke-linecap: square"/>
     </g>
     <g id="line2d_4">
      <g>
       <use xlink:href="#m5cd637920b" x="279.737599" y="285.477264" style="stroke: #000000; stroke-width: 0.8"/>
      </g>
     </g>
     <g id="text_2">
      <!-- 星恒电源Q1 2026末 -->
      <g transform="translate(202.066803 343.826535) rotate(-30) scale(0.1 -0.1)">
       <defs>
        <path id="STHeiti-51" d="M 4416 883 
L 5094 19 
L 4531 19 
L 4064 614 
Q 3494 269 2822 269 
Q 1779 269 1072 963 
Q 365 1658 365 2662 
Q 365 3693 1049 4393 
Q 1734 5094 2784 5094 
Q 3443 5094 4003 4774 
Q 4563 4454 4883 3897 
Q 5203 3341 5203 2682 
Q 5203 1626 4416 883 
z
M 4134 1242 
Q 4730 1830 4730 2668 
Q 4730 3507 4154 4076 
Q 3578 4646 2778 4646 
Q 1978 4646 1411 4070 
Q 845 3494 845 2659 
Q 845 1824 1421 1270 
Q 1997 717 2790 717 
Q 3322 717 3776 979 
L 2752 2278 
L 3309 2278 
L 4134 1242 
z
" transform="scale(0.015625)"/>
        <path id="STHeiti-31" d="M 1184 4979 
L 2086 4979 
L 2086 384 
L 1632 384 
L 1632 4531 
L 909 4531 
L 1184 4979 
z
" transform="scale(0.015625)"/>
        <path id="STHeiti-20" transform="scale(0.015625)"/>
        <path id="STHeiti-36" d="M 2349 5094 
L 2726 4851 
L 1485 2970 
Q 1747 3059 1984 3059 
Q 2496 3059 2880 2652 
Q 3264 2246 3264 1660 
Q 3264 1075 2845 672 
Q 2426 269 1827 269 
Q 1229 269 829 678 
Q 429 1088 429 1677 
Q 429 1958 537 2256 
Q 646 2554 954 3014 
L 2349 5094 
z
M 2810 1683 
Q 2810 2086 2528 2368 
Q 2246 2650 1843 2650 
Q 1440 2650 1158 2368 
Q 877 2086 877 1683 
Q 877 1280 1161 998 
Q 1446 717 1843 717 
Q 2240 717 2525 998 
Q 2810 1280 2810 1683 
z
" transform="scale(0.015625)"/>
       </defs>
       <use xlink:href="#STHeiti-661f"/>
       <use xlink:href="#STHeiti-6052" transform="translate(99.999985 0)"/>
       <use xlink:href="#STHeiti-7535" transform="translate(199.999969 0)"/>
       <use xlink:href="#STHeiti-6e90" transform="translate(299.999954 0)"/>
       <use xlink:href="#STHeiti-51" transform="translate(399.999939 0)"/>
       <use xlink:href="#STHeiti-31" transform="translate(487.09993 0)"/>
       <use xlink:href="#STHeiti-20" transform="translate(542.499924 0)"/>
       <use xlink:href="#STHeiti-32" transform="translate(567.499908 0)"/>
       <use xlink:href="#STHeiti-30" transform="translate(622.899902 0)"/>
       <use xlink:href="#STHeiti-32" transform="translate(678.299896 0)"/>
       <use xlink:href="#STHeiti-36" transform="translate(733.69989 0)"/>
       <use xlink:href="#STHeiti-672b" transform="translate(789.099884 0)"/>
      </g>
     </g>
    </g>
    <g id="xtick_3">
     <g id="line2d_5">
      <path d="M 475.803276 285.477264 
L 475.803276 7.2 
" clip-path="url(#p1db059b538)" style="fill: none; stroke: #b0b0b0; stroke-opacity: 0.3; stroke-width: 0.8; stroke-linecap: square"/>
     </g>
     <g id="line2d_6">
      <g>
       <use xlink:href="#m5cd637920b" x="475.803276" y="285.477264" style="stroke: #000000; stroke-width: 0.8"/>
      </g>
     </g>
     <g id="text_3">
      <!-- 博力威(688345) -->
      <g transform="translate(413.969919 334.926355) rotate(-30) scale(0.1 -0.1)">
       <defs>
        <path id="STHeiti-535a" d="M 5325 4704 
L 4781 4493 
Q 4710 4710 4480 4960 
L 5018 5158 
Q 5114 4973 5325 4704 
z
M 3539 4070 
Q 2573 4064 2042 4019 
L 2042 4506 
Q 2413 4461 3539 4454 
Q 3533 4947 3488 5139 
Q 3744 5101 3949 5101 
Q 4154 5101 4154 5078 
Q 4154 5056 4102 5030 
Q 4051 5005 4022 4925 
Q 3994 4845 3994 4794 
L 3994 4454 
Q 5152 4454 5843 4506 
L 5843 4019 
Q 5190 4070 3994 4070 
L 3994 3674 
Q 5075 3674 5478 3725 
Q 5434 3411 5434 3078 
L 5434 2349 
Q 5434 2176 5472 1498 
L 4954 1498 
L 4954 1869 
L 3994 1869 
Q 4000 1568 4032 1382 
L 3494 1382 
Q 3526 1542 3539 1869 
L 2694 1869 
L 2694 1370 
L 2208 1370 
Q 2240 1690 2240 2234 
L 2240 3078 
Q 2240 3411 2195 3725 
Q 2566 3680 3539 3674 
L 3539 4070 
z
M 3539 2912 
L 3539 3328 
L 2694 3328 
L 2694 2912 
L 3539 2912 
z
M 3994 3328 
L 3994 2912 
L 4954 2912 
L 4954 3328 
L 3994 3328 
z
M 3539 2163 
L 3539 2598 
L 2694 2598 
L 2694 2163 
L 3539 2163 
z
M 3994 2598 
L 3994 2163 
L 4954 2163 
L 4954 2598 
L 3994 2598 
z
M 1478 2931 
L 1478 646 
Q 1478 -32 1517 -589 
L 941 -589 
Q 1005 96 1005 646 
L 1005 2938 
Q 538 2925 301 2886 
L 301 3392 
Q 486 3354 1005 3341 
L 1005 3738 
Q 1005 4787 941 5082 
Q 966 5062 1530 5062 
Q 1613 5062 1613 5017 
Q 1613 4973 1545 4899 
Q 1478 4826 1478 4691 
L 1478 3341 
Q 1862 3354 2074 3392 
L 2074 2886 
Q 1907 2918 1478 2931 
z
M 5146 730 
L 5146 -6 
Q 5146 -243 5088 -352 
Q 5030 -461 4848 -518 
Q 4666 -576 4218 -640 
Q 4198 -486 4019 -77 
Q 4205 -90 4381 -90 
Q 4557 -90 4621 -26 
Q 4685 38 4685 230 
L 4685 730 
L 2963 730 
Q 2234 730 1875 691 
L 1875 1165 
Q 2253 1114 2957 1114 
L 4678 1114 
Q 4666 1338 4640 1485 
Q 4877 1440 5056 1440 
Q 5235 1440 5235 1408 
Q 5235 1376 5200 1325 
Q 5165 1274 5152 1114 
Q 5594 1126 5990 1165 
L 5990 691 
Q 5651 717 5146 730 
z
M 3469 -64 
L 2944 -243 
Q 2810 128 2579 461 
L 3066 646 
Q 3296 314 3469 -64 
z
" transform="scale(0.015625)"/>
        <path id="STHeiti-529b" d="M 3270 3386 
Q 3066 1760 2554 989 
Q 2042 218 947 -499 
Q 678 -230 378 -109 
Q 1453 358 2032 1248 
Q 2611 2138 2682 3386 
Q 1248 3386 781 3328 
L 781 3923 
Q 1203 3872 2714 3866 
Q 2797 5082 2778 5267 
Q 3104 5139 3507 5114 
Q 3610 5107 3610 5062 
Q 3610 5018 3533 4966 
Q 3482 4928 3443 4742 
Q 3405 4557 3328 3866 
Q 5395 3866 5715 3923 
L 5389 582 
Q 5350 198 5241 6 
Q 5133 -186 4848 -304 
Q 4563 -422 3936 -538 
Q 3853 -122 3661 141 
Q 4154 134 4387 185 
Q 4621 237 4713 381 
Q 4806 525 4838 832 
L 5094 3386 
L 3270 3386 
z
" transform="scale(0.015625)"/>
        <path id="STHeiti-5a01" d="M 5536 4749 
L 5011 4474 
Q 4890 4819 4678 5075 
L 5184 5312 
Q 5363 4986 5536 4749 
z
M 3782 3814 
L 1389 3814 
Q 1402 3507 1402 3129 
Q 1402 2752 1376 2342 
L 2093 2342 
Q 2182 2624 2246 2880 
Q 1926 2874 1690 2842 
L 1690 3328 
Q 1946 3290 2630 3290 
Q 3315 3290 3565 3328 
L 3565 2842 
Q 3258 2880 2746 2880 
L 2547 2342 
Q 3315 2342 3622 2381 
Q 3430 1478 3162 986 
Q 3398 902 3744 749 
Q 3584 512 3494 262 
Q 3251 429 2906 608 
Q 2464 90 1466 -256 
Q 1344 19 1107 186 
Q 2080 403 2490 794 
Q 2125 954 1613 1107 
Q 1766 1414 1958 1933 
L 1350 1933 
Q 1235 346 717 -474 
Q 499 -352 179 -307 
Q 538 141 698 851 
Q 858 1562 858 2483 
Q 858 3405 800 4333 
Q 1658 4269 3750 4288 
Q 3686 5075 3674 5286 
Q 3878 5242 4141 5242 
L 4378 5254 
Q 4429 5254 4429 5225 
Q 4429 5197 4368 5142 
Q 4307 5088 4291 4915 
Q 4275 4742 4275 4288 
Q 5683 4307 5901 4333 
L 5901 3770 
Q 5645 3802 4282 3814 
Q 4339 2336 4595 1485 
Q 4915 2131 4986 3315 
Q 5402 3194 5626 3174 
Q 5683 3168 5683 3133 
Q 5683 3098 5613 3072 
Q 5517 3034 5389 2490 
Q 5171 1542 4800 954 
Q 5197 109 5389 109 
Q 5549 109 5632 723 
Q 5888 448 6080 403 
Q 5926 -70 5782 -307 
Q 5638 -544 5472 -544 
Q 5306 -544 5046 -297 
Q 4787 -51 4486 518 
Q 4128 83 3424 -499 
Q 3258 -288 2925 -186 
Q 3789 333 4275 960 
Q 3968 1766 3782 3814 
z
M 2400 1933 
L 2182 1344 
Q 2464 1254 2765 1139 
Q 2944 1440 3053 1933 
L 2400 1933 
z
" transform="scale(0.015625)"/>
        <path id="STHeiti-28" d="M 1466 5370 
L 1978 5370 
Q 1651 4704 1475 3865 
Q 1299 3027 1299 2176 
Q 1299 506 1824 -762 
L 1338 -762 
Q 832 480 832 2118 
Q 832 3891 1466 5370 
z
" transform="scale(0.015625)"/>
        <path id="STHeiti-38" d="M 2458 2906 
Q 3328 2477 3328 1702 
Q 3328 1088 2896 678 
Q 2464 269 1763 269 
Q 1062 269 640 678 
Q 218 1088 218 1664 
Q 218 2470 1107 2906 
Q 435 3264 435 3898 
Q 435 4371 828 4732 
Q 1222 5094 1779 5094 
Q 2336 5094 2726 4742 
Q 3117 4390 3117 3885 
Q 3117 3270 2458 2906 
z
M 2656 3904 
Q 2656 4211 2416 4432 
Q 2176 4653 1789 4653 
Q 1402 4653 1152 4432 
Q 902 4211 902 3897 
Q 902 3584 1174 3337 
Q 1446 3091 1792 3091 
Q 2138 3091 2397 3334 
Q 2656 3578 2656 3904 
z
M 2867 1696 
Q 2867 2086 2550 2380 
Q 2234 2675 1782 2675 
Q 1331 2675 1004 2371 
Q 678 2067 678 1654 
Q 678 1242 979 973 
Q 1280 704 1766 704 
Q 2253 704 2560 992 
Q 2867 1280 2867 1696 
z
" transform="scale(0.015625)"/>
        <path id="STHeiti-33" d="M 845 3917 
L 378 3917 
Q 506 4486 867 4790 
Q 1229 5094 1750 5094 
Q 2272 5094 2659 4748 
Q 3046 4403 3046 3910 
Q 3046 3315 2458 2970 
Q 2861 2803 3081 2473 
Q 3302 2144 3302 1754 
Q 3302 1146 2857 707 
Q 2413 269 1734 269 
Q 1133 269 742 611 
Q 352 954 224 1613 
L 672 1613 
Q 794 1158 1046 937 
Q 1299 717 1760 717 
Q 2221 717 2534 1011 
Q 2848 1306 2848 1741 
Q 2848 2176 2502 2441 
Q 2157 2707 1498 2720 
L 1498 3142 
Q 1971 3142 2268 3360 
Q 2566 3578 2566 3901 
Q 2566 4224 2326 4438 
Q 2086 4653 1747 4653 
Q 1408 4653 1200 4470 
Q 992 4288 845 3917 
z
" transform="scale(0.015625)"/>
        <path id="STHeiti-34" d="M 2726 5094 
L 2816 5094 
L 2816 1894 
L 3373 1894 
L 3373 1453 
L 2816 1453 
L 2816 384 
L 2362 384 
L 2362 1453 
L 160 1453 
L 2726 5094 
z
M 2362 1894 
L 2362 3808 
L 1005 1894 
L 2362 1894 
z
" transform="scale(0.015625)"/>
        <path id="STHeiti-29" d="M 896 5370 
Q 1530 3891 1530 2118 
Q 1530 480 1024 -762 
L 538 -762 
Q 1062 506 1062 2176 
Q 1062 3027 886 3865 
Q 710 4704 384 5370 
L 896 5370 
z
" transform="scale(0.015625)"/>
       </defs>
       <use xlink:href="#STHeiti-535a"/>
       <use xlink:href="#STHeiti-529b" transform="translate(99.999985 0)"/>
       <use xlink:href="#STHeiti-5a01" transform="translate(199.999969 0)"/>
       <use xlink:href="#STHeiti-28" transform="translate(299.999954 0)"/>
       <use xlink:href="#STHeiti-36" transform="translate(336.899948 0)"/>
       <use xlink:href="#STHeiti-38" transform="translate(392.299942 0)"/>
       <use xlink:href="#STHeiti-38" transform="translate(447.699936 0)"/>
       <use xlink:href="#STHeiti-33" transform="translate(503.09993 0)"/>
       <use xlink:href="#STHeiti-34" transform="translate(558.499924 0)"/>
       <use xlink:href="#STHeiti-35" transform="translate(613.899918 0)"/>
       <use xlink:href="#STHeiti-29" transform="translate(669.299911 0)"/>
      </g>
     </g>
    </g>
    <g id="xtick_4">
     <g id="line2d_7">
      <path d="M 671.868952 285.477264 
L 671.868952 7.2 
" clip-path="url(#p1db059b538)" style="fill: none; stroke: #b0b0b0; stroke-opacity: 0.3; stroke-width: 0.8; stroke-linecap: square"/>
     </g>
     <g id="line2d_8">
      <g>
       <use xlink:href="#m5cd637920b" x="671.868952" y="285.477264" style="stroke: #000000; stroke-width: 0.8"/>
      </g>
     </g>
     <g id="text_4">
      <!-- 宁德时代(300750) -->
      <g transform="translate(601.375342 339.926355) rotate(-30) scale(0.1 -0.1)">
       <defs>
        <path id="STHeiti-5b81" d="M 3155 4314 
Q 3059 4730 2848 5101 
L 3520 5267 
Q 3603 4864 3789 4314 
Q 5459 4326 5766 4365 
L 5766 3213 
L 5222 3213 
L 5222 3840 
L 1190 3840 
L 1190 3066 
L 659 3066 
L 659 4365 
Q 1082 4314 3155 4314 
z
M 3680 2234 
L 3680 -32 
Q 3680 -243 3603 -348 
Q 3526 -454 3299 -528 
Q 3072 -602 2554 -691 
Q 2515 -410 2195 6 
Q 2413 -38 2621 -38 
Q 2829 -38 2963 45 
Q 3098 128 3098 262 
L 3098 2234 
Q 1555 2234 653 2163 
L 653 2784 
Q 1555 2720 3276 2720 
Q 4998 2720 5888 2784 
L 5888 2163 
Q 4986 2227 3680 2234 
z
" transform="scale(0.015625)"/>
        <path id="STHeiti-5fb7" d="M 3981 4173 
Q 3923 3917 3898 3699 
Q 4928 3693 5632 3738 
Q 5606 3405 5606 2976 
Q 5606 2547 5632 2214 
Q 5088 2253 3981 2253 
Q 2874 2253 2330 2214 
Q 2355 2547 2355 2976 
Q 2355 3405 2330 3738 
Q 2886 3699 3488 3699 
Q 3552 4038 3571 4173 
Q 2618 4166 2150 4134 
L 2150 4582 
Q 2438 4550 3616 4544 
Q 3629 4730 3629 4899 
Q 3629 5069 3603 5197 
Q 3955 5094 4224 5094 
Q 4314 5094 4314 5059 
Q 4314 5024 4259 4989 
Q 4205 4954 4169 4870 
Q 4134 4787 4077 4544 
Q 5498 4544 5875 4570 
L 5875 4134 
Q 5427 4173 3981 4173 
z
M 4237 3341 
L 3699 3341 
L 3699 2611 
L 4237 2611 
L 4237 3341 
z
M 5184 3341 
L 4640 3341 
L 4640 2611 
L 5184 2611 
L 5184 3341 
z
M 3309 3341 
L 2765 3341 
L 2765 2611 
L 3309 2611 
L 3309 3341 
z
M 1427 5094 
Q 1754 4909 1971 4851 
Q 2061 4826 2061 4800 
Q 2061 4774 1984 4730 
Q 1933 4698 1421 4064 
Q 909 3430 666 3098 
Q 538 3386 314 3526 
Q 717 3866 1024 4298 
Q 1331 4730 1427 5094 
z
M 1498 2688 
L 1498 -563 
L 973 -563 
Q 1030 -115 1030 467 
L 1030 2016 
Q 838 1734 538 1370 
Q 429 1658 250 1850 
Q 672 2176 1059 2726 
Q 1446 3277 1619 3827 
Q 1850 3597 2086 3514 
Q 2157 3488 2157 3446 
Q 2157 3405 2074 3379 
Q 1946 3347 1498 2688 
z
M 5786 1901 
L 5786 1466 
Q 5318 1504 3891 1504 
Q 2464 1504 1997 1466 
L 1997 1914 
Q 2458 1875 3930 1875 
Q 5402 1875 5786 1901 
z
M 4486 589 
L 3955 397 
Q 3872 877 3642 1235 
L 4154 1382 
Q 4256 1030 4486 589 
z
M 6131 282 
L 5626 -109 
Q 5504 141 5251 470 
Q 4998 800 4813 954 
L 5222 1248 
Q 5600 768 6131 282 
z
M 5203 307 
Q 5082 -96 4880 -249 
Q 4678 -403 3923 -403 
Q 3450 -403 3232 -358 
Q 3014 -314 2944 -214 
Q 2874 -115 2874 102 
L 2874 768 
Q 2874 966 2854 1133 
Q 3014 1082 3366 1082 
Q 3418 1082 3418 1053 
Q 3418 1024 3379 976 
Q 3341 928 3325 851 
Q 3309 774 3309 704 
L 3309 218 
Q 3309 77 3417 35 
Q 3526 -6 3910 -6 
Q 4294 -6 4444 29 
Q 4595 64 4649 169 
Q 4704 275 4717 538 
Q 4870 333 5203 307 
z
M 2650 954 
Q 2349 109 2227 -365 
L 1690 -166 
Q 2061 371 2189 1037 
L 2650 954 
z
" transform="scale(0.015625)"/>
        <path id="STHeiti-65f6" d="M 4851 3795 
Q 4851 4909 4781 5261 
Q 4979 5229 5421 5229 
Q 5530 5229 5530 5184 
Q 5530 5158 5491 5133 
Q 5376 5069 5376 4883 
L 5376 3802 
Q 5728 3808 6144 3846 
L 6144 3258 
Q 5862 3290 5376 3302 
L 5376 83 
Q 5376 -186 5299 -310 
Q 5222 -435 4988 -502 
Q 4755 -570 4230 -614 
Q 4192 -224 3962 70 
Q 4230 51 4428 51 
Q 4627 51 4739 89 
Q 4851 128 4851 275 
L 4851 3309 
L 4077 3309 
Q 3379 3309 2867 3258 
L 2867 3846 
Q 3373 3795 4077 3795 
L 4851 3795 
z
M 1165 634 
L 1165 -224 
L 627 -224 
Q 672 173 672 627 
L 672 3949 
Q 672 4422 634 4659 
Q 864 4608 1683 4608 
Q 2502 4608 2726 4659 
Q 2688 4435 2688 3949 
L 2688 896 
Q 2688 486 2733 51 
L 2195 51 
L 2195 634 
L 1165 634 
z
M 2195 2829 
L 2195 4154 
L 1165 4154 
L 1165 2829 
L 2195 2829 
z
M 2195 1062 
L 2195 2381 
L 1165 2381 
L 1165 1062 
L 2195 1062 
z
M 4243 1574 
L 3674 1370 
Q 3526 1933 3238 2579 
L 3757 2758 
Q 3891 2163 4243 1574 
z
" transform="scale(0.015625)"/>
        <path id="STHeiti-4ee3" d="M 3904 2630 
Q 4013 1907 4269 1305 
Q 4525 704 4829 406 
Q 5133 109 5248 109 
Q 5331 109 5411 345 
Q 5491 582 5568 909 
Q 5754 595 6118 538 
Q 5914 -141 5776 -365 
Q 5638 -589 5459 -589 
Q 5190 -589 4752 -278 
Q 4314 32 3965 710 
Q 3616 1389 3398 2515 
Q 2509 2304 2208 2202 
L 2099 2765 
Q 2566 2803 3315 2976 
Q 3142 4064 3104 5190 
Q 3366 5152 3597 5152 
L 3866 5165 
Q 3942 5165 3942 5129 
Q 3942 5094 3849 4995 
Q 3757 4896 3757 4461 
Q 3757 4026 3846 3098 
L 4352 3219 
Q 5306 3443 5677 3597 
L 5843 3040 
Q 5562 3021 4499 2771 
L 3904 2630 
z
M 1248 2566 
Q 966 2042 710 1709 
Q 525 2035 294 2227 
Q 806 2701 1123 3478 
Q 1440 4256 1549 5094 
Q 1901 4973 2227 4922 
Q 2342 4902 2342 4864 
Q 2342 4826 2227 4749 
Q 2176 4717 2089 4531 
Q 2003 4346 1773 3757 
L 1773 -653 
L 1178 -653 
Q 1248 -38 1248 614 
L 1248 2566 
z
M 5357 4096 
L 4800 3738 
Q 4557 4243 4256 4614 
L 4787 4915 
Q 5120 4493 5357 4096 
z
" transform="scale(0.015625)"/>
        <path id="STHeiti-37" d="M 461 4979 
L 3373 4979 
L 915 269 
L 538 461 
L 2662 4544 
L 461 4544 
L 461 4979 
z
" transform="scale(0.015625)"/>
       </defs>
       <use xlink:href="#STHeiti-5b81"/>
       <use xlink:href="#STHeiti-5fb7" transform="translate(99.999985 0)"/>
       <use xlink:href="#STHeiti-65f6" transform="translate(199.999969 0)"/>
       <use xlink:href="#STHeiti-4ee3" transform="translate(299.999954 0)"/>
       <use xlink:href="#STHeiti-28" transform="translate(399.999939 0)"/>
       <use xlink:href="#STHeiti-33" transform="translate(436.899933 0)"/>
       <use xlink:href="#STHeiti-30" transform="translate(492.299927 0)"/>
       <use xlink:href="#STHeiti-30" transform="translate(547.699921 0)"/>
       <use xlink:href="#STHeiti-37" transform="translate(603.099915 0)"/>
       <use xlink:href="#STHeiti-35" transform="translate(658.499908 0)"/>
       <use xlink:href="#STHeiti-30" transform="translate(713.899902 0)"/>
       <use xlink:href="#STHeiti-29" transform="translate(769.299896 0)"/>
      </g>
     </g>
    </g>
   </g>
   <g id="matplotlib.axis_2">
    <g id="ytick_1">
     <g id="line2d_9">
      <path d="M 54.262071 272.888019 
L 701.278804 272.888019 
" clip-path="url(#p1db059b538)" style="fill: none; stroke: #b0b0b0; stroke-opacity: 0.3; stroke-width: 0.8; stroke-linecap: square"/>
     </g>
     <g id="line2d_10">
      <defs>
       <path id="m858898e5ef" d="M 0 0 
L -3.5 0 
" style="stroke: #000000; stroke-width: 0.8"/>
      </defs>
      <g>
       <use xlink:href="#m858898e5ef" x="54.262071" y="272.888019" style="stroke: #000000; stroke-width: 0.8"/>
      </g>
     </g>
     <g id="text_5">
      <!-- 0 -->
      <g transform="translate(41.721446 276.867706) scale(0.1 -0.1)">
       <use xlink:href="#STHeiti-30"/>
      </g>
     </g>
    </g>
    <g id="ytick_2">
     <g id="line2d_11">
      <path d="M 54.262071 213.167023 
L 701.278804 213.167023 
" clip-path="url(#p1db059b538)" style="fill: none; stroke: #b0b0b0; stroke-opacity: 0.3; stroke-width: 0.8; stroke-linecap: square"/>
     </g>
     <g id="line2d_12">
      <g>
       <use xlink:href="#m858898e5ef" x="54.262071" y="213.167023" style="stroke: #000000; stroke-width: 0.8"/>
      </g>
     </g>
     <g id="text_6">
      <!-- 1000 -->
      <g transform="translate(25.099571 217.146711) scale(0.1 -0.1)">
       <use xlink:href="#STHeiti-31"/>
       <use xlink:href="#STHeiti-30" transform="translate(55.399994 0)"/>
       <use xlink:href="#STHeiti-30" transform="translate(110.799988 0)"/>
       <use xlink:href="#STHeiti-30" transform="translate(166.199982 0)"/>
      </g>
     </g>
    </g>
    <g id="ytick_3">
     <g id="line2d_13">
      <path d="M 54.262071 153.446028 
L 701.278804 153.446028 
" clip-path="url(#p1db059b538)" style="fill: none; stroke: #b0b0b0; stroke-opacity: 0.3; stroke-width: 0.8; stroke-linecap: square"/>
     </g>
     <g id="line2d_14">
      <g>
       <use xlink:href="#m858898e5ef" x="54.262071" y="153.446028" style="stroke: #000000; stroke-width: 0.8"/>
      </g>
     </g>
     <g id="text_7">
      <!-- 2000 -->
      <g transform="translate(25.099571 157.425715) scale(0.1 -0.1)">
       <use xlink:href="#STHeiti-32"/>
       <use xlink:href="#STHeiti-30" transform="translate(55.399994 0)"/>
       <use xlink:href="#STHeiti-30" transform="translate(110.799988 0)"/>
       <use xlink:href="#STHeiti-30" transform="translate(166.199982 0)"/>
      </g>
     </g>
    </g>
    <g id="ytick_4">
     <g id="line2d_15">
      <path d="M 54.262071 93.725032 
L 701.278804 93.725032 
" clip-path="url(#p1db059b538)" style="fill: none; stroke: #b0b0b0; stroke-opacity: 0.3; stroke-width: 0.8; stroke-linecap: square"/>
     </g>
     <g id="line2d_16">
      <g>
       <use xlink:href="#m858898e5ef" x="54.262071" y="93.725032" style="stroke: #000000; stroke-width: 0.8"/>
      </g>
     </g>
     <g id="text_8">
      <!-- 3000 -->
      <g transform="translate(25.099571 97.70472) scale(0.1 -0.1)">
       <use xlink:href="#STHeiti-33"/>
       <use xlink:href="#STHeiti-30" transform="translate(55.399994 0)"/>
       <use xlink:href="#STHeiti-30" transform="translate(110.799988 0)"/>
       <use xlink:href="#STHeiti-30" transform="translate(166.199982 0)"/>
      </g>
     </g>
    </g>
    <g id="ytick_5">
     <g id="line2d_17">
      <path d="M 54.262071 34.004037 
L 701.278804 34.004037 
" clip-path="url(#p1db059b538)" style="fill: none; stroke: #b0b0b0; stroke-opacity: 0.3; stroke-width: 0.8; stroke-linecap: square"/>
     </g>
     <g id="line2d_18">
      <g>
       <use xlink:href="#m858898e5ef" x="54.262071" y="34.004037" style="stroke: #000000; stroke-width: 0.8"/>
      </g>
     </g>
     <g id="text_9">
      <!-- 4000 -->
      <g transform="translate(25.099571 37.983724) scale(0.1 -0.1)">
       <use xlink:href="#STHeiti-34"/>
       <use xlink:href="#STHeiti-30" transform="translate(55.399994 0)"/>
       <use xlink:href="#STHeiti-30" transform="translate(110.799988 0)"/>
       <use xlink:href="#STHeiti-30" transform="translate(166.199982 0)"/>
      </g>
     </g>
    </g>
   </g>
   <g id="line2d_19">
    <path d="M 83.671922 270.716563 
L 279.737599 271.096389 
L 475.803276 271.25465 
L 671.868952 19.848967 
" clip-path="url(#p1db059b538)" style="fill: none; stroke: #1a365d; stroke-width: 2; stroke-linecap: square"/>
    <defs>
     <path id="me39be8d58d" d="M 0 3 
C 0.795609 3 1.55874 2.683901 2.12132 2.12132 
C 2.683901 1.55874 3 0.795609 3 0 
C 3 -0.795609 2.683901 -1.55874 2.12132 -2.12132 
C 1.55874 -2.683901 0.795609 -3 0 -3 
C -0.795609 -3 -1.55874 -2.683901 -2.12132 -2.12132 
C -2.683901 -1.55874 -3 -0.795609 -3 0 
C -3 0.795609 -2.683901 1.55874 -2.12132 2.12132 
C -1.55874 2.683901 -0.795609 3 0 3 
z
" style="stroke: #1a365d"/>
    </defs>
    <g clip-path="url(#p1db059b538)">
     <use xlink:href="#me39be8d58d" x="83.671922" y="270.716563" style="fill: #1a365d; stroke: #1a365d"/>
     <use xlink:href="#me39be8d58d" x="279.737599" y="271.096389" style="fill: #1a365d; stroke: #1a365d"/>
     <use xlink:href="#me39be8d58d" x="475.803276" y="271.25465" style="fill: #1a365d; stroke: #1a365d"/>
     <use xlink:href="#me39be8d58d" x="671.868952" y="19.848967" style="fill: #1a365d; stroke: #1a365d"/>
    </g>
   </g>
   <g id="line2d_20">
    <path d="M 83.671922 223.154165 
L 279.737599 217.761957 
L 475.803276 268.415514 
L 671.868952 269.322675 
" clip-path="url(#p1db059b538)" style="fill: none; stroke: #d69e2e; stroke-width: 2; stroke-linecap: square"/>
    <defs>
     <path id="me5924f8a54" d="M 0 3 
C 0.795609 3 1.55874 2.683901 2.12132 2.12132 
C 2.683901 1.55874 3 0.795609 3 0 
C 3 -0.795609 2.683901 -1.55874 2.12132 -2.12132 
C 1.55874 -2.683901 0.795609 -3 0 -3 
C -0.795609 -3 -1.55874 -2.683901 -2.12132 -2.12132 
C -2.683901 -1.55874 -3 -0.795609 -3 0 
C -3 0.795609 -2.683901 1.55874 -2.12132 2.12132 
C -1.55874 2.683901 -0.795609 3 0 3 
z
" style="stroke: #d69e2e"/>
    </defs>
    <g clip-path="url(#p1db059b538)">
     <use xlink:href="#me5924f8a54" x="83.671922" y="223.154165" style="fill: #d69e2e; stroke: #d69e2e"/>
     <use xlink:href="#me5924f8a54" x="279.737599" y="217.761957" style="fill: #d69e2e; stroke: #d69e2e"/>
     <use xlink:href="#me5924f8a54" x="475.803276" y="268.415514" style="fill: #d69e2e; stroke: #d69e2e"/>
     <use xlink:href="#me5924f8a54" x="671.868952" y="269.322675" style="fill: #d69e2e; stroke: #d69e2e"/>
    </g>
   </g>
   <g id="line2d_21">
    <path d="M 279.737599 272.828298 
L 475.803276 151.953003 
L 671.868952 151.953003 
" clip-path="url(#p1db059b538)" style="fill: none; stroke: #38a169; stroke-width: 2; stroke-linecap: square"/>
    <defs>
     <path id="m8b584885f8" d="M 0 3 
C 0.795609 3 1.55874 2.683901 2.12132 2.12132 
C 2.683901 1.55874 3 0.795609 3 0 
C 3 -0.795609 2.683901 -1.55874 2.12132 -2.12132 
C 1.55874 -2.683901 0.795609 -3 0 -3 
C -0.795609 -3 -1.55874 -2.683901 -2.12132 -2.12132 
C -2.683901 -1.55874 -3 -0.795609 -3 0 
C -3 0.795609 -2.683901 1.55874 -2.12132 2.12132 
C -1.55874 2.683901 -0.795609 3 0 3 
z
" style="stroke: #38a169"/>
    </defs>
    <g clip-path="url(#p1db059b538)">
     <use xlink:href="#m8b584885f8" x="279.737599" y="272.828298" style="fill: #38a169; stroke: #38a169"/>
     <use xlink:href="#m8b584885f8" x="475.803276" y="151.953003" style="fill: #38a169; stroke: #38a169"/>
     <use xlink:href="#m8b584885f8" x="671.868952" y="151.953003" style="fill: #38a169; stroke: #38a169"/>
    </g>
   </g>
   <g id="patch_3">
    <path d="M 54.262071 285.477264 
L 54.262071 7.2 
" style="fill: none; stroke: #000000; stroke-width: 0.8; stroke-linejoin: miter; stroke-linecap: square"/>
   </g>
   <g id="patch_4">
    <path d="M 701.278804 285.477264 
L 701.278804 7.2 
" style="fill: none; stroke: #000000; stroke-width: 0.8; stroke-linejoin: miter; stroke-linecap: square"/>
   </g>
   <g id="patch_5">
    <path d="M 54.262071 285.477264 
L 701.278804 285.477264 
" style="fill: none; stroke: #000000; stroke-width: 0.8; stroke-linejoin: miter; stroke-linecap: square"/>
   </g>
   <g id="patch_6">
    <path d="M 54.262071 7.2 
L 701.278804 7.2 
" style="fill: none; stroke: #000000; stroke-width: 0.8; stroke-linejoin: miter; stroke-linecap: square"/>
   </g>
   <g id="legend_1">
    <g id="patch_7">
     <path d="M 60.562071 53.415 
L 164.001602 53.415 
Q 165.801602 53.415 165.801602 51.615 
L 165.801602 13.5 
Q 165.801602 11.7 164.001602 11.7 
L 60.562071 11.7 
Q 58.762071 11.7 58.762071 13.5 
L 58.762071 51.615 
Q 58.762071 53.415 60.562071 53.415 
z
" style="fill: #ffffff; opacity: 0.8; stroke: #cccccc; stroke-linejoin: miter"/>
    </g>
    <g id="line2d_22">
     <path d="M 62.362071 19.403438 
L 71.362071 19.403438 
L 80.362071 19.403438 
" style="fill: none; stroke: #1a365d; stroke-width: 2; stroke-linecap: square"/>
     <g>
      <use xlink:href="#me39be8d58d" x="71.362071" y="19.403438" style="fill: #1a365d; stroke: #1a365d"/>
     </g>
    </g>
    <g id="text_10">
     <!-- FY2025营收（亿） -->
     <g transform="translate(87.562071 22.553438) scale(0.09 -0.09)">
      <defs>
       <path id="STHeiti-8425" d="M 4282 3693 
Q 5274 3706 5856 3731 
L 5856 2662 
L 5344 2662 
L 5344 3277 
L 1082 3277 
L 1082 2624 
L 570 2624 
L 570 3731 
Q 1082 3699 2106 3693 
L 2106 4218 
Q 1056 4205 467 4160 
L 467 4666 
Q 1133 4614 2106 4614 
Q 2099 4973 2054 5178 
Q 2387 5133 2650 5133 
Q 2733 5133 2733 5101 
Q 2733 5069 2681 5037 
Q 2630 5005 2617 4979 
Q 2605 4954 2605 4890 
L 2605 4614 
L 3782 4614 
Q 3776 4947 3738 5171 
Q 4019 5133 4326 5133 
Q 4410 5133 4410 5101 
Q 4410 5069 4358 5037 
Q 4307 5005 4294 4979 
Q 4282 4954 4282 4890 
L 4282 4614 
Q 5299 4614 5965 4666 
L 5965 4160 
Q 5344 4218 4282 4218 
L 4282 3693 
z
M 2605 3693 
L 3782 3693 
L 3782 4218 
L 2605 4218 
L 2605 3693 
z
M 4794 1568 
Q 4230 1587 3270 1587 
Q 2310 1587 1587 1562 
Q 1619 1773 1619 2176 
Q 1619 2579 1587 2874 
Q 2086 2848 3190 2848 
Q 4294 2848 4794 2874 
Q 4774 2611 4774 2217 
Q 4774 1824 4794 1568 
z
M 4269 1971 
L 4269 2464 
L 2118 2464 
L 2118 1971 
L 4269 1971 
z
M 4698 -109 
L 1722 -109 
L 1722 -576 
L 1152 -576 
Q 1197 -333 1197 -64 
L 1197 890 
Q 1197 1037 1158 1197 
Q 1350 1184 3235 1184 
Q 5120 1184 5280 1197 
Q 5248 1082 5248 890 
L 5248 0 
Q 5248 -269 5293 -512 
L 4698 -512 
L 4698 -109 
z
M 1722 288 
L 4698 288 
L 4698 794 
L 1722 794 
L 1722 288 
z
" transform="scale(0.015625)"/>
       <path id="STHeiti-6536" d="M 1824 1664 
L 1824 4230 
Q 1824 4998 1773 5190 
Q 2003 5146 2413 5146 
Q 2522 5146 2522 5107 
Q 2522 5069 2435 5017 
Q 2349 4966 2349 4544 
L 2349 563 
Q 2349 26 2413 -589 
L 1766 -589 
Q 1824 6 1824 563 
L 1824 1197 
L 1082 992 
Q 826 922 614 762 
Q 512 1030 352 1293 
Q 608 1440 608 1722 
L 608 3539 
Q 608 4115 582 4282 
Q 806 4243 973 4243 
L 1171 4250 
Q 1261 4250 1261 4211 
Q 1261 4173 1203 4141 
Q 1082 4083 1082 3968 
L 1082 1510 
L 1824 1664 
z
M 4224 1286 
Q 4685 1984 4781 3462 
L 3629 3462 
Q 3226 2547 2970 2157 
Q 2733 2317 2522 2387 
Q 2906 2918 3203 3712 
Q 3501 4506 3565 5146 
Q 3981 5005 4250 4966 
Q 4326 4954 4326 4922 
Q 4326 4890 4278 4851 
Q 4230 4813 4150 4653 
Q 4070 4493 3821 3917 
L 5120 3917 
Q 5747 3917 5971 3974 
L 5971 3424 
Q 5754 3462 5318 3462 
Q 5178 1722 4576 896 
Q 5178 365 6061 173 
Q 5734 -134 5664 -493 
Q 4845 -115 4237 518 
Q 3699 -115 2899 -499 
Q 2790 -262 2483 -64 
Q 3213 173 3898 883 
Q 3450 1466 3315 2675 
L 3744 2810 
Q 3814 1888 4224 1286 
z
" transform="scale(0.015625)"/>
       <path id="STHeiti-ff08" d="M 5651 -749 
L 5274 -749 
Q 4646 173 4409 835 
Q 4173 1498 4173 2266 
Q 4173 3034 4432 3750 
Q 4691 4467 5254 5267 
L 5645 5267 
Q 5082 4237 4928 3606 
Q 4774 2976 4774 2093 
Q 4774 1472 4953 861 
Q 5133 250 5651 -749 
z
" transform="scale(0.015625)"/>
       <path id="STHeiti-4ebf" d="M 1779 3840 
L 1779 -570 
L 1171 -570 
Q 1242 154 1242 864 
L 1242 2835 
Q 1005 2406 582 1786 
Q 486 2144 256 2394 
Q 691 2848 1091 3577 
Q 1491 4307 1709 5235 
Q 2016 5075 2355 5018 
Q 2464 4998 2464 4950 
Q 2464 4902 2339 4822 
Q 2214 4742 1779 3840 
z
M 6131 762 
Q 6022 218 5872 -28 
Q 5722 -275 5200 -348 
Q 4678 -422 3929 -422 
Q 3181 -422 2841 -275 
Q 2502 -128 2502 320 
Q 2502 582 2630 912 
Q 2758 1242 3187 1958 
Q 3616 2675 4518 4051 
L 3981 4051 
Q 2970 4051 2560 4019 
L 2560 4621 
Q 2912 4582 4054 4582 
Q 5197 4582 5568 4646 
L 5568 4179 
Q 5338 4115 4982 3718 
Q 4627 3322 4140 2522 
Q 3654 1722 3376 1194 
Q 3098 666 3098 390 
Q 3098 250 3222 186 
Q 3347 122 3852 122 
Q 4358 122 4710 157 
Q 5062 192 5190 256 
Q 5318 320 5385 509 
Q 5453 698 5491 1146 
Q 5664 966 5789 880 
Q 5914 794 6131 762 
z
" transform="scale(0.015625)"/>
       <path id="STHeiti-ff09" d="M 1120 5267 
Q 1747 4346 1984 3683 
Q 2221 3021 2221 2253 
Q 2221 1485 1961 768 
Q 1702 51 1139 -749 
L 749 -749 
Q 1312 282 1465 912 
Q 1619 1542 1619 2426 
Q 1619 3046 1440 3657 
Q 1261 4269 742 5267 
L 1120 5267 
z
" transform="scale(0.015625)"/>
      </defs>
      <use xlink:href="#STHeiti-46"/>
      <use xlink:href="#STHeiti-59" transform="translate(48.499985 0)"/>
      <use xlink:href="#STHeiti-32" transform="translate(107.699982 0)"/>
      <use xlink:href="#STHeiti-30" transform="translate(163.099976 0)"/>
      <use xlink:href="#STHeiti-32" transform="translate(218.499969 0)"/>
      <use xlink:href="#STHeiti-35" transform="translate(273.899963 0)"/>
      <use xlink:href="#STHeiti-8425" transform="translate(329.299957 0)"/>
      <use xlink:href="#STHeiti-6536" transform="translate(429.299942 0)"/>
      <use xlink:href="#STHeiti-ff08" transform="translate(529.299927 0)"/>
      <use xlink:href="#STHeiti-4ebf" transform="translate(629.299911 0)"/>
      <use xlink:href="#STHeiti-ff09" transform="translate(729.299896 0)"/>
     </g>
    </g>
    <g id="line2d_23">
     <path d="M 62.362071 32.588438 
L 71.362071 32.588438 
L 80.362071 32.588438 
" style="fill: none; stroke: #d69e2e; stroke-width: 2; stroke-linecap: square"/>
     <g>
      <use xlink:href="#me5924f8a54" x="71.362071" y="32.588438" style="fill: #d69e2e; stroke: #d69e2e"/>
     </g>
    </g>
    <g id="text_11">
     <!-- 应收账款周转天数 -->
     <g transform="translate(87.562071 35.738438) scale(0.09 -0.09)">
      <defs>
       <path id="STHeiti-5e94" d="M 3853 4614 
L 3264 4499 
Q 3136 4909 2970 5190 
L 3642 5370 
Q 3750 5024 3853 4614 
z
M 5850 3936 
Q 5446 3987 4333 3987 
L 1536 3987 
Q 1530 2509 1488 1798 
Q 1446 1088 1299 573 
Q 1152 58 813 -582 
Q 550 -307 294 -198 
Q 704 333 864 921 
Q 1024 1510 1024 2400 
Q 1024 3290 947 4512 
Q 1517 4461 3513 4461 
Q 5510 4461 5850 4512 
L 5850 3936 
z
M 4128 1574 
L 3552 1453 
Q 3526 2298 3136 3277 
L 3686 3418 
Q 3962 2477 4128 1574 
z
M 4435 250 
Q 5395 256 5965 314 
L 5965 -275 
Q 5229 -211 3734 -211 
Q 2240 -211 1523 -275 
L 1517 314 
Q 2246 250 3891 250 
Q 4198 691 4547 1641 
Q 4896 2592 5024 3341 
Q 5344 3181 5677 3091 
Q 5773 3066 5773 3034 
Q 5773 3002 5696 2950 
Q 5568 2861 5402 2432 
Q 4986 1376 4435 250 
z
M 3091 1062 
L 2534 845 
Q 2355 1651 1850 2662 
L 2368 2842 
Q 2758 1984 3091 1062 
z
" transform="scale(0.015625)"/>
       <path id="STHeiti-8d26" d="M 3859 2867 
L 5011 2867 
Q 5670 2867 5939 2912 
L 5939 2394 
Q 5683 2438 5005 2438 
L 4672 2438 
Q 4832 1549 5152 1069 
Q 5472 589 6106 326 
Q 5843 109 5683 -256 
Q 5101 115 4726 819 
Q 4352 1523 4250 2438 
L 3859 2438 
L 3859 294 
Q 4160 448 4448 640 
Q 4461 307 4582 160 
Q 3718 -339 3450 -602 
Q 3309 -326 3123 -102 
Q 3398 115 3398 595 
L 3398 2432 
Q 3085 2426 2880 2394 
L 2880 2912 
Q 3053 2886 3398 2867 
L 3398 4166 
Q 3398 4845 3360 5178 
Q 3661 5120 3859 5120 
L 3981 5133 
Q 4051 5133 4051 5094 
Q 4051 5056 4006 4992 
Q 3859 4768 3859 4454 
L 3859 2867 
z
M 5152 4979 
Q 5402 4806 5715 4717 
Q 5779 4698 5779 4662 
Q 5779 4627 5683 4576 
Q 5587 4525 5468 4387 
Q 5350 4250 5088 3814 
Q 4826 3379 4550 3066 
Q 4358 3200 4083 3264 
Q 4403 3578 4716 4086 
Q 5030 4595 5152 4979 
z
M 2784 1139 
L 2272 1139 
L 2272 4378 
L 1120 4378 
L 1120 1050 
L 595 1050 
Q 653 1382 653 2086 
L 653 4339 
Q 653 4717 627 4890 
Q 864 4832 1718 4832 
Q 2573 4832 2752 4890 
Q 2726 4730 2726 4339 
L 2726 2170 
Q 2726 1549 2784 1139 
z
M 1504 3936 
Q 1594 3910 1706 3897 
Q 1818 3885 1901 3885 
L 2029 3891 
Q 2093 3891 2093 3862 
Q 2093 3834 2054 3795 
Q 1952 3693 1952 2822 
Q 1952 1952 1888 1475 
Q 1824 998 1587 540 
Q 1350 83 806 -576 
Q 602 -390 301 -307 
Q 742 77 992 409 
Q 1242 742 1354 1097 
Q 1466 1453 1494 1821 
Q 1523 2189 1523 2982 
Q 1523 3776 1504 3936 
z
M 2861 154 
L 2490 -250 
Q 2291 83 1811 576 
L 2170 883 
Q 2566 422 2861 154 
z
" transform="scale(0.015625)"/>
       <path id="STHeiti-6b3e" d="M 1824 4147 
Q 1037 4147 550 4102 
L 550 4589 
Q 1050 4544 1824 4544 
Q 1824 5005 1798 5248 
Q 2074 5210 2387 5210 
Q 2470 5210 2470 5181 
Q 2470 5152 2413 5107 
Q 2317 5037 2317 4819 
L 2317 4544 
Q 3002 4550 3546 4589 
L 3546 4102 
Q 3002 4141 2317 4147 
L 2317 3590 
Q 2893 3597 3309 3635 
L 3309 3155 
Q 2861 3200 1971 3200 
Q 1082 3200 736 3155 
L 736 3635 
Q 1248 3590 1824 3590 
L 1824 4147 
z
M 4365 4141 
L 5357 4141 
Q 5786 4141 6080 4192 
L 5766 2899 
L 5235 2957 
L 5421 3674 
L 4224 3674 
Q 4077 3232 3885 2739 
Q 3661 2848 3354 2925 
Q 3936 3942 4000 5178 
Q 4435 5082 4698 5082 
Q 4781 5082 4781 5030 
Q 4781 4979 4707 4928 
Q 4634 4877 4566 4729 
Q 4499 4582 4365 4141 
z
M 4339 3168 
Q 4627 3123 4832 3123 
L 4992 3136 
Q 5043 3136 5043 3097 
Q 5043 3059 5004 3020 
Q 4966 2982 4940 2921 
Q 4915 2861 4873 2675 
Q 4832 2490 4832 2426 
Q 4832 1440 5165 880 
Q 5498 320 6170 0 
Q 5875 -339 5741 -595 
Q 5261 -237 5005 220 
Q 4749 678 4653 1350 
Q 4512 710 4221 272 
Q 3930 -166 3328 -640 
Q 3142 -448 2848 -301 
Q 3456 83 3763 470 
Q 4070 858 4208 1533 
Q 4346 2208 4346 2925 
Q 4346 3059 4339 3168 
z
M 3270 2291 
Q 2816 2336 1965 2336 
Q 1114 2336 762 2291 
L 762 2803 
Q 1210 2758 2013 2758 
Q 2816 2758 3270 2803 
L 3270 2291 
z
M 2362 1427 
L 2362 -38 
Q 2362 -262 2294 -380 
Q 2227 -499 2038 -560 
Q 1850 -621 1466 -646 
Q 1440 -384 1235 -70 
Q 1446 -102 1584 -102 
Q 1722 -102 1792 -51 
Q 1862 0 1862 134 
L 1862 1427 
Q 915 1427 525 1382 
L 525 1888 
Q 1062 1843 2003 1843 
Q 2944 1843 3475 1888 
L 3475 1382 
Q 2950 1421 2362 1427 
z
M 3494 506 
L 3021 205 
Q 2874 621 2624 966 
L 3072 1190 
Q 3302 736 3494 506 
z
M 992 1146 
Q 1280 1024 1414 989 
Q 1549 954 1549 915 
Q 1549 877 1469 822 
Q 1389 768 1328 678 
Q 1267 589 870 -115 
Q 659 6 403 51 
Q 915 730 992 1146 
z
" transform="scale(0.015625)"/>
       <path id="STHeiti-5468" d="M 5670 4890 
Q 5632 4307 5632 3629 
L 5632 154 
Q 5632 -173 5568 -313 
Q 5504 -454 5302 -524 
Q 5101 -595 4614 -659 
Q 4570 -307 4301 -13 
Q 4621 -58 4793 -58 
Q 4966 -58 5043 6 
Q 5120 70 5120 275 
L 5120 4397 
L 1613 4397 
L 1613 2509 
Q 1613 1402 1449 710 
Q 1286 19 902 -589 
Q 608 -333 307 -256 
Q 1107 371 1107 2547 
L 1107 4890 
Q 1862 4851 3267 4851 
Q 4672 4851 5670 4890 
z
M 3046 3277 
Q 2707 3270 2144 3238 
L 2144 3699 
Q 2502 3667 3046 3661 
Q 3040 4051 3002 4211 
Q 3251 4186 3590 4186 
Q 3680 4186 3680 4154 
Q 3680 4122 3609 4096 
Q 3539 4070 3539 3872 
L 3539 3661 
Q 4211 3661 4602 3699 
L 4602 3238 
Q 4205 3270 3539 3277 
L 3539 2682 
Q 4314 2682 4768 2720 
L 4768 2259 
Q 4102 2298 3347 2298 
Q 2592 2298 1926 2259 
L 1926 2720 
Q 2362 2688 3046 2682 
L 3046 3277 
z
M 4480 269 
Q 4013 314 3280 314 
Q 2547 314 2176 269 
Q 2214 576 2214 1078 
Q 2214 1581 2176 1882 
Q 2554 1837 3331 1837 
Q 4109 1837 4480 1882 
Q 4448 1536 4448 1069 
Q 4448 602 4480 269 
z
M 3968 736 
L 3968 1421 
L 2688 1421 
L 2688 736 
L 3968 736 
z
" transform="scale(0.015625)"/>
       <path id="STHeiti-8f6c" d="M 1658 2477 
Q 1651 3085 1613 3443 
Q 1894 3398 2208 3398 
Q 2278 3398 2278 3369 
Q 2278 3341 2211 3312 
Q 2144 3283 2144 3142 
L 2144 2477 
Q 2515 2483 2720 2528 
L 2720 2048 
Q 2496 2074 2144 2080 
L 2144 1190 
Q 2682 1280 2944 1357 
Q 2886 1101 2886 832 
Q 2682 813 2144 730 
Q 2144 19 2202 -646 
L 1600 -646 
Q 1658 -13 1658 653 
Q 960 531 563 384 
Q 525 653 448 1030 
Q 1037 1050 1658 1120 
L 1658 2074 
Q 979 2048 627 1958 
Q 570 2214 416 2438 
Q 666 2547 1094 3853 
Q 723 3846 512 3808 
L 512 4346 
Q 723 4301 1235 4294 
Q 1427 4909 1446 5274 
Q 1862 5120 2099 5069 
Q 2163 5056 2163 5024 
Q 2163 4992 2086 4944 
Q 2010 4896 1754 4294 
Q 2496 4294 2797 4346 
L 2797 3808 
Q 2598 3853 1574 3853 
L 1050 2477 
L 1658 2477 
z
M 4704 198 
Q 4934 26 5408 -365 
L 4986 -806 
Q 4160 51 3328 531 
L 3642 922 
Q 3923 742 4326 467 
L 4979 1414 
L 3405 1414 
Q 3546 2067 3622 2554 
Q 2963 2528 2797 2496 
L 2797 3040 
Q 3130 3002 3680 2989 
Q 3750 3571 3782 3782 
Q 3270 3770 3021 3731 
L 3021 4275 
Q 3251 4230 3834 4218 
Q 3910 4851 3917 5210 
Q 4307 5094 4538 5094 
Q 4621 5094 4621 5062 
Q 4621 5030 4541 4956 
Q 4461 4883 4352 4211 
L 5037 4211 
Q 5370 4211 5741 4275 
L 5741 3731 
Q 5408 3789 5037 3789 
L 4282 3789 
L 4166 2982 
L 5248 2982 
Q 5709 2982 6106 3040 
L 6106 2496 
Q 5664 2560 5248 2560 
L 4109 2560 
L 4019 1856 
L 5056 1856 
Q 5498 1856 5798 1894 
L 5798 1453 
Q 5510 1331 5312 1056 
L 4704 198 
z
" transform="scale(0.015625)"/>
       <path id="STHeiti-5929" d="M 2893 4218 
Q 1722 4211 1011 4160 
L 1011 4749 
Q 1741 4704 3152 4704 
Q 4563 4704 5338 4762 
L 5338 4160 
Q 4640 4211 3501 4218 
Q 3482 3443 3418 2886 
Q 4922 2886 5792 2944 
L 5792 2317 
Q 4966 2368 3603 2374 
Q 3904 1421 4547 845 
Q 5190 269 6042 198 
Q 5664 -90 5536 -474 
Q 3571 250 3290 2125 
Q 3053 1075 2464 432 
Q 1875 -211 800 -589 
Q 653 -320 358 -83 
Q 1466 250 2016 816 
Q 2566 1382 2752 2374 
Q 1421 2368 608 2317 
L 608 2931 
Q 1600 2886 2829 2886 
Q 2893 3539 2893 4218 
z
" transform="scale(0.015625)"/>
       <path id="STHeiti-6570" d="M 4640 480 
Q 4173 -51 3194 -467 
Q 3059 -237 2803 -26 
Q 3238 70 3673 323 
Q 4109 576 4365 890 
Q 3994 1549 3962 2835 
Q 3744 2458 3520 2176 
Q 3366 2419 3206 2522 
Q 3584 3040 3837 3747 
Q 4090 4454 4147 5171 
Q 4486 5062 4800 5037 
Q 4877 5030 4877 4988 
Q 4877 4947 4781 4896 
Q 4704 4858 4480 4128 
L 5216 4128 
Q 5747 4128 6003 4179 
L 6003 3661 
Q 5850 3680 5562 3699 
Q 5440 1773 4934 896 
Q 5254 518 6112 250 
Q 5856 6 5754 -365 
Q 4902 141 4640 480 
z
M 4627 1363 
Q 5018 2253 5088 3706 
L 4352 3706 
Q 4237 3328 3981 2874 
L 4384 2886 
Q 4384 1907 4627 1363 
z
M 1549 3526 
Q 1222 3520 589 3488 
L 589 3942 
Q 1158 3898 1850 3898 
L 1850 4499 
Q 1850 4800 1786 5165 
Q 2042 5139 2362 5139 
Q 2458 5139 2458 5094 
Q 2458 5050 2406 5030 
Q 2355 5011 2336 4976 
Q 2317 4941 2317 4845 
L 2317 3898 
Q 2758 3904 3507 3942 
L 3507 3488 
Q 2810 3526 2317 3533 
Q 2317 2970 2362 2515 
L 1805 2515 
Q 1850 3034 1850 3456 
Q 1632 3014 1401 2745 
Q 1171 2477 755 2189 
Q 608 2406 282 2573 
Q 1030 2816 1549 3526 
z
M 2861 4922 
Q 3155 4826 3386 4794 
Q 3462 4781 3462 4755 
Q 3462 4730 3388 4701 
Q 3315 4672 3228 4521 
Q 3142 4371 3014 4122 
Q 2835 4166 2560 4186 
Q 2746 4461 2861 4922 
z
M 1510 4230 
L 973 4154 
Q 966 4461 883 4806 
L 1389 4870 
Q 1459 4595 1510 4230 
z
M 3360 2790 
L 3046 2477 
Q 2765 2816 2464 3078 
L 2790 3328 
Q 3034 3117 3360 2790 
z
M 2899 755 
Q 3168 666 3450 525 
Q 3251 314 3168 128 
Q 2886 288 2637 390 
Q 2394 128 1984 -51 
Q 1574 -230 781 -410 
Q 627 -115 346 109 
Q 1619 134 2157 557 
Q 1709 691 1030 781 
Q 1248 1165 1408 1555 
Q 800 1549 531 1504 
L 531 1965 
Q 858 1939 1536 1926 
Q 1600 2118 1696 2458 
Q 1946 2355 2214 2336 
Q 2342 2323 2342 2294 
Q 2342 2266 2243 2198 
Q 2144 2131 2035 1926 
L 2899 1926 
Q 3162 1926 3341 1971 
Q 3123 1158 2899 755 
z
M 1862 1555 
L 1626 1043 
Q 2118 966 2470 883 
Q 2662 1165 2726 1555 
L 1862 1555 
z
" transform="scale(0.015625)"/>
      </defs>
      <use xlink:href="#STHeiti-5e94"/>
      <use xlink:href="#STHeiti-6536" transform="translate(99.999985 0)"/>
      <use xlink:href="#STHeiti-8d26" transform="translate(199.999969 0)"/>
      <use xlink:href="#STHeiti-6b3e" transform="translate(299.999954 0)"/>
      <use xlink:href="#STHeiti-5468" transform="translate(399.999939 0)"/>
      <use xlink:href="#STHeiti-8f6c" transform="translate(499.999924 0)"/>
      <use xlink:href="#STHeiti-5929" transform="translate(599.999908 0)"/>
      <use xlink:href="#STHeiti-6570" transform="translate(699.999893 0)"/>
     </g>
    </g>
    <g id="line2d_24">
     <path d="M 62.362071 45.458438 
L 71.362071 45.458438 
L 80.362071 45.458438 
" style="fill: none; stroke: #38a169; stroke-width: 2; stroke-linecap: square"/>
     <g>
      <use xlink:href="#m8b584885f8" x="71.362071" y="45.458438" style="fill: #38a169; stroke: #38a169"/>
     </g>
    </g>
    <g id="text_12">
     <!-- 来源 -->
     <g transform="translate(87.562071 48.608438) scale(0.09 -0.09)">
      <defs>
       <path id="STHeiti-6765" d="M 3546 1926 
L 3546 582 
Q 3546 -90 3597 -646 
L 2957 -646 
Q 3002 -160 3002 582 
L 3002 1926 
L 2938 1926 
Q 2630 1344 2076 749 
Q 1523 154 883 -294 
Q 691 -51 320 128 
Q 1664 800 2470 1926 
Q 1427 1920 538 1875 
L 538 2426 
Q 1427 2362 3002 2368 
L 3002 3898 
Q 1619 3898 838 3846 
L 838 4410 
Q 1555 4352 3002 4346 
Q 3002 5178 2970 5267 
Q 3091 5242 3235 5229 
Q 3379 5216 3469 5216 
L 3616 5222 
Q 3725 5222 3725 5174 
Q 3725 5126 3635 5046 
Q 3546 4966 3546 4787 
L 3546 4346 
Q 4819 4352 5747 4410 
L 5747 3846 
Q 4877 3898 3546 3898 
L 3546 2368 
Q 5152 2381 5971 2426 
L 5971 1875 
Q 5363 1914 3936 1926 
Q 4192 1357 4800 925 
Q 5408 493 6067 384 
Q 5869 122 5690 -301 
Q 4819 83 4345 553 
Q 3872 1024 3578 1926 
L 3546 1926 
z
M 4595 3699 
Q 4915 3552 5152 3482 
Q 5235 3456 5235 3430 
Q 5235 3405 5158 3353 
Q 5082 3302 4906 3062 
Q 4730 2822 4544 2496 
Q 4288 2694 4038 2726 
Q 4416 3181 4595 3699 
z
M 2298 2886 
L 1811 2547 
Q 1638 2918 1306 3296 
L 1734 3558 
Q 2042 3277 2298 2886 
z
" transform="scale(0.015625)"/>
      </defs>
      <use xlink:href="#STHeiti-6765"/>
      <use xlink:href="#STHeiti-6e90" transform="translate(99.999985 0)"/>
     </g>
    </g>
   </g>
  </g>
 </g>
 <defs>
  <clipPath id="p1db059b538">
   <rect x="54.262071" y="7.2" width="647.016733" height="278.277264"/>
  </clipPath>
 </defs>
</svg>
