<?xml version="1.0" encoding="utf-8" standalone="no"?>
<!DOCTYPE svg PUBLIC "-//W3C//DTD SVG 1.1//EN"
  "http://www.w3.org/Graphics/SVG/1.1/DTD/svg11.dtd">
<svg xmlns:xlink="http://www.w3.org/1999/xlink" width="712.430839pt" height="352.02904pt" viewBox="0 0 712.430839 352.02904" xmlns="http://www.w3.org/2000/svg" version="1.1">
 <metadata>
  <rdf:RDF xmlns:dc="http://purl.org/dc/elements/1.1/" xmlns:cc="http://creativecommons.org/ns#" xmlns:rdf="http://www.w3.org/1999/02/22-rdf-syntax-ns#">
   <cc:Work>
    <dc:type rdf:resource="http://purl.org/dc/dcmitype/StillImage"/>
    <dc:date>2026-06-05T08:52:38.168813</dc:date>
    <dc:format>image/svg+xml</dc:format>
    <dc:creator>
     <cc:Agent>
      <dc:title>Matplotlib v3.10.9, https://matplotlib.org/</dc:title>
     </cc:Agent>
    </dc:creator>
   </cc:Work>
  </rdf:RDF>
 </metadata>
 <defs>
  <style type="text/css">*{stroke-linejoin: round; stroke-linecap: butt}</style>
 </defs>
 <g id="figure_1">
  <g id="patch_1">
   <path d="M 0 352.02904 
L 712.430839 352.02904 
L 712.430839 0 
L 0 0 
z
" style="fill: #ffffff"/>
  </g>
  <g id="axes_1">
   <g id="patch_2">
    <path d="M 43.515407 303.607151 
L 705.230839 303.607151 
L 705.230839 7.2 
L 43.515407 7.2 
z
" style="fill: #fafafa"/>
   </g>
   <g id="matplotlib.axis_1">
    <g id="xtick_1">
     <g id="line2d_1">
      <path d="M 43.515407 303.607151 
L 43.515407 7.2 
" clip-path="url(#p1fd581f8ef)" style="fill: none; stroke: #b0b0b0; stroke-opacity: 0.3; stroke-width: 0.8; stroke-linecap: square"/>
     </g>
     <g id="line2d_2">
      <defs>
       <path id="m632e10bf04" d="M 0 0 
L 0 3.5 
" style="stroke: #000000; stroke-width: 0.8"/>
      </defs>
      <g>
       <use xlink:href="#m632e10bf04" x="43.515407" y="303.607151" style="stroke: #000000; stroke-width: 0.8"/>
      </g>
     </g>
     <g id="text_1">
      <!-- 2015-06 -->
      <g transform="translate(11.179688 335.782204) rotate(-30) scale(0.1 -0.1)">
       <defs>
        <path id="STHeiti-32" d="M 742 3539 
L 301 3539 
Q 333 4243 768 4668 
Q 1203 5094 1820 5094 
Q 2438 5094 2844 4694 
Q 3251 4294 3251 3718 
Q 3251 3290 3024 2925 
Q 2797 2560 2336 2061 
L 1190 826 
L 3315 826 
L 3315 384 
L 192 384 
L 1946 2278 
Q 2406 2778 2604 3066 
Q 2803 3354 2803 3725 
Q 2803 4096 2512 4377 
Q 2221 4659 1789 4659 
Q 1357 4659 1072 4368 
Q 787 4077 742 3539 
z
" transform="scale(0.015625)"/>
        <path id="STHeiti-30" d="M 1747 269 
Q 1005 269 605 880 
Q 205 1491 205 2681 
Q 205 3872 605 4483 
Q 1005 5094 1741 5094 
Q 2477 5094 2909 4470 
Q 3341 3846 3341 2681 
Q 3341 1517 2905 893 
Q 2470 269 1747 269 
z
M 1760 4659 
Q 1229 4659 934 4147 
Q 640 3635 640 2669 
Q 640 685 1760 685 
Q 2304 685 2608 1206 
Q 2912 1728 2912 2681 
Q 2912 3635 2598 4147 
Q 2285 4659 1760 4659 
z
" transform="scale(0.015625)"/>
        <path id="STHeiti-31" d="M 1184 4979 
L 2086 4979 
L 2086 384 
L 1632 384 
L 1632 4531 
L 909 4531 
L 1184 4979 
z
" transform="scale(0.015625)"/>
        <path id="STHeiti-35" d="M 3149 4979 
L 3149 4544 
L 1510 4544 
L 1280 3290 
Q 1587 3379 1856 3379 
Q 2458 3379 2861 2953 
Q 3264 2528 3264 1862 
Q 3264 1197 2825 733 
Q 2387 269 1664 269 
Q 1114 269 726 598 
Q 339 928 262 1498 
L 730 1498 
Q 813 1114 1075 909 
Q 1338 704 1683 704 
Q 2138 704 2467 1043 
Q 2797 1382 2797 1888 
Q 2797 2349 2509 2646 
Q 2221 2944 1757 2944 
Q 1293 2944 730 2701 
L 1158 4979 
L 3149 4979 
z
" transform="scale(0.015625)"/>
        <path id="STHeiti-2d" d="M 205 2304 
L 1920 2304 
L 1920 1920 
L 205 1920 
L 205 2304 
z
" transform="scale(0.015625)"/>
        <path id="STHeiti-36" d="M 2349 5094 
L 2726 4851 
L 1485 2970 
Q 1747 3059 1984 3059 
Q 2496 3059 2880 2652 
Q 3264 2246 3264 1660 
Q 3264 1075 2845 672 
Q 2426 269 1827 269 
Q 1229 269 829 678 
Q 429 1088 429 1677 
Q 429 1958 537 2256 
Q 646 2554 954 3014 
L 2349 5094 
z
M 2810 1683 
Q 2810 2086 2528 2368 
Q 2246 2650 1843 2650 
Q 1440 2650 1158 2368 
Q 877 2086 877 1683 
Q 877 1280 1161 998 
Q 1446 717 1843 717 
Q 2240 717 2525 998 
Q 2810 1280 2810 1683 
z
" transform="scale(0.015625)"/>
       </defs>
       <use xlink:href="#STHeiti-32"/>
       <use xlink:href="#STHeiti-30" transform="translate(55.399994 0)"/>
       <use xlink:href="#STHeiti-31" transform="translate(110.799988 0)"/>
       <use xlink:href="#STHeiti-35" transform="translate(166.199982 0)"/>
       <use xlink:href="#STHeiti-2d" transform="translate(221.599976 0)"/>
       <use xlink:href="#STHeiti-30" transform="translate(254.799973 0)"/>
       <use xlink:href="#STHeiti-36" transform="translate(310.199966 0)"/>
      </g>
     </g>
    </g>
    <g id="xtick_2">
     <g id="line2d_3">
      <path d="M 256.971998 303.607151 
L 256.971998 7.2 
" clip-path="url(#p1fd581f8ef)" style="fill: none; stroke: #b0b0b0; stroke-opacity: 0.3; stroke-width: 0.8; stroke-linecap: square"/>
     </g>
     <g id="line2d_4">
      <g>
       <use xlink:href="#m632e10bf04" x="256.971998" y="303.607151" style="stroke: #000000; stroke-width: 0.8"/>
      </g>
     </g>
     <g id="text_2">
      <!-- 2019-04 -->
      <g transform="translate(224.636278 335.782204) rotate(-30) scale(0.1 -0.1)">
       <defs>
        <path id="STHeiti-39" d="M 1229 269 
L 851 512 
L 2093 2394 
Q 1850 2310 1613 2310 
Q 1062 2310 688 2707 
Q 314 3104 314 3696 
Q 314 4288 730 4691 
Q 1146 5094 1750 5094 
Q 2355 5094 2748 4681 
Q 3142 4269 3142 3693 
Q 3142 3373 3011 3049 
Q 2880 2726 2624 2349 
L 1229 269 
z
M 762 3680 
Q 762 3277 1043 2995 
Q 1325 2714 1728 2714 
Q 2131 2714 2412 2998 
Q 2694 3283 2694 3680 
Q 2694 4077 2412 4361 
Q 2131 4646 1728 4646 
Q 1325 4646 1043 4364 
Q 762 4083 762 3680 
z
" transform="scale(0.015625)"/>
        <path id="STHeiti-34" d="M 2726 5094 
L 2816 5094 
L 2816 1894 
L 3373 1894 
L 3373 1453 
L 2816 1453 
L 2816 384 
L 2362 384 
L 2362 1453 
L 160 1453 
L 2726 5094 
z
M 2362 1894 
L 2362 3808 
L 1005 1894 
L 2362 1894 
z
" transform="scale(0.015625)"/>
       </defs>
       <use xlink:href="#STHeiti-32"/>
       <use xlink:href="#STHeiti-30" transform="translate(55.399994 0)"/>
       <use xlink:href="#STHeiti-31" transform="translate(110.799988 0)"/>
       <use xlink:href="#STHeiti-39" transform="translate(166.199982 0)"/>
       <use xlink:href="#STHeiti-2d" transform="translate(221.599976 0)"/>
       <use xlink:href="#STHeiti-30" transform="translate(254.799973 0)"/>
       <use xlink:href="#STHeiti-34" transform="translate(310.199966 0)"/>
      </g>
     </g>
    </g>
    <g id="xtick_3">
     <g id="line2d_5">
      <path d="M 470.428589 303.607151 
L 470.428589 7.2 
" clip-path="url(#p1fd581f8ef)" style="fill: none; stroke: #b0b0b0; stroke-opacity: 0.3; stroke-width: 0.8; stroke-linecap: square"/>
     </g>
     <g id="line2d_6">
      <g>
       <use xlink:href="#m632e10bf04" x="470.428589" y="303.607151" style="stroke: #000000; stroke-width: 0.8"/>
      </g>
     </g>
     <g id="text_3">
      <!-- 2022-03 -->
      <g transform="translate(438.092869 335.782204) rotate(-30) scale(0.1 -0.1)">
       <defs>
        <path id="STHeiti-33" d="M 845 3917 
L 378 3917 
Q 506 4486 867 4790 
Q 1229 5094 1750 5094 
Q 2272 5094 2659 4748 
Q 3046 4403 3046 3910 
Q 3046 3315 2458 2970 
Q 2861 2803 3081 2473 
Q 3302 2144 3302 1754 
Q 3302 1146 2857 707 
Q 2413 269 1734 269 
Q 1133 269 742 611 
Q 352 954 224 1613 
L 672 1613 
Q 794 1158 1046 937 
Q 1299 717 1760 717 
Q 2221 717 2534 1011 
Q 2848 1306 2848 1741 
Q 2848 2176 2502 2441 
Q 2157 2707 1498 2720 
L 1498 3142 
Q 1971 3142 2268 3360 
Q 2566 3578 2566 3901 
Q 2566 4224 2326 4438 
Q 2086 4653 1747 4653 
Q 1408 4653 1200 4470 
Q 992 4288 845 3917 
z
" transform="scale(0.015625)"/>
       </defs>
       <use xlink:href="#STHeiti-32"/>
       <use xlink:href="#STHeiti-30" transform="translate(55.399994 0)"/>
       <use xlink:href="#STHeiti-32" transform="translate(110.799988 0)"/>
       <use xlink:href="#STHeiti-32" transform="translate(166.199982 0)"/>
       <use xlink:href="#STHeiti-2d" transform="translate(221.599976 0)"/>
       <use xlink:href="#STHeiti-30" transform="translate(254.799973 0)"/>
       <use xlink:href="#STHeiti-33" transform="translate(310.199966 0)"/>
      </g>
     </g>
    </g>
    <g id="xtick_4">
     <g id="line2d_7">
      <path d="M 683.88518 303.607151 
L 683.88518 7.2 
" clip-path="url(#p1fd581f8ef)" style="fill: none; stroke: #b0b0b0; stroke-opacity: 0.3; stroke-width: 0.8; stroke-linecap: square"/>
     </g>
     <g id="line2d_8">
      <g>
       <use xlink:href="#m632e10bf04" x="683.88518" y="303.607151" style="stroke: #000000; stroke-width: 0.8"/>
      </g>
     </g>
     <g id="text_4">
      <!-- 2026（拟） -->
      <g transform="translate(638.040817 343.668025) rotate(-30) scale(0.1 -0.1)">
       <defs>
        <path id="STHeiti-ff08" d="M 5651 -749 
L 5274 -749 
Q 4646 173 4409 835 
Q 4173 1498 4173 2266 
Q 4173 3034 4432 3750 
Q 4691 4467 5254 5267 
L 5645 5267 
Q 5082 4237 4928 3606 
Q 4774 2976 4774 2093 
Q 4774 1472 4953 861 
Q 5133 250 5651 -749 
z
" transform="scale(0.015625)"/>
        <path id="STHeiti-62df" d="M 1818 2355 
Q 2125 2477 2470 2637 
Q 2458 2554 2458 2435 
Q 2458 2317 2541 2157 
Q 2272 2074 1818 1875 
L 1818 -45 
Q 1818 -205 1754 -288 
Q 1690 -371 1501 -422 
Q 1312 -474 909 -518 
Q 890 -230 646 115 
Q 947 64 1084 64 
Q 1222 64 1280 102 
Q 1338 141 1338 288 
L 1338 1658 
Q 813 1402 595 1261 
Q 531 1568 378 1869 
Q 877 2016 1338 2176 
L 1338 3398 
Q 781 3386 474 3341 
L 474 3885 
Q 730 3846 1338 3834 
Q 1338 4890 1274 5133 
Q 1504 5088 1862 5088 
Q 1997 5088 1997 5043 
Q 1997 5011 1907 4944 
Q 1818 4877 1818 4685 
L 1818 3834 
Q 2214 3840 2490 3885 
L 2490 3341 
Q 2214 3386 1818 3392 
L 1818 2355 
z
M 5043 794 
Q 4646 179 3258 -627 
Q 3110 -384 2816 -186 
Q 3770 141 4250 601 
Q 4730 1062 4864 1833 
Q 4998 2605 4998 3587 
Q 4998 4570 4947 5056 
Q 5158 4992 5606 4992 
Q 5715 4992 5715 4944 
Q 5715 4896 5648 4854 
Q 5581 4813 5523 3680 
Q 5466 2547 5411 2028 
Q 5357 1510 5274 1274 
Q 5619 845 6144 109 
L 5574 -224 
Q 5389 192 5043 794 
z
M 4499 3315 
L 4019 3117 
Q 3757 4243 3494 4883 
L 3968 5043 
Q 4256 4314 4499 3315 
z
M 4320 1664 
L 3456 768 
Q 3238 550 3002 218 
Q 2842 525 2656 736 
Q 2733 832 2768 934 
Q 2803 1037 2803 1254 
L 2803 3533 
Q 2803 4077 2771 4301 
Q 2976 4256 3379 4256 
Q 3475 4256 3475 4221 
Q 3475 4186 3424 4147 
Q 3296 4058 3296 3917 
L 3296 1254 
Q 3795 1766 4077 2093 
Q 4141 1818 4320 1664 
z
" transform="scale(0.015625)"/>
        <path id="STHeiti-ff09" d="M 1120 5267 
Q 1747 4346 1984 3683 
Q 2221 3021 2221 2253 
Q 2221 1485 1961 768 
Q 1702 51 1139 -749 
L 749 -749 
Q 1312 282 1465 912 
Q 1619 1542 1619 2426 
Q 1619 3046 1440 3657 
Q 1261 4269 742 5267 
L 1120 5267 
z
" transform="scale(0.015625)"/>
       </defs>
       <use xlink:href="#STHeiti-32"/>
       <use xlink:href="#STHeiti-30" transform="translate(55.399994 0)"/>
       <use xlink:href="#STHeiti-32" transform="translate(110.799988 0)"/>
       <use xlink:href="#STHeiti-36" transform="translate(166.199982 0)"/>
       <use xlink:href="#STHeiti-ff08" transform="translate(221.599976 0)"/>
       <use xlink:href="#STHeiti-62df" transform="translate(321.59996 0)"/>
       <use xlink:href="#STHeiti-ff09" transform="translate(421.599945 0)"/>
      </g>
     </g>
    </g>
   </g>
   <g id="matplotlib.axis_2">
    <g id="ytick_1">
     <g id="line2d_9">
      <path d="M 43.515407 290.134099 
L 705.230839 290.134099 
" clip-path="url(#p1fd581f8ef)" style="fill: none; stroke: #b0b0b0; stroke-opacity: 0.3; stroke-width: 0.8; stroke-linecap: square"/>
     </g>
     <g id="line2d_10">
      <defs>
       <path id="m6e99099715" d="M 0 0 
L -3.5 0 
" style="stroke: #000000; stroke-width: 0.8"/>
      </defs>
      <g>
       <use xlink:href="#m6e99099715" x="43.515407" y="290.134099" style="stroke: #000000; stroke-width: 0.8"/>
      </g>
     </g>
     <g id="text_5">
      <!-- 5 -->
      <g transform="translate(30.974782 294.113787) scale(0.1 -0.1)">
       <use xlink:href="#STHeiti-35"/>
      </g>
     </g>
    </g>
    <g id="ytick_2">
     <g id="line2d_11">
      <path d="M 43.515407 251.639664 
L 705.230839 251.639664 
" clip-path="url(#p1fd581f8ef)" style="fill: none; stroke: #b0b0b0; stroke-opacity: 0.3; stroke-width: 0.8; stroke-linecap: square"/>
     </g>
     <g id="line2d_12">
      <g>
       <use xlink:href="#m6e99099715" x="43.515407" y="251.639664" style="stroke: #000000; stroke-width: 0.8"/>
      </g>
     </g>
     <g id="text_6">
      <!-- 6 -->
      <g transform="translate(30.974782 255.619351) scale(0.1 -0.1)">
       <use xlink:href="#STHeiti-36"/>
      </g>
     </g>
    </g>
    <g id="ytick_3">
     <g id="line2d_13">
      <path d="M 43.515407 213.145229 
L 705.230839 213.145229 
" clip-path="url(#p1fd581f8ef)" style="fill: none; stroke: #b0b0b0; stroke-opacity: 0.3; stroke-width: 0.8; stroke-linecap: square"/>
     </g>
     <g id="line2d_14">
      <g>
       <use xlink:href="#m6e99099715" x="43.515407" y="213.145229" style="stroke: #000000; stroke-width: 0.8"/>
      </g>
     </g>
     <g id="text_7">
      <!-- 7 -->
      <g transform="translate(30.974782 217.124916) scale(0.1 -0.1)">
       <defs>
        <path id="STHeiti-37" d="M 461 4979 
L 3373 4979 
L 915 269 
L 538 461 
L 2662 4544 
L 461 4544 
L 461 4979 
z
" transform="scale(0.015625)"/>
       </defs>
       <use xlink:href="#STHeiti-37"/>
      </g>
     </g>
    </g>
    <g id="ytick_4">
     <g id="line2d_15">
      <path d="M 43.515407 174.650793 
L 705.230839 174.650793 
" clip-path="url(#p1fd581f8ef)" style="fill: none; stroke: #b0b0b0; stroke-opacity: 0.3; stroke-width: 0.8; stroke-linecap: square"/>
     </g>
     <g id="line2d_16">
      <g>
       <use xlink:href="#m6e99099715" x="43.515407" y="174.650793" style="stroke: #000000; stroke-width: 0.8"/>
      </g>
     </g>
     <g id="text_8">
      <!-- 8 -->
      <g transform="translate(30.974782 178.630481) scale(0.1 -0.1)">
       <defs>
        <path id="STHeiti-38" d="M 2458 2906 
Q 3328 2477 3328 1702 
Q 3328 1088 2896 678 
Q 2464 269 1763 269 
Q 1062 269 640 678 
Q 218 1088 218 1664 
Q 218 2470 1107 2906 
Q 435 3264 435 3898 
Q 435 4371 828 4732 
Q 1222 5094 1779 5094 
Q 2336 5094 2726 4742 
Q 3117 4390 3117 3885 
Q 3117 3270 2458 2906 
z
M 2656 3904 
Q 2656 4211 2416 4432 
Q 2176 4653 1789 4653 
Q 1402 4653 1152 4432 
Q 902 4211 902 3897 
Q 902 3584 1174 3337 
Q 1446 3091 1792 3091 
Q 2138 3091 2397 3334 
Q 2656 3578 2656 3904 
z
M 2867 1696 
Q 2867 2086 2550 2380 
Q 2234 2675 1782 2675 
Q 1331 2675 1004 2371 
Q 678 2067 678 1654 
Q 678 1242 979 973 
Q 1280 704 1766 704 
Q 2253 704 2560 992 
Q 2867 1280 2867 1696 
z
" transform="scale(0.015625)"/>
       </defs>
       <use xlink:href="#STHeiti-38"/>
      </g>
     </g>
    </g>
    <g id="ytick_5">
     <g id="line2d_17">
      <path d="M 43.515407 136.156358 
L 705.230839 136.156358 
" clip-path="url(#p1fd581f8ef)" style="fill: none; stroke: #b0b0b0; stroke-opacity: 0.3; stroke-width: 0.8; stroke-linecap: square"/>
     </g>
     <g id="line2d_18">
      <g>
       <use xlink:href="#m6e99099715" x="43.515407" y="136.156358" style="stroke: #000000; stroke-width: 0.8"/>
      </g>
     </g>
     <g id="text_9">
      <!-- 9 -->
      <g transform="translate(30.974782 140.136046) scale(0.1 -0.1)">
       <use xlink:href="#STHeiti-39"/>
      </g>
     </g>
    </g>
    <g id="ytick_6">
     <g id="line2d_19">
      <path d="M 43.515407 97.661923 
L 705.230839 97.661923 
" clip-path="url(#p1fd581f8ef)" style="fill: none; stroke: #b0b0b0; stroke-opacity: 0.3; stroke-width: 0.8; stroke-linecap: square"/>
     </g>
     <g id="line2d_20">
      <g>
       <use xlink:href="#m6e99099715" x="43.515407" y="97.661923" style="stroke: #000000; stroke-width: 0.8"/>
      </g>
     </g>
     <g id="text_10">
      <!-- 10 -->
      <g transform="translate(25.434157 101.64161) scale(0.1 -0.1)">
       <use xlink:href="#STHeiti-31"/>
       <use xlink:href="#STHeiti-30" transform="translate(55.399994 0)"/>
      </g>
     </g>
    </g>
    <g id="ytick_7">
     <g id="line2d_21">
      <path d="M 43.515407 59.167488 
L 705.230839 59.167488 
" clip-path="url(#p1fd581f8ef)" style="fill: none; stroke: #b0b0b0; stroke-opacity: 0.3; stroke-width: 0.8; stroke-linecap: square"/>
     </g>
     <g id="line2d_22">
      <g>
       <use xlink:href="#m6e99099715" x="43.515407" y="59.167488" style="stroke: #000000; stroke-width: 0.8"/>
      </g>
     </g>
     <g id="text_11">
      <!-- 11 -->
      <g transform="translate(25.434157 63.147175) scale(0.1 -0.1)">
       <use xlink:href="#STHeiti-31"/>
       <use xlink:href="#STHeiti-31" transform="translate(55.399994 0)"/>
      </g>
     </g>
    </g>
    <g id="ytick_8">
     <g id="line2d_23">
      <path d="M 43.515407 20.673052 
L 705.230839 20.673052 
" clip-path="url(#p1fd581f8ef)" style="fill: none; stroke: #b0b0b0; stroke-opacity: 0.3; stroke-width: 0.8; stroke-linecap: square"/>
     </g>
     <g id="line2d_24">
      <g>
       <use xlink:href="#m6e99099715" x="43.515407" y="20.673052" style="stroke: #000000; stroke-width: 0.8"/>
      </g>
     </g>
     <g id="text_12">
      <!-- 12 -->
      <g transform="translate(25.434157 24.65274) scale(0.1 -0.1)">
       <use xlink:href="#STHeiti-31"/>
       <use xlink:href="#STHeiti-32" transform="translate(55.399994 0)"/>
      </g>
     </g>
    </g>
   </g>
   <g id="line2d_25">
    <path d="M 256.971998 20.673052 
L 470.428589 116.90914 
L 683.88518 290.134099 
" clip-path="url(#p1fd581f8ef)" style="fill: none; stroke: #1a365d; stroke-width: 2; stroke-linecap: square"/>
    <defs>
     <path id="mf5f09e2b16" d="M 0 3 
C 0.795609 3 1.55874 2.683901 2.12132 2.12132 
C 2.683901 1.55874 3 0.795609 3 0 
C 3 -0.795609 2.683901 -1.55874 2.12132 -2.12132 
C 1.55874 -2.683901 0.795609 -3 0 -3 
C -0.795609 -3 -1.55874 -2.683901 -2.12132 -2.12132 
C -2.683901 -1.55874 -3 -0.795609 -3 0 
C -3 0.795609 -2.683901 1.55874 -2.12132 2.12132 
C -1.55874 2.683901 -0.795609 3 0 3 
z
" style="stroke: #1a365d"/>
    </defs>
    <g clip-path="url(#p1fd581f8ef)">
     <use xlink:href="#mf5f09e2b16" x="256.971998" y="20.673052" style="fill: #1a365d; stroke: #1a365d"/>
     <use xlink:href="#mf5f09e2b16" x="470.428589" y="116.90914" style="fill: #1a365d; stroke: #1a365d"/>
     <use xlink:href="#mf5f09e2b16" x="683.88518" y="290.134099" style="fill: #1a365d; stroke: #1a365d"/>
    </g>
   </g>
   <g id="patch_3">
    <path d="M 43.515407 303.607151 
L 43.515407 7.2 
" style="fill: none; stroke: #000000; stroke-width: 0.8; stroke-linejoin: miter; stroke-linecap: square"/>
   </g>
   <g id="patch_4">
    <path d="M 705.230839 303.607151 
L 705.230839 7.2 
" style="fill: none; stroke: #000000; stroke-width: 0.8; stroke-linejoin: miter; stroke-linecap: square"/>
   </g>
   <g id="patch_5">
    <path d="M 43.515407 303.607151 
L 705.230839 303.607151 
" style="fill: none; stroke: #000000; stroke-width: 0.8; stroke-linejoin: miter; stroke-linecap: square"/>
   </g>
   <g id="patch_6">
    <path d="M 43.515407 7.2 
L 705.230839 7.2 
" style="fill: none; stroke: #000000; stroke-width: 0.8; stroke-linejoin: miter; stroke-linecap: square"/>
   </g>
   <g id="legend_1">
    <g id="patch_7">
     <path d="M 652.130839 27.27 
L 698.930839 27.27 
Q 700.730839 27.27 700.730839 25.47 
L 700.730839 13.5 
Q 700.730839 11.7 698.930839 11.7 
L 652.130839 11.7 
Q 650.330839 11.7 650.330839 13.5 
L 650.330839 25.47 
Q 650.330839 27.27 652.130839 27.27 
z
" style="fill: #ffffff; opacity: 0.8; stroke: #cccccc; stroke-linejoin: miter"/>
    </g>
    <g id="line2d_26">
     <path d="M 653.930839 19.313437 
L 662.930839 19.313437 
L 671.930839 19.313437 
" style="fill: none; stroke: #1a365d; stroke-width: 2; stroke-linecap: square"/>
     <g>
      <use xlink:href="#mf5f09e2b16" x="662.930839" y="19.313437" style="fill: #1a365d; stroke: #1a365d"/>
     </g>
    </g>
    <g id="text_13">
     <!-- 金额 -->
     <g transform="translate(679.130839 22.463437) scale(0.09 -0.09)">
      <defs>
       <path id="STHeiti-91d1" d="M 3386 4947 
Q 4038 4243 4636 3878 
Q 5235 3514 6138 3302 
Q 6042 3213 5958 3024 
Q 5875 2835 5869 2688 
Q 4192 3251 3123 4698 
Q 2586 3968 1632 3187 
Q 2182 3142 3200 3142 
Q 4218 3142 4736 3194 
L 4736 2662 
Q 4314 2694 3405 2707 
L 3405 1920 
Q 4768 1920 5261 1958 
L 5261 1440 
Q 4768 1478 3405 1478 
L 3405 154 
L 4006 147 
Q 4288 787 4371 1299 
Q 4736 1146 4922 1094 
Q 4979 1075 4979 1024 
Q 4979 973 4934 954 
Q 4826 902 4390 147 
Q 5094 154 5632 211 
L 5632 -390 
Q 4525 -320 3024 -320 
Q 1523 -320 646 -384 
L 646 218 
Q 1472 154 2886 154 
L 2886 1478 
Q 1638 1478 1005 1434 
L 1005 1965 
Q 1664 1920 2886 1920 
L 2886 2707 
Q 1990 2707 1574 2662 
L 1574 3142 
Q 1037 2720 678 2528 
Q 570 2797 275 2925 
Q 742 3130 1184 3469 
Q 1626 3808 1984 4173 
Q 2342 4538 2505 4787 
Q 2669 5037 2778 5306 
Q 3219 5126 3360 5107 
Q 3501 5088 3501 5040 
Q 3501 4992 3386 4947 
z
M 2234 525 
L 1709 275 
Q 1491 774 1286 1037 
L 1805 1261 
Q 2080 832 2234 525 
z
" transform="scale(0.015625)"/>
       <path id="STHeiti-989d" d="M 2182 4538 
Q 2733 4538 3168 4570 
L 3168 3763 
L 2707 3763 
L 2707 4134 
L 902 4134 
L 902 3546 
L 461 3546 
L 461 4563 
Q 858 4538 1619 4538 
Q 1549 4826 1459 5011 
L 1990 5126 
Q 2106 4826 2182 4538 
z
M 4288 4384 
Q 3680 4378 3366 4333 
L 3366 4851 
Q 3763 4800 4643 4800 
Q 5523 4800 5920 4851 
L 5920 4333 
Q 5555 4384 4781 4384 
Q 4653 3898 4614 3642 
Q 5440 3642 5766 3667 
Q 5754 3571 5754 2899 
L 5754 1830 
Q 5754 1254 5779 1030 
L 5267 1030 
L 5267 3219 
L 3866 3219 
L 3866 915 
L 3379 915 
Q 3405 1152 3405 1715 
L 3405 2899 
Q 3405 3590 3398 3667 
Q 3642 3654 4166 3642 
Q 4243 4019 4288 4384 
z
M 2336 19 
L 1370 19 
L 1370 -570 
L 883 -570 
Q 947 -154 947 224 
L 947 1210 
Q 806 1107 659 1024 
Q 518 1203 307 1376 
Q 1037 1670 1619 2234 
Q 1376 2349 1120 2464 
L 1382 2778 
Q 1664 2650 1894 2541 
Q 2118 2803 2291 3053 
L 1357 3053 
Q 1107 2707 730 2336 
Q 550 2496 301 2579 
Q 1037 3162 1402 3968 
Q 1677 3834 1808 3824 
Q 1939 3814 1939 3772 
Q 1939 3731 1859 3686 
Q 1779 3642 1638 3443 
L 2266 3443 
Q 2771 3443 3040 3462 
Q 2694 2810 2291 2355 
Q 2714 2150 3245 1869 
L 2957 1459 
Q 2586 1741 1990 2048 
Q 1651 1728 1286 1453 
L 2042 1453 
Q 2560 1453 2771 1478 
Q 2752 1325 2752 998 
L 2752 442 
Q 2752 0 2803 -358 
L 2336 -358 
L 2336 19 
z
M 1370 390 
L 2336 390 
L 2336 1082 
L 1370 1082 
L 1370 390 
z
M 4307 2957 
Q 4570 2925 4755 2925 
L 4870 2931 
Q 4909 2931 4909 2912 
Q 4909 2893 4877 2867 
Q 4806 2816 4806 2643 
Q 4806 2285 4739 1440 
Q 4672 595 4243 89 
Q 3814 -416 3251 -627 
Q 3123 -442 2867 -269 
Q 3181 -154 3469 41 
Q 3757 237 3958 499 
Q 4160 762 4243 1062 
Q 4326 1363 4326 2246 
Q 4326 2630 4307 2957 
z
M 6138 -134 
L 5734 -531 
Q 5158 77 4653 454 
L 4992 794 
Q 5587 378 6138 -134 
z
" transform="scale(0.015625)"/>
      </defs>
      <use xlink:href="#STHeiti-91d1"/>
      <use xlink:href="#STHeiti-989d" transform="translate(99.999985 0)"/>
     </g>
    </g>
   </g>
  </g>
 </g>
 <defs>
  <clipPath id="p1fd581f8ef">
   <rect x="43.515407" y="7.2" width="661.715432" height="296.407151"/>
  </clipPath>
 </defs>
</svg>
