<?xml version="1.0" encoding="utf-8" standalone="no"?>
<!DOCTYPE svg PUBLIC "-//W3C//DTD SVG 1.1//EN"
  "http://www.w3.org/Graphics/SVG/1.1/DTD/svg11.dtd">
<svg xmlns:xlink="http://www.w3.org/1999/xlink" width="708.076889pt" height="352.355282pt" viewBox="0 0 708.076889 352.355282" xmlns="http://www.w3.org/2000/svg" version="1.1">
 <metadata>
  <rdf:RDF xmlns:dc="http://purl.org/dc/elements/1.1/" xmlns:cc="http://creativecommons.org/ns#" xmlns:rdf="http://www.w3.org/1999/02/22-rdf-syntax-ns#">
   <cc:Work>
    <dc:type rdf:resource="http://purl.org/dc/dcmitype/StillImage"/>
    <dc:date>2026-06-05T11:23:48.118049</dc:date>
    <dc:format>image/svg+xml</dc:format>
    <dc:creator>
     <cc:Agent>
      <dc:title>Matplotlib v3.10.9, https://matplotlib.org/</dc:title>
     </cc:Agent>
    </dc:creator>
   </cc:Work>
  </rdf:RDF>
 </metadata>
 <defs>
  <style type="text/css">*{stroke-linejoin: round; stroke-linecap: butt}</style>
 </defs>
 <g id="figure_1">
  <g id="patch_1">
   <path d="M 0 352.355282 
L 708.076889 352.355282 
L 708.076889 0 
L 0 0 
z
" style="fill: #ffffff"/>
  </g>
  <g id="axes_1">
   <g id="patch_2">
    <path d="M 45.208563 263.495464 
L 700.876889 263.495464 
L 700.876889 7.2 
L 45.208563 7.2 
z
" style="fill: #fafafa"/>
   </g>
   <g id="matplotlib.axis_1">
    <g id="xtick_1">
     <g id="line2d_1">
      <path d="M 75.011668 263.495464 
L 75.011668 7.2 
" clip-path="url(#p5c06b79fba)" style="fill: none; stroke: #b0b0b0; stroke-opacity: 0.3; stroke-width: 0.8; stroke-linecap: square"/>
     </g>
     <g id="line2d_2">
      <defs>
       <path id="m49b7565667" d="M 0 0 
L 0 3.5 
" style="stroke: #000000; stroke-width: 0.8"/>
      </defs>
      <g>
       <use xlink:href="#m49b7565667" x="75.011668" y="263.495464" style="stroke: #000000; stroke-width: 0.8"/>
      </g>
     </g>
     <g id="text_1">
      <!-- FY2025营业收入 -->
      <g transform="translate(11.179688 313.854891) rotate(-30) scale(0.1 -0.1)">
       <defs>
        <path id="STHeiti-46" d="M 557 4979 
L 2861 4979 
L 2861 4525 
L 1018 4525 
L 1018 3091 
L 2861 3091 
L 2861 2637 
L 1018 2637 
L 1018 384 
L 557 384 
L 557 4979 
z
" transform="scale(0.015625)"/>
        <path id="STHeiti-59" d="M 198 4979 
L 730 4979 
L 1901 3085 
L 3059 4979 
L 3590 4979 
L 2131 2579 
L 2131 384 
L 1683 384 
L 1683 2579 
L 198 4979 
z
" transform="scale(0.015625)"/>
        <path id="STHeiti-32" d="M 742 3539 
L 301 3539 
Q 333 4243 768 4668 
Q 1203 5094 1820 5094 
Q 2438 5094 2844 4694 
Q 3251 4294 3251 3718 
Q 3251 3290 3024 2925 
Q 2797 2560 2336 2061 
L 1190 826 
L 3315 826 
L 3315 384 
L 192 384 
L 1946 2278 
Q 2406 2778 2604 3066 
Q 2803 3354 2803 3725 
Q 2803 4096 2512 4377 
Q 2221 4659 1789 4659 
Q 1357 4659 1072 4368 
Q 787 4077 742 3539 
z
" transform="scale(0.015625)"/>
        <path id="STHeiti-30" d="M 1747 269 
Q 1005 269 605 880 
Q 205 1491 205 2681 
Q 205 3872 605 4483 
Q 1005 5094 1741 5094 
Q 2477 5094 2909 4470 
Q 3341 3846 3341 2681 
Q 3341 1517 2905 893 
Q 2470 269 1747 269 
z
M 1760 4659 
Q 1229 4659 934 4147 
Q 640 3635 640 2669 
Q 640 685 1760 685 
Q 2304 685 2608 1206 
Q 2912 1728 2912 2681 
Q 2912 3635 2598 4147 
Q 2285 4659 1760 4659 
z
" transform="scale(0.015625)"/>
        <path id="STHeiti-35" d="M 3149 4979 
L 3149 4544 
L 1510 4544 
L 1280 3290 
Q 1587 3379 1856 3379 
Q 2458 3379 2861 2953 
Q 3264 2528 3264 1862 
Q 3264 1197 2825 733 
Q 2387 269 1664 269 
Q 1114 269 726 598 
Q 339 928 262 1498 
L 730 1498 
Q 813 1114 1075 909 
Q 1338 704 1683 704 
Q 2138 704 2467 1043 
Q 2797 1382 2797 1888 
Q 2797 2349 2509 2646 
Q 2221 2944 1757 2944 
Q 1293 2944 730 2701 
L 1158 4979 
L 3149 4979 
z
" transform="scale(0.015625)"/>
        <path id="STHeiti-8425" d="M 4282 3693 
Q 5274 3706 5856 3731 
L 5856 2662 
L 5344 2662 
L 5344 3277 
L 1082 3277 
L 1082 2624 
L 570 2624 
L 570 3731 
Q 1082 3699 2106 3693 
L 2106 4218 
Q 1056 4205 467 4160 
L 467 4666 
Q 1133 4614 2106 4614 
Q 2099 4973 2054 5178 
Q 2387 5133 2650 5133 
Q 2733 5133 2733 5101 
Q 2733 5069 2681 5037 
Q 2630 5005 2617 4979 
Q 2605 4954 2605 4890 
L 2605 4614 
L 3782 4614 
Q 3776 4947 3738 5171 
Q 4019 5133 4326 5133 
Q 4410 5133 4410 5101 
Q 4410 5069 4358 5037 
Q 4307 5005 4294 4979 
Q 4282 4954 4282 4890 
L 4282 4614 
Q 5299 4614 5965 4666 
L 5965 4160 
Q 5344 4218 4282 4218 
L 4282 3693 
z
M 2605 3693 
L 3782 3693 
L 3782 4218 
L 2605 4218 
L 2605 3693 
z
M 4794 1568 
Q 4230 1587 3270 1587 
Q 2310 1587 1587 1562 
Q 1619 1773 1619 2176 
Q 1619 2579 1587 2874 
Q 2086 2848 3190 2848 
Q 4294 2848 4794 2874 
Q 4774 2611 4774 2217 
Q 4774 1824 4794 1568 
z
M 4269 1971 
L 4269 2464 
L 2118 2464 
L 2118 1971 
L 4269 1971 
z
M 4698 -109 
L 1722 -109 
L 1722 -576 
L 1152 -576 
Q 1197 -333 1197 -64 
L 1197 890 
Q 1197 1037 1158 1197 
Q 1350 1184 3235 1184 
Q 5120 1184 5280 1197 
Q 5248 1082 5248 890 
L 5248 0 
Q 5248 -269 5293 -512 
L 4698 -512 
L 4698 -109 
z
M 1722 288 
L 4698 288 
L 4698 794 
L 1722 794 
L 1722 288 
z
" transform="scale(0.015625)"/>
        <path id="STHeiti-4e1a" d="M 2310 301 
L 2310 4198 
Q 2310 4672 2259 5107 
Q 2509 5056 2918 5056 
Q 3002 5056 3002 5018 
Q 3002 4986 2925 4925 
Q 2848 4864 2848 4742 
L 2848 301 
L 3578 301 
L 3578 4186 
Q 3578 4589 3526 5094 
Q 3725 5050 4186 5050 
Q 4269 5050 4269 5014 
Q 4269 4979 4192 4915 
Q 4115 4851 4115 4730 
L 4115 301 
Q 5504 301 6035 358 
L 6035 -250 
Q 5658 -192 3325 -192 
Q 992 -192 499 -250 
L 499 358 
Q 1069 301 2310 301 
z
M 5114 4006 
Q 5472 3840 5830 3808 
Q 5901 3802 5901 3770 
Q 5901 3738 5833 3696 
Q 5766 3654 5654 3433 
Q 5542 3213 5478 2995 
Q 5222 2093 4941 1363 
Q 4691 1517 4390 1485 
Q 4851 2419 5114 4006 
z
M 2048 1523 
L 1389 1306 
Q 1158 2650 614 3603 
L 1203 3853 
Q 1574 2662 2048 1523 
z
" transform="scale(0.015625)"/>
        <path id="STHeiti-6536" d="M 1824 1664 
L 1824 4230 
Q 1824 4998 1773 5190 
Q 2003 5146 2413 5146 
Q 2522 5146 2522 5107 
Q 2522 5069 2435 5017 
Q 2349 4966 2349 4544 
L 2349 563 
Q 2349 26 2413 -589 
L 1766 -589 
Q 1824 6 1824 563 
L 1824 1197 
L 1082 992 
Q 826 922 614 762 
Q 512 1030 352 1293 
Q 608 1440 608 1722 
L 608 3539 
Q 608 4115 582 4282 
Q 806 4243 973 4243 
L 1171 4250 
Q 1261 4250 1261 4211 
Q 1261 4173 1203 4141 
Q 1082 4083 1082 3968 
L 1082 1510 
L 1824 1664 
z
M 4224 1286 
Q 4685 1984 4781 3462 
L 3629 3462 
Q 3226 2547 2970 2157 
Q 2733 2317 2522 2387 
Q 2906 2918 3203 3712 
Q 3501 4506 3565 5146 
Q 3981 5005 4250 4966 
Q 4326 4954 4326 4922 
Q 4326 4890 4278 4851 
Q 4230 4813 4150 4653 
Q 4070 4493 3821 3917 
L 5120 3917 
Q 5747 3917 5971 3974 
L 5971 3424 
Q 5754 3462 5318 3462 
Q 5178 1722 4576 896 
Q 5178 365 6061 173 
Q 5734 -134 5664 -493 
Q 4845 -115 4237 518 
Q 3699 -115 2899 -499 
Q 2790 -262 2483 -64 
Q 3213 173 3898 883 
Q 3450 1466 3315 2675 
L 3744 2810 
Q 3814 1888 4224 1286 
z
" transform="scale(0.015625)"/>
        <path id="STHeiti-5165" d="M 2893 3898 
Q 2470 4429 1984 4698 
L 2426 5133 
Q 3078 4608 3385 4150 
Q 3693 3693 3936 2938 
Q 4326 1722 4784 1210 
Q 5242 698 6074 326 
Q 5741 58 5549 -314 
Q 4768 218 4355 794 
Q 3942 1370 3571 2605 
Q 3456 2982 3264 3341 
Q 2938 2029 2317 1126 
Q 1696 224 986 -307 
Q 742 -26 422 102 
Q 1466 736 2086 1808 
Q 2707 2880 2893 3898 
z
" transform="scale(0.015625)"/>
       </defs>
       <use xlink:href="#STHeiti-46"/>
       <use xlink:href="#STHeiti-59" transform="translate(48.499985 0)"/>
       <use xlink:href="#STHeiti-32" transform="translate(107.699982 0)"/>
       <use xlink:href="#STHeiti-30" transform="translate(163.099976 0)"/>
       <use xlink:href="#STHeiti-32" transform="translate(218.499969 0)"/>
       <use xlink:href="#STHeiti-35" transform="translate(273.899963 0)"/>
       <use xlink:href="#STHeiti-8425" transform="translate(329.299957 0)"/>
       <use xlink:href="#STHeiti-4e1a" transform="translate(429.299942 0)"/>
       <use xlink:href="#STHeiti-6536" transform="translate(529.299927 0)"/>
       <use xlink:href="#STHeiti-5165" transform="translate(629.299911 0)"/>
      </g>
     </g>
    </g>
    <g id="xtick_2">
     <g id="line2d_3">
      <path d="M 224.027197 263.495464 
L 224.027197 7.2 
" clip-path="url(#p5c06b79fba)" style="fill: none; stroke: #b0b0b0; stroke-opacity: 0.3; stroke-width: 0.8; stroke-linecap: square"/>
     </g>
     <g id="line2d_4">
      <g>
       <use xlink:href="#m49b7565667" x="224.027197" y="263.495464" style="stroke: #000000; stroke-width: 0.8"/>
      </g>
     </g>
     <g id="text_2">
      <!-- FY2025归母净利（管理口径） -->
      <g transform="translate(108.233692 343.994267) rotate(-30) scale(0.1 -0.1)">
       <defs>
        <path id="STHeiti-5f52" d="M 1882 5242 
Q 2170 5146 2586 5146 
Q 2688 5146 2688 5098 
Q 2688 5050 2618 4998 
Q 2509 4928 2490 4288 
Q 2464 2573 2429 2003 
Q 2394 1434 2272 1011 
Q 2150 589 1833 173 
Q 1517 -243 960 -659 
Q 742 -326 454 -230 
Q 1018 122 1302 381 
Q 1587 640 1718 960 
Q 1850 1280 1894 1862 
Q 1939 2445 1939 3424 
Q 1939 5024 1882 5242 
z
M 5126 2611 
L 5126 4045 
Q 3136 4045 2816 3994 
L 2816 4602 
Q 3302 4531 4288 4531 
Q 5274 4531 5734 4608 
Q 5683 4250 5683 3603 
L 5683 742 
Q 5683 154 5741 -435 
L 5126 -435 
L 5126 128 
Q 2995 128 2637 70 
L 2637 672 
Q 3008 614 5126 614 
L 5126 2144 
Q 3526 2144 2957 2080 
L 2957 2675 
Q 3462 2611 5126 2611 
z
M 640 4378 
Q 928 4339 1293 4339 
Q 1382 4339 1382 4307 
Q 1382 4275 1308 4230 
Q 1235 4186 1235 3853 
L 1235 1043 
L 698 1043 
L 698 3347 
Q 698 4109 640 4378 
z
" transform="scale(0.015625)"/>
        <path id="STHeiti-6bcd" d="M 1254 2810 
L 1402 4877 
Q 2413 4832 3398 4832 
Q 4384 4832 5165 4896 
L 5120 2803 
Q 5574 2822 6048 2874 
L 6048 2227 
Q 5619 2272 5107 2285 
L 5082 883 
Q 5600 896 5850 947 
L 5850 326 
Q 5651 352 5069 352 
Q 5056 -141 4870 -323 
Q 4685 -506 4032 -640 
Q 4013 -314 3629 13 
Q 3949 -26 4147 -26 
Q 4346 -26 4426 57 
Q 4506 141 4512 358 
L 2765 358 
Q 1837 358 1082 288 
L 1222 2285 
Q 768 2272 365 2227 
L 365 2874 
Q 845 2816 1254 2810 
z
M 1798 2803 
L 4563 2803 
L 4589 4339 
L 1901 4339 
L 1798 2803 
z
M 2720 3782 
L 3245 4038 
Q 3430 3757 3693 3315 
L 3194 2963 
Q 2982 3418 2720 3782 
z
M 4550 2291 
L 1766 2291 
L 1677 870 
L 4525 870 
L 4550 2291 
z
M 2694 1798 
L 3219 2054 
Q 3462 1677 3674 1274 
L 3142 1011 
Q 3008 1427 2694 1798 
z
" transform="scale(0.015625)"/>
        <path id="STHeiti-51c0" d="M 5510 2010 
L 5510 1325 
Q 5510 781 5549 550 
L 4986 550 
L 4986 934 
L 3878 934 
L 3878 -147 
Q 3878 -339 3795 -441 
Q 3712 -544 3478 -601 
Q 3245 -659 2758 -710 
Q 2765 -384 2630 -90 
Q 2944 -115 3094 -115 
Q 3245 -115 3289 -70 
Q 3334 -26 3334 115 
L 3334 934 
Q 2163 934 1926 909 
L 1926 1389 
Q 2272 1357 3334 1357 
L 3334 2016 
Q 2490 2016 1754 1965 
L 1754 2496 
Q 2381 2451 3334 2451 
L 3334 3110 
Q 2771 3104 2387 3046 
L 2387 3533 
Q 2816 3514 3661 3514 
L 4205 4224 
L 2874 4224 
Q 2470 3680 1939 3046 
Q 1786 3200 1530 3270 
Q 2362 4109 2842 5306 
Q 3187 5184 3526 5133 
Q 3610 5120 3610 5078 
Q 3610 5037 3530 5014 
Q 3450 4992 3174 4634 
L 4058 4634 
Q 4659 4634 5101 4691 
L 4243 3514 
Q 5306 3520 5536 3558 
Q 5510 3251 5510 2675 
L 5510 2470 
L 6131 2509 
L 6131 1984 
Q 5920 1997 5510 2010 
z
M 4986 2451 
L 4986 3110 
L 3878 3110 
L 3878 2451 
L 4986 2451 
z
M 4986 1357 
L 4986 2016 
L 3878 2016 
L 3878 1357 
L 4986 1357 
z
M 1523 3693 
L 1011 3392 
Q 806 3942 448 4454 
L 909 4762 
Q 1325 4096 1523 3693 
z
M 1613 2080 
Q 1254 1242 819 -70 
Q 595 230 211 365 
Q 410 646 691 1299 
Q 973 1952 1088 2400 
Q 1293 2170 1613 2080 
z
" transform="scale(0.015625)"/>
        <path id="STHeiti-5229" d="M 4909 5165 
Q 5165 5107 5555 5107 
Q 5645 5107 5645 5065 
Q 5645 5024 5577 4976 
Q 5510 4928 5510 4768 
L 5510 198 
Q 5510 -90 5433 -227 
Q 5357 -365 5120 -445 
Q 4883 -525 4352 -595 
Q 4333 -275 4070 64 
Q 4269 51 4483 51 
Q 4698 51 4826 112 
Q 4954 173 4954 435 
L 4954 4109 
Q 4954 4826 4909 5165 
z
M 1658 2016 
Q 1325 1210 730 422 
Q 550 698 307 909 
Q 1267 1837 1594 2880 
Q 742 2867 410 2835 
L 410 3392 
Q 749 3354 1658 3341 
L 1658 4218 
Q 1120 4134 685 4096 
Q 621 4320 442 4576 
Q 864 4576 1561 4688 
Q 2259 4800 2912 5011 
Q 2970 4851 3072 4697 
Q 3174 4544 3244 4489 
Q 3315 4435 3315 4403 
Q 3315 4352 3244 4365 
Q 3174 4378 3091 4378 
Q 2778 4378 2182 4301 
L 2182 3341 
Q 3066 3354 3386 3392 
L 3386 2835 
Q 3040 2867 2182 2880 
L 2182 525 
Q 2182 90 2227 -576 
L 1587 -576 
Q 1658 128 1658 525 
L 1658 2016 
z
M 3725 4186 
Q 3968 4134 4326 4134 
Q 4403 4134 4403 4099 
Q 4403 4064 4345 4029 
Q 4288 3994 4288 3834 
L 4288 1766 
Q 4288 1357 4314 966 
L 3725 966 
Q 3750 1382 3750 1766 
L 3750 3482 
Q 3750 3968 3725 4186 
z
M 3322 1485 
L 2874 1165 
Q 2630 1613 2227 2176 
L 2605 2458 
Q 2957 1933 3322 1485 
z
" transform="scale(0.015625)"/>
        <path id="STHeiti-ff08" d="M 5651 -749 
L 5274 -749 
Q 4646 173 4409 835 
Q 4173 1498 4173 2266 
Q 4173 3034 4432 3750 
Q 4691 4467 5254 5267 
L 5645 5267 
Q 5082 4237 4928 3606 
Q 4774 2976 4774 2093 
Q 4774 1472 4953 861 
Q 5133 250 5651 -749 
z
" transform="scale(0.015625)"/>
        <path id="STHeiti-7ba1" d="M 1472 4333 
Q 1286 4070 941 3674 
Q 774 3885 467 3974 
Q 1133 4416 1459 5280 
Q 1779 5107 2048 5043 
Q 2118 5030 2118 5008 
Q 2118 4986 2054 4960 
Q 1862 4864 1722 4685 
Q 2982 4685 3136 4755 
L 3136 4269 
Q 2886 4326 2310 4333 
Q 2413 4064 2477 3718 
L 1939 3654 
Q 1914 4051 1862 4333 
L 1472 4333 
z
M 4019 4326 
Q 3942 4179 3718 3878 
Q 3520 4083 3264 4154 
Q 3750 4525 3994 5267 
Q 4326 5114 4544 5056 
Q 4608 5043 4608 5020 
Q 4608 4998 4550 4973 
Q 4435 4915 4237 4672 
L 4602 4672 
Q 5568 4672 5933 4755 
L 5933 4275 
Q 5626 4320 4838 4326 
Q 4973 3962 5037 3693 
L 4506 3603 
Q 4474 3942 4378 4326 
L 4019 4326 
z
M 3021 3354 
Q 2950 3603 2874 3789 
L 3379 3885 
Q 3488 3629 3571 3354 
Q 5197 3354 5830 3405 
L 5830 2304 
L 5350 2304 
L 5350 2970 
L 954 2970 
L 954 2336 
L 486 2336 
L 486 3405 
Q 1120 3354 3021 3354 
z
M 4480 -198 
L 1894 -198 
Q 1901 -320 1926 -634 
L 1344 -634 
Q 1389 -288 1389 51 
L 1389 1946 
Q 1389 2342 1338 2669 
Q 1958 2618 3120 2618 
Q 4282 2618 4826 2669 
Q 4794 2387 4794 2083 
Q 4794 1779 4826 1408 
Q 4102 1446 2976 1446 
L 1888 1446 
L 1888 1011 
L 3136 1011 
Q 4365 1011 4998 1037 
Q 4973 909 4973 557 
L 4973 -147 
Q 4973 -314 4998 -608 
L 4480 -608 
L 4480 -198 
z
M 1888 1830 
L 4326 1830 
L 4326 2227 
L 1888 2227 
L 1888 1830 
z
M 1888 179 
L 4480 179 
L 4480 634 
L 1888 634 
L 1888 179 
z
" transform="scale(0.015625)"/>
        <path id="STHeiti-7406" d="M 4397 864 
L 4397 160 
Q 5389 166 6086 211 
L 6086 -333 
Q 5389 -275 4096 -275 
Q 2803 -275 2099 -333 
L 2099 211 
Q 2816 166 3910 160 
L 3910 864 
Q 3187 864 2682 800 
L 2682 1350 
Q 3174 1286 3910 1280 
L 3910 1920 
Q 2771 1914 2598 1882 
Q 2637 2630 2637 3443 
Q 2637 4256 2598 4864 
Q 2797 4813 4214 4813 
Q 5632 4813 5754 4864 
Q 5722 4352 5722 3549 
Q 5722 2746 5766 1882 
Q 5658 1920 4397 1920 
L 4397 1280 
Q 5210 1286 5702 1350 
L 5702 800 
Q 5261 858 4397 864 
z
M 3910 3590 
L 3910 4390 
L 3110 4390 
L 3110 3590 
L 3910 3590 
z
M 4397 4390 
L 4397 3590 
L 5229 3590 
L 5229 4390 
L 4397 4390 
z
M 4397 3187 
L 4397 2336 
L 5229 2336 
L 5229 3187 
L 4397 3187 
z
M 3910 2336 
L 3910 3187 
L 3110 3187 
L 3110 2336 
L 3910 2336 
z
M 1171 4224 
Q 768 4218 429 4179 
L 429 4717 
Q 774 4678 1436 4678 
Q 2099 4678 2438 4717 
L 2438 4179 
Q 2131 4211 1670 4230 
L 1670 2861 
Q 2138 2874 2368 2906 
L 2368 2362 
Q 2035 2400 1670 2406 
L 1670 883 
Q 2035 1011 2368 1184 
Q 2342 979 2342 864 
Q 2342 749 2355 621 
Q 1184 269 448 -218 
Q 448 -45 400 182 
Q 352 410 275 563 
Q 710 595 1171 723 
L 1171 2406 
Q 685 2394 435 2362 
L 435 2906 
Q 742 2861 1171 2854 
L 1171 4224 
z
" transform="scale(0.015625)"/>
        <path id="STHeiti-53e3" d="M 4774 358 
L 1613 358 
L 1613 -192 
L 966 -192 
Q 1011 250 1011 774 
L 1011 4109 
Q 1011 4422 966 4634 
Q 1197 4595 3197 4595 
Q 5197 4595 5421 4634 
Q 5382 4454 5382 4109 
L 5382 838 
Q 5382 339 5421 -128 
L 4774 -128 
L 4774 358 
z
M 1613 864 
L 4774 864 
L 4774 4090 
L 1613 4090 
L 1613 864 
z
" transform="scale(0.015625)"/>
        <path id="STHeiti-5f84" d="M 1722 5171 
Q 1946 4966 2189 4813 
Q 2266 4768 2266 4739 
Q 2266 4710 2176 4691 
Q 2086 4672 1552 4112 
Q 1018 3552 646 3245 
Q 531 3456 269 3654 
Q 1030 4128 1722 5171 
z
M 4461 3488 
Q 5421 3066 6118 2611 
L 5709 2182 
Q 5037 2739 4102 3162 
Q 3443 2586 2637 2099 
Q 2502 2349 2189 2554 
Q 2822 2758 3446 3232 
Q 4070 3706 4506 4301 
L 3654 4301 
Q 3098 4301 2605 4243 
L 2605 4806 
Q 3098 4749 4067 4749 
Q 5037 4749 5536 4806 
Q 5133 4147 4461 3488 
z
M 1645 2534 
L 1645 -621 
L 1075 -621 
Q 1146 -70 1146 410 
L 1146 1958 
Q 781 1555 531 1325 
Q 442 1606 262 1798 
Q 454 1952 774 2269 
Q 1094 2586 1340 2970 
Q 1587 3354 1734 3648 
Q 1933 3482 2208 3360 
Q 2310 3315 2310 3273 
Q 2310 3232 2233 3216 
Q 2157 3200 2054 3081 
Q 1952 2963 1645 2534 
z
M 4346 1408 
L 4346 141 
Q 5562 147 6061 198 
L 6061 -384 
Q 5478 -326 4022 -326 
Q 2566 -326 1984 -384 
L 1984 198 
Q 2662 141 3808 141 
L 3808 1408 
Q 2893 1402 2496 1350 
L 2496 1926 
Q 2970 1869 4074 1869 
Q 5178 1869 5645 1926 
L 5645 1350 
Q 5248 1402 4346 1408 
z
" transform="scale(0.015625)"/>
        <path id="STHeiti-ff09" d="M 1120 5267 
Q 1747 4346 1984 3683 
Q 2221 3021 2221 2253 
Q 2221 1485 1961 768 
Q 1702 51 1139 -749 
L 749 -749 
Q 1312 282 1465 912 
Q 1619 1542 1619 2426 
Q 1619 3046 1440 3657 
Q 1261 4269 742 5267 
L 1120 5267 
z
" transform="scale(0.015625)"/>
       </defs>
       <use xlink:href="#STHeiti-46"/>
       <use xlink:href="#STHeiti-59" transform="translate(48.499985 0)"/>
       <use xlink:href="#STHeiti-32" transform="translate(107.699982 0)"/>
       <use xlink:href="#STHeiti-30" transform="translate(163.099976 0)"/>
       <use xlink:href="#STHeiti-32" transform="translate(218.499969 0)"/>
       <use xlink:href="#STHeiti-35" transform="translate(273.899963 0)"/>
       <use xlink:href="#STHeiti-5f52" transform="translate(329.299957 0)"/>
       <use xlink:href="#STHeiti-6bcd" transform="translate(429.299942 0)"/>
       <use xlink:href="#STHeiti-51c0" transform="translate(529.299927 0)"/>
       <use xlink:href="#STHeiti-5229" transform="translate(629.299911 0)"/>
       <use xlink:href="#STHeiti-ff08" transform="translate(729.299896 0)"/>
       <use xlink:href="#STHeiti-7ba1" transform="translate(829.299881 0)"/>
       <use xlink:href="#STHeiti-7406" transform="translate(929.299866 0)"/>
       <use xlink:href="#STHeiti-53e3" transform="translate(1029.29985 0)"/>
       <use xlink:href="#STHeiti-5f84" transform="translate(1129.299835 0)"/>
       <use xlink:href="#STHeiti-ff09" transform="translate(1229.29982 0)"/>
      </g>
     </g>
    </g>
    <g id="xtick_3">
     <g id="line2d_5">
      <path d="M 373.042726 263.495464 
L 373.042726 7.2 
" clip-path="url(#p5c06b79fba)" style="fill: none; stroke: #b0b0b0; stroke-opacity: 0.3; stroke-width: 0.8; stroke-linecap: square"/>
     </g>
     <g id="line2d_6">
      <g>
       <use xlink:href="#m49b7565667" x="373.042726" y="263.495464" style="stroke: #000000; stroke-width: 0.8"/>
      </g>
     </g>
     <g id="text_3">
      <!-- FY2025归母净利（审计口径） -->
      <g transform="translate(257.249221 343.994267) rotate(-30) scale(0.1 -0.1)">
       <defs>
        <path id="STHeiti-5ba1" d="M 2957 4467 
Q 2861 4838 2739 5126 
L 3405 5299 
Q 3456 4998 3603 4467 
Q 5203 4474 5926 4531 
L 5926 3405 
L 5376 3405 
L 5376 4019 
L 1235 4019 
L 1235 3290 
L 691 3290 
L 691 4531 
Q 1216 4467 2957 4467 
z
M 1741 640 
L 1741 211 
L 1165 211 
Q 1210 621 1210 915 
L 1210 2560 
Q 1210 2886 1158 3168 
Q 1645 3117 3040 3110 
Q 3014 3654 2976 3802 
Q 3213 3757 3635 3757 
Q 3750 3757 3750 3718 
Q 3750 3680 3676 3645 
Q 3603 3610 3584 3507 
Q 3565 3405 3565 3110 
Q 5050 3110 5485 3168 
Q 5427 2893 5427 2560 
L 5427 1050 
Q 5427 749 5472 358 
L 4883 358 
L 4883 640 
L 3565 640 
Q 3565 -288 3610 -749 
L 2995 -749 
Q 3046 -192 3046 640 
L 1741 640 
z
M 3046 2707 
L 1741 2707 
L 1741 2074 
L 3046 2074 
L 3046 2707 
z
M 4883 2074 
L 4883 2707 
L 3565 2707 
L 3565 2074 
L 4883 2074 
z
M 4883 1030 
L 4883 1670 
L 3565 1670 
L 3565 1030 
L 4883 1030 
z
M 1741 1670 
L 1741 1030 
L 3046 1030 
L 3046 1670 
L 1741 1670 
z
" transform="scale(0.015625)"/>
        <path id="STHeiti-8ba1" d="M 4646 3309 
Q 5555 3315 6138 3366 
L 6138 2726 
Q 5389 2778 4646 2778 
L 4646 506 
Q 4646 -32 4704 -646 
L 3994 -646 
Q 4051 -58 4051 506 
L 4051 2784 
Q 2982 2778 2336 2726 
L 2336 3366 
Q 2995 3315 4051 3309 
L 4051 4288 
Q 4051 4973 3981 5267 
Q 4141 5235 4288 5222 
Q 4435 5210 4538 5210 
L 4717 5216 
Q 4826 5216 4826 5174 
Q 4826 5133 4755 5091 
Q 4685 5050 4665 4957 
Q 4646 4864 4646 4608 
L 4646 3309 
z
M 2099 4147 
L 1523 3814 
Q 1299 4346 890 4896 
L 1427 5197 
Q 1754 4614 2099 4147 
z
M 2688 909 
L 1946 173 
Q 1670 -90 1370 -538 
Q 1146 -218 922 -13 
Q 1037 122 1088 269 
Q 1139 416 1139 659 
L 1139 2739 
Q 608 2739 262 2694 
L 262 3315 
Q 563 3270 979 3270 
Q 1395 3270 1766 3315 
Q 1683 2950 1683 2483 
L 1683 614 
Q 2163 1107 2432 1523 
Q 2522 1165 2688 909 
z
" transform="scale(0.015625)"/>
       </defs>
       <use xlink:href="#STHeiti-46"/>
       <use xlink:href="#STHeiti-59" transform="translate(48.499985 0)"/>
       <use xlink:href="#STHeiti-32" transform="translate(107.699982 0)"/>
       <use xlink:href="#STHeiti-30" transform="translate(163.099976 0)"/>
       <use xlink:href="#STHeiti-32" transform="translate(218.499969 0)"/>
       <use xlink:href="#STHeiti-35" transform="translate(273.899963 0)"/>
       <use xlink:href="#STHeiti-5f52" transform="translate(329.299957 0)"/>
       <use xlink:href="#STHeiti-6bcd" transform="translate(429.299942 0)"/>
       <use xlink:href="#STHeiti-51c0" transform="translate(529.299927 0)"/>
       <use xlink:href="#STHeiti-5229" transform="translate(629.299911 0)"/>
       <use xlink:href="#STHeiti-ff08" transform="translate(729.299896 0)"/>
       <use xlink:href="#STHeiti-5ba1" transform="translate(829.299881 0)"/>
       <use xlink:href="#STHeiti-8ba1" transform="translate(929.299866 0)"/>
       <use xlink:href="#STHeiti-53e3" transform="translate(1029.29985 0)"/>
       <use xlink:href="#STHeiti-5f84" transform="translate(1129.299835 0)"/>
       <use xlink:href="#STHeiti-ff09" transform="translate(1229.29982 0)"/>
      </g>
     </g>
    </g>
    <g id="xtick_4">
     <g id="line2d_7">
      <path d="M 522.058255 263.495464 
L 522.058255 7.2 
" clip-path="url(#p5c06b79fba)" style="fill: none; stroke: #b0b0b0; stroke-opacity: 0.3; stroke-width: 0.8; stroke-linecap: square"/>
     </g>
     <g id="line2d_8">
      <g>
       <use xlink:href="#m49b7565667" x="522.058255" y="263.495464" style="stroke: #000000; stroke-width: 0.8"/>
      </g>
     </g>
     <g id="text_4">
      <!-- 有效税率 -->
      <g transform="translate(486.746926 297.449377) rotate(-30) scale(0.1 -0.1)">
       <defs>
        <path id="STHeiti-6709" d="M 2208 3968 
Q 1222 3968 506 3910 
L 506 4461 
Q 1318 4410 2406 4403 
Q 2592 4883 2682 5299 
Q 3014 5184 3386 5133 
Q 3488 5120 3488 5085 
Q 3488 5050 3405 4998 
Q 3168 4851 3008 4403 
Q 4627 4403 5100 4412 
Q 5574 4422 6042 4461 
L 6042 3910 
Q 5344 3974 2790 3974 
Q 2630 3674 2374 3270 
L 3507 3270 
Q 4576 3270 5222 3334 
Q 5171 2957 5171 2464 
L 5171 294 
Q 5171 -51 5123 -182 
Q 5075 -314 4883 -384 
Q 4691 -454 4160 -550 
Q 4134 -218 3923 102 
Q 4173 64 4326 64 
Q 4480 64 4553 137 
Q 4627 211 4627 454 
L 4627 819 
L 2285 819 
L 2285 -518 
L 1690 -518 
Q 1747 -26 1747 397 
L 1747 2413 
Q 1382 1958 877 1440 
Q 659 1670 390 1773 
Q 1472 2541 2208 3968 
z
M 4627 2291 
L 4627 2854 
L 2285 2854 
L 2285 2291 
L 4627 2291 
z
M 2285 1869 
L 2285 1242 
L 4627 1242 
L 4627 1869 
L 2285 1869 
z
" transform="scale(0.015625)"/>
        <path id="STHeiti-6548" d="M 2470 4544 
L 1818 4384 
Q 1747 4723 1568 5152 
L 2170 5306 
Q 2330 4851 2470 4544 
z
M 4064 3597 
Q 3878 3194 3686 2874 
Q 3469 3002 3200 3066 
Q 3917 4090 4096 5274 
Q 4467 5146 4730 5114 
Q 4806 5101 4806 5069 
Q 4806 5037 4739 4992 
Q 4672 4947 4589 4790 
Q 4506 4634 4275 4090 
Q 5741 4096 5997 4160 
L 5997 3558 
Q 5805 3584 5408 3597 
Q 5357 2566 5216 1936 
Q 5075 1306 4781 851 
Q 5395 288 6125 96 
Q 5830 -192 5683 -557 
Q 5120 -250 4480 435 
Q 3840 -269 2893 -685 
Q 2714 -422 2477 -243 
Q 3475 83 4179 845 
Q 3763 1568 3578 2592 
L 4070 2746 
Q 4096 2432 4214 1981 
Q 4333 1530 4474 1242 
Q 4832 1914 4877 3597 
L 4064 3597 
z
M 3290 3693 
Q 2701 3744 1917 3744 
Q 1133 3744 448 3686 
L 448 4282 
Q 954 4218 1782 4218 
Q 2611 4218 3290 4282 
L 3290 3693 
z
M 1261 3533 
Q 1606 3283 1734 3251 
Q 1792 3238 1792 3209 
Q 1792 3181 1715 3130 
Q 1562 3034 691 1926 
Q 499 2138 262 2298 
Q 973 2842 1261 3533 
z
M 3379 2682 
L 2995 2278 
Q 2528 2893 2035 3226 
L 2445 3533 
Q 2848 3104 3379 2682 
z
M 1978 1587 
Q 2195 2003 2285 2451 
Q 2675 2176 2745 2157 
Q 2816 2138 2816 2109 
Q 2816 2080 2768 2057 
Q 2720 2035 2569 1737 
Q 2419 1440 2323 1267 
Q 2797 813 3072 486 
L 2650 122 
Q 2426 461 2054 864 
Q 1453 13 762 -486 
Q 614 -230 282 -77 
Q 1062 288 1722 1197 
Q 1254 1651 890 1869 
L 1248 2214 
Q 1613 1933 1978 1587 
z
" transform="scale(0.015625)"/>
        <path id="STHeiti-7a0e" d="M 4333 3814 
Q 4800 4506 4922 5229 
Q 5216 5037 5555 4979 
Q 5638 4966 5638 4937 
Q 5638 4909 5545 4854 
Q 5453 4800 5312 4611 
Q 5171 4422 4794 3814 
Q 5408 3821 5651 3846 
Q 5626 3373 5626 2854 
Q 5626 2336 5651 2016 
Q 5453 2035 4890 2035 
L 4890 288 
Q 4890 122 4934 83 
Q 4979 45 5209 45 
Q 5440 45 5520 224 
Q 5600 403 5651 755 
Q 5926 499 6189 480 
Q 6061 64 5965 -105 
Q 5869 -275 5709 -326 
Q 5549 -378 5152 -378 
Q 4755 -378 4636 -339 
Q 4518 -301 4457 -208 
Q 4397 -115 4397 365 
L 4397 2035 
L 4000 2035 
Q 3994 934 3722 432 
Q 3450 -70 2618 -576 
Q 2547 -358 2208 -128 
Q 2989 224 3248 653 
Q 3507 1082 3507 2035 
L 2925 2016 
Q 2950 2483 2950 2928 
Q 2950 3373 2925 3846 
Q 3155 3814 4333 3814 
z
M 3424 3405 
L 3424 2445 
L 5146 2445 
L 5146 3405 
L 3424 3405 
z
M 4045 4160 
L 3526 3968 
Q 3418 4378 3194 4858 
L 3680 5056 
Q 3898 4480 4045 4160 
z
M 1446 2150 
Q 1146 1229 621 544 
Q 512 883 301 1050 
Q 1050 1792 1389 2886 
Q 832 2886 467 2835 
L 467 3360 
Q 787 3309 1446 3309 
L 1446 4243 
Q 1018 4154 730 4070 
Q 685 4326 493 4570 
Q 954 4570 1578 4726 
Q 2202 4883 2554 5043 
Q 2605 4909 2691 4777 
Q 2778 4646 2838 4592 
Q 2899 4538 2899 4496 
Q 2899 4454 2841 4454 
Q 2784 4454 2736 4464 
Q 2688 4474 2618 4474 
Q 2406 4474 1920 4352 
L 1920 3309 
Q 2342 3315 2662 3360 
L 2662 2835 
Q 2400 2867 1920 2880 
L 1920 1997 
L 2202 2240 
Q 2458 1939 2803 1626 
L 2458 1261 
Q 2253 1568 1920 1933 
L 1920 563 
Q 1920 83 1971 -538 
L 1395 -538 
Q 1446 83 1446 563 
L 1446 2150 
z
" transform="scale(0.015625)"/>
        <path id="STHeiti-7387" d="M 3066 4621 
Q 2970 4934 2867 5152 
L 3526 5254 
Q 3546 4902 3616 4621 
Q 5018 4627 5837 4685 
L 5837 4115 
Q 4941 4179 3277 4179 
Q 1613 4179 678 4115 
L 678 4685 
Q 1568 4621 3066 4621 
z
M 3046 2790 
L 2662 2739 
Q 2195 2675 2106 2637 
Q 2106 2854 2010 3059 
Q 2336 3155 2842 4128 
Q 3110 3955 3251 3913 
Q 3392 3872 3392 3846 
Q 3392 3821 3251 3769 
Q 3110 3718 2944 3497 
Q 2778 3277 2573 3085 
L 3373 3142 
Q 3686 3501 3859 3770 
Q 4077 3546 4307 3443 
Q 4397 3405 4397 3360 
Q 4397 3315 4307 3308 
Q 4218 3302 3965 3126 
Q 3712 2950 3411 2636 
Q 3110 2323 2624 1952 
L 3808 2035 
Q 3661 2278 3552 2413 
L 3942 2656 
Q 4211 2176 4595 1600 
L 4141 1389 
Q 4109 1466 4000 1683 
L 3456 1651 
L 3456 1018 
Q 5126 1018 5990 1075 
L 5990 518 
Q 5126 576 3456 576 
Q 3469 -160 3520 -691 
L 2886 -691 
Q 2944 -70 2944 576 
Q 1325 563 506 518 
L 506 1075 
Q 1331 1030 2950 1018 
L 2950 1613 
Q 2419 1574 2093 1491 
Q 2048 1786 1933 1965 
Q 2157 1965 2377 2147 
Q 2598 2330 3046 2790 
z
M 5248 3898 
Q 5453 3629 5709 3475 
Q 5760 3443 5760 3414 
Q 5760 3386 5677 3386 
Q 5594 3386 5389 3296 
Q 5184 3206 4755 2803 
Q 4595 3002 4384 3117 
Q 4934 3482 5248 3898 
z
M 1958 3238 
L 1587 2848 
Q 1261 3219 877 3507 
L 1222 3859 
Q 1517 3558 1958 3238 
z
M 5811 1933 
L 5414 1485 
Q 5030 1920 4461 2291 
L 4826 2675 
Q 5242 2317 5811 1933 
z
M 2003 2170 
Q 1824 2099 1024 1350 
Q 890 1645 704 1888 
Q 1018 2003 1357 2272 
Q 1696 2541 1798 2662 
Q 1830 2413 2003 2170 
z
" transform="scale(0.015625)"/>
       </defs>
       <use xlink:href="#STHeiti-6709"/>
       <use xlink:href="#STHeiti-6548" transform="translate(99.999985 0)"/>
       <use xlink:href="#STHeiti-7a0e" transform="translate(199.999969 0)"/>
       <use xlink:href="#STHeiti-7387" transform="translate(299.999954 0)"/>
      </g>
     </g>
    </g>
    <g id="xtick_5">
     <g id="line2d_9">
      <path d="M 671.073784 263.495464 
L 671.073784 7.2 
" clip-path="url(#p5c06b79fba)" style="fill: none; stroke: #b0b0b0; stroke-opacity: 0.3; stroke-width: 0.8; stroke-linecap: square"/>
     </g>
     <g id="line2d_10">
      <g>
       <use xlink:href="#m49b7565667" x="671.073784" y="263.495464" style="stroke: #000000; stroke-width: 0.8"/>
      </g>
     </g>
     <g id="text_5">
      <!-- DTA余额（FY2025末） -->
      <g transform="translate(582.040463 328.647108) rotate(-30) scale(0.1 -0.1)">
       <defs>
        <path id="STHeiti-44" d="M 557 384 
L 557 4979 
L 1510 4979 
Q 2490 4979 2947 4835 
Q 3405 4691 3737 4380 
Q 4070 4070 4249 3622 
Q 4429 3174 4429 2576 
Q 4429 1978 4150 1450 
Q 3872 922 3395 653 
Q 2918 384 2022 384 
L 557 384 
z
M 998 819 
L 1530 819 
Q 2362 819 2736 902 
Q 3110 986 3392 1232 
Q 3674 1478 3821 1830 
Q 3968 2182 3968 2636 
Q 3968 3091 3798 3475 
Q 3629 3859 3315 4108 
Q 3002 4358 2576 4444 
Q 2150 4531 1325 4531 
L 998 4531 
L 998 819 
z
" transform="scale(0.015625)"/>
        <path id="STHeiti-54" d="M 102 4531 
L 102 4979 
L 2624 4979 
L 2624 4531 
L 1600 4531 
L 1600 384 
L 1133 384 
L 1133 4531 
L 102 4531 
z
" transform="scale(0.015625)"/>
        <path id="STHeiti-41" d="M 2438 5165 
L 4582 384 
L 4090 384 
L 3366 1952 
L 1382 1952 
L 666 384 
L 154 384 
L 2323 5165 
L 2438 5165 
z
M 2381 4147 
L 1594 2419 
L 3162 2419 
L 2381 4147 
z
" transform="scale(0.015625)"/>
        <path id="STHeiti-4f59" d="M 1818 3213 
Q 1242 2746 819 2419 
Q 627 2650 301 2822 
Q 845 3059 1725 3804 
Q 2605 4550 2944 5382 
Q 3117 5293 3629 5158 
Q 3712 5139 3712 5113 
Q 3712 5088 3651 5069 
Q 3590 5050 3514 4960 
Q 4173 4115 4819 3737 
Q 5466 3360 6106 3238 
Q 5920 2995 5754 2611 
Q 5222 2842 4698 3174 
L 4698 2739 
Q 4218 2771 3571 2771 
L 3571 1946 
Q 4826 1952 5498 2016 
L 5498 1427 
Q 4710 1478 3571 1478 
L 3571 -38 
Q 3571 -262 3520 -348 
Q 3469 -435 3283 -492 
Q 3098 -550 2566 -653 
Q 2566 -358 2362 19 
Q 2675 -13 2809 -13 
Q 2944 -13 2979 35 
Q 3014 83 3014 230 
L 3014 1478 
Q 1754 1472 992 1421 
L 992 2016 
Q 1811 1952 3014 1946 
L 3014 2771 
Q 2163 2771 1818 2739 
L 1818 3213 
z
M 3206 4614 
Q 2451 3757 1882 3270 
Q 2330 3245 3235 3245 
Q 4141 3245 4557 3270 
Q 3827 3776 3206 4614 
z
M 1965 1267 
Q 2035 1184 2185 1069 
Q 2336 954 2425 912 
Q 2515 870 2515 844 
Q 2515 819 2403 790 
Q 2291 762 2150 608 
Q 1638 115 1075 -288 
Q 947 -90 589 96 
Q 1638 672 1965 1267 
z
M 5798 243 
L 5325 -237 
Q 4742 294 3942 768 
L 4301 1184 
Q 5062 736 5798 243 
z
" transform="scale(0.015625)"/>
        <path id="STHeiti-989d" d="M 2182 4538 
Q 2733 4538 3168 4570 
L 3168 3763 
L 2707 3763 
L 2707 4134 
L 902 4134 
L 902 3546 
L 461 3546 
L 461 4563 
Q 858 4538 1619 4538 
Q 1549 4826 1459 5011 
L 1990 5126 
Q 2106 4826 2182 4538 
z
M 4288 4384 
Q 3680 4378 3366 4333 
L 3366 4851 
Q 3763 4800 4643 4800 
Q 5523 4800 5920 4851 
L 5920 4333 
Q 5555 4384 4781 4384 
Q 4653 3898 4614 3642 
Q 5440 3642 5766 3667 
Q 5754 3571 5754 2899 
L 5754 1830 
Q 5754 1254 5779 1030 
L 5267 1030 
L 5267 3219 
L 3866 3219 
L 3866 915 
L 3379 915 
Q 3405 1152 3405 1715 
L 3405 2899 
Q 3405 3590 3398 3667 
Q 3642 3654 4166 3642 
Q 4243 4019 4288 4384 
z
M 2336 19 
L 1370 19 
L 1370 -570 
L 883 -570 
Q 947 -154 947 224 
L 947 1210 
Q 806 1107 659 1024 
Q 518 1203 307 1376 
Q 1037 1670 1619 2234 
Q 1376 2349 1120 2464 
L 1382 2778 
Q 1664 2650 1894 2541 
Q 2118 2803 2291 3053 
L 1357 3053 
Q 1107 2707 730 2336 
Q 550 2496 301 2579 
Q 1037 3162 1402 3968 
Q 1677 3834 1808 3824 
Q 1939 3814 1939 3772 
Q 1939 3731 1859 3686 
Q 1779 3642 1638 3443 
L 2266 3443 
Q 2771 3443 3040 3462 
Q 2694 2810 2291 2355 
Q 2714 2150 3245 1869 
L 2957 1459 
Q 2586 1741 1990 2048 
Q 1651 1728 1286 1453 
L 2042 1453 
Q 2560 1453 2771 1478 
Q 2752 1325 2752 998 
L 2752 442 
Q 2752 0 2803 -358 
L 2336 -358 
L 2336 19 
z
M 1370 390 
L 2336 390 
L 2336 1082 
L 1370 1082 
L 1370 390 
z
M 4307 2957 
Q 4570 2925 4755 2925 
L 4870 2931 
Q 4909 2931 4909 2912 
Q 4909 2893 4877 2867 
Q 4806 2816 4806 2643 
Q 4806 2285 4739 1440 
Q 4672 595 4243 89 
Q 3814 -416 3251 -627 
Q 3123 -442 2867 -269 
Q 3181 -154 3469 41 
Q 3757 237 3958 499 
Q 4160 762 4243 1062 
Q 4326 1363 4326 2246 
Q 4326 2630 4307 2957 
z
M 6138 -134 
L 5734 -531 
Q 5158 77 4653 454 
L 4992 794 
Q 5587 378 6138 -134 
z
" transform="scale(0.015625)"/>
        <path id="STHeiti-672b" d="M 2675 2253 
Q 1510 2253 992 2214 
L 992 2752 
Q 1728 2694 2976 2694 
L 2976 3712 
Q 1626 3712 672 3648 
L 672 4211 
Q 1638 4147 2976 4147 
Q 2976 4973 2931 5222 
Q 3238 5178 3597 5178 
Q 3686 5178 3686 5139 
Q 3686 5101 3606 5065 
Q 3526 5030 3526 4928 
L 3526 4147 
Q 4992 4154 5779 4211 
L 5779 3648 
Q 4992 3706 3526 3712 
L 3526 2694 
Q 4691 2701 5402 2752 
L 5402 2214 
Q 5133 2240 3808 2253 
Q 4576 806 6054 563 
Q 5773 218 5677 -77 
Q 3936 666 3526 2176 
L 3526 326 
Q 3526 -186 3558 -614 
L 2938 -614 
Q 2976 -230 2976 326 
L 2976 2022 
Q 2534 1286 2038 803 
Q 1542 320 794 -90 
Q 672 160 339 403 
Q 1190 736 1718 1158 
Q 2246 1581 2675 2253 
z
" transform="scale(0.015625)"/>
       </defs>
       <use xlink:href="#STHeiti-44"/>
       <use xlink:href="#STHeiti-54" transform="translate(74.399994 0)"/>
       <use xlink:href="#STHeiti-41" transform="translate(116.999985 0)"/>
       <use xlink:href="#STHeiti-4f59" transform="translate(190.999969 0)"/>
       <use xlink:href="#STHeiti-989d" transform="translate(290.999954 0)"/>
       <use xlink:href="#STHeiti-ff08" transform="translate(390.999939 0)"/>
       <use xlink:href="#STHeiti-46" transform="translate(490.999924 0)"/>
       <use xlink:href="#STHeiti-59" transform="translate(539.499908 0)"/>
       <use xlink:href="#STHeiti-32" transform="translate(598.699905 0)"/>
       <use xlink:href="#STHeiti-30" transform="translate(654.099899 0)"/>
       <use xlink:href="#STHeiti-32" transform="translate(709.499893 0)"/>
       <use xlink:href="#STHeiti-35" transform="translate(764.899887 0)"/>
       <use xlink:href="#STHeiti-672b" transform="translate(820.299881 0)"/>
       <use xlink:href="#STHeiti-ff09" transform="translate(920.299866 0)"/>
      </g>
     </g>
    </g>
   </g>
   <g id="matplotlib.axis_2">
    <g id="ytick_1">
     <g id="line2d_11">
      <path d="M 45.208563 251.847995 
L 700.876889 251.847995 
" clip-path="url(#p5c06b79fba)" style="fill: none; stroke: #b0b0b0; stroke-opacity: 0.3; stroke-width: 0.8; stroke-linecap: square"/>
     </g>
     <g id="line2d_12">
      <defs>
       <path id="ma8544b3a26" d="M 0 0 
L -3.5 0 
" style="stroke: #000000; stroke-width: 0.8"/>
      </defs>
      <g>
       <use xlink:href="#ma8544b3a26" x="45.208563" y="251.847995" style="stroke: #000000; stroke-width: 0.8"/>
      </g>
     </g>
     <g id="text_6">
      <!-- 0 -->
      <g transform="translate(32.667938 255.827683) scale(0.1 -0.1)">
       <use xlink:href="#STHeiti-30"/>
      </g>
     </g>
    </g>
    <g id="ytick_2">
     <g id="line2d_13">
      <path d="M 45.208563 200.174481 
L 700.876889 200.174481 
" clip-path="url(#p5c06b79fba)" style="fill: none; stroke: #b0b0b0; stroke-opacity: 0.3; stroke-width: 0.8; stroke-linecap: square"/>
     </g>
     <g id="line2d_14">
      <g>
       <use xlink:href="#ma8544b3a26" x="45.208563" y="200.174481" style="stroke: #000000; stroke-width: 0.8"/>
      </g>
     </g>
     <g id="text_7">
      <!-- 10000 -->
      <g transform="translate(10.505438 204.154169) scale(0.1 -0.1)">
       <defs>
        <path id="STHeiti-31" d="M 1184 4979 
L 2086 4979 
L 2086 384 
L 1632 384 
L 1632 4531 
L 909 4531 
L 1184 4979 
z
" transform="scale(0.015625)"/>
       </defs>
       <use xlink:href="#STHeiti-31"/>
       <use xlink:href="#STHeiti-30" transform="translate(55.399994 0)"/>
       <use xlink:href="#STHeiti-30" transform="translate(110.799988 0)"/>
       <use xlink:href="#STHeiti-30" transform="translate(166.199982 0)"/>
       <use xlink:href="#STHeiti-30" transform="translate(221.599976 0)"/>
      </g>
     </g>
    </g>
    <g id="ytick_3">
     <g id="line2d_15">
      <path d="M 45.208563 148.500967 
L 700.876889 148.500967 
" clip-path="url(#p5c06b79fba)" style="fill: none; stroke: #b0b0b0; stroke-opacity: 0.3; stroke-width: 0.8; stroke-linecap: square"/>
     </g>
     <g id="line2d_16">
      <g>
       <use xlink:href="#ma8544b3a26" x="45.208563" y="148.500967" style="stroke: #000000; stroke-width: 0.8"/>
      </g>
     </g>
     <g id="text_8">
      <!-- 20000 -->
      <g transform="translate(10.505438 152.480654) scale(0.1 -0.1)">
       <use xlink:href="#STHeiti-32"/>
       <use xlink:href="#STHeiti-30" transform="translate(55.399994 0)"/>
       <use xlink:href="#STHeiti-30" transform="translate(110.799988 0)"/>
       <use xlink:href="#STHeiti-30" transform="translate(166.199982 0)"/>
       <use xlink:href="#STHeiti-30" transform="translate(221.599976 0)"/>
      </g>
     </g>
    </g>
    <g id="ytick_4">
     <g id="line2d_17">
      <path d="M 45.208563 96.827452 
L 700.876889 96.827452 
" clip-path="url(#p5c06b79fba)" style="fill: none; stroke: #b0b0b0; stroke-opacity: 0.3; stroke-width: 0.8; stroke-linecap: square"/>
     </g>
     <g id="line2d_18">
      <g>
       <use xlink:href="#ma8544b3a26" x="45.208563" y="96.827452" style="stroke: #000000; stroke-width: 0.8"/>
      </g>
     </g>
     <g id="text_9">
      <!-- 30000 -->
      <g transform="translate(10.505438 100.80714) scale(0.1 -0.1)">
       <defs>
        <path id="STHeiti-33" d="M 845 3917 
L 378 3917 
Q 506 4486 867 4790 
Q 1229 5094 1750 5094 
Q 2272 5094 2659 4748 
Q 3046 4403 3046 3910 
Q 3046 3315 2458 2970 
Q 2861 2803 3081 2473 
Q 3302 2144 3302 1754 
Q 3302 1146 2857 707 
Q 2413 269 1734 269 
Q 1133 269 742 611 
Q 352 954 224 1613 
L 672 1613 
Q 794 1158 1046 937 
Q 1299 717 1760 717 
Q 2221 717 2534 1011 
Q 2848 1306 2848 1741 
Q 2848 2176 2502 2441 
Q 2157 2707 1498 2720 
L 1498 3142 
Q 1971 3142 2268 3360 
Q 2566 3578 2566 3901 
Q 2566 4224 2326 4438 
Q 2086 4653 1747 4653 
Q 1408 4653 1200 4470 
Q 992 4288 845 3917 
z
" transform="scale(0.015625)"/>
       </defs>
       <use xlink:href="#STHeiti-33"/>
       <use xlink:href="#STHeiti-30" transform="translate(55.399994 0)"/>
       <use xlink:href="#STHeiti-30" transform="translate(110.799988 0)"/>
       <use xlink:href="#STHeiti-30" transform="translate(166.199982 0)"/>
       <use xlink:href="#STHeiti-30" transform="translate(221.599976 0)"/>
      </g>
     </g>
    </g>
    <g id="ytick_5">
     <g id="line2d_19">
      <path d="M 45.208563 45.153938 
L 700.876889 45.153938 
" clip-path="url(#p5c06b79fba)" style="fill: none; stroke: #b0b0b0; stroke-opacity: 0.3; stroke-width: 0.8; stroke-linecap: square"/>
     </g>
     <g id="line2d_20">
      <g>
       <use xlink:href="#ma8544b3a26" x="45.208563" y="45.153938" style="stroke: #000000; stroke-width: 0.8"/>
      </g>
     </g>
     <g id="text_10">
      <!-- 40000 -->
      <g transform="translate(10.505438 49.133625) scale(0.1 -0.1)">
       <defs>
        <path id="STHeiti-34" d="M 2726 5094 
L 2816 5094 
L 2816 1894 
L 3373 1894 
L 3373 1453 
L 2816 1453 
L 2816 384 
L 2362 384 
L 2362 1453 
L 160 1453 
L 2726 5094 
z
M 2362 1894 
L 2362 3808 
L 1005 1894 
L 2362 1894 
z
" transform="scale(0.015625)"/>
       </defs>
       <use xlink:href="#STHeiti-34"/>
       <use xlink:href="#STHeiti-30" transform="translate(55.399994 0)"/>
       <use xlink:href="#STHeiti-30" transform="translate(110.799988 0)"/>
       <use xlink:href="#STHeiti-30" transform="translate(166.199982 0)"/>
       <use xlink:href="#STHeiti-30" transform="translate(221.599976 0)"/>
      </g>
     </g>
    </g>
   </g>
   <g id="line2d_21">
    <path d="M 75.011668 251.660111 
L 224.027197 18.849794 
L 373.042726 45.8753 
" clip-path="url(#p5c06b79fba)" style="fill: none; stroke: #1a365d; stroke-width: 2; stroke-linecap: square"/>
    <defs>
     <path id="m05a19856ed" d="M 0 3 
C 0.795609 3 1.55874 2.683901 2.12132 2.12132 
C 2.683901 1.55874 3 0.795609 3 0 
C 3 -0.795609 2.683901 -1.55874 2.12132 -2.12132 
C 1.55874 -2.683901 0.795609 -3 0 -3 
C -0.795609 -3 -1.55874 -2.683901 -2.12132 -2.12132 
C -2.683901 -1.55874 -3 -0.795609 -3 0 
C -3 0.795609 -2.683901 1.55874 -2.12132 2.12132 
C -1.55874 2.683901 -0.795609 3 0 3 
z
" style="stroke: #1a365d"/>
    </defs>
    <g clip-path="url(#p5c06b79fba)">
     <use xlink:href="#m05a19856ed" x="75.011668" y="251.660111" style="fill: #1a365d; stroke: #1a365d"/>
     <use xlink:href="#m05a19856ed" x="224.027197" y="18.849794" style="fill: #1a365d; stroke: #1a365d"/>
     <use xlink:href="#m05a19856ed" x="373.042726" y="45.8753" style="fill: #1a365d; stroke: #1a365d"/>
    </g>
   </g>
   <g id="line2d_22">
    <path d="M 75.011668 251.660111 
L 224.027197 251.84567 
L 373.042726 251.827378 
L 522.058255 251.678377 
L 671.073784 127.764385 
" clip-path="url(#p5c06b79fba)" style="fill: none; stroke: #d69e2e; stroke-width: 2; stroke-linecap: square"/>
    <defs>
     <path id="mf4f86698f9" d="M 0 3 
C 0.795609 3 1.55874 2.683901 2.12132 2.12132 
C 2.683901 1.55874 3 0.795609 3 0 
C 3 -0.795609 2.683901 -1.55874 2.12132 -2.12132 
C 1.55874 -2.683901 0.795609 -3 0 -3 
C -0.795609 -3 -1.55874 -2.683901 -2.12132 -2.12132 
C -2.683901 -1.55874 -3 -0.795609 -3 0 
C -3 0.795609 -2.683901 1.55874 -2.12132 2.12132 
C -1.55874 2.683901 -0.795609 3 0 3 
z
" style="stroke: #d69e2e"/>
    </defs>
    <g clip-path="url(#p5c06b79fba)">
     <use xlink:href="#mf4f86698f9" x="75.011668" y="251.660111" style="fill: #d69e2e; stroke: #d69e2e"/>
     <use xlink:href="#mf4f86698f9" x="224.027197" y="251.84567" style="fill: #d69e2e; stroke: #d69e2e"/>
     <use xlink:href="#mf4f86698f9" x="373.042726" y="251.827378" style="fill: #d69e2e; stroke: #d69e2e"/>
     <use xlink:href="#mf4f86698f9" x="522.058255" y="251.678377" style="fill: #d69e2e; stroke: #d69e2e"/>
     <use xlink:href="#mf4f86698f9" x="671.073784" y="127.764385" style="fill: #d69e2e; stroke: #d69e2e"/>
    </g>
   </g>
   <g id="patch_3">
    <path d="M 45.208563 263.495464 
L 45.208563 7.2 
" style="fill: none; stroke: #000000; stroke-width: 0.8; stroke-linejoin: miter; stroke-linecap: square"/>
   </g>
   <g id="patch_4">
    <path d="M 700.876889 263.495464 
L 700.876889 7.2 
" style="fill: none; stroke: #000000; stroke-width: 0.8; stroke-linejoin: miter; stroke-linecap: square"/>
   </g>
   <g id="patch_5">
    <path d="M 45.208563 263.495464 
L 700.876889 263.495464 
" style="fill: none; stroke: #000000; stroke-width: 0.8; stroke-linejoin: miter; stroke-linecap: square"/>
   </g>
   <g id="patch_6">
    <path d="M 45.208563 7.2 
L 700.876889 7.2 
" style="fill: none; stroke: #000000; stroke-width: 0.8; stroke-linejoin: miter; stroke-linecap: square"/>
   </g>
   <g id="legend_1">
    <g id="patch_7">
     <path d="M 611.776889 40.221563 
L 694.576889 40.221563 
Q 696.376889 40.221563 696.376889 38.421562 
L 696.376889 13.5 
Q 696.376889 11.7 694.576889 11.7 
L 611.776889 11.7 
Q 609.976889 11.7 609.976889 13.5 
L 609.976889 38.421562 
Q 609.976889 40.221563 611.776889 40.221563 
z
" style="fill: #ffffff; opacity: 0.8; stroke: #cccccc; stroke-linejoin: miter"/>
    </g>
    <g id="line2d_23">
     <path d="M 613.576889 19.313437 
L 622.576889 19.313437 
L 631.576889 19.313437 
" style="fill: none; stroke: #1a365d; stroke-width: 2; stroke-linecap: square"/>
     <g>
      <use xlink:href="#m05a19856ed" x="622.576889" y="19.313437" style="fill: #1a365d; stroke: #1a365d"/>
     </g>
    </g>
    <g id="text_11">
     <!-- F4报告数值 -->
     <g transform="translate(638.776889 22.463437) scale(0.09 -0.09)">
      <defs>
       <path id="STHeiti-62a5" d="M 1421 2278 
L 1421 3456 
Q 749 3456 365 3398 
L 365 3949 
Q 698 3898 1421 3898 
Q 1421 5075 1363 5216 
Q 1536 5178 2003 5178 
Q 2125 5178 2125 5139 
Q 2125 5101 2032 5027 
Q 1939 4954 1939 4800 
L 1939 3904 
Q 2387 3910 2643 3949 
L 2643 3398 
Q 2336 3443 1939 3450 
L 1939 2445 
Q 2349 2598 2669 2758 
Q 2650 2451 2733 2208 
Q 2336 2086 1939 1939 
L 1939 230 
Q 1939 -77 1875 -208 
Q 1811 -339 1593 -412 
Q 1376 -486 838 -570 
Q 800 -256 531 64 
Q 979 58 1152 80 
Q 1325 102 1373 176 
Q 1421 250 1421 429 
L 1421 1747 
Q 902 1542 493 1325 
Q 442 1677 333 2010 
Q 902 2131 1421 2278 
z
M 3520 -147 
L 3520 -595 
L 2950 -595 
Q 2989 51 2989 870 
L 2989 4262 
Q 2989 4698 2970 4883 
Q 3347 4864 4272 4864 
Q 5197 4864 5555 4883 
Q 5517 3930 5392 3590 
Q 5267 3251 4352 3091 
Q 4275 3411 4038 3661 
Q 4531 3661 4704 3715 
Q 4877 3770 4934 3968 
Q 4992 4166 4966 4422 
L 3520 4422 
L 3520 2803 
L 4819 2803 
Q 5242 2803 5626 2848 
Q 5434 1440 4992 704 
Q 5485 237 6093 128 
Q 5818 -90 5728 -429 
Q 5114 -134 4691 346 
Q 4397 -83 3814 -454 
Q 3706 -269 3520 -147 
z
M 4205 2381 
Q 4333 1542 4672 1056 
Q 4973 1536 5011 2381 
L 4205 2381 
z
M 3520 -32 
Q 4058 288 4390 685 
Q 3962 1184 3744 2381 
L 3520 2381 
L 3520 -32 
z
" transform="scale(0.015625)"/>
       <path id="STHeiti-544a" d="M 3046 4186 
L 3046 4442 
Q 3046 5139 3002 5242 
Q 3302 5203 3482 5203 
L 3770 5203 
Q 3821 5203 3821 5174 
Q 3821 5146 3753 5110 
Q 3686 5075 3638 4976 
Q 3590 4877 3590 4768 
L 3590 4186 
Q 4890 4198 5408 4237 
L 5408 3712 
Q 4698 3757 3590 3763 
L 3590 2854 
Q 5184 2861 6035 2918 
L 6035 2374 
Q 5203 2432 3212 2432 
Q 1222 2432 390 2374 
L 390 2918 
Q 1312 2854 3046 2854 
L 3046 3763 
L 1728 3763 
Q 1606 3514 1440 3238 
Q 1158 3366 858 3398 
Q 1254 3808 1414 4256 
Q 1574 4704 1645 5062 
Q 1786 5005 1971 4957 
Q 2157 4909 2233 4909 
Q 2310 4909 2310 4880 
Q 2310 4851 2278 4826 
Q 2163 4730 1914 4186 
L 3046 4186 
z
M 1958 -64 
L 1958 -608 
L 1363 -608 
Q 1408 -307 1408 77 
L 1408 1306 
Q 1408 1690 1376 1875 
Q 1850 1798 3267 1798 
Q 4685 1798 5120 1875 
Q 5088 1709 5088 1306 
L 5088 141 
Q 5088 -186 5126 -582 
L 4531 -582 
L 4531 -64 
L 1958 -64 
z
M 4531 390 
L 4531 1389 
L 1958 1389 
L 1958 390 
L 4531 390 
z
" transform="scale(0.015625)"/>
       <path id="STHeiti-6570" d="M 4640 480 
Q 4173 -51 3194 -467 
Q 3059 -237 2803 -26 
Q 3238 70 3673 323 
Q 4109 576 4365 890 
Q 3994 1549 3962 2835 
Q 3744 2458 3520 2176 
Q 3366 2419 3206 2522 
Q 3584 3040 3837 3747 
Q 4090 4454 4147 5171 
Q 4486 5062 4800 5037 
Q 4877 5030 4877 4988 
Q 4877 4947 4781 4896 
Q 4704 4858 4480 4128 
L 5216 4128 
Q 5747 4128 6003 4179 
L 6003 3661 
Q 5850 3680 5562 3699 
Q 5440 1773 4934 896 
Q 5254 518 6112 250 
Q 5856 6 5754 -365 
Q 4902 141 4640 480 
z
M 4627 1363 
Q 5018 2253 5088 3706 
L 4352 3706 
Q 4237 3328 3981 2874 
L 4384 2886 
Q 4384 1907 4627 1363 
z
M 1549 3526 
Q 1222 3520 589 3488 
L 589 3942 
Q 1158 3898 1850 3898 
L 1850 4499 
Q 1850 4800 1786 5165 
Q 2042 5139 2362 5139 
Q 2458 5139 2458 5094 
Q 2458 5050 2406 5030 
Q 2355 5011 2336 4976 
Q 2317 4941 2317 4845 
L 2317 3898 
Q 2758 3904 3507 3942 
L 3507 3488 
Q 2810 3526 2317 3533 
Q 2317 2970 2362 2515 
L 1805 2515 
Q 1850 3034 1850 3456 
Q 1632 3014 1401 2745 
Q 1171 2477 755 2189 
Q 608 2406 282 2573 
Q 1030 2816 1549 3526 
z
M 2861 4922 
Q 3155 4826 3386 4794 
Q 3462 4781 3462 4755 
Q 3462 4730 3388 4701 
Q 3315 4672 3228 4521 
Q 3142 4371 3014 4122 
Q 2835 4166 2560 4186 
Q 2746 4461 2861 4922 
z
M 1510 4230 
L 973 4154 
Q 966 4461 883 4806 
L 1389 4870 
Q 1459 4595 1510 4230 
z
M 3360 2790 
L 3046 2477 
Q 2765 2816 2464 3078 
L 2790 3328 
Q 3034 3117 3360 2790 
z
M 2899 755 
Q 3168 666 3450 525 
Q 3251 314 3168 128 
Q 2886 288 2637 390 
Q 2394 128 1984 -51 
Q 1574 -230 781 -410 
Q 627 -115 346 109 
Q 1619 134 2157 557 
Q 1709 691 1030 781 
Q 1248 1165 1408 1555 
Q 800 1549 531 1504 
L 531 1965 
Q 858 1939 1536 1926 
Q 1600 2118 1696 2458 
Q 1946 2355 2214 2336 
Q 2342 2323 2342 2294 
Q 2342 2266 2243 2198 
Q 2144 2131 2035 1926 
L 2899 1926 
Q 3162 1926 3341 1971 
Q 3123 1158 2899 755 
z
M 1862 1555 
L 1626 1043 
Q 2118 966 2470 883 
Q 2662 1165 2726 1555 
L 1862 1555 
z
" transform="scale(0.015625)"/>
       <path id="STHeiti-503c" d="M 2438 109 
L 2438 2912 
Q 2438 3322 2406 3610 
Q 2861 3571 3507 3565 
Q 3552 3834 3571 4186 
Q 2490 4173 2086 4147 
L 2086 4646 
Q 2586 4602 3597 4595 
Q 3610 5024 3590 5229 
Q 3840 5184 4294 5184 
Q 4346 5184 4346 5155 
Q 4346 5126 4301 5088 
Q 4192 4998 4128 4595 
Q 5440 4595 6022 4646 
L 6022 4147 
Q 5338 4192 4077 4186 
L 4013 3565 
Q 5043 3565 5434 3610 
Q 5408 3405 5408 2912 
L 5408 102 
Q 5805 109 6118 147 
L 6118 -365 
Q 5754 -320 3965 -320 
Q 2176 -320 1830 -358 
L 1830 147 
Q 2106 122 2438 109 
z
M 4915 2688 
L 4915 3155 
L 2925 3155 
L 2925 2688 
L 4915 2688 
z
M 2925 2323 
L 2925 1824 
L 4915 1824 
L 4915 2323 
L 2925 2323 
z
M 2925 1466 
L 2925 973 
L 4915 973 
L 4915 1466 
L 2925 1466 
z
M 4915 102 
L 4915 608 
L 2925 608 
L 2925 102 
L 4915 102 
z
M 1549 4026 
L 1549 -627 
L 966 -627 
Q 1037 70 1037 749 
L 1037 3066 
Q 845 2726 595 2349 
Q 448 2579 186 2752 
Q 685 3354 944 3933 
Q 1203 4512 1408 5216 
Q 1786 5024 1926 4995 
Q 2067 4966 2067 4918 
Q 2067 4870 1984 4825 
Q 1901 4781 1766 4493 
L 1549 4026 
z
" transform="scale(0.015625)"/>
      </defs>
      <use xlink:href="#STHeiti-46"/>
      <use xlink:href="#STHeiti-34" transform="translate(48.499985 0)"/>
      <use xlink:href="#STHeiti-62a5" transform="translate(103.899979 0)"/>
      <use xlink:href="#STHeiti-544a" transform="translate(203.899963 0)"/>
      <use xlink:href="#STHeiti-6570" transform="translate(303.899948 0)"/>
      <use xlink:href="#STHeiti-503c" transform="translate(403.899933 0)"/>
     </g>
    </g>
    <g id="line2d_24">
     <path d="M 613.576889 32.265 
L 622.576889 32.265 
L 631.576889 32.265 
" style="fill: none; stroke: #d69e2e; stroke-width: 2; stroke-linecap: square"/>
     <g>
      <use xlink:href="#mf4f86698f9" x="622.576889" y="32.265" style="fill: #d69e2e; stroke: #d69e2e"/>
     </g>
    </g>
    <g id="text_12">
     <!-- 项目台账数值 -->
     <g transform="translate(638.776889 35.415) scale(0.09 -0.09)">
      <defs>
       <path id="STHeiti-9879" d="M 3962 4454 
Q 3034 4448 2586 4403 
L 2560 4928 
Q 3104 4877 4294 4877 
Q 5485 4877 6010 4928 
L 6010 4403 
Q 5517 4454 4512 4454 
Q 4397 3994 4314 3706 
Q 5197 3706 5594 3731 
Q 5581 3635 5581 2963 
L 5581 1696 
Q 5581 1114 5619 813 
L 5024 813 
L 5024 3270 
L 3302 3270 
L 3302 678 
L 2765 678 
Q 2803 979 2803 1562 
L 2803 2963 
Q 2803 3642 2797 3731 
Q 3123 3712 3846 3706 
Q 3930 4179 3962 4454 
z
M 1651 1523 
Q 2182 1645 2438 1741 
Q 2400 1594 2400 1472 
Q 2400 1350 2438 1210 
Q 1062 883 486 640 
Q 486 966 333 1286 
Q 768 1350 1139 1421 
L 1139 4147 
Q 659 4141 371 4090 
L 371 4672 
Q 691 4614 1347 4614 
Q 2003 4614 2342 4672 
L 2342 4090 
Q 2106 4128 1651 4141 
L 1651 1523 
z
M 3962 2778 
Q 4397 2694 4502 2691 
Q 4608 2688 4608 2678 
Q 4608 2669 4557 2640 
Q 4506 2611 4493 2406 
Q 4442 1632 4352 1222 
Q 4262 813 4057 496 
Q 3853 179 3478 -80 
Q 3104 -339 2374 -704 
Q 2246 -442 1907 -224 
Q 2618 -6 3037 230 
Q 3456 467 3654 812 
Q 3853 1158 3917 1548 
Q 3981 1939 3962 2778 
z
M 6010 -192 
L 5600 -640 
Q 4941 64 4269 589 
L 4602 915 
Q 5440 333 6010 -192 
z
" transform="scale(0.015625)"/>
       <path id="STHeiti-76ee" d="M 1952 51 
L 1952 -448 
L 1363 -448 
Q 1414 -38 1414 531 
L 1414 4051 
Q 1414 4480 1363 4826 
Q 1990 4755 3212 4755 
Q 4435 4755 5306 4826 
Q 5254 4448 5254 4051 
L 5254 544 
Q 5254 -19 5306 -435 
L 4710 -435 
L 4710 51 
L 1952 51 
z
M 4710 3334 
L 4710 4288 
L 1952 4288 
L 1952 3334 
L 4710 3334 
z
M 1952 2886 
L 1952 1907 
L 4710 1907 
L 4710 2886 
L 1952 2886 
z
M 1952 1459 
L 1952 499 
L 4710 499 
L 4710 1459 
L 1952 1459 
z
" transform="scale(0.015625)"/>
       <path id="STHeiti-53f0" d="M 4941 2906 
Q 3014 2803 2028 2736 
Q 1043 2669 646 2560 
Q 602 2816 493 3104 
Q 986 3200 1251 3446 
Q 1517 3693 2067 4275 
Q 2618 4858 2899 5306 
Q 3270 5075 3533 4979 
Q 3648 4934 3648 4883 
Q 3648 4832 3510 4825 
Q 3373 4819 3091 4538 
Q 2246 3699 1613 3200 
L 4570 3309 
Q 4179 3686 3725 4102 
L 4166 4403 
Q 4954 3738 5805 2835 
L 5280 2483 
Q 5075 2758 4941 2906 
z
M 1696 -83 
L 1696 -525 
L 1082 -525 
Q 1165 -26 1165 448 
L 1165 1453 
Q 1165 1818 1133 2042 
Q 1472 2010 3085 2010 
Q 4698 2010 5165 2042 
Q 5133 1843 5133 1453 
L 5133 525 
Q 5133 -58 5171 -448 
L 4589 -448 
L 4589 -83 
L 1696 -83 
z
M 4589 378 
L 4589 1555 
L 1696 1555 
L 1696 378 
L 4589 378 
z
" transform="scale(0.015625)"/>
       <path id="STHeiti-8d26" d="M 3859 2867 
L 5011 2867 
Q 5670 2867 5939 2912 
L 5939 2394 
Q 5683 2438 5005 2438 
L 4672 2438 
Q 4832 1549 5152 1069 
Q 5472 589 6106 326 
Q 5843 109 5683 -256 
Q 5101 115 4726 819 
Q 4352 1523 4250 2438 
L 3859 2438 
L 3859 294 
Q 4160 448 4448 640 
Q 4461 307 4582 160 
Q 3718 -339 3450 -602 
Q 3309 -326 3123 -102 
Q 3398 115 3398 595 
L 3398 2432 
Q 3085 2426 2880 2394 
L 2880 2912 
Q 3053 2886 3398 2867 
L 3398 4166 
Q 3398 4845 3360 5178 
Q 3661 5120 3859 5120 
L 3981 5133 
Q 4051 5133 4051 5094 
Q 4051 5056 4006 4992 
Q 3859 4768 3859 4454 
L 3859 2867 
z
M 5152 4979 
Q 5402 4806 5715 4717 
Q 5779 4698 5779 4662 
Q 5779 4627 5683 4576 
Q 5587 4525 5468 4387 
Q 5350 4250 5088 3814 
Q 4826 3379 4550 3066 
Q 4358 3200 4083 3264 
Q 4403 3578 4716 4086 
Q 5030 4595 5152 4979 
z
M 2784 1139 
L 2272 1139 
L 2272 4378 
L 1120 4378 
L 1120 1050 
L 595 1050 
Q 653 1382 653 2086 
L 653 4339 
Q 653 4717 627 4890 
Q 864 4832 1718 4832 
Q 2573 4832 2752 4890 
Q 2726 4730 2726 4339 
L 2726 2170 
Q 2726 1549 2784 1139 
z
M 1504 3936 
Q 1594 3910 1706 3897 
Q 1818 3885 1901 3885 
L 2029 3891 
Q 2093 3891 2093 3862 
Q 2093 3834 2054 3795 
Q 1952 3693 1952 2822 
Q 1952 1952 1888 1475 
Q 1824 998 1587 540 
Q 1350 83 806 -576 
Q 602 -390 301 -307 
Q 742 77 992 409 
Q 1242 742 1354 1097 
Q 1466 1453 1494 1821 
Q 1523 2189 1523 2982 
Q 1523 3776 1504 3936 
z
M 2861 154 
L 2490 -250 
Q 2291 83 1811 576 
L 2170 883 
Q 2566 422 2861 154 
z
" transform="scale(0.015625)"/>
      </defs>
      <use xlink:href="#STHeiti-9879"/>
      <use xlink:href="#STHeiti-76ee" transform="translate(99.999985 0)"/>
      <use xlink:href="#STHeiti-53f0" transform="translate(199.999969 0)"/>
      <use xlink:href="#STHeiti-8d26" transform="translate(299.999954 0)"/>
      <use xlink:href="#STHeiti-6570" transform="translate(399.999939 0)"/>
      <use xlink:href="#STHeiti-503c" transform="translate(499.999924 0)"/>
     </g>
    </g>
   </g>
  </g>
 </g>
 <defs>
  <clipPath id="p5c06b79fba">
   <rect x="45.208563" y="7.2" width="655.668327" height="256.295464"/>
  </clipPath>
 </defs>
</svg>
