<?xml version="1.0" encoding="utf-8" standalone="no"?>
<!DOCTYPE svg PUBLIC "-//W3C//DTD SVG 1.1//EN"
  "http://www.w3.org/Graphics/SVG/1.1/DTD/svg11.dtd">
<svg xmlns:xlink="http://www.w3.org/1999/xlink" width="712.492814pt" height="352.172313pt" viewBox="0 0 712.492814 352.172313" xmlns="http://www.w3.org/2000/svg" version="1.1">
 <metadata>
  <rdf:RDF xmlns:dc="http://purl.org/dc/elements/1.1/" xmlns:cc="http://creativecommons.org/ns#" xmlns:rdf="http://www.w3.org/1999/02/22-rdf-syntax-ns#">
   <cc:Work>
    <dc:type rdf:resource="http://purl.org/dc/dcmitype/StillImage"/>
    <dc:date>2026-06-05T13:58:33.908129</dc:date>
    <dc:format>image/svg+xml</dc:format>
    <dc:creator>
     <cc:Agent>
      <dc:title>Matplotlib v3.10.9, https://matplotlib.org/</dc:title>
     </cc:Agent>
    </dc:creator>
   </cc:Work>
  </rdf:RDF>
 </metadata>
 <defs>
  <style type="text/css">*{stroke-linejoin: round; stroke-linecap: butt}</style>
 </defs>
 <g id="figure_1">
  <g id="patch_1">
   <path d="M 0 352.172313 
L 712.492814 352.172313 
L 712.492814 0 
L 0 0 
z
" style="fill: #ffffff"/>
  </g>
  <g id="axes_1">
   <g id="patch_2">
    <path d="M 62.439415 300.710464 
L 705.292814 300.710464 
L 705.292814 7.2 
L 62.439415 7.2 
z
" style="fill: #fafafa"/>
   </g>
   <g id="matplotlib.axis_1">
    <g id="xtick_1">
     <g id="line2d_1">
      <path d="M 62.439415 300.710464 
L 62.439415 7.2 
" clip-path="url(#p3ae7d6adc3)" style="fill: none; stroke: #b0b0b0; stroke-opacity: 0.3; stroke-width: 0.8; stroke-linecap: square"/>
     </g>
     <g id="line2d_2">
      <defs>
       <path id="m7f4cd1d9eb" d="M 0 0 
L 0 3.5 
" style="stroke: #000000; stroke-width: 0.8"/>
      </defs>
      <g>
       <use xlink:href="#m7f4cd1d9eb" x="62.439415" y="300.710464" style="stroke: #000000; stroke-width: 0.8"/>
      </g>
     </g>
     <g id="text_1">
      <!-- FY2020-2024 -->
      <g transform="translate(11.179688 343.811297) rotate(-30) scale(0.1 -0.1)">
       <defs>
        <path id="STHeiti-46" d="M 557 4979 
L 2861 4979 
L 2861 4525 
L 1018 4525 
L 1018 3091 
L 2861 3091 
L 2861 2637 
L 1018 2637 
L 1018 384 
L 557 384 
L 557 4979 
z
" transform="scale(0.015625)"/>
        <path id="STHeiti-59" d="M 198 4979 
L 730 4979 
L 1901 3085 
L 3059 4979 
L 3590 4979 
L 2131 2579 
L 2131 384 
L 1683 384 
L 1683 2579 
L 198 4979 
z
" transform="scale(0.015625)"/>
        <path id="STHeiti-32" d="M 742 3539 
L 301 3539 
Q 333 4243 768 4668 
Q 1203 5094 1820 5094 
Q 2438 5094 2844 4694 
Q 3251 4294 3251 3718 
Q 3251 3290 3024 2925 
Q 2797 2560 2336 2061 
L 1190 826 
L 3315 826 
L 3315 384 
L 192 384 
L 1946 2278 
Q 2406 2778 2604 3066 
Q 2803 3354 2803 3725 
Q 2803 4096 2512 4377 
Q 2221 4659 1789 4659 
Q 1357 4659 1072 4368 
Q 787 4077 742 3539 
z
" transform="scale(0.015625)"/>
        <path id="STHeiti-30" d="M 1747 269 
Q 1005 269 605 880 
Q 205 1491 205 2681 
Q 205 3872 605 4483 
Q 1005 5094 1741 5094 
Q 2477 5094 2909 4470 
Q 3341 3846 3341 2681 
Q 3341 1517 2905 893 
Q 2470 269 1747 269 
z
M 1760 4659 
Q 1229 4659 934 4147 
Q 640 3635 640 2669 
Q 640 685 1760 685 
Q 2304 685 2608 1206 
Q 2912 1728 2912 2681 
Q 2912 3635 2598 4147 
Q 2285 4659 1760 4659 
z
" transform="scale(0.015625)"/>
        <path id="STHeiti-2d" d="M 205 2304 
L 1920 2304 
L 1920 1920 
L 205 1920 
L 205 2304 
z
" transform="scale(0.015625)"/>
        <path id="STHeiti-34" d="M 2726 5094 
L 2816 5094 
L 2816 1894 
L 3373 1894 
L 3373 1453 
L 2816 1453 
L 2816 384 
L 2362 384 
L 2362 1453 
L 160 1453 
L 2726 5094 
z
M 2362 1894 
L 2362 3808 
L 1005 1894 
L 2362 1894 
z
" transform="scale(0.015625)"/>
       </defs>
       <use xlink:href="#STHeiti-46"/>
       <use xlink:href="#STHeiti-59" transform="translate(48.499985 0)"/>
       <use xlink:href="#STHeiti-32" transform="translate(107.699982 0)"/>
       <use xlink:href="#STHeiti-30" transform="translate(163.099976 0)"/>
       <use xlink:href="#STHeiti-32" transform="translate(218.499969 0)"/>
       <use xlink:href="#STHeiti-30" transform="translate(273.899963 0)"/>
       <use xlink:href="#STHeiti-2d" transform="translate(329.299957 0)"/>
       <use xlink:href="#STHeiti-32" transform="translate(362.499954 0)"/>
       <use xlink:href="#STHeiti-30" transform="translate(417.899948 0)"/>
       <use xlink:href="#STHeiti-32" transform="translate(473.299942 0)"/>
       <use xlink:href="#STHeiti-34" transform="translate(528.699936 0)"/>
      </g>
     </g>
    </g>
    <g id="xtick_2">
     <g id="line2d_3">
      <path d="M 186.065069 300.710464 
L 186.065069 7.2 
" clip-path="url(#p3ae7d6adc3)" style="fill: none; stroke: #b0b0b0; stroke-opacity: 0.3; stroke-width: 0.8; stroke-linecap: square"/>
     </g>
     <g id="line2d_4">
      <g>
       <use xlink:href="#m7f4cd1d9eb" x="186.065069" y="300.710464" style="stroke: #000000; stroke-width: 0.8"/>
      </g>
     </g>
     <g id="text_2">
      <!-- FY2025全年 -->
      <g transform="translate(139.553596 341.199795) rotate(-30) scale(0.1 -0.1)">
       <defs>
        <path id="STHeiti-35" d="M 3149 4979 
L 3149 4544 
L 1510 4544 
L 1280 3290 
Q 1587 3379 1856 3379 
Q 2458 3379 2861 2953 
Q 3264 2528 3264 1862 
Q 3264 1197 2825 733 
Q 2387 269 1664 269 
Q 1114 269 726 598 
Q 339 928 262 1498 
L 730 1498 
Q 813 1114 1075 909 
Q 1338 704 1683 704 
Q 2138 704 2467 1043 
Q 2797 1382 2797 1888 
Q 2797 2349 2509 2646 
Q 2221 2944 1757 2944 
Q 1293 2944 730 2701 
L 1158 4979 
L 3149 4979 
z
" transform="scale(0.015625)"/>
        <path id="STHeiti-5168" d="M 1549 3053 
Q 1120 2707 736 2470 
Q 544 2733 250 2899 
Q 1114 3245 1824 3894 
Q 2534 4544 2899 5344 
Q 3245 5203 3597 5146 
Q 3718 5126 3718 5084 
Q 3718 5043 3635 5008 
Q 3552 4973 3526 4954 
Q 3936 4262 4611 3836 
Q 5286 3411 6112 3322 
Q 5869 3059 5734 2669 
Q 5254 2854 4838 3091 
L 4838 2630 
Q 4339 2682 3475 2688 
L 3475 1786 
Q 4474 1792 5165 1837 
L 5165 1274 
Q 4538 1325 3475 1331 
L 3475 198 
Q 4883 205 5645 262 
L 5645 -333 
Q 4800 -269 3158 -269 
Q 1517 -269 672 -333 
L 672 262 
Q 1478 198 2950 198 
L 2950 1331 
Q 1869 1325 1235 1274 
L 1235 1837 
Q 1946 1792 2950 1786 
L 2950 2688 
Q 2061 2682 1549 2630 
L 1549 3053 
z
M 3213 4710 
Q 2541 3898 1690 3168 
Q 2253 3130 3197 3130 
Q 4141 3130 4698 3168 
Q 3642 3821 3213 4710 
z
" transform="scale(0.015625)"/>
        <path id="STHeiti-5e74" d="M 2125 4346 
L 3738 4346 
Q 5107 4346 5696 4397 
L 5696 3827 
Q 5088 3878 3770 3878 
L 3770 2886 
Q 4819 2893 5395 2938 
L 5395 2406 
Q 4602 2451 3770 2458 
L 3770 1338 
Q 5658 1338 6080 1395 
L 6080 819 
Q 5709 870 3770 877 
Q 3770 -26 3821 -704 
L 3174 -704 
Q 3226 -19 3226 877 
Q 973 877 371 819 
L 371 1395 
Q 730 1357 1466 1344 
L 1466 2349 
Q 1466 2682 1421 2938 
Q 2093 2886 3226 2886 
L 3226 3878 
L 1862 3878 
Q 1510 3277 1120 2803 
Q 922 2938 563 3040 
Q 973 3430 1341 4028 
Q 1709 4627 1907 5216 
Q 2234 5088 2426 5043 
Q 2618 4998 2618 4966 
Q 2618 4934 2522 4886 
Q 2426 4838 2125 4346 
z
M 3226 2458 
L 1984 2458 
L 1984 1338 
L 3226 1338 
L 3226 2458 
z
" transform="scale(0.015625)"/>
       </defs>
       <use xlink:href="#STHeiti-46"/>
       <use xlink:href="#STHeiti-59" transform="translate(48.499985 0)"/>
       <use xlink:href="#STHeiti-32" transform="translate(107.699982 0)"/>
       <use xlink:href="#STHeiti-30" transform="translate(163.099976 0)"/>
       <use xlink:href="#STHeiti-32" transform="translate(218.499969 0)"/>
       <use xlink:href="#STHeiti-35" transform="translate(273.899963 0)"/>
       <use xlink:href="#STHeiti-5168" transform="translate(329.299957 0)"/>
       <use xlink:href="#STHeiti-5e74" transform="translate(429.299942 0)"/>
      </g>
     </g>
    </g>
    <g id="xtick_3">
     <g id="line2d_5">
      <path d="M 309.690722 300.710464 
L 309.690722 7.2 
" clip-path="url(#p3ae7d6adc3)" style="fill: none; stroke: #b0b0b0; stroke-opacity: 0.3; stroke-width: 0.8; stroke-linecap: square"/>
     </g>
     <g id="line2d_6">
      <g>
       <use xlink:href="#m7f4cd1d9eb" x="309.690722" y="300.710464" style="stroke: #000000; stroke-width: 0.8"/>
      </g>
     </g>
     <g id="text_3">
      <!-- Q1 2026 -->
      <g transform="translate(275.321196 334.059735) rotate(-30) scale(0.1 -0.1)">
       <defs>
        <path id="STHeiti-51" d="M 4416 883 
L 5094 19 
L 4531 19 
L 4064 614 
Q 3494 269 2822 269 
Q 1779 269 1072 963 
Q 365 1658 365 2662 
Q 365 3693 1049 4393 
Q 1734 5094 2784 5094 
Q 3443 5094 4003 4774 
Q 4563 4454 4883 3897 
Q 5203 3341 5203 2682 
Q 5203 1626 4416 883 
z
M 4134 1242 
Q 4730 1830 4730 2668 
Q 4730 3507 4154 4076 
Q 3578 4646 2778 4646 
Q 1978 4646 1411 4070 
Q 845 3494 845 2659 
Q 845 1824 1421 1270 
Q 1997 717 2790 717 
Q 3322 717 3776 979 
L 2752 2278 
L 3309 2278 
L 4134 1242 
z
" transform="scale(0.015625)"/>
        <path id="STHeiti-31" d="M 1184 4979 
L 2086 4979 
L 2086 384 
L 1632 384 
L 1632 4531 
L 909 4531 
L 1184 4979 
z
" transform="scale(0.015625)"/>
        <path id="STHeiti-20" transform="scale(0.015625)"/>
        <path id="STHeiti-36" d="M 2349 5094 
L 2726 4851 
L 1485 2970 
Q 1747 3059 1984 3059 
Q 2496 3059 2880 2652 
Q 3264 2246 3264 1660 
Q 3264 1075 2845 672 
Q 2426 269 1827 269 
Q 1229 269 829 678 
Q 429 1088 429 1677 
Q 429 1958 537 2256 
Q 646 2554 954 3014 
L 2349 5094 
z
M 2810 1683 
Q 2810 2086 2528 2368 
Q 2246 2650 1843 2650 
Q 1440 2650 1158 2368 
Q 877 2086 877 1683 
Q 877 1280 1161 998 
Q 1446 717 1843 717 
Q 2240 717 2525 998 
Q 2810 1280 2810 1683 
z
" transform="scale(0.015625)"/>
       </defs>
       <use xlink:href="#STHeiti-51"/>
       <use xlink:href="#STHeiti-31" transform="translate(87.099991 0)"/>
       <use xlink:href="#STHeiti-20" transform="translate(142.499985 0)"/>
       <use xlink:href="#STHeiti-32" transform="translate(167.499969 0)"/>
       <use xlink:href="#STHeiti-30" transform="translate(222.899963 0)"/>
       <use xlink:href="#STHeiti-32" transform="translate(278.299957 0)"/>
       <use xlink:href="#STHeiti-36" transform="translate(333.699951 0)"/>
      </g>
     </g>
    </g>
    <g id="xtick_4">
     <g id="line2d_7">
      <path d="M 433.316376 300.710464 
L 433.316376 7.2 
" clip-path="url(#p3ae7d6adc3)" style="fill: none; stroke: #b0b0b0; stroke-opacity: 0.3; stroke-width: 0.8; stroke-linecap: square"/>
     </g>
     <g id="line2d_8">
      <g>
       <use xlink:href="#m7f4cd1d9eb" x="433.316376" y="300.710464" style="stroke: #000000; stroke-width: 0.8"/>
      </g>
     </g>
     <g id="text_4">
      <!-- 2026年1月 -->
      <g transform="translate(391.333945 338.455047) rotate(-30) scale(0.1 -0.1)">
       <defs>
        <path id="STHeiti-6708" d="M 4710 1587 
L 2208 1587 
Q 2112 269 1235 -595 
Q 1005 -339 614 -237 
Q 1184 192 1430 800 
Q 1677 1408 1677 2509 
L 1677 4045 
Q 1677 4646 1651 4877 
Q 1978 4851 3501 4851 
Q 5024 4851 5331 4877 
Q 5306 4646 5306 4045 
L 5306 288 
Q 5306 -64 5245 -205 
Q 5184 -346 4969 -416 
Q 4755 -486 4211 -538 
Q 4211 -160 3930 173 
Q 4294 109 4457 109 
Q 4621 109 4665 214 
Q 4710 320 4710 659 
L 4710 1587 
z
M 2227 3443 
L 4710 3443 
L 4710 4371 
L 2227 4371 
L 2227 3443 
z
M 4710 2995 
L 2227 2995 
L 2227 2054 
L 4710 2054 
L 4710 2995 
z
" transform="scale(0.015625)"/>
       </defs>
       <use xlink:href="#STHeiti-32"/>
       <use xlink:href="#STHeiti-30" transform="translate(55.399994 0)"/>
       <use xlink:href="#STHeiti-32" transform="translate(110.799988 0)"/>
       <use xlink:href="#STHeiti-36" transform="translate(166.199982 0)"/>
       <use xlink:href="#STHeiti-5e74" transform="translate(221.599976 0)"/>
       <use xlink:href="#STHeiti-31" transform="translate(321.59996 0)"/>
       <use xlink:href="#STHeiti-6708" transform="translate(376.999954 0)"/>
      </g>
     </g>
    </g>
    <g id="xtick_5">
     <g id="line2d_9">
      <path d="M 556.942029 300.710464 
L 556.942029 7.2 
" clip-path="url(#p3ae7d6adc3)" style="fill: none; stroke: #b0b0b0; stroke-opacity: 0.3; stroke-width: 0.8; stroke-linecap: square"/>
     </g>
     <g id="line2d_10">
      <g>
       <use xlink:href="#m7f4cd1d9eb" x="556.942029" y="300.710464" style="stroke: #000000; stroke-width: 0.8"/>
      </g>
     </g>
     <g id="text_5">
      <!-- 2026年2月 -->
      <g transform="translate(514.959599 338.455047) rotate(-30) scale(0.1 -0.1)">
       <use xlink:href="#STHeiti-32"/>
       <use xlink:href="#STHeiti-30" transform="translate(55.399994 0)"/>
       <use xlink:href="#STHeiti-32" transform="translate(110.799988 0)"/>
       <use xlink:href="#STHeiti-36" transform="translate(166.199982 0)"/>
       <use xlink:href="#STHeiti-5e74" transform="translate(221.599976 0)"/>
       <use xlink:href="#STHeiti-32" transform="translate(321.59996 0)"/>
       <use xlink:href="#STHeiti-6708" transform="translate(376.999954 0)"/>
      </g>
     </g>
    </g>
    <g id="xtick_6">
     <g id="line2d_11">
      <path d="M 680.567683 300.710464 
L 680.567683 7.2 
" clip-path="url(#p3ae7d6adc3)" style="fill: none; stroke: #b0b0b0; stroke-opacity: 0.3; stroke-width: 0.8; stroke-linecap: square"/>
     </g>
     <g id="line2d_12">
      <g>
       <use xlink:href="#m7f4cd1d9eb" x="680.567683" y="300.710464" style="stroke: #000000; stroke-width: 0.8"/>
      </g>
     </g>
     <g id="text_6">
      <!-- 2026年3月 -->
      <g transform="translate(638.585252 338.455047) rotate(-30) scale(0.1 -0.1)">
       <defs>
        <path id="STHeiti-33" d="M 845 3917 
L 378 3917 
Q 506 4486 867 4790 
Q 1229 5094 1750 5094 
Q 2272 5094 2659 4748 
Q 3046 4403 3046 3910 
Q 3046 3315 2458 2970 
Q 2861 2803 3081 2473 
Q 3302 2144 3302 1754 
Q 3302 1146 2857 707 
Q 2413 269 1734 269 
Q 1133 269 742 611 
Q 352 954 224 1613 
L 672 1613 
Q 794 1158 1046 937 
Q 1299 717 1760 717 
Q 2221 717 2534 1011 
Q 2848 1306 2848 1741 
Q 2848 2176 2502 2441 
Q 2157 2707 1498 2720 
L 1498 3142 
Q 1971 3142 2268 3360 
Q 2566 3578 2566 3901 
Q 2566 4224 2326 4438 
Q 2086 4653 1747 4653 
Q 1408 4653 1200 4470 
Q 992 4288 845 3917 
z
" transform="scale(0.015625)"/>
       </defs>
       <use xlink:href="#STHeiti-32"/>
       <use xlink:href="#STHeiti-30" transform="translate(55.399994 0)"/>
       <use xlink:href="#STHeiti-32" transform="translate(110.799988 0)"/>
       <use xlink:href="#STHeiti-36" transform="translate(166.199982 0)"/>
       <use xlink:href="#STHeiti-5e74" transform="translate(221.599976 0)"/>
       <use xlink:href="#STHeiti-33" transform="translate(321.59996 0)"/>
       <use xlink:href="#STHeiti-6708" transform="translate(376.999954 0)"/>
      </g>
     </g>
    </g>
   </g>
   <g id="matplotlib.axis_2">
    <g id="ytick_1">
     <g id="line2d_13">
      <path d="M 62.439415 266.717785 
L 705.292814 266.717785 
" clip-path="url(#p3ae7d6adc3)" style="fill: none; stroke: #b0b0b0; stroke-opacity: 0.3; stroke-width: 0.8; stroke-linecap: square"/>
     </g>
     <g id="line2d_14">
      <defs>
       <path id="mb20b4fc7f4" d="M 0 0 
L -3.5 0 
" style="stroke: #000000; stroke-width: 0.8"/>
      </defs>
      <g>
       <use xlink:href="#mb20b4fc7f4" x="62.439415" y="266.717785" style="stroke: #000000; stroke-width: 0.8"/>
      </g>
     </g>
     <g id="text_7">
      <!-- 0 -->
      <g transform="translate(49.89879 270.697473) scale(0.1 -0.1)">
       <use xlink:href="#STHeiti-30"/>
      </g>
     </g>
    </g>
    <g id="ytick_2">
     <g id="line2d_15">
      <path d="M 62.439415 205.964391 
L 705.292814 205.964391 
" clip-path="url(#p3ae7d6adc3)" style="fill: none; stroke: #b0b0b0; stroke-opacity: 0.3; stroke-width: 0.8; stroke-linecap: square"/>
     </g>
     <g id="line2d_16">
      <g>
       <use xlink:href="#mb20b4fc7f4" x="62.439415" y="205.964391" style="stroke: #000000; stroke-width: 0.8"/>
      </g>
     </g>
     <g id="text_8">
      <!-- 50000 -->
      <g transform="translate(27.73629 209.944078) scale(0.1 -0.1)">
       <use xlink:href="#STHeiti-35"/>
       <use xlink:href="#STHeiti-30" transform="translate(55.399994 0)"/>
       <use xlink:href="#STHeiti-30" transform="translate(110.799988 0)"/>
       <use xlink:href="#STHeiti-30" transform="translate(166.199982 0)"/>
       <use xlink:href="#STHeiti-30" transform="translate(221.599976 0)"/>
      </g>
     </g>
    </g>
    <g id="ytick_3">
     <g id="line2d_17">
      <path d="M 62.439415 145.210996 
L 705.292814 145.210996 
" clip-path="url(#p3ae7d6adc3)" style="fill: none; stroke: #b0b0b0; stroke-opacity: 0.3; stroke-width: 0.8; stroke-linecap: square"/>
     </g>
     <g id="line2d_18">
      <g>
       <use xlink:href="#mb20b4fc7f4" x="62.439415" y="145.210996" style="stroke: #000000; stroke-width: 0.8"/>
      </g>
     </g>
     <g id="text_9">
      <!-- 100000 -->
      <g transform="translate(22.195665 149.190683) scale(0.1 -0.1)">
       <use xlink:href="#STHeiti-31"/>
       <use xlink:href="#STHeiti-30" transform="translate(55.399994 0)"/>
       <use xlink:href="#STHeiti-30" transform="translate(110.799988 0)"/>
       <use xlink:href="#STHeiti-30" transform="translate(166.199982 0)"/>
       <use xlink:href="#STHeiti-30" transform="translate(221.599976 0)"/>
       <use xlink:href="#STHeiti-30" transform="translate(276.999969 0)"/>
      </g>
     </g>
    </g>
    <g id="ytick_4">
     <g id="line2d_19">
      <path d="M 62.439415 84.457601 
L 705.292814 84.457601 
" clip-path="url(#p3ae7d6adc3)" style="fill: none; stroke: #b0b0b0; stroke-opacity: 0.3; stroke-width: 0.8; stroke-linecap: square"/>
     </g>
     <g id="line2d_20">
      <g>
       <use xlink:href="#mb20b4fc7f4" x="62.439415" y="84.457601" style="stroke: #000000; stroke-width: 0.8"/>
      </g>
     </g>
     <g id="text_10">
      <!-- 150000 -->
      <g transform="translate(22.195665 88.437289) scale(0.1 -0.1)">
       <use xlink:href="#STHeiti-31"/>
       <use xlink:href="#STHeiti-35" transform="translate(55.399994 0)"/>
       <use xlink:href="#STHeiti-30" transform="translate(110.799988 0)"/>
       <use xlink:href="#STHeiti-30" transform="translate(166.199982 0)"/>
       <use xlink:href="#STHeiti-30" transform="translate(221.599976 0)"/>
       <use xlink:href="#STHeiti-30" transform="translate(276.999969 0)"/>
      </g>
     </g>
    </g>
    <g id="ytick_5">
     <g id="line2d_21">
      <path d="M 62.439415 23.704206 
L 705.292814 23.704206 
" clip-path="url(#p3ae7d6adc3)" style="fill: none; stroke: #b0b0b0; stroke-opacity: 0.3; stroke-width: 0.8; stroke-linecap: square"/>
     </g>
     <g id="line2d_22">
      <g>
       <use xlink:href="#mb20b4fc7f4" x="62.439415" y="23.704206" style="stroke: #000000; stroke-width: 0.8"/>
      </g>
     </g>
     <g id="text_11">
      <!-- 200000 -->
      <g transform="translate(22.195665 27.683894) scale(0.1 -0.1)">
       <use xlink:href="#STHeiti-32"/>
       <use xlink:href="#STHeiti-30" transform="translate(55.399994 0)"/>
       <use xlink:href="#STHeiti-30" transform="translate(110.799988 0)"/>
       <use xlink:href="#STHeiti-30" transform="translate(166.199982 0)"/>
       <use xlink:href="#STHeiti-30" transform="translate(221.599976 0)"/>
       <use xlink:href="#STHeiti-30" transform="translate(276.999969 0)"/>
      </g>
     </g>
    </g>
   </g>
   <g id="line2d_23">
    <path d="M 186.065069 241.73842 
L 309.690722 265.10053 
L 433.316376 248.765157 
L 556.942029 262.401864 
L 680.567683 287.369079 
" clip-path="url(#p3ae7d6adc3)" style="fill: none; stroke: #1a365d; stroke-width: 2; stroke-linecap: square"/>
    <defs>
     <path id="ma1afb99089" d="M 0 3 
C 0.795609 3 1.55874 2.683901 2.12132 2.12132 
C 2.683901 1.55874 3 0.795609 3 0 
C 3 -0.795609 2.683901 -1.55874 2.12132 -2.12132 
C 1.55874 -2.683901 0.795609 -3 0 -3 
C -0.795609 -3 -1.55874 -2.683901 -2.12132 -2.12132 
C -2.683901 -1.55874 -3 -0.795609 -3 0 
C -3 0.795609 -2.683901 1.55874 -2.12132 2.12132 
C -1.55874 2.683901 -0.795609 3 0 3 
z
" style="stroke: #1a365d"/>
    </defs>
    <g clip-path="url(#p3ae7d6adc3)">
     <use xlink:href="#ma1afb99089" x="186.065069" y="241.73842" style="fill: #1a365d; stroke: #1a365d"/>
     <use xlink:href="#ma1afb99089" x="309.690722" y="265.10053" style="fill: #1a365d; stroke: #1a365d"/>
     <use xlink:href="#ma1afb99089" x="433.316376" y="248.765157" style="fill: #1a365d; stroke: #1a365d"/>
     <use xlink:href="#ma1afb99089" x="556.942029" y="262.401864" style="fill: #1a365d; stroke: #1a365d"/>
     <use xlink:href="#ma1afb99089" x="680.567683" y="287.369079" style="fill: #1a365d; stroke: #1a365d"/>
    </g>
   </g>
   <g id="line2d_24">
    <path d="M 186.065069 264.257273 
L 309.690722 20.541385 
L 433.316376 266.71657 
L 556.942029 266.71657 
L 680.567683 266.71657 
" clip-path="url(#p3ae7d6adc3)" style="fill: none; stroke: #d69e2e; stroke-width: 2; stroke-linecap: square"/>
    <defs>
     <path id="m4d8a0223de" d="M 0 3 
C 0.795609 3 1.55874 2.683901 2.12132 2.12132 
C 2.683901 1.55874 3 0.795609 3 0 
C 3 -0.795609 2.683901 -1.55874 2.12132 -2.12132 
C 1.55874 -2.683901 0.795609 -3 0 -3 
C -0.795609 -3 -1.55874 -2.683901 -2.12132 -2.12132 
C -2.683901 -1.55874 -3 -0.795609 -3 0 
C -3 0.795609 -2.683901 1.55874 -2.12132 2.12132 
C -1.55874 2.683901 -0.795609 3 0 3 
z
" style="stroke: #d69e2e"/>
    </defs>
    <g clip-path="url(#p3ae7d6adc3)">
     <use xlink:href="#m4d8a0223de" x="186.065069" y="264.257273" style="fill: #d69e2e; stroke: #d69e2e"/>
     <use xlink:href="#m4d8a0223de" x="309.690722" y="20.541385" style="fill: #d69e2e; stroke: #d69e2e"/>
     <use xlink:href="#m4d8a0223de" x="433.316376" y="266.71657" style="fill: #d69e2e; stroke: #d69e2e"/>
     <use xlink:href="#m4d8a0223de" x="556.942029" y="266.71657" style="fill: #d69e2e; stroke: #d69e2e"/>
     <use xlink:href="#m4d8a0223de" x="680.567683" y="266.71657" style="fill: #d69e2e; stroke: #d69e2e"/>
    </g>
   </g>
   <g id="patch_3">
    <path d="M 62.439415 300.710464 
L 62.439415 7.2 
" style="fill: none; stroke: #000000; stroke-width: 0.8; stroke-linejoin: miter; stroke-linecap: square"/>
   </g>
   <g id="patch_4">
    <path d="M 705.292814 300.710464 
L 705.292814 7.2 
" style="fill: none; stroke: #000000; stroke-width: 0.8; stroke-linejoin: miter; stroke-linecap: square"/>
   </g>
   <g id="patch_5">
    <path d="M 62.439415 300.710464 
L 705.292814 300.710464 
" style="fill: none; stroke: #000000; stroke-width: 0.8; stroke-linejoin: miter; stroke-linecap: square"/>
   </g>
   <g id="patch_6">
    <path d="M 62.439415 7.2 
L 705.292814 7.2 
" style="fill: none; stroke: #000000; stroke-width: 0.8; stroke-linejoin: miter; stroke-linecap: square"/>
   </g>
   <g id="legend_1">
    <g id="patch_7">
     <path d="M 622.511095 40.14 
L 698.992814 40.14 
Q 700.792814 40.14 700.792814 38.34 
L 700.792814 13.5 
Q 700.792814 11.7 698.992814 11.7 
L 622.511095 11.7 
Q 620.711095 11.7 620.711095 13.5 
L 620.711095 38.34 
Q 620.711095 40.14 622.511095 40.14 
z
" style="fill: #ffffff; opacity: 0.8; stroke: #cccccc; stroke-linejoin: miter"/>
    </g>
    <g id="line2d_25">
     <path d="M 624.311095 19.313437 
L 633.311095 19.313437 
L 642.311095 19.313437 
" style="fill: none; stroke: #1a365d; stroke-width: 2; stroke-linecap: square"/>
     <g>
      <use xlink:href="#ma1afb99089" x="633.311095" y="19.313437" style="fill: #1a365d; stroke: #1a365d"/>
     </g>
    </g>
    <g id="text_12">
     <!-- 经营CF数据 -->
     <g transform="translate(649.511095 22.463437) scale(0.09 -0.09)">
      <defs>
       <path id="STHeiti-7ecf" d="M 1587 2765 
Q 819 2643 499 2554 
Q 442 2842 320 3059 
Q 518 3130 880 3898 
Q 1242 4666 1306 5114 
Q 1434 5030 1674 4944 
Q 1914 4858 2010 4845 
Q 2106 4832 2106 4806 
Q 2106 4781 2038 4755 
Q 1971 4730 1894 4643 
Q 1818 4557 1760 4454 
Q 1382 3795 909 3078 
L 1818 3174 
Q 2074 3686 2150 3917 
Q 2483 3725 2733 3654 
Q 2822 3622 2822 3596 
Q 2822 3571 2758 3546 
Q 2586 3469 2419 3213 
Q 1702 2086 1274 1517 
Q 1779 1594 2502 1645 
Q 2400 1427 2400 1139 
Q 1651 1152 736 960 
Q 717 1216 576 1504 
Q 774 1542 1014 1862 
Q 1254 2182 1587 2765 
z
M 4659 3507 
Q 5485 3085 6112 2605 
L 5728 2112 
Q 5210 2637 4320 3142 
Q 3763 2579 2982 2061 
Q 2784 2253 2413 2387 
Q 3725 2989 4602 4301 
L 3834 4301 
Q 3174 4301 2790 4256 
L 2790 4819 
Q 3309 4768 4102 4768 
Q 4896 4768 5549 4819 
Q 5197 4115 4659 3507 
z
M 4563 1395 
L 4563 90 
Q 5600 90 6054 141 
L 6054 -422 
Q 5645 -371 4317 -371 
Q 2989 -371 2579 -422 
L 2579 141 
Q 3046 90 4032 90 
L 4032 1395 
Q 3296 1382 2886 1338 
L 2886 1901 
Q 3386 1843 4339 1843 
Q 5293 1843 5696 1901 
L 5696 1338 
Q 5286 1382 4563 1395 
z
M 2458 640 
Q 2298 320 2317 32 
Q 1920 6 1376 -118 
Q 832 -243 544 -384 
Q 544 -64 397 320 
Q 794 320 1405 409 
Q 2016 499 2458 640 
z
" transform="scale(0.015625)"/>
       <path id="STHeiti-8425" d="M 4282 3693 
Q 5274 3706 5856 3731 
L 5856 2662 
L 5344 2662 
L 5344 3277 
L 1082 3277 
L 1082 2624 
L 570 2624 
L 570 3731 
Q 1082 3699 2106 3693 
L 2106 4218 
Q 1056 4205 467 4160 
L 467 4666 
Q 1133 4614 2106 4614 
Q 2099 4973 2054 5178 
Q 2387 5133 2650 5133 
Q 2733 5133 2733 5101 
Q 2733 5069 2681 5037 
Q 2630 5005 2617 4979 
Q 2605 4954 2605 4890 
L 2605 4614 
L 3782 4614 
Q 3776 4947 3738 5171 
Q 4019 5133 4326 5133 
Q 4410 5133 4410 5101 
Q 4410 5069 4358 5037 
Q 4307 5005 4294 4979 
Q 4282 4954 4282 4890 
L 4282 4614 
Q 5299 4614 5965 4666 
L 5965 4160 
Q 5344 4218 4282 4218 
L 4282 3693 
z
M 2605 3693 
L 3782 3693 
L 3782 4218 
L 2605 4218 
L 2605 3693 
z
M 4794 1568 
Q 4230 1587 3270 1587 
Q 2310 1587 1587 1562 
Q 1619 1773 1619 2176 
Q 1619 2579 1587 2874 
Q 2086 2848 3190 2848 
Q 4294 2848 4794 2874 
Q 4774 2611 4774 2217 
Q 4774 1824 4794 1568 
z
M 4269 1971 
L 4269 2464 
L 2118 2464 
L 2118 1971 
L 4269 1971 
z
M 4698 -109 
L 1722 -109 
L 1722 -576 
L 1152 -576 
Q 1197 -333 1197 -64 
L 1197 890 
Q 1197 1037 1158 1197 
Q 1350 1184 3235 1184 
Q 5120 1184 5280 1197 
Q 5248 1082 5248 890 
L 5248 0 
Q 5248 -269 5293 -512 
L 4698 -512 
L 4698 -109 
z
M 1722 288 
L 4698 288 
L 4698 794 
L 1722 794 
L 1722 288 
z
" transform="scale(0.015625)"/>
       <path id="STHeiti-43" d="M 4838 4128 
L 4480 3853 
Q 3840 4646 2835 4646 
Q 2016 4646 1424 4070 
Q 832 3494 832 2659 
Q 832 1824 1411 1264 
Q 1990 704 2861 704 
Q 3834 704 4480 1459 
L 4838 1184 
Q 4499 736 3980 502 
Q 3462 269 2835 269 
Q 1741 269 1043 960 
Q 346 1651 346 2707 
Q 346 3360 669 3913 
Q 992 4467 1565 4780 
Q 2138 5094 2797 5094 
Q 3456 5094 3981 4844 
Q 4506 4595 4838 4128 
z
" transform="scale(0.015625)"/>
       <path id="STHeiti-6570" d="M 4640 480 
Q 4173 -51 3194 -467 
Q 3059 -237 2803 -26 
Q 3238 70 3673 323 
Q 4109 576 4365 890 
Q 3994 1549 3962 2835 
Q 3744 2458 3520 2176 
Q 3366 2419 3206 2522 
Q 3584 3040 3837 3747 
Q 4090 4454 4147 5171 
Q 4486 5062 4800 5037 
Q 4877 5030 4877 4988 
Q 4877 4947 4781 4896 
Q 4704 4858 4480 4128 
L 5216 4128 
Q 5747 4128 6003 4179 
L 6003 3661 
Q 5850 3680 5562 3699 
Q 5440 1773 4934 896 
Q 5254 518 6112 250 
Q 5856 6 5754 -365 
Q 4902 141 4640 480 
z
M 4627 1363 
Q 5018 2253 5088 3706 
L 4352 3706 
Q 4237 3328 3981 2874 
L 4384 2886 
Q 4384 1907 4627 1363 
z
M 1549 3526 
Q 1222 3520 589 3488 
L 589 3942 
Q 1158 3898 1850 3898 
L 1850 4499 
Q 1850 4800 1786 5165 
Q 2042 5139 2362 5139 
Q 2458 5139 2458 5094 
Q 2458 5050 2406 5030 
Q 2355 5011 2336 4976 
Q 2317 4941 2317 4845 
L 2317 3898 
Q 2758 3904 3507 3942 
L 3507 3488 
Q 2810 3526 2317 3533 
Q 2317 2970 2362 2515 
L 1805 2515 
Q 1850 3034 1850 3456 
Q 1632 3014 1401 2745 
Q 1171 2477 755 2189 
Q 608 2406 282 2573 
Q 1030 2816 1549 3526 
z
M 2861 4922 
Q 3155 4826 3386 4794 
Q 3462 4781 3462 4755 
Q 3462 4730 3388 4701 
Q 3315 4672 3228 4521 
Q 3142 4371 3014 4122 
Q 2835 4166 2560 4186 
Q 2746 4461 2861 4922 
z
M 1510 4230 
L 973 4154 
Q 966 4461 883 4806 
L 1389 4870 
Q 1459 4595 1510 4230 
z
M 3360 2790 
L 3046 2477 
Q 2765 2816 2464 3078 
L 2790 3328 
Q 3034 3117 3360 2790 
z
M 2899 755 
Q 3168 666 3450 525 
Q 3251 314 3168 128 
Q 2886 288 2637 390 
Q 2394 128 1984 -51 
Q 1574 -230 781 -410 
Q 627 -115 346 109 
Q 1619 134 2157 557 
Q 1709 691 1030 781 
Q 1248 1165 1408 1555 
Q 800 1549 531 1504 
L 531 1965 
Q 858 1939 1536 1926 
Q 1600 2118 1696 2458 
Q 1946 2355 2214 2336 
Q 2342 2323 2342 2294 
Q 2342 2266 2243 2198 
Q 2144 2131 2035 1926 
L 2899 1926 
Q 3162 1926 3341 1971 
Q 3123 1158 2899 755 
z
M 1862 1555 
L 1626 1043 
Q 2118 966 2470 883 
Q 2662 1165 2726 1555 
L 1862 1555 
z
" transform="scale(0.015625)"/>
       <path id="STHeiti-636e" d="M 1229 2176 
L 1229 3245 
Q 730 3245 448 3187 
L 448 3731 
Q 691 3680 1229 3680 
Q 1229 4454 1216 4681 
Q 1203 4909 1152 5114 
Q 1376 5069 1734 5069 
Q 1888 5069 1888 5021 
Q 1888 4973 1811 4915 
Q 1734 4858 1712 4810 
Q 1690 4762 1690 4678 
L 1690 3686 
Q 2016 3693 2208 3731 
L 2208 3187 
Q 1971 3232 1690 3238 
L 1690 2355 
Q 1971 2477 2240 2624 
Q 2234 2323 2310 2106 
Q 1990 2010 1690 1894 
L 1690 186 
Q 1690 -102 1635 -224 
Q 1581 -346 1395 -419 
Q 1210 -493 736 -576 
Q 723 -243 467 90 
Q 704 51 858 51 
Q 1229 51 1229 269 
L 1229 1696 
Q 794 1485 480 1242 
Q 454 1587 365 1920 
Q 838 2042 1229 2176 
z
M 4627 2214 
L 4627 1523 
Q 5510 1523 5722 1568 
Q 5683 1408 5683 1030 
L 5683 160 
Q 5683 -179 5728 -480 
L 5190 -480 
L 5190 -218 
L 3738 -218 
L 3738 -550 
L 3200 -550 
Q 3245 -307 3245 96 
L 3245 1030 
Q 3245 1357 3206 1568 
Q 3469 1530 4166 1523 
L 4166 2214 
Q 3494 2208 3098 2150 
L 3098 2669 
Q 3533 2618 4166 2611 
L 4166 3302 
L 3027 3302 
Q 3027 1690 2851 986 
Q 2675 282 2253 -474 
Q 2048 -307 1741 -282 
Q 2195 384 2368 1091 
Q 2541 1798 2541 2848 
Q 2541 3898 2496 4838 
Q 2778 4768 4067 4768 
Q 5357 4768 5741 4838 
Q 5696 4461 5696 4051 
Q 5696 3642 5741 3238 
Q 5434 3302 4627 3302 
L 4627 2611 
Q 5542 2611 6042 2669 
L 6042 2150 
Q 5574 2214 4627 2214 
z
M 3027 4378 
L 3027 3712 
L 5235 3712 
L 5235 4378 
L 3027 4378 
z
M 5190 205 
L 5190 1146 
L 3738 1146 
L 3738 205 
L 5190 205 
z
" transform="scale(0.015625)"/>
      </defs>
      <use xlink:href="#STHeiti-7ecf"/>
      <use xlink:href="#STHeiti-8425" transform="translate(99.999985 0)"/>
      <use xlink:href="#STHeiti-43" transform="translate(199.999969 0)"/>
      <use xlink:href="#STHeiti-46" transform="translate(281.299957 0)"/>
      <use xlink:href="#STHeiti-6570" transform="translate(329.799942 0)"/>
      <use xlink:href="#STHeiti-636e" transform="translate(429.799927 0)"/>
     </g>
    </g>
    <g id="line2d_26">
     <path d="M 624.311095 32.183438 
L 633.311095 32.183438 
L 642.311095 32.183438 
" style="fill: none; stroke: #d69e2e; stroke-width: 2; stroke-linecap: square"/>
     <g>
      <use xlink:href="#m4d8a0223de" x="633.311095" y="32.183438" style="fill: #d69e2e; stroke: #d69e2e"/>
     </g>
    </g>
    <g id="text_13">
     <!-- 来源 -->
     <g transform="translate(649.511095 35.333438) scale(0.09 -0.09)">
      <defs>
       <path id="STHeiti-6765" d="M 3546 1926 
L 3546 582 
Q 3546 -90 3597 -646 
L 2957 -646 
Q 3002 -160 3002 582 
L 3002 1926 
L 2938 1926 
Q 2630 1344 2076 749 
Q 1523 154 883 -294 
Q 691 -51 320 128 
Q 1664 800 2470 1926 
Q 1427 1920 538 1875 
L 538 2426 
Q 1427 2362 3002 2368 
L 3002 3898 
Q 1619 3898 838 3846 
L 838 4410 
Q 1555 4352 3002 4346 
Q 3002 5178 2970 5267 
Q 3091 5242 3235 5229 
Q 3379 5216 3469 5216 
L 3616 5222 
Q 3725 5222 3725 5174 
Q 3725 5126 3635 5046 
Q 3546 4966 3546 4787 
L 3546 4346 
Q 4819 4352 5747 4410 
L 5747 3846 
Q 4877 3898 3546 3898 
L 3546 2368 
Q 5152 2381 5971 2426 
L 5971 1875 
Q 5363 1914 3936 1926 
Q 4192 1357 4800 925 
Q 5408 493 6067 384 
Q 5869 122 5690 -301 
Q 4819 83 4345 553 
Q 3872 1024 3578 1926 
L 3546 1926 
z
M 4595 3699 
Q 4915 3552 5152 3482 
Q 5235 3456 5235 3430 
Q 5235 3405 5158 3353 
Q 5082 3302 4906 3062 
Q 4730 2822 4544 2496 
Q 4288 2694 4038 2726 
Q 4416 3181 4595 3699 
z
M 2298 2886 
L 1811 2547 
Q 1638 2918 1306 3296 
L 1734 3558 
Q 2042 3277 2298 2886 
z
" transform="scale(0.015625)"/>
       <path id="STHeiti-6e90" d="M 1894 4422 
L 1549 3936 
Q 1158 4314 691 4634 
L 1018 5075 
Q 1466 4781 1894 4422 
z
M 5926 4358 
Q 5754 4410 3994 4410 
L 2579 4410 
Q 2611 2272 2448 1385 
Q 2285 499 1677 -384 
Q 1530 -109 1306 -19 
Q 1709 486 1888 1209 
Q 2067 1933 2067 3488 
Q 2067 4045 2048 4890 
Q 2182 4858 3923 4858 
Q 5664 4858 5926 4890 
L 5926 4358 
z
M 3808 3744 
Q 3942 4109 3968 4397 
Q 4333 4243 4550 4192 
Q 4627 4173 4627 4153 
Q 4627 4134 4570 4102 
Q 4461 4038 4314 3744 
Q 5434 3744 5555 3763 
Q 5536 3558 5536 3002 
L 5536 2253 
Q 5536 1824 5562 1478 
Q 5491 1491 4467 1491 
L 4467 -32 
Q 4467 -250 4409 -352 
Q 4352 -454 4160 -512 
Q 3968 -570 3533 -614 
Q 3520 -301 3354 -51 
Q 3526 -70 3673 -70 
Q 3821 -70 3897 -12 
Q 3974 45 3974 269 
L 3974 1491 
Q 3091 1491 3014 1478 
Q 3040 1709 3040 2253 
L 3040 3002 
Q 3040 3533 3021 3763 
Q 3110 3750 3808 3744 
z
M 5050 2822 
L 5050 3354 
L 3520 3354 
L 3520 2822 
L 5050 2822 
z
M 5050 1875 
L 5050 2432 
L 3520 2432 
L 3520 1875 
L 5050 1875 
z
M 1645 2989 
L 1363 2483 
Q 992 2797 378 3117 
L 640 3565 
Q 1261 3238 1645 2989 
z
M 1517 1683 
Q 1440 1491 1229 691 
Q 1018 -109 947 -454 
Q 589 -218 339 -115 
Q 506 179 723 790 
Q 941 1402 1018 1978 
Q 1254 1773 1517 1683 
z
M 3053 1146 
Q 3405 986 3520 957 
Q 3635 928 3635 893 
Q 3635 858 3539 829 
Q 3443 800 3366 707 
Q 3290 614 3072 278 
Q 2854 -58 2733 -224 
Q 2522 -26 2298 64 
Q 2720 474 3053 1146 
z
M 6010 186 
L 5504 -128 
Q 5178 454 4787 864 
L 5222 1139 
Q 5555 698 6010 186 
z
" transform="scale(0.015625)"/>
      </defs>
      <use xlink:href="#STHeiti-6765"/>
      <use xlink:href="#STHeiti-6e90" transform="translate(99.999985 0)"/>
     </g>
    </g>
   </g>
  </g>
 </g>
 <defs>
  <clipPath id="p3ae7d6adc3">
   <rect x="62.439415" y="7.2" width="642.853398" height="293.510464"/>
  </clipPath>
 </defs>
</svg>
