<?xml version="1.0" encoding="utf-8" standalone="no"?>
<!DOCTYPE svg PUBLIC "-//W3C//DTD SVG 1.1//EN"
  "http://www.w3.org/Graphics/SVG/1.1/DTD/svg11.dtd">
<svg xmlns:xlink="http://www.w3.org/1999/xlink" width="708.843954pt" height="352.14917pt" viewBox="0 0 708.843954 352.14917" xmlns="http://www.w3.org/2000/svg" version="1.1">
 <metadata>
  <rdf:RDF xmlns:dc="http://purl.org/dc/elements/1.1/" xmlns:cc="http://creativecommons.org/ns#" xmlns:rdf="http://www.w3.org/1999/02/22-rdf-syntax-ns#">
   <cc:Work>
    <dc:type rdf:resource="http://purl.org/dc/dcmitype/StillImage"/>
    <dc:date>2026-06-05T08:52:37.955178</dc:date>
    <dc:format>image/svg+xml</dc:format>
    <dc:creator>
     <cc:Agent>
      <dc:title>Matplotlib v3.10.9, https://matplotlib.org/</dc:title>
     </cc:Agent>
    </dc:creator>
   </cc:Work>
  </rdf:RDF>
 </metadata>
 <defs>
  <style type="text/css">*{stroke-linejoin: round; stroke-linecap: butt}</style>
 </defs>
 <g id="figure_1">
  <g id="patch_1">
   <path d="M 0 352.14917 
L 708.843954 352.14917 
L 708.843954 0 
L 0 0 
z
" style="fill: #ffffff"/>
  </g>
  <g id="axes_1">
   <g id="patch_2">
    <path d="M 60.550835 273.169065 
L 701.643954 273.169065 
L 701.643954 7.2 
L 60.550835 7.2 
z
" style="fill: #fafafa"/>
   </g>
   <g id="matplotlib.axis_1">
    <g id="xtick_1">
     <g id="line2d_1">
      <path d="M 89.691431 273.169065 
L 89.691431 7.2 
" clip-path="url(#p67e382d3bd)" style="fill: none; stroke: #b0b0b0; stroke-opacity: 0.3; stroke-width: 0.8; stroke-linecap: square"/>
     </g>
     <g id="line2d_2">
      <defs>
       <path id="mf38179950f" d="M 0 0 
L 0 3.5 
" style="stroke: #000000; stroke-width: 0.8"/>
      </defs>
      <g>
       <use xlink:href="#mf38179950f" x="89.691431" y="273.169065" style="stroke: #000000; stroke-width: 0.8"/>
      </g>
     </g>
     <g id="text_1">
      <!-- 简单年化（Q1×4） -->
      <g transform="translate(11.260156 332.096774) rotate(-30) scale(0.1 -0.1)">
       <defs>
        <path id="STHeiti-7b80" d="M 4077 4205 
Q 3808 3693 3578 3379 
Q 3373 3552 3078 3565 
Q 3405 3898 3661 4429 
Q 3917 4960 3955 5306 
Q 4211 5178 4544 5120 
Q 4614 5107 4614 5078 
Q 4614 5050 4556 5024 
Q 4499 4998 4275 4582 
L 4781 4582 
Q 5690 4582 5869 4621 
L 5869 4166 
Q 5690 4205 4800 4205 
Q 4966 3808 5024 3552 
L 4576 3475 
Q 4550 3795 4384 4205 
L 4077 4205 
z
M 1459 4173 
Q 1088 3667 787 3334 
Q 614 3552 307 3622 
Q 653 3866 973 4317 
Q 1293 4768 1453 5229 
Q 1683 5114 2042 5024 
Q 2112 5011 2112 4988 
Q 2112 4966 2038 4931 
Q 1965 4896 1722 4544 
L 2291 4544 
Q 3014 4544 3181 4589 
L 3181 4128 
Q 3046 4173 2342 4173 
Q 2458 3872 2592 3546 
L 2131 3411 
Q 2074 3808 1920 4173 
L 1459 4173 
z
M 2189 2650 
L 1747 2438 
Q 1574 2874 1312 3213 
L 1734 3437 
Q 2042 2982 2189 2650 
z
M 5523 3270 
Q 5498 3162 5498 2522 
L 5498 -26 
Q 5498 -294 5443 -409 
Q 5389 -525 5197 -582 
Q 5005 -640 4544 -678 
Q 4493 -403 4256 -96 
Q 4499 -115 4684 -115 
Q 4870 -115 4931 -51 
Q 4992 13 4992 211 
L 4992 2816 
L 3347 2816 
Q 2989 2816 2528 2758 
L 2528 3270 
Q 3136 3232 4061 3232 
Q 4986 3232 5523 3270 
z
M 819 2573 
Q 979 2515 1344 2515 
Q 1446 2515 1446 2473 
Q 1446 2432 1395 2355 
Q 1344 2278 1344 2144 
L 1344 -666 
L 781 -666 
Q 845 -134 845 269 
L 845 1773 
Q 845 2266 819 2573 
z
M 4301 77 
Q 4090 109 3194 109 
Q 2298 109 2080 77 
Q 2106 192 2106 544 
L 2106 1824 
Q 2106 2176 2080 2285 
Q 2298 2253 3194 2253 
Q 4090 2253 4301 2285 
Q 4275 2106 4275 1824 
L 4275 544 
Q 4275 269 4301 77 
z
M 3840 1370 
L 3840 1869 
L 2534 1869 
L 2534 1370 
L 3840 1370 
z
M 3840 499 
L 3840 1005 
L 2534 1005 
L 2534 499 
L 3840 499 
z
" transform="scale(0.015625)"/>
        <path id="STHeiti-5355" d="M 3456 954 
Q 5050 954 5971 1011 
L 5971 461 
Q 5050 518 3456 518 
Q 3456 -173 3501 -704 
L 2893 -704 
Q 2938 -275 2938 518 
Q 1344 518 429 461 
L 429 1011 
Q 1344 954 2938 954 
L 2938 1466 
Q 1741 1472 1094 1453 
Q 1120 1664 1120 1971 
L 1120 3462 
Q 1120 3872 1101 4013 
Q 1933 3981 3565 3981 
Q 4051 4909 4122 5254 
Q 4518 5062 4800 5018 
Q 4890 5005 4890 4944 
Q 4890 4883 4819 4864 
Q 4646 4826 4051 3981 
Q 4800 3981 5299 4013 
Q 5286 3872 5286 3475 
L 5286 1997 
Q 5286 1677 5306 1446 
Q 4742 1472 3456 1466 
L 3456 954 
z
M 2938 2925 
L 2938 3571 
L 1651 3571 
L 1651 2925 
L 2938 2925 
z
M 3456 3571 
L 3456 2925 
L 4787 2925 
L 4787 3571 
L 3456 3571 
z
M 3456 2534 
L 3456 1875 
L 4787 1875 
L 4787 2534 
L 3456 2534 
z
M 2938 1875 
L 2938 2534 
L 1651 2534 
L 1651 1875 
L 2938 1875 
z
M 2880 4448 
L 2387 4077 
Q 2054 4570 1734 4890 
L 2150 5197 
Q 2509 4774 2880 4448 
z
" transform="scale(0.015625)"/>
        <path id="STHeiti-5e74" d="M 2125 4346 
L 3738 4346 
Q 5107 4346 5696 4397 
L 5696 3827 
Q 5088 3878 3770 3878 
L 3770 2886 
Q 4819 2893 5395 2938 
L 5395 2406 
Q 4602 2451 3770 2458 
L 3770 1338 
Q 5658 1338 6080 1395 
L 6080 819 
Q 5709 870 3770 877 
Q 3770 -26 3821 -704 
L 3174 -704 
Q 3226 -19 3226 877 
Q 973 877 371 819 
L 371 1395 
Q 730 1357 1466 1344 
L 1466 2349 
Q 1466 2682 1421 2938 
Q 2093 2886 3226 2886 
L 3226 3878 
L 1862 3878 
Q 1510 3277 1120 2803 
Q 922 2938 563 3040 
Q 973 3430 1341 4028 
Q 1709 4627 1907 5216 
Q 2234 5088 2426 5043 
Q 2618 4998 2618 4966 
Q 2618 4934 2522 4886 
Q 2426 4838 2125 4346 
z
M 3226 2458 
L 1984 2458 
L 1984 1338 
L 3226 1338 
L 3226 2458 
z
" transform="scale(0.015625)"/>
        <path id="STHeiti-5316" d="M 1293 2912 
Q 1011 2464 730 2086 
Q 589 2336 314 2528 
Q 781 2912 1177 3696 
Q 1574 4480 1683 5274 
Q 2003 5120 2236 5072 
Q 2470 5024 2470 4963 
Q 2470 4902 2362 4845 
Q 2317 4819 2214 4636 
Q 2112 4454 1824 3859 
L 1824 -531 
L 1222 -531 
Q 1293 -6 1293 499 
L 1293 2912 
z
M 3283 1395 
Q 2995 1178 2534 858 
Q 2374 1139 2054 1312 
Q 2579 1485 3283 2035 
L 3283 4422 
Q 3283 4992 3232 5229 
Q 3584 5152 3917 5152 
Q 4019 5152 4019 5104 
Q 4019 5056 3964 5017 
Q 3910 4979 3868 4889 
Q 3827 4800 3827 4736 
L 3827 2522 
Q 4570 3245 5158 4307 
Q 5472 4045 5766 3891 
Q 5837 3853 5837 3817 
Q 5837 3782 5766 3772 
Q 5696 3763 5536 3625 
Q 5376 3488 5280 3366 
Q 4518 2445 3827 1843 
L 3827 448 
Q 3827 275 3868 201 
Q 3910 128 4048 105 
Q 4186 83 4544 83 
Q 4902 83 5065 134 
Q 5229 186 5315 371 
Q 5402 557 5472 1005 
Q 5709 685 6080 576 
Q 5882 -83 5754 -204 
Q 5626 -326 5437 -377 
Q 5248 -429 4589 -429 
Q 3930 -429 3680 -381 
Q 3430 -333 3356 -208 
Q 3283 -83 3283 198 
L 3283 1395 
z
" transform="scale(0.015625)"/>
        <path id="STHeiti-ff08" d="M 5651 -749 
L 5274 -749 
Q 4646 173 4409 835 
Q 4173 1498 4173 2266 
Q 4173 3034 4432 3750 
Q 4691 4467 5254 5267 
L 5645 5267 
Q 5082 4237 4928 3606 
Q 4774 2976 4774 2093 
Q 4774 1472 4953 861 
Q 5133 250 5651 -749 
z
" transform="scale(0.015625)"/>
        <path id="STHeiti-51" d="M 4416 883 
L 5094 19 
L 4531 19 
L 4064 614 
Q 3494 269 2822 269 
Q 1779 269 1072 963 
Q 365 1658 365 2662 
Q 365 3693 1049 4393 
Q 1734 5094 2784 5094 
Q 3443 5094 4003 4774 
Q 4563 4454 4883 3897 
Q 5203 3341 5203 2682 
Q 5203 1626 4416 883 
z
M 4134 1242 
Q 4730 1830 4730 2668 
Q 4730 3507 4154 4076 
Q 3578 4646 2778 4646 
Q 1978 4646 1411 4070 
Q 845 3494 845 2659 
Q 845 1824 1421 1270 
Q 1997 717 2790 717 
Q 3322 717 3776 979 
L 2752 2278 
L 3309 2278 
L 4134 1242 
z
" transform="scale(0.015625)"/>
        <path id="STHeiti-31" d="M 1184 4979 
L 2086 4979 
L 2086 384 
L 1632 384 
L 1632 4531 
L 909 4531 
L 1184 4979 
z
" transform="scale(0.015625)"/>
        <path id="STHeiti-d7" d="M 5133 3866 
L 3469 2202 
L 5126 544 
L 4806 224 
L 3149 1882 
L 1491 224 
L 1165 544 
L 2829 2202 
L 1165 3866 
L 1485 4186 
L 3149 2522 
L 4813 4186 
L 5133 3866 
z
" transform="scale(0.015625)"/>
        <path id="STHeiti-34" d="M 2726 5094 
L 2816 5094 
L 2816 1894 
L 3373 1894 
L 3373 1453 
L 2816 1453 
L 2816 384 
L 2362 384 
L 2362 1453 
L 160 1453 
L 2726 5094 
z
M 2362 1894 
L 2362 3808 
L 1005 1894 
L 2362 1894 
z
" transform="scale(0.015625)"/>
        <path id="STHeiti-ff09" d="M 1120 5267 
Q 1747 4346 1984 3683 
Q 2221 3021 2221 2253 
Q 2221 1485 1961 768 
Q 1702 51 1139 -749 
L 749 -749 
Q 1312 282 1465 912 
Q 1619 1542 1619 2426 
Q 1619 3046 1440 3657 
Q 1261 4269 742 5267 
L 1120 5267 
z
" transform="scale(0.015625)"/>
       </defs>
       <use xlink:href="#STHeiti-7b80"/>
       <use xlink:href="#STHeiti-5355" transform="translate(99.999985 0)"/>
       <use xlink:href="#STHeiti-5e74" transform="translate(199.999969 0)"/>
       <use xlink:href="#STHeiti-5316" transform="translate(299.999954 0)"/>
       <use xlink:href="#STHeiti-ff08" transform="translate(399.999939 0)"/>
       <use xlink:href="#STHeiti-51" transform="translate(499.999924 0)"/>
       <use xlink:href="#STHeiti-31" transform="translate(587.099915 0)"/>
       <use xlink:href="#STHeiti-d7" transform="translate(642.499908 0)"/>
       <use xlink:href="#STHeiti-34" transform="translate(742.499893 0)"/>
       <use xlink:href="#STHeiti-ff09" transform="translate(797.899887 0)"/>
      </g>
     </g>
    </g>
    <g id="xtick_2">
     <g id="line2d_3">
      <path d="M 381.097394 273.169065 
L 381.097394 7.2 
" clip-path="url(#p67e382d3bd)" style="fill: none; stroke: #b0b0b0; stroke-opacity: 0.3; stroke-width: 0.8; stroke-linecap: square"/>
     </g>
     <g id="line2d_4">
      <g>
       <use xlink:href="#mf38179950f" x="381.097394" y="273.169065" style="stroke: #000000; stroke-width: 0.8"/>
      </g>
     </g>
     <g id="text_2">
      <!-- 经季节性调整 -->
      <g transform="translate(328.465558 317.062086) rotate(-30) scale(0.1 -0.1)">
       <defs>
        <path id="STHeiti-7ecf" d="M 1587 2765 
Q 819 2643 499 2554 
Q 442 2842 320 3059 
Q 518 3130 880 3898 
Q 1242 4666 1306 5114 
Q 1434 5030 1674 4944 
Q 1914 4858 2010 4845 
Q 2106 4832 2106 4806 
Q 2106 4781 2038 4755 
Q 1971 4730 1894 4643 
Q 1818 4557 1760 4454 
Q 1382 3795 909 3078 
L 1818 3174 
Q 2074 3686 2150 3917 
Q 2483 3725 2733 3654 
Q 2822 3622 2822 3596 
Q 2822 3571 2758 3546 
Q 2586 3469 2419 3213 
Q 1702 2086 1274 1517 
Q 1779 1594 2502 1645 
Q 2400 1427 2400 1139 
Q 1651 1152 736 960 
Q 717 1216 576 1504 
Q 774 1542 1014 1862 
Q 1254 2182 1587 2765 
z
M 4659 3507 
Q 5485 3085 6112 2605 
L 5728 2112 
Q 5210 2637 4320 3142 
Q 3763 2579 2982 2061 
Q 2784 2253 2413 2387 
Q 3725 2989 4602 4301 
L 3834 4301 
Q 3174 4301 2790 4256 
L 2790 4819 
Q 3309 4768 4102 4768 
Q 4896 4768 5549 4819 
Q 5197 4115 4659 3507 
z
M 4563 1395 
L 4563 90 
Q 5600 90 6054 141 
L 6054 -422 
Q 5645 -371 4317 -371 
Q 2989 -371 2579 -422 
L 2579 141 
Q 3046 90 4032 90 
L 4032 1395 
Q 3296 1382 2886 1338 
L 2886 1901 
Q 3386 1843 4339 1843 
Q 5293 1843 5696 1901 
L 5696 1338 
Q 5286 1382 4563 1395 
z
M 2458 640 
Q 2298 320 2317 32 
Q 1920 6 1376 -118 
Q 832 -243 544 -384 
Q 544 -64 397 320 
Q 794 320 1405 409 
Q 2016 499 2458 640 
z
" transform="scale(0.015625)"/>
        <path id="STHeiti-5b63" d="M 2963 4410 
L 1216 4275 
Q 1158 4538 986 4781 
Q 1261 4749 1577 4749 
Q 1894 4749 2707 4822 
Q 3520 4896 3881 4947 
Q 4243 4998 4838 5146 
Q 4947 4883 5158 4698 
Q 5210 4653 5210 4614 
Q 5210 4557 5120 4576 
Q 5082 4582 5024 4582 
Q 4845 4582 3450 4454 
L 3450 3859 
Q 4909 3859 5875 3910 
L 5875 3418 
Q 5357 3456 4038 3462 
Q 4749 2650 6125 2509 
Q 5907 2272 5811 1907 
Q 4179 2387 3565 3462 
L 3450 3462 
L 3450 3245 
Q 3450 2867 3469 2374 
L 2918 2374 
Q 2963 2861 2963 3245 
L 2963 3437 
Q 2278 2662 1875 2390 
Q 1472 2118 640 1734 
Q 499 1965 262 2202 
Q 1344 2330 2483 3462 
Q 986 3450 486 3418 
L 486 3910 
Q 1466 3859 2963 3859 
L 2963 4410 
z
M 3008 582 
Q 1357 582 614 525 
L 614 1075 
Q 1466 1011 3008 1011 
L 3008 1318 
L 3776 1677 
L 2688 1677 
Q 2067 1677 1606 1645 
L 1606 2099 
Q 1920 2074 3197 2074 
Q 4474 2074 4781 2099 
L 4787 1702 
Q 4538 1715 4275 1562 
L 3539 1139 
L 3539 1011 
Q 5030 1018 5850 1075 
L 5850 525 
Q 4986 582 3539 582 
L 3539 -83 
Q 3539 -307 3475 -412 
Q 3411 -518 3216 -569 
Q 3021 -621 2573 -646 
Q 2541 -352 2317 -58 
Q 2624 -102 2771 -102 
Q 2918 -102 2963 -41 
Q 3008 19 3008 192 
L 3008 582 
z
" transform="scale(0.015625)"/>
        <path id="STHeiti-8282" d="M 2624 4422 
L 3814 4422 
Q 3814 4986 3776 5178 
Q 4051 5139 4378 5139 
Q 4442 5139 4442 5107 
Q 4442 5075 4387 5043 
Q 4333 5011 4333 4915 
L 4333 4422 
Q 5536 4422 6093 4474 
L 6093 3910 
Q 5453 3968 4333 3968 
L 4333 3219 
L 3814 3219 
L 3814 3968 
L 2624 3968 
L 2624 3226 
L 2106 3226 
L 2106 3968 
Q 1011 3968 365 3910 
L 365 4474 
Q 819 4422 2106 4422 
Q 2093 4954 2067 5184 
Q 2342 5146 2669 5146 
Q 2733 5146 2733 5114 
Q 2733 5082 2678 5050 
Q 2624 5018 2624 4922 
L 2624 4422 
z
M 2912 2381 
L 2912 454 
Q 2912 0 2976 -646 
L 2310 -646 
Q 2374 0 2374 454 
L 2374 2381 
Q 1325 2381 845 2323 
L 845 2886 
Q 1306 2829 2941 2829 
Q 4576 2829 5254 2886 
L 5190 1094 
Q 5178 710 5114 566 
Q 5050 422 4832 352 
Q 4614 282 4006 186 
Q 3962 550 3789 826 
Q 4045 787 4237 787 
Q 4429 787 4547 867 
Q 4666 947 4672 1267 
L 4698 2381 
L 2912 2381 
z
" transform="scale(0.015625)"/>
        <path id="STHeiti-6027" d="M 3277 3379 
Q 3187 2970 3066 2637 
Q 2912 2694 2768 2694 
Q 2624 2694 2528 2675 
Q 2938 3469 2995 4742 
Q 3302 4608 3552 4595 
Q 3686 4589 3686 4547 
Q 3686 4506 3610 4461 
Q 3494 4403 3373 3859 
L 4096 3859 
L 4096 4422 
Q 4096 4941 4070 5178 
Q 4320 5139 4678 5139 
Q 4749 5139 4749 5101 
Q 4749 5075 4688 5024 
Q 4627 4973 4627 4838 
L 4627 3866 
Q 5363 3872 5914 3910 
L 5914 3334 
Q 5382 3379 4627 3379 
L 4627 2202 
Q 5306 2208 5760 2266 
L 5760 1683 
Q 5325 1747 4627 1754 
L 4627 237 
Q 5453 243 6048 301 
L 6048 -326 
Q 5434 -256 4240 -256 
Q 3046 -256 2362 -333 
L 2362 294 
Q 2918 237 4096 237 
L 4096 1754 
Q 3328 1747 2861 1683 
L 2861 2266 
Q 3360 2208 4096 2202 
L 4096 3379 
L 3277 3379 
z
M 1190 5088 
Q 1434 5043 1811 5043 
Q 1971 5043 1971 4985 
Q 1971 4928 1891 4877 
Q 1811 4826 1776 4733 
Q 1741 4640 1741 4550 
L 1741 467 
Q 1741 58 1798 -595 
L 1190 -595 
Q 1235 -77 1235 474 
L 1235 4230 
Q 1235 4666 1190 5088 
z
M 2618 3174 
L 2157 2970 
Q 2067 3405 1843 3750 
L 2266 3949 
Q 2483 3552 2618 3174 
z
M 922 3750 
Q 877 3072 858 2163 
L 269 2202 
Q 442 2822 442 3494 
Q 442 3629 435 3770 
L 922 3750 
z
" transform="scale(0.015625)"/>
        <path id="STHeiti-8c03" d="M 1786 4173 
L 1261 3859 
Q 1030 4384 749 4813 
L 1235 5088 
Q 1478 4698 1786 4173 
z
M 3750 3379 
Q 3347 3373 3110 3334 
L 3110 3789 
Q 3277 3763 3750 3750 
L 3750 4422 
L 2771 4422 
L 2771 2362 
Q 2771 1261 2716 877 
Q 2662 493 2547 214 
Q 2432 -64 2157 -525 
Q 1946 -365 1606 -301 
Q 1933 122 2067 416 
Q 2202 710 2243 1136 
Q 2285 1562 2285 2464 
L 2285 4890 
Q 3027 4832 4025 4832 
Q 5024 4832 5798 4890 
Q 5747 4499 5747 3578 
L 5747 58 
Q 5747 -224 5696 -333 
Q 5645 -442 5478 -490 
Q 5312 -538 4845 -595 
Q 4723 -262 4544 19 
Q 4800 0 4950 0 
Q 5101 0 5174 32 
Q 5248 64 5248 186 
L 5248 4422 
L 4224 4422 
L 4224 3750 
Q 4653 3763 4902 3789 
L 4902 3334 
Q 4678 3366 4224 3379 
L 4224 2726 
Q 4704 2739 4992 2765 
L 4992 2323 
Q 4531 2362 4006 2362 
Q 3482 2362 3021 2323 
L 3021 2765 
Q 3290 2739 3750 2726 
L 3750 3379 
z
M 2189 1062 
L 1504 109 
Q 1421 -13 1318 -147 
Q 1216 -282 1178 -352 
Q 966 -51 787 122 
Q 890 218 957 381 
Q 1024 544 1024 672 
L 1024 2803 
Q 595 2803 294 2771 
L 294 3354 
Q 634 3315 989 3315 
Q 1344 3315 1594 3354 
Q 1530 3053 1530 2534 
L 1530 794 
Q 1843 1222 2035 1562 
Q 2125 1184 2189 1062 
z
M 4851 397 
Q 4538 429 4022 429 
Q 3507 429 3187 397 
Q 3213 710 3213 1123 
Q 3213 1536 3187 1926 
Q 3507 1894 4064 1894 
Q 4621 1894 4851 1926 
Q 4826 1555 4826 1116 
Q 4826 678 4851 397 
z
M 4378 806 
L 4378 1510 
L 3661 1510 
L 3661 806 
L 4378 806 
z
" transform="scale(0.015625)"/>
        <path id="STHeiti-6574" d="M 4659 2509 
Q 4307 2176 3712 1920 
Q 3616 2144 3398 2285 
Q 3994 2496 4352 2797 
Q 4096 3098 3949 3450 
L 4314 3603 
Q 4435 3302 4621 3078 
Q 4928 3482 5011 4051 
L 4224 4051 
Q 4038 3654 3738 3226 
Q 3571 3354 3386 3398 
Q 3974 4230 4090 5190 
Q 4416 5082 4627 5056 
Q 4704 5043 4704 5014 
Q 4704 4986 4621 4922 
Q 4563 4883 4390 4448 
L 5216 4448 
Q 5722 4448 5939 4486 
L 5939 4026 
Q 5766 4045 5485 4051 
Q 5325 3309 4941 2810 
Q 5318 2573 6042 2458 
Q 5824 2291 5734 1939 
Q 5101 2157 4659 2509 
z
M 1830 2810 
Q 1414 2054 762 1651 
Q 602 1856 365 1939 
Q 1075 2253 1472 2835 
Q 896 2835 698 2822 
Q 736 3027 736 3344 
Q 736 3661 698 3885 
Q 1088 3859 1830 3859 
L 1830 4250 
Q 986 4250 544 4205 
L 544 4653 
Q 979 4602 1830 4602 
Q 1830 5043 1786 5184 
Q 1971 5158 2106 5158 
L 2291 5165 
Q 2355 5165 2355 5139 
Q 2355 5114 2294 5050 
Q 2234 4986 2234 4602 
Q 2976 4602 3437 4640 
L 3437 4205 
Q 3008 4243 2234 4250 
L 2234 3859 
Q 2970 3859 3354 3885 
Q 3328 3597 3328 3334 
Q 3328 3072 3354 2810 
Q 2976 2835 2234 2835 
Q 2234 2291 2291 1939 
L 1773 1939 
Q 1830 2278 1830 2810 
z
M 2234 3558 
L 2234 3136 
L 2925 3136 
L 2925 3558 
L 2234 3558 
z
M 1830 3136 
L 1830 3558 
L 1126 3558 
L 1126 3136 
L 1830 3136 
z
M 3302 2227 
L 2989 1939 
Q 2720 2246 2374 2458 
L 2682 2707 
Q 3104 2394 3302 2227 
z
M 3424 595 
L 3424 77 
Q 4928 77 5914 128 
L 5914 -397 
Q 4870 -346 3225 -346 
Q 1581 -346 538 -397 
L 538 128 
L 1626 90 
L 1626 474 
Q 1626 877 1587 1088 
Q 1670 1056 2138 1056 
Q 2202 1056 2202 1030 
Q 2202 1005 2157 960 
Q 2080 883 2080 614 
L 2080 77 
L 2963 77 
L 2963 1402 
Q 1709 1389 1126 1350 
L 1126 1818 
Q 1824 1773 3133 1773 
Q 4442 1773 5331 1818 
L 5331 1350 
Q 4563 1402 3424 1402 
L 3424 966 
Q 4928 966 5222 992 
L 5222 563 
Q 4634 595 3424 595 
z
" transform="scale(0.015625)"/>
       </defs>
       <use xlink:href="#STHeiti-7ecf"/>
       <use xlink:href="#STHeiti-5b63" transform="translate(99.999985 0)"/>
       <use xlink:href="#STHeiti-8282" transform="translate(199.999969 0)"/>
       <use xlink:href="#STHeiti-6027" transform="translate(299.999954 0)"/>
       <use xlink:href="#STHeiti-8c03" transform="translate(399.999939 0)"/>
       <use xlink:href="#STHeiti-6574" transform="translate(499.999924 0)"/>
      </g>
     </g>
    </g>
    <g id="xtick_3">
     <g id="line2d_5">
      <path d="M 672.503358 273.169065 
L 672.503358 7.2 
" clip-path="url(#p67e382d3bd)" style="fill: none; stroke: #b0b0b0; stroke-opacity: 0.3; stroke-width: 0.8; stroke-linecap: square"/>
     </g>
     <g id="line2d_6">
      <g>
       <use xlink:href="#mf38179950f" x="672.503358" y="273.169065" style="stroke: #000000; stroke-width: 0.8"/>
      </g>
     </g>
     <g id="text_3">
      <!-- 管理层预测（202605版） -->
      <g transform="translate(573.761081 343.788155) rotate(-30) scale(0.1 -0.1)">
       <defs>
        <path id="STHeiti-7ba1" d="M 1472 4333 
Q 1286 4070 941 3674 
Q 774 3885 467 3974 
Q 1133 4416 1459 5280 
Q 1779 5107 2048 5043 
Q 2118 5030 2118 5008 
Q 2118 4986 2054 4960 
Q 1862 4864 1722 4685 
Q 2982 4685 3136 4755 
L 3136 4269 
Q 2886 4326 2310 4333 
Q 2413 4064 2477 3718 
L 1939 3654 
Q 1914 4051 1862 4333 
L 1472 4333 
z
M 4019 4326 
Q 3942 4179 3718 3878 
Q 3520 4083 3264 4154 
Q 3750 4525 3994 5267 
Q 4326 5114 4544 5056 
Q 4608 5043 4608 5020 
Q 4608 4998 4550 4973 
Q 4435 4915 4237 4672 
L 4602 4672 
Q 5568 4672 5933 4755 
L 5933 4275 
Q 5626 4320 4838 4326 
Q 4973 3962 5037 3693 
L 4506 3603 
Q 4474 3942 4378 4326 
L 4019 4326 
z
M 3021 3354 
Q 2950 3603 2874 3789 
L 3379 3885 
Q 3488 3629 3571 3354 
Q 5197 3354 5830 3405 
L 5830 2304 
L 5350 2304 
L 5350 2970 
L 954 2970 
L 954 2336 
L 486 2336 
L 486 3405 
Q 1120 3354 3021 3354 
z
M 4480 -198 
L 1894 -198 
Q 1901 -320 1926 -634 
L 1344 -634 
Q 1389 -288 1389 51 
L 1389 1946 
Q 1389 2342 1338 2669 
Q 1958 2618 3120 2618 
Q 4282 2618 4826 2669 
Q 4794 2387 4794 2083 
Q 4794 1779 4826 1408 
Q 4102 1446 2976 1446 
L 1888 1446 
L 1888 1011 
L 3136 1011 
Q 4365 1011 4998 1037 
Q 4973 909 4973 557 
L 4973 -147 
Q 4973 -314 4998 -608 
L 4480 -608 
L 4480 -198 
z
M 1888 1830 
L 4326 1830 
L 4326 2227 
L 1888 2227 
L 1888 1830 
z
M 1888 179 
L 4480 179 
L 4480 634 
L 1888 634 
L 1888 179 
z
" transform="scale(0.015625)"/>
        <path id="STHeiti-7406" d="M 4397 864 
L 4397 160 
Q 5389 166 6086 211 
L 6086 -333 
Q 5389 -275 4096 -275 
Q 2803 -275 2099 -333 
L 2099 211 
Q 2816 166 3910 160 
L 3910 864 
Q 3187 864 2682 800 
L 2682 1350 
Q 3174 1286 3910 1280 
L 3910 1920 
Q 2771 1914 2598 1882 
Q 2637 2630 2637 3443 
Q 2637 4256 2598 4864 
Q 2797 4813 4214 4813 
Q 5632 4813 5754 4864 
Q 5722 4352 5722 3549 
Q 5722 2746 5766 1882 
Q 5658 1920 4397 1920 
L 4397 1280 
Q 5210 1286 5702 1350 
L 5702 800 
Q 5261 858 4397 864 
z
M 3910 3590 
L 3910 4390 
L 3110 4390 
L 3110 3590 
L 3910 3590 
z
M 4397 4390 
L 4397 3590 
L 5229 3590 
L 5229 4390 
L 4397 4390 
z
M 4397 3187 
L 4397 2336 
L 5229 2336 
L 5229 3187 
L 4397 3187 
z
M 3910 2336 
L 3910 3187 
L 3110 3187 
L 3110 2336 
L 3910 2336 
z
M 1171 4224 
Q 768 4218 429 4179 
L 429 4717 
Q 774 4678 1436 4678 
Q 2099 4678 2438 4717 
L 2438 4179 
Q 2131 4211 1670 4230 
L 1670 2861 
Q 2138 2874 2368 2906 
L 2368 2362 
Q 2035 2400 1670 2406 
L 1670 883 
Q 2035 1011 2368 1184 
Q 2342 979 2342 864 
Q 2342 749 2355 621 
Q 1184 269 448 -218 
Q 448 -45 400 182 
Q 352 410 275 563 
Q 710 595 1171 723 
L 1171 2406 
Q 685 2394 435 2362 
L 435 2906 
Q 742 2861 1171 2854 
L 1171 4224 
z
" transform="scale(0.015625)"/>
        <path id="STHeiti-5c42" d="M 5504 3315 
Q 5101 3360 3987 3360 
Q 2874 3360 1491 3328 
Q 1459 1811 1299 969 
Q 1139 128 774 -525 
Q 531 -224 282 -141 
Q 640 339 803 1129 
Q 966 1920 966 3171 
Q 966 4422 941 4915 
Q 1651 4864 3286 4864 
Q 4922 4864 5504 4915 
Q 5472 4518 5475 4112 
Q 5478 3706 5504 3315 
z
M 4966 3808 
L 4966 4416 
L 1491 4416 
L 1491 3808 
L 4966 3808 
z
M 5363 2381 
Q 4646 2432 3692 2432 
Q 2739 2432 2035 2374 
L 2035 2925 
Q 2701 2874 3725 2874 
Q 4749 2874 5363 2925 
L 5363 2381 
z
M 3078 1363 
Q 2035 1357 1568 1318 
L 1568 1856 
Q 2298 1811 3702 1811 
Q 5107 1811 5843 1856 
L 5843 1318 
Q 5158 1363 3782 1363 
Q 3360 864 2669 141 
L 4608 250 
Q 4282 685 3994 928 
L 4499 1178 
Q 4998 570 5696 -211 
L 5114 -531 
Q 5005 -326 4883 -147 
L 3264 -269 
Q 2522 -326 2029 -506 
Q 1933 -198 1734 141 
Q 1971 186 2134 288 
Q 2298 390 2598 729 
Q 2899 1069 3078 1363 
z
" transform="scale(0.015625)"/>
        <path id="STHeiti-9884" d="M 4064 4397 
Q 3354 4390 2995 4346 
L 2995 4902 
Q 3520 4845 4470 4845 
Q 5421 4845 5946 4902 
L 5946 4346 
Q 5427 4397 4640 4397 
Q 4544 4077 4422 3565 
Q 5344 3565 5722 3616 
Q 5683 3411 5683 2822 
L 5683 1677 
Q 5683 1216 5734 877 
L 5171 877 
L 5171 3149 
L 3526 3149 
L 3526 851 
L 2982 851 
Q 3040 1274 3040 1651 
L 3040 2822 
Q 3040 3347 3002 3616 
Q 3315 3571 3936 3565 
Q 4070 3994 4064 4397 
z
M 1818 2560 
L 1818 38 
Q 1818 -218 1648 -333 
Q 1478 -448 954 -506 
Q 928 -211 710 96 
Q 915 45 1043 45 
Q 1306 45 1306 294 
L 1306 2560 
Q 736 2554 435 2522 
L 435 3040 
Q 730 2995 1485 2995 
Q 1197 3418 800 3738 
L 1152 4038 
Q 1370 3834 1542 3642 
L 1990 4371 
Q 819 4371 576 4333 
L 576 4864 
Q 883 4813 1680 4813 
Q 2477 4813 2771 4864 
Q 2419 4326 1824 3347 
Q 1888 3283 2003 3155 
L 1811 2995 
Q 2547 3002 2874 3053 
L 2586 1818 
L 2093 1914 
L 2310 2560 
L 1818 2560 
z
M 4058 2778 
Q 4256 2733 4422 2729 
Q 4589 2726 4659 2726 
Q 4730 2726 4730 2707 
Q 4730 2688 4698 2656 
Q 4666 2624 4627 2486 
Q 4589 2349 4582 2253 
Q 4531 1158 4390 774 
Q 4250 390 3856 60 
Q 3462 -269 2720 -582 
Q 2560 -352 2259 -115 
Q 2752 13 3097 182 
Q 3443 352 3651 566 
Q 3859 781 3936 1005 
Q 4013 1229 4045 1613 
Q 4077 1997 4077 2256 
Q 4077 2515 4058 2778 
z
M 6022 -102 
L 5645 -582 
Q 4998 109 4467 480 
L 4800 902 
Q 5498 352 6022 -102 
z
" transform="scale(0.015625)"/>
        <path id="STHeiti-6d4b" d="M 5254 5158 
Q 5370 5126 5766 5126 
Q 5862 5126 5862 5078 
Q 5862 5030 5801 4985 
Q 5741 4941 5741 4800 
L 5741 141 
Q 5741 -147 5693 -262 
Q 5645 -378 5462 -448 
Q 5280 -518 4794 -608 
Q 4736 -282 4538 51 
Q 4768 26 4950 26 
Q 5133 26 5219 102 
Q 5306 179 5306 435 
L 5306 4166 
Q 5306 4723 5254 5158 
z
M 1664 4525 
L 1338 4077 
Q 992 4403 544 4646 
L 845 5037 
Q 1267 4794 1664 4525 
z
M 3974 1235 
L 3482 1235 
L 3482 4282 
L 2227 4282 
L 2227 1152 
L 1741 1152 
Q 1792 1619 1792 2163 
L 1792 3834 
Q 1792 4288 1754 4794 
Q 2022 4723 2832 4723 
Q 3642 4723 3962 4794 
Q 3923 4352 3923 3834 
L 3923 2195 
Q 3923 1715 3974 1235 
z
M 4813 1005 
L 4269 1005 
Q 4333 1491 4333 1990 
L 4333 3584 
Q 4333 4006 4262 4499 
Q 4403 4467 4570 4467 
L 4806 4480 
Q 4851 4480 4851 4448 
Q 4851 4416 4809 4377 
Q 4768 4339 4768 4186 
L 4768 1997 
Q 4768 1530 4813 1005 
z
M 2605 3789 
Q 2739 3757 2944 3757 
L 3110 3770 
Q 3168 3770 3168 3731 
Q 3168 3693 3123 3638 
Q 3078 3584 3078 2854 
Q 3078 2125 3046 1680 
Q 3014 1235 2921 931 
Q 2829 627 2595 272 
Q 2362 -83 1958 -486 
Q 1741 -262 1427 -141 
Q 1965 230 2227 614 
Q 2490 998 2563 1408 
Q 2637 1818 2637 2362 
Q 2637 2906 2605 3789 
z
M 1510 2976 
L 1210 2464 
Q 832 2752 307 2976 
L 602 3469 
Q 1152 3181 1510 2976 
z
M 1485 1632 
L 1190 538 
Q 1030 -45 934 -538 
Q 685 -339 346 -192 
Q 819 659 1043 1875 
Q 1210 1690 1485 1632 
z
M 4346 166 
L 3949 -230 
Q 3482 435 3072 749 
L 3418 1094 
Q 3962 634 4346 166 
z
" transform="scale(0.015625)"/>
        <path id="STHeiti-32" d="M 742 3539 
L 301 3539 
Q 333 4243 768 4668 
Q 1203 5094 1820 5094 
Q 2438 5094 2844 4694 
Q 3251 4294 3251 3718 
Q 3251 3290 3024 2925 
Q 2797 2560 2336 2061 
L 1190 826 
L 3315 826 
L 3315 384 
L 192 384 
L 1946 2278 
Q 2406 2778 2604 3066 
Q 2803 3354 2803 3725 
Q 2803 4096 2512 4377 
Q 2221 4659 1789 4659 
Q 1357 4659 1072 4368 
Q 787 4077 742 3539 
z
" transform="scale(0.015625)"/>
        <path id="STHeiti-30" d="M 1747 269 
Q 1005 269 605 880 
Q 205 1491 205 2681 
Q 205 3872 605 4483 
Q 1005 5094 1741 5094 
Q 2477 5094 2909 4470 
Q 3341 3846 3341 2681 
Q 3341 1517 2905 893 
Q 2470 269 1747 269 
z
M 1760 4659 
Q 1229 4659 934 4147 
Q 640 3635 640 2669 
Q 640 685 1760 685 
Q 2304 685 2608 1206 
Q 2912 1728 2912 2681 
Q 2912 3635 2598 4147 
Q 2285 4659 1760 4659 
z
" transform="scale(0.015625)"/>
        <path id="STHeiti-36" d="M 2349 5094 
L 2726 4851 
L 1485 2970 
Q 1747 3059 1984 3059 
Q 2496 3059 2880 2652 
Q 3264 2246 3264 1660 
Q 3264 1075 2845 672 
Q 2426 269 1827 269 
Q 1229 269 829 678 
Q 429 1088 429 1677 
Q 429 1958 537 2256 
Q 646 2554 954 3014 
L 2349 5094 
z
M 2810 1683 
Q 2810 2086 2528 2368 
Q 2246 2650 1843 2650 
Q 1440 2650 1158 2368 
Q 877 2086 877 1683 
Q 877 1280 1161 998 
Q 1446 717 1843 717 
Q 2240 717 2525 998 
Q 2810 1280 2810 1683 
z
" transform="scale(0.015625)"/>
        <path id="STHeiti-35" d="M 3149 4979 
L 3149 4544 
L 1510 4544 
L 1280 3290 
Q 1587 3379 1856 3379 
Q 2458 3379 2861 2953 
Q 3264 2528 3264 1862 
Q 3264 1197 2825 733 
Q 2387 269 1664 269 
Q 1114 269 726 598 
Q 339 928 262 1498 
L 730 1498 
Q 813 1114 1075 909 
Q 1338 704 1683 704 
Q 2138 704 2467 1043 
Q 2797 1382 2797 1888 
Q 2797 2349 2509 2646 
Q 2221 2944 1757 2944 
Q 1293 2944 730 2701 
L 1158 4979 
L 3149 4979 
z
" transform="scale(0.015625)"/>
        <path id="STHeiti-7248" d="M 1190 2880 
Q 1190 2349 1184 2150 
L 1914 2150 
Q 2202 2150 2381 2176 
Q 2355 2061 2355 1760 
L 2355 838 
Q 2355 416 2381 90 
L 1850 90 
Q 1888 378 1888 838 
L 1888 1779 
L 1171 1779 
Q 1146 1062 1059 556 
Q 973 51 730 -582 
Q 570 -384 326 -230 
Q 621 544 672 1309 
Q 723 2074 723 3197 
Q 723 4320 698 4730 
Q 896 4698 1056 4698 
L 1229 4704 
Q 1293 4704 1293 4678 
Q 1293 4653 1261 4614 
Q 1190 4518 1190 3309 
L 1798 3309 
L 1798 4378 
Q 1798 4870 1779 5114 
Q 2086 5056 2342 5056 
Q 2432 5056 2432 5014 
Q 2432 4973 2387 4947 
Q 2266 4877 2266 4723 
L 2266 3309 
Q 2560 3309 2746 3341 
L 2746 2848 
Q 2573 2880 2118 2880 
L 1190 2880 
z
M 3635 3053 
L 3450 3053 
Q 3437 1658 3296 931 
Q 3155 205 2656 -557 
Q 2477 -390 2163 -326 
Q 2720 294 2848 1222 
Q 2976 2150 2976 3520 
Q 2976 4294 2925 4698 
Q 3693 4691 4419 4780 
Q 5146 4870 5581 5030 
Q 5626 4870 5712 4707 
Q 5798 4544 5859 4483 
Q 5920 4422 5920 4393 
Q 5920 4365 5885 4365 
Q 5850 4365 5818 4371 
Q 5741 4390 5517 4390 
Q 5293 4390 5005 4352 
Q 4179 4243 3450 4250 
L 3450 3462 
L 4730 3462 
Q 5402 3462 5741 3520 
Q 5446 1472 4941 717 
Q 5523 166 6195 58 
Q 5965 -205 5875 -544 
Q 5107 -173 4646 339 
Q 4186 -160 3590 -576 
Q 3488 -371 3174 -173 
Q 3846 134 4339 698 
Q 3808 1677 3635 3053 
z
M 4096 3053 
Q 4134 2522 4281 1971 
Q 4429 1421 4621 1075 
Q 4992 1728 5152 3053 
L 4096 3053 
z
" transform="scale(0.015625)"/>
       </defs>
       <use xlink:href="#STHeiti-7ba1"/>
       <use xlink:href="#STHeiti-7406" transform="translate(99.999985 0)"/>
       <use xlink:href="#STHeiti-5c42" transform="translate(199.999969 0)"/>
       <use xlink:href="#STHeiti-9884" transform="translate(299.999954 0)"/>
       <use xlink:href="#STHeiti-6d4b" transform="translate(399.999939 0)"/>
       <use xlink:href="#STHeiti-ff08" transform="translate(499.999924 0)"/>
       <use xlink:href="#STHeiti-32" transform="translate(599.999908 0)"/>
       <use xlink:href="#STHeiti-30" transform="translate(655.399902 0)"/>
       <use xlink:href="#STHeiti-32" transform="translate(710.799896 0)"/>
       <use xlink:href="#STHeiti-36" transform="translate(766.19989 0)"/>
       <use xlink:href="#STHeiti-30" transform="translate(821.599884 0)"/>
       <use xlink:href="#STHeiti-35" transform="translate(876.999878 0)"/>
       <use xlink:href="#STHeiti-7248" transform="translate(932.399872 0)"/>
       <use xlink:href="#STHeiti-ff09" transform="translate(1032.399857 0)"/>
      </g>
     </g>
    </g>
   </g>
   <g id="matplotlib.axis_2">
    <g id="ytick_1">
     <g id="line2d_7">
      <path d="M 60.550835 261.176053 
L 701.643954 261.176053 
" clip-path="url(#p67e382d3bd)" style="fill: none; stroke: #b0b0b0; stroke-opacity: 0.3; stroke-width: 0.8; stroke-linecap: square"/>
     </g>
     <g id="line2d_8">
      <defs>
       <path id="m019c145867" d="M 0 0 
L -3.5 0 
" style="stroke: #000000; stroke-width: 0.8"/>
      </defs>
      <g>
       <use xlink:href="#m019c145867" x="60.550835" y="261.176053" style="stroke: #000000; stroke-width: 0.8"/>
      </g>
     </g>
     <g id="text_4">
      <!-- 0 -->
      <g transform="translate(48.01021 265.15574) scale(0.1 -0.1)">
       <use xlink:href="#STHeiti-30"/>
      </g>
     </g>
    </g>
    <g id="ytick_2">
     <g id="line2d_9">
      <path d="M 60.550835 231.209929 
L 701.643954 231.209929 
" clip-path="url(#p67e382d3bd)" style="fill: none; stroke: #b0b0b0; stroke-opacity: 0.3; stroke-width: 0.8; stroke-linecap: square"/>
     </g>
     <g id="line2d_10">
      <g>
       <use xlink:href="#m019c145867" x="60.550835" y="231.209929" style="stroke: #000000; stroke-width: 0.8"/>
      </g>
     </g>
     <g id="text_5">
      <!-- 500 -->
      <g transform="translate(36.92896 235.189617) scale(0.1 -0.1)">
       <use xlink:href="#STHeiti-35"/>
       <use xlink:href="#STHeiti-30" transform="translate(55.399994 0)"/>
       <use xlink:href="#STHeiti-30" transform="translate(110.799988 0)"/>
      </g>
     </g>
    </g>
    <g id="ytick_3">
     <g id="line2d_11">
      <path d="M 60.550835 201.243806 
L 701.643954 201.243806 
" clip-path="url(#p67e382d3bd)" style="fill: none; stroke: #b0b0b0; stroke-opacity: 0.3; stroke-width: 0.8; stroke-linecap: square"/>
     </g>
     <g id="line2d_12">
      <g>
       <use xlink:href="#m019c145867" x="60.550835" y="201.243806" style="stroke: #000000; stroke-width: 0.8"/>
      </g>
     </g>
     <g id="text_6">
      <!-- 1000 -->
      <g transform="translate(31.388335 205.223493) scale(0.1 -0.1)">
       <use xlink:href="#STHeiti-31"/>
       <use xlink:href="#STHeiti-30" transform="translate(55.399994 0)"/>
       <use xlink:href="#STHeiti-30" transform="translate(110.799988 0)"/>
       <use xlink:href="#STHeiti-30" transform="translate(166.199982 0)"/>
      </g>
     </g>
    </g>
    <g id="ytick_4">
     <g id="line2d_13">
      <path d="M 60.550835 171.277682 
L 701.643954 171.277682 
" clip-path="url(#p67e382d3bd)" style="fill: none; stroke: #b0b0b0; stroke-opacity: 0.3; stroke-width: 0.8; stroke-linecap: square"/>
     </g>
     <g id="line2d_14">
      <g>
       <use xlink:href="#m019c145867" x="60.550835" y="171.277682" style="stroke: #000000; stroke-width: 0.8"/>
      </g>
     </g>
     <g id="text_7">
      <!-- 1500 -->
      <g transform="translate(31.388335 175.25737) scale(0.1 -0.1)">
       <use xlink:href="#STHeiti-31"/>
       <use xlink:href="#STHeiti-35" transform="translate(55.399994 0)"/>
       <use xlink:href="#STHeiti-30" transform="translate(110.799988 0)"/>
       <use xlink:href="#STHeiti-30" transform="translate(166.199982 0)"/>
      </g>
     </g>
    </g>
    <g id="ytick_5">
     <g id="line2d_15">
      <path d="M 60.550835 141.311558 
L 701.643954 141.311558 
" clip-path="url(#p67e382d3bd)" style="fill: none; stroke: #b0b0b0; stroke-opacity: 0.3; stroke-width: 0.8; stroke-linecap: square"/>
     </g>
     <g id="line2d_16">
      <g>
       <use xlink:href="#m019c145867" x="60.550835" y="141.311558" style="stroke: #000000; stroke-width: 0.8"/>
      </g>
     </g>
     <g id="text_8">
      <!-- 2000 -->
      <g transform="translate(31.388335 145.291246) scale(0.1 -0.1)">
       <use xlink:href="#STHeiti-32"/>
       <use xlink:href="#STHeiti-30" transform="translate(55.399994 0)"/>
       <use xlink:href="#STHeiti-30" transform="translate(110.799988 0)"/>
       <use xlink:href="#STHeiti-30" transform="translate(166.199982 0)"/>
      </g>
     </g>
    </g>
    <g id="ytick_6">
     <g id="line2d_17">
      <path d="M 60.550835 111.345435 
L 701.643954 111.345435 
" clip-path="url(#p67e382d3bd)" style="fill: none; stroke: #b0b0b0; stroke-opacity: 0.3; stroke-width: 0.8; stroke-linecap: square"/>
     </g>
     <g id="line2d_18">
      <g>
       <use xlink:href="#m019c145867" x="60.550835" y="111.345435" style="stroke: #000000; stroke-width: 0.8"/>
      </g>
     </g>
     <g id="text_9">
      <!-- 2500 -->
      <g transform="translate(31.388335 115.325122) scale(0.1 -0.1)">
       <use xlink:href="#STHeiti-32"/>
       <use xlink:href="#STHeiti-35" transform="translate(55.399994 0)"/>
       <use xlink:href="#STHeiti-30" transform="translate(110.799988 0)"/>
       <use xlink:href="#STHeiti-30" transform="translate(166.199982 0)"/>
      </g>
     </g>
    </g>
    <g id="ytick_7">
     <g id="line2d_19">
      <path d="M 60.550835 81.379311 
L 701.643954 81.379311 
" clip-path="url(#p67e382d3bd)" style="fill: none; stroke: #b0b0b0; stroke-opacity: 0.3; stroke-width: 0.8; stroke-linecap: square"/>
     </g>
     <g id="line2d_20">
      <g>
       <use xlink:href="#m019c145867" x="60.550835" y="81.379311" style="stroke: #000000; stroke-width: 0.8"/>
      </g>
     </g>
     <g id="text_10">
      <!-- 3000 -->
      <g transform="translate(31.388335 85.358999) scale(0.1 -0.1)">
       <defs>
        <path id="STHeiti-33" d="M 845 3917 
L 378 3917 
Q 506 4486 867 4790 
Q 1229 5094 1750 5094 
Q 2272 5094 2659 4748 
Q 3046 4403 3046 3910 
Q 3046 3315 2458 2970 
Q 2861 2803 3081 2473 
Q 3302 2144 3302 1754 
Q 3302 1146 2857 707 
Q 2413 269 1734 269 
Q 1133 269 742 611 
Q 352 954 224 1613 
L 672 1613 
Q 794 1158 1046 937 
Q 1299 717 1760 717 
Q 2221 717 2534 1011 
Q 2848 1306 2848 1741 
Q 2848 2176 2502 2441 
Q 2157 2707 1498 2720 
L 1498 3142 
Q 1971 3142 2268 3360 
Q 2566 3578 2566 3901 
Q 2566 4224 2326 4438 
Q 2086 4653 1747 4653 
Q 1408 4653 1200 4470 
Q 992 4288 845 3917 
z
" transform="scale(0.015625)"/>
       </defs>
       <use xlink:href="#STHeiti-33"/>
       <use xlink:href="#STHeiti-30" transform="translate(55.399994 0)"/>
       <use xlink:href="#STHeiti-30" transform="translate(110.799988 0)"/>
       <use xlink:href="#STHeiti-30" transform="translate(166.199982 0)"/>
      </g>
     </g>
    </g>
    <g id="ytick_8">
     <g id="line2d_21">
      <path d="M 60.550835 51.413187 
L 701.643954 51.413187 
" clip-path="url(#p67e382d3bd)" style="fill: none; stroke: #b0b0b0; stroke-opacity: 0.3; stroke-width: 0.8; stroke-linecap: square"/>
     </g>
     <g id="line2d_22">
      <g>
       <use xlink:href="#m019c145867" x="60.550835" y="51.413187" style="stroke: #000000; stroke-width: 0.8"/>
      </g>
     </g>
     <g id="text_11">
      <!-- 3500 -->
      <g transform="translate(31.388335 55.392875) scale(0.1 -0.1)">
       <use xlink:href="#STHeiti-33"/>
       <use xlink:href="#STHeiti-35" transform="translate(55.399994 0)"/>
       <use xlink:href="#STHeiti-30" transform="translate(110.799988 0)"/>
       <use xlink:href="#STHeiti-30" transform="translate(166.199982 0)"/>
      </g>
     </g>
    </g>
    <g id="ytick_9">
     <g id="line2d_23">
      <path d="M 60.550835 21.447064 
L 701.643954 21.447064 
" clip-path="url(#p67e382d3bd)" style="fill: none; stroke: #b0b0b0; stroke-opacity: 0.3; stroke-width: 0.8; stroke-linecap: square"/>
     </g>
     <g id="line2d_24">
      <g>
       <use xlink:href="#m019c145867" x="60.550835" y="21.447064" style="stroke: #000000; stroke-width: 0.8"/>
      </g>
     </g>
     <g id="text_12">
      <!-- 4000 -->
      <g transform="translate(31.388335 25.426751) scale(0.1 -0.1)">
       <use xlink:href="#STHeiti-34"/>
       <use xlink:href="#STHeiti-30" transform="translate(55.399994 0)"/>
       <use xlink:href="#STHeiti-30" transform="translate(110.799988 0)"/>
       <use xlink:href="#STHeiti-30" transform="translate(166.199982 0)"/>
      </g>
     </g>
    </g>
   </g>
   <g id="line2d_25">
    <path d="M 89.691431 259.378085 
M 672.503358 258.313689 
" clip-path="url(#p67e382d3bd)" style="fill: none; stroke: #1a365d; stroke-width: 2; stroke-linecap: square"/>
    <defs>
     <path id="mf0818e40b0" d="M 0 3 
C 0.795609 3 1.55874 2.683901 2.12132 2.12132 
C 2.683901 1.55874 3 0.795609 3 0 
C 3 -0.795609 2.683901 -1.55874 2.12132 -2.12132 
C 1.55874 -2.683901 0.795609 -3 0 -3 
C -0.795609 -3 -1.55874 -2.683901 -2.12132 -2.12132 
C -2.683901 -1.55874 -3 -0.795609 -3 0 
C -3 0.795609 -2.683901 1.55874 -2.12132 2.12132 
C -1.55874 2.683901 -0.795609 3 0 3 
z
" style="stroke: #1a365d"/>
    </defs>
    <g clip-path="url(#p67e382d3bd)">
     <use xlink:href="#mf0818e40b0" x="89.691431" y="259.378085" style="fill: #1a365d; stroke: #1a365d"/>
     <use xlink:href="#mf0818e40b0" x="672.503358" y="258.313689" style="fill: #1a365d; stroke: #1a365d"/>
    </g>
   </g>
   <g id="line2d_26">
    <path d="M 89.691431 19.289503 
M 672.503358 261.079562 
" clip-path="url(#p67e382d3bd)" style="fill: none; stroke: #d69e2e; stroke-width: 2; stroke-linecap: square"/>
    <defs>
     <path id="me9902a8bae" d="M 0 3 
C 0.795609 3 1.55874 2.683901 2.12132 2.12132 
C 2.683901 1.55874 3 0.795609 3 0 
C 3 -0.795609 2.683901 -1.55874 2.12132 -2.12132 
C 1.55874 -2.683901 0.795609 -3 0 -3 
C -0.795609 -3 -1.55874 -2.683901 -2.12132 -2.12132 
C -2.683901 -1.55874 -3 -0.795609 -3 0 
C -3 0.795609 -2.683901 1.55874 -2.12132 2.12132 
C -1.55874 2.683901 -0.795609 3 0 3 
z
" style="stroke: #d69e2e"/>
    </defs>
    <g clip-path="url(#p67e382d3bd)">
     <use xlink:href="#me9902a8bae" x="89.691431" y="19.289503" style="fill: #d69e2e; stroke: #d69e2e"/>
     <use xlink:href="#me9902a8bae" x="672.503358" y="261.079562" style="fill: #d69e2e; stroke: #d69e2e"/>
    </g>
   </g>
   <g id="patch_3">
    <path d="M 60.550835 273.169065 
L 60.550835 7.2 
" style="fill: none; stroke: #000000; stroke-width: 0.8; stroke-linejoin: miter; stroke-linecap: square"/>
   </g>
   <g id="patch_4">
    <path d="M 701.643954 273.169065 
L 701.643954 7.2 
" style="fill: none; stroke: #000000; stroke-width: 0.8; stroke-linejoin: miter; stroke-linecap: square"/>
   </g>
   <g id="patch_5">
    <path d="M 60.550835 273.169065 
L 701.643954 273.169065 
" style="fill: none; stroke: #000000; stroke-width: 0.8; stroke-linejoin: miter; stroke-linecap: square"/>
   </g>
   <g id="patch_6">
    <path d="M 60.550835 7.2 
L 701.643954 7.2 
" style="fill: none; stroke: #000000; stroke-width: 0.8; stroke-linejoin: miter; stroke-linecap: square"/>
   </g>
   <g id="legend_1">
    <g id="patch_7">
     <path d="M 612.543954 40.266562 
L 695.343954 40.266562 
Q 697.143954 40.266562 697.143954 38.466562 
L 697.143954 13.5 
Q 697.143954 11.7 695.343954 11.7 
L 612.543954 11.7 
Q 610.743954 11.7 610.743954 13.5 
L 610.743954 38.466562 
Q 610.743954 40.266562 612.543954 40.266562 
z
" style="fill: #ffffff; opacity: 0.8; stroke: #cccccc; stroke-linejoin: miter"/>
    </g>
    <g id="line2d_27">
     <path d="M 614.343954 19.35 
L 623.343954 19.35 
L 632.343954 19.35 
" style="fill: none; stroke: #1a365d; stroke-width: 2; stroke-linecap: square"/>
     <g>
      <use xlink:href="#mf0818e40b0" x="623.343954" y="19.35" style="fill: #1a365d; stroke: #1a365d"/>
     </g>
    </g>
    <g id="text_13">
     <!-- 营收年化 -->
     <g transform="translate(639.543954 22.5) scale(0.09 -0.09)">
      <defs>
       <path id="STHeiti-8425" d="M 4282 3693 
Q 5274 3706 5856 3731 
L 5856 2662 
L 5344 2662 
L 5344 3277 
L 1082 3277 
L 1082 2624 
L 570 2624 
L 570 3731 
Q 1082 3699 2106 3693 
L 2106 4218 
Q 1056 4205 467 4160 
L 467 4666 
Q 1133 4614 2106 4614 
Q 2099 4973 2054 5178 
Q 2387 5133 2650 5133 
Q 2733 5133 2733 5101 
Q 2733 5069 2681 5037 
Q 2630 5005 2617 4979 
Q 2605 4954 2605 4890 
L 2605 4614 
L 3782 4614 
Q 3776 4947 3738 5171 
Q 4019 5133 4326 5133 
Q 4410 5133 4410 5101 
Q 4410 5069 4358 5037 
Q 4307 5005 4294 4979 
Q 4282 4954 4282 4890 
L 4282 4614 
Q 5299 4614 5965 4666 
L 5965 4160 
Q 5344 4218 4282 4218 
L 4282 3693 
z
M 2605 3693 
L 3782 3693 
L 3782 4218 
L 2605 4218 
L 2605 3693 
z
M 4794 1568 
Q 4230 1587 3270 1587 
Q 2310 1587 1587 1562 
Q 1619 1773 1619 2176 
Q 1619 2579 1587 2874 
Q 2086 2848 3190 2848 
Q 4294 2848 4794 2874 
Q 4774 2611 4774 2217 
Q 4774 1824 4794 1568 
z
M 4269 1971 
L 4269 2464 
L 2118 2464 
L 2118 1971 
L 4269 1971 
z
M 4698 -109 
L 1722 -109 
L 1722 -576 
L 1152 -576 
Q 1197 -333 1197 -64 
L 1197 890 
Q 1197 1037 1158 1197 
Q 1350 1184 3235 1184 
Q 5120 1184 5280 1197 
Q 5248 1082 5248 890 
L 5248 0 
Q 5248 -269 5293 -512 
L 4698 -512 
L 4698 -109 
z
M 1722 288 
L 4698 288 
L 4698 794 
L 1722 794 
L 1722 288 
z
" transform="scale(0.015625)"/>
       <path id="STHeiti-6536" d="M 1824 1664 
L 1824 4230 
Q 1824 4998 1773 5190 
Q 2003 5146 2413 5146 
Q 2522 5146 2522 5107 
Q 2522 5069 2435 5017 
Q 2349 4966 2349 4544 
L 2349 563 
Q 2349 26 2413 -589 
L 1766 -589 
Q 1824 6 1824 563 
L 1824 1197 
L 1082 992 
Q 826 922 614 762 
Q 512 1030 352 1293 
Q 608 1440 608 1722 
L 608 3539 
Q 608 4115 582 4282 
Q 806 4243 973 4243 
L 1171 4250 
Q 1261 4250 1261 4211 
Q 1261 4173 1203 4141 
Q 1082 4083 1082 3968 
L 1082 1510 
L 1824 1664 
z
M 4224 1286 
Q 4685 1984 4781 3462 
L 3629 3462 
Q 3226 2547 2970 2157 
Q 2733 2317 2522 2387 
Q 2906 2918 3203 3712 
Q 3501 4506 3565 5146 
Q 3981 5005 4250 4966 
Q 4326 4954 4326 4922 
Q 4326 4890 4278 4851 
Q 4230 4813 4150 4653 
Q 4070 4493 3821 3917 
L 5120 3917 
Q 5747 3917 5971 3974 
L 5971 3424 
Q 5754 3462 5318 3462 
Q 5178 1722 4576 896 
Q 5178 365 6061 173 
Q 5734 -134 5664 -493 
Q 4845 -115 4237 518 
Q 3699 -115 2899 -499 
Q 2790 -262 2483 -64 
Q 3213 173 3898 883 
Q 3450 1466 3315 2675 
L 3744 2810 
Q 3814 1888 4224 1286 
z
" transform="scale(0.015625)"/>
      </defs>
      <use xlink:href="#STHeiti-8425"/>
      <use xlink:href="#STHeiti-6536" transform="translate(99.999985 0)"/>
      <use xlink:href="#STHeiti-5e74" transform="translate(199.999969 0)"/>
      <use xlink:href="#STHeiti-5316" transform="translate(299.999954 0)"/>
     </g>
    </g>
    <g id="line2d_28">
     <path d="M 614.343954 32.31 
L 623.343954 32.31 
L 632.343954 32.31 
" style="fill: none; stroke: #d69e2e; stroke-width: 2; stroke-linecap: square"/>
     <g>
      <use xlink:href="#me9902a8bae" x="623.343954" y="32.31" style="fill: #d69e2e; stroke: #d69e2e"/>
     </g>
    </g>
    <g id="text_14">
     <!-- 归母净利年化 -->
     <g transform="translate(639.543954 35.46) scale(0.09 -0.09)">
      <defs>
       <path id="STHeiti-5f52" d="M 1882 5242 
Q 2170 5146 2586 5146 
Q 2688 5146 2688 5098 
Q 2688 5050 2618 4998 
Q 2509 4928 2490 4288 
Q 2464 2573 2429 2003 
Q 2394 1434 2272 1011 
Q 2150 589 1833 173 
Q 1517 -243 960 -659 
Q 742 -326 454 -230 
Q 1018 122 1302 381 
Q 1587 640 1718 960 
Q 1850 1280 1894 1862 
Q 1939 2445 1939 3424 
Q 1939 5024 1882 5242 
z
M 5126 2611 
L 5126 4045 
Q 3136 4045 2816 3994 
L 2816 4602 
Q 3302 4531 4288 4531 
Q 5274 4531 5734 4608 
Q 5683 4250 5683 3603 
L 5683 742 
Q 5683 154 5741 -435 
L 5126 -435 
L 5126 128 
Q 2995 128 2637 70 
L 2637 672 
Q 3008 614 5126 614 
L 5126 2144 
Q 3526 2144 2957 2080 
L 2957 2675 
Q 3462 2611 5126 2611 
z
M 640 4378 
Q 928 4339 1293 4339 
Q 1382 4339 1382 4307 
Q 1382 4275 1308 4230 
Q 1235 4186 1235 3853 
L 1235 1043 
L 698 1043 
L 698 3347 
Q 698 4109 640 4378 
z
" transform="scale(0.015625)"/>
       <path id="STHeiti-6bcd" d="M 1254 2810 
L 1402 4877 
Q 2413 4832 3398 4832 
Q 4384 4832 5165 4896 
L 5120 2803 
Q 5574 2822 6048 2874 
L 6048 2227 
Q 5619 2272 5107 2285 
L 5082 883 
Q 5600 896 5850 947 
L 5850 326 
Q 5651 352 5069 352 
Q 5056 -141 4870 -323 
Q 4685 -506 4032 -640 
Q 4013 -314 3629 13 
Q 3949 -26 4147 -26 
Q 4346 -26 4426 57 
Q 4506 141 4512 358 
L 2765 358 
Q 1837 358 1082 288 
L 1222 2285 
Q 768 2272 365 2227 
L 365 2874 
Q 845 2816 1254 2810 
z
M 1798 2803 
L 4563 2803 
L 4589 4339 
L 1901 4339 
L 1798 2803 
z
M 2720 3782 
L 3245 4038 
Q 3430 3757 3693 3315 
L 3194 2963 
Q 2982 3418 2720 3782 
z
M 4550 2291 
L 1766 2291 
L 1677 870 
L 4525 870 
L 4550 2291 
z
M 2694 1798 
L 3219 2054 
Q 3462 1677 3674 1274 
L 3142 1011 
Q 3008 1427 2694 1798 
z
" transform="scale(0.015625)"/>
       <path id="STHeiti-51c0" d="M 5510 2010 
L 5510 1325 
Q 5510 781 5549 550 
L 4986 550 
L 4986 934 
L 3878 934 
L 3878 -147 
Q 3878 -339 3795 -441 
Q 3712 -544 3478 -601 
Q 3245 -659 2758 -710 
Q 2765 -384 2630 -90 
Q 2944 -115 3094 -115 
Q 3245 -115 3289 -70 
Q 3334 -26 3334 115 
L 3334 934 
Q 2163 934 1926 909 
L 1926 1389 
Q 2272 1357 3334 1357 
L 3334 2016 
Q 2490 2016 1754 1965 
L 1754 2496 
Q 2381 2451 3334 2451 
L 3334 3110 
Q 2771 3104 2387 3046 
L 2387 3533 
Q 2816 3514 3661 3514 
L 4205 4224 
L 2874 4224 
Q 2470 3680 1939 3046 
Q 1786 3200 1530 3270 
Q 2362 4109 2842 5306 
Q 3187 5184 3526 5133 
Q 3610 5120 3610 5078 
Q 3610 5037 3530 5014 
Q 3450 4992 3174 4634 
L 4058 4634 
Q 4659 4634 5101 4691 
L 4243 3514 
Q 5306 3520 5536 3558 
Q 5510 3251 5510 2675 
L 5510 2470 
L 6131 2509 
L 6131 1984 
Q 5920 1997 5510 2010 
z
M 4986 2451 
L 4986 3110 
L 3878 3110 
L 3878 2451 
L 4986 2451 
z
M 4986 1357 
L 4986 2016 
L 3878 2016 
L 3878 1357 
L 4986 1357 
z
M 1523 3693 
L 1011 3392 
Q 806 3942 448 4454 
L 909 4762 
Q 1325 4096 1523 3693 
z
M 1613 2080 
Q 1254 1242 819 -70 
Q 595 230 211 365 
Q 410 646 691 1299 
Q 973 1952 1088 2400 
Q 1293 2170 1613 2080 
z
" transform="scale(0.015625)"/>
       <path id="STHeiti-5229" d="M 4909 5165 
Q 5165 5107 5555 5107 
Q 5645 5107 5645 5065 
Q 5645 5024 5577 4976 
Q 5510 4928 5510 4768 
L 5510 198 
Q 5510 -90 5433 -227 
Q 5357 -365 5120 -445 
Q 4883 -525 4352 -595 
Q 4333 -275 4070 64 
Q 4269 51 4483 51 
Q 4698 51 4826 112 
Q 4954 173 4954 435 
L 4954 4109 
Q 4954 4826 4909 5165 
z
M 1658 2016 
Q 1325 1210 730 422 
Q 550 698 307 909 
Q 1267 1837 1594 2880 
Q 742 2867 410 2835 
L 410 3392 
Q 749 3354 1658 3341 
L 1658 4218 
Q 1120 4134 685 4096 
Q 621 4320 442 4576 
Q 864 4576 1561 4688 
Q 2259 4800 2912 5011 
Q 2970 4851 3072 4697 
Q 3174 4544 3244 4489 
Q 3315 4435 3315 4403 
Q 3315 4352 3244 4365 
Q 3174 4378 3091 4378 
Q 2778 4378 2182 4301 
L 2182 3341 
Q 3066 3354 3386 3392 
L 3386 2835 
Q 3040 2867 2182 2880 
L 2182 525 
Q 2182 90 2227 -576 
L 1587 -576 
Q 1658 128 1658 525 
L 1658 2016 
z
M 3725 4186 
Q 3968 4134 4326 4134 
Q 4403 4134 4403 4099 
Q 4403 4064 4345 4029 
Q 4288 3994 4288 3834 
L 4288 1766 
Q 4288 1357 4314 966 
L 3725 966 
Q 3750 1382 3750 1766 
L 3750 3482 
Q 3750 3968 3725 4186 
z
M 3322 1485 
L 2874 1165 
Q 2630 1613 2227 2176 
L 2605 2458 
Q 2957 1933 3322 1485 
z
" transform="scale(0.015625)"/>
      </defs>
      <use xlink:href="#STHeiti-5f52"/>
      <use xlink:href="#STHeiti-6bcd" transform="translate(99.999985 0)"/>
      <use xlink:href="#STHeiti-51c0" transform="translate(199.999969 0)"/>
      <use xlink:href="#STHeiti-5229" transform="translate(299.999954 0)"/>
      <use xlink:href="#STHeiti-5e74" transform="translate(399.999939 0)"/>
      <use xlink:href="#STHeiti-5316" transform="translate(499.999924 0)"/>
     </g>
    </g>
   </g>
  </g>
 </g>
 <defs>
  <clipPath id="p67e382d3bd">
   <rect x="60.550835" y="7.2" width="641.093119" height="265.969065"/>
  </clipPath>
 </defs>
</svg>
