<?xml version="1.0" encoding="utf-8" standalone="no"?>
<!DOCTYPE svg PUBLIC "-//W3C//DTD SVG 1.1//EN"
  "http://www.w3.org/Graphics/SVG/1.1/DTD/svg11.dtd">
<svg xmlns:xlink="http://www.w3.org/1999/xlink" width="711.208938pt" height="351.960887pt" viewBox="0 0 711.208938 351.960887" xmlns="http://www.w3.org/2000/svg" version="1.1">
 <metadata>
  <rdf:RDF xmlns:dc="http://purl.org/dc/elements/1.1/" xmlns:cc="http://creativecommons.org/ns#" xmlns:rdf="http://www.w3.org/1999/02/22-rdf-syntax-ns#">
   <cc:Work>
    <dc:type rdf:resource="http://purl.org/dc/dcmitype/StillImage"/>
    <dc:date>2026-06-05T15:21:53.511755</dc:date>
    <dc:format>image/svg+xml</dc:format>
    <dc:creator>
     <cc:Agent>
      <dc:title>Matplotlib v3.10.9, https://matplotlib.org/</dc:title>
     </cc:Agent>
    </dc:creator>
   </cc:Work>
  </rdf:RDF>
 </metadata>
 <defs>
  <style type="text/css">*{stroke-linejoin: round; stroke-linecap: butt}</style>
 </defs>
 <g id="figure_1">
  <g id="patch_1">
   <path d="M 0 351.960887 
L 711.208938 351.960887 
L 711.208938 0 
L 0 0 
z
" style="fill: #ffffff"/>
  </g>
  <g id="axes_1">
   <g id="patch_2">
    <path d="M 115.293035 254.470151 
L 704.008938 254.470151 
L 704.008938 11.179687 
L 115.293035 11.179687 
z
" style="fill: #fafafa"/>
   </g>
   <g id="matplotlib.axis_1">
    <g id="xtick_1">
     <g id="line2d_1">
      <path d="M 142.052849 254.470151 
L 142.052849 11.179687 
" clip-path="url(#p3a41530e04)" style="fill: none; stroke: #b0b0b0; stroke-opacity: 0.3; stroke-width: 0.8; stroke-linecap: square"/>
     </g>
     <g id="line2d_2">
      <defs>
       <path id="m748cc139c4" d="M 0 0 
L 0 3.5 
" style="stroke: #000000; stroke-width: 0.8"/>
      </defs>
      <g>
       <use xlink:href="#m748cc139c4" x="142.052849" y="254.470151" style="stroke: #000000; stroke-width: 0.8"/>
      </g>
     </g>
     <g id="text_1">
      <!-- -10%（恶化——情景C客户流失） -->
      <g transform="translate(11.235156 343.599872) rotate(-30) scale(0.1 -0.1)">
       <defs>
        <path id="STHeiti-2d" d="M 205 2304 
L 1920 2304 
L 1920 1920 
L 205 1920 
L 205 2304 
z
" transform="scale(0.015625)"/>
        <path id="STHeiti-31" d="M 1184 4979 
L 2086 4979 
L 2086 384 
L 1632 384 
L 1632 4531 
L 909 4531 
L 1184 4979 
z
" transform="scale(0.015625)"/>
        <path id="STHeiti-30" d="M 1747 269 
Q 1005 269 605 880 
Q 205 1491 205 2681 
Q 205 3872 605 4483 
Q 1005 5094 1741 5094 
Q 2477 5094 2909 4470 
Q 3341 3846 3341 2681 
Q 3341 1517 2905 893 
Q 2470 269 1747 269 
z
M 1760 4659 
Q 1229 4659 934 4147 
Q 640 3635 640 2669 
Q 640 685 1760 685 
Q 2304 685 2608 1206 
Q 2912 1728 2912 2681 
Q 2912 3635 2598 4147 
Q 2285 4659 1760 4659 
z
" transform="scale(0.015625)"/>
        <path id="STHeiti-25" d="M 4314 5184 
L 966 64 
L 550 64 
L 3603 4730 
Q 3232 4640 2845 4614 
Q 2458 4589 2278 4595 
L 2112 4602 
Q 2304 4333 2304 4032 
Q 2304 3571 1993 3248 
Q 1683 2925 1225 2925 
Q 768 2925 454 3238 
Q 141 3552 141 4006 
Q 141 4461 464 4774 
Q 787 5088 1210 5088 
Q 1382 5088 1702 5021 
Q 2022 4954 2490 4954 
Q 3232 4954 3949 5184 
L 4314 5184 
z
M 1914 4013 
Q 1914 4301 1712 4499 
Q 1510 4698 1225 4698 
Q 941 4698 739 4496 
Q 538 4294 538 4012 
Q 538 3731 739 3529 
Q 941 3328 1225 3328 
Q 1510 3328 1712 3526 
Q 1914 3725 1914 4013 
z
M 2656 1331 
Q 2656 1773 2973 2093 
Q 3290 2413 3734 2413 
Q 4179 2413 4496 2096 
Q 4813 1779 4813 1331 
Q 4813 883 4496 566 
Q 4179 250 3734 250 
Q 3290 250 2973 566 
Q 2656 883 2656 1331 
z
M 4422 1331 
Q 4422 1613 4220 1814 
Q 4019 2016 3734 2016 
Q 3450 2016 3251 1814 
Q 3053 1613 3053 1331 
Q 3053 1050 3251 848 
Q 3450 646 3734 646 
Q 4019 646 4220 844 
Q 4422 1043 4422 1331 
z
" transform="scale(0.015625)"/>
        <path id="STHeiti-ff08" d="M 5651 -749 
L 5274 -749 
Q 4646 173 4409 835 
Q 4173 1498 4173 2266 
Q 4173 3034 4432 3750 
Q 4691 4467 5254 5267 
L 5645 5267 
Q 5082 4237 4928 3606 
Q 4774 2976 4774 2093 
Q 4774 1472 4953 861 
Q 5133 250 5651 -749 
z
" transform="scale(0.015625)"/>
        <path id="STHeiti-6076" d="M 4077 2496 
Q 5453 2496 5907 2554 
L 5907 1952 
Q 5210 2010 3146 2010 
Q 1082 2010 538 1952 
L 538 2554 
Q 1088 2496 2374 2496 
L 2374 4365 
Q 1242 4352 819 4307 
L 819 4896 
Q 1299 4838 3145 4838 
Q 4992 4838 5613 4896 
L 5613 4307 
Q 5146 4365 4077 4365 
L 4077 2496 
z
M 2874 2496 
L 3578 2496 
L 3578 4365 
L 2874 4365 
L 2874 2496 
z
M 4870 4038 
Q 5126 3904 5363 3834 
Q 5472 3795 5472 3766 
Q 5472 3738 5408 3686 
Q 5293 3597 4826 2784 
Q 4621 2938 4346 2995 
Q 4672 3450 4870 4038 
z
M 2061 3027 
L 1555 2771 
Q 1382 3296 1114 3770 
L 1568 3981 
Q 1843 3552 2061 3027 
z
M 3904 851 
L 3334 595 
Q 3149 1216 2906 1600 
L 3392 1811 
Q 3699 1286 3904 851 
z
M 6042 269 
L 5491 -70 
Q 5165 608 4621 1261 
L 5088 1555 
Q 5523 1024 6042 269 
z
M 4915 378 
Q 4768 6 4681 -131 
Q 4595 -269 4467 -323 
Q 4339 -378 4003 -403 
Q 3667 -429 3046 -429 
Q 2426 -429 2218 -397 
Q 2010 -365 1936 -262 
Q 1862 -160 1862 122 
L 1862 768 
Q 1862 1203 1805 1434 
Q 2061 1363 2291 1363 
L 2432 1370 
Q 2496 1370 2496 1341 
Q 2496 1312 2429 1254 
Q 2362 1197 2362 1069 
L 2362 301 
Q 2362 179 2477 99 
Q 2592 19 2969 19 
Q 3347 19 3689 48 
Q 4032 77 4109 118 
Q 4186 160 4240 297 
Q 4294 435 4352 742 
Q 4570 448 4915 378 
z
M 1325 1274 
Q 1171 493 966 -198 
L 371 -26 
Q 717 646 800 1382 
L 1325 1274 
z
" transform="scale(0.015625)"/>
        <path id="STHeiti-5316" d="M 1293 2912 
Q 1011 2464 730 2086 
Q 589 2336 314 2528 
Q 781 2912 1177 3696 
Q 1574 4480 1683 5274 
Q 2003 5120 2236 5072 
Q 2470 5024 2470 4963 
Q 2470 4902 2362 4845 
Q 2317 4819 2214 4636 
Q 2112 4454 1824 3859 
L 1824 -531 
L 1222 -531 
Q 1293 -6 1293 499 
L 1293 2912 
z
M 3283 1395 
Q 2995 1178 2534 858 
Q 2374 1139 2054 1312 
Q 2579 1485 3283 2035 
L 3283 4422 
Q 3283 4992 3232 5229 
Q 3584 5152 3917 5152 
Q 4019 5152 4019 5104 
Q 4019 5056 3964 5017 
Q 3910 4979 3868 4889 
Q 3827 4800 3827 4736 
L 3827 2522 
Q 4570 3245 5158 4307 
Q 5472 4045 5766 3891 
Q 5837 3853 5837 3817 
Q 5837 3782 5766 3772 
Q 5696 3763 5536 3625 
Q 5376 3488 5280 3366 
Q 4518 2445 3827 1843 
L 3827 448 
Q 3827 275 3868 201 
Q 3910 128 4048 105 
Q 4186 83 4544 83 
Q 4902 83 5065 134 
Q 5229 186 5315 371 
Q 5402 557 5472 1005 
Q 5709 685 6080 576 
Q 5882 -83 5754 -204 
Q 5626 -326 5437 -377 
Q 5248 -429 4589 -429 
Q 3930 -429 3680 -381 
Q 3430 -333 3356 -208 
Q 3283 -83 3283 198 
L 3283 1395 
z
" transform="scale(0.015625)"/>
        <path id="STHeiti-2014" d="M 6400 2112 
L 0 2112 
L 0 2458 
L 6400 2458 
L 6400 2112 
z
" transform="scale(0.015625)"/>
        <path id="STHeiti-60c5" d="M 4301 3814 
Q 5197 3827 5619 3878 
L 5619 3392 
Q 5197 3443 4301 3456 
L 4301 3046 
Q 5581 3046 6093 3110 
L 6093 2611 
Q 5555 2675 4220 2675 
Q 2886 2675 2355 2611 
L 2355 3110 
Q 2733 3059 3814 3046 
L 3814 3456 
Q 3021 3443 2643 3392 
L 2643 3878 
Q 3027 3827 3814 3814 
L 3814 4224 
Q 2848 4211 2490 4160 
L 2490 4666 
Q 2861 4614 3814 4602 
Q 3814 5056 3795 5210 
Q 3930 5184 4122 5184 
L 4352 5197 
Q 4403 5197 4403 5168 
Q 4403 5139 4352 5088 
Q 4301 5037 4301 4870 
L 4301 4602 
Q 5402 4602 5869 4666 
L 5869 4160 
Q 5402 4224 4301 4224 
L 4301 3814 
z
M 1126 5133 
Q 1408 5082 1741 5082 
Q 1875 5082 1875 5037 
Q 1875 4992 1772 4928 
Q 1670 4864 1670 4595 
L 1670 525 
Q 1670 58 1722 -518 
L 1126 -518 
Q 1171 -6 1171 531 
L 1171 4282 
Q 1171 4838 1126 5133 
z
M 2502 3341 
L 2086 3110 
Q 2003 3450 1754 3808 
L 2131 4019 
Q 2355 3661 2502 3341 
z
M 973 3757 
Q 877 3053 794 2259 
L 230 2298 
Q 448 2957 454 3757 
L 973 3757 
z
M 3142 461 
L 3142 -531 
L 2598 -531 
Q 2637 13 2637 384 
L 2637 1754 
Q 2637 2131 2618 2298 
Q 3027 2278 4099 2278 
Q 5171 2278 5549 2298 
Q 5536 2074 5536 1754 
L 5536 166 
Q 5536 -256 5478 -358 
Q 5421 -461 5283 -509 
Q 5146 -557 4608 -589 
Q 4608 -339 4429 -77 
Q 4582 -83 4672 -83 
Q 4909 -83 4966 -16 
Q 5024 51 5024 282 
L 5024 461 
L 3142 461 
z
M 5024 1530 
L 5024 1907 
L 3142 1907 
L 3142 1530 
L 5024 1530 
z
M 3142 1178 
L 3142 819 
L 5024 819 
L 5024 1178 
L 3142 1178 
z
" transform="scale(0.015625)"/>
        <path id="STHeiti-666f" d="M 5152 3130 
Q 4634 3168 3232 3168 
Q 1830 3168 1139 3130 
Q 1178 3443 1178 4006 
Q 1178 4570 1139 4922 
Q 1747 4870 3148 4870 
Q 4550 4870 5152 4922 
Q 5114 4589 5114 4013 
Q 5114 3437 5152 3130 
z
M 4608 4173 
L 4608 4512 
L 1690 4512 
L 1690 4173 
L 4608 4173 
z
M 4608 3507 
L 4608 3846 
L 1690 3846 
L 1690 3507 
L 4608 3507 
z
M 3002 2733 
Q 2925 2893 2784 3091 
L 3418 3149 
Q 3456 2938 3526 2733 
Q 5005 2739 5914 2790 
L 5914 2323 
Q 4928 2381 3155 2381 
Q 1382 2381 397 2323 
L 397 2790 
Q 1357 2733 3002 2733 
z
M 3507 890 
L 3507 -122 
Q 3507 -314 3446 -406 
Q 3386 -499 3200 -553 
Q 3014 -608 2592 -666 
Q 2534 -410 2387 -160 
Q 2586 -186 2720 -186 
Q 2854 -186 2915 -131 
Q 2976 -77 2976 102 
L 2976 890 
Q 1920 890 1350 851 
Q 1389 1146 1389 1472 
Q 1389 1798 1350 2054 
Q 2010 2016 3181 2016 
Q 4352 2016 4998 2054 
Q 4973 1779 4969 1436 
Q 4966 1094 4998 851 
Q 4518 877 3507 890 
z
M 4512 1222 
L 4512 1664 
L 1837 1664 
L 1837 1222 
L 4512 1222 
z
M 1965 762 
Q 2195 525 2342 480 
Q 2426 454 2426 419 
Q 2426 384 2278 336 
Q 2131 288 1760 -29 
Q 1389 -346 954 -589 
Q 813 -403 589 -243 
Q 1344 102 1965 762 
z
M 5722 102 
L 5427 -410 
Q 4781 32 3942 326 
L 4198 717 
Q 4986 429 5722 102 
z
" transform="scale(0.015625)"/>
        <path id="STHeiti-43" d="M 4838 4128 
L 4480 3853 
Q 3840 4646 2835 4646 
Q 2016 4646 1424 4070 
Q 832 3494 832 2659 
Q 832 1824 1411 1264 
Q 1990 704 2861 704 
Q 3834 704 4480 1459 
L 4838 1184 
Q 4499 736 3980 502 
Q 3462 269 2835 269 
Q 1741 269 1043 960 
Q 346 1651 346 2707 
Q 346 3360 669 3913 
Q 992 4467 1565 4780 
Q 2138 5094 2797 5094 
Q 3456 5094 3981 4844 
Q 4506 4595 4838 4128 
z
" transform="scale(0.015625)"/>
        <path id="STHeiti-5ba2" d="M 3066 4608 
Q 2995 4909 2867 5197 
L 3546 5248 
Q 3642 4838 3680 4608 
Q 5235 4608 5779 4646 
L 5779 3501 
L 5267 3501 
L 5267 4186 
L 1216 4186 
L 1216 3501 
L 698 3501 
L 698 4646 
Q 1274 4608 3066 4608 
z
M 2285 3155 
Q 1894 2746 1414 2355 
Q 1229 2566 934 2662 
Q 2022 3264 2387 4051 
Q 2662 3936 2880 3904 
Q 2976 3891 2976 3849 
Q 2976 3808 2896 3779 
Q 2816 3750 2650 3565 
L 3475 3565 
Q 4525 3565 4973 3584 
Q 4525 2765 3661 2246 
Q 4659 1792 6003 1786 
Q 5818 1517 5760 1152 
Q 5216 1254 4928 1338 
Q 4915 1248 4915 851 
L 4915 109 
Q 4915 -269 4973 -582 
L 4397 -582 
L 4397 -211 
L 2112 -211 
L 2112 -614 
L 1517 -614 
Q 1587 -154 1587 211 
L 1587 851 
Q 1587 986 1568 1318 
Q 1203 1197 774 1082 
Q 608 1370 422 1594 
Q 1677 1747 2790 2234 
Q 2438 2464 2118 2746 
L 2432 3040 
Q 2829 2694 3238 2458 
Q 3680 2714 4090 3155 
L 2285 3155 
z
M 3200 1997 
Q 2426 1594 1696 1357 
Q 2112 1338 3309 1338 
Q 4506 1338 4864 1357 
Q 3930 1606 3200 1997 
z
M 2112 198 
L 4397 198 
L 4397 928 
L 2112 928 
L 2112 198 
z
" transform="scale(0.015625)"/>
        <path id="STHeiti-6237" d="M 3936 4518 
L 3296 4307 
Q 3187 4691 2970 5075 
L 3578 5274 
Q 3834 4717 3936 4518 
z
M 5082 1792 
L 1984 1792 
Q 1901 320 1082 -666 
Q 832 -474 435 -352 
Q 973 141 1206 749 
Q 1440 1357 1440 2368 
L 1440 3686 
Q 1440 4032 1402 4186 
Q 1798 4160 3568 4160 
Q 5338 4160 5696 4186 
Q 5645 4013 5645 3686 
L 5645 2131 
Q 5645 1638 5690 1299 
L 5082 1299 
L 5082 1792 
z
M 1990 2272 
L 5082 2272 
L 5082 3680 
L 1990 3680 
L 1990 2272 
z
" transform="scale(0.015625)"/>
        <path id="STHeiti-6d41" d="M 3667 4506 
Q 3603 4890 3450 5158 
L 4109 5261 
Q 4109 5107 4237 4506 
Q 5389 4506 5837 4557 
L 5837 4006 
Q 5402 4064 3856 4064 
Q 2310 4064 2010 4000 
L 2010 4563 
Q 2368 4518 3667 4506 
z
M 1862 4365 
L 1517 3878 
Q 1165 4250 627 4570 
L 973 5005 
Q 1427 4704 1862 4365 
z
M 5043 2790 
Q 3667 2650 3027 2557 
Q 2387 2464 2272 2374 
Q 2246 2733 2067 3002 
Q 2342 3046 2595 3283 
Q 2848 3520 3270 4026 
Q 3558 3846 3757 3763 
Q 3821 3738 3821 3712 
Q 3821 3686 3699 3654 
Q 3648 3642 2822 2944 
L 4698 3155 
Q 4493 3360 4282 3526 
L 4666 3808 
Q 5331 3206 5722 2842 
L 5318 2419 
Q 5203 2605 5043 2790 
z
M 1632 3091 
L 1363 2522 
Q 858 2893 282 3040 
L 550 3546 
Q 998 3334 1632 3091 
z
M 6144 416 
Q 6099 122 6035 -70 
Q 5971 -262 5827 -358 
Q 5683 -454 5305 -454 
Q 4928 -454 4797 -416 
Q 4666 -378 4627 -250 
Q 4589 -122 4589 211 
L 4589 1670 
Q 4589 2182 4538 2298 
Q 4781 2259 5088 2259 
Q 5133 2259 5133 2236 
Q 5133 2214 5107 2182 
Q 5056 2112 5056 1664 
L 5056 224 
Q 5056 128 5104 86 
Q 5152 45 5337 45 
Q 5523 45 5571 169 
Q 5619 294 5606 627 
Q 5830 435 6144 416 
z
M 3437 2266 
Q 3686 2227 3866 2227 
L 3987 2234 
Q 4038 2234 4038 2208 
Q 4038 2182 4013 2150 
Q 3962 2080 3962 1632 
L 3962 192 
Q 3962 -211 3994 -486 
L 3437 -486 
Q 3482 -173 3482 179 
L 3482 1638 
Q 3482 2125 3437 2266 
z
M 2400 2195 
Q 2630 2144 2957 2144 
Q 2995 2144 2995 2121 
Q 2995 2099 2969 2083 
Q 2944 2067 2944 1702 
L 2950 1306 
Q 2950 710 2681 259 
Q 2413 -192 1894 -576 
Q 1760 -339 1421 -186 
Q 1766 -51 2009 179 
Q 2253 410 2355 678 
Q 2458 947 2458 1491 
Q 2458 1805 2400 2195 
z
M 1658 1824 
Q 1478 1312 1292 576 
Q 1107 -160 1088 -422 
Q 762 -154 416 -6 
Q 634 294 832 886 
Q 1030 1478 1120 2080 
Q 1293 1926 1658 1824 
z
" transform="scale(0.015625)"/>
        <path id="STHeiti-5931" d="M 3334 1747 
Q 3046 947 2521 432 
Q 1997 -83 998 -563 
Q 768 -179 461 6 
Q 1299 134 1984 704 
Q 2669 1274 2918 2048 
Q 1626 2042 678 1984 
L 678 2566 
Q 1485 2502 3014 2502 
Q 3072 2918 3085 3590 
L 1760 3590 
Q 1613 3270 1344 2816 
Q 1126 2957 800 2976 
Q 1459 3910 1594 4915 
Q 1965 4774 2259 4774 
Q 2317 4774 2317 4748 
Q 2317 4723 2266 4685 
Q 2106 4557 1933 4051 
L 3085 4051 
Q 3085 4851 3046 5248 
Q 3366 5203 3712 5203 
Q 3834 5203 3834 5174 
Q 3834 5146 3802 5114 
Q 3718 5043 3680 4828 
Q 3642 4614 3629 4051 
Q 4813 4051 5446 4109 
L 5446 3533 
Q 4717 3590 3616 3590 
Q 3603 3034 3546 2502 
Q 5114 2502 5920 2566 
L 5920 1984 
Q 4954 2042 3616 2048 
Q 3891 1325 4412 873 
Q 4934 422 6125 307 
Q 5805 96 5709 -416 
Q 4755 -115 4204 317 
Q 3654 749 3334 1747 
z
" transform="scale(0.015625)"/>
        <path id="STHeiti-ff09" d="M 1120 5267 
Q 1747 4346 1984 3683 
Q 2221 3021 2221 2253 
Q 2221 1485 1961 768 
Q 1702 51 1139 -749 
L 749 -749 
Q 1312 282 1465 912 
Q 1619 1542 1619 2426 
Q 1619 3046 1440 3657 
Q 1261 4269 742 5267 
L 1120 5267 
z
" transform="scale(0.015625)"/>
       </defs>
       <use xlink:href="#STHeiti-2d"/>
       <use xlink:href="#STHeiti-31" transform="translate(33.199997 0)"/>
       <use xlink:href="#STHeiti-30" transform="translate(88.599991 0)"/>
       <use xlink:href="#STHeiti-25" transform="translate(143.999985 0)"/>
       <use xlink:href="#STHeiti-ff08" transform="translate(221.499969 0)"/>
       <use xlink:href="#STHeiti-6076" transform="translate(321.499954 0)"/>
       <use xlink:href="#STHeiti-5316" transform="translate(421.499939 0)"/>
       <use xlink:href="#STHeiti-2014" transform="translate(521.499924 0)"/>
       <use xlink:href="#STHeiti-2014" transform="translate(621.499908 0)"/>
       <use xlink:href="#STHeiti-60c5" transform="translate(721.499893 0)"/>
       <use xlink:href="#STHeiti-666f" transform="translate(821.499878 0)"/>
       <use xlink:href="#STHeiti-43" transform="translate(921.499863 0)"/>
       <use xlink:href="#STHeiti-5ba2" transform="translate(1002.79985 0)"/>
       <use xlink:href="#STHeiti-6237" transform="translate(1102.799835 0)"/>
       <use xlink:href="#STHeiti-6d41" transform="translate(1202.79982 0)"/>
       <use xlink:href="#STHeiti-5931" transform="translate(1302.799805 0)"/>
       <use xlink:href="#STHeiti-ff09" transform="translate(1402.799789 0)"/>
      </g>
     </g>
    </g>
    <g id="xtick_2">
     <g id="line2d_3">
      <path d="M 320.451607 254.470151 
L 320.451607 11.179687 
" clip-path="url(#p3a41530e04)" style="fill: none; stroke: #b0b0b0; stroke-opacity: 0.3; stroke-width: 0.8; stroke-linecap: square"/>
     </g>
     <g id="line2d_4">
      <g>
       <use xlink:href="#m748cc139c4" x="320.451607" y="254.470151" style="stroke: #000000; stroke-width: 0.8"/>
      </g>
     </g>
     <g id="text_2">
      <!-- -5.5%（维持FY2025水平） -->
      <g transform="translate(217.716142 327.377119) rotate(-30) scale(0.1 -0.1)">
       <defs>
        <path id="STHeiti-35" d="M 3149 4979 
L 3149 4544 
L 1510 4544 
L 1280 3290 
Q 1587 3379 1856 3379 
Q 2458 3379 2861 2953 
Q 3264 2528 3264 1862 
Q 3264 1197 2825 733 
Q 2387 269 1664 269 
Q 1114 269 726 598 
Q 339 928 262 1498 
L 730 1498 
Q 813 1114 1075 909 
Q 1338 704 1683 704 
Q 2138 704 2467 1043 
Q 2797 1382 2797 1888 
Q 2797 2349 2509 2646 
Q 2221 2944 1757 2944 
Q 1293 2944 730 2701 
L 1158 4979 
L 3149 4979 
z
" transform="scale(0.015625)"/>
        <path id="STHeiti-2e" d="M 582 685 
Q 582 845 697 957 
Q 813 1069 969 1069 
Q 1126 1069 1238 957 
Q 1350 845 1350 681 
Q 1350 518 1238 406 
Q 1126 294 969 294 
Q 813 294 697 409 
Q 582 525 582 685 
z
" transform="scale(0.015625)"/>
        <path id="STHeiti-7ef4" d="M 3366 -70 
L 3366 -627 
L 2829 -627 
Q 2899 -147 2899 749 
L 2899 2906 
Q 2707 2573 2618 2432 
Q 2496 2605 2272 2784 
Q 2560 3142 2867 3814 
Q 3174 4486 3277 5229 
Q 3616 5094 3859 5069 
Q 3974 5056 3974 5005 
Q 3974 4954 3872 4902 
Q 3808 4870 3456 4090 
L 4506 4090 
Q 5683 4090 5907 4122 
L 5907 3610 
Q 5690 3642 4698 3642 
L 4698 2906 
Q 5504 2912 5696 2944 
L 5696 2458 
Q 5555 2483 4698 2483 
L 4698 1670 
Q 5555 1677 5683 1702 
L 5683 1216 
Q 5542 1242 4698 1248 
L 4698 384 
Q 5798 384 6016 416 
L 6016 -102 
Q 5786 -70 4614 -70 
L 3366 -70 
z
M 3366 3642 
L 3366 2906 
L 4218 2906 
L 4218 3642 
L 3366 3642 
z
M 3366 2490 
L 3366 1670 
L 4218 1670 
L 4218 2490 
L 3366 2490 
z
M 3366 1248 
L 3366 384 
L 4218 384 
L 4218 1248 
L 3366 1248 
z
M 1773 3238 
Q 1971 3667 2093 3981 
Q 2330 3814 2586 3776 
Q 2662 3770 2662 3738 
Q 2662 3706 2595 3670 
Q 2528 3635 2422 3462 
Q 2317 3290 2157 3002 
L 1434 1638 
Q 1997 1696 2458 1773 
Q 2349 1485 2362 1248 
L 1357 1146 
Q 992 1101 806 1043 
Q 768 1325 627 1568 
Q 1043 1722 1574 2829 
Q 992 2810 634 2688 
Q 563 2995 448 3174 
Q 960 3462 1427 5184 
Q 1690 5024 2003 4966 
Q 2099 4947 2099 4915 
Q 2099 4883 2041 4851 
Q 1984 4819 1920 4716 
Q 1856 4614 1626 4179 
L 1114 3200 
L 1773 3238 
z
M 5075 4461 
L 4538 4224 
Q 4384 4659 4173 4960 
L 4691 5171 
Q 4832 4838 5075 4461 
z
M 2662 730 
Q 2579 435 2598 192 
Q 1094 -115 672 -294 
Q 602 45 448 378 
Q 1344 403 2662 730 
z
" transform="scale(0.015625)"/>
        <path id="STHeiti-6301" d="M 3808 3821 
Q 3174 3814 2733 3750 
L 2733 4320 
Q 3149 4269 3808 4262 
Q 3808 4954 3763 5197 
Q 3968 5165 4390 5165 
Q 4493 5165 4493 5136 
Q 4493 5107 4441 5072 
Q 4390 5037 4364 4969 
Q 4339 4902 4339 4845 
L 4339 4262 
Q 5120 4269 5581 4320 
L 5581 3770 
Q 5120 3821 4339 3827 
L 4339 3040 
Q 5408 3040 6016 3098 
L 6016 2547 
Q 5542 2586 5178 2592 
L 5178 1894 
Q 5805 1907 5990 1965 
L 5990 1389 
Q 5837 1421 5178 1434 
L 5178 6 
Q 5178 -256 5123 -368 
Q 5069 -480 4877 -544 
Q 4685 -608 4192 -685 
Q 4192 -346 3962 -6 
Q 4256 -45 4403 -45 
Q 4550 -45 4595 9 
Q 4640 64 4640 211 
L 4640 1434 
L 3475 1434 
Q 2912 1434 2554 1376 
L 2554 1958 
Q 2867 1894 3475 1894 
L 4640 1894 
L 4640 2605 
Q 3354 2605 2618 2528 
L 2618 3098 
Q 2989 3059 3808 3040 
L 3808 3821 
z
M 1242 2074 
L 1242 3322 
Q 736 3309 442 3264 
L 442 3808 
Q 691 3770 1242 3757 
Q 1242 4800 1171 5069 
Q 1395 5024 1805 5024 
Q 1958 5024 1958 4976 
Q 1958 4928 1881 4870 
Q 1805 4813 1782 4765 
Q 1760 4717 1760 4634 
L 1760 3757 
Q 2240 3770 2464 3808 
L 2464 3264 
Q 2240 3302 1760 3315 
L 1760 2317 
L 2362 2630 
Q 2336 2381 2432 2118 
Q 2118 1984 1760 1798 
L 1760 70 
Q 1760 -186 1712 -291 
Q 1664 -397 1488 -451 
Q 1312 -506 845 -576 
Q 774 -256 550 83 
Q 838 51 992 51 
Q 1146 51 1194 99 
Q 1242 147 1242 269 
L 1242 1504 
Q 877 1286 582 1069 
Q 474 1530 358 1747 
Q 813 1888 1242 2074 
z
M 3718 333 
L 3162 122 
Q 3085 659 2854 1114 
L 3392 1286 
L 3718 333 
z
" transform="scale(0.015625)"/>
        <path id="STHeiti-46" d="M 557 4979 
L 2861 4979 
L 2861 4525 
L 1018 4525 
L 1018 3091 
L 2861 3091 
L 2861 2637 
L 1018 2637 
L 1018 384 
L 557 384 
L 557 4979 
z
" transform="scale(0.015625)"/>
        <path id="STHeiti-59" d="M 198 4979 
L 730 4979 
L 1901 3085 
L 3059 4979 
L 3590 4979 
L 2131 2579 
L 2131 384 
L 1683 384 
L 1683 2579 
L 198 4979 
z
" transform="scale(0.015625)"/>
        <path id="STHeiti-32" d="M 742 3539 
L 301 3539 
Q 333 4243 768 4668 
Q 1203 5094 1820 5094 
Q 2438 5094 2844 4694 
Q 3251 4294 3251 3718 
Q 3251 3290 3024 2925 
Q 2797 2560 2336 2061 
L 1190 826 
L 3315 826 
L 3315 384 
L 192 384 
L 1946 2278 
Q 2406 2778 2604 3066 
Q 2803 3354 2803 3725 
Q 2803 4096 2512 4377 
Q 2221 4659 1789 4659 
Q 1357 4659 1072 4368 
Q 787 4077 742 3539 
z
" transform="scale(0.015625)"/>
        <path id="STHeiti-6c34" d="M 3987 2803 
Q 4634 3366 5190 4147 
Q 5286 4019 5478 3840 
Q 5670 3661 5786 3578 
Q 5830 3539 5830 3513 
Q 5830 3488 5702 3485 
Q 5574 3482 5360 3350 
Q 5146 3219 4198 2400 
Q 4902 1254 6080 832 
Q 5709 550 5555 211 
Q 4166 986 3539 2848 
L 3539 -32 
Q 3539 -243 3465 -352 
Q 3392 -461 3168 -528 
Q 2944 -595 2458 -659 
Q 2432 -314 2182 -13 
Q 2400 -32 2585 -32 
Q 2771 -32 2873 16 
Q 2976 64 2976 205 
L 2976 3949 
Q 2976 4890 2899 5216 
Q 3130 5171 3584 5171 
Q 3738 5171 3738 5123 
Q 3738 5075 3638 4995 
Q 3539 4915 3539 4781 
L 3539 4064 
Q 3718 3398 3987 2803 
z
M 2694 3603 
Q 2490 2342 2067 1548 
Q 1645 755 851 224 
Q 653 499 333 602 
Q 1069 986 1456 1555 
Q 1843 2125 2054 3085 
Q 1011 3085 563 3002 
L 563 3603 
Q 883 3558 1593 3558 
Q 2304 3558 2694 3603 
z
" transform="scale(0.015625)"/>
        <path id="STHeiti-5e73" d="M 3514 1946 
Q 5075 1946 5971 2003 
L 5971 1389 
Q 5075 1446 3514 1446 
L 3514 326 
Q 3514 -102 3578 -698 
L 2906 -698 
Q 2963 -122 2963 326 
L 2963 1446 
Q 1382 1446 480 1389 
L 480 2003 
Q 1402 1946 2963 1946 
L 2963 4333 
Q 1715 4326 979 4275 
L 979 4870 
Q 1786 4813 3226 4813 
Q 4666 4813 5466 4870 
L 5466 4275 
Q 4730 4326 3514 4333 
L 3514 1946 
z
M 4691 3840 
Q 5088 3667 5299 3603 
Q 5370 3584 5370 3542 
Q 5370 3501 5293 3488 
Q 5267 3482 5203 3405 
Q 5139 3328 5088 3232 
Q 4755 2611 4525 2266 
Q 4288 2387 3987 2432 
Q 4474 2970 4691 3840 
z
M 2355 2528 
L 1798 2304 
Q 1613 3027 1286 3546 
L 1805 3757 
Q 2118 3181 2355 2528 
z
" transform="scale(0.015625)"/>
       </defs>
       <use xlink:href="#STHeiti-2d"/>
       <use xlink:href="#STHeiti-35" transform="translate(33.199997 0)"/>
       <use xlink:href="#STHeiti-2e" transform="translate(88.599991 0)"/>
       <use xlink:href="#STHeiti-35" transform="translate(116.299988 0)"/>
       <use xlink:href="#STHeiti-25" transform="translate(171.699982 0)"/>
       <use xlink:href="#STHeiti-ff08" transform="translate(249.199966 0)"/>
       <use xlink:href="#STHeiti-7ef4" transform="translate(349.199951 0)"/>
       <use xlink:href="#STHeiti-6301" transform="translate(449.199936 0)"/>
       <use xlink:href="#STHeiti-46" transform="translate(549.199921 0)"/>
       <use xlink:href="#STHeiti-59" transform="translate(597.699905 0)"/>
       <use xlink:href="#STHeiti-32" transform="translate(656.899902 0)"/>
       <use xlink:href="#STHeiti-30" transform="translate(712.299896 0)"/>
       <use xlink:href="#STHeiti-32" transform="translate(767.69989 0)"/>
       <use xlink:href="#STHeiti-35" transform="translate(823.099884 0)"/>
       <use xlink:href="#STHeiti-6c34" transform="translate(878.499878 0)"/>
       <use xlink:href="#STHeiti-5e73" transform="translate(978.499863 0)"/>
       <use xlink:href="#STHeiti-ff09" transform="translate(1078.499847 0)"/>
      </g>
     </g>
    </g>
    <g id="xtick_3">
     <g id="line2d_5">
      <path d="M 498.850366 254.470151 
L 498.850366 11.179687 
" clip-path="url(#p3a41530e04)" style="fill: none; stroke: #b0b0b0; stroke-opacity: 0.3; stroke-width: 0.8; stroke-linecap: square"/>
     </g>
     <g id="line2d_6">
      <g>
       <use xlink:href="#m748cc139c4" x="498.850366" y="254.470151" style="stroke: #000000; stroke-width: 0.8"/>
      </g>
     </g>
     <g id="text_3">
      <!-- 0%（回正——Q1趋势延续） -->
      <g transform="translate(387.726632 332.220087) rotate(-30) scale(0.1 -0.1)">
       <defs>
        <path id="STHeiti-56de" d="M 1427 38 
L 1427 -358 
L 838 -358 
Q 902 96 902 736 
L 902 3712 
Q 902 4326 845 4678 
Q 1222 4621 3206 4621 
Q 5190 4621 5677 4678 
Q 5619 4307 5619 3725 
L 5619 736 
Q 5619 269 5664 -326 
L 5082 -326 
L 5082 38 
L 1427 38 
z
M 5082 512 
L 5082 4128 
L 1427 4128 
L 1427 512 
L 5082 512 
z
M 2099 3450 
Q 2490 3398 3165 3398 
Q 3840 3398 4333 3450 
Q 4307 3162 4307 2829 
L 4307 1971 
Q 4307 1645 4333 1286 
Q 3891 1331 3257 1331 
Q 2624 1331 2099 1286 
Q 2138 1568 2138 1978 
L 2138 2829 
Q 2138 3155 2099 3450 
z
M 2611 2944 
L 2611 1773 
L 3859 1773 
L 3859 2944 
L 2611 2944 
z
" transform="scale(0.015625)"/>
        <path id="STHeiti-6b63" d="M 1453 378 
L 1453 2445 
Q 1453 3034 1414 3200 
Q 1811 3142 2099 3142 
Q 2170 3142 2170 3091 
Q 2170 3040 2096 2989 
Q 2022 2938 2022 2746 
L 2022 371 
L 3091 371 
L 3091 4160 
Q 1651 4160 941 4090 
L 941 4730 
Q 1728 4666 3280 4666 
Q 4832 4666 5619 4730 
L 5619 4090 
Q 4851 4154 3680 4160 
L 3680 2733 
L 4429 2733 
Q 5069 2733 5427 2797 
L 5427 2195 
Q 5094 2227 4435 2227 
L 3680 2227 
L 3680 371 
Q 5581 371 6010 448 
L 6010 -192 
Q 5651 -134 3232 -134 
Q 813 -134 499 -192 
L 499 448 
Q 909 384 1453 378 
z
" transform="scale(0.015625)"/>
        <path id="STHeiti-51" d="M 4416 883 
L 5094 19 
L 4531 19 
L 4064 614 
Q 3494 269 2822 269 
Q 1779 269 1072 963 
Q 365 1658 365 2662 
Q 365 3693 1049 4393 
Q 1734 5094 2784 5094 
Q 3443 5094 4003 4774 
Q 4563 4454 4883 3897 
Q 5203 3341 5203 2682 
Q 5203 1626 4416 883 
z
M 4134 1242 
Q 4730 1830 4730 2668 
Q 4730 3507 4154 4076 
Q 3578 4646 2778 4646 
Q 1978 4646 1411 4070 
Q 845 3494 845 2659 
Q 845 1824 1421 1270 
Q 1997 717 2790 717 
Q 3322 717 3776 979 
L 2752 2278 
L 3309 2278 
L 4134 1242 
z
" transform="scale(0.015625)"/>
        <path id="STHeiti-8d8b" d="M 5306 2336 
L 5306 2989 
L 4640 2989 
Q 3725 2989 3475 2944 
L 3475 3405 
Q 3834 3373 4422 3373 
L 4909 4166 
L 3936 4166 
Q 3629 3674 3379 3296 
Q 3238 3443 2918 3526 
Q 3232 3757 3520 4253 
Q 3808 4749 3917 5248 
Q 4256 5107 4493 5069 
Q 4550 5062 4550 5033 
Q 4550 5005 4460 4934 
Q 4371 4864 4166 4550 
L 4858 4550 
Q 5254 4550 5683 4608 
L 4902 3373 
Q 5594 3373 5818 3424 
Q 5811 3309 5811 2560 
L 5811 1517 
Q 5811 1005 5837 570 
L 5306 570 
L 5306 845 
L 4640 845 
Q 3846 845 3328 794 
L 3328 1286 
Q 3827 1248 4640 1248 
L 5306 1248 
L 5306 1933 
L 4640 1933 
Q 3936 1933 3546 1888 
L 3546 2368 
Q 4026 2336 4640 2336 
L 5306 2336 
z
M 2342 1926 
Q 2906 1926 3072 1965 
L 3072 1466 
Q 2906 1504 2342 1504 
L 2342 371 
Q 2874 128 3898 128 
Q 4653 128 6003 262 
Q 5894 -115 5856 -384 
Q 5325 -397 4877 -397 
Q 3386 -397 2810 -275 
Q 2234 -154 1875 144 
Q 1517 442 1248 947 
Q 1069 173 806 -333 
Q 589 -134 326 -13 
Q 627 314 790 890 
Q 954 1466 960 2144 
Q 1261 2048 1401 2048 
Q 1542 2048 1542 2019 
Q 1542 1990 1491 1942 
Q 1440 1894 1357 1498 
Q 1568 973 1875 678 
L 1875 2618 
Q 1107 2618 627 2566 
L 627 3072 
Q 986 3021 1741 3021 
L 1741 3885 
Q 1165 3878 819 3827 
L 819 4358 
Q 1120 4314 1741 4307 
Q 1741 4928 1690 5210 
Q 1894 5178 2118 5178 
L 2298 5184 
Q 2362 5184 2362 5155 
Q 2362 5126 2291 5068 
Q 2221 5011 2221 4710 
L 2221 4307 
Q 2803 4314 3091 4358 
L 3091 3827 
Q 2752 3878 2221 3885 
L 2221 3021 
Q 2829 3027 3136 3072 
L 3136 2566 
Q 2842 2605 2342 2611 
L 2342 1926 
z
" transform="scale(0.015625)"/>
        <path id="STHeiti-52bf" d="M 1498 3430 
L 1498 4038 
Q 864 4038 454 3987 
L 454 4474 
Q 960 4435 1498 4435 
Q 1491 5082 1453 5242 
Q 1651 5203 2010 5203 
Q 2099 5203 2099 5164 
Q 2099 5126 2057 5094 
Q 2016 5062 1987 4982 
Q 1958 4902 1958 4838 
L 1958 4442 
Q 2304 4448 2643 4474 
L 2643 3987 
Q 2298 4026 1958 4032 
L 1958 3507 
Q 2317 3565 2650 3635 
Q 2630 3526 2630 3392 
Q 2630 3258 2650 3168 
Q 2342 3142 1958 3078 
L 1958 2291 
Q 1958 2106 1900 2006 
Q 1843 1907 1660 1843 
Q 1478 1779 1082 1715 
Q 1062 2016 864 2278 
Q 986 2272 1139 2272 
Q 1293 2272 1395 2310 
Q 1498 2349 1498 2451 
L 1498 2989 
Q 909 2861 531 2720 
Q 506 3072 390 3296 
Q 966 3347 1498 3430 
z
M 3565 3469 
Q 3654 3738 3693 4013 
Q 3373 3987 2989 3936 
L 2925 4454 
Q 3514 4454 3725 4461 
Q 3731 4960 3699 5184 
Q 3962 5139 4224 5139 
L 4365 5146 
Q 4410 5146 4410 5123 
Q 4410 5101 4358 5049 
Q 4307 4998 4237 4474 
Q 5069 4499 5530 4589 
Q 5274 3725 5274 3309 
Q 5274 2893 5363 2637 
Q 5453 2381 5523 2381 
Q 5632 2381 5766 2944 
Q 5952 2669 6240 2637 
Q 6010 1811 5626 1811 
Q 5453 1811 5241 1974 
Q 5030 2138 4915 2467 
Q 4800 2797 4800 3168 
Q 4800 3539 4870 4070 
L 4186 4038 
Q 4141 3603 3968 3251 
Q 4358 3034 4704 2797 
L 4358 2394 
Q 4058 2650 3750 2854 
Q 3450 2394 2886 1946 
Q 2694 2189 2413 2304 
Q 3066 2598 3379 3078 
Q 3155 3206 2886 3328 
L 3194 3661 
Q 3437 3533 3565 3469 
z
M 3258 1395 
Q 4845 1395 5395 1466 
L 5114 186 
Q 5050 -96 4941 -227 
Q 4832 -358 4595 -422 
Q 4358 -486 3853 -531 
Q 3808 -179 3590 122 
Q 3834 102 4051 102 
Q 4269 102 4403 156 
Q 4538 211 4570 352 
L 4717 979 
L 3130 979 
Q 2925 410 2377 22 
Q 1830 -365 845 -614 
Q 749 -326 550 -109 
Q 2163 115 2586 979 
Q 1286 979 730 922 
L 730 1459 
Q 1178 1402 2707 1395 
Q 2726 1523 2726 1657 
Q 2726 1792 2701 1875 
Q 3014 1811 3392 1811 
Q 3456 1811 3456 1782 
Q 3456 1754 3398 1702 
Q 3341 1651 3258 1395 
z
" transform="scale(0.015625)"/>
        <path id="STHeiti-5ef6" d="M 4550 4486 
L 4550 3168 
Q 5222 3174 5613 3219 
L 5613 2682 
Q 5293 2720 4550 2726 
L 4550 1338 
Q 5293 1350 5702 1395 
L 5702 851 
Q 5165 902 4243 902 
Q 3322 902 2758 845 
Q 2816 1101 2816 1491 
L 2816 2886 
Q 2816 3430 2771 3629 
Q 2976 3597 3200 3597 
L 3411 3603 
Q 3488 3603 3488 3577 
Q 3488 3552 3437 3520 
Q 3386 3488 3341 3392 
Q 3296 3296 3296 3206 
L 3296 1338 
L 4045 1338 
L 4045 4397 
Q 3123 4250 2688 4205 
Q 2688 4467 2464 4685 
Q 2976 4678 3846 4822 
Q 4717 4966 5318 5229 
Q 5421 4928 5658 4749 
Q 5734 4691 5734 4662 
Q 5734 4634 5690 4634 
L 5619 4640 
Q 5523 4640 5200 4595 
Q 4877 4550 4550 4486 
z
M 1619 474 
Q 1331 -58 896 -506 
Q 691 -250 314 -173 
Q 960 301 1254 813 
Q 800 1306 474 1926 
L 954 2125 
Q 1133 1658 1478 1254 
Q 1670 1843 1741 2611 
Q 1229 2586 890 2515 
Q 838 2810 698 2989 
Q 1024 3174 1178 3520 
L 1542 4352 
Q 966 4352 512 4269 
L 512 4781 
Q 730 4768 966 4768 
Q 1626 4768 2336 4851 
L 1382 3002 
Q 1971 3002 2291 3040 
Q 2214 1786 1830 902 
Q 2285 518 2825 374 
Q 3366 230 4153 230 
Q 4941 230 6150 378 
Q 5920 45 5933 -333 
Q 5485 -346 5114 -346 
Q 3750 -346 2960 -173 
Q 2170 0 1619 474 
z
" transform="scale(0.015625)"/>
        <path id="STHeiti-7eed" d="M 4013 3616 
L 4013 4122 
Q 3162 4109 2739 4077 
L 2739 4563 
Q 3168 4531 4013 4518 
Q 4006 4915 3968 5171 
Q 4115 5146 4563 5146 
Q 4634 5146 4634 5107 
Q 4634 5069 4589 5037 
Q 4544 5005 4515 4909 
Q 4486 4813 4486 4730 
L 4486 4518 
Q 5248 4518 5837 4563 
L 5837 4077 
Q 5248 4122 4486 4122 
L 4486 3616 
Q 5536 3616 5926 3667 
L 5542 2413 
L 5056 2547 
L 5299 3226 
L 4288 3226 
Q 3418 3226 2701 3168 
L 2701 3667 
Q 3072 3616 4013 3616 
z
M 1523 2854 
L 1030 2803 
Q 819 2778 576 2675 
Q 512 2899 403 3130 
Q 845 3392 1299 5107 
Q 1683 4947 1894 4877 
Q 1984 4845 1984 4813 
Q 1984 4781 1923 4758 
Q 1862 4736 1792 4643 
Q 1722 4550 1485 4122 
L 941 3155 
L 1722 3213 
Q 1958 3648 2074 3987 
Q 2362 3750 2515 3693 
Q 2592 3667 2592 3628 
Q 2592 3590 2509 3571 
Q 2483 3565 2400 3462 
L 1190 1670 
Q 1619 1690 2374 1779 
Q 2310 1600 2323 1350 
L 1344 1267 
Q 922 1235 614 1126 
Q 602 1370 486 1594 
Q 941 1843 1523 2854 
z
M 3968 2483 
L 3648 2138 
Q 3315 2522 2957 2765 
L 3219 3072 
Q 3616 2803 3968 2483 
z
M 4384 864 
Q 4211 326 3811 -13 
Q 3411 -352 2643 -602 
Q 2490 -358 2253 -141 
Q 3597 109 3930 864 
Q 3104 864 2483 819 
L 2483 1312 
Q 3008 1267 4045 1267 
Q 4166 1984 4166 2982 
Q 4531 2938 4649 2941 
Q 4768 2944 4768 2905 
Q 4768 2867 4739 2835 
Q 4710 2803 4678 2668 
Q 4646 2534 4588 1980 
Q 4531 1427 4493 1267 
Q 5523 1280 5933 1312 
L 5933 819 
Q 5318 864 4384 864 
z
M 3635 1709 
L 3322 1382 
Q 3008 1741 2547 2086 
L 2816 2381 
Q 3270 2061 3635 1709 
z
M 2285 730 
Q 2240 595 2240 441 
Q 2240 288 2259 205 
Q 1024 6 550 -237 
Q 538 77 378 410 
Q 787 410 2285 730 
z
M 5907 -122 
L 5536 -602 
Q 5005 -96 4403 256 
L 4653 608 
Q 5472 198 5907 -122 
z
" transform="scale(0.015625)"/>
       </defs>
       <use xlink:href="#STHeiti-30"/>
       <use xlink:href="#STHeiti-25" transform="translate(55.399994 0)"/>
       <use xlink:href="#STHeiti-ff08" transform="translate(132.899979 0)"/>
       <use xlink:href="#STHeiti-56de" transform="translate(232.899963 0)"/>
       <use xlink:href="#STHeiti-6b63" transform="translate(332.899948 0)"/>
       <use xlink:href="#STHeiti-2014" transform="translate(432.899933 0)"/>
       <use xlink:href="#STHeiti-2014" transform="translate(532.899918 0)"/>
       <use xlink:href="#STHeiti-51" transform="translate(632.899902 0)"/>
       <use xlink:href="#STHeiti-31" transform="translate(719.999893 0)"/>
       <use xlink:href="#STHeiti-8d8b" transform="translate(775.399887 0)"/>
       <use xlink:href="#STHeiti-52bf" transform="translate(875.399872 0)"/>
       <use xlink:href="#STHeiti-5ef6" transform="translate(975.399857 0)"/>
       <use xlink:href="#STHeiti-7eed" transform="translate(1075.399841 0)"/>
       <use xlink:href="#STHeiti-ff09" transform="translate(1175.399826 0)"/>
      </g>
     </g>
    </g>
    <g id="xtick_4">
     <g id="line2d_7">
      <path d="M 677.249124 254.470151 
L 677.249124 11.179687 
" clip-path="url(#p3a41530e04)" style="fill: none; stroke: #b0b0b0; stroke-opacity: 0.3; stroke-width: 0.8; stroke-linecap: square"/>
     </g>
     <g id="line2d_8">
      <g>
       <use xlink:href="#m748cc139c4" x="677.249124" y="254.470151" style="stroke: #000000; stroke-width: 0.8"/>
      </g>
     </g>
     <g id="text_4">
      <!-- +5%（管理层预测实现） -->
      <g transform="translate(581.878934 323.159957) rotate(-30) scale(0.1 -0.1)">
       <defs>
        <path id="STHeiti-2b" d="M 1728 2899 
L 1728 4250 
L 2150 4250 
L 2150 2899 
L 3520 2899 
L 3520 2470 
L 2150 2470 
L 2150 1114 
L 1728 1114 
L 1728 2470 
L 358 2470 
L 358 2899 
L 1728 2899 
z
" transform="scale(0.015625)"/>
        <path id="STHeiti-7ba1" d="M 1472 4333 
Q 1286 4070 941 3674 
Q 774 3885 467 3974 
Q 1133 4416 1459 5280 
Q 1779 5107 2048 5043 
Q 2118 5030 2118 5008 
Q 2118 4986 2054 4960 
Q 1862 4864 1722 4685 
Q 2982 4685 3136 4755 
L 3136 4269 
Q 2886 4326 2310 4333 
Q 2413 4064 2477 3718 
L 1939 3654 
Q 1914 4051 1862 4333 
L 1472 4333 
z
M 4019 4326 
Q 3942 4179 3718 3878 
Q 3520 4083 3264 4154 
Q 3750 4525 3994 5267 
Q 4326 5114 4544 5056 
Q 4608 5043 4608 5020 
Q 4608 4998 4550 4973 
Q 4435 4915 4237 4672 
L 4602 4672 
Q 5568 4672 5933 4755 
L 5933 4275 
Q 5626 4320 4838 4326 
Q 4973 3962 5037 3693 
L 4506 3603 
Q 4474 3942 4378 4326 
L 4019 4326 
z
M 3021 3354 
Q 2950 3603 2874 3789 
L 3379 3885 
Q 3488 3629 3571 3354 
Q 5197 3354 5830 3405 
L 5830 2304 
L 5350 2304 
L 5350 2970 
L 954 2970 
L 954 2336 
L 486 2336 
L 486 3405 
Q 1120 3354 3021 3354 
z
M 4480 -198 
L 1894 -198 
Q 1901 -320 1926 -634 
L 1344 -634 
Q 1389 -288 1389 51 
L 1389 1946 
Q 1389 2342 1338 2669 
Q 1958 2618 3120 2618 
Q 4282 2618 4826 2669 
Q 4794 2387 4794 2083 
Q 4794 1779 4826 1408 
Q 4102 1446 2976 1446 
L 1888 1446 
L 1888 1011 
L 3136 1011 
Q 4365 1011 4998 1037 
Q 4973 909 4973 557 
L 4973 -147 
Q 4973 -314 4998 -608 
L 4480 -608 
L 4480 -198 
z
M 1888 1830 
L 4326 1830 
L 4326 2227 
L 1888 2227 
L 1888 1830 
z
M 1888 179 
L 4480 179 
L 4480 634 
L 1888 634 
L 1888 179 
z
" transform="scale(0.015625)"/>
        <path id="STHeiti-7406" d="M 4397 864 
L 4397 160 
Q 5389 166 6086 211 
L 6086 -333 
Q 5389 -275 4096 -275 
Q 2803 -275 2099 -333 
L 2099 211 
Q 2816 166 3910 160 
L 3910 864 
Q 3187 864 2682 800 
L 2682 1350 
Q 3174 1286 3910 1280 
L 3910 1920 
Q 2771 1914 2598 1882 
Q 2637 2630 2637 3443 
Q 2637 4256 2598 4864 
Q 2797 4813 4214 4813 
Q 5632 4813 5754 4864 
Q 5722 4352 5722 3549 
Q 5722 2746 5766 1882 
Q 5658 1920 4397 1920 
L 4397 1280 
Q 5210 1286 5702 1350 
L 5702 800 
Q 5261 858 4397 864 
z
M 3910 3590 
L 3910 4390 
L 3110 4390 
L 3110 3590 
L 3910 3590 
z
M 4397 4390 
L 4397 3590 
L 5229 3590 
L 5229 4390 
L 4397 4390 
z
M 4397 3187 
L 4397 2336 
L 5229 2336 
L 5229 3187 
L 4397 3187 
z
M 3910 2336 
L 3910 3187 
L 3110 3187 
L 3110 2336 
L 3910 2336 
z
M 1171 4224 
Q 768 4218 429 4179 
L 429 4717 
Q 774 4678 1436 4678 
Q 2099 4678 2438 4717 
L 2438 4179 
Q 2131 4211 1670 4230 
L 1670 2861 
Q 2138 2874 2368 2906 
L 2368 2362 
Q 2035 2400 1670 2406 
L 1670 883 
Q 2035 1011 2368 1184 
Q 2342 979 2342 864 
Q 2342 749 2355 621 
Q 1184 269 448 -218 
Q 448 -45 400 182 
Q 352 410 275 563 
Q 710 595 1171 723 
L 1171 2406 
Q 685 2394 435 2362 
L 435 2906 
Q 742 2861 1171 2854 
L 1171 4224 
z
" transform="scale(0.015625)"/>
        <path id="STHeiti-5c42" d="M 5504 3315 
Q 5101 3360 3987 3360 
Q 2874 3360 1491 3328 
Q 1459 1811 1299 969 
Q 1139 128 774 -525 
Q 531 -224 282 -141 
Q 640 339 803 1129 
Q 966 1920 966 3171 
Q 966 4422 941 4915 
Q 1651 4864 3286 4864 
Q 4922 4864 5504 4915 
Q 5472 4518 5475 4112 
Q 5478 3706 5504 3315 
z
M 4966 3808 
L 4966 4416 
L 1491 4416 
L 1491 3808 
L 4966 3808 
z
M 5363 2381 
Q 4646 2432 3692 2432 
Q 2739 2432 2035 2374 
L 2035 2925 
Q 2701 2874 3725 2874 
Q 4749 2874 5363 2925 
L 5363 2381 
z
M 3078 1363 
Q 2035 1357 1568 1318 
L 1568 1856 
Q 2298 1811 3702 1811 
Q 5107 1811 5843 1856 
L 5843 1318 
Q 5158 1363 3782 1363 
Q 3360 864 2669 141 
L 4608 250 
Q 4282 685 3994 928 
L 4499 1178 
Q 4998 570 5696 -211 
L 5114 -531 
Q 5005 -326 4883 -147 
L 3264 -269 
Q 2522 -326 2029 -506 
Q 1933 -198 1734 141 
Q 1971 186 2134 288 
Q 2298 390 2598 729 
Q 2899 1069 3078 1363 
z
" transform="scale(0.015625)"/>
        <path id="STHeiti-9884" d="M 4064 4397 
Q 3354 4390 2995 4346 
L 2995 4902 
Q 3520 4845 4470 4845 
Q 5421 4845 5946 4902 
L 5946 4346 
Q 5427 4397 4640 4397 
Q 4544 4077 4422 3565 
Q 5344 3565 5722 3616 
Q 5683 3411 5683 2822 
L 5683 1677 
Q 5683 1216 5734 877 
L 5171 877 
L 5171 3149 
L 3526 3149 
L 3526 851 
L 2982 851 
Q 3040 1274 3040 1651 
L 3040 2822 
Q 3040 3347 3002 3616 
Q 3315 3571 3936 3565 
Q 4070 3994 4064 4397 
z
M 1818 2560 
L 1818 38 
Q 1818 -218 1648 -333 
Q 1478 -448 954 -506 
Q 928 -211 710 96 
Q 915 45 1043 45 
Q 1306 45 1306 294 
L 1306 2560 
Q 736 2554 435 2522 
L 435 3040 
Q 730 2995 1485 2995 
Q 1197 3418 800 3738 
L 1152 4038 
Q 1370 3834 1542 3642 
L 1990 4371 
Q 819 4371 576 4333 
L 576 4864 
Q 883 4813 1680 4813 
Q 2477 4813 2771 4864 
Q 2419 4326 1824 3347 
Q 1888 3283 2003 3155 
L 1811 2995 
Q 2547 3002 2874 3053 
L 2586 1818 
L 2093 1914 
L 2310 2560 
L 1818 2560 
z
M 4058 2778 
Q 4256 2733 4422 2729 
Q 4589 2726 4659 2726 
Q 4730 2726 4730 2707 
Q 4730 2688 4698 2656 
Q 4666 2624 4627 2486 
Q 4589 2349 4582 2253 
Q 4531 1158 4390 774 
Q 4250 390 3856 60 
Q 3462 -269 2720 -582 
Q 2560 -352 2259 -115 
Q 2752 13 3097 182 
Q 3443 352 3651 566 
Q 3859 781 3936 1005 
Q 4013 1229 4045 1613 
Q 4077 1997 4077 2256 
Q 4077 2515 4058 2778 
z
M 6022 -102 
L 5645 -582 
Q 4998 109 4467 480 
L 4800 902 
Q 5498 352 6022 -102 
z
" transform="scale(0.015625)"/>
        <path id="STHeiti-6d4b" d="M 5254 5158 
Q 5370 5126 5766 5126 
Q 5862 5126 5862 5078 
Q 5862 5030 5801 4985 
Q 5741 4941 5741 4800 
L 5741 141 
Q 5741 -147 5693 -262 
Q 5645 -378 5462 -448 
Q 5280 -518 4794 -608 
Q 4736 -282 4538 51 
Q 4768 26 4950 26 
Q 5133 26 5219 102 
Q 5306 179 5306 435 
L 5306 4166 
Q 5306 4723 5254 5158 
z
M 1664 4525 
L 1338 4077 
Q 992 4403 544 4646 
L 845 5037 
Q 1267 4794 1664 4525 
z
M 3974 1235 
L 3482 1235 
L 3482 4282 
L 2227 4282 
L 2227 1152 
L 1741 1152 
Q 1792 1619 1792 2163 
L 1792 3834 
Q 1792 4288 1754 4794 
Q 2022 4723 2832 4723 
Q 3642 4723 3962 4794 
Q 3923 4352 3923 3834 
L 3923 2195 
Q 3923 1715 3974 1235 
z
M 4813 1005 
L 4269 1005 
Q 4333 1491 4333 1990 
L 4333 3584 
Q 4333 4006 4262 4499 
Q 4403 4467 4570 4467 
L 4806 4480 
Q 4851 4480 4851 4448 
Q 4851 4416 4809 4377 
Q 4768 4339 4768 4186 
L 4768 1997 
Q 4768 1530 4813 1005 
z
M 2605 3789 
Q 2739 3757 2944 3757 
L 3110 3770 
Q 3168 3770 3168 3731 
Q 3168 3693 3123 3638 
Q 3078 3584 3078 2854 
Q 3078 2125 3046 1680 
Q 3014 1235 2921 931 
Q 2829 627 2595 272 
Q 2362 -83 1958 -486 
Q 1741 -262 1427 -141 
Q 1965 230 2227 614 
Q 2490 998 2563 1408 
Q 2637 1818 2637 2362 
Q 2637 2906 2605 3789 
z
M 1510 2976 
L 1210 2464 
Q 832 2752 307 2976 
L 602 3469 
Q 1152 3181 1510 2976 
z
M 1485 1632 
L 1190 538 
Q 1030 -45 934 -538 
Q 685 -339 346 -192 
Q 819 659 1043 1875 
Q 1210 1690 1485 1632 
z
M 4346 166 
L 3949 -230 
Q 3482 435 3072 749 
L 3418 1094 
Q 3962 634 4346 166 
z
" transform="scale(0.015625)"/>
        <path id="STHeiti-5b9e" d="M 3027 4544 
Q 2931 4909 2810 5171 
L 3494 5293 
Q 3590 4928 3744 4544 
Q 5139 4550 5722 4582 
L 5722 3347 
L 5139 3347 
L 5139 4070 
L 1171 4070 
L 1171 3309 
L 634 3309 
L 634 4582 
Q 1222 4544 3027 4544 
z
M 3642 1261 
Q 3405 646 2768 185 
Q 2131 -275 1005 -659 
Q 806 -326 544 -83 
Q 1555 102 2153 422 
Q 2752 742 3040 1261 
Q 1344 1261 474 1197 
L 474 1811 
Q 1357 1747 3226 1747 
Q 3315 2278 3315 3315 
Q 3315 3590 3309 3757 
Q 3590 3718 3757 3718 
L 4013 3725 
Q 4058 3725 4058 3705 
Q 4058 3686 4016 3657 
Q 3974 3629 3942 3510 
Q 3910 3392 3898 3245 
Q 3846 2253 3776 1747 
Q 5101 1760 5843 1811 
L 5843 1184 
Q 4864 1254 3642 1261 
z
M 3008 3021 
L 2675 2592 
Q 2176 3034 1677 3302 
L 1990 3648 
Q 2566 3309 3008 3021 
z
M 2515 2208 
L 2067 1850 
Q 1715 2150 1082 2458 
L 1472 2816 
Q 2182 2438 2515 2208 
z
M 5734 -70 
L 5306 -602 
Q 4493 58 3584 512 
L 3891 928 
Q 4947 429 5734 -70 
z
" transform="scale(0.015625)"/>
        <path id="STHeiti-73b0" d="M 5626 1683 
L 5075 1683 
L 5075 4403 
L 3258 4403 
L 3258 1651 
L 2714 1651 
Q 2771 2138 2771 2669 
L 2771 4352 
Q 2771 4717 2746 4883 
Q 3206 4845 4256 4845 
Q 5306 4845 5594 4883 
Q 5568 4730 5568 4352 
L 5568 2701 
Q 5568 2093 5626 1683 
z
M 1690 966 
Q 2157 1088 2573 1235 
Q 2541 1126 2541 969 
Q 2541 813 2566 730 
Q 1133 448 474 77 
Q 435 448 326 736 
Q 691 755 1190 858 
L 1190 2432 
Q 742 2419 493 2381 
L 493 2925 
Q 646 2899 1190 2874 
L 1190 4179 
Q 698 4166 435 4128 
L 435 4685 
Q 832 4634 1501 4634 
Q 2170 4634 2534 4685 
L 2534 4128 
Q 2240 4173 1690 4186 
L 1690 2874 
Q 2144 2880 2451 2925 
L 2451 2381 
Q 2170 2432 1690 2438 
L 1690 966 
z
M 3872 4013 
Q 4160 3949 4467 3949 
Q 4518 3949 4518 3913 
Q 4518 3878 4480 3849 
Q 4442 3821 4406 3616 
Q 4371 3411 4281 2547 
Q 4192 1683 3760 915 
Q 3328 147 2285 -538 
Q 2093 -269 1766 -115 
Q 2150 26 2620 365 
Q 3091 704 3401 1197 
Q 3712 1690 3798 2362 
Q 3885 3034 3885 3472 
Q 3885 3910 3872 4013 
z
M 4154 1773 
Q 4416 1734 4672 1734 
Q 4742 1734 4742 1708 
Q 4742 1683 4688 1638 
Q 4634 1594 4634 1485 
L 4634 397 
Q 4634 237 4656 176 
Q 4678 115 4761 92 
Q 4845 70 5101 70 
Q 5357 70 5459 201 
Q 5562 333 5613 774 
Q 5786 563 6144 474 
Q 6048 45 5958 -124 
Q 5869 -294 5693 -348 
Q 5517 -403 5037 -403 
Q 4557 -403 4413 -358 
Q 4269 -314 4211 -208 
Q 4154 -102 4154 282 
L 4154 1773 
z
" transform="scale(0.015625)"/>
       </defs>
       <use xlink:href="#STHeiti-2b"/>
       <use xlink:href="#STHeiti-35" transform="translate(60.599991 0)"/>
       <use xlink:href="#STHeiti-25" transform="translate(115.999985 0)"/>
       <use xlink:href="#STHeiti-ff08" transform="translate(193.499969 0)"/>
       <use xlink:href="#STHeiti-7ba1" transform="translate(293.499954 0)"/>
       <use xlink:href="#STHeiti-7406" transform="translate(393.499939 0)"/>
       <use xlink:href="#STHeiti-5c42" transform="translate(493.499924 0)"/>
       <use xlink:href="#STHeiti-9884" transform="translate(593.499908 0)"/>
       <use xlink:href="#STHeiti-6d4b" transform="translate(693.499893 0)"/>
       <use xlink:href="#STHeiti-5b9e" transform="translate(793.499878 0)"/>
       <use xlink:href="#STHeiti-73b0" transform="translate(893.499863 0)"/>
       <use xlink:href="#STHeiti-ff09" transform="translate(993.499847 0)"/>
      </g>
     </g>
    </g>
   </g>
   <g id="matplotlib.axis_2">
    <g id="ytick_1">
     <g id="line2d_9">
      <path d="M 115.293035 232.352837 
L 704.008938 232.352837 
" clip-path="url(#p3a41530e04)" style="fill: none; stroke: #b0b0b0; stroke-opacity: 0.3; stroke-width: 0.8; stroke-linecap: square"/>
     </g>
     <g id="line2d_10">
      <defs>
       <path id="m6e34fd2209" d="M 0 0 
L -3.5 0 
" style="stroke: #000000; stroke-width: 0.8"/>
      </defs>
      <g>
       <use xlink:href="#m6e34fd2209" x="115.293035" y="232.352837" style="stroke: #000000; stroke-width: 0.8"/>
      </g>
     </g>
     <g id="text_5">
      <!-- -0.50 -->
      <g transform="translate(85.580535 236.332524) scale(0.1 -0.1)">
       <use xlink:href="#STHeiti-2d"/>
       <use xlink:href="#STHeiti-30" transform="translate(33.199997 0)"/>
       <use xlink:href="#STHeiti-2e" transform="translate(88.599991 0)"/>
       <use xlink:href="#STHeiti-35" transform="translate(116.299988 0)"/>
       <use xlink:href="#STHeiti-30" transform="translate(171.699982 0)"/>
      </g>
     </g>
    </g>
    <g id="ytick_2">
     <g id="line2d_11">
      <path d="M 115.293035 204.706193 
L 704.008938 204.706193 
" clip-path="url(#p3a41530e04)" style="fill: none; stroke: #b0b0b0; stroke-opacity: 0.3; stroke-width: 0.8; stroke-linecap: square"/>
     </g>
     <g id="line2d_12">
      <g>
       <use xlink:href="#m6e34fd2209" x="115.293035" y="204.706193" style="stroke: #000000; stroke-width: 0.8"/>
      </g>
     </g>
     <g id="text_6">
      <!-- -0.25 -->
      <g transform="translate(85.580535 208.68588) scale(0.1 -0.1)">
       <use xlink:href="#STHeiti-2d"/>
       <use xlink:href="#STHeiti-30" transform="translate(33.199997 0)"/>
       <use xlink:href="#STHeiti-2e" transform="translate(88.599991 0)"/>
       <use xlink:href="#STHeiti-32" transform="translate(116.299988 0)"/>
       <use xlink:href="#STHeiti-35" transform="translate(171.699982 0)"/>
      </g>
     </g>
    </g>
    <g id="ytick_3">
     <g id="line2d_13">
      <path d="M 115.293035 177.059549 
L 704.008938 177.059549 
" clip-path="url(#p3a41530e04)" style="fill: none; stroke: #b0b0b0; stroke-opacity: 0.3; stroke-width: 0.8; stroke-linecap: square"/>
     </g>
     <g id="line2d_14">
      <g>
       <use xlink:href="#m6e34fd2209" x="115.293035" y="177.059549" style="stroke: #000000; stroke-width: 0.8"/>
      </g>
     </g>
     <g id="text_7">
      <!-- 0.00 -->
      <g transform="translate(88.900848 181.039237) scale(0.1 -0.1)">
       <use xlink:href="#STHeiti-30"/>
       <use xlink:href="#STHeiti-2e" transform="translate(55.399994 0)"/>
       <use xlink:href="#STHeiti-30" transform="translate(83.099991 0)"/>
       <use xlink:href="#STHeiti-30" transform="translate(138.499985 0)"/>
      </g>
     </g>
    </g>
    <g id="ytick_4">
     <g id="line2d_15">
      <path d="M 115.293035 149.412906 
L 704.008938 149.412906 
" clip-path="url(#p3a41530e04)" style="fill: none; stroke: #b0b0b0; stroke-opacity: 0.3; stroke-width: 0.8; stroke-linecap: square"/>
     </g>
     <g id="line2d_16">
      <g>
       <use xlink:href="#m6e34fd2209" x="115.293035" y="149.412906" style="stroke: #000000; stroke-width: 0.8"/>
      </g>
     </g>
     <g id="text_8">
      <!-- 0.25 -->
      <g transform="translate(88.900848 153.392593) scale(0.1 -0.1)">
       <use xlink:href="#STHeiti-30"/>
       <use xlink:href="#STHeiti-2e" transform="translate(55.399994 0)"/>
       <use xlink:href="#STHeiti-32" transform="translate(83.099991 0)"/>
       <use xlink:href="#STHeiti-35" transform="translate(138.499985 0)"/>
      </g>
     </g>
    </g>
    <g id="ytick_5">
     <g id="line2d_17">
      <path d="M 115.293035 121.766262 
L 704.008938 121.766262 
" clip-path="url(#p3a41530e04)" style="fill: none; stroke: #b0b0b0; stroke-opacity: 0.3; stroke-width: 0.8; stroke-linecap: square"/>
     </g>
     <g id="line2d_18">
      <g>
       <use xlink:href="#m6e34fd2209" x="115.293035" y="121.766262" style="stroke: #000000; stroke-width: 0.8"/>
      </g>
     </g>
     <g id="text_9">
      <!-- 0.50 -->
      <g transform="translate(88.900848 125.74595) scale(0.1 -0.1)">
       <use xlink:href="#STHeiti-30"/>
       <use xlink:href="#STHeiti-2e" transform="translate(55.399994 0)"/>
       <use xlink:href="#STHeiti-35" transform="translate(83.099991 0)"/>
       <use xlink:href="#STHeiti-30" transform="translate(138.499985 0)"/>
      </g>
     </g>
    </g>
    <g id="ytick_6">
     <g id="line2d_19">
      <path d="M 115.293035 94.119618 
L 704.008938 94.119618 
" clip-path="url(#p3a41530e04)" style="fill: none; stroke: #b0b0b0; stroke-opacity: 0.3; stroke-width: 0.8; stroke-linecap: square"/>
     </g>
     <g id="line2d_20">
      <g>
       <use xlink:href="#m6e34fd2209" x="115.293035" y="94.119618" style="stroke: #000000; stroke-width: 0.8"/>
      </g>
     </g>
     <g id="text_10">
      <!-- 0.75 -->
      <g transform="translate(88.900848 98.099306) scale(0.1 -0.1)">
       <defs>
        <path id="STHeiti-37" d="M 461 4979 
L 3373 4979 
L 915 269 
L 538 461 
L 2662 4544 
L 461 4544 
L 461 4979 
z
" transform="scale(0.015625)"/>
       </defs>
       <use xlink:href="#STHeiti-30"/>
       <use xlink:href="#STHeiti-2e" transform="translate(55.399994 0)"/>
       <use xlink:href="#STHeiti-37" transform="translate(83.099991 0)"/>
       <use xlink:href="#STHeiti-35" transform="translate(138.499985 0)"/>
      </g>
     </g>
    </g>
    <g id="ytick_7">
     <g id="line2d_21">
      <path d="M 115.293035 66.472975 
L 704.008938 66.472975 
" clip-path="url(#p3a41530e04)" style="fill: none; stroke: #b0b0b0; stroke-opacity: 0.3; stroke-width: 0.8; stroke-linecap: square"/>
     </g>
     <g id="line2d_22">
      <g>
       <use xlink:href="#m6e34fd2209" x="115.293035" y="66.472975" style="stroke: #000000; stroke-width: 0.8"/>
      </g>
     </g>
     <g id="text_11">
      <!-- 1.00 -->
      <g transform="translate(88.900848 70.452662) scale(0.1 -0.1)">
       <use xlink:href="#STHeiti-31"/>
       <use xlink:href="#STHeiti-2e" transform="translate(55.399994 0)"/>
       <use xlink:href="#STHeiti-30" transform="translate(83.099991 0)"/>
       <use xlink:href="#STHeiti-30" transform="translate(138.499985 0)"/>
      </g>
     </g>
    </g>
    <g id="ytick_8">
     <g id="line2d_23">
      <path d="M 115.293035 38.826331 
L 704.008938 38.826331 
" clip-path="url(#p3a41530e04)" style="fill: none; stroke: #b0b0b0; stroke-opacity: 0.3; stroke-width: 0.8; stroke-linecap: square"/>
     </g>
     <g id="line2d_24">
      <g>
       <use xlink:href="#m6e34fd2209" x="115.293035" y="38.826331" style="stroke: #000000; stroke-width: 0.8"/>
      </g>
     </g>
     <g id="text_12">
      <!-- 1.25 -->
      <g transform="translate(88.900848 42.806019) scale(0.1 -0.1)">
       <use xlink:href="#STHeiti-31"/>
       <use xlink:href="#STHeiti-2e" transform="translate(55.399994 0)"/>
       <use xlink:href="#STHeiti-32" transform="translate(83.099991 0)"/>
       <use xlink:href="#STHeiti-35" transform="translate(138.499985 0)"/>
      </g>
     </g>
    </g>
    <g id="ytick_9">
     <g id="line2d_25">
      <path d="M 115.293035 11.179687 
L 704.008938 11.179687 
" clip-path="url(#p3a41530e04)" style="fill: none; stroke: #b0b0b0; stroke-opacity: 0.3; stroke-width: 0.8; stroke-linecap: square"/>
     </g>
     <g id="line2d_26">
      <g>
       <use xlink:href="#m6e34fd2209" x="115.293035" y="11.179687" style="stroke: #000000; stroke-width: 0.8"/>
      </g>
     </g>
     <g id="text_13">
      <!-- 1.50 -->
      <g transform="translate(88.900848 15.159375) scale(0.1 -0.1)">
       <use xlink:href="#STHeiti-31"/>
       <use xlink:href="#STHeiti-2e" transform="translate(55.399994 0)"/>
       <use xlink:href="#STHeiti-35" transform="translate(83.099991 0)"/>
       <use xlink:href="#STHeiti-30" transform="translate(138.499985 0)"/>
      </g>
     </g>
    </g>
   </g>
   <g id="line2d_27">
    <path d="M 142.052849 243.411494 
L 320.451607 177.059549 
L 498.850366 99.648947 
L 677.249124 22.238345 
" clip-path="url(#p3a41530e04)" style="fill: none; stroke: #1a365d; stroke-width: 2; stroke-linecap: square"/>
    <defs>
     <path id="md96f79ae5a" d="M 0 3 
C 0.795609 3 1.55874 2.683901 2.12132 2.12132 
C 2.683901 1.55874 3 0.795609 3 0 
C 3 -0.795609 2.683901 -1.55874 2.12132 -2.12132 
C 1.55874 -2.683901 0.795609 -3 0 -3 
C -0.795609 -3 -1.55874 -2.683901 -2.12132 -2.12132 
C -2.683901 -1.55874 -3 -0.795609 -3 0 
C -3 0.795609 -2.683901 1.55874 -2.12132 2.12132 
C -1.55874 2.683901 -0.795609 3 0 3 
z
" style="stroke: #1a365d"/>
    </defs>
    <g clip-path="url(#p3a41530e04)">
     <use xlink:href="#md96f79ae5a" x="142.052849" y="243.411494" style="fill: #1a365d; stroke: #1a365d"/>
     <use xlink:href="#md96f79ae5a" x="320.451607" y="177.059549" style="fill: #1a365d; stroke: #1a365d"/>
     <use xlink:href="#md96f79ae5a" x="498.850366" y="99.648947" style="fill: #1a365d; stroke: #1a365d"/>
     <use xlink:href="#md96f79ae5a" x="677.249124" y="22.238345" style="fill: #1a365d; stroke: #1a365d"/>
    </g>
   </g>
   <g id="patch_3">
    <path d="M 115.293035 254.470151 
L 115.293035 11.179687 
" style="fill: none; stroke: #000000; stroke-width: 0.8; stroke-linejoin: miter; stroke-linecap: square"/>
   </g>
   <g id="patch_4">
    <path d="M 704.008938 254.470151 
L 704.008938 11.179687 
" style="fill: none; stroke: #000000; stroke-width: 0.8; stroke-linejoin: miter; stroke-linecap: square"/>
   </g>
   <g id="patch_5">
    <path d="M 115.293035 254.470151 
L 704.008938 254.470151 
" style="fill: none; stroke: #000000; stroke-width: 0.8; stroke-linejoin: miter; stroke-linecap: square"/>
   </g>
   <g id="patch_6">
    <path d="M 115.293035 11.179687 
L 704.008938 11.179687 
" style="fill: none; stroke: #000000; stroke-width: 0.8; stroke-linejoin: miter; stroke-linecap: square"/>
   </g>
   <g id="legend_1">
    <g id="patch_7">
     <path d="M 121.593035 31.33125 
L 220.512879 31.33125 
Q 222.312879 31.33125 222.312879 29.53125 
L 222.312879 17.479688 
Q 222.312879 15.679688 220.512879 15.679688 
L 121.593035 15.679688 
Q 119.793035 15.679688 119.793035 17.479688 
L 119.793035 29.53125 
Q 119.793035 31.33125 121.593035 31.33125 
z
" style="fill: #ffffff; opacity: 0.8; stroke: #cccccc; stroke-linejoin: miter"/>
    </g>
    <g id="line2d_28">
     <path d="M 123.393035 23.374687 
L 132.393035 23.374687 
L 141.393035 23.374687 
" style="fill: none; stroke: #1a365d; stroke-width: 2; stroke-linecap: square"/>
     <g>
      <use xlink:href="#md96f79ae5a" x="132.393035" y="23.374687" style="fill: #1a365d; stroke: #1a365d"/>
     </g>
    </g>
    <g id="text_14">
     <!-- 对整体GM的影响 -->
     <g transform="translate(148.593035 26.524687) scale(0.09 -0.09)">
      <defs>
       <path id="STHeiti-5bf9" d="M 5338 3846 
Q 5894 3846 6125 3891 
L 6125 3341 
Q 5734 3379 5338 3379 
L 5338 38 
Q 5338 -294 5066 -432 
Q 4794 -570 4237 -602 
Q 4166 -294 3981 26 
Q 4160 13 4352 13 
Q 4544 13 4665 61 
Q 4787 109 4787 275 
L 4787 3379 
L 3878 3379 
Q 3373 3379 3040 3347 
L 3040 3891 
Q 3322 3846 3878 3846 
L 4787 3846 
Q 4787 5030 4762 5254 
Q 5056 5190 5414 5190 
Q 5517 5190 5517 5152 
Q 5517 5114 5453 5072 
Q 5389 5030 5363 4995 
Q 5338 4960 5338 4877 
L 5338 3846 
z
M 1965 1203 
Q 1434 250 768 -339 
Q 576 -90 262 64 
Q 1133 704 1638 1747 
Q 1069 2662 749 2957 
L 1178 3238 
Q 1485 2848 1882 2310 
Q 2157 3053 2278 3968 
L 1210 3968 
Q 806 3968 467 3942 
L 467 4467 
Q 826 4429 1648 4429 
Q 2470 4429 2938 4467 
Q 2765 3085 2240 1792 
Q 2829 922 3040 390 
L 2509 96 
Q 2336 563 1965 1203 
z
M 3283 2470 
L 3757 2669 
Q 4045 2131 4262 1427 
L 3757 1229 
Q 3590 1888 3283 2470 
z
" transform="scale(0.015625)"/>
       <path id="STHeiti-6574" d="M 4659 2509 
Q 4307 2176 3712 1920 
Q 3616 2144 3398 2285 
Q 3994 2496 4352 2797 
Q 4096 3098 3949 3450 
L 4314 3603 
Q 4435 3302 4621 3078 
Q 4928 3482 5011 4051 
L 4224 4051 
Q 4038 3654 3738 3226 
Q 3571 3354 3386 3398 
Q 3974 4230 4090 5190 
Q 4416 5082 4627 5056 
Q 4704 5043 4704 5014 
Q 4704 4986 4621 4922 
Q 4563 4883 4390 4448 
L 5216 4448 
Q 5722 4448 5939 4486 
L 5939 4026 
Q 5766 4045 5485 4051 
Q 5325 3309 4941 2810 
Q 5318 2573 6042 2458 
Q 5824 2291 5734 1939 
Q 5101 2157 4659 2509 
z
M 1830 2810 
Q 1414 2054 762 1651 
Q 602 1856 365 1939 
Q 1075 2253 1472 2835 
Q 896 2835 698 2822 
Q 736 3027 736 3344 
Q 736 3661 698 3885 
Q 1088 3859 1830 3859 
L 1830 4250 
Q 986 4250 544 4205 
L 544 4653 
Q 979 4602 1830 4602 
Q 1830 5043 1786 5184 
Q 1971 5158 2106 5158 
L 2291 5165 
Q 2355 5165 2355 5139 
Q 2355 5114 2294 5050 
Q 2234 4986 2234 4602 
Q 2976 4602 3437 4640 
L 3437 4205 
Q 3008 4243 2234 4250 
L 2234 3859 
Q 2970 3859 3354 3885 
Q 3328 3597 3328 3334 
Q 3328 3072 3354 2810 
Q 2976 2835 2234 2835 
Q 2234 2291 2291 1939 
L 1773 1939 
Q 1830 2278 1830 2810 
z
M 2234 3558 
L 2234 3136 
L 2925 3136 
L 2925 3558 
L 2234 3558 
z
M 1830 3136 
L 1830 3558 
L 1126 3558 
L 1126 3136 
L 1830 3136 
z
M 3302 2227 
L 2989 1939 
Q 2720 2246 2374 2458 
L 2682 2707 
Q 3104 2394 3302 2227 
z
M 3424 595 
L 3424 77 
Q 4928 77 5914 128 
L 5914 -397 
Q 4870 -346 3225 -346 
Q 1581 -346 538 -397 
L 538 128 
L 1626 90 
L 1626 474 
Q 1626 877 1587 1088 
Q 1670 1056 2138 1056 
Q 2202 1056 2202 1030 
Q 2202 1005 2157 960 
Q 2080 883 2080 614 
L 2080 77 
L 2963 77 
L 2963 1402 
Q 1709 1389 1126 1350 
L 1126 1818 
Q 1824 1773 3133 1773 
Q 4442 1773 5331 1818 
L 5331 1350 
Q 4563 1402 3424 1402 
L 3424 966 
Q 4928 966 5222 992 
L 5222 563 
Q 4634 595 3424 595 
z
" transform="scale(0.015625)"/>
       <path id="STHeiti-4f53" d="M 3648 3539 
L 3462 3539 
Q 3379 2624 3049 1872 
Q 2720 1120 2067 371 
Q 1894 634 1670 813 
Q 2733 1786 3072 3533 
Q 2464 3526 1946 3482 
L 1946 4038 
Q 2605 3987 3648 3981 
Q 3648 4966 3590 5274 
Q 3757 5235 4192 5235 
Q 4275 5235 4275 5200 
Q 4275 5165 4201 5107 
Q 4128 5050 4128 4883 
L 4128 3981 
Q 5267 3981 5933 4038 
L 5933 3482 
Q 5363 3533 4493 3539 
Q 4730 2534 5165 1958 
Q 5600 1382 6202 1069 
Q 5958 819 5766 461 
Q 4966 1171 4652 1808 
Q 4339 2445 4186 3539 
L 4128 3539 
L 4128 1030 
Q 4698 1043 4941 1082 
L 4941 563 
Q 4627 602 4128 614 
Q 4134 83 4198 -563 
L 3578 -563 
Q 3642 83 3648 614 
Q 3072 608 2714 563 
L 2714 1082 
Q 2995 1043 3648 1030 
L 3648 3539 
z
M 1062 2874 
Q 826 2406 576 1984 
Q 410 2221 179 2400 
Q 608 2886 880 3545 
Q 1152 4205 1350 5197 
Q 1690 5069 2022 5005 
Q 2106 4992 2106 4957 
Q 2106 4922 2016 4851 
Q 1926 4781 1555 3949 
L 1555 -621 
L 986 -621 
Q 1062 134 1062 736 
L 1062 2874 
z
" transform="scale(0.015625)"/>
       <path id="STHeiti-47" d="M 5318 4211 
L 4966 3872 
Q 4582 4243 4124 4441 
Q 3667 4640 3180 4640 
Q 2694 4640 2208 4377 
Q 1722 4115 1450 3670 
Q 1178 3226 1178 2707 
Q 1178 1901 1782 1302 
Q 2387 704 3296 704 
Q 3987 704 4483 1091 
Q 4979 1478 5075 2144 
L 3610 2144 
L 3610 2586 
L 5594 2586 
Q 5574 1491 4940 880 
Q 4307 269 3283 269 
Q 2106 269 1398 992 
Q 691 1715 691 2691 
Q 691 3667 1395 4380 
Q 2099 5094 3244 5094 
Q 4390 5094 5318 4211 
z
" transform="scale(0.015625)"/>
       <path id="STHeiti-4d" d="M 352 384 
L 1005 4979 
L 1075 4979 
L 2944 1210 
L 4800 4979 
L 4870 4979 
L 5530 384 
L 5075 384 
L 4627 3674 
L 3002 384 
L 2886 384 
L 1242 3699 
L 794 384 
L 352 384 
z
" transform="scale(0.015625)"/>
       <path id="STHeiti-7684" d="M 1210 262 
L 1210 -358 
L 621 -358 
Q 672 70 672 582 
L 672 3443 
Q 672 3795 627 4026 
Q 813 4006 1293 3981 
Q 1421 4646 1421 5126 
Q 1773 5043 2112 5030 
Q 2195 5024 2195 4979 
Q 2195 4934 2121 4867 
Q 2048 4800 1984 4624 
Q 1920 4448 1798 3974 
Q 2534 3974 2950 4026 
Q 2906 3776 2906 3443 
L 2906 627 
Q 2906 173 2957 -307 
L 2362 -307 
L 2362 262 
L 1210 262 
z
M 2362 2406 
L 2362 3533 
L 1210 3533 
L 1210 2406 
L 2362 2406 
z
M 2362 698 
L 2362 1971 
L 1210 1971 
L 1210 698 
L 2362 698 
z
M 4102 4045 
L 5165 4045 
Q 5542 4045 5888 4096 
Q 5856 3923 5837 3462 
L 5702 243 
Q 5683 -160 5376 -349 
Q 5069 -538 4467 -576 
Q 4410 -134 4115 134 
Q 4397 102 4640 102 
Q 4883 102 5020 185 
Q 5158 269 5171 531 
L 5293 3552 
L 3936 3552 
Q 3763 3053 3456 2509 
Q 3213 2758 2982 2829 
Q 3565 3597 3827 5120 
Q 4141 5011 4506 5011 
Q 4589 5011 4589 4966 
Q 4589 4922 4499 4851 
Q 4352 4736 4102 4045 
z
M 4653 1478 
L 4090 1184 
Q 3885 1894 3552 2381 
L 4070 2605 
Q 4326 1997 4653 1478 
z
" transform="scale(0.015625)"/>
       <path id="STHeiti-5f71" d="M 4966 5152 
Q 5331 4890 5555 4826 
Q 5651 4794 5651 4752 
Q 5651 4710 5555 4684 
Q 5459 4659 5184 4262 
Q 4787 3699 4192 3117 
Q 3962 3283 3680 3360 
Q 4102 3654 4464 4163 
Q 4826 4672 4966 5152 
z
M 3590 3219 
Q 3027 3264 2169 3264 
Q 1312 3264 883 3219 
Q 915 3578 915 4086 
Q 915 4595 883 4966 
Q 1261 4915 2214 4915 
Q 3168 4915 3590 4966 
Q 3552 4614 3552 4108 
Q 3552 3603 3590 3219 
z
M 3078 4243 
L 3078 4576 
L 1389 4576 
L 1389 4243 
L 3078 4243 
z
M 3078 3578 
L 3078 3923 
L 1389 3923 
L 1389 3578 
L 3078 3578 
z
M 5306 3418 
Q 5370 3328 5520 3216 
Q 5670 3104 5785 3056 
Q 5901 3008 5901 2973 
Q 5901 2938 5824 2915 
Q 5747 2893 5625 2774 
Q 5504 2656 5398 2505 
Q 5293 2355 4902 1980 
Q 4512 1606 4198 1363 
Q 4038 1568 3763 1683 
Q 5056 2534 5306 3418 
z
M 2010 2797 
Q 1933 2989 1875 3117 
L 2483 3181 
Q 2509 2995 2566 2797 
Q 3462 2803 4019 2854 
L 4019 2394 
Q 3456 2451 2224 2451 
Q 992 2451 435 2394 
L 435 2854 
Q 1037 2803 2010 2797 
z
M 2496 1062 
L 2496 -83 
Q 2496 -269 2441 -368 
Q 2387 -467 2217 -531 
Q 2048 -595 1683 -646 
Q 1677 -378 1466 -102 
Q 1664 -134 1785 -134 
Q 1907 -134 1964 -80 
Q 2022 -26 2022 141 
L 2022 1062 
Q 1286 1062 896 1024 
Q 922 1254 922 1625 
Q 922 1997 896 2176 
Q 1370 2138 2246 2138 
Q 3123 2138 3597 2176 
Q 3565 1933 3565 1587 
Q 3565 1242 3597 1024 
Q 3270 1050 2496 1062 
z
M 3085 1402 
L 3085 1798 
L 1402 1798 
L 1402 1402 
L 3085 1402 
z
M 5568 1702 
Q 5798 1504 6035 1376 
Q 6125 1325 6125 1293 
Q 6125 1261 6035 1222 
Q 5984 1203 5606 781 
Q 5056 154 4694 -134 
Q 4333 -422 3814 -717 
Q 3725 -474 3411 -333 
Q 4928 390 5568 1702 
z
M 1184 909 
Q 1344 710 1581 653 
Q 1658 634 1658 595 
Q 1658 557 1568 521 
Q 1478 486 1411 435 
Q 1344 384 1129 185 
Q 915 -13 742 -224 
Q 595 -32 320 64 
Q 806 314 1184 909 
z
M 3686 250 
L 3264 0 
Q 3098 403 2835 646 
L 3219 883 
Q 3482 518 3686 250 
z
" transform="scale(0.015625)"/>
       <path id="STHeiti-54cd" d="M 3475 4314 
Q 3571 4832 3616 5293 
Q 3955 5190 4269 5190 
Q 4365 5190 4365 5148 
Q 4365 5107 4281 5033 
Q 4198 4960 4115 4784 
Q 4032 4608 3930 4314 
L 4595 4314 
Q 5536 4307 5843 4378 
Q 5811 4026 5811 3219 
L 5811 -51 
Q 5811 -218 5744 -304 
Q 5677 -390 5472 -460 
Q 5267 -531 4806 -621 
Q 4774 -358 4570 6 
Q 4717 0 4899 0 
Q 5082 0 5197 45 
Q 5312 90 5312 275 
L 5312 3859 
L 3046 3859 
L 3046 -557 
L 2496 -557 
Q 2560 70 2560 755 
L 2560 3219 
Q 2560 3955 2515 4378 
Q 2726 4333 3475 4314 
z
M 1677 915 
L 1069 915 
L 1069 38 
L 538 38 
Q 602 525 602 1069 
L 602 3802 
Q 602 4320 557 4608 
Q 934 4563 1372 4563 
Q 1811 4563 2182 4608 
Q 2138 4307 2138 3802 
L 2138 1344 
Q 2138 819 2182 461 
L 1677 461 
L 1677 915 
z
M 1069 1363 
L 1677 1363 
L 1677 4102 
L 1069 4102 
L 1069 1363 
z
M 4877 781 
Q 4672 813 4189 813 
Q 3706 813 3450 774 
Q 3488 1261 3488 2045 
Q 3488 2829 3450 3162 
Q 3795 3110 4195 3110 
Q 4595 3110 4877 3162 
Q 4851 2765 4851 2029 
Q 4851 1293 4877 781 
z
M 4422 1274 
L 4422 2669 
L 3904 2669 
L 3904 1274 
L 4422 1274 
z
" transform="scale(0.015625)"/>
      </defs>
      <use xlink:href="#STHeiti-5bf9"/>
      <use xlink:href="#STHeiti-6574" transform="translate(99.999985 0)"/>
      <use xlink:href="#STHeiti-4f53" transform="translate(199.999969 0)"/>
      <use xlink:href="#STHeiti-47" transform="translate(299.999954 0)"/>
      <use xlink:href="#STHeiti-4d" transform="translate(387.199936 0)"/>
      <use xlink:href="#STHeiti-7684" transform="translate(479.09993 0)"/>
      <use xlink:href="#STHeiti-5f71" transform="translate(579.099915 0)"/>
      <use xlink:href="#STHeiti-54cd" transform="translate(679.099899 0)"/>
     </g>
    </g>
   </g>
  </g>
 </g>
 <defs>
  <clipPath id="p3a41530e04">
   <rect x="115.293035" y="11.179687" width="588.715903" height="243.290464"/>
  </clipPath>
 </defs>
</svg>
