<?xml version="1.0" encoding="utf-8" standalone="no"?>
<!DOCTYPE svg PUBLIC "-//W3C//DTD SVG 1.1//EN"
  "http://www.w3.org/Graphics/SVG/1.1/DTD/svg11.dtd">
<svg xmlns:xlink="http://www.w3.org/1999/xlink" width="708.306762pt" height="352.27204pt" viewBox="0 0 708.306762 352.27204" xmlns="http://www.w3.org/2000/svg" version="1.1">
 <metadata>
  <rdf:RDF xmlns:dc="http://purl.org/dc/elements/1.1/" xmlns:cc="http://creativecommons.org/ns#" xmlns:rdf="http://www.w3.org/1999/02/22-rdf-syntax-ns#">
   <cc:Work>
    <dc:type rdf:resource="http://purl.org/dc/dcmitype/StillImage"/>
    <dc:date>2026-06-05T11:58:19.581433</dc:date>
    <dc:format>image/svg+xml</dc:format>
    <dc:creator>
     <cc:Agent>
      <dc:title>Matplotlib v3.10.9, https://matplotlib.org/</dc:title>
     </cc:Agent>
    </dc:creator>
   </cc:Work>
  </rdf:RDF>
 </metadata>
 <defs>
  <style type="text/css">*{stroke-linejoin: round; stroke-linecap: butt}</style>
 </defs>
 <g id="figure_1">
  <g id="patch_1">
   <path d="M 0 352.27204 
L 708.306762 352.27204 
L 708.306762 0 
L 0 0 
z
" style="fill: #ffffff"/>
  </g>
  <g id="axes_1">
   <g id="patch_2">
    <path d="M 49.413492 291.170464 
L 701.106762 291.170464 
L 701.106762 7.2 
L 49.413492 7.2 
z
" style="fill: #fafafa"/>
   </g>
   <g id="matplotlib.axis_1">
    <g id="xtick_1">
     <g id="line2d_1">
      <path d="M 79.035913 291.170464 
L 79.035913 7.2 
" clip-path="url(#pee6fc32351)" style="fill: none; stroke: #b0b0b0; stroke-opacity: 0.3; stroke-width: 0.8; stroke-linecap: square"/>
     </g>
     <g id="line2d_2">
      <defs>
       <path id="me785aa01f9" d="M 0 0 
L 0 3.5 
" style="stroke: #000000; stroke-width: 0.8"/>
      </defs>
      <g>
       <use xlink:href="#me785aa01f9" x="79.035913" y="291.170464" style="stroke: #000000; stroke-width: 0.8"/>
      </g>
     </g>
     <g id="text_1">
      <!-- 2030E营收（亿） -->
      <g transform="translate(11.229687 343.911025) rotate(-30) scale(0.1 -0.1)">
       <defs>
        <path id="STHeiti-32" d="M 742 3539 
L 301 3539 
Q 333 4243 768 4668 
Q 1203 5094 1820 5094 
Q 2438 5094 2844 4694 
Q 3251 4294 3251 3718 
Q 3251 3290 3024 2925 
Q 2797 2560 2336 2061 
L 1190 826 
L 3315 826 
L 3315 384 
L 192 384 
L 1946 2278 
Q 2406 2778 2604 3066 
Q 2803 3354 2803 3725 
Q 2803 4096 2512 4377 
Q 2221 4659 1789 4659 
Q 1357 4659 1072 4368 
Q 787 4077 742 3539 
z
" transform="scale(0.015625)"/>
        <path id="STHeiti-30" d="M 1747 269 
Q 1005 269 605 880 
Q 205 1491 205 2681 
Q 205 3872 605 4483 
Q 1005 5094 1741 5094 
Q 2477 5094 2909 4470 
Q 3341 3846 3341 2681 
Q 3341 1517 2905 893 
Q 2470 269 1747 269 
z
M 1760 4659 
Q 1229 4659 934 4147 
Q 640 3635 640 2669 
Q 640 685 1760 685 
Q 2304 685 2608 1206 
Q 2912 1728 2912 2681 
Q 2912 3635 2598 4147 
Q 2285 4659 1760 4659 
z
" transform="scale(0.015625)"/>
        <path id="STHeiti-33" d="M 845 3917 
L 378 3917 
Q 506 4486 867 4790 
Q 1229 5094 1750 5094 
Q 2272 5094 2659 4748 
Q 3046 4403 3046 3910 
Q 3046 3315 2458 2970 
Q 2861 2803 3081 2473 
Q 3302 2144 3302 1754 
Q 3302 1146 2857 707 
Q 2413 269 1734 269 
Q 1133 269 742 611 
Q 352 954 224 1613 
L 672 1613 
Q 794 1158 1046 937 
Q 1299 717 1760 717 
Q 2221 717 2534 1011 
Q 2848 1306 2848 1741 
Q 2848 2176 2502 2441 
Q 2157 2707 1498 2720 
L 1498 3142 
Q 1971 3142 2268 3360 
Q 2566 3578 2566 3901 
Q 2566 4224 2326 4438 
Q 2086 4653 1747 4653 
Q 1408 4653 1200 4470 
Q 992 4288 845 3917 
z
" transform="scale(0.015625)"/>
        <path id="STHeiti-45" d="M 563 4979 
L 3200 4979 
L 3200 4525 
L 1024 4525 
L 1024 3091 
L 3181 3091 
L 3181 2643 
L 1024 2643 
L 1024 838 
L 3181 838 
L 3181 384 
L 563 384 
L 563 4979 
z
" transform="scale(0.015625)"/>
        <path id="STHeiti-8425" d="M 4282 3693 
Q 5274 3706 5856 3731 
L 5856 2662 
L 5344 2662 
L 5344 3277 
L 1082 3277 
L 1082 2624 
L 570 2624 
L 570 3731 
Q 1082 3699 2106 3693 
L 2106 4218 
Q 1056 4205 467 4160 
L 467 4666 
Q 1133 4614 2106 4614 
Q 2099 4973 2054 5178 
Q 2387 5133 2650 5133 
Q 2733 5133 2733 5101 
Q 2733 5069 2681 5037 
Q 2630 5005 2617 4979 
Q 2605 4954 2605 4890 
L 2605 4614 
L 3782 4614 
Q 3776 4947 3738 5171 
Q 4019 5133 4326 5133 
Q 4410 5133 4410 5101 
Q 4410 5069 4358 5037 
Q 4307 5005 4294 4979 
Q 4282 4954 4282 4890 
L 4282 4614 
Q 5299 4614 5965 4666 
L 5965 4160 
Q 5344 4218 4282 4218 
L 4282 3693 
z
M 2605 3693 
L 3782 3693 
L 3782 4218 
L 2605 4218 
L 2605 3693 
z
M 4794 1568 
Q 4230 1587 3270 1587 
Q 2310 1587 1587 1562 
Q 1619 1773 1619 2176 
Q 1619 2579 1587 2874 
Q 2086 2848 3190 2848 
Q 4294 2848 4794 2874 
Q 4774 2611 4774 2217 
Q 4774 1824 4794 1568 
z
M 4269 1971 
L 4269 2464 
L 2118 2464 
L 2118 1971 
L 4269 1971 
z
M 4698 -109 
L 1722 -109 
L 1722 -576 
L 1152 -576 
Q 1197 -333 1197 -64 
L 1197 890 
Q 1197 1037 1158 1197 
Q 1350 1184 3235 1184 
Q 5120 1184 5280 1197 
Q 5248 1082 5248 890 
L 5248 0 
Q 5248 -269 5293 -512 
L 4698 -512 
L 4698 -109 
z
M 1722 288 
L 4698 288 
L 4698 794 
L 1722 794 
L 1722 288 
z
" transform="scale(0.015625)"/>
        <path id="STHeiti-6536" d="M 1824 1664 
L 1824 4230 
Q 1824 4998 1773 5190 
Q 2003 5146 2413 5146 
Q 2522 5146 2522 5107 
Q 2522 5069 2435 5017 
Q 2349 4966 2349 4544 
L 2349 563 
Q 2349 26 2413 -589 
L 1766 -589 
Q 1824 6 1824 563 
L 1824 1197 
L 1082 992 
Q 826 922 614 762 
Q 512 1030 352 1293 
Q 608 1440 608 1722 
L 608 3539 
Q 608 4115 582 4282 
Q 806 4243 973 4243 
L 1171 4250 
Q 1261 4250 1261 4211 
Q 1261 4173 1203 4141 
Q 1082 4083 1082 3968 
L 1082 1510 
L 1824 1664 
z
M 4224 1286 
Q 4685 1984 4781 3462 
L 3629 3462 
Q 3226 2547 2970 2157 
Q 2733 2317 2522 2387 
Q 2906 2918 3203 3712 
Q 3501 4506 3565 5146 
Q 3981 5005 4250 4966 
Q 4326 4954 4326 4922 
Q 4326 4890 4278 4851 
Q 4230 4813 4150 4653 
Q 4070 4493 3821 3917 
L 5120 3917 
Q 5747 3917 5971 3974 
L 5971 3424 
Q 5754 3462 5318 3462 
Q 5178 1722 4576 896 
Q 5178 365 6061 173 
Q 5734 -134 5664 -493 
Q 4845 -115 4237 518 
Q 3699 -115 2899 -499 
Q 2790 -262 2483 -64 
Q 3213 173 3898 883 
Q 3450 1466 3315 2675 
L 3744 2810 
Q 3814 1888 4224 1286 
z
" transform="scale(0.015625)"/>
        <path id="STHeiti-ff08" d="M 5651 -749 
L 5274 -749 
Q 4646 173 4409 835 
Q 4173 1498 4173 2266 
Q 4173 3034 4432 3750 
Q 4691 4467 5254 5267 
L 5645 5267 
Q 5082 4237 4928 3606 
Q 4774 2976 4774 2093 
Q 4774 1472 4953 861 
Q 5133 250 5651 -749 
z
" transform="scale(0.015625)"/>
        <path id="STHeiti-4ebf" d="M 1779 3840 
L 1779 -570 
L 1171 -570 
Q 1242 154 1242 864 
L 1242 2835 
Q 1005 2406 582 1786 
Q 486 2144 256 2394 
Q 691 2848 1091 3577 
Q 1491 4307 1709 5235 
Q 2016 5075 2355 5018 
Q 2464 4998 2464 4950 
Q 2464 4902 2339 4822 
Q 2214 4742 1779 3840 
z
M 6131 762 
Q 6022 218 5872 -28 
Q 5722 -275 5200 -348 
Q 4678 -422 3929 -422 
Q 3181 -422 2841 -275 
Q 2502 -128 2502 320 
Q 2502 582 2630 912 
Q 2758 1242 3187 1958 
Q 3616 2675 4518 4051 
L 3981 4051 
Q 2970 4051 2560 4019 
L 2560 4621 
Q 2912 4582 4054 4582 
Q 5197 4582 5568 4646 
L 5568 4179 
Q 5338 4115 4982 3718 
Q 4627 3322 4140 2522 
Q 3654 1722 3376 1194 
Q 3098 666 3098 390 
Q 3098 250 3222 186 
Q 3347 122 3852 122 
Q 4358 122 4710 157 
Q 5062 192 5190 256 
Q 5318 320 5385 509 
Q 5453 698 5491 1146 
Q 5664 966 5789 880 
Q 5914 794 6131 762 
z
" transform="scale(0.015625)"/>
        <path id="STHeiti-ff09" d="M 1120 5267 
Q 1747 4346 1984 3683 
Q 2221 3021 2221 2253 
Q 2221 1485 1961 768 
Q 1702 51 1139 -749 
L 749 -749 
Q 1312 282 1465 912 
Q 1619 1542 1619 2426 
Q 1619 3046 1440 3657 
Q 1261 4269 742 5267 
L 1120 5267 
z
" transform="scale(0.015625)"/>
       </defs>
       <use xlink:href="#STHeiti-32"/>
       <use xlink:href="#STHeiti-30" transform="translate(55.399994 0)"/>
       <use xlink:href="#STHeiti-33" transform="translate(110.799988 0)"/>
       <use xlink:href="#STHeiti-30" transform="translate(166.199982 0)"/>
       <use xlink:href="#STHeiti-45" transform="translate(221.599976 0)"/>
       <use xlink:href="#STHeiti-8425" transform="translate(275.199966 0)"/>
       <use xlink:href="#STHeiti-6536" transform="translate(375.199951 0)"/>
       <use xlink:href="#STHeiti-ff08" transform="translate(475.199936 0)"/>
       <use xlink:href="#STHeiti-4ebf" transform="translate(575.199921 0)"/>
       <use xlink:href="#STHeiti-ff09" transform="translate(675.199905 0)"/>
      </g>
     </g>
    </g>
    <g id="xtick_2">
     <g id="line2d_3">
      <path d="M 227.14802 291.170464 
L 227.14802 7.2 
" clip-path="url(#pee6fc32351)" style="fill: none; stroke: #b0b0b0; stroke-opacity: 0.3; stroke-width: 0.8; stroke-linecap: square"/>
     </g>
     <g id="line2d_4">
      <g>
       <use xlink:href="#me785aa01f9" x="227.14802" y="291.170464" style="stroke: #000000; stroke-width: 0.8"/>
      </g>
     </g>
     <g id="text_2">
      <!-- 净利率 -->
      <g transform="translate(200.496945 320.150087) rotate(-30) scale(0.1 -0.1)">
       <defs>
        <path id="STHeiti-51c0" d="M 5510 2010 
L 5510 1325 
Q 5510 781 5549 550 
L 4986 550 
L 4986 934 
L 3878 934 
L 3878 -147 
Q 3878 -339 3795 -441 
Q 3712 -544 3478 -601 
Q 3245 -659 2758 -710 
Q 2765 -384 2630 -90 
Q 2944 -115 3094 -115 
Q 3245 -115 3289 -70 
Q 3334 -26 3334 115 
L 3334 934 
Q 2163 934 1926 909 
L 1926 1389 
Q 2272 1357 3334 1357 
L 3334 2016 
Q 2490 2016 1754 1965 
L 1754 2496 
Q 2381 2451 3334 2451 
L 3334 3110 
Q 2771 3104 2387 3046 
L 2387 3533 
Q 2816 3514 3661 3514 
L 4205 4224 
L 2874 4224 
Q 2470 3680 1939 3046 
Q 1786 3200 1530 3270 
Q 2362 4109 2842 5306 
Q 3187 5184 3526 5133 
Q 3610 5120 3610 5078 
Q 3610 5037 3530 5014 
Q 3450 4992 3174 4634 
L 4058 4634 
Q 4659 4634 5101 4691 
L 4243 3514 
Q 5306 3520 5536 3558 
Q 5510 3251 5510 2675 
L 5510 2470 
L 6131 2509 
L 6131 1984 
Q 5920 1997 5510 2010 
z
M 4986 2451 
L 4986 3110 
L 3878 3110 
L 3878 2451 
L 4986 2451 
z
M 4986 1357 
L 4986 2016 
L 3878 2016 
L 3878 1357 
L 4986 1357 
z
M 1523 3693 
L 1011 3392 
Q 806 3942 448 4454 
L 909 4762 
Q 1325 4096 1523 3693 
z
M 1613 2080 
Q 1254 1242 819 -70 
Q 595 230 211 365 
Q 410 646 691 1299 
Q 973 1952 1088 2400 
Q 1293 2170 1613 2080 
z
" transform="scale(0.015625)"/>
        <path id="STHeiti-5229" d="M 4909 5165 
Q 5165 5107 5555 5107 
Q 5645 5107 5645 5065 
Q 5645 5024 5577 4976 
Q 5510 4928 5510 4768 
L 5510 198 
Q 5510 -90 5433 -227 
Q 5357 -365 5120 -445 
Q 4883 -525 4352 -595 
Q 4333 -275 4070 64 
Q 4269 51 4483 51 
Q 4698 51 4826 112 
Q 4954 173 4954 435 
L 4954 4109 
Q 4954 4826 4909 5165 
z
M 1658 2016 
Q 1325 1210 730 422 
Q 550 698 307 909 
Q 1267 1837 1594 2880 
Q 742 2867 410 2835 
L 410 3392 
Q 749 3354 1658 3341 
L 1658 4218 
Q 1120 4134 685 4096 
Q 621 4320 442 4576 
Q 864 4576 1561 4688 
Q 2259 4800 2912 5011 
Q 2970 4851 3072 4697 
Q 3174 4544 3244 4489 
Q 3315 4435 3315 4403 
Q 3315 4352 3244 4365 
Q 3174 4378 3091 4378 
Q 2778 4378 2182 4301 
L 2182 3341 
Q 3066 3354 3386 3392 
L 3386 2835 
Q 3040 2867 2182 2880 
L 2182 525 
Q 2182 90 2227 -576 
L 1587 -576 
Q 1658 128 1658 525 
L 1658 2016 
z
M 3725 4186 
Q 3968 4134 4326 4134 
Q 4403 4134 4403 4099 
Q 4403 4064 4345 4029 
Q 4288 3994 4288 3834 
L 4288 1766 
Q 4288 1357 4314 966 
L 3725 966 
Q 3750 1382 3750 1766 
L 3750 3482 
Q 3750 3968 3725 4186 
z
M 3322 1485 
L 2874 1165 
Q 2630 1613 2227 2176 
L 2605 2458 
Q 2957 1933 3322 1485 
z
" transform="scale(0.015625)"/>
        <path id="STHeiti-7387" d="M 3066 4621 
Q 2970 4934 2867 5152 
L 3526 5254 
Q 3546 4902 3616 4621 
Q 5018 4627 5837 4685 
L 5837 4115 
Q 4941 4179 3277 4179 
Q 1613 4179 678 4115 
L 678 4685 
Q 1568 4621 3066 4621 
z
M 3046 2790 
L 2662 2739 
Q 2195 2675 2106 2637 
Q 2106 2854 2010 3059 
Q 2336 3155 2842 4128 
Q 3110 3955 3251 3913 
Q 3392 3872 3392 3846 
Q 3392 3821 3251 3769 
Q 3110 3718 2944 3497 
Q 2778 3277 2573 3085 
L 3373 3142 
Q 3686 3501 3859 3770 
Q 4077 3546 4307 3443 
Q 4397 3405 4397 3360 
Q 4397 3315 4307 3308 
Q 4218 3302 3965 3126 
Q 3712 2950 3411 2636 
Q 3110 2323 2624 1952 
L 3808 2035 
Q 3661 2278 3552 2413 
L 3942 2656 
Q 4211 2176 4595 1600 
L 4141 1389 
Q 4109 1466 4000 1683 
L 3456 1651 
L 3456 1018 
Q 5126 1018 5990 1075 
L 5990 518 
Q 5126 576 3456 576 
Q 3469 -160 3520 -691 
L 2886 -691 
Q 2944 -70 2944 576 
Q 1325 563 506 518 
L 506 1075 
Q 1331 1030 2950 1018 
L 2950 1613 
Q 2419 1574 2093 1491 
Q 2048 1786 1933 1965 
Q 2157 1965 2377 2147 
Q 2598 2330 3046 2790 
z
M 5248 3898 
Q 5453 3629 5709 3475 
Q 5760 3443 5760 3414 
Q 5760 3386 5677 3386 
Q 5594 3386 5389 3296 
Q 5184 3206 4755 2803 
Q 4595 3002 4384 3117 
Q 4934 3482 5248 3898 
z
M 1958 3238 
L 1587 2848 
Q 1261 3219 877 3507 
L 1222 3859 
Q 1517 3558 1958 3238 
z
M 5811 1933 
L 5414 1485 
Q 5030 1920 4461 2291 
L 4826 2675 
Q 5242 2317 5811 1933 
z
M 2003 2170 
Q 1824 2099 1024 1350 
Q 890 1645 704 1888 
Q 1018 2003 1357 2272 
Q 1696 2541 1798 2662 
Q 1830 2413 2003 2170 
z
" transform="scale(0.015625)"/>
       </defs>
       <use xlink:href="#STHeiti-51c0"/>
       <use xlink:href="#STHeiti-5229" transform="translate(99.999985 0)"/>
       <use xlink:href="#STHeiti-7387" transform="translate(199.999969 0)"/>
      </g>
     </g>
    </g>
    <g id="xtick_3">
     <g id="line2d_5">
      <path d="M 375.260127 291.170464 
L 375.260127 7.2 
" clip-path="url(#pee6fc32351)" style="fill: none; stroke: #b0b0b0; stroke-opacity: 0.3; stroke-width: 0.8; stroke-linecap: square"/>
     </g>
     <g id="line2d_6">
      <g>
       <use xlink:href="#me785aa01f9" x="375.260127" y="291.170464" style="stroke: #000000; stroke-width: 0.8"/>
      </g>
     </g>
     <g id="text_3">
      <!-- 归母净利（亿） -->
      <g transform="translate(313.968036 340.202861) rotate(-30) scale(0.1 -0.1)">
       <defs>
        <path id="STHeiti-5f52" d="M 1882 5242 
Q 2170 5146 2586 5146 
Q 2688 5146 2688 5098 
Q 2688 5050 2618 4998 
Q 2509 4928 2490 4288 
Q 2464 2573 2429 2003 
Q 2394 1434 2272 1011 
Q 2150 589 1833 173 
Q 1517 -243 960 -659 
Q 742 -326 454 -230 
Q 1018 122 1302 381 
Q 1587 640 1718 960 
Q 1850 1280 1894 1862 
Q 1939 2445 1939 3424 
Q 1939 5024 1882 5242 
z
M 5126 2611 
L 5126 4045 
Q 3136 4045 2816 3994 
L 2816 4602 
Q 3302 4531 4288 4531 
Q 5274 4531 5734 4608 
Q 5683 4250 5683 3603 
L 5683 742 
Q 5683 154 5741 -435 
L 5126 -435 
L 5126 128 
Q 2995 128 2637 70 
L 2637 672 
Q 3008 614 5126 614 
L 5126 2144 
Q 3526 2144 2957 2080 
L 2957 2675 
Q 3462 2611 5126 2611 
z
M 640 4378 
Q 928 4339 1293 4339 
Q 1382 4339 1382 4307 
Q 1382 4275 1308 4230 
Q 1235 4186 1235 3853 
L 1235 1043 
L 698 1043 
L 698 3347 
Q 698 4109 640 4378 
z
" transform="scale(0.015625)"/>
        <path id="STHeiti-6bcd" d="M 1254 2810 
L 1402 4877 
Q 2413 4832 3398 4832 
Q 4384 4832 5165 4896 
L 5120 2803 
Q 5574 2822 6048 2874 
L 6048 2227 
Q 5619 2272 5107 2285 
L 5082 883 
Q 5600 896 5850 947 
L 5850 326 
Q 5651 352 5069 352 
Q 5056 -141 4870 -323 
Q 4685 -506 4032 -640 
Q 4013 -314 3629 13 
Q 3949 -26 4147 -26 
Q 4346 -26 4426 57 
Q 4506 141 4512 358 
L 2765 358 
Q 1837 358 1082 288 
L 1222 2285 
Q 768 2272 365 2227 
L 365 2874 
Q 845 2816 1254 2810 
z
M 1798 2803 
L 4563 2803 
L 4589 4339 
L 1901 4339 
L 1798 2803 
z
M 2720 3782 
L 3245 4038 
Q 3430 3757 3693 3315 
L 3194 2963 
Q 2982 3418 2720 3782 
z
M 4550 2291 
L 1766 2291 
L 1677 870 
L 4525 870 
L 4550 2291 
z
M 2694 1798 
L 3219 2054 
Q 3462 1677 3674 1274 
L 3142 1011 
Q 3008 1427 2694 1798 
z
" transform="scale(0.015625)"/>
       </defs>
       <use xlink:href="#STHeiti-5f52"/>
       <use xlink:href="#STHeiti-6bcd" transform="translate(99.999985 0)"/>
       <use xlink:href="#STHeiti-51c0" transform="translate(199.999969 0)"/>
       <use xlink:href="#STHeiti-5229" transform="translate(299.999954 0)"/>
       <use xlink:href="#STHeiti-ff08" transform="translate(399.999939 0)"/>
       <use xlink:href="#STHeiti-4ebf" transform="translate(499.999924 0)"/>
       <use xlink:href="#STHeiti-ff09" transform="translate(599.999908 0)"/>
      </g>
     </g>
    </g>
    <g id="xtick_4">
     <g id="line2d_7">
      <path d="M 523.372234 291.170464 
L 523.372234 7.2 
" clip-path="url(#pee6fc32351)" style="fill: none; stroke: #b0b0b0; stroke-opacity: 0.3; stroke-width: 0.8; stroke-linecap: square"/>
     </g>
     <g id="line2d_8">
      <g>
       <use xlink:href="#me785aa01f9" x="523.372234" y="291.170464" style="stroke: #000000; stroke-width: 0.8"/>
      </g>
     </g>
     <g id="text_4">
      <!-- 适用PS倍数 -->
      <g transform="translate(478.621228 330.513485) rotate(-30) scale(0.1 -0.1)">
       <defs>
        <path id="STHeiti-9002" d="M 3661 4390 
Q 2906 4294 2458 4262 
Q 2438 4538 2221 4730 
Q 2957 4704 3817 4841 
Q 4678 4979 5210 5190 
Q 5306 4960 5536 4710 
Q 5606 4634 5606 4595 
Q 5606 4557 5526 4576 
Q 5446 4595 5283 4595 
Q 5120 4595 4954 4570 
L 4154 4454 
L 4154 3686 
Q 5210 3693 5875 3744 
L 5875 3200 
Q 5171 3251 4154 3251 
L 4154 2528 
Q 5152 2534 5440 2579 
Q 5402 2355 5402 2054 
L 5402 1094 
Q 5402 813 5446 538 
L 4909 538 
L 4909 838 
L 2931 838 
L 2931 422 
L 2406 422 
Q 2451 723 2451 986 
L 2451 2054 
Q 2451 2349 2406 2579 
Q 2784 2534 3661 2528 
L 3661 3251 
Q 2656 3245 1997 3194 
L 1997 3744 
Q 2637 3693 3661 3686 
L 3661 4390 
z
M 4909 1254 
L 4909 2106 
L 2931 2106 
L 2931 1254 
L 4909 1254 
z
M 1818 3955 
L 1286 3635 
Q 1030 4192 640 4608 
L 1133 4928 
Q 1421 4486 1818 3955 
z
M 1581 614 
Q 1805 570 2374 275 
Q 2714 102 3786 102 
Q 4858 102 6016 269 
Q 5811 -19 5811 -403 
Q 4749 -435 3977 -435 
Q 3206 -435 2768 -342 
Q 2330 -250 1894 6 
Q 1562 205 1430 205 
Q 1299 205 1174 70 
Q 1050 -64 826 -410 
Q 608 -141 371 13 
Q 813 454 1069 557 
L 1069 2496 
Q 512 2496 403 2470 
L 403 3008 
Q 723 2957 1052 2957 
Q 1382 2957 1638 3008 
Q 1581 2746 1581 2253 
L 1581 614 
z
" transform="scale(0.015625)"/>
        <path id="STHeiti-7528" d="M 3501 1491 
L 3501 1024 
Q 3501 454 3546 -70 
L 2931 -70 
Q 2976 467 2976 1024 
L 2976 1491 
L 1709 1491 
Q 1587 352 1024 -570 
Q 774 -352 461 -230 
Q 1203 621 1203 2310 
L 1203 3955 
Q 1203 4557 1152 4864 
Q 2048 4819 3421 4819 
Q 4794 4819 5530 4864 
Q 5472 4525 5472 3955 
L 5472 134 
Q 5472 -122 5417 -224 
Q 5363 -326 5164 -387 
Q 4966 -448 4435 -531 
Q 4365 -192 4230 83 
Q 4666 77 4803 134 
Q 4941 192 4941 358 
L 4941 1491 
L 3501 1491 
z
M 1728 3405 
L 2976 3405 
L 2976 4346 
L 1728 4346 
L 1728 3405 
z
M 3501 3405 
L 4941 3405 
L 4941 4346 
L 3501 4346 
L 3501 3405 
z
M 2976 2938 
L 1728 2938 
L 1728 1958 
L 2976 1958 
L 2976 2938 
z
M 4941 2938 
L 3501 2938 
L 3501 1958 
L 4941 1958 
L 4941 2938 
z
" transform="scale(0.015625)"/>
        <path id="STHeiti-50" d="M 557 4979 
L 1472 4979 
Q 2285 4979 2534 4915 
Q 2784 4851 2992 4691 
Q 3200 4531 3315 4291 
Q 3430 4051 3430 3757 
Q 3430 3283 3174 2982 
Q 2918 2682 2531 2602 
Q 2144 2522 1344 2522 
L 1018 2522 
L 1018 384 
L 557 384 
L 557 4979 
z
M 1018 4531 
L 1018 2963 
L 1792 2963 
Q 2490 2950 2720 3190 
Q 2950 3430 2950 3757 
Q 2950 4531 1830 4531 
L 1018 4531 
z
" transform="scale(0.015625)"/>
        <path id="STHeiti-53" d="M 83 1242 
L 474 1472 
Q 883 717 1427 717 
Q 1779 717 2028 941 
Q 2278 1165 2278 1498 
Q 2278 1760 2067 2029 
Q 1856 2298 1366 2666 
Q 877 3034 707 3216 
Q 538 3398 458 3606 
Q 378 3814 378 4026 
Q 378 4474 694 4784 
Q 1011 5094 1491 5094 
Q 1869 5094 2150 4905 
Q 2432 4717 2694 4346 
L 2323 4058 
Q 2144 4301 1952 4461 
Q 1760 4621 1481 4621 
Q 1203 4621 1027 4454 
Q 851 4288 851 4032 
Q 851 3776 1008 3587 
Q 1165 3398 1718 2988 
Q 2272 2579 2525 2233 
Q 2778 1888 2778 1504 
Q 2778 1005 2390 637 
Q 2003 269 1491 269 
Q 589 269 83 1242 
z
" transform="scale(0.015625)"/>
        <path id="STHeiti-500d" d="M 4557 4602 
L 3891 4410 
Q 3821 4762 3610 5094 
L 4250 5261 
Q 4378 4877 4557 4602 
z
M 1114 2925 
Q 896 2528 640 2131 
Q 486 2381 243 2534 
Q 768 3226 1037 3747 
Q 1306 4269 1562 5235 
Q 1811 5114 2125 5043 
Q 2240 5018 2240 4986 
Q 2240 4954 2137 4867 
Q 2035 4781 1632 3942 
L 1632 -614 
L 1043 -614 
Q 1114 83 1114 762 
L 1114 2925 
z
M 5882 3866 
Q 5152 3910 4077 3910 
Q 3002 3910 2426 3866 
L 2426 4403 
Q 3002 4358 4154 4358 
Q 5306 4358 5882 4403 
L 5882 3866 
z
M 4749 2726 
Q 5696 2726 6080 2771 
L 6080 2227 
Q 5408 2291 4077 2291 
Q 2746 2291 2086 2227 
L 2086 2771 
Q 2592 2726 3232 2726 
L 4288 2726 
Q 4614 3354 4672 3770 
Q 5018 3635 5286 3578 
Q 5350 3565 5350 3526 
Q 5350 3488 5264 3440 
Q 5178 3392 5078 3254 
Q 4979 3117 4749 2726 
z
M 3738 3002 
L 3194 2810 
Q 3085 3219 2874 3533 
L 3405 3725 
Q 3520 3418 3738 3002 
z
M 3110 19 
L 3110 -608 
L 2541 -608 
Q 2586 -243 2586 192 
L 2586 1114 
Q 2586 1536 2547 1798 
Q 2893 1760 4070 1760 
Q 5248 1760 5581 1798 
Q 5536 1485 5536 1114 
L 5536 314 
Q 5536 -77 5581 -486 
L 5018 -486 
L 5018 19 
L 3110 19 
z
M 5018 435 
L 5018 1350 
L 3110 1350 
L 3110 435 
L 5018 435 
z
" transform="scale(0.015625)"/>
        <path id="STHeiti-6570" d="M 4640 480 
Q 4173 -51 3194 -467 
Q 3059 -237 2803 -26 
Q 3238 70 3673 323 
Q 4109 576 4365 890 
Q 3994 1549 3962 2835 
Q 3744 2458 3520 2176 
Q 3366 2419 3206 2522 
Q 3584 3040 3837 3747 
Q 4090 4454 4147 5171 
Q 4486 5062 4800 5037 
Q 4877 5030 4877 4988 
Q 4877 4947 4781 4896 
Q 4704 4858 4480 4128 
L 5216 4128 
Q 5747 4128 6003 4179 
L 6003 3661 
Q 5850 3680 5562 3699 
Q 5440 1773 4934 896 
Q 5254 518 6112 250 
Q 5856 6 5754 -365 
Q 4902 141 4640 480 
z
M 4627 1363 
Q 5018 2253 5088 3706 
L 4352 3706 
Q 4237 3328 3981 2874 
L 4384 2886 
Q 4384 1907 4627 1363 
z
M 1549 3526 
Q 1222 3520 589 3488 
L 589 3942 
Q 1158 3898 1850 3898 
L 1850 4499 
Q 1850 4800 1786 5165 
Q 2042 5139 2362 5139 
Q 2458 5139 2458 5094 
Q 2458 5050 2406 5030 
Q 2355 5011 2336 4976 
Q 2317 4941 2317 4845 
L 2317 3898 
Q 2758 3904 3507 3942 
L 3507 3488 
Q 2810 3526 2317 3533 
Q 2317 2970 2362 2515 
L 1805 2515 
Q 1850 3034 1850 3456 
Q 1632 3014 1401 2745 
Q 1171 2477 755 2189 
Q 608 2406 282 2573 
Q 1030 2816 1549 3526 
z
M 2861 4922 
Q 3155 4826 3386 4794 
Q 3462 4781 3462 4755 
Q 3462 4730 3388 4701 
Q 3315 4672 3228 4521 
Q 3142 4371 3014 4122 
Q 2835 4166 2560 4186 
Q 2746 4461 2861 4922 
z
M 1510 4230 
L 973 4154 
Q 966 4461 883 4806 
L 1389 4870 
Q 1459 4595 1510 4230 
z
M 3360 2790 
L 3046 2477 
Q 2765 2816 2464 3078 
L 2790 3328 
Q 3034 3117 3360 2790 
z
M 2899 755 
Q 3168 666 3450 525 
Q 3251 314 3168 128 
Q 2886 288 2637 390 
Q 2394 128 1984 -51 
Q 1574 -230 781 -410 
Q 627 -115 346 109 
Q 1619 134 2157 557 
Q 1709 691 1030 781 
Q 1248 1165 1408 1555 
Q 800 1549 531 1504 
L 531 1965 
Q 858 1939 1536 1926 
Q 1600 2118 1696 2458 
Q 1946 2355 2214 2336 
Q 2342 2323 2342 2294 
Q 2342 2266 2243 2198 
Q 2144 2131 2035 1926 
L 2899 1926 
Q 3162 1926 3341 1971 
Q 3123 1158 2899 755 
z
M 1862 1555 
L 1626 1043 
Q 2118 966 2470 883 
Q 2662 1165 2726 1555 
L 1862 1555 
z
" transform="scale(0.015625)"/>
       </defs>
       <use xlink:href="#STHeiti-9002"/>
       <use xlink:href="#STHeiti-7528" transform="translate(99.999985 0)"/>
       <use xlink:href="#STHeiti-50" transform="translate(199.999969 0)"/>
       <use xlink:href="#STHeiti-53" transform="translate(259.199966 0)"/>
       <use xlink:href="#STHeiti-500d" transform="translate(308.999954 0)"/>
       <use xlink:href="#STHeiti-6570" transform="translate(408.999939 0)"/>
      </g>
     </g>
    </g>
    <g id="xtick_5">
     <g id="line2d_9">
      <path d="M 671.48434 291.170464 
L 671.48434 7.2 
" clip-path="url(#pee6fc32351)" style="fill: none; stroke: #b0b0b0; stroke-opacity: 0.3; stroke-width: 0.8; stroke-linecap: square"/>
     </g>
     <g id="line2d_10">
      <g>
       <use xlink:href="#me785aa01f9" x="671.48434" y="291.170464" style="stroke: #000000; stroke-width: 0.8"/>
      </g>
     </g>
     <g id="text_5">
      <!-- 企业价值（亿） -->
      <g transform="translate(610.19225 340.18527) rotate(-30) scale(0.1 -0.1)">
       <defs>
        <path id="STHeiti-4f01" d="M 3258 4704 
Q 2746 3949 2182 3440 
Q 1619 2931 762 2451 
Q 550 2739 275 2931 
Q 1146 3187 1942 3923 
Q 2739 4659 2925 5293 
Q 3296 5203 3616 5165 
Q 3699 5152 3699 5104 
Q 3699 5056 3552 5005 
Q 3981 4320 4662 3897 
Q 5344 3475 6163 3405 
Q 5894 3149 5722 2771 
Q 4749 3091 4205 3523 
Q 3661 3955 3258 4704 
z
M 3667 2112 
Q 4947 2112 5357 2170 
L 5357 1594 
Q 5011 1645 3667 1645 
L 3667 256 
Q 4979 256 5933 333 
L 5933 -307 
Q 5018 -237 3203 -237 
Q 1389 -237 461 -307 
L 461 333 
Q 1082 275 1581 262 
L 1581 1581 
Q 1581 2413 1536 2624 
Q 1779 2586 2182 2586 
Q 2253 2586 2253 2554 
Q 2253 2522 2189 2483 
Q 2106 2438 2106 2266 
L 2106 256 
L 3142 256 
L 3142 2349 
Q 3142 3098 3091 3392 
Q 3302 3360 3491 3357 
Q 3680 3354 3789 3354 
Q 3898 3354 3898 3318 
Q 3898 3283 3830 3248 
Q 3763 3213 3715 3107 
Q 3667 3002 3667 2899 
L 3667 2112 
z
" transform="scale(0.015625)"/>
        <path id="STHeiti-4e1a" d="M 2310 301 
L 2310 4198 
Q 2310 4672 2259 5107 
Q 2509 5056 2918 5056 
Q 3002 5056 3002 5018 
Q 3002 4986 2925 4925 
Q 2848 4864 2848 4742 
L 2848 301 
L 3578 301 
L 3578 4186 
Q 3578 4589 3526 5094 
Q 3725 5050 4186 5050 
Q 4269 5050 4269 5014 
Q 4269 4979 4192 4915 
Q 4115 4851 4115 4730 
L 4115 301 
Q 5504 301 6035 358 
L 6035 -250 
Q 5658 -192 3325 -192 
Q 992 -192 499 -250 
L 499 358 
Q 1069 301 2310 301 
z
M 5114 4006 
Q 5472 3840 5830 3808 
Q 5901 3802 5901 3770 
Q 5901 3738 5833 3696 
Q 5766 3654 5654 3433 
Q 5542 3213 5478 2995 
Q 5222 2093 4941 1363 
Q 4691 1517 4390 1485 
Q 4851 2419 5114 4006 
z
M 2048 1523 
L 1389 1306 
Q 1158 2650 614 3603 
L 1203 3853 
Q 1574 2662 2048 1523 
z
" transform="scale(0.015625)"/>
        <path id="STHeiti-4ef7" d="M 4051 4416 
Q 3654 3718 3264 3219 
Q 2874 2720 2227 2163 
Q 2054 2374 1754 2547 
Q 2547 3014 3027 3721 
Q 3507 4429 3661 5210 
Q 4141 5005 4333 4986 
Q 4403 4979 4403 4928 
Q 4403 4877 4288 4781 
Q 4730 3488 6240 3008 
Q 5965 2688 5850 2387 
Q 5126 2778 4707 3258 
Q 4288 3738 4051 4416 
z
M 1139 2688 
Q 947 2394 666 2035 
Q 480 2317 211 2470 
Q 717 2899 1072 3657 
Q 1427 4416 1517 5133 
Q 1824 4992 2144 4934 
Q 2266 4915 2266 4870 
Q 2266 4826 2205 4771 
Q 2144 4717 2099 4633 
Q 2054 4550 1939 4269 
L 1677 3654 
L 1677 -614 
L 1069 -614 
Q 1139 83 1139 762 
L 1139 2688 
z
M 4461 2829 
Q 4774 2771 5101 2771 
Q 5210 2771 5210 2736 
Q 5210 2701 5136 2643 
Q 5062 2586 5062 2157 
L 5062 576 
Q 5062 141 5114 -595 
L 4461 -595 
Q 4518 147 4518 576 
L 4518 1837 
Q 4518 2445 4461 2829 
z
M 3014 2758 
Q 3136 2720 3648 2720 
Q 3693 2720 3693 2701 
Q 3693 2682 3661 2640 
Q 3629 2598 3597 2384 
Q 3565 2170 3552 1901 
Q 3514 947 3254 403 
Q 2995 -141 2374 -672 
Q 2227 -512 1798 -294 
Q 2451 109 2745 633 
Q 3040 1158 3040 2118 
Q 3040 2406 3014 2758 
z
" transform="scale(0.015625)"/>
        <path id="STHeiti-503c" d="M 2438 109 
L 2438 2912 
Q 2438 3322 2406 3610 
Q 2861 3571 3507 3565 
Q 3552 3834 3571 4186 
Q 2490 4173 2086 4147 
L 2086 4646 
Q 2586 4602 3597 4595 
Q 3610 5024 3590 5229 
Q 3840 5184 4294 5184 
Q 4346 5184 4346 5155 
Q 4346 5126 4301 5088 
Q 4192 4998 4128 4595 
Q 5440 4595 6022 4646 
L 6022 4147 
Q 5338 4192 4077 4186 
L 4013 3565 
Q 5043 3565 5434 3610 
Q 5408 3405 5408 2912 
L 5408 102 
Q 5805 109 6118 147 
L 6118 -365 
Q 5754 -320 3965 -320 
Q 2176 -320 1830 -358 
L 1830 147 
Q 2106 122 2438 109 
z
M 4915 2688 
L 4915 3155 
L 2925 3155 
L 2925 2688 
L 4915 2688 
z
M 2925 2323 
L 2925 1824 
L 4915 1824 
L 4915 2323 
L 2925 2323 
z
M 2925 1466 
L 2925 973 
L 4915 973 
L 4915 1466 
L 2925 1466 
z
M 4915 102 
L 4915 608 
L 2925 608 
L 2925 102 
L 4915 102 
z
M 1549 4026 
L 1549 -627 
L 966 -627 
Q 1037 70 1037 749 
L 1037 3066 
Q 845 2726 595 2349 
Q 448 2579 186 2752 
Q 685 3354 944 3933 
Q 1203 4512 1408 5216 
Q 1786 5024 1926 4995 
Q 2067 4966 2067 4918 
Q 2067 4870 1984 4825 
Q 1901 4781 1766 4493 
L 1549 4026 
z
" transform="scale(0.015625)"/>
       </defs>
       <use xlink:href="#STHeiti-4f01"/>
       <use xlink:href="#STHeiti-4e1a" transform="translate(99.999985 0)"/>
       <use xlink:href="#STHeiti-4ef7" transform="translate(199.999969 0)"/>
       <use xlink:href="#STHeiti-503c" transform="translate(299.999954 0)"/>
       <use xlink:href="#STHeiti-ff08" transform="translate(399.999939 0)"/>
       <use xlink:href="#STHeiti-4ebf" transform="translate(499.999924 0)"/>
       <use xlink:href="#STHeiti-ff09" transform="translate(599.999908 0)"/>
      </g>
     </g>
    </g>
   </g>
   <g id="matplotlib.axis_2">
    <g id="ytick_1">
     <g id="line2d_11">
      <path d="M 49.413492 278.262716 
L 701.106762 278.262716 
" clip-path="url(#pee6fc32351)" style="fill: none; stroke: #b0b0b0; stroke-opacity: 0.3; stroke-width: 0.8; stroke-linecap: square"/>
     </g>
     <g id="line2d_12">
      <defs>
       <path id="m029632b20e" d="M 0 0 
L -3.5 0 
" style="stroke: #000000; stroke-width: 0.8"/>
      </defs>
      <g>
       <use xlink:href="#m029632b20e" x="49.413492" y="278.262716" style="stroke: #000000; stroke-width: 0.8"/>
      </g>
     </g>
     <g id="text_6">
      <!-- -5 -->
      <g transform="translate(33.552554 282.242403) scale(0.1 -0.1)">
       <defs>
        <path id="STHeiti-2d" d="M 205 2304 
L 1920 2304 
L 1920 1920 
L 205 1920 
L 205 2304 
z
" transform="scale(0.015625)"/>
        <path id="STHeiti-35" d="M 3149 4979 
L 3149 4544 
L 1510 4544 
L 1280 3290 
Q 1587 3379 1856 3379 
Q 2458 3379 2861 2953 
Q 3264 2528 3264 1862 
Q 3264 1197 2825 733 
Q 2387 269 1664 269 
Q 1114 269 726 598 
Q 339 928 262 1498 
L 730 1498 
Q 813 1114 1075 909 
Q 1338 704 1683 704 
Q 2138 704 2467 1043 
Q 2797 1382 2797 1888 
Q 2797 2349 2509 2646 
Q 2221 2944 1757 2944 
Q 1293 2944 730 2701 
L 1158 4979 
L 3149 4979 
z
" transform="scale(0.015625)"/>
       </defs>
       <use xlink:href="#STHeiti-2d"/>
       <use xlink:href="#STHeiti-35" transform="translate(33.199997 0)"/>
      </g>
     </g>
    </g>
    <g id="ytick_2">
     <g id="line2d_13">
      <path d="M 49.413492 245.993345 
L 701.106762 245.993345 
" clip-path="url(#pee6fc32351)" style="fill: none; stroke: #b0b0b0; stroke-opacity: 0.3; stroke-width: 0.8; stroke-linecap: square"/>
     </g>
     <g id="line2d_14">
      <g>
       <use xlink:href="#m029632b20e" x="49.413492" y="245.993345" style="stroke: #000000; stroke-width: 0.8"/>
      </g>
     </g>
     <g id="text_7">
      <!-- 0 -->
      <g transform="translate(36.872867 249.973032) scale(0.1 -0.1)">
       <use xlink:href="#STHeiti-30"/>
      </g>
     </g>
    </g>
    <g id="ytick_3">
     <g id="line2d_15">
      <path d="M 49.413492 213.723974 
L 701.106762 213.723974 
" clip-path="url(#pee6fc32351)" style="fill: none; stroke: #b0b0b0; stroke-opacity: 0.3; stroke-width: 0.8; stroke-linecap: square"/>
     </g>
     <g id="line2d_16">
      <g>
       <use xlink:href="#m029632b20e" x="49.413492" y="213.723974" style="stroke: #000000; stroke-width: 0.8"/>
      </g>
     </g>
     <g id="text_8">
      <!-- 5 -->
      <g transform="translate(36.872867 217.703661) scale(0.1 -0.1)">
       <use xlink:href="#STHeiti-35"/>
      </g>
     </g>
    </g>
    <g id="ytick_4">
     <g id="line2d_17">
      <path d="M 49.413492 181.454603 
L 701.106762 181.454603 
" clip-path="url(#pee6fc32351)" style="fill: none; stroke: #b0b0b0; stroke-opacity: 0.3; stroke-width: 0.8; stroke-linecap: square"/>
     </g>
     <g id="line2d_18">
      <g>
       <use xlink:href="#m029632b20e" x="49.413492" y="181.454603" style="stroke: #000000; stroke-width: 0.8"/>
      </g>
     </g>
     <g id="text_9">
      <!-- 10 -->
      <g transform="translate(31.332242 185.43429) scale(0.1 -0.1)">
       <defs>
        <path id="STHeiti-31" d="M 1184 4979 
L 2086 4979 
L 2086 384 
L 1632 384 
L 1632 4531 
L 909 4531 
L 1184 4979 
z
" transform="scale(0.015625)"/>
       </defs>
       <use xlink:href="#STHeiti-31"/>
       <use xlink:href="#STHeiti-30" transform="translate(55.399994 0)"/>
      </g>
     </g>
    </g>
    <g id="ytick_5">
     <g id="line2d_19">
      <path d="M 49.413492 149.185232 
L 701.106762 149.185232 
" clip-path="url(#pee6fc32351)" style="fill: none; stroke: #b0b0b0; stroke-opacity: 0.3; stroke-width: 0.8; stroke-linecap: square"/>
     </g>
     <g id="line2d_20">
      <g>
       <use xlink:href="#m029632b20e" x="49.413492" y="149.185232" style="stroke: #000000; stroke-width: 0.8"/>
      </g>
     </g>
     <g id="text_10">
      <!-- 15 -->
      <g transform="translate(31.332242 153.164919) scale(0.1 -0.1)">
       <use xlink:href="#STHeiti-31"/>
       <use xlink:href="#STHeiti-35" transform="translate(55.399994 0)"/>
      </g>
     </g>
    </g>
    <g id="ytick_6">
     <g id="line2d_21">
      <path d="M 49.413492 116.915861 
L 701.106762 116.915861 
" clip-path="url(#pee6fc32351)" style="fill: none; stroke: #b0b0b0; stroke-opacity: 0.3; stroke-width: 0.8; stroke-linecap: square"/>
     </g>
     <g id="line2d_22">
      <g>
       <use xlink:href="#m029632b20e" x="49.413492" y="116.915861" style="stroke: #000000; stroke-width: 0.8"/>
      </g>
     </g>
     <g id="text_11">
      <!-- 20 -->
      <g transform="translate(31.332242 120.895549) scale(0.1 -0.1)">
       <use xlink:href="#STHeiti-32"/>
       <use xlink:href="#STHeiti-30" transform="translate(55.399994 0)"/>
      </g>
     </g>
    </g>
    <g id="ytick_7">
     <g id="line2d_23">
      <path d="M 49.413492 84.64649 
L 701.106762 84.64649 
" clip-path="url(#pee6fc32351)" style="fill: none; stroke: #b0b0b0; stroke-opacity: 0.3; stroke-width: 0.8; stroke-linecap: square"/>
     </g>
     <g id="line2d_24">
      <g>
       <use xlink:href="#m029632b20e" x="49.413492" y="84.64649" style="stroke: #000000; stroke-width: 0.8"/>
      </g>
     </g>
     <g id="text_12">
      <!-- 25 -->
      <g transform="translate(31.332242 88.626178) scale(0.1 -0.1)">
       <use xlink:href="#STHeiti-32"/>
       <use xlink:href="#STHeiti-35" transform="translate(55.399994 0)"/>
      </g>
     </g>
    </g>
    <g id="ytick_8">
     <g id="line2d_25">
      <path d="M 49.413492 52.377119 
L 701.106762 52.377119 
" clip-path="url(#pee6fc32351)" style="fill: none; stroke: #b0b0b0; stroke-opacity: 0.3; stroke-width: 0.8; stroke-linecap: square"/>
     </g>
     <g id="line2d_26">
      <g>
       <use xlink:href="#m029632b20e" x="49.413492" y="52.377119" style="stroke: #000000; stroke-width: 0.8"/>
      </g>
     </g>
     <g id="text_13">
      <!-- 30 -->
      <g transform="translate(31.332242 56.356807) scale(0.1 -0.1)">
       <use xlink:href="#STHeiti-33"/>
       <use xlink:href="#STHeiti-30" transform="translate(55.399994 0)"/>
      </g>
     </g>
    </g>
    <g id="ytick_9">
     <g id="line2d_27">
      <path d="M 49.413492 20.107748 
L 701.106762 20.107748 
" clip-path="url(#pee6fc32351)" style="fill: none; stroke: #b0b0b0; stroke-opacity: 0.3; stroke-width: 0.8; stroke-linecap: square"/>
     </g>
     <g id="line2d_28">
      <g>
       <use xlink:href="#m029632b20e" x="49.413492" y="20.107748" style="stroke: #000000; stroke-width: 0.8"/>
      </g>
     </g>
     <g id="text_14">
      <!-- 35 -->
      <g transform="translate(31.332242 24.087436) scale(0.1 -0.1)">
       <use xlink:href="#STHeiti-33"/>
       <use xlink:href="#STHeiti-35" transform="translate(55.399994 0)"/>
      </g>
     </g>
    </g>
   </g>
   <g id="line2d_29">
    <path d="M 79.035913 149.185232 
L 227.14802 278.262716 
L 375.260127 250.83375 
L 523.372234 245.993345 
L 671.48434 245.993345 
" clip-path="url(#pee6fc32351)" style="fill: none; stroke: #1a365d; stroke-width: 2; stroke-linecap: square"/>
    <defs>
     <path id="m8c84aa4206" d="M 0 3 
C 0.795609 3 1.55874 2.683901 2.12132 2.12132 
C 2.683901 1.55874 3 0.795609 3 0 
C 3 -0.795609 2.683901 -1.55874 2.12132 -2.12132 
C 1.55874 -2.683901 0.795609 -3 0 -3 
C -0.795609 -3 -1.55874 -2.683901 -2.12132 -2.12132 
C -2.683901 -1.55874 -3 -0.795609 -3 0 
C -3 0.795609 -2.683901 1.55874 -2.12132 2.12132 
C -1.55874 2.683901 -0.795609 3 0 3 
z
" style="stroke: #1a365d"/>
    </defs>
    <g clip-path="url(#pee6fc32351)">
     <use xlink:href="#m8c84aa4206" x="79.035913" y="149.185232" style="fill: #1a365d; stroke: #1a365d"/>
     <use xlink:href="#m8c84aa4206" x="227.14802" y="278.262716" style="fill: #1a365d; stroke: #1a365d"/>
     <use xlink:href="#m8c84aa4206" x="375.260127" y="250.83375" style="fill: #1a365d; stroke: #1a365d"/>
     <use xlink:href="#m8c84aa4206" x="523.372234" y="245.993345" style="fill: #1a365d; stroke: #1a365d"/>
     <use xlink:href="#m8c84aa4206" x="671.48434" y="245.993345" style="fill: #1a365d; stroke: #1a365d"/>
    </g>
   </g>
   <g id="line2d_30">
    <path d="M 79.035913 84.64649 
L 227.14802 245.993345 
L 375.260127 245.993345 
L 523.372234 245.347957 
" clip-path="url(#pee6fc32351)" style="fill: none; stroke: #d69e2e; stroke-width: 2; stroke-linecap: square"/>
    <defs>
     <path id="m6c5669786a" d="M 0 3 
C 0.795609 3 1.55874 2.683901 2.12132 2.12132 
C 2.683901 1.55874 3 0.795609 3 0 
C 3 -0.795609 2.683901 -1.55874 2.12132 -2.12132 
C 1.55874 -2.683901 0.795609 -3 0 -3 
C -0.795609 -3 -1.55874 -2.683901 -2.12132 -2.12132 
C -2.683901 -1.55874 -3 -0.795609 -3 0 
C -3 0.795609 -2.683901 1.55874 -2.12132 2.12132 
C -1.55874 2.683901 -0.795609 3 0 3 
z
" style="stroke: #d69e2e"/>
    </defs>
    <g clip-path="url(#pee6fc32351)">
     <use xlink:href="#m6c5669786a" x="79.035913" y="84.64649" style="fill: #d69e2e; stroke: #d69e2e"/>
     <use xlink:href="#m6c5669786a" x="227.14802" y="245.993345" style="fill: #d69e2e; stroke: #d69e2e"/>
     <use xlink:href="#m6c5669786a" x="375.260127" y="245.993345" style="fill: #d69e2e; stroke: #d69e2e"/>
     <use xlink:href="#m6c5669786a" x="523.372234" y="245.347957" style="fill: #d69e2e; stroke: #d69e2e"/>
    </g>
   </g>
   <g id="line2d_31">
    <path d="M 79.035913 20.107748 
L 227.14802 239.53947 
L 375.260127 243.734489 
L 523.372234 245.025264 
" clip-path="url(#pee6fc32351)" style="fill: none; stroke: #38a169; stroke-width: 2; stroke-linecap: square"/>
    <defs>
     <path id="m82a2a2e1c8" d="M 0 3 
C 0.795609 3 1.55874 2.683901 2.12132 2.12132 
C 2.683901 1.55874 3 0.795609 3 0 
C 3 -0.795609 2.683901 -1.55874 2.12132 -2.12132 
C 1.55874 -2.683901 0.795609 -3 0 -3 
C -0.795609 -3 -1.55874 -2.683901 -2.12132 -2.12132 
C -2.683901 -1.55874 -3 -0.795609 -3 0 
C -3 0.795609 -2.683901 1.55874 -2.12132 2.12132 
C -1.55874 2.683901 -0.795609 3 0 3 
z
" style="stroke: #38a169"/>
    </defs>
    <g clip-path="url(#pee6fc32351)">
     <use xlink:href="#m82a2a2e1c8" x="79.035913" y="20.107748" style="fill: #38a169; stroke: #38a169"/>
     <use xlink:href="#m82a2a2e1c8" x="227.14802" y="239.53947" style="fill: #38a169; stroke: #38a169"/>
     <use xlink:href="#m82a2a2e1c8" x="375.260127" y="243.734489" style="fill: #38a169; stroke: #38a169"/>
     <use xlink:href="#m82a2a2e1c8" x="523.372234" y="245.025264" style="fill: #38a169; stroke: #38a169"/>
    </g>
   </g>
   <g id="patch_3">
    <path d="M 49.413492 291.170464 
L 49.413492 7.2 
" style="fill: none; stroke: #000000; stroke-width: 0.8; stroke-linejoin: miter; stroke-linecap: square"/>
   </g>
   <g id="patch_4">
    <path d="M 701.106762 291.170464 
L 701.106762 7.2 
" style="fill: none; stroke: #000000; stroke-width: 0.8; stroke-linejoin: miter; stroke-linecap: square"/>
   </g>
   <g id="patch_5">
    <path d="M 49.413492 291.170464 
L 701.106762 291.170464 
" style="fill: none; stroke: #000000; stroke-width: 0.8; stroke-linejoin: miter; stroke-linecap: square"/>
   </g>
   <g id="patch_6">
    <path d="M 49.413492 7.2 
L 701.106762 7.2 
" style="fill: none; stroke: #000000; stroke-width: 0.8; stroke-linejoin: miter; stroke-linecap: square"/>
   </g>
   <g id="legend_1">
    <g id="patch_7">
     <path d="M 648.006762 53.01 
L 694.806762 53.01 
Q 696.606762 53.01 696.606762 51.21 
L 696.606762 13.5 
Q 696.606762 11.7 694.806762 11.7 
L 648.006762 11.7 
Q 646.206762 11.7 646.206762 13.5 
L 646.206762 51.21 
Q 646.206762 53.01 648.006762 53.01 
z
" style="fill: #ffffff; opacity: 0.8; stroke: #cccccc; stroke-linejoin: miter"/>
    </g>
    <g id="line2d_32">
     <path d="M 649.806762 19.313437 
L 658.806762 19.313437 
L 667.806762 19.313437 
" style="fill: none; stroke: #1a365d; stroke-width: 2; stroke-linecap: square"/>
     <g>
      <use xlink:href="#m8c84aa4206" x="658.806762" y="19.313437" style="fill: #1a365d; stroke: #1a365d"/>
     </g>
    </g>
    <g id="text_15">
     <!-- 悲观 -->
     <g transform="translate(675.006762 22.463437) scale(0.09 -0.09)">
      <defs>
       <path id="STHeiti-60b2" d="M 4038 4070 
L 4038 3475 
Q 5293 3475 5587 3507 
L 5587 3021 
Q 5312 3059 4038 3059 
L 4038 2458 
Q 5587 2458 5901 2496 
L 5901 1984 
Q 5702 2029 4045 2029 
Q 4045 1888 4077 1594 
L 3552 1594 
L 3552 4186 
Q 3552 5018 3507 5139 
Q 3750 5088 4077 5088 
Q 4192 5088 4192 5049 
Q 4192 5011 4115 4969 
Q 4038 4928 4038 4813 
L 4038 4499 
Q 5555 4499 5837 4544 
L 5837 4032 
Q 5645 4070 4038 4070 
z
M 2317 4442 
Q 2310 4998 2278 5088 
Q 2554 5050 2835 5050 
Q 2950 5050 2950 5018 
Q 2950 4986 2873 4934 
Q 2797 4883 2797 4723 
L 2797 1562 
L 2278 1562 
Q 2304 1792 2310 1965 
Q 922 1965 627 1926 
L 627 2438 
Q 1005 2394 2317 2394 
L 2317 3021 
Q 1139 3021 890 2976 
L 890 3469 
Q 1229 3424 2317 3424 
L 2317 4013 
Q 864 4013 678 3981 
L 678 4486 
Q 954 4442 2317 4442 
z
M 3904 653 
L 3386 416 
Q 3194 928 2925 1312 
L 3398 1523 
Q 3686 1069 3904 653 
z
M 6144 352 
L 5645 13 
Q 5299 627 4781 1184 
L 5210 1472 
Q 5722 902 6144 352 
z
M 4986 262 
Q 4781 -294 4576 -412 
Q 4371 -531 3302 -531 
Q 2790 -531 2502 -505 
Q 2214 -480 2105 -429 
Q 1997 -378 1933 -262 
Q 1869 -147 1869 51 
L 1869 614 
Q 1869 1216 1830 1280 
Q 2042 1229 2451 1229 
Q 2522 1229 2522 1203 
Q 2522 1178 2458 1123 
Q 2394 1069 2394 934 
L 2394 141 
Q 2394 51 2544 -19 
Q 2694 -90 3084 -90 
Q 3475 -90 3747 -70 
Q 4019 -51 4096 -28 
Q 4173 -6 4227 58 
Q 4282 122 4326 250 
Q 4371 378 4410 582 
Q 4640 314 4986 262 
z
M 1344 1075 
L 960 -269 
L 358 -109 
Q 730 563 826 1235 
L 1344 1075 
z
" transform="scale(0.015625)"/>
       <path id="STHeiti-89c2" d="M 5664 1574 
L 5088 1574 
L 5088 4416 
L 3424 4416 
L 3424 1510 
L 2886 1510 
Q 2944 2003 2944 2541 
L 2944 4192 
Q 2944 4691 2918 4883 
Q 3117 4851 4211 4851 
Q 5306 4851 5626 4883 
Q 5600 4710 5600 4192 
L 5600 2618 
Q 5600 1958 5664 1574 
z
M 2080 2003 
Q 2483 1421 2707 1056 
L 2221 730 
Q 2112 973 1830 1478 
Q 1446 781 634 32 
Q 493 294 173 499 
Q 1139 1114 1542 1939 
Q 1184 2470 627 3149 
L 1024 3418 
Q 1338 3034 1747 2464 
Q 1946 3110 2003 4083 
L 1101 4083 
Q 813 4083 582 4051 
L 582 4589 
Q 902 4563 1574 4563 
Q 2246 4563 2573 4589 
Q 2426 2989 2080 2003 
z
M 4358 1677 
Q 4493 1664 4877 1664 
Q 4947 1664 4947 1635 
Q 4947 1606 4883 1561 
Q 4819 1517 4819 1414 
L 4819 230 
Q 4819 102 4864 51 
Q 4909 0 5113 0 
Q 5318 0 5404 45 
Q 5491 90 5545 240 
Q 5600 390 5677 781 
Q 5952 499 6214 448 
Q 6112 13 6013 -169 
Q 5914 -352 5725 -416 
Q 5536 -480 5139 -480 
Q 4742 -480 4588 -448 
Q 4435 -416 4387 -320 
Q 4339 -224 4339 13 
L 4339 1555 
Q 4179 787 3635 249 
Q 3091 -288 2406 -614 
Q 2150 -294 1933 -141 
Q 2330 -38 2810 259 
Q 3290 557 3578 979 
Q 3866 1402 3923 2058 
Q 3981 2714 3981 3146 
Q 3981 3578 3955 3770 
Q 4186 3738 4346 3738 
L 4595 3738 
Q 4653 3738 4653 3702 
Q 4653 3667 4605 3632 
Q 4557 3597 4518 3331 
Q 4480 3066 4422 2163 
Q 4403 1869 4358 1677 
z
" transform="scale(0.015625)"/>
      </defs>
      <use xlink:href="#STHeiti-60b2"/>
      <use xlink:href="#STHeiti-89c2" transform="translate(99.999985 0)"/>
     </g>
    </g>
    <g id="line2d_33">
     <path d="M 649.806762 32.183438 
L 658.806762 32.183438 
L 667.806762 32.183438 
" style="fill: none; stroke: #d69e2e; stroke-width: 2; stroke-linecap: square"/>
     <g>
      <use xlink:href="#m6c5669786a" x="658.806762" y="32.183438" style="fill: #d69e2e; stroke: #d69e2e"/>
     </g>
    </g>
    <g id="text_16">
     <!-- 中位 -->
     <g transform="translate(675.006762 35.333438) scale(0.09 -0.09)">
      <defs>
       <path id="STHeiti-4e2d" d="M 5011 1517 
L 3482 1517 
L 3482 582 
Q 3482 45 3546 -570 
L 2861 -570 
Q 2925 90 2925 582 
L 2925 1517 
L 1440 1517 
L 1440 1062 
L 851 1062 
Q 896 1555 896 2016 
L 896 3398 
Q 896 3763 851 4058 
Q 1254 4000 2925 3987 
L 2925 4288 
Q 2925 5075 2861 5242 
Q 3213 5203 3539 5203 
Q 3629 5203 3629 5174 
Q 3629 5146 3555 5085 
Q 3482 5024 3482 4736 
L 3482 3987 
Q 5114 3994 5619 4058 
Q 5587 3603 5587 3270 
L 5587 2042 
Q 5587 1779 5619 1126 
L 5011 1126 
L 5011 1517 
z
M 3482 1997 
L 5011 1997 
L 5011 3507 
L 3482 3507 
L 3482 1997 
z
M 1440 1997 
L 2925 1997 
L 2925 3507 
L 1440 3507 
L 1440 1997 
z
" transform="scale(0.015625)"/>
       <path id="STHeiti-4f4d" d="M 4531 4416 
L 3878 4166 
Q 3750 4602 3488 5030 
L 4109 5261 
Q 4250 4941 4531 4416 
z
M 1088 2707 
Q 858 2310 563 1952 
Q 410 2285 173 2470 
Q 1152 3347 1542 5203 
Q 1894 5043 2182 4986 
Q 2285 4966 2285 4921 
Q 2285 4877 2189 4819 
Q 2118 4781 1638 3757 
L 1638 -621 
L 1018 -621 
Q 1088 77 1088 755 
L 1088 2707 
z
M 5965 3514 
Q 5587 3584 4121 3584 
Q 2656 3584 2285 3514 
L 2285 4115 
Q 2714 4058 4125 4058 
Q 5536 4058 5965 4115 
L 5965 3514 
z
M 4045 294 
Q 4454 1766 4653 3130 
Q 4845 3066 5062 3018 
Q 5280 2970 5350 2970 
Q 5421 2970 5421 2938 
Q 5421 2906 5353 2854 
Q 5286 2803 5139 2326 
Q 4992 1850 4602 294 
Q 5613 294 6099 352 
L 6099 -282 
Q 5510 -211 3990 -211 
Q 2470 -211 1978 -282 
L 1978 352 
Q 2464 294 3526 294 
L 4045 294 
z
M 3693 954 
L 3091 806 
Q 2893 1856 2547 2867 
L 3110 3014 
Q 3462 1894 3693 954 
z
" transform="scale(0.015625)"/>
      </defs>
      <use xlink:href="#STHeiti-4e2d"/>
      <use xlink:href="#STHeiti-4f4d" transform="translate(99.999985 0)"/>
     </g>
    </g>
    <g id="line2d_34">
     <path d="M 649.806762 45.053438 
L 658.806762 45.053438 
L 667.806762 45.053438 
" style="fill: none; stroke: #38a169; stroke-width: 2; stroke-linecap: square"/>
     <g>
      <use xlink:href="#m82a2a2e1c8" x="658.806762" y="45.053438" style="fill: #38a169; stroke: #38a169"/>
     </g>
    </g>
    <g id="text_17">
     <!-- 乐观 -->
     <g transform="translate(675.006762 48.203438) scale(0.09 -0.09)">
      <defs>
       <path id="STHeiti-4e50" d="M 3046 2291 
Q 2067 2285 1616 2243 
Q 1165 2202 922 2054 
Q 851 2349 723 2592 
Q 813 2624 877 2768 
Q 941 2912 1001 3545 
Q 1062 4179 1056 4608 
Q 1280 4595 1549 4595 
Q 2400 4595 3424 4713 
Q 4448 4832 4934 5005 
Q 5069 4582 5254 4410 
Q 5299 4365 5299 4333 
Q 5299 4275 5216 4288 
Q 5178 4294 5050 4294 
Q 4365 4294 1600 4109 
L 1472 2739 
L 3046 2739 
Q 3046 3674 2957 3987 
Q 3366 3910 3642 3910 
Q 3782 3910 3782 3846 
Q 3782 3802 3718 3763 
Q 3616 3712 3616 3565 
L 3616 2739 
Q 4870 2739 5651 2822 
L 5651 2227 
Q 5011 2285 3616 2291 
L 3616 122 
Q 3616 -179 3565 -297 
Q 3514 -416 3315 -483 
Q 3117 -550 2586 -640 
Q 2515 -237 2240 38 
Q 2464 26 2598 26 
Q 2886 26 2966 90 
Q 3046 154 3046 352 
L 3046 2291 
z
M 5933 397 
L 5395 -77 
Q 4922 653 4128 1389 
L 4480 1754 
Q 5152 1178 5933 397 
z
M 1786 1747 
Q 2067 1536 2323 1446 
Q 2419 1414 2419 1363 
Q 2419 1312 2320 1280 
Q 2221 1248 1997 960 
Q 1715 589 954 -224 
Q 730 -38 397 83 
Q 1306 787 1786 1747 
z
" transform="scale(0.015625)"/>
      </defs>
      <use xlink:href="#STHeiti-4e50"/>
      <use xlink:href="#STHeiti-89c2" transform="translate(99.999985 0)"/>
     </g>
    </g>
   </g>
  </g>
 </g>
 <defs>
  <clipPath id="pee6fc32351">
   <rect x="49.413492" y="7.2" width="651.69327" height="283.970464"/>
  </clipPath>
 </defs>
</svg>
