<?xml version="1.0" encoding="utf-8" standalone="no"?>
<!DOCTYPE svg PUBLIC "-//W3C//DTD SVG 1.1//EN"
  "http://www.w3.org/Graphics/SVG/1.1/DTD/svg11.dtd">
<svg xmlns:xlink="http://www.w3.org/1999/xlink" width="712.72125pt" height="352.13575pt" viewBox="0 0 712.72125 352.13575" xmlns="http://www.w3.org/2000/svg" version="1.1">
 <metadata>
  <rdf:RDF xmlns:dc="http://purl.org/dc/elements/1.1/" xmlns:cc="http://creativecommons.org/ns#" xmlns:rdf="http://www.w3.org/1999/02/22-rdf-syntax-ns#">
   <cc:Work>
    <dc:type rdf:resource="http://purl.org/dc/dcmitype/StillImage"/>
    <dc:date>2026-06-05T10:58:58.568071</dc:date>
    <dc:format>image/svg+xml</dc:format>
    <dc:creator>
     <cc:Agent>
      <dc:title>Matplotlib v3.10.9, https://matplotlib.org/</dc:title>
     </cc:Agent>
    </dc:creator>
   </cc:Work>
  </rdf:RDF>
 </metadata>
 <defs>
  <style type="text/css">*{stroke-linejoin: round; stroke-linecap: butt}</style>
 </defs>
 <g id="figure_1">
  <g id="patch_1">
   <path d="M -0 352.13575 
L 712.72125 352.13575 
L 712.72125 0 
L -0 0 
z
" style="fill: #ffffff"/>
  </g>
  <g id="axes_1">
   <g id="patch_2">
    <path d="M 25.28125 318.800464 
L 705.52125 318.800464 
L 705.52125 7.2 
L 25.28125 7.2 
z
" style="fill: #fafafa"/>
   </g>
   <g id="matplotlib.axis_1">
    <g id="xtick_1">
     <g id="line2d_1">
      <path d="M 56.20125 318.800464 
L 56.20125 7.2 
" clip-path="url(#p77300968a5)" style="fill: none; stroke: #b0b0b0; stroke-opacity: 0.3; stroke-width: 0.8; stroke-linecap: square"/>
     </g>
     <g id="line2d_2">
      <defs>
       <path id="m37ab2fdb63" d="M 0 0 
L 0 3.5 
" style="stroke: #000000; stroke-width: 0.8"/>
      </defs>
      <g>
       <use xlink:href="#m37ab2fdb63" x="56.20125" y="318.800464" style="stroke: #000000; stroke-width: 0.8"/>
      </g>
     </g>
     <g id="text_1">
      <!-- 2019 -->
      <g transform="translate(36.337649 343.774735) rotate(-30) scale(0.1 -0.1)">
       <defs>
        <path id="STHeiti-32" d="M 742 3539 
L 301 3539 
Q 333 4243 768 4668 
Q 1203 5094 1820 5094 
Q 2438 5094 2844 4694 
Q 3251 4294 3251 3718 
Q 3251 3290 3024 2925 
Q 2797 2560 2336 2061 
L 1190 826 
L 3315 826 
L 3315 384 
L 192 384 
L 1946 2278 
Q 2406 2778 2604 3066 
Q 2803 3354 2803 3725 
Q 2803 4096 2512 4377 
Q 2221 4659 1789 4659 
Q 1357 4659 1072 4368 
Q 787 4077 742 3539 
z
" transform="scale(0.015625)"/>
        <path id="STHeiti-30" d="M 1747 269 
Q 1005 269 605 880 
Q 205 1491 205 2681 
Q 205 3872 605 4483 
Q 1005 5094 1741 5094 
Q 2477 5094 2909 4470 
Q 3341 3846 3341 2681 
Q 3341 1517 2905 893 
Q 2470 269 1747 269 
z
M 1760 4659 
Q 1229 4659 934 4147 
Q 640 3635 640 2669 
Q 640 685 1760 685 
Q 2304 685 2608 1206 
Q 2912 1728 2912 2681 
Q 2912 3635 2598 4147 
Q 2285 4659 1760 4659 
z
" transform="scale(0.015625)"/>
        <path id="STHeiti-31" d="M 1184 4979 
L 2086 4979 
L 2086 384 
L 1632 384 
L 1632 4531 
L 909 4531 
L 1184 4979 
z
" transform="scale(0.015625)"/>
        <path id="STHeiti-39" d="M 1229 269 
L 851 512 
L 2093 2394 
Q 1850 2310 1613 2310 
Q 1062 2310 688 2707 
Q 314 3104 314 3696 
Q 314 4288 730 4691 
Q 1146 5094 1750 5094 
Q 2355 5094 2748 4681 
Q 3142 4269 3142 3693 
Q 3142 3373 3011 3049 
Q 2880 2726 2624 2349 
L 1229 269 
z
M 762 3680 
Q 762 3277 1043 2995 
Q 1325 2714 1728 2714 
Q 2131 2714 2412 2998 
Q 2694 3283 2694 3680 
Q 2694 4077 2412 4361 
Q 2131 4646 1728 4646 
Q 1325 4646 1043 4364 
Q 762 4083 762 3680 
z
" transform="scale(0.015625)"/>
       </defs>
       <use xlink:href="#STHeiti-32"/>
       <use xlink:href="#STHeiti-30" transform="translate(55.399994 0)"/>
       <use xlink:href="#STHeiti-31" transform="translate(110.799988 0)"/>
       <use xlink:href="#STHeiti-39" transform="translate(166.199982 0)"/>
      </g>
     </g>
    </g>
    <g id="xtick_2">
     <g id="line2d_3">
      <path d="M 159.267917 318.800464 
L 159.267917 7.2 
" clip-path="url(#p77300968a5)" style="fill: none; stroke: #b0b0b0; stroke-opacity: 0.3; stroke-width: 0.8; stroke-linecap: square"/>
     </g>
     <g id="line2d_4">
      <g>
       <use xlink:href="#m37ab2fdb63" x="159.267917" y="318.800464" style="stroke: #000000; stroke-width: 0.8"/>
      </g>
     </g>
     <g id="text_2">
      <!-- 2020 -->
      <g transform="translate(139.404316 343.774735) rotate(-30) scale(0.1 -0.1)">
       <use xlink:href="#STHeiti-32"/>
       <use xlink:href="#STHeiti-30" transform="translate(55.399994 0)"/>
       <use xlink:href="#STHeiti-32" transform="translate(110.799988 0)"/>
       <use xlink:href="#STHeiti-30" transform="translate(166.199982 0)"/>
      </g>
     </g>
    </g>
    <g id="xtick_3">
     <g id="line2d_5">
      <path d="M 262.334583 318.800464 
L 262.334583 7.2 
" clip-path="url(#p77300968a5)" style="fill: none; stroke: #b0b0b0; stroke-opacity: 0.3; stroke-width: 0.8; stroke-linecap: square"/>
     </g>
     <g id="line2d_6">
      <g>
       <use xlink:href="#m37ab2fdb63" x="262.334583" y="318.800464" style="stroke: #000000; stroke-width: 0.8"/>
      </g>
     </g>
     <g id="text_3">
      <!-- 2021 -->
      <g transform="translate(242.470983 343.774735) rotate(-30) scale(0.1 -0.1)">
       <use xlink:href="#STHeiti-32"/>
       <use xlink:href="#STHeiti-30" transform="translate(55.399994 0)"/>
       <use xlink:href="#STHeiti-32" transform="translate(110.799988 0)"/>
       <use xlink:href="#STHeiti-31" transform="translate(166.199982 0)"/>
      </g>
     </g>
    </g>
    <g id="xtick_4">
     <g id="line2d_7">
      <path d="M 365.40125 318.800464 
L 365.40125 7.2 
" clip-path="url(#p77300968a5)" style="fill: none; stroke: #b0b0b0; stroke-opacity: 0.3; stroke-width: 0.8; stroke-linecap: square"/>
     </g>
     <g id="line2d_8">
      <g>
       <use xlink:href="#m37ab2fdb63" x="365.40125" y="318.800464" style="stroke: #000000; stroke-width: 0.8"/>
      </g>
     </g>
     <g id="text_4">
      <!-- 2022 -->
      <g transform="translate(345.537649 343.774735) rotate(-30) scale(0.1 -0.1)">
       <use xlink:href="#STHeiti-32"/>
       <use xlink:href="#STHeiti-30" transform="translate(55.399994 0)"/>
       <use xlink:href="#STHeiti-32" transform="translate(110.799988 0)"/>
       <use xlink:href="#STHeiti-32" transform="translate(166.199982 0)"/>
      </g>
     </g>
    </g>
    <g id="xtick_5">
     <g id="line2d_9">
      <path d="M 468.467917 318.800464 
L 468.467917 7.2 
" clip-path="url(#p77300968a5)" style="fill: none; stroke: #b0b0b0; stroke-opacity: 0.3; stroke-width: 0.8; stroke-linecap: square"/>
     </g>
     <g id="line2d_10">
      <g>
       <use xlink:href="#m37ab2fdb63" x="468.467917" y="318.800464" style="stroke: #000000; stroke-width: 0.8"/>
      </g>
     </g>
     <g id="text_5">
      <!-- 2023 -->
      <g transform="translate(448.604316 343.774735) rotate(-30) scale(0.1 -0.1)">
       <defs>
        <path id="STHeiti-33" d="M 845 3917 
L 378 3917 
Q 506 4486 867 4790 
Q 1229 5094 1750 5094 
Q 2272 5094 2659 4748 
Q 3046 4403 3046 3910 
Q 3046 3315 2458 2970 
Q 2861 2803 3081 2473 
Q 3302 2144 3302 1754 
Q 3302 1146 2857 707 
Q 2413 269 1734 269 
Q 1133 269 742 611 
Q 352 954 224 1613 
L 672 1613 
Q 794 1158 1046 937 
Q 1299 717 1760 717 
Q 2221 717 2534 1011 
Q 2848 1306 2848 1741 
Q 2848 2176 2502 2441 
Q 2157 2707 1498 2720 
L 1498 3142 
Q 1971 3142 2268 3360 
Q 2566 3578 2566 3901 
Q 2566 4224 2326 4438 
Q 2086 4653 1747 4653 
Q 1408 4653 1200 4470 
Q 992 4288 845 3917 
z
" transform="scale(0.015625)"/>
       </defs>
       <use xlink:href="#STHeiti-32"/>
       <use xlink:href="#STHeiti-30" transform="translate(55.399994 0)"/>
       <use xlink:href="#STHeiti-32" transform="translate(110.799988 0)"/>
       <use xlink:href="#STHeiti-33" transform="translate(166.199982 0)"/>
      </g>
     </g>
    </g>
    <g id="xtick_6">
     <g id="line2d_11">
      <path d="M 571.534583 318.800464 
L 571.534583 7.2 
" clip-path="url(#p77300968a5)" style="fill: none; stroke: #b0b0b0; stroke-opacity: 0.3; stroke-width: 0.8; stroke-linecap: square"/>
     </g>
     <g id="line2d_12">
      <g>
       <use xlink:href="#m37ab2fdb63" x="571.534583" y="318.800464" style="stroke: #000000; stroke-width: 0.8"/>
      </g>
     </g>
     <g id="text_6">
      <!-- 2024 -->
      <g transform="translate(551.670983 343.774735) rotate(-30) scale(0.1 -0.1)">
       <defs>
        <path id="STHeiti-34" d="M 2726 5094 
L 2816 5094 
L 2816 1894 
L 3373 1894 
L 3373 1453 
L 2816 1453 
L 2816 384 
L 2362 384 
L 2362 1453 
L 160 1453 
L 2726 5094 
z
M 2362 1894 
L 2362 3808 
L 1005 1894 
L 2362 1894 
z
" transform="scale(0.015625)"/>
       </defs>
       <use xlink:href="#STHeiti-32"/>
       <use xlink:href="#STHeiti-30" transform="translate(55.399994 0)"/>
       <use xlink:href="#STHeiti-32" transform="translate(110.799988 0)"/>
       <use xlink:href="#STHeiti-34" transform="translate(166.199982 0)"/>
      </g>
     </g>
    </g>
    <g id="xtick_7">
     <g id="line2d_13">
      <path d="M 674.60125 318.800464 
L 674.60125 7.2 
" clip-path="url(#p77300968a5)" style="fill: none; stroke: #b0b0b0; stroke-opacity: 0.3; stroke-width: 0.8; stroke-linecap: square"/>
     </g>
     <g id="line2d_14">
      <g>
       <use xlink:href="#m37ab2fdb63" x="674.60125" y="318.800464" style="stroke: #000000; stroke-width: 0.8"/>
      </g>
     </g>
     <g id="text_7">
      <!-- 2025 -->
      <g transform="translate(654.737649 343.774735) rotate(-30) scale(0.1 -0.1)">
       <defs>
        <path id="STHeiti-35" d="M 3149 4979 
L 3149 4544 
L 1510 4544 
L 1280 3290 
Q 1587 3379 1856 3379 
Q 2458 3379 2861 2953 
Q 3264 2528 3264 1862 
Q 3264 1197 2825 733 
Q 2387 269 1664 269 
Q 1114 269 726 598 
Q 339 928 262 1498 
L 730 1498 
Q 813 1114 1075 909 
Q 1338 704 1683 704 
Q 2138 704 2467 1043 
Q 2797 1382 2797 1888 
Q 2797 2349 2509 2646 
Q 2221 2944 1757 2944 
Q 1293 2944 730 2701 
L 1158 4979 
L 3149 4979 
z
" transform="scale(0.015625)"/>
       </defs>
       <use xlink:href="#STHeiti-32"/>
       <use xlink:href="#STHeiti-30" transform="translate(55.399994 0)"/>
       <use xlink:href="#STHeiti-32" transform="translate(110.799988 0)"/>
       <use xlink:href="#STHeiti-35" transform="translate(166.199982 0)"/>
      </g>
     </g>
    </g>
   </g>
   <g id="matplotlib.axis_2">
    <g id="ytick_1">
     <g id="line2d_15">
      <path d="M 25.28125 310.62145 
L 705.52125 310.62145 
" clip-path="url(#p77300968a5)" style="fill: none; stroke: #b0b0b0; stroke-opacity: 0.3; stroke-width: 0.8; stroke-linecap: square"/>
     </g>
     <g id="line2d_16">
      <defs>
       <path id="m19f0cf3242" d="M 0 0 
L -3.5 0 
" style="stroke: #000000; stroke-width: 0.8"/>
      </defs>
      <g>
       <use xlink:href="#m19f0cf3242" x="25.28125" y="310.62145" style="stroke: #000000; stroke-width: 0.8"/>
      </g>
     </g>
     <g id="text_8">
      <!-- 0 -->
      <g transform="translate(12.740625 314.601138) scale(0.1 -0.1)">
       <use xlink:href="#STHeiti-30"/>
      </g>
     </g>
    </g>
    <g id="ytick_2">
     <g id="line2d_17">
      <path d="M 25.28125 270.723824 
L 705.52125 270.723824 
" clip-path="url(#p77300968a5)" style="fill: none; stroke: #b0b0b0; stroke-opacity: 0.3; stroke-width: 0.8; stroke-linecap: square"/>
     </g>
     <g id="line2d_18">
      <g>
       <use xlink:href="#m19f0cf3242" x="25.28125" y="270.723824" style="stroke: #000000; stroke-width: 0.8"/>
      </g>
     </g>
     <g id="text_9">
      <!-- 10 -->
      <g transform="translate(7.2 274.703511) scale(0.1 -0.1)">
       <use xlink:href="#STHeiti-31"/>
       <use xlink:href="#STHeiti-30" transform="translate(55.399994 0)"/>
      </g>
     </g>
    </g>
    <g id="ytick_3">
     <g id="line2d_19">
      <path d="M 25.28125 230.826197 
L 705.52125 230.826197 
" clip-path="url(#p77300968a5)" style="fill: none; stroke: #b0b0b0; stroke-opacity: 0.3; stroke-width: 0.8; stroke-linecap: square"/>
     </g>
     <g id="line2d_20">
      <g>
       <use xlink:href="#m19f0cf3242" x="25.28125" y="230.826197" style="stroke: #000000; stroke-width: 0.8"/>
      </g>
     </g>
     <g id="text_10">
      <!-- 20 -->
      <g transform="translate(7.2 234.805885) scale(0.1 -0.1)">
       <use xlink:href="#STHeiti-32"/>
       <use xlink:href="#STHeiti-30" transform="translate(55.399994 0)"/>
      </g>
     </g>
    </g>
    <g id="ytick_4">
     <g id="line2d_21">
      <path d="M 25.28125 190.928571 
L 705.52125 190.928571 
" clip-path="url(#p77300968a5)" style="fill: none; stroke: #b0b0b0; stroke-opacity: 0.3; stroke-width: 0.8; stroke-linecap: square"/>
     </g>
     <g id="line2d_22">
      <g>
       <use xlink:href="#m19f0cf3242" x="25.28125" y="190.928571" style="stroke: #000000; stroke-width: 0.8"/>
      </g>
     </g>
     <g id="text_11">
      <!-- 30 -->
      <g transform="translate(7.2 194.908258) scale(0.1 -0.1)">
       <use xlink:href="#STHeiti-33"/>
       <use xlink:href="#STHeiti-30" transform="translate(55.399994 0)"/>
      </g>
     </g>
    </g>
    <g id="ytick_5">
     <g id="line2d_23">
      <path d="M 25.28125 151.030944 
L 705.52125 151.030944 
" clip-path="url(#p77300968a5)" style="fill: none; stroke: #b0b0b0; stroke-opacity: 0.3; stroke-width: 0.8; stroke-linecap: square"/>
     </g>
     <g id="line2d_24">
      <g>
       <use xlink:href="#m19f0cf3242" x="25.28125" y="151.030944" style="stroke: #000000; stroke-width: 0.8"/>
      </g>
     </g>
     <g id="text_12">
      <!-- 40 -->
      <g transform="translate(7.2 155.010631) scale(0.1 -0.1)">
       <use xlink:href="#STHeiti-34"/>
       <use xlink:href="#STHeiti-30" transform="translate(55.399994 0)"/>
      </g>
     </g>
    </g>
    <g id="ytick_6">
     <g id="line2d_25">
      <path d="M 25.28125 111.133317 
L 705.52125 111.133317 
" clip-path="url(#p77300968a5)" style="fill: none; stroke: #b0b0b0; stroke-opacity: 0.3; stroke-width: 0.8; stroke-linecap: square"/>
     </g>
     <g id="line2d_26">
      <g>
       <use xlink:href="#m19f0cf3242" x="25.28125" y="111.133317" style="stroke: #000000; stroke-width: 0.8"/>
      </g>
     </g>
     <g id="text_13">
      <!-- 50 -->
      <g transform="translate(7.2 115.113005) scale(0.1 -0.1)">
       <use xlink:href="#STHeiti-35"/>
       <use xlink:href="#STHeiti-30" transform="translate(55.399994 0)"/>
      </g>
     </g>
    </g>
    <g id="ytick_7">
     <g id="line2d_27">
      <path d="M 25.28125 71.235691 
L 705.52125 71.235691 
" clip-path="url(#p77300968a5)" style="fill: none; stroke: #b0b0b0; stroke-opacity: 0.3; stroke-width: 0.8; stroke-linecap: square"/>
     </g>
     <g id="line2d_28">
      <g>
       <use xlink:href="#m19f0cf3242" x="25.28125" y="71.235691" style="stroke: #000000; stroke-width: 0.8"/>
      </g>
     </g>
     <g id="text_14">
      <!-- 60 -->
      <g transform="translate(7.2 75.215378) scale(0.1 -0.1)">
       <defs>
        <path id="STHeiti-36" d="M 2349 5094 
L 2726 4851 
L 1485 2970 
Q 1747 3059 1984 3059 
Q 2496 3059 2880 2652 
Q 3264 2246 3264 1660 
Q 3264 1075 2845 672 
Q 2426 269 1827 269 
Q 1229 269 829 678 
Q 429 1088 429 1677 
Q 429 1958 537 2256 
Q 646 2554 954 3014 
L 2349 5094 
z
M 2810 1683 
Q 2810 2086 2528 2368 
Q 2246 2650 1843 2650 
Q 1440 2650 1158 2368 
Q 877 2086 877 1683 
Q 877 1280 1161 998 
Q 1446 717 1843 717 
Q 2240 717 2525 998 
Q 2810 1280 2810 1683 
z
" transform="scale(0.015625)"/>
       </defs>
       <use xlink:href="#STHeiti-36"/>
       <use xlink:href="#STHeiti-30" transform="translate(55.399994 0)"/>
      </g>
     </g>
    </g>
    <g id="ytick_8">
     <g id="line2d_29">
      <path d="M 25.28125 31.338064 
L 705.52125 31.338064 
" clip-path="url(#p77300968a5)" style="fill: none; stroke: #b0b0b0; stroke-opacity: 0.3; stroke-width: 0.8; stroke-linecap: square"/>
     </g>
     <g id="line2d_30">
      <g>
       <use xlink:href="#m19f0cf3242" x="25.28125" y="31.338064" style="stroke: #000000; stroke-width: 0.8"/>
      </g>
     </g>
     <g id="text_15">
      <!-- 70 -->
      <g transform="translate(7.2 35.317752) scale(0.1 -0.1)">
       <defs>
        <path id="STHeiti-37" d="M 461 4979 
L 3373 4979 
L 915 269 
L 538 461 
L 2662 4544 
L 461 4544 
L 461 4979 
z
" transform="scale(0.015625)"/>
       </defs>
       <use xlink:href="#STHeiti-37"/>
       <use xlink:href="#STHeiti-30" transform="translate(55.399994 0)"/>
      </g>
     </g>
    </g>
   </g>
   <g id="line2d_31">
    <path d="M 56.20125 130.164485 
L 159.267917 131.959878 
L 262.334583 133.356295 
L 365.40125 119.551717 
L 468.467917 78.576854 
L 571.534583 76.023406 
L 674.60125 21.363657 
" clip-path="url(#p77300968a5)" style="fill: none; stroke: #1a365d; stroke-width: 2; stroke-linecap: square"/>
    <defs>
     <path id="mf74bc617ae" d="M 0 3 
C 0.795609 3 1.55874 2.683901 2.12132 2.12132 
C 2.683901 1.55874 3 0.795609 3 0 
C 3 -0.795609 2.683901 -1.55874 2.12132 -2.12132 
C 1.55874 -2.683901 0.795609 -3 0 -3 
C -0.795609 -3 -1.55874 -2.683901 -2.12132 -2.12132 
C -2.683901 -1.55874 -3 -0.795609 -3 0 
C -3 0.795609 -2.683901 1.55874 -2.12132 2.12132 
C -1.55874 2.683901 -0.795609 3 0 3 
z
" style="stroke: #1a365d"/>
    </defs>
    <g clip-path="url(#p77300968a5)">
     <use xlink:href="#mf74bc617ae" x="56.20125" y="130.164485" style="fill: #1a365d; stroke: #1a365d"/>
     <use xlink:href="#mf74bc617ae" x="159.267917" y="131.959878" style="fill: #1a365d; stroke: #1a365d"/>
     <use xlink:href="#mf74bc617ae" x="262.334583" y="133.356295" style="fill: #1a365d; stroke: #1a365d"/>
     <use xlink:href="#mf74bc617ae" x="365.40125" y="119.551717" style="fill: #1a365d; stroke: #1a365d"/>
     <use xlink:href="#mf74bc617ae" x="468.467917" y="78.576854" style="fill: #1a365d; stroke: #1a365d"/>
     <use xlink:href="#mf74bc617ae" x="571.534583" y="76.023406" style="fill: #1a365d; stroke: #1a365d"/>
     <use xlink:href="#mf74bc617ae" x="674.60125" y="21.363657" style="fill: #1a365d; stroke: #1a365d"/>
    </g>
   </g>
   <g id="line2d_32">
    <path d="M 56.20125 236.930534 
L 159.267917 272.838398 
L 262.334583 276.309492 
L 365.40125 266.853754 
L 468.467917 292.268542 
L 571.534583 304.636806 
L 674.60125 302.801516 
" clip-path="url(#p77300968a5)" style="fill: none; stroke: #d69e2e; stroke-width: 2; stroke-linecap: square"/>
    <defs>
     <path id="m1e37be6c45" d="M 0 3 
C 0.795609 3 1.55874 2.683901 2.12132 2.12132 
C 2.683901 1.55874 3 0.795609 3 0 
C 3 -0.795609 2.683901 -1.55874 2.12132 -2.12132 
C 1.55874 -2.683901 0.795609 -3 0 -3 
C -0.795609 -3 -1.55874 -2.683901 -2.12132 -2.12132 
C -2.683901 -1.55874 -3 -0.795609 -3 0 
C -3 0.795609 -2.683901 1.55874 -2.12132 2.12132 
C -1.55874 2.683901 -0.795609 3 0 3 
z
" style="stroke: #d69e2e"/>
    </defs>
    <g clip-path="url(#p77300968a5)">
     <use xlink:href="#m1e37be6c45" x="56.20125" y="236.930534" style="fill: #d69e2e; stroke: #d69e2e"/>
     <use xlink:href="#m1e37be6c45" x="159.267917" y="272.838398" style="fill: #d69e2e; stroke: #d69e2e"/>
     <use xlink:href="#m1e37be6c45" x="262.334583" y="276.309492" style="fill: #d69e2e; stroke: #d69e2e"/>
     <use xlink:href="#m1e37be6c45" x="365.40125" y="266.853754" style="fill: #d69e2e; stroke: #d69e2e"/>
     <use xlink:href="#m1e37be6c45" x="468.467917" y="292.268542" style="fill: #d69e2e; stroke: #d69e2e"/>
     <use xlink:href="#m1e37be6c45" x="571.534583" y="304.636806" style="fill: #d69e2e; stroke: #d69e2e"/>
     <use xlink:href="#m1e37be6c45" x="674.60125" y="302.801516" style="fill: #d69e2e; stroke: #d69e2e"/>
    </g>
   </g>
   <g id="line2d_33">
    <path d="M 159.267917 276.548877 
M 365.40125 248.740232 
L 468.467917 255.961702 
L 571.534583 248.381153 
L 674.60125 236.810841 
" clip-path="url(#p77300968a5)" style="fill: none; stroke: #38a169; stroke-width: 2; stroke-linecap: square"/>
    <defs>
     <path id="m5b2edda012" d="M 0 3 
C 0.795609 3 1.55874 2.683901 2.12132 2.12132 
C 2.683901 1.55874 3 0.795609 3 0 
C 3 -0.795609 2.683901 -1.55874 2.12132 -2.12132 
C 1.55874 -2.683901 0.795609 -3 0 -3 
C -0.795609 -3 -1.55874 -2.683901 -2.12132 -2.12132 
C -2.683901 -1.55874 -3 -0.795609 -3 0 
C -3 0.795609 -2.683901 1.55874 -2.12132 2.12132 
C -1.55874 2.683901 -0.795609 3 0 3 
z
" style="stroke: #38a169"/>
    </defs>
    <g clip-path="url(#p77300968a5)">
     <use xlink:href="#m5b2edda012" x="159.267917" y="276.548877" style="fill: #38a169; stroke: #38a169"/>
     <use xlink:href="#m5b2edda012" x="365.40125" y="248.740232" style="fill: #38a169; stroke: #38a169"/>
     <use xlink:href="#m5b2edda012" x="468.467917" y="255.961702" style="fill: #38a169; stroke: #38a169"/>
     <use xlink:href="#m5b2edda012" x="571.534583" y="248.381153" style="fill: #38a169; stroke: #38a169"/>
     <use xlink:href="#m5b2edda012" x="674.60125" y="236.810841" style="fill: #38a169; stroke: #38a169"/>
    </g>
   </g>
   <g id="patch_3">
    <path d="M 25.28125 318.800464 
L 25.28125 7.2 
" style="fill: none; stroke: #000000; stroke-width: 0.8; stroke-linejoin: miter; stroke-linecap: square"/>
   </g>
   <g id="patch_4">
    <path d="M 705.52125 318.800464 
L 705.52125 7.2 
" style="fill: none; stroke: #000000; stroke-width: 0.8; stroke-linejoin: miter; stroke-linecap: square"/>
   </g>
   <g id="patch_5">
    <path d="M 25.28125 318.800464 
L 705.52125 318.800464 
" style="fill: none; stroke: #000000; stroke-width: 0.8; stroke-linejoin: miter; stroke-linecap: square"/>
   </g>
   <g id="patch_6">
    <path d="M 25.28125 7.2 
L 705.52125 7.2 
" style="fill: none; stroke: #000000; stroke-width: 0.8; stroke-linejoin: miter; stroke-linecap: square"/>
   </g>
   <g id="legend_1">
    <g id="patch_7">
     <path d="M 31.58125 53.01 
L 100.934688 53.01 
Q 102.734688 53.01 102.734688 51.21 
L 102.734688 13.5 
Q 102.734688 11.7 100.934688 11.7 
L 31.58125 11.7 
Q 29.78125 11.7 29.78125 13.5 
L 29.78125 51.21 
Q 29.78125 53.01 31.58125 53.01 
z
" style="fill: #ffffff; opacity: 0.8; stroke: #cccccc; stroke-linejoin: miter"/>
    </g>
    <g id="line2d_34">
     <path d="M 33.38125 19.313437 
L 42.38125 19.313437 
L 51.38125 19.313437 
" style="fill: none; stroke: #1a365d; stroke-width: 2; stroke-linecap: square"/>
     <g>
      <use xlink:href="#mf74bc617ae" x="42.38125" y="19.313437" style="fill: #1a365d; stroke: #1a365d"/>
     </g>
    </g>
    <g id="text_16">
     <!-- 星恒 -->
     <g transform="translate(58.58125 22.463437) scale(0.09 -0.09)">
      <defs>
       <path id="STHeiti-661f" d="M 3590 166 
Q 4966 173 5907 230 
L 5907 -339 
Q 5158 -282 3292 -282 
Q 1427 -282 608 -346 
L 608 224 
Q 1466 166 3059 166 
L 3059 736 
Q 2086 736 1510 678 
L 1510 1210 
Q 2003 1165 3059 1158 
L 3059 1702 
L 1581 1702 
Q 1274 1274 934 941 
Q 768 1146 538 1286 
Q 1178 1779 1600 2662 
Q 1933 2464 2086 2426 
Q 2182 2400 2182 2374 
Q 2182 2349 2105 2313 
Q 2029 2278 1907 2144 
L 3059 2144 
L 3059 2758 
Q 1472 2758 1190 2726 
Q 1216 2835 1216 3174 
L 1216 4474 
Q 1216 4774 1190 4928 
Q 1568 4896 3251 4896 
Q 4934 4896 5312 4928 
Q 5286 4742 5286 4474 
L 5286 3174 
Q 5286 2867 5312 2726 
Q 5062 2758 3590 2758 
L 3590 2144 
Q 5229 2144 5504 2176 
L 5504 1677 
Q 5126 1702 3590 1702 
L 3590 1158 
Q 4768 1158 5306 1210 
L 5306 678 
Q 4685 736 3590 736 
L 3590 166 
z
M 4768 4051 
L 4768 4474 
L 1734 4474 
L 1734 4051 
L 4768 4051 
z
M 4768 3174 
L 4768 3642 
L 1734 3642 
L 1734 3174 
L 4768 3174 
z
" transform="scale(0.015625)"/>
       <path id="STHeiti-6052" d="M 1120 5126 
Q 1376 5082 1773 5082 
Q 1920 5082 1920 5037 
Q 1920 4992 1811 4921 
Q 1702 4851 1702 4576 
L 1702 506 
Q 1702 64 1766 -653 
L 1120 -653 
Q 1184 -109 1184 512 
L 1184 4115 
Q 1184 4768 1120 5126 
z
M 5997 4282 
Q 5402 4346 4278 4346 
Q 3155 4346 2560 4282 
L 2560 4858 
Q 3194 4800 4282 4800 
Q 5370 4800 5997 4858 
L 5997 4282 
z
M 2624 2822 
L 2125 2669 
Q 2022 3277 1856 3731 
L 2291 3885 
Q 2419 3379 2624 2822 
z
M 2829 3162 
Q 2829 3482 2784 3776 
Q 3142 3725 4265 3725 
Q 5389 3725 5734 3776 
Q 5683 3520 5683 3162 
L 5683 1549 
Q 5683 1190 5722 883 
Q 5114 928 4214 928 
Q 3315 928 2790 883 
Q 2829 1190 2829 1542 
L 2829 3162 
z
M 3315 2534 
L 5152 2534 
L 5152 3277 
L 3315 3277 
L 3315 2534 
z
M 5152 2131 
L 3315 2131 
L 3315 1338 
L 5152 1338 
L 5152 2131 
z
M 960 3757 
Q 909 2854 762 2010 
L 205 2061 
Q 448 2835 448 3757 
L 960 3757 
z
M 6138 -352 
Q 5440 -294 4198 -294 
Q 2957 -294 2266 -352 
L 2266 224 
Q 2925 160 4201 160 
Q 5478 160 6138 224 
L 6138 -352 
z
" transform="scale(0.015625)"/>
      </defs>
      <use xlink:href="#STHeiti-661f"/>
      <use xlink:href="#STHeiti-6052" transform="translate(99.999985 0)"/>
     </g>
    </g>
    <g id="line2d_35">
     <path d="M 33.38125 32.183438 
L 42.38125 32.183438 
L 51.38125 32.183438 
" style="fill: none; stroke: #d69e2e; stroke-width: 2; stroke-linecap: square"/>
     <g>
      <use xlink:href="#m1e37be6c45" x="42.38125" y="32.183438" style="fill: #d69e2e; stroke: #d69e2e"/>
     </g>
    </g>
    <g id="text_17">
     <!-- 天能 -->
     <g transform="translate(58.58125 35.333438) scale(0.09 -0.09)">
      <defs>
       <path id="STHeiti-5929" d="M 2893 4218 
Q 1722 4211 1011 4160 
L 1011 4749 
Q 1741 4704 3152 4704 
Q 4563 4704 5338 4762 
L 5338 4160 
Q 4640 4211 3501 4218 
Q 3482 3443 3418 2886 
Q 4922 2886 5792 2944 
L 5792 2317 
Q 4966 2368 3603 2374 
Q 3904 1421 4547 845 
Q 5190 269 6042 198 
Q 5664 -90 5536 -474 
Q 3571 250 3290 2125 
Q 3053 1075 2464 432 
Q 1875 -211 800 -589 
Q 653 -320 358 -83 
Q 1466 250 2016 816 
Q 2566 1382 2752 2374 
Q 1421 2368 608 2317 
L 608 2931 
Q 1600 2886 2829 2886 
Q 2893 3539 2893 4218 
z
" transform="scale(0.015625)"/>
       <path id="STHeiti-80fd" d="M 2842 3334 
L 1363 3206 
Q 922 3162 736 3078 
Q 685 3347 589 3622 
Q 749 3693 841 3760 
Q 934 3827 1100 4044 
Q 1267 4262 1436 4556 
Q 1606 4851 1709 5101 
Q 2035 4922 2198 4893 
Q 2362 4864 2362 4825 
Q 2362 4787 2237 4704 
Q 2112 4621 1901 4358 
L 1274 3622 
L 2662 3648 
Q 2464 4000 2278 4237 
L 2669 4442 
Q 3136 3827 3443 3315 
L 2982 3046 
Q 2950 3130 2842 3334 
z
M 4179 3994 
Q 4902 4288 5363 4666 
Q 5562 4371 5760 4237 
Q 5811 4205 5811 4173 
Q 5811 4141 5782 4131 
Q 5754 4122 5670 4122 
Q 5459 4122 4179 3610 
L 4179 3264 
Q 4179 3174 4220 3123 
Q 4262 3072 4406 3043 
Q 4550 3014 4816 3014 
Q 5082 3014 5190 3056 
Q 5299 3098 5356 3222 
Q 5414 3347 5459 3635 
Q 5632 3386 5965 3302 
Q 5850 2957 5747 2819 
Q 5645 2682 5465 2646 
Q 5286 2611 4784 2611 
Q 4282 2611 4064 2646 
Q 3846 2682 3782 2797 
Q 3718 2912 3718 3219 
L 3718 4339 
Q 3718 4787 3674 5043 
Q 3891 5005 4262 5005 
Q 4365 5005 4365 4966 
Q 4365 4928 4272 4857 
Q 4179 4787 4179 4666 
L 4179 3994 
z
M 1350 640 
L 1350 -474 
L 806 -474 
Q 858 38 858 531 
L 858 2240 
Q 858 2598 813 2829 
Q 1216 2778 1977 2778 
Q 2739 2778 3110 2829 
Q 3066 2598 3066 2240 
L 3066 19 
Q 3066 -179 3002 -278 
Q 2938 -378 2758 -432 
Q 2579 -486 2202 -518 
Q 2182 -224 1997 45 
Q 2208 6 2330 6 
Q 2573 6 2573 198 
L 2573 640 
L 1350 640 
z
M 1350 1875 
L 2573 1875 
L 2573 2374 
L 1350 2374 
L 1350 1875 
z
M 2573 1517 
L 1350 1517 
L 1350 1011 
L 2573 1011 
L 2573 1517 
z
M 4122 1312 
Q 4890 1632 5344 1984 
Q 5504 1741 5709 1555 
Q 5747 1523 5747 1491 
Q 5747 1459 5728 1452 
Q 5709 1446 5651 1446 
Q 5459 1446 4122 902 
L 4122 256 
Q 4122 166 4160 124 
Q 4198 83 4336 64 
Q 4474 45 4826 45 
Q 5178 45 5293 237 
Q 5408 429 5434 762 
Q 5638 467 5965 397 
Q 5850 0 5750 -153 
Q 5651 -307 5456 -355 
Q 5261 -403 4742 -403 
Q 4224 -403 4006 -368 
Q 3789 -333 3725 -214 
Q 3661 -96 3661 211 
L 3661 1664 
Q 3661 2086 3610 2368 
Q 3827 2330 4205 2330 
Q 4307 2330 4307 2291 
Q 4307 2253 4214 2182 
Q 4122 2112 4122 1990 
L 4122 1312 
z
" transform="scale(0.015625)"/>
      </defs>
      <use xlink:href="#STHeiti-5929"/>
      <use xlink:href="#STHeiti-80fd" transform="translate(99.999985 0)"/>
     </g>
    </g>
    <g id="line2d_36">
     <path d="M 33.38125 45.053438 
L 42.38125 45.053438 
L 51.38125 45.053438 
" style="fill: none; stroke: #38a169; stroke-width: 2; stroke-linecap: square"/>
     <g>
      <use xlink:href="#m5b2edda012" x="42.38125" y="45.053438" style="fill: #38a169; stroke: #38a169"/>
     </g>
    </g>
    <g id="text_18">
     <!-- CATL/ATL -->
     <g transform="translate(58.58125 48.203438) scale(0.09 -0.09)">
      <defs>
       <path id="STHeiti-43" d="M 4838 4128 
L 4480 3853 
Q 3840 4646 2835 4646 
Q 2016 4646 1424 4070 
Q 832 3494 832 2659 
Q 832 1824 1411 1264 
Q 1990 704 2861 704 
Q 3834 704 4480 1459 
L 4838 1184 
Q 4499 736 3980 502 
Q 3462 269 2835 269 
Q 1741 269 1043 960 
Q 346 1651 346 2707 
Q 346 3360 669 3913 
Q 992 4467 1565 4780 
Q 2138 5094 2797 5094 
Q 3456 5094 3981 4844 
Q 4506 4595 4838 4128 
z
" transform="scale(0.015625)"/>
       <path id="STHeiti-41" d="M 2438 5165 
L 4582 384 
L 4090 384 
L 3366 1952 
L 1382 1952 
L 666 384 
L 154 384 
L 2323 5165 
L 2438 5165 
z
M 2381 4147 
L 1594 2419 
L 3162 2419 
L 2381 4147 
z
" transform="scale(0.015625)"/>
       <path id="STHeiti-54" d="M 102 4531 
L 102 4979 
L 2624 4979 
L 2624 4531 
L 1600 4531 
L 1600 384 
L 1133 384 
L 1133 4531 
L 102 4531 
z
" transform="scale(0.015625)"/>
       <path id="STHeiti-4c" d="M 557 4979 
L 1024 4979 
L 1024 826 
L 2790 826 
L 2790 384 
L 557 384 
L 557 4979 
z
" transform="scale(0.015625)"/>
       <path id="STHeiti-2f" d="M 2611 5094 
L 704 -243 
L 224 -243 
L 2131 5094 
L 2611 5094 
z
" transform="scale(0.015625)"/>
      </defs>
      <use xlink:href="#STHeiti-43"/>
      <use xlink:href="#STHeiti-41" transform="translate(81.299988 0)"/>
      <use xlink:href="#STHeiti-54" transform="translate(155.299973 0)"/>
      <use xlink:href="#STHeiti-4c" transform="translate(197.899963 0)"/>
      <use xlink:href="#STHeiti-2f" transform="translate(244.09996 0)"/>
      <use xlink:href="#STHeiti-41" transform="translate(287.799957 0)"/>
      <use xlink:href="#STHeiti-54" transform="translate(361.799942 0)"/>
      <use xlink:href="#STHeiti-4c" transform="translate(404.399933 0)"/>
     </g>
    </g>
   </g>
  </g>
 </g>
 <defs>
  <clipPath id="p77300968a5">
   <rect x="25.28125" y="7.2" width="680.24" height="311.600464"/>
  </clipPath>
 </defs>
</svg>
