<?xml version="1.0" encoding="utf-8" standalone="no"?>
<!DOCTYPE svg PUBLIC "-//W3C//DTD SVG 1.1//EN"
  "http://www.w3.org/Graphics/SVG/1.1/DTD/svg11.dtd">
<svg xmlns:xlink="http://www.w3.org/1999/xlink" width="708.979844pt" height="351.543875pt" viewBox="0 0 708.979844 351.543875" xmlns="http://www.w3.org/2000/svg" version="1.1">
 <metadata>
  <rdf:RDF xmlns:dc="http://purl.org/dc/elements/1.1/" xmlns:cc="http://creativecommons.org/ns#" xmlns:rdf="http://www.w3.org/1999/02/22-rdf-syntax-ns#">
   <cc:Work>
    <dc:type rdf:resource="http://purl.org/dc/dcmitype/StillImage"/>
    <dc:date>2026-06-04T15:09:09.766637</dc:date>
    <dc:format>image/svg+xml</dc:format>
    <dc:creator>
     <cc:Agent>
      <dc:title>Matplotlib v3.10.9, https://matplotlib.org/</dc:title>
     </cc:Agent>
    </dc:creator>
   </cc:Work>
  </rdf:RDF>
 </metadata>
 <defs>
  <style type="text/css">*{stroke-linejoin: round; stroke-linecap: butt}</style>
 </defs>
 <g id="figure_1">
  <g id="patch_1">
   <path d="M 0 351.543875 
L 708.979844 351.543875 
L 708.979844 0 
L 0 0 
z
" style="fill: #ffffff"/>
  </g>
  <g id="axes_1">
   <g id="patch_2">
    <path d="M 64.505897 282.164839 
L 701.779844 282.164839 
L 701.779844 18.159375 
L 64.505897 18.159375 
z
" style="fill: #fafafa"/>
   </g>
   <g id="matplotlib.axis_1">
    <g id="xtick_1">
     <g id="line2d_1">
      <path d="M 93.472894 282.164839 
L 93.472894 18.159375 
" clip-path="url(#pef148a3bbf)" style="fill: none; stroke: #b0b0b0; stroke-opacity: 0.3; stroke-width: 0.8; stroke-linecap: square"/>
     </g>
     <g id="line2d_2">
      <defs>
       <path id="me87489bb46" d="M 0 0 
L 0 3.5 
" style="stroke: #000000; stroke-width: 0.8"/>
      </defs>
      <g>
       <use xlink:href="#me87489bb46" x="93.472894" y="282.164839" style="stroke: #000000; stroke-width: 0.8"/>
      </g>
     </g>
     <g id="text_1">
      <!-- 基准——Q1结构维持 -->
      <g transform="translate(11.179688 343.18286) rotate(-30) scale(0.1 -0.1)">
       <defs>
        <path id="STHeiti-57fa" d="M 2598 1920 
Q 2099 1126 723 378 
Q 608 698 307 806 
Q 1171 1056 2112 1914 
Q 1075 1907 499 1850 
L 499 2349 
Q 1107 2304 1766 2291 
L 1766 4179 
Q 1139 4166 723 4128 
L 723 4640 
Q 1222 4602 1760 4582 
Q 1754 4922 1696 5133 
Q 1926 5082 2272 5082 
Q 2349 5082 2349 5046 
Q 2349 5011 2310 4979 
Q 2240 4909 2240 4717 
L 2240 4582 
L 4166 4582 
Q 4166 4986 4122 5203 
Q 4429 5146 4710 5146 
Q 4800 5146 4800 5107 
Q 4800 5069 4762 5037 
Q 4634 4941 4634 4774 
L 4634 4582 
Q 5222 4595 5760 4640 
L 5760 4128 
Q 5312 4166 4634 4179 
L 4634 2291 
Q 5120 2298 5926 2349 
L 5926 1850 
Q 5466 1901 4512 1914 
Q 4966 1261 5946 1075 
Q 5670 826 5619 480 
Q 4301 1184 4045 1920 
L 2598 1920 
z
M 2240 3789 
L 4173 3789 
L 4173 4179 
L 2240 4179 
L 2240 3789 
z
M 4173 3462 
L 2240 3462 
L 2240 3034 
L 4173 3034 
L 4173 3462 
z
M 2240 2707 
L 2240 2291 
L 4173 2291 
L 4173 2707 
L 2240 2707 
z
M 3475 998 
Q 4154 1005 4512 1043 
L 4512 589 
Q 4058 634 3475 634 
L 3475 90 
Q 4742 90 5536 141 
L 5536 -365 
Q 4685 -314 3254 -314 
Q 1824 -314 979 -365 
L 979 141 
Q 1773 90 3021 90 
L 3021 640 
Q 2419 634 1971 589 
L 1971 1043 
Q 2349 1005 3021 998 
Q 3021 1382 2970 1651 
Q 3238 1613 3533 1613 
Q 3616 1613 3616 1584 
Q 3616 1555 3568 1520 
Q 3520 1485 3497 1417 
Q 3475 1350 3475 1286 
L 3475 998 
z
" transform="scale(0.015625)"/>
        <path id="STHeiti-51c6" d="M 2893 -58 
L 2893 -602 
L 2342 -602 
Q 2419 -198 2419 774 
L 2419 2918 
Q 2246 2637 1939 2208 
Q 1792 2464 1555 2611 
Q 2054 3168 2348 3798 
Q 2643 4429 2790 5254 
Q 3168 5082 3411 5062 
Q 3520 5050 3520 5011 
Q 3520 4973 3424 4896 
Q 3328 4819 3002 4115 
L 4371 4115 
Q 5626 4115 5843 4147 
L 5843 3616 
Q 5613 3648 4525 3648 
L 4525 2886 
Q 5446 2886 5658 2918 
L 5658 2387 
Q 5510 2413 4525 2419 
L 4525 1690 
Q 5523 1696 5651 1722 
L 5651 1190 
Q 5504 1216 4525 1222 
L 4525 410 
Q 5760 410 5984 442 
L 5984 -90 
Q 5747 -58 4512 -58 
L 2893 -58 
z
M 2893 3648 
L 2893 2886 
L 4032 2886 
L 4032 3648 
L 2893 3648 
z
M 2893 2419 
L 2893 1690 
L 4032 1690 
L 4032 2419 
L 2893 2419 
z
M 2893 1222 
L 2893 410 
L 4032 410 
L 4032 1222 
L 2893 1222 
z
M 4851 4410 
L 4250 4256 
Q 4160 4762 3987 5024 
L 4538 5190 
Q 4646 4813 4851 4410 
z
M 1760 3718 
L 1280 3315 
Q 986 3814 486 4307 
L 979 4672 
Q 1331 4179 1760 3718 
z
M 1773 1946 
Q 1619 1709 1388 1184 
Q 1158 659 973 90 
Q 659 352 352 525 
Q 915 1203 1318 2387 
Q 1491 2086 1773 1946 
z
" transform="scale(0.015625)"/>
        <path id="STHeiti-2014" d="M 6400 2112 
L 0 2112 
L 0 2458 
L 6400 2458 
L 6400 2112 
z
" transform="scale(0.015625)"/>
        <path id="STHeiti-51" d="M 4416 883 
L 5094 19 
L 4531 19 
L 4064 614 
Q 3494 269 2822 269 
Q 1779 269 1072 963 
Q 365 1658 365 2662 
Q 365 3693 1049 4393 
Q 1734 5094 2784 5094 
Q 3443 5094 4003 4774 
Q 4563 4454 4883 3897 
Q 5203 3341 5203 2682 
Q 5203 1626 4416 883 
z
M 4134 1242 
Q 4730 1830 4730 2668 
Q 4730 3507 4154 4076 
Q 3578 4646 2778 4646 
Q 1978 4646 1411 4070 
Q 845 3494 845 2659 
Q 845 1824 1421 1270 
Q 1997 717 2790 717 
Q 3322 717 3776 979 
L 2752 2278 
L 3309 2278 
L 4134 1242 
z
" transform="scale(0.015625)"/>
        <path id="STHeiti-31" d="M 1184 4979 
L 2086 4979 
L 2086 384 
L 1632 384 
L 1632 4531 
L 909 4531 
L 1184 4979 
z
" transform="scale(0.015625)"/>
        <path id="STHeiti-7ed3" d="M 4550 2950 
Q 5306 2963 5690 3014 
L 5690 2445 
Q 5210 2502 4310 2502 
Q 3411 2502 2918 2445 
L 2918 3014 
Q 3334 2957 4032 2950 
L 4032 3770 
Q 3194 3757 2714 3712 
L 2714 4301 
Q 3174 4250 4032 4237 
Q 4032 4864 3981 5216 
Q 4179 5171 4595 5171 
Q 4672 5171 4672 5136 
Q 4672 5101 4611 5059 
Q 4550 5018 4550 4909 
L 4550 4237 
Q 5568 4250 6042 4301 
L 6042 3712 
Q 5536 3757 4550 3770 
L 4550 2950 
z
M 1677 2803 
L 1184 2758 
Q 832 2720 627 2637 
Q 595 2912 493 3168 
Q 723 3232 998 3766 
Q 1274 4301 1510 5178 
Q 1862 4934 2022 4886 
Q 2182 4838 2182 4800 
Q 2182 4762 2137 4733 
Q 2093 4704 2013 4589 
Q 1933 4474 1683 4064 
L 1133 3155 
L 1894 3206 
Q 2150 3674 2272 3942 
Q 2547 3725 2720 3661 
Q 2790 3635 2790 3606 
Q 2790 3578 2720 3546 
Q 2637 3514 1395 1613 
L 2688 1734 
Q 2586 1472 2611 1235 
L 1459 1139 
Q 1050 1101 742 998 
Q 730 1331 634 1568 
Q 883 1626 1129 1939 
Q 1376 2253 1677 2803 
z
M 5126 -45 
L 3501 -45 
L 3501 -595 
L 2918 -595 
Q 2989 -70 2989 378 
L 2989 1203 
Q 2989 1594 2944 1914 
Q 3290 1869 4310 1869 
Q 5331 1869 5683 1914 
Q 5638 1613 5638 1203 
L 5638 538 
Q 5638 38 5696 -499 
L 5126 -499 
L 5126 -45 
z
M 3501 397 
L 5126 397 
L 5126 1427 
L 3501 1427 
L 3501 397 
z
M 2682 608 
Q 2643 499 2643 371 
Q 2643 243 2662 128 
Q 1043 -122 691 -326 
Q 666 0 531 339 
Q 1050 314 2682 608 
z
" transform="scale(0.015625)"/>
        <path id="STHeiti-6784" d="M 3635 4134 
L 4755 4134 
Q 5498 4134 5946 4179 
L 5747 333 
Q 5722 -166 5424 -377 
Q 5126 -589 4486 -659 
Q 4403 -256 4160 13 
Q 4371 -26 4550 -26 
Q 5210 -26 5235 454 
L 5395 3667 
L 3392 3667 
Q 3078 3059 2893 2650 
Q 2605 2816 2317 2886 
Q 2624 3168 2963 3904 
Q 3302 4640 3373 5267 
Q 3750 5088 4058 5050 
Q 4134 5037 4134 5001 
Q 4134 4966 4077 4909 
Q 3968 4800 3635 4134 
z
M 1267 2266 
Q 890 1293 570 787 
Q 422 1139 186 1376 
Q 813 1952 1267 3405 
Q 806 3398 422 3354 
L 422 3891 
Q 730 3846 1267 3840 
Q 1267 4832 1216 5210 
Q 1466 5171 1690 5171 
L 1843 5178 
Q 1920 5178 1920 5142 
Q 1920 5107 1846 5040 
Q 1773 4973 1773 4864 
L 1773 3840 
Q 2125 3846 2458 3891 
L 2458 3354 
Q 2182 3392 1773 3398 
L 1773 698 
Q 1773 109 1837 -608 
L 1203 -608 
Q 1267 109 1267 698 
L 1267 2266 
z
M 4371 1312 
Q 4282 1677 4109 2080 
L 4538 2195 
Q 4794 1562 5056 704 
L 4512 531 
Q 4493 742 4454 954 
L 3386 749 
Q 3130 710 2778 595 
Q 2733 851 2611 1094 
Q 2816 1190 3117 1910 
Q 3418 2630 3501 3187 
Q 3885 3059 4009 3036 
Q 4134 3014 4134 2979 
Q 4134 2944 4060 2880 
Q 3987 2816 3785 2355 
Q 3584 1894 3213 1184 
L 4371 1312 
z
M 2656 1818 
L 2189 1581 
Q 2029 2035 1811 2406 
L 2195 2592 
Q 2490 2157 2656 1818 
z
" transform="scale(0.015625)"/>
        <path id="STHeiti-7ef4" d="M 3366 -70 
L 3366 -627 
L 2829 -627 
Q 2899 -147 2899 749 
L 2899 2906 
Q 2707 2573 2618 2432 
Q 2496 2605 2272 2784 
Q 2560 3142 2867 3814 
Q 3174 4486 3277 5229 
Q 3616 5094 3859 5069 
Q 3974 5056 3974 5005 
Q 3974 4954 3872 4902 
Q 3808 4870 3456 4090 
L 4506 4090 
Q 5683 4090 5907 4122 
L 5907 3610 
Q 5690 3642 4698 3642 
L 4698 2906 
Q 5504 2912 5696 2944 
L 5696 2458 
Q 5555 2483 4698 2483 
L 4698 1670 
Q 5555 1677 5683 1702 
L 5683 1216 
Q 5542 1242 4698 1248 
L 4698 384 
Q 5798 384 6016 416 
L 6016 -102 
Q 5786 -70 4614 -70 
L 3366 -70 
z
M 3366 3642 
L 3366 2906 
L 4218 2906 
L 4218 3642 
L 3366 3642 
z
M 3366 2490 
L 3366 1670 
L 4218 1670 
L 4218 2490 
L 3366 2490 
z
M 3366 1248 
L 3366 384 
L 4218 384 
L 4218 1248 
L 3366 1248 
z
M 1773 3238 
Q 1971 3667 2093 3981 
Q 2330 3814 2586 3776 
Q 2662 3770 2662 3738 
Q 2662 3706 2595 3670 
Q 2528 3635 2422 3462 
Q 2317 3290 2157 3002 
L 1434 1638 
Q 1997 1696 2458 1773 
Q 2349 1485 2362 1248 
L 1357 1146 
Q 992 1101 806 1043 
Q 768 1325 627 1568 
Q 1043 1722 1574 2829 
Q 992 2810 634 2688 
Q 563 2995 448 3174 
Q 960 3462 1427 5184 
Q 1690 5024 2003 4966 
Q 2099 4947 2099 4915 
Q 2099 4883 2041 4851 
Q 1984 4819 1920 4716 
Q 1856 4614 1626 4179 
L 1114 3200 
L 1773 3238 
z
M 5075 4461 
L 4538 4224 
Q 4384 4659 4173 4960 
L 4691 5171 
Q 4832 4838 5075 4461 
z
M 2662 730 
Q 2579 435 2598 192 
Q 1094 -115 672 -294 
Q 602 45 448 378 
Q 1344 403 2662 730 
z
" transform="scale(0.015625)"/>
        <path id="STHeiti-6301" d="M 3808 3821 
Q 3174 3814 2733 3750 
L 2733 4320 
Q 3149 4269 3808 4262 
Q 3808 4954 3763 5197 
Q 3968 5165 4390 5165 
Q 4493 5165 4493 5136 
Q 4493 5107 4441 5072 
Q 4390 5037 4364 4969 
Q 4339 4902 4339 4845 
L 4339 4262 
Q 5120 4269 5581 4320 
L 5581 3770 
Q 5120 3821 4339 3827 
L 4339 3040 
Q 5408 3040 6016 3098 
L 6016 2547 
Q 5542 2586 5178 2592 
L 5178 1894 
Q 5805 1907 5990 1965 
L 5990 1389 
Q 5837 1421 5178 1434 
L 5178 6 
Q 5178 -256 5123 -368 
Q 5069 -480 4877 -544 
Q 4685 -608 4192 -685 
Q 4192 -346 3962 -6 
Q 4256 -45 4403 -45 
Q 4550 -45 4595 9 
Q 4640 64 4640 211 
L 4640 1434 
L 3475 1434 
Q 2912 1434 2554 1376 
L 2554 1958 
Q 2867 1894 3475 1894 
L 4640 1894 
L 4640 2605 
Q 3354 2605 2618 2528 
L 2618 3098 
Q 2989 3059 3808 3040 
L 3808 3821 
z
M 1242 2074 
L 1242 3322 
Q 736 3309 442 3264 
L 442 3808 
Q 691 3770 1242 3757 
Q 1242 4800 1171 5069 
Q 1395 5024 1805 5024 
Q 1958 5024 1958 4976 
Q 1958 4928 1881 4870 
Q 1805 4813 1782 4765 
Q 1760 4717 1760 4634 
L 1760 3757 
Q 2240 3770 2464 3808 
L 2464 3264 
Q 2240 3302 1760 3315 
L 1760 2317 
L 2362 2630 
Q 2336 2381 2432 2118 
Q 2118 1984 1760 1798 
L 1760 70 
Q 1760 -186 1712 -291 
Q 1664 -397 1488 -451 
Q 1312 -506 845 -576 
Q 774 -256 550 83 
Q 838 51 992 51 
Q 1146 51 1194 99 
Q 1242 147 1242 269 
L 1242 1504 
Q 877 1286 582 1069 
Q 474 1530 358 1747 
Q 813 1888 1242 2074 
z
M 3718 333 
L 3162 122 
Q 3085 659 2854 1114 
L 3392 1286 
L 3718 333 
z
" transform="scale(0.015625)"/>
       </defs>
       <use xlink:href="#STHeiti-57fa"/>
       <use xlink:href="#STHeiti-51c6" transform="translate(99.999985 0)"/>
       <use xlink:href="#STHeiti-2014" transform="translate(199.999969 0)"/>
       <use xlink:href="#STHeiti-2014" transform="translate(299.999954 0)"/>
       <use xlink:href="#STHeiti-51" transform="translate(399.999939 0)"/>
       <use xlink:href="#STHeiti-31" transform="translate(487.09993 0)"/>
       <use xlink:href="#STHeiti-7ed3" transform="translate(542.499924 0)"/>
       <use xlink:href="#STHeiti-6784" transform="translate(642.499908 0)"/>
       <use xlink:href="#STHeiti-7ef4" transform="translate(742.499893 0)"/>
       <use xlink:href="#STHeiti-6301" transform="translate(842.499878 0)"/>
      </g>
     </g>
    </g>
    <g id="xtick_2">
     <g id="line2d_3">
      <path d="M 383.14287 282.164839 
L 383.14287 18.159375 
" clip-path="url(#pef148a3bbf)" style="fill: none; stroke: #b0b0b0; stroke-opacity: 0.3; stroke-width: 0.8; stroke-linecap: square"/>
     </g>
     <g id="line2d_4">
      <g>
       <use xlink:href="#me87489bb46" x="383.14287" y="282.164839" style="stroke: #000000; stroke-width: 0.8"/>
      </g>
     </g>
     <g id="text_2">
      <!-- 乐观——H2回正 -->
      <g transform="translate(319.798029 332.243016) rotate(-30) scale(0.1 -0.1)">
       <defs>
        <path id="STHeiti-4e50" d="M 3046 2291 
Q 2067 2285 1616 2243 
Q 1165 2202 922 2054 
Q 851 2349 723 2592 
Q 813 2624 877 2768 
Q 941 2912 1001 3545 
Q 1062 4179 1056 4608 
Q 1280 4595 1549 4595 
Q 2400 4595 3424 4713 
Q 4448 4832 4934 5005 
Q 5069 4582 5254 4410 
Q 5299 4365 5299 4333 
Q 5299 4275 5216 4288 
Q 5178 4294 5050 4294 
Q 4365 4294 1600 4109 
L 1472 2739 
L 3046 2739 
Q 3046 3674 2957 3987 
Q 3366 3910 3642 3910 
Q 3782 3910 3782 3846 
Q 3782 3802 3718 3763 
Q 3616 3712 3616 3565 
L 3616 2739 
Q 4870 2739 5651 2822 
L 5651 2227 
Q 5011 2285 3616 2291 
L 3616 122 
Q 3616 -179 3565 -297 
Q 3514 -416 3315 -483 
Q 3117 -550 2586 -640 
Q 2515 -237 2240 38 
Q 2464 26 2598 26 
Q 2886 26 2966 90 
Q 3046 154 3046 352 
L 3046 2291 
z
M 5933 397 
L 5395 -77 
Q 4922 653 4128 1389 
L 4480 1754 
Q 5152 1178 5933 397 
z
M 1786 1747 
Q 2067 1536 2323 1446 
Q 2419 1414 2419 1363 
Q 2419 1312 2320 1280 
Q 2221 1248 1997 960 
Q 1715 589 954 -224 
Q 730 -38 397 83 
Q 1306 787 1786 1747 
z
" transform="scale(0.015625)"/>
        <path id="STHeiti-89c2" d="M 5664 1574 
L 5088 1574 
L 5088 4416 
L 3424 4416 
L 3424 1510 
L 2886 1510 
Q 2944 2003 2944 2541 
L 2944 4192 
Q 2944 4691 2918 4883 
Q 3117 4851 4211 4851 
Q 5306 4851 5626 4883 
Q 5600 4710 5600 4192 
L 5600 2618 
Q 5600 1958 5664 1574 
z
M 2080 2003 
Q 2483 1421 2707 1056 
L 2221 730 
Q 2112 973 1830 1478 
Q 1446 781 634 32 
Q 493 294 173 499 
Q 1139 1114 1542 1939 
Q 1184 2470 627 3149 
L 1024 3418 
Q 1338 3034 1747 2464 
Q 1946 3110 2003 4083 
L 1101 4083 
Q 813 4083 582 4051 
L 582 4589 
Q 902 4563 1574 4563 
Q 2246 4563 2573 4589 
Q 2426 2989 2080 2003 
z
M 4358 1677 
Q 4493 1664 4877 1664 
Q 4947 1664 4947 1635 
Q 4947 1606 4883 1561 
Q 4819 1517 4819 1414 
L 4819 230 
Q 4819 102 4864 51 
Q 4909 0 5113 0 
Q 5318 0 5404 45 
Q 5491 90 5545 240 
Q 5600 390 5677 781 
Q 5952 499 6214 448 
Q 6112 13 6013 -169 
Q 5914 -352 5725 -416 
Q 5536 -480 5139 -480 
Q 4742 -480 4588 -448 
Q 4435 -416 4387 -320 
Q 4339 -224 4339 13 
L 4339 1555 
Q 4179 787 3635 249 
Q 3091 -288 2406 -614 
Q 2150 -294 1933 -141 
Q 2330 -38 2810 259 
Q 3290 557 3578 979 
Q 3866 1402 3923 2058 
Q 3981 2714 3981 3146 
Q 3981 3578 3955 3770 
Q 4186 3738 4346 3738 
L 4595 3738 
Q 4653 3738 4653 3702 
Q 4653 3667 4605 3632 
Q 4557 3597 4518 3331 
Q 4480 3066 4422 2163 
Q 4403 1869 4358 1677 
z
" transform="scale(0.015625)"/>
        <path id="STHeiti-48" d="M 550 4979 
L 1018 4979 
L 1018 3053 
L 3354 3053 
L 3354 4979 
L 3814 4979 
L 3814 384 
L 3354 384 
L 3354 2605 
L 1018 2605 
L 1018 384 
L 550 384 
L 550 4979 
z
" transform="scale(0.015625)"/>
        <path id="STHeiti-32" d="M 742 3539 
L 301 3539 
Q 333 4243 768 4668 
Q 1203 5094 1820 5094 
Q 2438 5094 2844 4694 
Q 3251 4294 3251 3718 
Q 3251 3290 3024 2925 
Q 2797 2560 2336 2061 
L 1190 826 
L 3315 826 
L 3315 384 
L 192 384 
L 1946 2278 
Q 2406 2778 2604 3066 
Q 2803 3354 2803 3725 
Q 2803 4096 2512 4377 
Q 2221 4659 1789 4659 
Q 1357 4659 1072 4368 
Q 787 4077 742 3539 
z
" transform="scale(0.015625)"/>
        <path id="STHeiti-56de" d="M 1427 38 
L 1427 -358 
L 838 -358 
Q 902 96 902 736 
L 902 3712 
Q 902 4326 845 4678 
Q 1222 4621 3206 4621 
Q 5190 4621 5677 4678 
Q 5619 4307 5619 3725 
L 5619 736 
Q 5619 269 5664 -326 
L 5082 -326 
L 5082 38 
L 1427 38 
z
M 5082 512 
L 5082 4128 
L 1427 4128 
L 1427 512 
L 5082 512 
z
M 2099 3450 
Q 2490 3398 3165 3398 
Q 3840 3398 4333 3450 
Q 4307 3162 4307 2829 
L 4307 1971 
Q 4307 1645 4333 1286 
Q 3891 1331 3257 1331 
Q 2624 1331 2099 1286 
Q 2138 1568 2138 1978 
L 2138 2829 
Q 2138 3155 2099 3450 
z
M 2611 2944 
L 2611 1773 
L 3859 1773 
L 3859 2944 
L 2611 2944 
z
" transform="scale(0.015625)"/>
        <path id="STHeiti-6b63" d="M 1453 378 
L 1453 2445 
Q 1453 3034 1414 3200 
Q 1811 3142 2099 3142 
Q 2170 3142 2170 3091 
Q 2170 3040 2096 2989 
Q 2022 2938 2022 2746 
L 2022 371 
L 3091 371 
L 3091 4160 
Q 1651 4160 941 4090 
L 941 4730 
Q 1728 4666 3280 4666 
Q 4832 4666 5619 4730 
L 5619 4090 
Q 4851 4154 3680 4160 
L 3680 2733 
L 4429 2733 
Q 5069 2733 5427 2797 
L 5427 2195 
Q 5094 2227 4435 2227 
L 3680 2227 
L 3680 371 
Q 5581 371 6010 448 
L 6010 -192 
Q 5651 -134 3232 -134 
Q 813 -134 499 -192 
L 499 448 
Q 909 384 1453 378 
z
" transform="scale(0.015625)"/>
       </defs>
       <use xlink:href="#STHeiti-4e50"/>
       <use xlink:href="#STHeiti-89c2" transform="translate(99.999985 0)"/>
       <use xlink:href="#STHeiti-2014" transform="translate(199.999969 0)"/>
       <use xlink:href="#STHeiti-2014" transform="translate(299.999954 0)"/>
       <use xlink:href="#STHeiti-48" transform="translate(399.999939 0)"/>
       <use xlink:href="#STHeiti-32" transform="translate(468.299927 0)"/>
       <use xlink:href="#STHeiti-56de" transform="translate(523.699921 0)"/>
       <use xlink:href="#STHeiti-6b63" transform="translate(623.699905 0)"/>
      </g>
     </g>
    </g>
    <g id="xtick_3">
     <g id="line2d_5">
      <path d="M 672.812846 282.164839 
L 672.812846 18.159375 
" clip-path="url(#pef148a3bbf)" style="fill: none; stroke: #b0b0b0; stroke-opacity: 0.3; stroke-width: 0.8; stroke-linecap: square"/>
     </g>
     <g id="line2d_6">
      <g>
       <use xlink:href="#me87489bb46" x="672.812846" y="282.164839" style="stroke: #000000; stroke-width: 0.8"/>
      </g>
     </g>
     <g id="text_3">
      <!-- 悲观——结构回落 -->
      <g transform="translate(602.860501 336.05786) rotate(-30) scale(0.1 -0.1)">
       <defs>
        <path id="STHeiti-60b2" d="M 4038 4070 
L 4038 3475 
Q 5293 3475 5587 3507 
L 5587 3021 
Q 5312 3059 4038 3059 
L 4038 2458 
Q 5587 2458 5901 2496 
L 5901 1984 
Q 5702 2029 4045 2029 
Q 4045 1888 4077 1594 
L 3552 1594 
L 3552 4186 
Q 3552 5018 3507 5139 
Q 3750 5088 4077 5088 
Q 4192 5088 4192 5049 
Q 4192 5011 4115 4969 
Q 4038 4928 4038 4813 
L 4038 4499 
Q 5555 4499 5837 4544 
L 5837 4032 
Q 5645 4070 4038 4070 
z
M 2317 4442 
Q 2310 4998 2278 5088 
Q 2554 5050 2835 5050 
Q 2950 5050 2950 5018 
Q 2950 4986 2873 4934 
Q 2797 4883 2797 4723 
L 2797 1562 
L 2278 1562 
Q 2304 1792 2310 1965 
Q 922 1965 627 1926 
L 627 2438 
Q 1005 2394 2317 2394 
L 2317 3021 
Q 1139 3021 890 2976 
L 890 3469 
Q 1229 3424 2317 3424 
L 2317 4013 
Q 864 4013 678 3981 
L 678 4486 
Q 954 4442 2317 4442 
z
M 3904 653 
L 3386 416 
Q 3194 928 2925 1312 
L 3398 1523 
Q 3686 1069 3904 653 
z
M 6144 352 
L 5645 13 
Q 5299 627 4781 1184 
L 5210 1472 
Q 5722 902 6144 352 
z
M 4986 262 
Q 4781 -294 4576 -412 
Q 4371 -531 3302 -531 
Q 2790 -531 2502 -505 
Q 2214 -480 2105 -429 
Q 1997 -378 1933 -262 
Q 1869 -147 1869 51 
L 1869 614 
Q 1869 1216 1830 1280 
Q 2042 1229 2451 1229 
Q 2522 1229 2522 1203 
Q 2522 1178 2458 1123 
Q 2394 1069 2394 934 
L 2394 141 
Q 2394 51 2544 -19 
Q 2694 -90 3084 -90 
Q 3475 -90 3747 -70 
Q 4019 -51 4096 -28 
Q 4173 -6 4227 58 
Q 4282 122 4326 250 
Q 4371 378 4410 582 
Q 4640 314 4986 262 
z
M 1344 1075 
L 960 -269 
L 358 -109 
Q 730 563 826 1235 
L 1344 1075 
z
" transform="scale(0.015625)"/>
        <path id="STHeiti-843d" d="M 2675 4621 
L 3866 4621 
Q 3853 4973 3802 5197 
Q 4096 5158 4390 5158 
Q 4461 5158 4461 5126 
Q 4461 5094 4403 5062 
Q 4346 5030 4346 4934 
L 4346 4621 
Q 5466 4621 5990 4672 
L 5990 4154 
Q 5517 4198 4346 4211 
L 4346 3789 
L 3866 3789 
L 3866 4211 
L 2675 4211 
L 2675 3699 
L 2195 3699 
L 2195 4211 
Q 1139 4198 557 4154 
L 557 4672 
Q 1088 4621 2195 4621 
Q 2182 4941 2131 5158 
Q 2426 5120 2720 5120 
Q 2790 5120 2790 5088 
Q 2790 5056 2732 5024 
Q 2675 4992 2675 4896 
L 2675 4621 
z
M 3930 1901 
Q 3328 1542 2624 1318 
Q 3034 1267 4000 1267 
Q 4966 1267 5242 1325 
Q 5197 1165 5197 832 
L 5197 26 
Q 5197 -275 5248 -608 
L 4704 -608 
L 4704 -198 
L 3078 -198 
L 3078 -582 
L 2554 -582 
Q 2598 -307 2598 19 
L 2598 832 
Q 2598 1101 2566 1299 
Q 2259 1210 2067 1178 
Q 1933 1427 1779 1600 
Q 2650 1728 3520 2157 
Q 3168 2426 2950 2822 
Q 2682 2464 2406 2176 
Q 2240 2298 1978 2381 
Q 2560 2790 3123 3923 
Q 3245 3859 3376 3811 
Q 3507 3763 3571 3753 
Q 3635 3744 3635 3709 
Q 3635 3674 3561 3642 
Q 3488 3610 3405 3494 
L 5504 3494 
Q 5018 2675 4365 2182 
Q 4979 1965 6022 1907 
Q 5850 1670 5766 1318 
Q 4570 1562 3930 1901 
z
M 3930 2387 
Q 4384 2720 4691 3162 
L 3181 3162 
L 3162 3130 
Q 3501 2637 3930 2387 
z
M 4704 198 
L 4704 864 
L 3078 864 
L 3078 198 
L 4704 198 
z
M 2035 3213 
L 1683 2797 
Q 1389 3110 838 3450 
L 1171 3821 
Q 1651 3462 2035 3213 
z
M 1600 2253 
L 1286 1818 
Q 877 2144 486 2330 
L 781 2720 
Q 1178 2458 1600 2253 
z
M 1786 1171 
Q 1651 979 1417 342 
Q 1184 -294 1126 -538 
Q 800 -269 512 -102 
Q 1101 666 1325 1459 
Q 1536 1267 1786 1171 
z
" transform="scale(0.015625)"/>
       </defs>
       <use xlink:href="#STHeiti-60b2"/>
       <use xlink:href="#STHeiti-89c2" transform="translate(99.999985 0)"/>
       <use xlink:href="#STHeiti-2014" transform="translate(199.999969 0)"/>
       <use xlink:href="#STHeiti-2014" transform="translate(299.999954 0)"/>
       <use xlink:href="#STHeiti-7ed3" transform="translate(399.999939 0)"/>
       <use xlink:href="#STHeiti-6784" transform="translate(499.999924 0)"/>
       <use xlink:href="#STHeiti-56de" transform="translate(599.999908 0)"/>
       <use xlink:href="#STHeiti-843d" transform="translate(699.999893 0)"/>
      </g>
     </g>
    </g>
   </g>
   <g id="matplotlib.axis_2">
    <g id="ytick_1">
     <g id="line2d_7">
      <path d="M 64.505897 270.164591 
L 701.779844 270.164591 
" clip-path="url(#pef148a3bbf)" style="fill: none; stroke: #b0b0b0; stroke-opacity: 0.3; stroke-width: 0.8; stroke-linecap: square"/>
     </g>
     <g id="line2d_8">
      <defs>
       <path id="m3681db0eb6" d="M 0 0 
L -3.5 0 
" style="stroke: #000000; stroke-width: 0.8"/>
      </defs>
      <g>
       <use xlink:href="#m3681db0eb6" x="64.505897" y="270.164591" style="stroke: #000000; stroke-width: 0.8"/>
      </g>
     </g>
     <g id="text_4">
      <!-- 0.0 -->
      <g transform="translate(43.654334 274.144278) scale(0.1 -0.1)">
       <defs>
        <path id="STHeiti-30" d="M 1747 269 
Q 1005 269 605 880 
Q 205 1491 205 2681 
Q 205 3872 605 4483 
Q 1005 5094 1741 5094 
Q 2477 5094 2909 4470 
Q 3341 3846 3341 2681 
Q 3341 1517 2905 893 
Q 2470 269 1747 269 
z
M 1760 4659 
Q 1229 4659 934 4147 
Q 640 3635 640 2669 
Q 640 685 1760 685 
Q 2304 685 2608 1206 
Q 2912 1728 2912 2681 
Q 2912 3635 2598 4147 
Q 2285 4659 1760 4659 
z
" transform="scale(0.015625)"/>
        <path id="STHeiti-2e" d="M 582 685 
Q 582 845 697 957 
Q 813 1069 969 1069 
Q 1126 1069 1238 957 
Q 1350 845 1350 681 
Q 1350 518 1238 406 
Q 1126 294 969 294 
Q 813 294 697 409 
Q 582 525 582 685 
z
" transform="scale(0.015625)"/>
       </defs>
       <use xlink:href="#STHeiti-30"/>
       <use xlink:href="#STHeiti-2e" transform="translate(55.399994 0)"/>
       <use xlink:href="#STHeiti-30" transform="translate(83.099991 0)"/>
      </g>
     </g>
    </g>
    <g id="ytick_2">
     <g id="line2d_9">
      <path d="M 64.505897 238.526762 
L 701.779844 238.526762 
" clip-path="url(#pef148a3bbf)" style="fill: none; stroke: #b0b0b0; stroke-opacity: 0.3; stroke-width: 0.8; stroke-linecap: square"/>
     </g>
     <g id="line2d_10">
      <g>
       <use xlink:href="#m3681db0eb6" x="64.505897" y="238.526762" style="stroke: #000000; stroke-width: 0.8"/>
      </g>
     </g>
     <g id="text_5">
      <!-- 0.2 -->
      <g transform="translate(43.654334 242.50645) scale(0.1 -0.1)">
       <use xlink:href="#STHeiti-30"/>
       <use xlink:href="#STHeiti-2e" transform="translate(55.399994 0)"/>
       <use xlink:href="#STHeiti-32" transform="translate(83.099991 0)"/>
      </g>
     </g>
    </g>
    <g id="ytick_3">
     <g id="line2d_11">
      <path d="M 64.505897 206.888934 
L 701.779844 206.888934 
" clip-path="url(#pef148a3bbf)" style="fill: none; stroke: #b0b0b0; stroke-opacity: 0.3; stroke-width: 0.8; stroke-linecap: square"/>
     </g>
     <g id="line2d_12">
      <g>
       <use xlink:href="#m3681db0eb6" x="64.505897" y="206.888934" style="stroke: #000000; stroke-width: 0.8"/>
      </g>
     </g>
     <g id="text_6">
      <!-- 0.4 -->
      <g transform="translate(43.654334 210.868621) scale(0.1 -0.1)">
       <defs>
        <path id="STHeiti-34" d="M 2726 5094 
L 2816 5094 
L 2816 1894 
L 3373 1894 
L 3373 1453 
L 2816 1453 
L 2816 384 
L 2362 384 
L 2362 1453 
L 160 1453 
L 2726 5094 
z
M 2362 1894 
L 2362 3808 
L 1005 1894 
L 2362 1894 
z
" transform="scale(0.015625)"/>
       </defs>
       <use xlink:href="#STHeiti-30"/>
       <use xlink:href="#STHeiti-2e" transform="translate(55.399994 0)"/>
       <use xlink:href="#STHeiti-34" transform="translate(83.099991 0)"/>
      </g>
     </g>
    </g>
    <g id="ytick_4">
     <g id="line2d_13">
      <path d="M 64.505897 175.251105 
L 701.779844 175.251105 
" clip-path="url(#pef148a3bbf)" style="fill: none; stroke: #b0b0b0; stroke-opacity: 0.3; stroke-width: 0.8; stroke-linecap: square"/>
     </g>
     <g id="line2d_14">
      <g>
       <use xlink:href="#m3681db0eb6" x="64.505897" y="175.251105" style="stroke: #000000; stroke-width: 0.8"/>
      </g>
     </g>
     <g id="text_7">
      <!-- 0.6 -->
      <g transform="translate(43.654334 179.230793) scale(0.1 -0.1)">
       <defs>
        <path id="STHeiti-36" d="M 2349 5094 
L 2726 4851 
L 1485 2970 
Q 1747 3059 1984 3059 
Q 2496 3059 2880 2652 
Q 3264 2246 3264 1660 
Q 3264 1075 2845 672 
Q 2426 269 1827 269 
Q 1229 269 829 678 
Q 429 1088 429 1677 
Q 429 1958 537 2256 
Q 646 2554 954 3014 
L 2349 5094 
z
M 2810 1683 
Q 2810 2086 2528 2368 
Q 2246 2650 1843 2650 
Q 1440 2650 1158 2368 
Q 877 2086 877 1683 
Q 877 1280 1161 998 
Q 1446 717 1843 717 
Q 2240 717 2525 998 
Q 2810 1280 2810 1683 
z
" transform="scale(0.015625)"/>
       </defs>
       <use xlink:href="#STHeiti-30"/>
       <use xlink:href="#STHeiti-2e" transform="translate(55.399994 0)"/>
       <use xlink:href="#STHeiti-36" transform="translate(83.099991 0)"/>
      </g>
     </g>
    </g>
    <g id="ytick_5">
     <g id="line2d_15">
      <path d="M 64.505897 143.613277 
L 701.779844 143.613277 
" clip-path="url(#pef148a3bbf)" style="fill: none; stroke: #b0b0b0; stroke-opacity: 0.3; stroke-width: 0.8; stroke-linecap: square"/>
     </g>
     <g id="line2d_16">
      <g>
       <use xlink:href="#m3681db0eb6" x="64.505897" y="143.613277" style="stroke: #000000; stroke-width: 0.8"/>
      </g>
     </g>
     <g id="text_8">
      <!-- 0.8 -->
      <g transform="translate(43.654334 147.592964) scale(0.1 -0.1)">
       <defs>
        <path id="STHeiti-38" d="M 2458 2906 
Q 3328 2477 3328 1702 
Q 3328 1088 2896 678 
Q 2464 269 1763 269 
Q 1062 269 640 678 
Q 218 1088 218 1664 
Q 218 2470 1107 2906 
Q 435 3264 435 3898 
Q 435 4371 828 4732 
Q 1222 5094 1779 5094 
Q 2336 5094 2726 4742 
Q 3117 4390 3117 3885 
Q 3117 3270 2458 2906 
z
M 2656 3904 
Q 2656 4211 2416 4432 
Q 2176 4653 1789 4653 
Q 1402 4653 1152 4432 
Q 902 4211 902 3897 
Q 902 3584 1174 3337 
Q 1446 3091 1792 3091 
Q 2138 3091 2397 3334 
Q 2656 3578 2656 3904 
z
M 2867 1696 
Q 2867 2086 2550 2380 
Q 2234 2675 1782 2675 
Q 1331 2675 1004 2371 
Q 678 2067 678 1654 
Q 678 1242 979 973 
Q 1280 704 1766 704 
Q 2253 704 2560 992 
Q 2867 1280 2867 1696 
z
" transform="scale(0.015625)"/>
       </defs>
       <use xlink:href="#STHeiti-30"/>
       <use xlink:href="#STHeiti-2e" transform="translate(55.399994 0)"/>
       <use xlink:href="#STHeiti-38" transform="translate(83.099991 0)"/>
      </g>
     </g>
    </g>
    <g id="ytick_6">
     <g id="line2d_17">
      <path d="M 64.505897 111.975448 
L 701.779844 111.975448 
" clip-path="url(#pef148a3bbf)" style="fill: none; stroke: #b0b0b0; stroke-opacity: 0.3; stroke-width: 0.8; stroke-linecap: square"/>
     </g>
     <g id="line2d_18">
      <g>
       <use xlink:href="#m3681db0eb6" x="64.505897" y="111.975448" style="stroke: #000000; stroke-width: 0.8"/>
      </g>
     </g>
     <g id="text_9">
      <!-- 1.0 -->
      <g transform="translate(43.654334 115.955136) scale(0.1 -0.1)">
       <use xlink:href="#STHeiti-31"/>
       <use xlink:href="#STHeiti-2e" transform="translate(55.399994 0)"/>
       <use xlink:href="#STHeiti-30" transform="translate(83.099991 0)"/>
      </g>
     </g>
    </g>
    <g id="ytick_7">
     <g id="line2d_19">
      <path d="M 64.505897 80.33762 
L 701.779844 80.33762 
" clip-path="url(#pef148a3bbf)" style="fill: none; stroke: #b0b0b0; stroke-opacity: 0.3; stroke-width: 0.8; stroke-linecap: square"/>
     </g>
     <g id="line2d_20">
      <g>
       <use xlink:href="#m3681db0eb6" x="64.505897" y="80.33762" style="stroke: #000000; stroke-width: 0.8"/>
      </g>
     </g>
     <g id="text_10">
      <!-- 1.2 -->
      <g transform="translate(43.654334 84.317307) scale(0.1 -0.1)">
       <use xlink:href="#STHeiti-31"/>
       <use xlink:href="#STHeiti-2e" transform="translate(55.399994 0)"/>
       <use xlink:href="#STHeiti-32" transform="translate(83.099991 0)"/>
      </g>
     </g>
    </g>
    <g id="ytick_8">
     <g id="line2d_21">
      <path d="M 64.505897 48.699791 
L 701.779844 48.699791 
" clip-path="url(#pef148a3bbf)" style="fill: none; stroke: #b0b0b0; stroke-opacity: 0.3; stroke-width: 0.8; stroke-linecap: square"/>
     </g>
     <g id="line2d_22">
      <g>
       <use xlink:href="#m3681db0eb6" x="64.505897" y="48.699791" style="stroke: #000000; stroke-width: 0.8"/>
      </g>
     </g>
     <g id="text_11">
      <!-- 1.4 -->
      <g transform="translate(43.654334 52.679479) scale(0.1 -0.1)">
       <use xlink:href="#STHeiti-31"/>
       <use xlink:href="#STHeiti-2e" transform="translate(55.399994 0)"/>
       <use xlink:href="#STHeiti-34" transform="translate(83.099991 0)"/>
      </g>
     </g>
    </g>
    <g id="text_12">
     <!-- 1e11 -->
     <g transform="translate(64.505897 15.159375) scale(0.1 -0.1)">
      <defs>
       <path id="STHeiti-65" d="M 3347 1485 
L 3718 1293 
Q 3168 269 2093 269 
Q 1325 269 825 797 
Q 326 1325 326 2067 
Q 326 2810 828 3341 
Q 1331 3872 2070 3872 
Q 2810 3872 3312 3379 
Q 3814 2886 3834 2035 
L 774 2035 
Q 794 1421 1162 1046 
Q 1530 672 2054 672 
Q 2918 672 3347 1485 
z
M 3347 2413 
Q 3258 2899 2899 3174 
Q 2541 3450 2074 3450 
Q 1114 3450 819 2413 
L 3347 2413 
z
" transform="scale(0.015625)"/>
      </defs>
      <use xlink:href="#STHeiti-31"/>
      <use xlink:href="#STHeiti-65" transform="translate(55.399994 0)"/>
      <use xlink:href="#STHeiti-31" transform="translate(120.399979 0)"/>
      <use xlink:href="#STHeiti-31" transform="translate(175.799973 0)"/>
     </g>
    </g>
   </g>
   <g id="line2d_23">
    <path d="M 93.472894 270.164591 
L 383.14287 270.164591 
L 672.812846 270.164591 
" clip-path="url(#pef148a3bbf)" style="fill: none; stroke: #1a365d; stroke-width: 2; stroke-linecap: square"/>
    <defs>
     <path id="m78df3c2c86" d="M 0 3 
C 0.795609 3 1.55874 2.683901 2.12132 2.12132 
C 2.683901 1.55874 3 0.795609 3 0 
C 3 -0.795609 2.683901 -1.55874 2.12132 -2.12132 
C 1.55874 -2.683901 0.795609 -3 0 -3 
C -0.795609 -3 -1.55874 -2.683901 -2.12132 -2.12132 
C -2.683901 -1.55874 -3 -0.795609 -3 0 
C -3 0.795609 -2.683901 1.55874 -2.12132 2.12132 
C -1.55874 2.683901 -0.795609 3 0 3 
z
" style="stroke: #1a365d"/>
    </defs>
    <g clip-path="url(#pef148a3bbf)">
     <use xlink:href="#m78df3c2c86" x="93.472894" y="270.164591" style="fill: #1a365d; stroke: #1a365d"/>
     <use xlink:href="#m78df3c2c86" x="383.14287" y="270.164591" style="fill: #1a365d; stroke: #1a365d"/>
     <use xlink:href="#m78df3c2c86" x="672.812846" y="270.164591" style="fill: #1a365d; stroke: #1a365d"/>
    </g>
   </g>
   <g id="line2d_24">
    <path d="M 93.472894 270.164591 
M 672.812846 270.164591 
" clip-path="url(#pef148a3bbf)" style="fill: none; stroke: #d69e2e; stroke-width: 2; stroke-linecap: square"/>
    <defs>
     <path id="m8affe600df" d="M 0 3 
C 0.795609 3 1.55874 2.683901 2.12132 2.12132 
C 2.683901 1.55874 3 0.795609 3 0 
C 3 -0.795609 2.683901 -1.55874 2.12132 -2.12132 
C 1.55874 -2.683901 0.795609 -3 0 -3 
C -0.795609 -3 -1.55874 -2.683901 -2.12132 -2.12132 
C -2.683901 -1.55874 -3 -0.795609 -3 0 
C -3 0.795609 -2.683901 1.55874 -2.12132 2.12132 
C -1.55874 2.683901 -0.795609 3 0 3 
z
" style="stroke: #d69e2e"/>
    </defs>
    <g clip-path="url(#pef148a3bbf)">
     <use xlink:href="#m8affe600df" x="93.472894" y="270.164591" style="fill: #d69e2e; stroke: #d69e2e"/>
     <use xlink:href="#m8affe600df" x="672.812846" y="270.164591" style="fill: #d69e2e; stroke: #d69e2e"/>
    </g>
   </g>
   <g id="line2d_25">
    <path d="M 93.472894 270.164591 
L 383.14287 30.159623 
" clip-path="url(#pef148a3bbf)" style="fill: none; stroke: #38a169; stroke-width: 2; stroke-linecap: square"/>
    <defs>
     <path id="mc63a96872a" d="M 0 3 
C 0.795609 3 1.55874 2.683901 2.12132 2.12132 
C 2.683901 1.55874 3 0.795609 3 0 
C 3 -0.795609 2.683901 -1.55874 2.12132 -2.12132 
C 1.55874 -2.683901 0.795609 -3 0 -3 
C -0.795609 -3 -1.55874 -2.683901 -2.12132 -2.12132 
C -2.683901 -1.55874 -3 -0.795609 -3 0 
C -3 0.795609 -2.683901 1.55874 -2.12132 2.12132 
C -1.55874 2.683901 -0.795609 3 0 3 
z
" style="stroke: #38a169"/>
    </defs>
    <g clip-path="url(#pef148a3bbf)">
     <use xlink:href="#mc63a96872a" x="93.472894" y="270.164591" style="fill: #38a169; stroke: #38a169"/>
     <use xlink:href="#mc63a96872a" x="383.14287" y="30.159623" style="fill: #38a169; stroke: #38a169"/>
    </g>
   </g>
   <g id="patch_3">
    <path d="M 64.505897 282.164839 
L 64.505897 18.159375 
" style="fill: none; stroke: #000000; stroke-width: 0.8; stroke-linejoin: miter; stroke-linecap: square"/>
   </g>
   <g id="patch_4">
    <path d="M 701.779844 282.164839 
L 701.779844 18.159375 
" style="fill: none; stroke: #000000; stroke-width: 0.8; stroke-linejoin: miter; stroke-linecap: square"/>
   </g>
   <g id="patch_5">
    <path d="M 64.505897 282.164839 
L 701.779844 282.164839 
" style="fill: none; stroke: #000000; stroke-width: 0.8; stroke-linejoin: miter; stroke-linecap: square"/>
   </g>
   <g id="patch_6">
    <path d="M 64.505897 18.159375 
L 701.779844 18.159375 
" style="fill: none; stroke: #000000; stroke-width: 0.8; stroke-linejoin: miter; stroke-linecap: square"/>
   </g>
   <g id="legend_1">
    <g id="patch_7">
     <path d="M 591.106563 63.969375 
L 695.479844 63.969375 
Q 697.279844 63.969375 697.279844 62.169375 
L 697.279844 24.459375 
Q 697.279844 22.659375 695.479844 22.659375 
L 591.106563 22.659375 
Q 589.306563 22.659375 589.306563 24.459375 
L 589.306563 62.169375 
Q 589.306563 63.969375 591.106563 63.969375 
z
" style="fill: #ffffff; opacity: 0.8; stroke: #cccccc; stroke-linejoin: miter"/>
    </g>
    <g id="line2d_26">
     <path d="M 592.906563 30.272813 
L 601.906563 30.272813 
L 610.906563 30.272813 
" style="fill: none; stroke: #1a365d; stroke-width: 2; stroke-linecap: square"/>
     <g>
      <use xlink:href="#m78df3c2c86" x="601.906563" y="30.272813" style="fill: #1a365d; stroke: #1a365d"/>
     </g>
    </g>
    <g id="text_13">
     <!-- 概率 -->
     <g transform="translate(618.106563 33.422813) scale(0.09 -0.09)">
      <defs>
       <path id="STHeiti-6982" d="M 1107 2163 
Q 877 1261 589 762 
Q 474 1018 256 1286 
Q 768 1958 1107 3386 
L 1107 3494 
Q 742 3488 435 3437 
L 435 3930 
Q 659 3898 1107 3885 
Q 1107 4813 1056 5139 
Q 1222 5101 1606 5101 
Q 1702 5101 1702 5059 
Q 1702 5018 1628 4950 
Q 1555 4883 1555 4774 
L 1555 3891 
Q 1862 3904 2054 3930 
L 2054 3437 
Q 1843 3469 1555 3488 
L 1555 2509 
L 1850 2701 
L 2189 2010 
L 1811 1773 
Q 1709 2106 1555 2426 
L 1555 627 
Q 1555 128 1619 -576 
L 1043 -576 
Q 1107 128 1107 627 
L 1107 2163 
z
M 4742 4390 
Q 4128 4378 3846 4333 
L 3846 4838 
Q 4205 4781 4899 4781 
Q 5594 4781 5933 4838 
L 5933 4333 
Q 5683 4378 5197 4390 
Q 5197 3392 5133 2810 
Q 5728 2822 6003 2867 
L 6003 2387 
Q 5779 2413 5069 2413 
Q 5037 2208 4947 1875 
Q 5229 1850 5309 1850 
Q 5389 1850 5389 1814 
Q 5389 1779 5357 1766 
Q 5242 1709 5242 1594 
L 5242 211 
Q 5235 64 5276 35 
Q 5318 6 5472 6 
Q 5574 6 5622 124 
Q 5670 243 5722 634 
Q 5965 442 6202 358 
Q 6086 -147 5942 -300 
Q 5798 -454 5481 -454 
Q 5165 -454 5040 -432 
Q 4915 -410 4876 -346 
Q 4838 -282 4838 -122 
L 4838 1517 
Q 4435 294 3456 -538 
Q 3251 -346 2976 -198 
Q 3610 166 4045 851 
Q 4480 1536 4634 2406 
Q 4070 2394 3859 2355 
L 3859 3872 
Q 4013 3834 4147 3834 
L 4378 3834 
Q 4416 3834 4416 3802 
Q 4416 3770 4358 3725 
Q 4301 3680 4275 2810 
L 4685 2810 
Q 4742 3482 4742 4390 
z
M 3226 1190 
Q 3110 1427 3008 1587 
L 3360 1754 
Q 3642 1293 3872 768 
L 3494 544 
L 3379 851 
L 2733 237 
Q 2483 13 2374 -128 
Q 2221 134 2074 301 
Q 2259 422 2259 1184 
L 2259 4179 
Q 2259 4550 2234 4794 
Q 2477 4749 2941 4749 
Q 3405 4749 3648 4794 
Q 3629 4512 3629 4179 
L 3629 2765 
Q 3629 2490 3648 2138 
Q 3437 2150 3226 2150 
L 2643 2150 
L 2643 666 
L 3226 1190 
z
M 3232 3674 
L 3232 4365 
L 2643 4365 
L 2643 3674 
L 3232 3674 
z
M 3232 2554 
L 3232 3283 
L 2643 3283 
L 2643 2554 
L 3232 2554 
z
" transform="scale(0.015625)"/>
       <path id="STHeiti-7387" d="M 3066 4621 
Q 2970 4934 2867 5152 
L 3526 5254 
Q 3546 4902 3616 4621 
Q 5018 4627 5837 4685 
L 5837 4115 
Q 4941 4179 3277 4179 
Q 1613 4179 678 4115 
L 678 4685 
Q 1568 4621 3066 4621 
z
M 3046 2790 
L 2662 2739 
Q 2195 2675 2106 2637 
Q 2106 2854 2010 3059 
Q 2336 3155 2842 4128 
Q 3110 3955 3251 3913 
Q 3392 3872 3392 3846 
Q 3392 3821 3251 3769 
Q 3110 3718 2944 3497 
Q 2778 3277 2573 3085 
L 3373 3142 
Q 3686 3501 3859 3770 
Q 4077 3546 4307 3443 
Q 4397 3405 4397 3360 
Q 4397 3315 4307 3308 
Q 4218 3302 3965 3126 
Q 3712 2950 3411 2636 
Q 3110 2323 2624 1952 
L 3808 2035 
Q 3661 2278 3552 2413 
L 3942 2656 
Q 4211 2176 4595 1600 
L 4141 1389 
Q 4109 1466 4000 1683 
L 3456 1651 
L 3456 1018 
Q 5126 1018 5990 1075 
L 5990 518 
Q 5126 576 3456 576 
Q 3469 -160 3520 -691 
L 2886 -691 
Q 2944 -70 2944 576 
Q 1325 563 506 518 
L 506 1075 
Q 1331 1030 2950 1018 
L 2950 1613 
Q 2419 1574 2093 1491 
Q 2048 1786 1933 1965 
Q 2157 1965 2377 2147 
Q 2598 2330 3046 2790 
z
M 5248 3898 
Q 5453 3629 5709 3475 
Q 5760 3443 5760 3414 
Q 5760 3386 5677 3386 
Q 5594 3386 5389 3296 
Q 5184 3206 4755 2803 
Q 4595 3002 4384 3117 
Q 4934 3482 5248 3898 
z
M 1958 3238 
L 1587 2848 
Q 1261 3219 877 3507 
L 1222 3859 
Q 1517 3558 1958 3238 
z
M 5811 1933 
L 5414 1485 
Q 5030 1920 4461 2291 
L 4826 2675 
Q 5242 2317 5811 1933 
z
M 2003 2170 
Q 1824 2099 1024 1350 
Q 890 1645 704 1888 
Q 1018 2003 1357 2272 
Q 1696 2541 1798 2662 
Q 1830 2413 2003 2170 
z
" transform="scale(0.015625)"/>
      </defs>
      <use xlink:href="#STHeiti-6982"/>
      <use xlink:href="#STHeiti-7387" transform="translate(99.999985 0)"/>
     </g>
    </g>
    <g id="line2d_27">
     <path d="M 592.906563 43.142813 
L 601.906563 43.142813 
L 610.906563 43.142813 
" style="fill: none; stroke: #d69e2e; stroke-width: 2; stroke-linecap: square"/>
     <g>
      <use xlink:href="#m8affe600df" x="601.906563" y="43.142813" style="fill: #d69e2e; stroke: #d69e2e"/>
     </g>
    </g>
    <g id="text_14">
     <!-- 客户演变+GM路径 -->
     <g transform="translate(618.106563 46.292813) scale(0.09 -0.09)">
      <defs>
       <path id="STHeiti-5ba2" d="M 3066 4608 
Q 2995 4909 2867 5197 
L 3546 5248 
Q 3642 4838 3680 4608 
Q 5235 4608 5779 4646 
L 5779 3501 
L 5267 3501 
L 5267 4186 
L 1216 4186 
L 1216 3501 
L 698 3501 
L 698 4646 
Q 1274 4608 3066 4608 
z
M 2285 3155 
Q 1894 2746 1414 2355 
Q 1229 2566 934 2662 
Q 2022 3264 2387 4051 
Q 2662 3936 2880 3904 
Q 2976 3891 2976 3849 
Q 2976 3808 2896 3779 
Q 2816 3750 2650 3565 
L 3475 3565 
Q 4525 3565 4973 3584 
Q 4525 2765 3661 2246 
Q 4659 1792 6003 1786 
Q 5818 1517 5760 1152 
Q 5216 1254 4928 1338 
Q 4915 1248 4915 851 
L 4915 109 
Q 4915 -269 4973 -582 
L 4397 -582 
L 4397 -211 
L 2112 -211 
L 2112 -614 
L 1517 -614 
Q 1587 -154 1587 211 
L 1587 851 
Q 1587 986 1568 1318 
Q 1203 1197 774 1082 
Q 608 1370 422 1594 
Q 1677 1747 2790 2234 
Q 2438 2464 2118 2746 
L 2432 3040 
Q 2829 2694 3238 2458 
Q 3680 2714 4090 3155 
L 2285 3155 
z
M 3200 1997 
Q 2426 1594 1696 1357 
Q 2112 1338 3309 1338 
Q 4506 1338 4864 1357 
Q 3930 1606 3200 1997 
z
M 2112 198 
L 4397 198 
L 4397 928 
L 2112 928 
L 2112 198 
z
" transform="scale(0.015625)"/>
       <path id="STHeiti-6237" d="M 3936 4518 
L 3296 4307 
Q 3187 4691 2970 5075 
L 3578 5274 
Q 3834 4717 3936 4518 
z
M 5082 1792 
L 1984 1792 
Q 1901 320 1082 -666 
Q 832 -474 435 -352 
Q 973 141 1206 749 
Q 1440 1357 1440 2368 
L 1440 3686 
Q 1440 4032 1402 4186 
Q 1798 4160 3568 4160 
Q 5338 4160 5696 4186 
Q 5645 4013 5645 3686 
L 5645 2131 
Q 5645 1638 5690 1299 
L 5082 1299 
L 5082 1792 
z
M 1990 2272 
L 5082 2272 
L 5082 3680 
L 1990 3680 
L 1990 2272 
z
" transform="scale(0.015625)"/>
       <path id="STHeiti-6f14" d="M 4166 4634 
Q 5440 4634 5811 4698 
L 5811 3469 
L 5293 3469 
L 5293 4218 
L 2413 4218 
L 2413 3347 
L 1901 3347 
L 1901 4698 
Q 2310 4640 3590 4634 
Q 3526 4928 3418 5139 
L 4045 5235 
Q 4083 4973 4166 4634 
z
M 1843 4429 
L 1446 4013 
Q 1082 4486 685 4736 
L 1082 5178 
Q 1542 4794 1843 4429 
z
M 4026 3277 
L 4026 2848 
Q 4787 2854 5446 2906 
Q 5414 2496 5414 1769 
Q 5414 1043 5446 640 
Q 4838 691 3859 691 
Q 2880 691 2138 653 
Q 2182 1043 2182 1750 
Q 2182 2458 2138 2906 
Q 2650 2854 3546 2848 
L 3546 3277 
Q 2976 3270 2656 3232 
L 2656 3744 
Q 3059 3699 3865 3699 
Q 4672 3699 5062 3744 
L 5062 3232 
Q 4698 3277 4026 3277 
z
M 3546 1952 
L 3546 2470 
L 2656 2470 
L 2656 1952 
L 3546 1952 
z
M 4026 2470 
L 4026 1952 
L 4934 1952 
L 4934 2470 
L 4026 2470 
z
M 4026 1600 
L 4026 1069 
L 4934 1069 
L 4934 1600 
L 4026 1600 
z
M 3546 1069 
L 3546 1600 
L 2656 1600 
L 2656 1069 
L 3546 1069 
z
M 1632 2976 
L 1267 2464 
Q 864 2842 307 3098 
L 634 3597 
Q 1133 3328 1632 2976 
z
M 1587 1594 
Q 1286 608 1082 -518 
Q 736 -269 435 -147 
Q 653 288 854 912 
Q 1056 1536 1114 1933 
Q 1312 1702 1587 1594 
z
M 5830 -224 
L 5466 -659 
Q 4787 -141 4077 243 
L 4461 595 
Q 5082 275 5830 -224 
z
M 3085 582 
Q 3290 371 3507 230 
Q 3571 192 3571 166 
Q 3571 141 3488 141 
Q 3360 141 2921 -115 
Q 2483 -371 1862 -640 
Q 1702 -390 1427 -250 
Q 2227 -13 3085 582 
z
" transform="scale(0.015625)"/>
       <path id="STHeiti-53d8" d="M 2272 4058 
Q 1350 4058 602 3987 
L 602 4563 
Q 1555 4493 2957 4493 
Q 2867 4832 2694 5056 
L 3302 5210 
Q 3437 4768 3507 4493 
Q 4922 4493 5869 4563 
L 5869 3987 
Q 5152 4058 4045 4058 
L 4045 2842 
Q 4045 2470 4083 2208 
L 3507 2208 
Q 3546 2470 3546 2842 
L 3546 4058 
L 2752 4058 
L 2752 2842 
Q 2752 2470 2790 2208 
L 2240 2208 
Q 2272 2483 2272 2842 
L 2272 4058 
z
M 1446 3808 
Q 1568 3680 1894 3514 
Q 1952 3482 1952 3446 
Q 1952 3411 1881 3398 
Q 1811 3386 1635 3194 
Q 1459 3002 890 2304 
Q 774 2464 416 2637 
Q 1018 3072 1446 3808 
z
M 5946 2650 
L 5478 2285 
Q 4877 3040 4346 3411 
L 4710 3744 
Q 5453 3181 5946 2650 
z
M 1459 1587 
Q 1280 1581 941 1549 
L 941 2086 
Q 1466 2022 3078 2022 
Q 4691 2022 5210 2086 
Q 4730 1107 3616 397 
Q 4499 83 5523 83 
Q 5741 83 5958 96 
Q 5715 -160 5594 -512 
Q 4358 -410 3136 122 
Q 2061 -384 736 -582 
Q 672 -282 429 -32 
Q 1696 -13 2624 378 
Q 2061 717 1459 1587 
z
M 2003 1594 
Q 2451 966 3110 608 
Q 3936 1030 4275 1594 
L 2003 1594 
z
" transform="scale(0.015625)"/>
       <path id="STHeiti-2b" d="M 1728 2899 
L 1728 4250 
L 2150 4250 
L 2150 2899 
L 3520 2899 
L 3520 2470 
L 2150 2470 
L 2150 1114 
L 1728 1114 
L 1728 2470 
L 358 2470 
L 358 2899 
L 1728 2899 
z
" transform="scale(0.015625)"/>
       <path id="STHeiti-47" d="M 5318 4211 
L 4966 3872 
Q 4582 4243 4124 4441 
Q 3667 4640 3180 4640 
Q 2694 4640 2208 4377 
Q 1722 4115 1450 3670 
Q 1178 3226 1178 2707 
Q 1178 1901 1782 1302 
Q 2387 704 3296 704 
Q 3987 704 4483 1091 
Q 4979 1478 5075 2144 
L 3610 2144 
L 3610 2586 
L 5594 2586 
Q 5574 1491 4940 880 
Q 4307 269 3283 269 
Q 2106 269 1398 992 
Q 691 1715 691 2691 
Q 691 3667 1395 4380 
Q 2099 5094 3244 5094 
Q 4390 5094 5318 4211 
z
" transform="scale(0.015625)"/>
       <path id="STHeiti-4d" d="M 352 384 
L 1005 4979 
L 1075 4979 
L 2944 1210 
L 4800 4979 
L 4870 4979 
L 5530 384 
L 5075 384 
L 4627 3674 
L 3002 384 
L 2886 384 
L 1242 3699 
L 794 384 
L 352 384 
z
" transform="scale(0.015625)"/>
       <path id="STHeiti-8def" d="M 4358 2605 
Q 3827 2195 3238 1894 
Q 3635 1850 4467 1850 
Q 5299 1850 5523 1901 
Q 5478 1715 5478 1389 
L 5478 326 
Q 5478 -102 5536 -493 
L 4986 -493 
L 4986 -19 
L 3699 -19 
L 3699 -595 
L 3149 -595 
Q 3213 -166 3213 218 
L 3213 1389 
Q 3213 1542 3174 1862 
Q 3078 1805 2982 1766 
Q 2829 2003 2605 2182 
Q 3392 2381 4077 2886 
Q 3782 3226 3552 3776 
Q 3354 3366 3162 3066 
Q 2963 3206 2707 3264 
Q 3027 3667 3289 4211 
Q 3552 4755 3648 5210 
Q 3955 5139 4128 5129 
Q 4301 5120 4301 5088 
Q 4301 5056 4237 5005 
Q 4083 4864 3917 4550 
L 5709 4550 
Q 5344 3590 4698 2899 
Q 5242 2579 6170 2470 
Q 5971 2170 5869 1856 
Q 4941 2150 4358 2605 
z
M 4365 3155 
Q 4717 3565 5011 4160 
L 3744 4160 
Q 4013 3501 4365 3155 
z
M 3699 410 
L 4986 410 
L 4986 1434 
L 3699 1434 
L 3699 410 
z
M 1600 442 
L 1600 2822 
Q 1107 2816 704 2778 
Q 749 3245 749 3837 
Q 749 4429 704 4768 
Q 1069 4710 1654 4710 
Q 2240 4710 2662 4768 
Q 2618 4333 2618 3785 
Q 2618 3238 2662 2771 
Q 2438 2810 2035 2816 
L 2035 2054 
Q 2432 2061 2618 2099 
L 2618 1638 
Q 2477 1677 2035 1683 
L 2035 544 
Q 2528 672 2822 768 
Q 2797 634 2797 493 
Q 2797 352 2803 269 
Q 2221 147 1517 -67 
Q 813 -282 557 -416 
Q 512 -134 384 218 
Q 474 224 704 262 
L 704 1402 
Q 704 1888 666 2195 
Q 922 2144 1235 2144 
Q 1318 2144 1318 2112 
Q 1318 2080 1260 2045 
Q 1203 2010 1168 1939 
Q 1133 1869 1133 1818 
L 1133 339 
Q 1440 403 1600 442 
z
M 1216 4301 
L 1216 3232 
L 2144 3232 
L 2144 4301 
L 1216 4301 
z
" transform="scale(0.015625)"/>
       <path id="STHeiti-5f84" d="M 1722 5171 
Q 1946 4966 2189 4813 
Q 2266 4768 2266 4739 
Q 2266 4710 2176 4691 
Q 2086 4672 1552 4112 
Q 1018 3552 646 3245 
Q 531 3456 269 3654 
Q 1030 4128 1722 5171 
z
M 4461 3488 
Q 5421 3066 6118 2611 
L 5709 2182 
Q 5037 2739 4102 3162 
Q 3443 2586 2637 2099 
Q 2502 2349 2189 2554 
Q 2822 2758 3446 3232 
Q 4070 3706 4506 4301 
L 3654 4301 
Q 3098 4301 2605 4243 
L 2605 4806 
Q 3098 4749 4067 4749 
Q 5037 4749 5536 4806 
Q 5133 4147 4461 3488 
z
M 1645 2534 
L 1645 -621 
L 1075 -621 
Q 1146 -70 1146 410 
L 1146 1958 
Q 781 1555 531 1325 
Q 442 1606 262 1798 
Q 454 1952 774 2269 
Q 1094 2586 1340 2970 
Q 1587 3354 1734 3648 
Q 1933 3482 2208 3360 
Q 2310 3315 2310 3273 
Q 2310 3232 2233 3216 
Q 2157 3200 2054 3081 
Q 1952 2963 1645 2534 
z
M 4346 1408 
L 4346 141 
Q 5562 147 6061 198 
L 6061 -384 
Q 5478 -326 4022 -326 
Q 2566 -326 1984 -384 
L 1984 198 
Q 2662 141 3808 141 
L 3808 1408 
Q 2893 1402 2496 1350 
L 2496 1926 
Q 2970 1869 4074 1869 
Q 5178 1869 5645 1926 
L 5645 1350 
Q 5248 1402 4346 1408 
z
" transform="scale(0.015625)"/>
      </defs>
      <use xlink:href="#STHeiti-5ba2"/>
      <use xlink:href="#STHeiti-6237" transform="translate(99.999985 0)"/>
      <use xlink:href="#STHeiti-6f14" transform="translate(199.999969 0)"/>
      <use xlink:href="#STHeiti-53d8" transform="translate(299.999954 0)"/>
      <use xlink:href="#STHeiti-2b" transform="translate(399.999939 0)"/>
      <use xlink:href="#STHeiti-47" transform="translate(460.59993 0)"/>
      <use xlink:href="#STHeiti-4d" transform="translate(547.799911 0)"/>
      <use xlink:href="#STHeiti-8def" transform="translate(639.699905 0)"/>
      <use xlink:href="#STHeiti-5f84" transform="translate(739.69989 0)"/>
     </g>
    </g>
    <g id="line2d_28">
     <path d="M 592.906563 56.012813 
L 601.906563 56.012813 
L 610.906563 56.012813 
" style="fill: none; stroke: #38a169; stroke-width: 2; stroke-linecap: square"/>
     <g>
      <use xlink:href="#mc63a96872a" x="601.906563" y="56.012813" style="fill: #38a169; stroke: #38a169"/>
     </g>
    </g>
    <g id="text_15">
     <!-- FY2026E合并GM -->
     <g transform="translate(618.106563 59.162813) scale(0.09 -0.09)">
      <defs>
       <path id="STHeiti-46" d="M 557 4979 
L 2861 4979 
L 2861 4525 
L 1018 4525 
L 1018 3091 
L 2861 3091 
L 2861 2637 
L 1018 2637 
L 1018 384 
L 557 384 
L 557 4979 
z
" transform="scale(0.015625)"/>
       <path id="STHeiti-59" d="M 198 4979 
L 730 4979 
L 1901 3085 
L 3059 4979 
L 3590 4979 
L 2131 2579 
L 2131 384 
L 1683 384 
L 1683 2579 
L 198 4979 
z
" transform="scale(0.015625)"/>
       <path id="STHeiti-45" d="M 563 4979 
L 3200 4979 
L 3200 4525 
L 1024 4525 
L 1024 3091 
L 3181 3091 
L 3181 2643 
L 1024 2643 
L 1024 838 
L 3181 838 
L 3181 384 
L 563 384 
L 563 4979 
z
" transform="scale(0.015625)"/>
       <path id="STHeiti-5408" d="M 3174 4582 
Q 2298 3482 774 2362 
Q 634 2573 288 2784 
Q 755 2982 1408 3497 
Q 2061 4013 2473 4544 
Q 2886 5075 2906 5267 
Q 3392 5094 3565 5075 
Q 3642 5062 3642 5024 
Q 3642 4986 3578 4966 
Q 3514 4947 3456 4902 
Q 3872 4250 4649 3763 
Q 5427 3277 6157 3168 
Q 5894 2899 5773 2560 
Q 3923 3373 3174 4582 
z
M 4640 2566 
Q 4262 2611 3203 2611 
Q 2144 2611 1766 2566 
L 1766 3110 
Q 2266 3066 3267 3066 
Q 4269 3066 4640 3110 
L 4640 2566 
z
M 4576 -19 
L 1869 -19 
L 1869 -595 
L 1261 -595 
Q 1318 -166 1318 205 
L 1318 1414 
Q 1318 1754 1293 1926 
Q 1568 1901 3225 1901 
Q 4883 1901 5152 1926 
Q 5126 1792 5126 1434 
L 5126 224 
Q 5126 -173 5184 -576 
L 4576 -576 
L 4576 -19 
z
M 1869 422 
L 4576 422 
L 4576 1440 
L 1869 1440 
L 1869 422 
z
" transform="scale(0.015625)"/>
       <path id="STHeiti-5e76" d="M 2086 3539 
Q 1030 3507 806 3482 
L 806 4013 
Q 1434 3955 2432 3955 
L 3533 3955 
Q 3955 4781 3981 5242 
Q 4115 5158 4336 5097 
Q 4557 5037 4672 5027 
Q 4787 5018 4787 4976 
Q 4787 4934 4698 4896 
Q 4493 4794 3962 3955 
Q 5338 3968 5677 4013 
L 5677 3482 
Q 5254 3526 4371 3539 
L 4371 2029 
Q 5261 2029 6042 2093 
L 6042 1530 
Q 5427 1581 4371 1581 
L 4371 614 
Q 4371 141 4429 -666 
L 3821 -666 
Q 3872 58 3872 614 
L 3872 1581 
L 2573 1581 
Q 2509 890 2125 384 
Q 1741 -122 966 -563 
Q 794 -282 461 -154 
Q 1235 147 1619 556 
Q 2003 966 2067 1581 
Q 973 1581 346 1530 
L 346 2093 
Q 1120 2029 2086 2029 
L 2086 3539 
z
M 3872 3539 
L 2592 3539 
L 2592 2029 
L 3872 2029 
L 3872 3539 
z
M 2752 4314 
L 2157 4064 
Q 1958 4557 1658 4922 
L 2227 5197 
Q 2438 4755 2752 4314 
z
" transform="scale(0.015625)"/>
      </defs>
      <use xlink:href="#STHeiti-46"/>
      <use xlink:href="#STHeiti-59" transform="translate(48.499985 0)"/>
      <use xlink:href="#STHeiti-32" transform="translate(107.699982 0)"/>
      <use xlink:href="#STHeiti-30" transform="translate(163.099976 0)"/>
      <use xlink:href="#STHeiti-32" transform="translate(218.499969 0)"/>
      <use xlink:href="#STHeiti-36" transform="translate(273.899963 0)"/>
      <use xlink:href="#STHeiti-45" transform="translate(329.299957 0)"/>
      <use xlink:href="#STHeiti-5408" transform="translate(382.899948 0)"/>
      <use xlink:href="#STHeiti-5e76" transform="translate(482.899933 0)"/>
      <use xlink:href="#STHeiti-47" transform="translate(582.899918 0)"/>
      <use xlink:href="#STHeiti-4d" transform="translate(670.099899 0)"/>
     </g>
    </g>
   </g>
  </g>
 </g>
 <defs>
  <clipPath id="pef148a3bbf">
   <rect x="64.505897" y="18.159375" width="637.273947" height="264.005464"/>
  </clipPath>
 </defs>
</svg>
