<?xml version="1.0" encoding="utf-8" standalone="no"?>
<!DOCTYPE svg PUBLIC "-//W3C//DTD SVG 1.1//EN"
  "http://www.w3.org/Graphics/SVG/1.1/DTD/svg11.dtd">
<svg xmlns:xlink="http://www.w3.org/1999/xlink" width="712.593437pt" height="352.23075pt" viewBox="0 0 712.593437 352.23075" xmlns="http://www.w3.org/2000/svg" version="1.1">
 <metadata>
  <rdf:RDF xmlns:dc="http://purl.org/dc/elements/1.1/" xmlns:cc="http://creativecommons.org/ns#" xmlns:rdf="http://www.w3.org/1999/02/22-rdf-syntax-ns#">
   <cc:Work>
    <dc:type rdf:resource="http://purl.org/dc/dcmitype/StillImage"/>
    <dc:date>2026-06-05T07:00:47.558034</dc:date>
    <dc:format>image/svg+xml</dc:format>
    <dc:creator>
     <cc:Agent>
      <dc:title>Matplotlib v3.10.9, https://matplotlib.org/</dc:title>
     </cc:Agent>
    </dc:creator>
   </cc:Work>
  </rdf:RDF>
 </metadata>
 <defs>
  <style type="text/css">*{stroke-linejoin: round; stroke-linecap: butt}</style>
 </defs>
 <g id="figure_1">
  <g id="patch_1">
   <path d="M 0 352.23075 
L 712.593437 352.23075 
L 712.593437 0 
L 0 0 
z
" style="fill: #ffffff"/>
  </g>
  <g id="axes_1">
   <g id="patch_2">
    <path d="M 45.223438 310.520464 
L 705.393438 310.520464 
L 705.393438 7.2 
L 45.223438 7.2 
z
" style="fill: #fafafa"/>
   </g>
   <g id="matplotlib.axis_1">
    <g id="xtick_1">
     <g id="line2d_1">
      <path d="M 75.231165 310.520464 
L 75.231165 7.2 
" clip-path="url(#p6ac269ee28)" style="fill: none; stroke: #b0b0b0; stroke-opacity: 0.3; stroke-width: 0.8; stroke-linecap: square"/>
     </g>
     <g id="line2d_2">
      <defs>
       <path id="m8f7d05bb3f" d="M 0 0 
L 0 3.5 
" style="stroke: #000000; stroke-width: 0.8"/>
      </defs>
      <g>
       <use xlink:href="#m8f7d05bb3f" x="75.231165" y="310.520464" style="stroke: #000000; stroke-width: 0.8"/>
      </g>
     </g>
     <g id="text_1">
      <!-- FY2021 -->
      <g transform="translate(46.0402 340.879891) rotate(-30) scale(0.1 -0.1)">
       <defs>
        <path id="STHeiti-46" d="M 557 4979 
L 2861 4979 
L 2861 4525 
L 1018 4525 
L 1018 3091 
L 2861 3091 
L 2861 2637 
L 1018 2637 
L 1018 384 
L 557 384 
L 557 4979 
z
" transform="scale(0.015625)"/>
        <path id="STHeiti-59" d="M 198 4979 
L 730 4979 
L 1901 3085 
L 3059 4979 
L 3590 4979 
L 2131 2579 
L 2131 384 
L 1683 384 
L 1683 2579 
L 198 4979 
z
" transform="scale(0.015625)"/>
        <path id="STHeiti-32" d="M 742 3539 
L 301 3539 
Q 333 4243 768 4668 
Q 1203 5094 1820 5094 
Q 2438 5094 2844 4694 
Q 3251 4294 3251 3718 
Q 3251 3290 3024 2925 
Q 2797 2560 2336 2061 
L 1190 826 
L 3315 826 
L 3315 384 
L 192 384 
L 1946 2278 
Q 2406 2778 2604 3066 
Q 2803 3354 2803 3725 
Q 2803 4096 2512 4377 
Q 2221 4659 1789 4659 
Q 1357 4659 1072 4368 
Q 787 4077 742 3539 
z
" transform="scale(0.015625)"/>
        <path id="STHeiti-30" d="M 1747 269 
Q 1005 269 605 880 
Q 205 1491 205 2681 
Q 205 3872 605 4483 
Q 1005 5094 1741 5094 
Q 2477 5094 2909 4470 
Q 3341 3846 3341 2681 
Q 3341 1517 2905 893 
Q 2470 269 1747 269 
z
M 1760 4659 
Q 1229 4659 934 4147 
Q 640 3635 640 2669 
Q 640 685 1760 685 
Q 2304 685 2608 1206 
Q 2912 1728 2912 2681 
Q 2912 3635 2598 4147 
Q 2285 4659 1760 4659 
z
" transform="scale(0.015625)"/>
        <path id="STHeiti-31" d="M 1184 4979 
L 2086 4979 
L 2086 384 
L 1632 384 
L 1632 4531 
L 909 4531 
L 1184 4979 
z
" transform="scale(0.015625)"/>
       </defs>
       <use xlink:href="#STHeiti-46"/>
       <use xlink:href="#STHeiti-59" transform="translate(48.499985 0)"/>
       <use xlink:href="#STHeiti-32" transform="translate(107.699982 0)"/>
       <use xlink:href="#STHeiti-30" transform="translate(163.099976 0)"/>
       <use xlink:href="#STHeiti-32" transform="translate(218.499969 0)"/>
       <use xlink:href="#STHeiti-31" transform="translate(273.899963 0)"/>
      </g>
     </g>
    </g>
    <g id="xtick_2">
     <g id="line2d_3">
      <path d="M 195.262074 310.520464 
L 195.262074 7.2 
" clip-path="url(#p6ac269ee28)" style="fill: none; stroke: #b0b0b0; stroke-opacity: 0.3; stroke-width: 0.8; stroke-linecap: square"/>
     </g>
     <g id="line2d_4">
      <g>
       <use xlink:href="#m8f7d05bb3f" x="195.262074" y="310.520464" style="stroke: #000000; stroke-width: 0.8"/>
      </g>
     </g>
     <g id="text_2">
      <!-- FY2022 -->
      <g transform="translate(166.071109 340.879891) rotate(-30) scale(0.1 -0.1)">
       <use xlink:href="#STHeiti-46"/>
       <use xlink:href="#STHeiti-59" transform="translate(48.499985 0)"/>
       <use xlink:href="#STHeiti-32" transform="translate(107.699982 0)"/>
       <use xlink:href="#STHeiti-30" transform="translate(163.099976 0)"/>
       <use xlink:href="#STHeiti-32" transform="translate(218.499969 0)"/>
       <use xlink:href="#STHeiti-32" transform="translate(273.899963 0)"/>
      </g>
     </g>
    </g>
    <g id="xtick_3">
     <g id="line2d_5">
      <path d="M 315.292983 310.520464 
L 315.292983 7.2 
" clip-path="url(#p6ac269ee28)" style="fill: none; stroke: #b0b0b0; stroke-opacity: 0.3; stroke-width: 0.8; stroke-linecap: square"/>
     </g>
     <g id="line2d_6">
      <g>
       <use xlink:href="#m8f7d05bb3f" x="315.292983" y="310.520464" style="stroke: #000000; stroke-width: 0.8"/>
      </g>
     </g>
     <g id="text_3">
      <!-- FY2023 -->
      <g transform="translate(286.102018 340.879891) rotate(-30) scale(0.1 -0.1)">
       <defs>
        <path id="STHeiti-33" d="M 845 3917 
L 378 3917 
Q 506 4486 867 4790 
Q 1229 5094 1750 5094 
Q 2272 5094 2659 4748 
Q 3046 4403 3046 3910 
Q 3046 3315 2458 2970 
Q 2861 2803 3081 2473 
Q 3302 2144 3302 1754 
Q 3302 1146 2857 707 
Q 2413 269 1734 269 
Q 1133 269 742 611 
Q 352 954 224 1613 
L 672 1613 
Q 794 1158 1046 937 
Q 1299 717 1760 717 
Q 2221 717 2534 1011 
Q 2848 1306 2848 1741 
Q 2848 2176 2502 2441 
Q 2157 2707 1498 2720 
L 1498 3142 
Q 1971 3142 2268 3360 
Q 2566 3578 2566 3901 
Q 2566 4224 2326 4438 
Q 2086 4653 1747 4653 
Q 1408 4653 1200 4470 
Q 992 4288 845 3917 
z
" transform="scale(0.015625)"/>
       </defs>
       <use xlink:href="#STHeiti-46"/>
       <use xlink:href="#STHeiti-59" transform="translate(48.499985 0)"/>
       <use xlink:href="#STHeiti-32" transform="translate(107.699982 0)"/>
       <use xlink:href="#STHeiti-30" transform="translate(163.099976 0)"/>
       <use xlink:href="#STHeiti-32" transform="translate(218.499969 0)"/>
       <use xlink:href="#STHeiti-33" transform="translate(273.899963 0)"/>
      </g>
     </g>
    </g>
    <g id="xtick_4">
     <g id="line2d_7">
      <path d="M 435.323892 310.520464 
L 435.323892 7.2 
" clip-path="url(#p6ac269ee28)" style="fill: none; stroke: #b0b0b0; stroke-opacity: 0.3; stroke-width: 0.8; stroke-linecap: square"/>
     </g>
     <g id="line2d_8">
      <g>
       <use xlink:href="#m8f7d05bb3f" x="435.323892" y="310.520464" style="stroke: #000000; stroke-width: 0.8"/>
      </g>
     </g>
     <g id="text_4">
      <!-- FY2024 -->
      <g transform="translate(406.132927 340.879891) rotate(-30) scale(0.1 -0.1)">
       <defs>
        <path id="STHeiti-34" d="M 2726 5094 
L 2816 5094 
L 2816 1894 
L 3373 1894 
L 3373 1453 
L 2816 1453 
L 2816 384 
L 2362 384 
L 2362 1453 
L 160 1453 
L 2726 5094 
z
M 2362 1894 
L 2362 3808 
L 1005 1894 
L 2362 1894 
z
" transform="scale(0.015625)"/>
       </defs>
       <use xlink:href="#STHeiti-46"/>
       <use xlink:href="#STHeiti-59" transform="translate(48.499985 0)"/>
       <use xlink:href="#STHeiti-32" transform="translate(107.699982 0)"/>
       <use xlink:href="#STHeiti-30" transform="translate(163.099976 0)"/>
       <use xlink:href="#STHeiti-32" transform="translate(218.499969 0)"/>
       <use xlink:href="#STHeiti-34" transform="translate(273.899963 0)"/>
      </g>
     </g>
    </g>
    <g id="xtick_5">
     <g id="line2d_9">
      <path d="M 555.354801 310.520464 
L 555.354801 7.2 
" clip-path="url(#p6ac269ee28)" style="fill: none; stroke: #b0b0b0; stroke-opacity: 0.3; stroke-width: 0.8; stroke-linecap: square"/>
     </g>
     <g id="line2d_10">
      <g>
       <use xlink:href="#m8f7d05bb3f" x="555.354801" y="310.520464" style="stroke: #000000; stroke-width: 0.8"/>
      </g>
     </g>
     <g id="text_5">
      <!-- FY2025 -->
      <g transform="translate(526.163836 340.879891) rotate(-30) scale(0.1 -0.1)">
       <defs>
        <path id="STHeiti-35" d="M 3149 4979 
L 3149 4544 
L 1510 4544 
L 1280 3290 
Q 1587 3379 1856 3379 
Q 2458 3379 2861 2953 
Q 3264 2528 3264 1862 
Q 3264 1197 2825 733 
Q 2387 269 1664 269 
Q 1114 269 726 598 
Q 339 928 262 1498 
L 730 1498 
Q 813 1114 1075 909 
Q 1338 704 1683 704 
Q 2138 704 2467 1043 
Q 2797 1382 2797 1888 
Q 2797 2349 2509 2646 
Q 2221 2944 1757 2944 
Q 1293 2944 730 2701 
L 1158 4979 
L 3149 4979 
z
" transform="scale(0.015625)"/>
       </defs>
       <use xlink:href="#STHeiti-46"/>
       <use xlink:href="#STHeiti-59" transform="translate(48.499985 0)"/>
       <use xlink:href="#STHeiti-32" transform="translate(107.699982 0)"/>
       <use xlink:href="#STHeiti-30" transform="translate(163.099976 0)"/>
       <use xlink:href="#STHeiti-32" transform="translate(218.499969 0)"/>
       <use xlink:href="#STHeiti-35" transform="translate(273.899963 0)"/>
      </g>
     </g>
    </g>
    <g id="xtick_6">
     <g id="line2d_11">
      <path d="M 675.38571 310.520464 
L 675.38571 7.2 
" clip-path="url(#p6ac269ee28)" style="fill: none; stroke: #b0b0b0; stroke-opacity: 0.3; stroke-width: 0.8; stroke-linecap: square"/>
     </g>
     <g id="line2d_12">
      <g>
       <use xlink:href="#m8f7d05bb3f" x="675.38571" y="310.520464" style="stroke: #000000; stroke-width: 0.8"/>
      </g>
     </g>
     <g id="text_6">
      <!-- Q1 2026 -->
      <g transform="translate(641.016184 343.869735) rotate(-30) scale(0.1 -0.1)">
       <defs>
        <path id="STHeiti-51" d="M 4416 883 
L 5094 19 
L 4531 19 
L 4064 614 
Q 3494 269 2822 269 
Q 1779 269 1072 963 
Q 365 1658 365 2662 
Q 365 3693 1049 4393 
Q 1734 5094 2784 5094 
Q 3443 5094 4003 4774 
Q 4563 4454 4883 3897 
Q 5203 3341 5203 2682 
Q 5203 1626 4416 883 
z
M 4134 1242 
Q 4730 1830 4730 2668 
Q 4730 3507 4154 4076 
Q 3578 4646 2778 4646 
Q 1978 4646 1411 4070 
Q 845 3494 845 2659 
Q 845 1824 1421 1270 
Q 1997 717 2790 717 
Q 3322 717 3776 979 
L 2752 2278 
L 3309 2278 
L 4134 1242 
z
" transform="scale(0.015625)"/>
        <path id="STHeiti-20" transform="scale(0.015625)"/>
        <path id="STHeiti-36" d="M 2349 5094 
L 2726 4851 
L 1485 2970 
Q 1747 3059 1984 3059 
Q 2496 3059 2880 2652 
Q 3264 2246 3264 1660 
Q 3264 1075 2845 672 
Q 2426 269 1827 269 
Q 1229 269 829 678 
Q 429 1088 429 1677 
Q 429 1958 537 2256 
Q 646 2554 954 3014 
L 2349 5094 
z
M 2810 1683 
Q 2810 2086 2528 2368 
Q 2246 2650 1843 2650 
Q 1440 2650 1158 2368 
Q 877 2086 877 1683 
Q 877 1280 1161 998 
Q 1446 717 1843 717 
Q 2240 717 2525 998 
Q 2810 1280 2810 1683 
z
" transform="scale(0.015625)"/>
       </defs>
       <use xlink:href="#STHeiti-51"/>
       <use xlink:href="#STHeiti-31" transform="translate(87.099991 0)"/>
       <use xlink:href="#STHeiti-20" transform="translate(142.499985 0)"/>
       <use xlink:href="#STHeiti-32" transform="translate(167.499969 0)"/>
       <use xlink:href="#STHeiti-30" transform="translate(222.899963 0)"/>
       <use xlink:href="#STHeiti-32" transform="translate(278.299957 0)"/>
       <use xlink:href="#STHeiti-36" transform="translate(333.699951 0)"/>
      </g>
     </g>
    </g>
   </g>
   <g id="matplotlib.axis_2">
    <g id="ytick_1">
     <g id="line2d_13">
      <path d="M 45.223438 305.908653 
L 705.393438 305.908653 
" clip-path="url(#p6ac269ee28)" style="fill: none; stroke: #b0b0b0; stroke-opacity: 0.3; stroke-width: 0.8; stroke-linecap: square"/>
     </g>
     <g id="line2d_14">
      <defs>
       <path id="m714f1659b0" d="M 0 0 
L -3.5 0 
" style="stroke: #000000; stroke-width: 0.8"/>
      </defs>
      <g>
       <use xlink:href="#m714f1659b0" x="45.223438" y="305.908653" style="stroke: #000000; stroke-width: 0.8"/>
      </g>
     </g>
     <g id="text_7">
      <!-- -60000 -->
      <g transform="translate(7.2 309.88834) scale(0.1 -0.1)">
       <defs>
        <path id="STHeiti-2d" d="M 205 2304 
L 1920 2304 
L 1920 1920 
L 205 1920 
L 205 2304 
z
" transform="scale(0.015625)"/>
       </defs>
       <use xlink:href="#STHeiti-2d"/>
       <use xlink:href="#STHeiti-36" transform="translate(33.199997 0)"/>
       <use xlink:href="#STHeiti-30" transform="translate(88.599991 0)"/>
       <use xlink:href="#STHeiti-30" transform="translate(143.999985 0)"/>
       <use xlink:href="#STHeiti-30" transform="translate(199.399979 0)"/>
       <use xlink:href="#STHeiti-30" transform="translate(254.799973 0)"/>
      </g>
     </g>
    </g>
    <g id="ytick_2">
     <g id="line2d_15">
      <path d="M 45.223438 264.409409 
L 705.393438 264.409409 
" clip-path="url(#p6ac269ee28)" style="fill: none; stroke: #b0b0b0; stroke-opacity: 0.3; stroke-width: 0.8; stroke-linecap: square"/>
     </g>
     <g id="line2d_16">
      <g>
       <use xlink:href="#m714f1659b0" x="45.223438" y="264.409409" style="stroke: #000000; stroke-width: 0.8"/>
      </g>
     </g>
     <g id="text_8">
      <!-- -50000 -->
      <g transform="translate(7.2 268.389097) scale(0.1 -0.1)">
       <use xlink:href="#STHeiti-2d"/>
       <use xlink:href="#STHeiti-35" transform="translate(33.199997 0)"/>
       <use xlink:href="#STHeiti-30" transform="translate(88.599991 0)"/>
       <use xlink:href="#STHeiti-30" transform="translate(143.999985 0)"/>
       <use xlink:href="#STHeiti-30" transform="translate(199.399979 0)"/>
       <use xlink:href="#STHeiti-30" transform="translate(254.799973 0)"/>
      </g>
     </g>
    </g>
    <g id="ytick_3">
     <g id="line2d_17">
      <path d="M 45.223438 222.910165 
L 705.393438 222.910165 
" clip-path="url(#p6ac269ee28)" style="fill: none; stroke: #b0b0b0; stroke-opacity: 0.3; stroke-width: 0.8; stroke-linecap: square"/>
     </g>
     <g id="line2d_18">
      <g>
       <use xlink:href="#m714f1659b0" x="45.223438" y="222.910165" style="stroke: #000000; stroke-width: 0.8"/>
      </g>
     </g>
     <g id="text_9">
      <!-- -40000 -->
      <g transform="translate(7.2 226.889853) scale(0.1 -0.1)">
       <use xlink:href="#STHeiti-2d"/>
       <use xlink:href="#STHeiti-34" transform="translate(33.199997 0)"/>
       <use xlink:href="#STHeiti-30" transform="translate(88.599991 0)"/>
       <use xlink:href="#STHeiti-30" transform="translate(143.999985 0)"/>
       <use xlink:href="#STHeiti-30" transform="translate(199.399979 0)"/>
       <use xlink:href="#STHeiti-30" transform="translate(254.799973 0)"/>
      </g>
     </g>
    </g>
    <g id="ytick_4">
     <g id="line2d_19">
      <path d="M 45.223438 181.410921 
L 705.393438 181.410921 
" clip-path="url(#p6ac269ee28)" style="fill: none; stroke: #b0b0b0; stroke-opacity: 0.3; stroke-width: 0.8; stroke-linecap: square"/>
     </g>
     <g id="line2d_20">
      <g>
       <use xlink:href="#m714f1659b0" x="45.223438" y="181.410921" style="stroke: #000000; stroke-width: 0.8"/>
      </g>
     </g>
     <g id="text_10">
      <!-- -30000 -->
      <g transform="translate(7.2 185.390609) scale(0.1 -0.1)">
       <use xlink:href="#STHeiti-2d"/>
       <use xlink:href="#STHeiti-33" transform="translate(33.199997 0)"/>
       <use xlink:href="#STHeiti-30" transform="translate(88.599991 0)"/>
       <use xlink:href="#STHeiti-30" transform="translate(143.999985 0)"/>
       <use xlink:href="#STHeiti-30" transform="translate(199.399979 0)"/>
       <use xlink:href="#STHeiti-30" transform="translate(254.799973 0)"/>
      </g>
     </g>
    </g>
    <g id="ytick_5">
     <g id="line2d_21">
      <path d="M 45.223438 139.911677 
L 705.393438 139.911677 
" clip-path="url(#p6ac269ee28)" style="fill: none; stroke: #b0b0b0; stroke-opacity: 0.3; stroke-width: 0.8; stroke-linecap: square"/>
     </g>
     <g id="line2d_22">
      <g>
       <use xlink:href="#m714f1659b0" x="45.223438" y="139.911677" style="stroke: #000000; stroke-width: 0.8"/>
      </g>
     </g>
     <g id="text_11">
      <!-- -20000 -->
      <g transform="translate(7.2 143.891365) scale(0.1 -0.1)">
       <use xlink:href="#STHeiti-2d"/>
       <use xlink:href="#STHeiti-32" transform="translate(33.199997 0)"/>
       <use xlink:href="#STHeiti-30" transform="translate(88.599991 0)"/>
       <use xlink:href="#STHeiti-30" transform="translate(143.999985 0)"/>
       <use xlink:href="#STHeiti-30" transform="translate(199.399979 0)"/>
       <use xlink:href="#STHeiti-30" transform="translate(254.799973 0)"/>
      </g>
     </g>
    </g>
    <g id="ytick_6">
     <g id="line2d_23">
      <path d="M 45.223438 98.412433 
L 705.393438 98.412433 
" clip-path="url(#p6ac269ee28)" style="fill: none; stroke: #b0b0b0; stroke-opacity: 0.3; stroke-width: 0.8; stroke-linecap: square"/>
     </g>
     <g id="line2d_24">
      <g>
       <use xlink:href="#m714f1659b0" x="45.223438" y="98.412433" style="stroke: #000000; stroke-width: 0.8"/>
      </g>
     </g>
     <g id="text_12">
      <!-- -10000 -->
      <g transform="translate(7.2 102.392121) scale(0.1 -0.1)">
       <use xlink:href="#STHeiti-2d"/>
       <use xlink:href="#STHeiti-31" transform="translate(33.199997 0)"/>
       <use xlink:href="#STHeiti-30" transform="translate(88.599991 0)"/>
       <use xlink:href="#STHeiti-30" transform="translate(143.999985 0)"/>
       <use xlink:href="#STHeiti-30" transform="translate(199.399979 0)"/>
       <use xlink:href="#STHeiti-30" transform="translate(254.799973 0)"/>
      </g>
     </g>
    </g>
    <g id="ytick_7">
     <g id="line2d_25">
      <path d="M 45.223438 56.913189 
L 705.393438 56.913189 
" clip-path="url(#p6ac269ee28)" style="fill: none; stroke: #b0b0b0; stroke-opacity: 0.3; stroke-width: 0.8; stroke-linecap: square"/>
     </g>
     <g id="line2d_26">
      <g>
       <use xlink:href="#m714f1659b0" x="45.223438" y="56.913189" style="stroke: #000000; stroke-width: 0.8"/>
      </g>
     </g>
     <g id="text_13">
      <!-- 0 -->
      <g transform="translate(32.682813 60.892877) scale(0.1 -0.1)">
       <use xlink:href="#STHeiti-30"/>
      </g>
     </g>
    </g>
    <g id="ytick_8">
     <g id="line2d_27">
      <path d="M 45.223438 15.413945 
L 705.393438 15.413945 
" clip-path="url(#p6ac269ee28)" style="fill: none; stroke: #b0b0b0; stroke-opacity: 0.3; stroke-width: 0.8; stroke-linecap: square"/>
     </g>
     <g id="line2d_28">
      <g>
       <use xlink:href="#m714f1659b0" x="45.223438" y="15.413945" style="stroke: #000000; stroke-width: 0.8"/>
      </g>
     </g>
     <g id="text_14">
      <!-- 10000 -->
      <g transform="translate(10.520313 19.393633) scale(0.1 -0.1)">
       <use xlink:href="#STHeiti-31"/>
       <use xlink:href="#STHeiti-30" transform="translate(55.399994 0)"/>
       <use xlink:href="#STHeiti-30" transform="translate(110.799988 0)"/>
       <use xlink:href="#STHeiti-30" transform="translate(166.199982 0)"/>
       <use xlink:href="#STHeiti-30" transform="translate(221.599976 0)"/>
      </g>
     </g>
    </g>
   </g>
   <g id="line2d_29">
    <path d="M 75.231165 56.514797 
L 195.262074 56.157903 
M 555.354801 45.375569 
L 675.38571 56.219737 
" clip-path="url(#p6ac269ee28)" style="fill: none; stroke: #1a365d; stroke-width: 2; stroke-linecap: square"/>
    <defs>
     <path id="macee31ba44" d="M 0 3 
C 0.795609 3 1.55874 2.683901 2.12132 2.12132 
C 2.683901 1.55874 3 0.795609 3 0 
C 3 -0.795609 2.683901 -1.55874 2.12132 -2.12132 
C 1.55874 -2.683901 0.795609 -3 0 -3 
C -0.795609 -3 -1.55874 -2.683901 -2.12132 -2.12132 
C -2.683901 -1.55874 -3 -0.795609 -3 0 
C -3 0.795609 -2.683901 1.55874 -2.12132 2.12132 
C -1.55874 2.683901 -0.795609 3 0 3 
z
" style="stroke: #1a365d"/>
    </defs>
    <g clip-path="url(#p6ac269ee28)">
     <use xlink:href="#macee31ba44" x="75.231165" y="56.514797" style="fill: #1a365d; stroke: #1a365d"/>
     <use xlink:href="#macee31ba44" x="195.262074" y="56.157903" style="fill: #1a365d; stroke: #1a365d"/>
     <use xlink:href="#macee31ba44" x="555.354801" y="45.375569" style="fill: #1a365d; stroke: #1a365d"/>
     <use xlink:href="#macee31ba44" x="675.38571" y="56.219737" style="fill: #1a365d; stroke: #1a365d"/>
    </g>
   </g>
   <g id="line2d_30">
    <path d="M 315.292983 56.654234 
L 435.323892 46.153265 
L 555.354801 51.331956 
L 675.38571 56.857995 
" clip-path="url(#p6ac269ee28)" style="fill: none; stroke: #d69e2e; stroke-width: 2; stroke-linecap: square"/>
    <defs>
     <path id="mf01129d180" d="M 0 3 
C 0.795609 3 1.55874 2.683901 2.12132 2.12132 
C 2.683901 1.55874 3 0.795609 3 0 
C 3 -0.795609 2.683901 -1.55874 2.12132 -2.12132 
C 1.55874 -2.683901 0.795609 -3 0 -3 
C -0.795609 -3 -1.55874 -2.683901 -2.12132 -2.12132 
C -2.683901 -1.55874 -3 -0.795609 -3 0 
C -3 0.795609 -2.683901 1.55874 -2.12132 2.12132 
C -1.55874 2.683901 -0.795609 3 0 3 
z
" style="stroke: #d69e2e"/>
    </defs>
    <g clip-path="url(#p6ac269ee28)">
     <use xlink:href="#mf01129d180" x="315.292983" y="56.654234" style="fill: #d69e2e; stroke: #d69e2e"/>
     <use xlink:href="#mf01129d180" x="435.323892" y="46.153265" style="fill: #d69e2e; stroke: #d69e2e"/>
     <use xlink:href="#mf01129d180" x="555.354801" y="51.331956" style="fill: #d69e2e; stroke: #d69e2e"/>
     <use xlink:href="#mf01129d180" x="675.38571" y="56.857995" style="fill: #d69e2e; stroke: #d69e2e"/>
    </g>
   </g>
   <g id="line2d_31">
    <path d="M 75.231165 51.93328 
L 195.262074 182.651749 
L 315.292983 296.73317 
L 435.323892 20.987294 
L 555.354801 38.20118 
L 675.38571 52.725916 
" clip-path="url(#p6ac269ee28)" style="fill: none; stroke: #38a169; stroke-width: 2; stroke-linecap: square"/>
    <defs>
     <path id="mbc3f941d27" d="M 0 3 
C 0.795609 3 1.55874 2.683901 2.12132 2.12132 
C 2.683901 1.55874 3 0.795609 3 0 
C 3 -0.795609 2.683901 -1.55874 2.12132 -2.12132 
C 1.55874 -2.683901 0.795609 -3 0 -3 
C -0.795609 -3 -1.55874 -2.683901 -2.12132 -2.12132 
C -2.683901 -1.55874 -3 -0.795609 -3 0 
C -3 0.795609 -2.683901 1.55874 -2.12132 2.12132 
C -1.55874 2.683901 -0.795609 3 0 3 
z
" style="stroke: #38a169"/>
    </defs>
    <g clip-path="url(#p6ac269ee28)">
     <use xlink:href="#mbc3f941d27" x="75.231165" y="51.93328" style="fill: #38a169; stroke: #38a169"/>
     <use xlink:href="#mbc3f941d27" x="195.262074" y="182.651749" style="fill: #38a169; stroke: #38a169"/>
     <use xlink:href="#mbc3f941d27" x="315.292983" y="296.73317" style="fill: #38a169; stroke: #38a169"/>
     <use xlink:href="#mbc3f941d27" x="435.323892" y="20.987294" style="fill: #38a169; stroke: #38a169"/>
     <use xlink:href="#mbc3f941d27" x="555.354801" y="38.20118" style="fill: #38a169; stroke: #38a169"/>
     <use xlink:href="#mbc3f941d27" x="675.38571" y="52.725916" style="fill: #38a169; stroke: #38a169"/>
    </g>
   </g>
   <g id="patch_3">
    <path d="M 45.223438 310.520464 
L 45.223438 7.2 
" style="fill: none; stroke: #000000; stroke-width: 0.8; stroke-linejoin: miter; stroke-linecap: square"/>
   </g>
   <g id="patch_4">
    <path d="M 705.393438 310.520464 
L 705.393438 7.2 
" style="fill: none; stroke: #000000; stroke-width: 0.8; stroke-linejoin: miter; stroke-linecap: square"/>
   </g>
   <g id="patch_5">
    <path d="M 45.223438 310.520464 
L 705.393438 310.520464 
" style="fill: none; stroke: #000000; stroke-width: 0.8; stroke-linejoin: miter; stroke-linecap: square"/>
   </g>
   <g id="patch_6">
    <path d="M 45.223438 7.2 
L 705.393438 7.2 
" style="fill: none; stroke: #000000; stroke-width: 0.8; stroke-linejoin: miter; stroke-linecap: square"/>
   </g>
   <g id="legend_1">
    <g id="patch_7">
     <path d="M 51.523438 306.020464 
L 152.323437 306.020464 
Q 154.123437 306.020464 154.123437 304.220464 
L 154.123437 266.36562 
Q 154.123437 264.56562 152.323437 264.56562 
L 51.523438 264.56562 
Q 49.723438 264.56562 49.723438 266.36562 
L 49.723438 304.220464 
Q 49.723438 306.020464 51.523438 306.020464 
z
" style="fill: #ffffff; opacity: 0.8; stroke: #cccccc; stroke-linejoin: miter"/>
    </g>
    <g id="line2d_32">
     <path d="M 53.323438 272.179058 
L 62.323438 272.179058 
L 71.323438 272.179058 
" style="fill: none; stroke: #1a365d; stroke-width: 2; stroke-linecap: square"/>
     <g>
      <use xlink:href="#macee31ba44" x="62.323438" y="272.179058" style="fill: #1a365d; stroke: #1a365d"/>
     </g>
    </g>
    <g id="text_15">
     <!-- 合并其他收益 -->
     <g transform="translate(78.523438 275.329058) scale(0.09 -0.09)">
      <defs>
       <path id="STHeiti-5408" d="M 3174 4582 
Q 2298 3482 774 2362 
Q 634 2573 288 2784 
Q 755 2982 1408 3497 
Q 2061 4013 2473 4544 
Q 2886 5075 2906 5267 
Q 3392 5094 3565 5075 
Q 3642 5062 3642 5024 
Q 3642 4986 3578 4966 
Q 3514 4947 3456 4902 
Q 3872 4250 4649 3763 
Q 5427 3277 6157 3168 
Q 5894 2899 5773 2560 
Q 3923 3373 3174 4582 
z
M 4640 2566 
Q 4262 2611 3203 2611 
Q 2144 2611 1766 2566 
L 1766 3110 
Q 2266 3066 3267 3066 
Q 4269 3066 4640 3110 
L 4640 2566 
z
M 4576 -19 
L 1869 -19 
L 1869 -595 
L 1261 -595 
Q 1318 -166 1318 205 
L 1318 1414 
Q 1318 1754 1293 1926 
Q 1568 1901 3225 1901 
Q 4883 1901 5152 1926 
Q 5126 1792 5126 1434 
L 5126 224 
Q 5126 -173 5184 -576 
L 4576 -576 
L 4576 -19 
z
M 1869 422 
L 4576 422 
L 4576 1440 
L 1869 1440 
L 1869 422 
z
" transform="scale(0.015625)"/>
       <path id="STHeiti-5e76" d="M 2086 3539 
Q 1030 3507 806 3482 
L 806 4013 
Q 1434 3955 2432 3955 
L 3533 3955 
Q 3955 4781 3981 5242 
Q 4115 5158 4336 5097 
Q 4557 5037 4672 5027 
Q 4787 5018 4787 4976 
Q 4787 4934 4698 4896 
Q 4493 4794 3962 3955 
Q 5338 3968 5677 4013 
L 5677 3482 
Q 5254 3526 4371 3539 
L 4371 2029 
Q 5261 2029 6042 2093 
L 6042 1530 
Q 5427 1581 4371 1581 
L 4371 614 
Q 4371 141 4429 -666 
L 3821 -666 
Q 3872 58 3872 614 
L 3872 1581 
L 2573 1581 
Q 2509 890 2125 384 
Q 1741 -122 966 -563 
Q 794 -282 461 -154 
Q 1235 147 1619 556 
Q 2003 966 2067 1581 
Q 973 1581 346 1530 
L 346 2093 
Q 1120 2029 2086 2029 
L 2086 3539 
z
M 3872 3539 
L 2592 3539 
L 2592 2029 
L 3872 2029 
L 3872 3539 
z
M 2752 4314 
L 2157 4064 
Q 1958 4557 1658 4922 
L 2227 5197 
Q 2438 4755 2752 4314 
z
" transform="scale(0.015625)"/>
       <path id="STHeiti-5176" d="M 1798 4422 
Q 1798 4819 1728 5158 
Q 1958 5114 2362 5114 
Q 2432 5114 2432 5088 
Q 2432 5062 2374 5014 
Q 2317 4966 2317 4819 
L 2317 4422 
L 4141 4422 
Q 4141 4941 4083 5235 
Q 4390 5178 4678 5165 
Q 4800 5158 4800 5120 
Q 4800 5094 4723 5043 
Q 4646 4992 4646 4864 
L 4646 4422 
Q 5306 4435 5728 4474 
L 5728 3942 
Q 5306 3981 4646 3994 
L 4646 1376 
Q 5370 1376 6016 1434 
L 6016 870 
Q 5382 934 3225 934 
Q 1069 934 422 870 
L 422 1434 
Q 1075 1376 1798 1376 
L 1798 3994 
Q 1222 3994 646 3942 
L 646 4474 
Q 1222 4422 1798 4422 
z
M 2317 3430 
L 4141 3430 
L 4141 3994 
L 2317 3994 
L 2317 3430 
z
M 4141 3021 
L 2317 3021 
L 2317 2451 
L 4141 2451 
L 4141 3021 
z
M 2317 2042 
L 2317 1376 
L 4141 1376 
L 4141 2042 
L 2317 2042 
z
M 2374 755 
Q 2605 518 2874 314 
Q 2918 282 2918 256 
Q 2918 230 2854 230 
Q 2701 230 2422 99 
Q 2144 -32 1062 -627 
Q 966 -410 678 -166 
Q 1568 58 2374 755 
z
M 5709 -51 
L 5331 -550 
Q 4653 -32 3738 294 
L 4058 717 
Q 4883 378 5709 -51 
z
" transform="scale(0.015625)"/>
       <path id="STHeiti-4ed6" d="M 1670 3802 
L 1670 -576 
L 1107 -576 
Q 1178 154 1178 864 
L 1178 2874 
Q 979 2509 672 2035 
Q 480 2349 262 2502 
Q 800 3130 1155 3910 
Q 1510 4691 1606 5286 
Q 1946 5094 2278 5030 
Q 2381 5005 2381 4973 
Q 2381 4941 2275 4864 
Q 2170 4787 1670 3802 
z
M 4333 3610 
Q 5370 3981 5728 4160 
L 5606 1958 
Q 5594 1664 5539 1539 
Q 5485 1414 5312 1344 
Q 5139 1274 4704 1190 
Q 4646 1498 4454 1824 
Q 4704 1773 4829 1773 
Q 4954 1773 5014 1808 
Q 5075 1843 5082 1946 
L 5165 3392 
L 4333 3117 
L 4333 1523 
Q 4333 1126 4371 621 
L 3782 621 
Q 3834 1165 3834 1523 
L 3834 2950 
L 3040 2682 
L 3040 608 
Q 3040 378 3113 301 
Q 3187 224 3478 182 
Q 3770 141 4266 141 
Q 4762 141 5034 189 
Q 5306 237 5414 441 
Q 5523 646 5568 1030 
Q 5766 742 6138 640 
Q 5862 -205 5545 -269 
Q 5229 -333 4281 -333 
Q 3334 -333 3030 -288 
Q 2726 -243 2636 -108 
Q 2547 26 2547 358 
L 2547 2515 
Q 2010 2317 1920 2253 
L 1754 2797 
Q 2080 2867 2547 3014 
Q 2547 4115 2490 4474 
Q 2694 4448 3142 4448 
Q 3251 4448 3251 4397 
Q 3251 4346 3184 4320 
Q 3117 4294 3078 4217 
Q 3040 4141 3040 4077 
L 3040 3168 
Q 3654 3373 3834 3437 
L 3834 4474 
Q 3834 5005 3763 5229 
Q 4102 5184 4316 5184 
Q 4531 5184 4531 5155 
Q 4531 5126 4432 5084 
Q 4333 5043 4333 4717 
L 4333 3610 
z
" transform="scale(0.015625)"/>
       <path id="STHeiti-6536" d="M 1824 1664 
L 1824 4230 
Q 1824 4998 1773 5190 
Q 2003 5146 2413 5146 
Q 2522 5146 2522 5107 
Q 2522 5069 2435 5017 
Q 2349 4966 2349 4544 
L 2349 563 
Q 2349 26 2413 -589 
L 1766 -589 
Q 1824 6 1824 563 
L 1824 1197 
L 1082 992 
Q 826 922 614 762 
Q 512 1030 352 1293 
Q 608 1440 608 1722 
L 608 3539 
Q 608 4115 582 4282 
Q 806 4243 973 4243 
L 1171 4250 
Q 1261 4250 1261 4211 
Q 1261 4173 1203 4141 
Q 1082 4083 1082 3968 
L 1082 1510 
L 1824 1664 
z
M 4224 1286 
Q 4685 1984 4781 3462 
L 3629 3462 
Q 3226 2547 2970 2157 
Q 2733 2317 2522 2387 
Q 2906 2918 3203 3712 
Q 3501 4506 3565 5146 
Q 3981 5005 4250 4966 
Q 4326 4954 4326 4922 
Q 4326 4890 4278 4851 
Q 4230 4813 4150 4653 
Q 4070 4493 3821 3917 
L 5120 3917 
Q 5747 3917 5971 3974 
L 5971 3424 
Q 5754 3462 5318 3462 
Q 5178 1722 4576 896 
Q 5178 365 6061 173 
Q 5734 -134 5664 -493 
Q 4845 -115 4237 518 
Q 3699 -115 2899 -499 
Q 2790 -262 2483 -64 
Q 3213 173 3898 883 
Q 3450 1466 3315 2675 
L 3744 2810 
Q 3814 1888 4224 1286 
z
" transform="scale(0.015625)"/>
       <path id="STHeiti-76ca" d="M 2438 4051 
L 3814 4051 
Q 4102 4730 4166 5146 
Q 4474 5018 4682 4986 
Q 4890 4954 4890 4922 
Q 4890 4890 4819 4851 
Q 4704 4794 4282 4058 
Q 5440 4064 5837 4115 
L 5837 3558 
Q 5120 3622 3174 3622 
Q 1229 3622 691 3558 
L 691 4115 
Q 1030 4064 2214 4058 
Q 2003 4493 1754 4774 
L 2342 5011 
Q 2541 4582 2816 4230 
L 2438 4051 
z
M 2464 3437 
Q 2560 3315 2681 3219 
Q 2803 3123 2899 3084 
Q 2995 3046 2995 3004 
Q 2995 2963 2876 2944 
Q 2758 2925 2076 2589 
Q 1395 2253 781 1914 
Q 659 2189 390 2304 
Q 896 2451 1561 2816 
Q 2227 3181 2464 3437 
z
M 5958 2598 
L 5600 2144 
Q 4595 2714 3597 3008 
L 3949 3386 
Q 5062 3034 5958 2598 
z
M 1222 141 
L 1222 1626 
Q 1222 1965 1210 2099 
Q 1811 2080 3257 2080 
Q 4704 2080 5306 2099 
Q 5293 1965 5293 1626 
L 5293 141 
Q 5773 166 6054 192 
L 6054 -378 
Q 5715 -314 3222 -314 
Q 730 -314 378 -378 
L 378 192 
Q 806 147 1222 141 
z
M 2426 1664 
L 1709 1664 
L 1709 134 
L 2426 134 
L 2426 1664 
z
M 3597 1664 
L 2880 1664 
L 2880 134 
L 3597 134 
L 3597 1664 
z
M 4787 134 
L 4787 1664 
L 4038 1664 
L 4038 134 
L 4787 134 
z
" transform="scale(0.015625)"/>
      </defs>
      <use xlink:href="#STHeiti-5408"/>
      <use xlink:href="#STHeiti-5e76" transform="translate(99.999985 0)"/>
      <use xlink:href="#STHeiti-5176" transform="translate(199.999969 0)"/>
      <use xlink:href="#STHeiti-4ed6" transform="translate(299.999954 0)"/>
      <use xlink:href="#STHeiti-6536" transform="translate(399.999939 0)"/>
      <use xlink:href="#STHeiti-76ca" transform="translate(499.999924 0)"/>
     </g>
    </g>
    <g id="line2d_33">
     <path d="M 53.323438 285.049058 
L 62.323438 285.049058 
L 71.323438 285.049058 
" style="fill: none; stroke: #d69e2e; stroke-width: 2; stroke-linecap: square"/>
     <g>
      <use xlink:href="#mf01129d180" x="62.323438" y="285.049058" style="fill: #d69e2e; stroke: #d69e2e"/>
     </g>
    </g>
    <g id="text_16">
     <!-- 其中：滁州 -->
     <g transform="translate(78.523438 288.199058) scale(0.09 -0.09)">
      <defs>
       <path id="STHeiti-4e2d" d="M 5011 1517 
L 3482 1517 
L 3482 582 
Q 3482 45 3546 -570 
L 2861 -570 
Q 2925 90 2925 582 
L 2925 1517 
L 1440 1517 
L 1440 1062 
L 851 1062 
Q 896 1555 896 2016 
L 896 3398 
Q 896 3763 851 4058 
Q 1254 4000 2925 3987 
L 2925 4288 
Q 2925 5075 2861 5242 
Q 3213 5203 3539 5203 
Q 3629 5203 3629 5174 
Q 3629 5146 3555 5085 
Q 3482 5024 3482 4736 
L 3482 3987 
Q 5114 3994 5619 4058 
Q 5587 3603 5587 3270 
L 5587 2042 
Q 5587 1779 5619 1126 
L 5011 1126 
L 5011 1517 
z
M 3482 1997 
L 5011 1997 
L 5011 3507 
L 3482 3507 
L 3482 1997 
z
M 1440 1997 
L 2925 1997 
L 2925 3507 
L 1440 3507 
L 1440 1997 
z
" transform="scale(0.015625)"/>
       <path id="STHeiti-ff1a" d="M 1926 3008 
L 1261 3008 
L 1261 3686 
L 1926 3686 
L 1926 3008 
z
M 1926 384 
L 1261 384 
L 1261 1062 
L 1926 1062 
L 1926 384 
z
" transform="scale(0.015625)"/>
       <path id="STHeiti-6ec1" d="M 4192 2906 
Q 3878 2906 3712 2880 
L 3712 3302 
Q 3597 3142 3277 2790 
Q 3098 2982 2874 3078 
Q 3898 4051 4122 5197 
Q 4506 5107 4838 5069 
Q 4915 5062 4915 5033 
Q 4915 5005 4844 4979 
Q 4774 4954 4704 4883 
Q 4896 4403 5312 4022 
Q 5728 3642 6214 3475 
Q 5965 3213 5843 2925 
Q 4851 3558 4506 4538 
Q 4186 3885 3757 3354 
Q 4058 3309 4522 3309 
Q 4986 3309 5274 3360 
L 5274 2880 
Q 5011 2906 4678 2912 
L 4678 2208 
Q 5274 2227 5626 2278 
L 5626 1754 
Q 5299 1779 4678 1792 
L 4678 13 
Q 4678 -173 4627 -269 
Q 4576 -365 4397 -445 
Q 4218 -525 3814 -614 
Q 3789 -275 3565 32 
Q 3706 26 3856 26 
Q 4006 26 4099 58 
Q 4192 90 4192 205 
L 4192 1792 
Q 3674 1786 3373 1754 
L 3373 2278 
Q 3661 2221 4192 2214 
L 4192 2906 
z
M 1619 4429 
L 1261 3968 
Q 934 4326 493 4589 
L 819 5005 
Q 1222 4736 1619 4429 
z
M 3334 4851 
L 2758 3046 
Q 3219 2234 3219 1709 
Q 3219 1075 2522 800 
Q 2483 1101 2266 1370 
Q 2522 1408 2627 1501 
Q 2733 1594 2733 1894 
Q 2733 2368 2368 2963 
L 2739 4384 
L 2144 4384 
L 2144 -563 
L 1645 -563 
Q 1690 -64 1690 813 
L 1690 4198 
Q 1690 4653 1670 4851 
Q 1946 4826 2502 4826 
Q 3059 4826 3334 4851 
z
M 1472 2899 
L 1126 2470 
Q 691 2906 288 3136 
L 666 3520 
Q 1146 3206 1472 2899 
z
M 1414 1773 
Q 1280 1453 1178 934 
L 902 -416 
Q 576 -211 269 -102 
Q 467 282 659 922 
Q 851 1562 928 2131 
Q 1094 1901 1414 1773 
z
M 3373 1350 
Q 3629 1229 3795 1206 
Q 3962 1184 3962 1152 
Q 3962 1120 3891 1075 
Q 3821 1030 3677 713 
Q 3533 397 3194 -134 
Q 2976 -45 2682 32 
Q 3194 672 3373 1350 
z
M 6067 141 
L 5549 -45 
Q 5306 589 4947 1158 
L 5402 1344 
Q 5779 806 6067 141 
z
" transform="scale(0.015625)"/>
       <path id="STHeiti-5dde" d="M 5011 5133 
Q 5299 5069 5626 5069 
Q 5754 5069 5754 5027 
Q 5754 4986 5686 4947 
Q 5619 4909 5600 4806 
Q 5581 4704 5581 4461 
L 5581 595 
Q 5581 96 5632 -582 
L 5037 -582 
Q 5082 19 5082 595 
L 5082 4141 
Q 5082 4826 5011 5133 
z
M 1651 5069 
Q 1850 5030 2259 5030 
Q 2374 5030 2374 4985 
Q 2374 4941 2310 4890 
Q 2202 4800 2202 4288 
L 2208 3603 
Q 2208 1901 1974 1037 
Q 1741 173 1075 -659 
Q 858 -416 474 -288 
Q 1050 134 1386 841 
Q 1722 1549 1722 3258 
Q 1722 4122 1651 5069 
z
M 3226 4813 
Q 3514 4749 3846 4749 
Q 3968 4749 3968 4707 
Q 3968 4666 3885 4618 
Q 3802 4570 3802 4141 
L 3802 819 
Q 3802 275 3846 -352 
L 3251 -352 
Q 3296 262 3296 819 
L 3296 3821 
Q 3296 4506 3226 4813 
z
M 1402 3616 
Q 1350 2470 1126 1498 
L 531 1600 
Q 890 2451 915 3667 
L 1402 3616 
z
M 3117 1824 
L 2624 1709 
Q 2547 2675 2336 3469 
L 2790 3565 
Q 2925 2925 3117 1824 
z
M 4826 1773 
L 4294 1651 
Q 4211 2598 3981 3437 
L 4435 3539 
Q 4678 2624 4826 1773 
z
" transform="scale(0.015625)"/>
      </defs>
      <use xlink:href="#STHeiti-5176"/>
      <use xlink:href="#STHeiti-4e2d" transform="translate(99.999985 0)"/>
      <use xlink:href="#STHeiti-ff1a" transform="translate(199.999969 0)"/>
      <use xlink:href="#STHeiti-6ec1" transform="translate(299.999954 0)"/>
      <use xlink:href="#STHeiti-5dde" transform="translate(399.999939 0)"/>
     </g>
    </g>
    <g id="line2d_34">
     <path d="M 53.323438 298.063901 
L 62.323438 298.063901 
L 71.323438 298.063901 
" style="fill: none; stroke: #38a169; stroke-width: 2; stroke-linecap: square"/>
     <g>
      <use xlink:href="#mbc3f941d27" x="62.323438" y="298.063901" style="fill: #38a169; stroke: #38a169"/>
     </g>
    </g>
    <g id="text_17">
     <!-- 归母净利（管理） -->
     <g transform="translate(78.523438 301.213901) scale(0.09 -0.09)">
      <defs>
       <path id="STHeiti-5f52" d="M 1882 5242 
Q 2170 5146 2586 5146 
Q 2688 5146 2688 5098 
Q 2688 5050 2618 4998 
Q 2509 4928 2490 4288 
Q 2464 2573 2429 2003 
Q 2394 1434 2272 1011 
Q 2150 589 1833 173 
Q 1517 -243 960 -659 
Q 742 -326 454 -230 
Q 1018 122 1302 381 
Q 1587 640 1718 960 
Q 1850 1280 1894 1862 
Q 1939 2445 1939 3424 
Q 1939 5024 1882 5242 
z
M 5126 2611 
L 5126 4045 
Q 3136 4045 2816 3994 
L 2816 4602 
Q 3302 4531 4288 4531 
Q 5274 4531 5734 4608 
Q 5683 4250 5683 3603 
L 5683 742 
Q 5683 154 5741 -435 
L 5126 -435 
L 5126 128 
Q 2995 128 2637 70 
L 2637 672 
Q 3008 614 5126 614 
L 5126 2144 
Q 3526 2144 2957 2080 
L 2957 2675 
Q 3462 2611 5126 2611 
z
M 640 4378 
Q 928 4339 1293 4339 
Q 1382 4339 1382 4307 
Q 1382 4275 1308 4230 
Q 1235 4186 1235 3853 
L 1235 1043 
L 698 1043 
L 698 3347 
Q 698 4109 640 4378 
z
" transform="scale(0.015625)"/>
       <path id="STHeiti-6bcd" d="M 1254 2810 
L 1402 4877 
Q 2413 4832 3398 4832 
Q 4384 4832 5165 4896 
L 5120 2803 
Q 5574 2822 6048 2874 
L 6048 2227 
Q 5619 2272 5107 2285 
L 5082 883 
Q 5600 896 5850 947 
L 5850 326 
Q 5651 352 5069 352 
Q 5056 -141 4870 -323 
Q 4685 -506 4032 -640 
Q 4013 -314 3629 13 
Q 3949 -26 4147 -26 
Q 4346 -26 4426 57 
Q 4506 141 4512 358 
L 2765 358 
Q 1837 358 1082 288 
L 1222 2285 
Q 768 2272 365 2227 
L 365 2874 
Q 845 2816 1254 2810 
z
M 1798 2803 
L 4563 2803 
L 4589 4339 
L 1901 4339 
L 1798 2803 
z
M 2720 3782 
L 3245 4038 
Q 3430 3757 3693 3315 
L 3194 2963 
Q 2982 3418 2720 3782 
z
M 4550 2291 
L 1766 2291 
L 1677 870 
L 4525 870 
L 4550 2291 
z
M 2694 1798 
L 3219 2054 
Q 3462 1677 3674 1274 
L 3142 1011 
Q 3008 1427 2694 1798 
z
" transform="scale(0.015625)"/>
       <path id="STHeiti-51c0" d="M 5510 2010 
L 5510 1325 
Q 5510 781 5549 550 
L 4986 550 
L 4986 934 
L 3878 934 
L 3878 -147 
Q 3878 -339 3795 -441 
Q 3712 -544 3478 -601 
Q 3245 -659 2758 -710 
Q 2765 -384 2630 -90 
Q 2944 -115 3094 -115 
Q 3245 -115 3289 -70 
Q 3334 -26 3334 115 
L 3334 934 
Q 2163 934 1926 909 
L 1926 1389 
Q 2272 1357 3334 1357 
L 3334 2016 
Q 2490 2016 1754 1965 
L 1754 2496 
Q 2381 2451 3334 2451 
L 3334 3110 
Q 2771 3104 2387 3046 
L 2387 3533 
Q 2816 3514 3661 3514 
L 4205 4224 
L 2874 4224 
Q 2470 3680 1939 3046 
Q 1786 3200 1530 3270 
Q 2362 4109 2842 5306 
Q 3187 5184 3526 5133 
Q 3610 5120 3610 5078 
Q 3610 5037 3530 5014 
Q 3450 4992 3174 4634 
L 4058 4634 
Q 4659 4634 5101 4691 
L 4243 3514 
Q 5306 3520 5536 3558 
Q 5510 3251 5510 2675 
L 5510 2470 
L 6131 2509 
L 6131 1984 
Q 5920 1997 5510 2010 
z
M 4986 2451 
L 4986 3110 
L 3878 3110 
L 3878 2451 
L 4986 2451 
z
M 4986 1357 
L 4986 2016 
L 3878 2016 
L 3878 1357 
L 4986 1357 
z
M 1523 3693 
L 1011 3392 
Q 806 3942 448 4454 
L 909 4762 
Q 1325 4096 1523 3693 
z
M 1613 2080 
Q 1254 1242 819 -70 
Q 595 230 211 365 
Q 410 646 691 1299 
Q 973 1952 1088 2400 
Q 1293 2170 1613 2080 
z
" transform="scale(0.015625)"/>
       <path id="STHeiti-5229" d="M 4909 5165 
Q 5165 5107 5555 5107 
Q 5645 5107 5645 5065 
Q 5645 5024 5577 4976 
Q 5510 4928 5510 4768 
L 5510 198 
Q 5510 -90 5433 -227 
Q 5357 -365 5120 -445 
Q 4883 -525 4352 -595 
Q 4333 -275 4070 64 
Q 4269 51 4483 51 
Q 4698 51 4826 112 
Q 4954 173 4954 435 
L 4954 4109 
Q 4954 4826 4909 5165 
z
M 1658 2016 
Q 1325 1210 730 422 
Q 550 698 307 909 
Q 1267 1837 1594 2880 
Q 742 2867 410 2835 
L 410 3392 
Q 749 3354 1658 3341 
L 1658 4218 
Q 1120 4134 685 4096 
Q 621 4320 442 4576 
Q 864 4576 1561 4688 
Q 2259 4800 2912 5011 
Q 2970 4851 3072 4697 
Q 3174 4544 3244 4489 
Q 3315 4435 3315 4403 
Q 3315 4352 3244 4365 
Q 3174 4378 3091 4378 
Q 2778 4378 2182 4301 
L 2182 3341 
Q 3066 3354 3386 3392 
L 3386 2835 
Q 3040 2867 2182 2880 
L 2182 525 
Q 2182 90 2227 -576 
L 1587 -576 
Q 1658 128 1658 525 
L 1658 2016 
z
M 3725 4186 
Q 3968 4134 4326 4134 
Q 4403 4134 4403 4099 
Q 4403 4064 4345 4029 
Q 4288 3994 4288 3834 
L 4288 1766 
Q 4288 1357 4314 966 
L 3725 966 
Q 3750 1382 3750 1766 
L 3750 3482 
Q 3750 3968 3725 4186 
z
M 3322 1485 
L 2874 1165 
Q 2630 1613 2227 2176 
L 2605 2458 
Q 2957 1933 3322 1485 
z
" transform="scale(0.015625)"/>
       <path id="STHeiti-ff08" d="M 5651 -749 
L 5274 -749 
Q 4646 173 4409 835 
Q 4173 1498 4173 2266 
Q 4173 3034 4432 3750 
Q 4691 4467 5254 5267 
L 5645 5267 
Q 5082 4237 4928 3606 
Q 4774 2976 4774 2093 
Q 4774 1472 4953 861 
Q 5133 250 5651 -749 
z
" transform="scale(0.015625)"/>
       <path id="STHeiti-7ba1" d="M 1472 4333 
Q 1286 4070 941 3674 
Q 774 3885 467 3974 
Q 1133 4416 1459 5280 
Q 1779 5107 2048 5043 
Q 2118 5030 2118 5008 
Q 2118 4986 2054 4960 
Q 1862 4864 1722 4685 
Q 2982 4685 3136 4755 
L 3136 4269 
Q 2886 4326 2310 4333 
Q 2413 4064 2477 3718 
L 1939 3654 
Q 1914 4051 1862 4333 
L 1472 4333 
z
M 4019 4326 
Q 3942 4179 3718 3878 
Q 3520 4083 3264 4154 
Q 3750 4525 3994 5267 
Q 4326 5114 4544 5056 
Q 4608 5043 4608 5020 
Q 4608 4998 4550 4973 
Q 4435 4915 4237 4672 
L 4602 4672 
Q 5568 4672 5933 4755 
L 5933 4275 
Q 5626 4320 4838 4326 
Q 4973 3962 5037 3693 
L 4506 3603 
Q 4474 3942 4378 4326 
L 4019 4326 
z
M 3021 3354 
Q 2950 3603 2874 3789 
L 3379 3885 
Q 3488 3629 3571 3354 
Q 5197 3354 5830 3405 
L 5830 2304 
L 5350 2304 
L 5350 2970 
L 954 2970 
L 954 2336 
L 486 2336 
L 486 3405 
Q 1120 3354 3021 3354 
z
M 4480 -198 
L 1894 -198 
Q 1901 -320 1926 -634 
L 1344 -634 
Q 1389 -288 1389 51 
L 1389 1946 
Q 1389 2342 1338 2669 
Q 1958 2618 3120 2618 
Q 4282 2618 4826 2669 
Q 4794 2387 4794 2083 
Q 4794 1779 4826 1408 
Q 4102 1446 2976 1446 
L 1888 1446 
L 1888 1011 
L 3136 1011 
Q 4365 1011 4998 1037 
Q 4973 909 4973 557 
L 4973 -147 
Q 4973 -314 4998 -608 
L 4480 -608 
L 4480 -198 
z
M 1888 1830 
L 4326 1830 
L 4326 2227 
L 1888 2227 
L 1888 1830 
z
M 1888 179 
L 4480 179 
L 4480 634 
L 1888 634 
L 1888 179 
z
" transform="scale(0.015625)"/>
       <path id="STHeiti-7406" d="M 4397 864 
L 4397 160 
Q 5389 166 6086 211 
L 6086 -333 
Q 5389 -275 4096 -275 
Q 2803 -275 2099 -333 
L 2099 211 
Q 2816 166 3910 160 
L 3910 864 
Q 3187 864 2682 800 
L 2682 1350 
Q 3174 1286 3910 1280 
L 3910 1920 
Q 2771 1914 2598 1882 
Q 2637 2630 2637 3443 
Q 2637 4256 2598 4864 
Q 2797 4813 4214 4813 
Q 5632 4813 5754 4864 
Q 5722 4352 5722 3549 
Q 5722 2746 5766 1882 
Q 5658 1920 4397 1920 
L 4397 1280 
Q 5210 1286 5702 1350 
L 5702 800 
Q 5261 858 4397 864 
z
M 3910 3590 
L 3910 4390 
L 3110 4390 
L 3110 3590 
L 3910 3590 
z
M 4397 4390 
L 4397 3590 
L 5229 3590 
L 5229 4390 
L 4397 4390 
z
M 4397 3187 
L 4397 2336 
L 5229 2336 
L 5229 3187 
L 4397 3187 
z
M 3910 2336 
L 3910 3187 
L 3110 3187 
L 3110 2336 
L 3910 2336 
z
M 1171 4224 
Q 768 4218 429 4179 
L 429 4717 
Q 774 4678 1436 4678 
Q 2099 4678 2438 4717 
L 2438 4179 
Q 2131 4211 1670 4230 
L 1670 2861 
Q 2138 2874 2368 2906 
L 2368 2362 
Q 2035 2400 1670 2406 
L 1670 883 
Q 2035 1011 2368 1184 
Q 2342 979 2342 864 
Q 2342 749 2355 621 
Q 1184 269 448 -218 
Q 448 -45 400 182 
Q 352 410 275 563 
Q 710 595 1171 723 
L 1171 2406 
Q 685 2394 435 2362 
L 435 2906 
Q 742 2861 1171 2854 
L 1171 4224 
z
" transform="scale(0.015625)"/>
       <path id="STHeiti-ff09" d="M 1120 5267 
Q 1747 4346 1984 3683 
Q 2221 3021 2221 2253 
Q 2221 1485 1961 768 
Q 1702 51 1139 -749 
L 749 -749 
Q 1312 282 1465 912 
Q 1619 1542 1619 2426 
Q 1619 3046 1440 3657 
Q 1261 4269 742 5267 
L 1120 5267 
z
" transform="scale(0.015625)"/>
      </defs>
      <use xlink:href="#STHeiti-5f52"/>
      <use xlink:href="#STHeiti-6bcd" transform="translate(99.999985 0)"/>
      <use xlink:href="#STHeiti-51c0" transform="translate(199.999969 0)"/>
      <use xlink:href="#STHeiti-5229" transform="translate(299.999954 0)"/>
      <use xlink:href="#STHeiti-ff08" transform="translate(399.999939 0)"/>
      <use xlink:href="#STHeiti-7ba1" transform="translate(499.999924 0)"/>
      <use xlink:href="#STHeiti-7406" transform="translate(599.999908 0)"/>
      <use xlink:href="#STHeiti-ff09" transform="translate(699.999893 0)"/>
     </g>
    </g>
   </g>
  </g>
 </g>
 <defs>
  <clipPath id="p6ac269ee28">
   <rect x="45.223438" y="7.2" width="660.17" height="303.320464"/>
  </clipPath>
 </defs>
</svg>
