<?xml version="1.0" encoding="utf-8" standalone="no"?>
<!DOCTYPE svg PUBLIC "-//W3C//DTD SVG 1.1//EN"
  "http://www.w3.org/Graphics/SVG/1.1/DTD/svg11.dtd">
<svg xmlns:xlink="http://www.w3.org/1999/xlink" width="712.791563pt" height="351.485281pt" viewBox="0 0 712.791563 351.485281" xmlns="http://www.w3.org/2000/svg" version="1.1">
 <metadata>
  <rdf:RDF xmlns:dc="http://purl.org/dc/elements/1.1/" xmlns:cc="http://creativecommons.org/ns#" xmlns:rdf="http://www.w3.org/1999/02/22-rdf-syntax-ns#">
   <cc:Work>
    <dc:type rdf:resource="http://purl.org/dc/dcmitype/StillImage"/>
    <dc:date>2026-06-05T11:42:04.940833</dc:date>
    <dc:format>image/svg+xml</dc:format>
    <dc:creator>
     <cc:Agent>
      <dc:title>Matplotlib v3.10.9, https://matplotlib.org/</dc:title>
     </cc:Agent>
    </dc:creator>
   </cc:Work>
  </rdf:RDF>
 </metadata>
 <defs>
  <style type="text/css">*{stroke-linejoin: round; stroke-linecap: butt}</style>
 </defs>
 <g id="figure_1">
  <g id="patch_1">
   <path d="M 0 351.485281 
L 712.791563 351.485281 
L 712.791563 0 
L 0 0 
z
" style="fill: #ffffff"/>
  </g>
  <g id="axes_1">
   <g id="patch_2">
    <path d="M 28.051563 312.764839 
L 705.591563 312.764839 
L 705.591563 18.159375 
L 28.051563 18.159375 
z
" style="fill: #fafafa"/>
   </g>
   <g id="matplotlib.axis_1">
    <g id="xtick_1">
     <g id="line2d_1">
      <path d="M 58.848835 312.764839 
L 58.848835 18.159375 
" clip-path="url(#pe024ec0578)" style="fill: none; stroke: #b0b0b0; stroke-opacity: 0.3; stroke-width: 0.8; stroke-linecap: square"/>
     </g>
     <g id="line2d_2">
      <defs>
       <path id="mbf0267fb96" d="M 0 0 
L 0 3.5 
" style="stroke: #000000; stroke-width: 0.8"/>
      </defs>
      <g>
       <use xlink:href="#mbf0267fb96" x="58.848835" y="312.764839" style="stroke: #000000; stroke-width: 0.8"/>
      </g>
     </g>
     <g id="text_1">
      <!-- FY2023 -->
      <g transform="translate(29.65787 343.124266) rotate(-30) scale(0.1 -0.1)">
       <defs>
        <path id="STHeiti-46" d="M 557 4979 
L 2861 4979 
L 2861 4525 
L 1018 4525 
L 1018 3091 
L 2861 3091 
L 2861 2637 
L 1018 2637 
L 1018 384 
L 557 384 
L 557 4979 
z
" transform="scale(0.015625)"/>
        <path id="STHeiti-59" d="M 198 4979 
L 730 4979 
L 1901 3085 
L 3059 4979 
L 3590 4979 
L 2131 2579 
L 2131 384 
L 1683 384 
L 1683 2579 
L 198 4979 
z
" transform="scale(0.015625)"/>
        <path id="STHeiti-32" d="M 742 3539 
L 301 3539 
Q 333 4243 768 4668 
Q 1203 5094 1820 5094 
Q 2438 5094 2844 4694 
Q 3251 4294 3251 3718 
Q 3251 3290 3024 2925 
Q 2797 2560 2336 2061 
L 1190 826 
L 3315 826 
L 3315 384 
L 192 384 
L 1946 2278 
Q 2406 2778 2604 3066 
Q 2803 3354 2803 3725 
Q 2803 4096 2512 4377 
Q 2221 4659 1789 4659 
Q 1357 4659 1072 4368 
Q 787 4077 742 3539 
z
" transform="scale(0.015625)"/>
        <path id="STHeiti-30" d="M 1747 269 
Q 1005 269 605 880 
Q 205 1491 205 2681 
Q 205 3872 605 4483 
Q 1005 5094 1741 5094 
Q 2477 5094 2909 4470 
Q 3341 3846 3341 2681 
Q 3341 1517 2905 893 
Q 2470 269 1747 269 
z
M 1760 4659 
Q 1229 4659 934 4147 
Q 640 3635 640 2669 
Q 640 685 1760 685 
Q 2304 685 2608 1206 
Q 2912 1728 2912 2681 
Q 2912 3635 2598 4147 
Q 2285 4659 1760 4659 
z
" transform="scale(0.015625)"/>
        <path id="STHeiti-33" d="M 845 3917 
L 378 3917 
Q 506 4486 867 4790 
Q 1229 5094 1750 5094 
Q 2272 5094 2659 4748 
Q 3046 4403 3046 3910 
Q 3046 3315 2458 2970 
Q 2861 2803 3081 2473 
Q 3302 2144 3302 1754 
Q 3302 1146 2857 707 
Q 2413 269 1734 269 
Q 1133 269 742 611 
Q 352 954 224 1613 
L 672 1613 
Q 794 1158 1046 937 
Q 1299 717 1760 717 
Q 2221 717 2534 1011 
Q 2848 1306 2848 1741 
Q 2848 2176 2502 2441 
Q 2157 2707 1498 2720 
L 1498 3142 
Q 1971 3142 2268 3360 
Q 2566 3578 2566 3901 
Q 2566 4224 2326 4438 
Q 2086 4653 1747 4653 
Q 1408 4653 1200 4470 
Q 992 4288 845 3917 
z
" transform="scale(0.015625)"/>
       </defs>
       <use xlink:href="#STHeiti-46"/>
       <use xlink:href="#STHeiti-59" transform="translate(48.499985 0)"/>
       <use xlink:href="#STHeiti-32" transform="translate(107.699982 0)"/>
       <use xlink:href="#STHeiti-30" transform="translate(163.099976 0)"/>
       <use xlink:href="#STHeiti-32" transform="translate(218.499969 0)"/>
       <use xlink:href="#STHeiti-33" transform="translate(273.899963 0)"/>
      </g>
     </g>
    </g>
    <g id="xtick_2">
     <g id="line2d_3">
      <path d="M 366.821562 312.764839 
L 366.821562 18.159375 
" clip-path="url(#pe024ec0578)" style="fill: none; stroke: #b0b0b0; stroke-opacity: 0.3; stroke-width: 0.8; stroke-linecap: square"/>
     </g>
     <g id="line2d_4">
      <g>
       <use xlink:href="#mbf0267fb96" x="366.821562" y="312.764839" style="stroke: #000000; stroke-width: 0.8"/>
      </g>
     </g>
     <g id="text_2">
      <!-- FY2024 -->
      <g transform="translate(337.630598 343.124266) rotate(-30) scale(0.1 -0.1)">
       <defs>
        <path id="STHeiti-34" d="M 2726 5094 
L 2816 5094 
L 2816 1894 
L 3373 1894 
L 3373 1453 
L 2816 1453 
L 2816 384 
L 2362 384 
L 2362 1453 
L 160 1453 
L 2726 5094 
z
M 2362 1894 
L 2362 3808 
L 1005 1894 
L 2362 1894 
z
" transform="scale(0.015625)"/>
       </defs>
       <use xlink:href="#STHeiti-46"/>
       <use xlink:href="#STHeiti-59" transform="translate(48.499985 0)"/>
       <use xlink:href="#STHeiti-32" transform="translate(107.699982 0)"/>
       <use xlink:href="#STHeiti-30" transform="translate(163.099976 0)"/>
       <use xlink:href="#STHeiti-32" transform="translate(218.499969 0)"/>
       <use xlink:href="#STHeiti-34" transform="translate(273.899963 0)"/>
      </g>
     </g>
    </g>
    <g id="xtick_3">
     <g id="line2d_5">
      <path d="M 674.79429 312.764839 
L 674.79429 18.159375 
" clip-path="url(#pe024ec0578)" style="fill: none; stroke: #b0b0b0; stroke-opacity: 0.3; stroke-width: 0.8; stroke-linecap: square"/>
     </g>
     <g id="line2d_6">
      <g>
       <use xlink:href="#mbf0267fb96" x="674.79429" y="312.764839" style="stroke: #000000; stroke-width: 0.8"/>
      </g>
     </g>
     <g id="text_3">
      <!-- FY2025 -->
      <g transform="translate(645.603325 343.124266) rotate(-30) scale(0.1 -0.1)">
       <defs>
        <path id="STHeiti-35" d="M 3149 4979 
L 3149 4544 
L 1510 4544 
L 1280 3290 
Q 1587 3379 1856 3379 
Q 2458 3379 2861 2953 
Q 3264 2528 3264 1862 
Q 3264 1197 2825 733 
Q 2387 269 1664 269 
Q 1114 269 726 598 
Q 339 928 262 1498 
L 730 1498 
Q 813 1114 1075 909 
Q 1338 704 1683 704 
Q 2138 704 2467 1043 
Q 2797 1382 2797 1888 
Q 2797 2349 2509 2646 
Q 2221 2944 1757 2944 
Q 1293 2944 730 2701 
L 1158 4979 
L 3149 4979 
z
" transform="scale(0.015625)"/>
       </defs>
       <use xlink:href="#STHeiti-46"/>
       <use xlink:href="#STHeiti-59" transform="translate(48.499985 0)"/>
       <use xlink:href="#STHeiti-32" transform="translate(107.699982 0)"/>
       <use xlink:href="#STHeiti-30" transform="translate(163.099976 0)"/>
       <use xlink:href="#STHeiti-32" transform="translate(218.499969 0)"/>
       <use xlink:href="#STHeiti-35" transform="translate(273.899963 0)"/>
      </g>
     </g>
    </g>
   </g>
   <g id="matplotlib.axis_2">
    <g id="ytick_1">
     <g id="line2d_7">
      <path d="M 28.051563 299.377085 
L 705.591563 299.377085 
" clip-path="url(#pe024ec0578)" style="fill: none; stroke: #b0b0b0; stroke-opacity: 0.3; stroke-width: 0.8; stroke-linecap: square"/>
     </g>
     <g id="line2d_8">
      <defs>
       <path id="me3a4b48818" d="M 0 0 
L -3.5 0 
" style="stroke: #000000; stroke-width: 0.8"/>
      </defs>
      <g>
       <use xlink:href="#me3a4b48818" x="28.051563" y="299.377085" style="stroke: #000000; stroke-width: 0.8"/>
      </g>
     </g>
     <g id="text_4">
      <!-- 0.0 -->
      <g transform="translate(7.2 303.356772) scale(0.1 -0.1)">
       <defs>
        <path id="STHeiti-2e" d="M 582 685 
Q 582 845 697 957 
Q 813 1069 969 1069 
Q 1126 1069 1238 957 
Q 1350 845 1350 681 
Q 1350 518 1238 406 
Q 1126 294 969 294 
Q 813 294 697 409 
Q 582 525 582 685 
z
" transform="scale(0.015625)"/>
       </defs>
       <use xlink:href="#STHeiti-30"/>
       <use xlink:href="#STHeiti-2e" transform="translate(55.399994 0)"/>
       <use xlink:href="#STHeiti-30" transform="translate(83.099991 0)"/>
      </g>
     </g>
    </g>
    <g id="ytick_2">
     <g id="line2d_9">
      <path d="M 28.051563 263.998 
L 705.591563 263.998 
" clip-path="url(#pe024ec0578)" style="fill: none; stroke: #b0b0b0; stroke-opacity: 0.3; stroke-width: 0.8; stroke-linecap: square"/>
     </g>
     <g id="line2d_10">
      <g>
       <use xlink:href="#me3a4b48818" x="28.051563" y="263.998" style="stroke: #000000; stroke-width: 0.8"/>
      </g>
     </g>
     <g id="text_5">
      <!-- 0.5 -->
      <g transform="translate(7.2 267.977688) scale(0.1 -0.1)">
       <use xlink:href="#STHeiti-30"/>
       <use xlink:href="#STHeiti-2e" transform="translate(55.399994 0)"/>
       <use xlink:href="#STHeiti-35" transform="translate(83.099991 0)"/>
      </g>
     </g>
    </g>
    <g id="ytick_3">
     <g id="line2d_11">
      <path d="M 28.051563 228.618915 
L 705.591563 228.618915 
" clip-path="url(#pe024ec0578)" style="fill: none; stroke: #b0b0b0; stroke-opacity: 0.3; stroke-width: 0.8; stroke-linecap: square"/>
     </g>
     <g id="line2d_12">
      <g>
       <use xlink:href="#me3a4b48818" x="28.051563" y="228.618915" style="stroke: #000000; stroke-width: 0.8"/>
      </g>
     </g>
     <g id="text_6">
      <!-- 1.0 -->
      <g transform="translate(7.2 232.598603) scale(0.1 -0.1)">
       <defs>
        <path id="STHeiti-31" d="M 1184 4979 
L 2086 4979 
L 2086 384 
L 1632 384 
L 1632 4531 
L 909 4531 
L 1184 4979 
z
" transform="scale(0.015625)"/>
       </defs>
       <use xlink:href="#STHeiti-31"/>
       <use xlink:href="#STHeiti-2e" transform="translate(55.399994 0)"/>
       <use xlink:href="#STHeiti-30" transform="translate(83.099991 0)"/>
      </g>
     </g>
    </g>
    <g id="ytick_4">
     <g id="line2d_13">
      <path d="M 28.051563 193.23983 
L 705.591563 193.23983 
" clip-path="url(#pe024ec0578)" style="fill: none; stroke: #b0b0b0; stroke-opacity: 0.3; stroke-width: 0.8; stroke-linecap: square"/>
     </g>
     <g id="line2d_14">
      <g>
       <use xlink:href="#me3a4b48818" x="28.051563" y="193.23983" style="stroke: #000000; stroke-width: 0.8"/>
      </g>
     </g>
     <g id="text_7">
      <!-- 1.5 -->
      <g transform="translate(7.2 197.219518) scale(0.1 -0.1)">
       <use xlink:href="#STHeiti-31"/>
       <use xlink:href="#STHeiti-2e" transform="translate(55.399994 0)"/>
       <use xlink:href="#STHeiti-35" transform="translate(83.099991 0)"/>
      </g>
     </g>
    </g>
    <g id="ytick_5">
     <g id="line2d_15">
      <path d="M 28.051563 157.860745 
L 705.591563 157.860745 
" clip-path="url(#pe024ec0578)" style="fill: none; stroke: #b0b0b0; stroke-opacity: 0.3; stroke-width: 0.8; stroke-linecap: square"/>
     </g>
     <g id="line2d_16">
      <g>
       <use xlink:href="#me3a4b48818" x="28.051563" y="157.860745" style="stroke: #000000; stroke-width: 0.8"/>
      </g>
     </g>
     <g id="text_8">
      <!-- 2.0 -->
      <g transform="translate(7.2 161.840433) scale(0.1 -0.1)">
       <use xlink:href="#STHeiti-32"/>
       <use xlink:href="#STHeiti-2e" transform="translate(55.399994 0)"/>
       <use xlink:href="#STHeiti-30" transform="translate(83.099991 0)"/>
      </g>
     </g>
    </g>
    <g id="ytick_6">
     <g id="line2d_17">
      <path d="M 28.051563 122.48166 
L 705.591563 122.48166 
" clip-path="url(#pe024ec0578)" style="fill: none; stroke: #b0b0b0; stroke-opacity: 0.3; stroke-width: 0.8; stroke-linecap: square"/>
     </g>
     <g id="line2d_18">
      <g>
       <use xlink:href="#me3a4b48818" x="28.051563" y="122.48166" style="stroke: #000000; stroke-width: 0.8"/>
      </g>
     </g>
     <g id="text_9">
      <!-- 2.5 -->
      <g transform="translate(7.2 126.461348) scale(0.1 -0.1)">
       <use xlink:href="#STHeiti-32"/>
       <use xlink:href="#STHeiti-2e" transform="translate(55.399994 0)"/>
       <use xlink:href="#STHeiti-35" transform="translate(83.099991 0)"/>
      </g>
     </g>
    </g>
    <g id="ytick_7">
     <g id="line2d_19">
      <path d="M 28.051563 87.102575 
L 705.591563 87.102575 
" clip-path="url(#pe024ec0578)" style="fill: none; stroke: #b0b0b0; stroke-opacity: 0.3; stroke-width: 0.8; stroke-linecap: square"/>
     </g>
     <g id="line2d_20">
      <g>
       <use xlink:href="#me3a4b48818" x="28.051563" y="87.102575" style="stroke: #000000; stroke-width: 0.8"/>
      </g>
     </g>
     <g id="text_10">
      <!-- 3.0 -->
      <g transform="translate(7.2 91.082263) scale(0.1 -0.1)">
       <use xlink:href="#STHeiti-33"/>
       <use xlink:href="#STHeiti-2e" transform="translate(55.399994 0)"/>
       <use xlink:href="#STHeiti-30" transform="translate(83.099991 0)"/>
      </g>
     </g>
    </g>
    <g id="ytick_8">
     <g id="line2d_21">
      <path d="M 28.051563 51.72349 
L 705.591563 51.72349 
" clip-path="url(#pe024ec0578)" style="fill: none; stroke: #b0b0b0; stroke-opacity: 0.3; stroke-width: 0.8; stroke-linecap: square"/>
     </g>
     <g id="line2d_22">
      <g>
       <use xlink:href="#me3a4b48818" x="28.051563" y="51.72349" style="stroke: #000000; stroke-width: 0.8"/>
      </g>
     </g>
     <g id="text_11">
      <!-- 3.5 -->
      <g transform="translate(7.2 55.703178) scale(0.1 -0.1)">
       <use xlink:href="#STHeiti-33"/>
       <use xlink:href="#STHeiti-2e" transform="translate(55.399994 0)"/>
       <use xlink:href="#STHeiti-35" transform="translate(83.099991 0)"/>
      </g>
     </g>
    </g>
    <g id="text_12">
     <!-- 1e7 -->
     <g transform="translate(28.051563 15.159375) scale(0.1 -0.1)">
      <defs>
       <path id="STHeiti-65" d="M 3347 1485 
L 3718 1293 
Q 3168 269 2093 269 
Q 1325 269 825 797 
Q 326 1325 326 2067 
Q 326 2810 828 3341 
Q 1331 3872 2070 3872 
Q 2810 3872 3312 3379 
Q 3814 2886 3834 2035 
L 774 2035 
Q 794 1421 1162 1046 
Q 1530 672 2054 672 
Q 2918 672 3347 1485 
z
M 3347 2413 
Q 3258 2899 2899 3174 
Q 2541 3450 2074 3450 
Q 1114 3450 819 2413 
L 3347 2413 
z
" transform="scale(0.015625)"/>
       <path id="STHeiti-37" d="M 461 4979 
L 3373 4979 
L 915 269 
L 538 461 
L 2662 4544 
L 461 4544 
L 461 4979 
z
" transform="scale(0.015625)"/>
      </defs>
      <use xlink:href="#STHeiti-31"/>
      <use xlink:href="#STHeiti-65" transform="translate(55.399994 0)"/>
      <use xlink:href="#STHeiti-37" transform="translate(120.399979 0)"/>
     </g>
    </g>
   </g>
   <g id="line2d_23">
    <path d="M 58.848835 265.343317 
L 366.821562 31.550532 
L 674.79429 215.269079 
" clip-path="url(#pe024ec0578)" style="fill: none; stroke: #1a365d; stroke-width: 2; stroke-linecap: square"/>
    <defs>
     <path id="m9b9d2bc745" d="M 0 3 
C 0.795609 3 1.55874 2.683901 2.12132 2.12132 
C 2.683901 1.55874 3 0.795609 3 0 
C 3 -0.795609 2.683901 -1.55874 2.12132 -2.12132 
C 1.55874 -2.683901 0.795609 -3 0 -3 
C -0.795609 -3 -1.55874 -2.683901 -2.12132 -2.12132 
C -2.683901 -1.55874 -3 -0.795609 -3 0 
C -3 0.795609 -2.683901 1.55874 -2.12132 2.12132 
C -1.55874 2.683901 -0.795609 3 0 3 
z
" style="stroke: #1a365d"/>
    </defs>
    <g clip-path="url(#pe024ec0578)">
     <use xlink:href="#m9b9d2bc745" x="58.848835" y="265.343317" style="fill: #1a365d; stroke: #1a365d"/>
     <use xlink:href="#m9b9d2bc745" x="366.821562" y="31.550532" style="fill: #1a365d; stroke: #1a365d"/>
     <use xlink:href="#m9b9d2bc745" x="674.79429" y="215.269079" style="fill: #1a365d; stroke: #1a365d"/>
    </g>
   </g>
   <g id="line2d_24">
    <path d="M 58.848835 299.373681 
L 366.821562 299.350302 
L 674.79429 299.368674 
" clip-path="url(#pe024ec0578)" style="fill: none; stroke: #d69e2e; stroke-width: 2; stroke-linecap: square"/>
    <defs>
     <path id="m16a855e30f" d="M 0 3 
C 0.795609 3 1.55874 2.683901 2.12132 2.12132 
C 2.683901 1.55874 3 0.795609 3 0 
C 3 -0.795609 2.683901 -1.55874 2.12132 -2.12132 
C 1.55874 -2.683901 0.795609 -3 0 -3 
C -0.795609 -3 -1.55874 -2.683901 -2.12132 -2.12132 
C -2.683901 -1.55874 -3 -0.795609 -3 0 
C -3 0.795609 -2.683901 1.55874 -2.12132 2.12132 
C -1.55874 2.683901 -0.795609 3 0 3 
z
" style="stroke: #d69e2e"/>
    </defs>
    <g clip-path="url(#pe024ec0578)">
     <use xlink:href="#m16a855e30f" x="58.848835" y="299.373681" style="fill: #d69e2e; stroke: #d69e2e"/>
     <use xlink:href="#m16a855e30f" x="366.821562" y="299.350302" style="fill: #d69e2e; stroke: #d69e2e"/>
     <use xlink:href="#m16a855e30f" x="674.79429" y="299.368674" style="fill: #d69e2e; stroke: #d69e2e"/>
    </g>
   </g>
   <g id="patch_3">
    <path d="M 28.051563 312.764839 
L 28.051563 18.159375 
" style="fill: none; stroke: #000000; stroke-width: 0.8; stroke-linejoin: miter; stroke-linecap: square"/>
   </g>
   <g id="patch_4">
    <path d="M 705.591563 312.764839 
L 705.591563 18.159375 
" style="fill: none; stroke: #000000; stroke-width: 0.8; stroke-linejoin: miter; stroke-linecap: square"/>
   </g>
   <g id="patch_5">
    <path d="M 28.051563 312.764839 
L 705.591563 312.764839 
" style="fill: none; stroke: #000000; stroke-width: 0.8; stroke-linejoin: miter; stroke-linecap: square"/>
   </g>
   <g id="patch_6">
    <path d="M 28.051563 18.159375 
L 705.591563 18.159375 
" style="fill: none; stroke: #000000; stroke-width: 0.8; stroke-linejoin: miter; stroke-linecap: square"/>
   </g>
   <g id="legend_1">
    <g id="patch_7">
     <path d="M 607.491562 51.189375 
L 699.291563 51.189375 
Q 701.091563 51.189375 701.091563 49.389375 
L 701.091563 24.459375 
Q 701.091563 22.659375 699.291563 22.659375 
L 607.491562 22.659375 
Q 605.691563 22.659375 605.691563 24.459375 
L 605.691563 49.389375 
Q 605.691563 51.189375 607.491562 51.189375 
z
" style="fill: #ffffff; opacity: 0.8; stroke: #cccccc; stroke-linejoin: miter"/>
    </g>
    <g id="line2d_25">
     <path d="M 609.291563 30.362812 
L 618.291563 30.362812 
L 627.291563 30.362812 
" style="fill: none; stroke: #1a365d; stroke-width: 2; stroke-linecap: square"/>
     <g>
      <use xlink:href="#m9b9d2bc745" x="618.291563" y="30.362812" style="fill: #1a365d; stroke: #1a365d"/>
     </g>
    </g>
    <g id="text_13">
     <!-- 贷方累计（元） -->
     <g transform="translate(634.491563 33.512812) scale(0.09 -0.09)">
      <defs>
       <path id="STHeiti-8d37" d="M 1293 3706 
Q 1005 3354 774 3149 
Q 608 3411 384 3597 
Q 1274 4128 1754 5248 
Q 2029 5107 2336 5030 
Q 2451 4998 2451 4966 
Q 2451 4934 2332 4883 
Q 2214 4832 1779 4307 
L 1779 2451 
L 1248 2451 
Q 1293 2701 1293 3002 
L 1293 3706 
z
M 4230 4973 
L 4749 5184 
Q 4909 4928 5030 4608 
L 4474 4397 
Q 4397 4710 4230 4973 
z
M 4058 3610 
Q 4326 3174 4761 2950 
Q 5197 2726 5325 2726 
Q 5408 2726 5456 2848 
Q 5504 2970 5542 3302 
Q 5766 3098 6061 2976 
Q 5990 2630 5881 2428 
Q 5773 2227 5536 2227 
Q 5114 2227 4506 2566 
Q 3898 2906 3539 3520 
Q 2458 3328 2182 3238 
L 2099 3750 
Q 2496 3782 3354 3936 
Q 3136 4538 3046 5139 
Q 3290 5120 3475 5120 
L 3725 5126 
Q 3802 5126 3802 5091 
Q 3802 5056 3750 4973 
Q 3699 4890 3699 4710 
Q 3699 4422 3859 4026 
L 4442 4134 
Q 5555 4333 5773 4410 
L 5882 3904 
Q 5734 3891 5251 3814 
Q 4768 3738 4589 3706 
L 4058 3610 
z
M 1363 2298 
Q 1811 2253 3225 2253 
Q 4640 2253 5101 2298 
Q 5082 2112 5082 1805 
L 5082 1203 
Q 5082 954 5107 704 
L 4576 704 
L 4576 1843 
L 1888 1843 
L 1888 595 
L 1357 595 
Q 1382 826 1382 1094 
L 1382 1805 
Q 1382 2112 1363 2298 
z
M 2925 1472 
Q 3174 1408 3533 1408 
Q 3610 1408 3610 1379 
Q 3610 1350 3539 1289 
Q 3469 1229 3379 877 
Q 3264 429 2758 6 
Q 2253 -416 819 -563 
Q 698 -269 531 -32 
Q 1338 19 1808 128 
Q 2278 237 2502 416 
Q 2726 595 2809 809 
Q 2893 1024 2925 1472 
z
M 5683 -64 
L 5344 -602 
Q 4525 -77 3494 294 
L 3802 704 
Q 4678 403 5683 -64 
z
" transform="scale(0.015625)"/>
       <path id="STHeiti-65b9" d="M 3654 4378 
L 2982 4134 
Q 2874 4563 2630 5005 
L 3322 5222 
Q 3424 4800 3654 4378 
z
M 2854 2758 
L 4499 2758 
Q 4890 2758 5152 2790 
L 4947 454 
Q 4915 83 4825 -89 
Q 4736 -262 4493 -364 
Q 4250 -467 3699 -550 
Q 3642 -141 3283 224 
Q 3597 154 3814 154 
Q 4307 154 4358 563 
L 4557 2259 
L 2797 2259 
Q 2688 1363 2365 784 
Q 2042 205 1210 -525 
Q 1018 -198 589 -77 
Q 1043 147 1388 496 
Q 1734 845 1952 1286 
Q 2170 1728 2246 2227 
Q 2323 2726 2342 3571 
Q 1184 3565 461 3526 
L 461 4102 
Q 1370 4058 3226 4058 
Q 5082 4058 5958 4102 
L 5958 3526 
Q 5050 3571 2938 3571 
Q 2899 3123 2854 2758 
z
" transform="scale(0.015625)"/>
       <path id="STHeiti-7d2f" d="M 3398 2054 
L 2054 1926 
Q 1638 1888 1312 1786 
Q 1286 1990 1184 2189 
Q 1920 2285 2662 2797 
Q 1523 2797 998 2765 
Q 1037 2970 1037 3187 
L 1037 4416 
Q 1037 4678 998 4864 
Q 1542 4838 3260 4838 
Q 4979 4838 5523 4864 
Q 5491 4691 5491 4416 
L 5491 3187 
Q 5491 2982 5523 2765 
Q 5126 2797 3456 2797 
Q 2925 2515 2317 2266 
Q 3034 2272 3974 2336 
Q 4403 2566 4627 2739 
Q 4941 2464 5114 2387 
Q 5203 2342 5203 2313 
Q 5203 2285 5101 2291 
L 5024 2291 
Q 4864 2291 4538 2144 
Q 3418 1626 2182 1254 
Q 3366 1299 4800 1389 
Q 4531 1632 4403 1734 
L 4774 2003 
Q 5402 1530 6029 947 
L 5542 602 
Q 5363 826 5120 1069 
L 3552 986 
L 3552 -173 
Q 3552 -461 3280 -541 
Q 3008 -621 2586 -621 
Q 2541 -371 2394 -122 
Q 2573 -134 2720 -134 
Q 2867 -134 2947 -96 
Q 3027 -58 3027 109 
L 3027 960 
Q 1312 870 902 717 
Q 870 979 742 1229 
Q 1786 1306 3398 2054 
z
M 3008 4442 
L 1555 4442 
L 1555 3968 
L 3008 3968 
L 3008 4442 
z
M 3507 3968 
L 4979 3968 
L 4979 4442 
L 3507 4442 
L 3507 3968 
z
M 3008 3162 
L 3008 3610 
L 1555 3610 
L 1555 3162 
L 3008 3162 
z
M 3507 3610 
L 3507 3162 
L 4979 3162 
L 4979 3610 
L 3507 3610 
z
M 5933 -6 
L 5587 -525 
Q 4800 -13 4051 307 
L 4333 717 
Q 5120 403 5933 -6 
z
M 1965 717 
Q 2176 506 2323 438 
Q 2470 371 2470 323 
Q 2470 275 2362 262 
Q 2131 230 1869 45 
Q 1325 -339 896 -550 
Q 736 -352 474 -192 
Q 1331 141 1965 717 
z
" transform="scale(0.015625)"/>
       <path id="STHeiti-8ba1" d="M 4646 3309 
Q 5555 3315 6138 3366 
L 6138 2726 
Q 5389 2778 4646 2778 
L 4646 506 
Q 4646 -32 4704 -646 
L 3994 -646 
Q 4051 -58 4051 506 
L 4051 2784 
Q 2982 2778 2336 2726 
L 2336 3366 
Q 2995 3315 4051 3309 
L 4051 4288 
Q 4051 4973 3981 5267 
Q 4141 5235 4288 5222 
Q 4435 5210 4538 5210 
L 4717 5216 
Q 4826 5216 4826 5174 
Q 4826 5133 4755 5091 
Q 4685 5050 4665 4957 
Q 4646 4864 4646 4608 
L 4646 3309 
z
M 2099 4147 
L 1523 3814 
Q 1299 4346 890 4896 
L 1427 5197 
Q 1754 4614 2099 4147 
z
M 2688 909 
L 1946 173 
Q 1670 -90 1370 -538 
Q 1146 -218 922 -13 
Q 1037 122 1088 269 
Q 1139 416 1139 659 
L 1139 2739 
Q 608 2739 262 2694 
L 262 3315 
Q 563 3270 979 3270 
Q 1395 3270 1766 3315 
Q 1683 2950 1683 2483 
L 1683 614 
Q 2163 1107 2432 1523 
Q 2522 1165 2688 909 
z
" transform="scale(0.015625)"/>
       <path id="STHeiti-ff08" d="M 5651 -749 
L 5274 -749 
Q 4646 173 4409 835 
Q 4173 1498 4173 2266 
Q 4173 3034 4432 3750 
Q 4691 4467 5254 5267 
L 5645 5267 
Q 5082 4237 4928 3606 
Q 4774 2976 4774 2093 
Q 4774 1472 4953 861 
Q 5133 250 5651 -749 
z
" transform="scale(0.015625)"/>
       <path id="STHeiti-5143" d="M 5139 4269 
Q 4435 4320 3200 4320 
Q 1965 4320 1242 4269 
L 1242 4877 
Q 1920 4819 3251 4819 
Q 4582 4819 5139 4877 
L 5139 4269 
z
M 2765 2739 
Q 2790 1485 2425 787 
Q 2061 90 1011 -570 
Q 813 -230 506 -45 
Q 1459 326 1833 912 
Q 2208 1498 2182 2739 
Q 1018 2739 666 2694 
L 666 3277 
Q 1299 3232 3200 3232 
Q 5101 3232 5715 3277 
L 5715 2694 
Q 5094 2739 4102 2739 
L 4102 570 
Q 4102 326 4249 300 
Q 4397 275 4723 275 
Q 5050 275 5197 342 
Q 5344 410 5424 586 
Q 5504 762 5587 1171 
Q 5837 864 6150 813 
Q 6010 307 5869 92 
Q 5728 -122 5481 -192 
Q 5235 -262 4713 -262 
Q 4192 -262 3945 -204 
Q 3699 -147 3616 -16 
Q 3533 115 3533 390 
L 3533 2739 
L 2765 2739 
z
" transform="scale(0.015625)"/>
       <path id="STHeiti-ff09" d="M 1120 5267 
Q 1747 4346 1984 3683 
Q 2221 3021 2221 2253 
Q 2221 1485 1961 768 
Q 1702 51 1139 -749 
L 749 -749 
Q 1312 282 1465 912 
Q 1619 1542 1619 2426 
Q 1619 3046 1440 3657 
Q 1261 4269 742 5267 
L 1120 5267 
z
" transform="scale(0.015625)"/>
      </defs>
      <use xlink:href="#STHeiti-8d37"/>
      <use xlink:href="#STHeiti-65b9" transform="translate(99.999985 0)"/>
      <use xlink:href="#STHeiti-7d2f" transform="translate(199.999969 0)"/>
      <use xlink:href="#STHeiti-8ba1" transform="translate(299.999954 0)"/>
      <use xlink:href="#STHeiti-ff08" transform="translate(399.999939 0)"/>
      <use xlink:href="#STHeiti-5143" transform="translate(499.999924 0)"/>
      <use xlink:href="#STHeiti-ff09" transform="translate(599.999908 0)"/>
     </g>
    </g>
    <g id="line2d_26">
     <path d="M 609.291563 43.232813 
L 618.291563 43.232813 
L 627.291563 43.232813 
" style="fill: none; stroke: #d69e2e; stroke-width: 2; stroke-linecap: square"/>
     <g>
      <use xlink:href="#m16a855e30f" x="618.291563" y="43.232813" style="fill: #d69e2e; stroke: #d69e2e"/>
     </g>
    </g>
    <g id="text_14">
     <!-- 万元 -->
     <g transform="translate(634.491563 46.382812) scale(0.09 -0.09)">
      <defs>
       <path id="STHeiti-4e07" d="M 2304 4102 
Q 1312 4096 678 4026 
L 678 4659 
Q 960 4614 3107 4614 
Q 5254 4614 5946 4666 
L 5946 4026 
Q 5274 4102 4128 4102 
L 2918 4102 
Q 2918 3501 2880 3104 
L 4301 3104 
Q 4890 3104 5254 3168 
Q 5222 3053 5216 2925 
L 5082 922 
Q 5050 422 4944 195 
Q 4838 -32 4566 -134 
Q 4294 -237 3686 -288 
Q 3648 19 3347 410 
Q 3648 390 3885 390 
Q 4122 390 4262 473 
Q 4403 557 4457 765 
Q 4512 973 4544 1453 
L 4627 2611 
L 2835 2611 
Q 2714 1453 2304 829 
Q 1894 205 947 -384 
Q 774 -51 435 147 
Q 1229 429 1645 937 
Q 2061 1446 2185 2262 
Q 2310 3078 2310 3802 
Q 2310 3968 2304 4102 
z
" transform="scale(0.015625)"/>
      </defs>
      <use xlink:href="#STHeiti-4e07"/>
      <use xlink:href="#STHeiti-5143" transform="translate(99.999985 0)"/>
     </g>
    </g>
   </g>
  </g>
 </g>
 <defs>
  <clipPath id="pe024ec0578">
   <rect x="28.051563" y="18.159375" width="677.54" height="294.605464"/>
  </clipPath>
 </defs>
</svg>
