<?xml version="1.0" encoding="utf-8" standalone="no"?>
<!DOCTYPE svg PUBLIC "-//W3C//DTD SVG 1.1//EN"
  "http://www.w3.org/Graphics/SVG/1.1/DTD/svg11.dtd">
<svg xmlns:xlink="http://www.w3.org/1999/xlink" width="712.430839pt" height="352.02904pt" viewBox="0 0 712.430839 352.02904" xmlns="http://www.w3.org/2000/svg" version="1.1">
 <metadata>
  <rdf:RDF xmlns:dc="http://purl.org/dc/elements/1.1/" xmlns:cc="http://creativecommons.org/ns#" xmlns:rdf="http://www.w3.org/1999/02/22-rdf-syntax-ns#">
   <cc:Work>
    <dc:type rdf:resource="http://purl.org/dc/dcmitype/StillImage"/>
    <dc:date>2026-06-05T17:03:43.712937</dc:date>
    <dc:format>image/svg+xml</dc:format>
    <dc:creator>
     <cc:Agent>
      <dc:title>Matplotlib v3.10.9, https://matplotlib.org/</dc:title>
     </cc:Agent>
    </dc:creator>
   </cc:Work>
  </rdf:RDF>
 </metadata>
 <defs>
  <style type="text/css">*{stroke-linejoin: round; stroke-linecap: butt}</style>
 </defs>
 <g id="figure_1">
  <g id="patch_1">
   <path d="M 0 352.02904 
L 712.430839 352.02904 
L 712.430839 0 
L 0 0 
z
" style="fill: #ffffff"/>
  </g>
  <g id="axes_1">
   <g id="patch_2">
    <path d="M 43.515407 303.607151 
L 705.230839 303.607151 
L 705.230839 7.2 
L 43.515407 7.2 
z
" style="fill: #fafafa"/>
   </g>
   <g id="matplotlib.axis_1">
    <g id="xtick_1">
     <g id="line2d_1">
      <path d="M 43.515407 303.607151 
L 43.515407 7.2 
" clip-path="url(#pefb9ae0b2c)" style="fill: none; stroke: #b0b0b0; stroke-opacity: 0.3; stroke-width: 0.8; stroke-linecap: square"/>
     </g>
     <g id="line2d_2">
      <defs>
       <path id="m689159d5bb" d="M 0 0 
L 0 3.5 
" style="stroke: #000000; stroke-width: 0.8"/>
      </defs>
      <g>
       <use xlink:href="#m689159d5bb" x="43.515407" y="303.607151" style="stroke: #000000; stroke-width: 0.8"/>
      </g>
     </g>
     <g id="text_1">
      <!-- 2015-06 -->
      <g transform="translate(11.179688 335.782204) rotate(-30) scale(0.1 -0.1)">
       <defs>
        <path id="STHeiti-32" d="M 742 3539 
L 301 3539 
Q 333 4243 768 4668 
Q 1203 5094 1820 5094 
Q 2438 5094 2844 4694 
Q 3251 4294 3251 3718 
Q 3251 3290 3024 2925 
Q 2797 2560 2336 2061 
L 1190 826 
L 3315 826 
L 3315 384 
L 192 384 
L 1946 2278 
Q 2406 2778 2604 3066 
Q 2803 3354 2803 3725 
Q 2803 4096 2512 4377 
Q 2221 4659 1789 4659 
Q 1357 4659 1072 4368 
Q 787 4077 742 3539 
z
" transform="scale(0.015625)"/>
        <path id="STHeiti-30" d="M 1747 269 
Q 1005 269 605 880 
Q 205 1491 205 2681 
Q 205 3872 605 4483 
Q 1005 5094 1741 5094 
Q 2477 5094 2909 4470 
Q 3341 3846 3341 2681 
Q 3341 1517 2905 893 
Q 2470 269 1747 269 
z
M 1760 4659 
Q 1229 4659 934 4147 
Q 640 3635 640 2669 
Q 640 685 1760 685 
Q 2304 685 2608 1206 
Q 2912 1728 2912 2681 
Q 2912 3635 2598 4147 
Q 2285 4659 1760 4659 
z
" transform="scale(0.015625)"/>
        <path id="STHeiti-31" d="M 1184 4979 
L 2086 4979 
L 2086 384 
L 1632 384 
L 1632 4531 
L 909 4531 
L 1184 4979 
z
" transform="scale(0.015625)"/>
        <path id="STHeiti-35" d="M 3149 4979 
L 3149 4544 
L 1510 4544 
L 1280 3290 
Q 1587 3379 1856 3379 
Q 2458 3379 2861 2953 
Q 3264 2528 3264 1862 
Q 3264 1197 2825 733 
Q 2387 269 1664 269 
Q 1114 269 726 598 
Q 339 928 262 1498 
L 730 1498 
Q 813 1114 1075 909 
Q 1338 704 1683 704 
Q 2138 704 2467 1043 
Q 2797 1382 2797 1888 
Q 2797 2349 2509 2646 
Q 2221 2944 1757 2944 
Q 1293 2944 730 2701 
L 1158 4979 
L 3149 4979 
z
" transform="scale(0.015625)"/>
        <path id="STHeiti-2d" d="M 205 2304 
L 1920 2304 
L 1920 1920 
L 205 1920 
L 205 2304 
z
" transform="scale(0.015625)"/>
        <path id="STHeiti-36" d="M 2349 5094 
L 2726 4851 
L 1485 2970 
Q 1747 3059 1984 3059 
Q 2496 3059 2880 2652 
Q 3264 2246 3264 1660 
Q 3264 1075 2845 672 
Q 2426 269 1827 269 
Q 1229 269 829 678 
Q 429 1088 429 1677 
Q 429 1958 537 2256 
Q 646 2554 954 3014 
L 2349 5094 
z
M 2810 1683 
Q 2810 2086 2528 2368 
Q 2246 2650 1843 2650 
Q 1440 2650 1158 2368 
Q 877 2086 877 1683 
Q 877 1280 1161 998 
Q 1446 717 1843 717 
Q 2240 717 2525 998 
Q 2810 1280 2810 1683 
z
" transform="scale(0.015625)"/>
       </defs>
       <use xlink:href="#STHeiti-32"/>
       <use xlink:href="#STHeiti-30" transform="translate(55.399994 0)"/>
       <use xlink:href="#STHeiti-31" transform="translate(110.799988 0)"/>
       <use xlink:href="#STHeiti-35" transform="translate(166.199982 0)"/>
       <use xlink:href="#STHeiti-2d" transform="translate(221.599976 0)"/>
       <use xlink:href="#STHeiti-30" transform="translate(254.799973 0)"/>
       <use xlink:href="#STHeiti-36" transform="translate(310.199966 0)"/>
      </g>
     </g>
    </g>
    <g id="xtick_2">
     <g id="line2d_3">
      <path d="M 256.971998 303.607151 
L 256.971998 7.2 
" clip-path="url(#pefb9ae0b2c)" style="fill: none; stroke: #b0b0b0; stroke-opacity: 0.3; stroke-width: 0.8; stroke-linecap: square"/>
     </g>
     <g id="line2d_4">
      <g>
       <use xlink:href="#m689159d5bb" x="256.971998" y="303.607151" style="stroke: #000000; stroke-width: 0.8"/>
      </g>
     </g>
     <g id="text_2">
      <!-- 2019-04 -->
      <g transform="translate(224.636278 335.782204) rotate(-30) scale(0.1 -0.1)">
       <defs>
        <path id="STHeiti-39" d="M 1229 269 
L 851 512 
L 2093 2394 
Q 1850 2310 1613 2310 
Q 1062 2310 688 2707 
Q 314 3104 314 3696 
Q 314 4288 730 4691 
Q 1146 5094 1750 5094 
Q 2355 5094 2748 4681 
Q 3142 4269 3142 3693 
Q 3142 3373 3011 3049 
Q 2880 2726 2624 2349 
L 1229 269 
z
M 762 3680 
Q 762 3277 1043 2995 
Q 1325 2714 1728 2714 
Q 2131 2714 2412 2998 
Q 2694 3283 2694 3680 
Q 2694 4077 2412 4361 
Q 2131 4646 1728 4646 
Q 1325 4646 1043 4364 
Q 762 4083 762 3680 
z
" transform="scale(0.015625)"/>
        <path id="STHeiti-34" d="M 2726 5094 
L 2816 5094 
L 2816 1894 
L 3373 1894 
L 3373 1453 
L 2816 1453 
L 2816 384 
L 2362 384 
L 2362 1453 
L 160 1453 
L 2726 5094 
z
M 2362 1894 
L 2362 3808 
L 1005 1894 
L 2362 1894 
z
" transform="scale(0.015625)"/>
       </defs>
       <use xlink:href="#STHeiti-32"/>
       <use xlink:href="#STHeiti-30" transform="translate(55.399994 0)"/>
       <use xlink:href="#STHeiti-31" transform="translate(110.799988 0)"/>
       <use xlink:href="#STHeiti-39" transform="translate(166.199982 0)"/>
       <use xlink:href="#STHeiti-2d" transform="translate(221.599976 0)"/>
       <use xlink:href="#STHeiti-30" transform="translate(254.799973 0)"/>
       <use xlink:href="#STHeiti-34" transform="translate(310.199966 0)"/>
      </g>
     </g>
    </g>
    <g id="xtick_3">
     <g id="line2d_5">
      <path d="M 470.428589 303.607151 
L 470.428589 7.2 
" clip-path="url(#pefb9ae0b2c)" style="fill: none; stroke: #b0b0b0; stroke-opacity: 0.3; stroke-width: 0.8; stroke-linecap: square"/>
     </g>
     <g id="line2d_6">
      <g>
       <use xlink:href="#m689159d5bb" x="470.428589" y="303.607151" style="stroke: #000000; stroke-width: 0.8"/>
      </g>
     </g>
     <g id="text_3">
      <!-- 2022-03 -->
      <g transform="translate(438.092869 335.782204) rotate(-30) scale(0.1 -0.1)">
       <defs>
        <path id="STHeiti-33" d="M 845 3917 
L 378 3917 
Q 506 4486 867 4790 
Q 1229 5094 1750 5094 
Q 2272 5094 2659 4748 
Q 3046 4403 3046 3910 
Q 3046 3315 2458 2970 
Q 2861 2803 3081 2473 
Q 3302 2144 3302 1754 
Q 3302 1146 2857 707 
Q 2413 269 1734 269 
Q 1133 269 742 611 
Q 352 954 224 1613 
L 672 1613 
Q 794 1158 1046 937 
Q 1299 717 1760 717 
Q 2221 717 2534 1011 
Q 2848 1306 2848 1741 
Q 2848 2176 2502 2441 
Q 2157 2707 1498 2720 
L 1498 3142 
Q 1971 3142 2268 3360 
Q 2566 3578 2566 3901 
Q 2566 4224 2326 4438 
Q 2086 4653 1747 4653 
Q 1408 4653 1200 4470 
Q 992 4288 845 3917 
z
" transform="scale(0.015625)"/>
       </defs>
       <use xlink:href="#STHeiti-32"/>
       <use xlink:href="#STHeiti-30" transform="translate(55.399994 0)"/>
       <use xlink:href="#STHeiti-32" transform="translate(110.799988 0)"/>
       <use xlink:href="#STHeiti-32" transform="translate(166.199982 0)"/>
       <use xlink:href="#STHeiti-2d" transform="translate(221.599976 0)"/>
       <use xlink:href="#STHeiti-30" transform="translate(254.799973 0)"/>
       <use xlink:href="#STHeiti-33" transform="translate(310.199966 0)"/>
      </g>
     </g>
    </g>
    <g id="xtick_4">
     <g id="line2d_7">
      <path d="M 683.88518 303.607151 
L 683.88518 7.2 
" clip-path="url(#pefb9ae0b2c)" style="fill: none; stroke: #b0b0b0; stroke-opacity: 0.3; stroke-width: 0.8; stroke-linecap: square"/>
     </g>
     <g id="line2d_8">
      <g>
       <use xlink:href="#m689159d5bb" x="683.88518" y="303.607151" style="stroke: #000000; stroke-width: 0.8"/>
      </g>
     </g>
     <g id="text_4">
      <!-- 2026（拟） -->
      <g transform="translate(638.040817 343.668025) rotate(-30) scale(0.1 -0.1)">
       <defs>
        <path id="STHeiti-ff08" d="M 5651 -749 
L 5274 -749 
Q 4646 173 4409 835 
Q 4173 1498 4173 2266 
Q 4173 3034 4432 3750 
Q 4691 4467 5254 5267 
L 5645 5267 
Q 5082 4237 4928 3606 
Q 4774 2976 4774 2093 
Q 4774 1472 4953 861 
Q 5133 250 5651 -749 
z
" transform="scale(0.015625)"/>
        <path id="STHeiti-62df" d="M 1818 2355 
Q 2125 2477 2470 2637 
Q 2458 2554 2458 2435 
Q 2458 2317 2541 2157 
Q 2272 2074 1818 1875 
L 1818 -45 
Q 1818 -205 1754 -288 
Q 1690 -371 1501 -422 
Q 1312 -474 909 -518 
Q 890 -230 646 115 
Q 947 64 1084 64 
Q 1222 64 1280 102 
Q 1338 141 1338 288 
L 1338 1658 
Q 813 1402 595 1261 
Q 531 1568 378 1869 
Q 877 2016 1338 2176 
L 1338 3398 
Q 781 3386 474 3341 
L 474 3885 
Q 730 3846 1338 3834 
Q 1338 4890 1274 5133 
Q 1504 5088 1862 5088 
Q 1997 5088 1997 5043 
Q 1997 5011 1907 4944 
Q 1818 4877 1818 4685 
L 1818 3834 
Q 2214 3840 2490 3885 
L 2490 3341 
Q 2214 3386 1818 3392 
L 1818 2355 
z
M 5043 794 
Q 4646 179 3258 -627 
Q 3110 -384 2816 -186 
Q 3770 141 4250 601 
Q 4730 1062 4864 1833 
Q 4998 2605 4998 3587 
Q 4998 4570 4947 5056 
Q 5158 4992 5606 4992 
Q 5715 4992 5715 4944 
Q 5715 4896 5648 4854 
Q 5581 4813 5523 3680 
Q 5466 2547 5411 2028 
Q 5357 1510 5274 1274 
Q 5619 845 6144 109 
L 5574 -224 
Q 5389 192 5043 794 
z
M 4499 3315 
L 4019 3117 
Q 3757 4243 3494 4883 
L 3968 5043 
Q 4256 4314 4499 3315 
z
M 4320 1664 
L 3456 768 
Q 3238 550 3002 218 
Q 2842 525 2656 736 
Q 2733 832 2768 934 
Q 2803 1037 2803 1254 
L 2803 3533 
Q 2803 4077 2771 4301 
Q 2976 4256 3379 4256 
Q 3475 4256 3475 4221 
Q 3475 4186 3424 4147 
Q 3296 4058 3296 3917 
L 3296 1254 
Q 3795 1766 4077 2093 
Q 4141 1818 4320 1664 
z
" transform="scale(0.015625)"/>
        <path id="STHeiti-ff09" d="M 1120 5267 
Q 1747 4346 1984 3683 
Q 2221 3021 2221 2253 
Q 2221 1485 1961 768 
Q 1702 51 1139 -749 
L 749 -749 
Q 1312 282 1465 912 
Q 1619 1542 1619 2426 
Q 1619 3046 1440 3657 
Q 1261 4269 742 5267 
L 1120 5267 
z
" transform="scale(0.015625)"/>
       </defs>
       <use xlink:href="#STHeiti-32"/>
       <use xlink:href="#STHeiti-30" transform="translate(55.399994 0)"/>
       <use xlink:href="#STHeiti-32" transform="translate(110.799988 0)"/>
       <use xlink:href="#STHeiti-36" transform="translate(166.199982 0)"/>
       <use xlink:href="#STHeiti-ff08" transform="translate(221.599976 0)"/>
       <use xlink:href="#STHeiti-62df" transform="translate(321.59996 0)"/>
       <use xlink:href="#STHeiti-ff09" transform="translate(421.599945 0)"/>
      </g>
     </g>
    </g>
   </g>
   <g id="matplotlib.axis_2">
    <g id="ytick_1">
     <g id="line2d_9">
      <path d="M 43.515407 262.35461 
L 705.230839 262.35461 
" clip-path="url(#pefb9ae0b2c)" style="fill: none; stroke: #b0b0b0; stroke-opacity: 0.3; stroke-width: 0.8; stroke-linecap: square"/>
     </g>
     <g id="line2d_10">
      <defs>
       <path id="m135890559d" d="M 0 0 
L -3.5 0 
" style="stroke: #000000; stroke-width: 0.8"/>
      </defs>
      <g>
       <use xlink:href="#m135890559d" x="43.515407" y="262.35461" style="stroke: #000000; stroke-width: 0.8"/>
      </g>
     </g>
     <g id="text_5">
      <!-- 30 -->
      <g transform="translate(25.434157 266.334297) scale(0.1 -0.1)">
       <use xlink:href="#STHeiti-33"/>
       <use xlink:href="#STHeiti-30" transform="translate(55.399994 0)"/>
      </g>
     </g>
    </g>
    <g id="ytick_2">
     <g id="line2d_11">
      <path d="M 43.515407 206.795631 
L 705.230839 206.795631 
" clip-path="url(#pefb9ae0b2c)" style="fill: none; stroke: #b0b0b0; stroke-opacity: 0.3; stroke-width: 0.8; stroke-linecap: square"/>
     </g>
     <g id="line2d_12">
      <g>
       <use xlink:href="#m135890559d" x="43.515407" y="206.795631" style="stroke: #000000; stroke-width: 0.8"/>
      </g>
     </g>
     <g id="text_6">
      <!-- 40 -->
      <g transform="translate(25.434157 210.775319) scale(0.1 -0.1)">
       <use xlink:href="#STHeiti-34"/>
       <use xlink:href="#STHeiti-30" transform="translate(55.399994 0)"/>
      </g>
     </g>
    </g>
    <g id="ytick_3">
     <g id="line2d_13">
      <path d="M 43.515407 151.236652 
L 705.230839 151.236652 
" clip-path="url(#pefb9ae0b2c)" style="fill: none; stroke: #b0b0b0; stroke-opacity: 0.3; stroke-width: 0.8; stroke-linecap: square"/>
     </g>
     <g id="line2d_14">
      <g>
       <use xlink:href="#m135890559d" x="43.515407" y="151.236652" style="stroke: #000000; stroke-width: 0.8"/>
      </g>
     </g>
     <g id="text_7">
      <!-- 50 -->
      <g transform="translate(25.434157 155.21634) scale(0.1 -0.1)">
       <use xlink:href="#STHeiti-35"/>
       <use xlink:href="#STHeiti-30" transform="translate(55.399994 0)"/>
      </g>
     </g>
    </g>
    <g id="ytick_4">
     <g id="line2d_15">
      <path d="M 43.515407 95.677674 
L 705.230839 95.677674 
" clip-path="url(#pefb9ae0b2c)" style="fill: none; stroke: #b0b0b0; stroke-opacity: 0.3; stroke-width: 0.8; stroke-linecap: square"/>
     </g>
     <g id="line2d_16">
      <g>
       <use xlink:href="#m135890559d" x="43.515407" y="95.677674" style="stroke: #000000; stroke-width: 0.8"/>
      </g>
     </g>
     <g id="text_8">
      <!-- 60 -->
      <g transform="translate(25.434157 99.657361) scale(0.1 -0.1)">
       <use xlink:href="#STHeiti-36"/>
       <use xlink:href="#STHeiti-30" transform="translate(55.399994 0)"/>
      </g>
     </g>
    </g>
    <g id="ytick_5">
     <g id="line2d_17">
      <path d="M 43.515407 40.118695 
L 705.230839 40.118695 
" clip-path="url(#pefb9ae0b2c)" style="fill: none; stroke: #b0b0b0; stroke-opacity: 0.3; stroke-width: 0.8; stroke-linecap: square"/>
     </g>
     <g id="line2d_18">
      <g>
       <use xlink:href="#m135890559d" x="43.515407" y="40.118695" style="stroke: #000000; stroke-width: 0.8"/>
      </g>
     </g>
     <g id="text_9">
      <!-- 70 -->
      <g transform="translate(25.434157 44.098382) scale(0.1 -0.1)">
       <defs>
        <path id="STHeiti-37" d="M 461 4979 
L 3373 4979 
L 915 269 
L 538 461 
L 2662 4544 
L 461 4544 
L 461 4979 
z
" transform="scale(0.015625)"/>
       </defs>
       <use xlink:href="#STHeiti-37"/>
       <use xlink:href="#STHeiti-30" transform="translate(55.399994 0)"/>
      </g>
     </g>
    </g>
   </g>
   <g id="line2d_19">
    <path d="M 256.971998 290.134099 
L 470.428589 20.673052 
L 683.88518 226.796863 
" clip-path="url(#pefb9ae0b2c)" style="fill: none; stroke: #1a365d; stroke-width: 2; stroke-linecap: square"/>
    <defs>
     <path id="m873cd80370" d="M 0 3 
C 0.795609 3 1.55874 2.683901 2.12132 2.12132 
C 2.683901 1.55874 3 0.795609 3 0 
C 3 -0.795609 2.683901 -1.55874 2.12132 -2.12132 
C 1.55874 -2.683901 0.795609 -3 0 -3 
C -0.795609 -3 -1.55874 -2.683901 -2.12132 -2.12132 
C -2.683901 -1.55874 -3 -0.795609 -3 0 
C -3 0.795609 -2.683901 1.55874 -2.12132 2.12132 
C -1.55874 2.683901 -0.795609 3 0 3 
z
" style="stroke: #1a365d"/>
    </defs>
    <g clip-path="url(#pefb9ae0b2c)">
     <use xlink:href="#m873cd80370" x="256.971998" y="290.134099" style="fill: #1a365d; stroke: #1a365d"/>
     <use xlink:href="#m873cd80370" x="470.428589" y="20.673052" style="fill: #1a365d; stroke: #1a365d"/>
     <use xlink:href="#m873cd80370" x="683.88518" y="226.796863" style="fill: #1a365d; stroke: #1a365d"/>
    </g>
   </g>
   <g id="patch_3">
    <path d="M 43.515407 303.607151 
L 43.515407 7.2 
" style="fill: none; stroke: #000000; stroke-width: 0.8; stroke-linejoin: miter; stroke-linecap: square"/>
   </g>
   <g id="patch_4">
    <path d="M 705.230839 303.607151 
L 705.230839 7.2 
" style="fill: none; stroke: #000000; stroke-width: 0.8; stroke-linejoin: miter; stroke-linecap: square"/>
   </g>
   <g id="patch_5">
    <path d="M 43.515407 303.607151 
L 705.230839 303.607151 
" style="fill: none; stroke: #000000; stroke-width: 0.8; stroke-linejoin: miter; stroke-linecap: square"/>
   </g>
   <g id="patch_6">
    <path d="M 43.515407 7.2 
L 705.230839 7.2 
" style="fill: none; stroke: #000000; stroke-width: 0.8; stroke-linejoin: miter; stroke-linecap: square"/>
   </g>
   <g id="legend_1">
    <g id="patch_7">
     <path d="M 625.130839 27.36 
L 698.930839 27.36 
Q 700.730839 27.36 700.730839 25.56 
L 700.730839 13.5 
Q 700.730839 11.7 698.930839 11.7 
L 625.130839 11.7 
Q 623.330839 11.7 623.330839 13.5 
L 623.330839 25.56 
Q 623.330839 27.36 625.130839 27.36 
z
" style="fill: #ffffff; opacity: 0.8; stroke: #cccccc; stroke-linejoin: miter"/>
    </g>
    <g id="line2d_20">
     <path d="M 626.930839 19.403438 
L 635.930839 19.403438 
L 644.930839 19.403438 
" style="fill: none; stroke: #1a365d; stroke-width: 2; stroke-linecap: square"/>
     <g>
      <use xlink:href="#m873cd80370" x="635.930839" y="19.403438" style="fill: #1a365d; stroke: #1a365d"/>
     </g>
    </g>
    <g id="text_10">
     <!-- 估值（亿） -->
     <g transform="translate(652.130839 22.553438) scale(0.09 -0.09)">
      <defs>
       <path id="STHeiti-4f30" d="M 1120 2784 
Q 864 2419 717 2227 
Q 608 2451 320 2656 
Q 838 3226 1145 3856 
Q 1453 4486 1638 5261 
Q 1933 5037 2221 4992 
Q 2291 4979 2291 4950 
Q 2291 4922 2221 4845 
Q 2067 4678 1632 3712 
L 1632 -557 
L 1050 -557 
Q 1120 115 1120 736 
L 1120 2784 
z
M 4928 0 
L 3008 0 
L 3008 -544 
L 2438 -544 
Q 2464 -250 2464 122 
L 2464 1984 
Q 2464 2221 2438 2342 
Q 2733 2323 3680 2323 
L 3680 3437 
Q 2701 3430 2061 3373 
L 2061 3949 
Q 2656 3898 3680 3891 
L 3680 4461 
Q 3680 4947 3642 5203 
Q 3846 5165 4307 5165 
Q 4378 5165 4378 5129 
Q 4378 5094 4333 5056 
Q 4218 4960 4218 4698 
L 4218 3891 
Q 5299 3891 5907 3949 
L 5907 3373 
Q 5325 3437 4218 3437 
L 4218 2323 
Q 5254 2323 5504 2342 
Q 5472 2221 5472 1984 
L 5472 109 
Q 5472 -262 5491 -454 
L 4928 -454 
L 4928 0 
z
M 3008 454 
L 4928 454 
L 4928 1869 
L 3008 1869 
L 3008 454 
z
" transform="scale(0.015625)"/>
       <path id="STHeiti-503c" d="M 2438 109 
L 2438 2912 
Q 2438 3322 2406 3610 
Q 2861 3571 3507 3565 
Q 3552 3834 3571 4186 
Q 2490 4173 2086 4147 
L 2086 4646 
Q 2586 4602 3597 4595 
Q 3610 5024 3590 5229 
Q 3840 5184 4294 5184 
Q 4346 5184 4346 5155 
Q 4346 5126 4301 5088 
Q 4192 4998 4128 4595 
Q 5440 4595 6022 4646 
L 6022 4147 
Q 5338 4192 4077 4186 
L 4013 3565 
Q 5043 3565 5434 3610 
Q 5408 3405 5408 2912 
L 5408 102 
Q 5805 109 6118 147 
L 6118 -365 
Q 5754 -320 3965 -320 
Q 2176 -320 1830 -358 
L 1830 147 
Q 2106 122 2438 109 
z
M 4915 2688 
L 4915 3155 
L 2925 3155 
L 2925 2688 
L 4915 2688 
z
M 2925 2323 
L 2925 1824 
L 4915 1824 
L 4915 2323 
L 2925 2323 
z
M 2925 1466 
L 2925 973 
L 4915 973 
L 4915 1466 
L 2925 1466 
z
M 4915 102 
L 4915 608 
L 2925 608 
L 2925 102 
L 4915 102 
z
M 1549 4026 
L 1549 -627 
L 966 -627 
Q 1037 70 1037 749 
L 1037 3066 
Q 845 2726 595 2349 
Q 448 2579 186 2752 
Q 685 3354 944 3933 
Q 1203 4512 1408 5216 
Q 1786 5024 1926 4995 
Q 2067 4966 2067 4918 
Q 2067 4870 1984 4825 
Q 1901 4781 1766 4493 
L 1549 4026 
z
" transform="scale(0.015625)"/>
       <path id="STHeiti-4ebf" d="M 1779 3840 
L 1779 -570 
L 1171 -570 
Q 1242 154 1242 864 
L 1242 2835 
Q 1005 2406 582 1786 
Q 486 2144 256 2394 
Q 691 2848 1091 3577 
Q 1491 4307 1709 5235 
Q 2016 5075 2355 5018 
Q 2464 4998 2464 4950 
Q 2464 4902 2339 4822 
Q 2214 4742 1779 3840 
z
M 6131 762 
Q 6022 218 5872 -28 
Q 5722 -275 5200 -348 
Q 4678 -422 3929 -422 
Q 3181 -422 2841 -275 
Q 2502 -128 2502 320 
Q 2502 582 2630 912 
Q 2758 1242 3187 1958 
Q 3616 2675 4518 4051 
L 3981 4051 
Q 2970 4051 2560 4019 
L 2560 4621 
Q 2912 4582 4054 4582 
Q 5197 4582 5568 4646 
L 5568 4179 
Q 5338 4115 4982 3718 
Q 4627 3322 4140 2522 
Q 3654 1722 3376 1194 
Q 3098 666 3098 390 
Q 3098 250 3222 186 
Q 3347 122 3852 122 
Q 4358 122 4710 157 
Q 5062 192 5190 256 
Q 5318 320 5385 509 
Q 5453 698 5491 1146 
Q 5664 966 5789 880 
Q 5914 794 6131 762 
z
" transform="scale(0.015625)"/>
      </defs>
      <use xlink:href="#STHeiti-4f30"/>
      <use xlink:href="#STHeiti-503c" transform="translate(99.999985 0)"/>
      <use xlink:href="#STHeiti-ff08" transform="translate(199.999969 0)"/>
      <use xlink:href="#STHeiti-4ebf" transform="translate(299.999954 0)"/>
      <use xlink:href="#STHeiti-ff09" transform="translate(399.999939 0)"/>
     </g>
    </g>
   </g>
  </g>
 </g>
 <defs>
  <clipPath id="pefb9ae0b2c">
   <rect x="43.515407" y="7.2" width="661.715432" height="296.407151"/>
  </clipPath>
 </defs>
</svg>
