<?xml version="1.0" encoding="utf-8" standalone="no"?>
<!DOCTYPE svg PUBLIC "-//W3C//DTD SVG 1.1//EN"
  "http://www.w3.org/Graphics/SVG/1.1/DTD/svg11.dtd">
<svg xmlns:xlink="http://www.w3.org/1999/xlink" width="712.81125pt" height="351.582442pt" viewBox="0 0 712.81125 351.582442" xmlns="http://www.w3.org/2000/svg" version="1.1">
 <metadata>
  <rdf:RDF xmlns:dc="http://purl.org/dc/elements/1.1/" xmlns:cc="http://creativecommons.org/ns#" xmlns:rdf="http://www.w3.org/1999/02/22-rdf-syntax-ns#">
   <cc:Work>
    <dc:type rdf:resource="http://purl.org/dc/dcmitype/StillImage"/>
    <dc:date>2026-06-05T15:43:13.546352</dc:date>
    <dc:format>image/svg+xml</dc:format>
    <dc:creator>
     <cc:Agent>
      <dc:title>Matplotlib v3.10.9, https://matplotlib.org/</dc:title>
     </cc:Agent>
    </dc:creator>
   </cc:Work>
  </rdf:RDF>
 </metadata>
 <defs>
  <style type="text/css">*{stroke-linejoin: round; stroke-linecap: butt}</style>
 </defs>
 <g id="figure_1">
  <g id="patch_1">
   <path d="M 0 351.582442 
L 712.81125 351.582442 
L 712.81125 0 
L 0 0 
z
" style="fill: #ffffff"/>
  </g>
  <g id="axes_1">
   <g id="patch_2">
    <path d="M 25.28125 318.247155 
L 705.61125 318.247155 
L 705.61125 9.117545 
L 25.28125 9.117545 
z
" style="fill: #fafafa"/>
   </g>
   <g id="matplotlib.axis_1">
    <g id="xtick_1">
     <g id="line2d_1">
      <path d="M 56.205341 318.247155 
L 56.205341 9.117545 
" clip-path="url(#p70cfe8ca71)" style="fill: none; stroke: #b0b0b0; stroke-opacity: 0.3; stroke-width: 0.8; stroke-linecap: square"/>
     </g>
     <g id="line2d_2">
      <defs>
       <path id="mb960144134" d="M 0 0 
L 0 3.5 
" style="stroke: #000000; stroke-width: 0.8"/>
      </defs>
      <g>
       <use xlink:href="#mb960144134" x="56.205341" y="318.247155" style="stroke: #000000; stroke-width: 0.8"/>
      </g>
     </g>
     <g id="text_1">
      <!-- 2023 -->
      <g transform="translate(36.34174 343.221426) rotate(-30) scale(0.1 -0.1)">
       <defs>
        <path id="STHeiti-32" d="M 742 3539 
L 301 3539 
Q 333 4243 768 4668 
Q 1203 5094 1820 5094 
Q 2438 5094 2844 4694 
Q 3251 4294 3251 3718 
Q 3251 3290 3024 2925 
Q 2797 2560 2336 2061 
L 1190 826 
L 3315 826 
L 3315 384 
L 192 384 
L 1946 2278 
Q 2406 2778 2604 3066 
Q 2803 3354 2803 3725 
Q 2803 4096 2512 4377 
Q 2221 4659 1789 4659 
Q 1357 4659 1072 4368 
Q 787 4077 742 3539 
z
" transform="scale(0.015625)"/>
        <path id="STHeiti-30" d="M 1747 269 
Q 1005 269 605 880 
Q 205 1491 205 2681 
Q 205 3872 605 4483 
Q 1005 5094 1741 5094 
Q 2477 5094 2909 4470 
Q 3341 3846 3341 2681 
Q 3341 1517 2905 893 
Q 2470 269 1747 269 
z
M 1760 4659 
Q 1229 4659 934 4147 
Q 640 3635 640 2669 
Q 640 685 1760 685 
Q 2304 685 2608 1206 
Q 2912 1728 2912 2681 
Q 2912 3635 2598 4147 
Q 2285 4659 1760 4659 
z
" transform="scale(0.015625)"/>
        <path id="STHeiti-33" d="M 845 3917 
L 378 3917 
Q 506 4486 867 4790 
Q 1229 5094 1750 5094 
Q 2272 5094 2659 4748 
Q 3046 4403 3046 3910 
Q 3046 3315 2458 2970 
Q 2861 2803 3081 2473 
Q 3302 2144 3302 1754 
Q 3302 1146 2857 707 
Q 2413 269 1734 269 
Q 1133 269 742 611 
Q 352 954 224 1613 
L 672 1613 
Q 794 1158 1046 937 
Q 1299 717 1760 717 
Q 2221 717 2534 1011 
Q 2848 1306 2848 1741 
Q 2848 2176 2502 2441 
Q 2157 2707 1498 2720 
L 1498 3142 
Q 1971 3142 2268 3360 
Q 2566 3578 2566 3901 
Q 2566 4224 2326 4438 
Q 2086 4653 1747 4653 
Q 1408 4653 1200 4470 
Q 992 4288 845 3917 
z
" transform="scale(0.015625)"/>
       </defs>
       <use xlink:href="#STHeiti-32"/>
       <use xlink:href="#STHeiti-30" transform="translate(55.399994 0)"/>
       <use xlink:href="#STHeiti-32" transform="translate(110.799988 0)"/>
       <use xlink:href="#STHeiti-33" transform="translate(166.199982 0)"/>
      </g>
     </g>
    </g>
    <g id="xtick_2">
     <g id="line2d_3">
      <path d="M 365.44625 318.247155 
L 365.44625 9.117545 
" clip-path="url(#p70cfe8ca71)" style="fill: none; stroke: #b0b0b0; stroke-opacity: 0.3; stroke-width: 0.8; stroke-linecap: square"/>
     </g>
     <g id="line2d_4">
      <g>
       <use xlink:href="#mb960144134" x="365.44625" y="318.247155" style="stroke: #000000; stroke-width: 0.8"/>
      </g>
     </g>
     <g id="text_2">
      <!-- 2024 -->
      <g transform="translate(345.582649 343.221426) rotate(-30) scale(0.1 -0.1)">
       <defs>
        <path id="STHeiti-34" d="M 2726 5094 
L 2816 5094 
L 2816 1894 
L 3373 1894 
L 3373 1453 
L 2816 1453 
L 2816 384 
L 2362 384 
L 2362 1453 
L 160 1453 
L 2726 5094 
z
M 2362 1894 
L 2362 3808 
L 1005 1894 
L 2362 1894 
z
" transform="scale(0.015625)"/>
       </defs>
       <use xlink:href="#STHeiti-32"/>
       <use xlink:href="#STHeiti-30" transform="translate(55.399994 0)"/>
       <use xlink:href="#STHeiti-32" transform="translate(110.799988 0)"/>
       <use xlink:href="#STHeiti-34" transform="translate(166.199982 0)"/>
      </g>
     </g>
    </g>
    <g id="xtick_3">
     <g id="line2d_5">
      <path d="M 674.687159 318.247155 
L 674.687159 9.117545 
" clip-path="url(#p70cfe8ca71)" style="fill: none; stroke: #b0b0b0; stroke-opacity: 0.3; stroke-width: 0.8; stroke-linecap: square"/>
     </g>
     <g id="line2d_6">
      <g>
       <use xlink:href="#mb960144134" x="674.687159" y="318.247155" style="stroke: #000000; stroke-width: 0.8"/>
      </g>
     </g>
     <g id="text_3">
      <!-- 2025 -->
      <g transform="translate(654.823559 343.221426) rotate(-30) scale(0.1 -0.1)">
       <defs>
        <path id="STHeiti-35" d="M 3149 4979 
L 3149 4544 
L 1510 4544 
L 1280 3290 
Q 1587 3379 1856 3379 
Q 2458 3379 2861 2953 
Q 3264 2528 3264 1862 
Q 3264 1197 2825 733 
Q 2387 269 1664 269 
Q 1114 269 726 598 
Q 339 928 262 1498 
L 730 1498 
Q 813 1114 1075 909 
Q 1338 704 1683 704 
Q 2138 704 2467 1043 
Q 2797 1382 2797 1888 
Q 2797 2349 2509 2646 
Q 2221 2944 1757 2944 
Q 1293 2944 730 2701 
L 1158 4979 
L 3149 4979 
z
" transform="scale(0.015625)"/>
       </defs>
       <use xlink:href="#STHeiti-32"/>
       <use xlink:href="#STHeiti-30" transform="translate(55.399994 0)"/>
       <use xlink:href="#STHeiti-32" transform="translate(110.799988 0)"/>
       <use xlink:href="#STHeiti-35" transform="translate(166.199982 0)"/>
      </g>
     </g>
    </g>
   </g>
   <g id="matplotlib.axis_2">
    <g id="ytick_1">
     <g id="line2d_7">
      <path d="M 25.28125 310.909763 
L 705.61125 310.909763 
" clip-path="url(#p70cfe8ca71)" style="fill: none; stroke: #b0b0b0; stroke-opacity: 0.3; stroke-width: 0.8; stroke-linecap: square"/>
     </g>
     <g id="line2d_8">
      <defs>
       <path id="m85f79836d7" d="M 0 0 
L -3.5 0 
" style="stroke: #000000; stroke-width: 0.8"/>
      </defs>
      <g>
       <use xlink:href="#m85f79836d7" x="25.28125" y="310.909763" style="stroke: #000000; stroke-width: 0.8"/>
      </g>
     </g>
     <g id="text_4">
      <!-- 5 -->
      <g transform="translate(12.740625 314.889451) scale(0.1 -0.1)">
       <use xlink:href="#STHeiti-35"/>
      </g>
     </g>
    </g>
    <g id="ytick_2">
     <g id="line2d_9">
      <path d="M 25.28125 250.963748 
L 705.61125 250.963748 
" clip-path="url(#p70cfe8ca71)" style="fill: none; stroke: #b0b0b0; stroke-opacity: 0.3; stroke-width: 0.8; stroke-linecap: square"/>
     </g>
     <g id="line2d_10">
      <g>
       <use xlink:href="#m85f79836d7" x="25.28125" y="250.963748" style="stroke: #000000; stroke-width: 0.8"/>
      </g>
     </g>
     <g id="text_5">
      <!-- 10 -->
      <g transform="translate(7.2 254.943435) scale(0.1 -0.1)">
       <defs>
        <path id="STHeiti-31" d="M 1184 4979 
L 2086 4979 
L 2086 384 
L 1632 384 
L 1632 4531 
L 909 4531 
L 1184 4979 
z
" transform="scale(0.015625)"/>
       </defs>
       <use xlink:href="#STHeiti-31"/>
       <use xlink:href="#STHeiti-30" transform="translate(55.399994 0)"/>
      </g>
     </g>
    </g>
    <g id="ytick_3">
     <g id="line2d_11">
      <path d="M 25.28125 191.017733 
L 705.61125 191.017733 
" clip-path="url(#p70cfe8ca71)" style="fill: none; stroke: #b0b0b0; stroke-opacity: 0.3; stroke-width: 0.8; stroke-linecap: square"/>
     </g>
     <g id="line2d_12">
      <g>
       <use xlink:href="#m85f79836d7" x="25.28125" y="191.017733" style="stroke: #000000; stroke-width: 0.8"/>
      </g>
     </g>
     <g id="text_6">
      <!-- 15 -->
      <g transform="translate(7.2 194.99742) scale(0.1 -0.1)">
       <use xlink:href="#STHeiti-31"/>
       <use xlink:href="#STHeiti-35" transform="translate(55.399994 0)"/>
      </g>
     </g>
    </g>
    <g id="ytick_4">
     <g id="line2d_13">
      <path d="M 25.28125 131.071718 
L 705.61125 131.071718 
" clip-path="url(#p70cfe8ca71)" style="fill: none; stroke: #b0b0b0; stroke-opacity: 0.3; stroke-width: 0.8; stroke-linecap: square"/>
     </g>
     <g id="line2d_14">
      <g>
       <use xlink:href="#m85f79836d7" x="25.28125" y="131.071718" style="stroke: #000000; stroke-width: 0.8"/>
      </g>
     </g>
     <g id="text_7">
      <!-- 20 -->
      <g transform="translate(7.2 135.051405) scale(0.1 -0.1)">
       <use xlink:href="#STHeiti-32"/>
       <use xlink:href="#STHeiti-30" transform="translate(55.399994 0)"/>
      </g>
     </g>
    </g>
    <g id="ytick_5">
     <g id="line2d_15">
      <path d="M 25.28125 71.125703 
L 705.61125 71.125703 
" clip-path="url(#p70cfe8ca71)" style="fill: none; stroke: #b0b0b0; stroke-opacity: 0.3; stroke-width: 0.8; stroke-linecap: square"/>
     </g>
     <g id="line2d_16">
      <g>
       <use xlink:href="#m85f79836d7" x="25.28125" y="71.125703" style="stroke: #000000; stroke-width: 0.8"/>
      </g>
     </g>
     <g id="text_8">
      <!-- 25 -->
      <g transform="translate(7.2 75.10539) scale(0.1 -0.1)">
       <use xlink:href="#STHeiti-32"/>
       <use xlink:href="#STHeiti-35" transform="translate(55.399994 0)"/>
      </g>
     </g>
    </g>
    <g id="ytick_6">
     <g id="line2d_17">
      <path d="M 25.28125 11.179687 
L 705.61125 11.179687 
" clip-path="url(#p70cfe8ca71)" style="fill: none; stroke: #b0b0b0; stroke-opacity: 0.3; stroke-width: 0.8; stroke-linecap: square"/>
     </g>
     <g id="line2d_18">
      <g>
       <use xlink:href="#m85f79836d7" x="25.28125" y="11.179687" style="stroke: #000000; stroke-width: 0.8"/>
      </g>
     </g>
     <g id="text_9">
      <!-- 30 -->
      <g transform="translate(7.2 15.159375) scale(0.1 -0.1)">
       <use xlink:href="#STHeiti-33"/>
       <use xlink:href="#STHeiti-30" transform="translate(55.399994 0)"/>
      </g>
     </g>
    </g>
   </g>
   <g id="line2d_19">
    <path d="M 56.205341 215.955275 
L 365.44625 304.195809 
L 674.687159 294.364663 
" clip-path="url(#p70cfe8ca71)" style="fill: none; stroke: #1a365d; stroke-width: 2; stroke-linecap: square"/>
    <defs>
     <path id="m6b0ca4ddb5" d="M 0 3 
C 0.795609 3 1.55874 2.683901 2.12132 2.12132 
C 2.683901 1.55874 3 0.795609 3 0 
C 3 -0.795609 2.683901 -1.55874 2.12132 -2.12132 
C 1.55874 -2.683901 0.795609 -3 0 -3 
C -0.795609 -3 -1.55874 -2.683901 -2.12132 -2.12132 
C -2.683901 -1.55874 -3 -0.795609 -3 0 
C -3 0.795609 -2.683901 1.55874 -2.12132 2.12132 
C -1.55874 2.683901 -0.795609 3 0 3 
z
" style="stroke: #1a365d"/>
    </defs>
    <g clip-path="url(#p70cfe8ca71)">
     <use xlink:href="#m6b0ca4ddb5" x="56.205341" y="215.955275" style="fill: #1a365d; stroke: #1a365d"/>
     <use xlink:href="#m6b0ca4ddb5" x="365.44625" y="304.195809" style="fill: #1a365d; stroke: #1a365d"/>
     <use xlink:href="#m6b0ca4ddb5" x="674.687159" y="294.364663" style="fill: #1a365d; stroke: #1a365d"/>
    </g>
   </g>
   <g id="line2d_20">
    <path d="M 56.205341 111.049749 
L 365.44625 84.313826 
L 674.687159 23.168891 
" clip-path="url(#p70cfe8ca71)" style="fill: none; stroke: #d69e2e; stroke-width: 2; stroke-linecap: square"/>
    <defs>
     <path id="m2f7e455430" d="M 0 3 
C 0.795609 3 1.55874 2.683901 2.12132 2.12132 
C 2.683901 1.55874 3 0.795609 3 0 
C 3 -0.795609 2.683901 -1.55874 2.12132 -2.12132 
C 1.55874 -2.683901 0.795609 -3 0 -3 
C -0.795609 -3 -1.55874 -2.683901 -2.12132 -2.12132 
C -2.683901 -1.55874 -3 -0.795609 -3 0 
C -3 0.795609 -2.683901 1.55874 -2.12132 2.12132 
C -1.55874 2.683901 -0.795609 3 0 3 
z
" style="stroke: #d69e2e"/>
    </defs>
    <g clip-path="url(#p70cfe8ca71)">
     <use xlink:href="#m2f7e455430" x="56.205341" y="111.049749" style="fill: #d69e2e; stroke: #d69e2e"/>
     <use xlink:href="#m2f7e455430" x="365.44625" y="84.313826" style="fill: #d69e2e; stroke: #d69e2e"/>
     <use xlink:href="#m2f7e455430" x="674.687159" y="23.168891" style="fill: #d69e2e; stroke: #d69e2e"/>
    </g>
   </g>
   <g id="patch_3">
    <path d="M 25.28125 318.247155 
L 25.28125 9.117545 
" style="fill: none; stroke: #000000; stroke-width: 0.8; stroke-linejoin: miter; stroke-linecap: square"/>
   </g>
   <g id="patch_4">
    <path d="M 705.61125 318.247155 
L 705.61125 9.117545 
" style="fill: none; stroke: #000000; stroke-width: 0.8; stroke-linejoin: miter; stroke-linecap: square"/>
   </g>
   <g id="patch_5">
    <path d="M 25.28125 318.247155 
L 705.61125 318.247155 
" style="fill: none; stroke: #000000; stroke-width: 0.8; stroke-linejoin: miter; stroke-linecap: square"/>
   </g>
   <g id="patch_6">
    <path d="M 25.28125 9.117545 
L 705.61125 9.117545 
" style="fill: none; stroke: #000000; stroke-width: 0.8; stroke-linejoin: miter; stroke-linecap: square"/>
   </g>
   <g id="legend_1">
    <g id="patch_7">
     <path d="M 31.58125 42.075826 
L 132.38125 42.075826 
Q 134.18125 42.075826 134.18125 40.275826 
L 134.18125 15.417545 
Q 134.18125 13.617545 132.38125 13.617545 
L 31.58125 13.617545 
Q 29.78125 13.617545 29.78125 15.417545 
L 29.78125 40.275826 
Q 29.78125 42.075826 31.58125 42.075826 
z
" style="fill: #ffffff; opacity: 0.8; stroke: #cccccc; stroke-linejoin: miter"/>
    </g>
    <g id="line2d_21">
     <path d="M 33.38125 21.230982 
L 42.38125 21.230982 
L 51.38125 21.230982 
" style="fill: none; stroke: #1a365d; stroke-width: 2; stroke-linecap: square"/>
     <g>
      <use xlink:href="#m6b0ca4ddb5" x="42.38125" y="21.230982" style="fill: #1a365d; stroke: #1a365d"/>
     </g>
    </g>
    <g id="text_10">
     <!-- OEM占收入比 -->
     <g transform="translate(58.58125 24.380982) scale(0.09 -0.09)">
      <defs>
       <path id="STHeiti-4f" d="M 358 2662 
Q 358 3328 678 3891 
Q 998 4454 1555 4774 
Q 2112 5094 2768 5094 
Q 3424 5094 3990 4777 
Q 4557 4461 4880 3901 
Q 5203 3341 5203 2685 
Q 5203 2029 4883 1469 
Q 4563 909 4003 589 
Q 3443 269 2787 269 
Q 2131 269 1568 585 
Q 1005 902 681 1459 
Q 358 2016 358 2662 
z
M 4723 2682 
Q 4723 3507 4150 4076 
Q 3578 4646 2771 4646 
Q 1946 4646 1392 4073 
Q 838 3501 838 2678 
Q 838 1856 1408 1286 
Q 1978 717 2784 717 
Q 3590 717 4156 1273 
Q 4723 1830 4723 2682 
z
" transform="scale(0.015625)"/>
       <path id="STHeiti-45" d="M 563 4979 
L 3200 4979 
L 3200 4525 
L 1024 4525 
L 1024 3091 
L 3181 3091 
L 3181 2643 
L 1024 2643 
L 1024 838 
L 3181 838 
L 3181 384 
L 563 384 
L 563 4979 
z
" transform="scale(0.015625)"/>
       <path id="STHeiti-4d" d="M 352 384 
L 1005 4979 
L 1075 4979 
L 2944 1210 
L 4800 4979 
L 4870 4979 
L 5530 384 
L 5075 384 
L 4627 3674 
L 3002 384 
L 2886 384 
L 1242 3699 
L 794 384 
L 352 384 
z
" transform="scale(0.015625)"/>
       <path id="STHeiti-5360" d="M 1536 64 
L 1536 -550 
L 922 -550 
Q 986 -32 986 666 
L 986 1542 
Q 986 2138 941 2515 
Q 1197 2470 2598 2470 
L 2598 4314 
Q 2598 4947 2534 5267 
Q 2771 5235 2950 5242 
L 3238 5242 
Q 3309 5242 3309 5210 
Q 3309 5178 3238 5130 
Q 3168 5082 3168 4768 
L 3168 4154 
L 4506 4154 
Q 5350 4154 5741 4211 
L 5741 3610 
Q 5370 3667 4506 3667 
L 3168 3667 
L 3168 2470 
Q 4883 2470 5094 2515 
Q 5050 2042 5050 1542 
L 5050 736 
Q 5050 83 5107 -448 
L 4512 -448 
L 4512 64 
L 1536 64 
z
M 4512 544 
L 4512 2003 
L 1536 2003 
L 1536 544 
L 4512 544 
z
" transform="scale(0.015625)"/>
       <path id="STHeiti-6536" d="M 1824 1664 
L 1824 4230 
Q 1824 4998 1773 5190 
Q 2003 5146 2413 5146 
Q 2522 5146 2522 5107 
Q 2522 5069 2435 5017 
Q 2349 4966 2349 4544 
L 2349 563 
Q 2349 26 2413 -589 
L 1766 -589 
Q 1824 6 1824 563 
L 1824 1197 
L 1082 992 
Q 826 922 614 762 
Q 512 1030 352 1293 
Q 608 1440 608 1722 
L 608 3539 
Q 608 4115 582 4282 
Q 806 4243 973 4243 
L 1171 4250 
Q 1261 4250 1261 4211 
Q 1261 4173 1203 4141 
Q 1082 4083 1082 3968 
L 1082 1510 
L 1824 1664 
z
M 4224 1286 
Q 4685 1984 4781 3462 
L 3629 3462 
Q 3226 2547 2970 2157 
Q 2733 2317 2522 2387 
Q 2906 2918 3203 3712 
Q 3501 4506 3565 5146 
Q 3981 5005 4250 4966 
Q 4326 4954 4326 4922 
Q 4326 4890 4278 4851 
Q 4230 4813 4150 4653 
Q 4070 4493 3821 3917 
L 5120 3917 
Q 5747 3917 5971 3974 
L 5971 3424 
Q 5754 3462 5318 3462 
Q 5178 1722 4576 896 
Q 5178 365 6061 173 
Q 5734 -134 5664 -493 
Q 4845 -115 4237 518 
Q 3699 -115 2899 -499 
Q 2790 -262 2483 -64 
Q 3213 173 3898 883 
Q 3450 1466 3315 2675 
L 3744 2810 
Q 3814 1888 4224 1286 
z
" transform="scale(0.015625)"/>
       <path id="STHeiti-5165" d="M 2893 3898 
Q 2470 4429 1984 4698 
L 2426 5133 
Q 3078 4608 3385 4150 
Q 3693 3693 3936 2938 
Q 4326 1722 4784 1210 
Q 5242 698 6074 326 
Q 5741 58 5549 -314 
Q 4768 218 4355 794 
Q 3942 1370 3571 2605 
Q 3456 2982 3264 3341 
Q 2938 2029 2317 1126 
Q 1696 224 986 -307 
Q 742 -26 422 102 
Q 1466 736 2086 1808 
Q 2707 2880 2893 3898 
z
" transform="scale(0.015625)"/>
       <path id="STHeiti-6bd4" d="M 4000 2291 
L 4000 467 
Q 4000 314 4041 253 
Q 4083 192 4217 173 
Q 4352 154 4681 154 
Q 5011 154 5142 205 
Q 5274 256 5354 438 
Q 5434 621 5555 1107 
Q 5773 826 6144 717 
Q 5971 198 5811 -22 
Q 5651 -243 5382 -316 
Q 5114 -390 4570 -390 
Q 4026 -390 3808 -329 
Q 3590 -269 3526 -99 
Q 3462 70 3462 461 
L 3462 4301 
Q 3462 4934 3424 5222 
Q 3712 5171 3869 5177 
Q 4026 5184 4096 5184 
Q 4166 5184 4166 5155 
Q 4166 5126 4105 5036 
Q 4045 4947 4022 4828 
Q 4000 4710 4000 4499 
L 4000 2842 
Q 4864 3386 5421 3936 
Q 5632 3610 5888 3443 
Q 5939 3411 5939 3379 
Q 5939 3347 5830 3318 
Q 5722 3290 5190 2998 
Q 4659 2707 4000 2291 
z
M 1485 2835 
L 1485 346 
L 2938 1286 
Q 2925 1203 2925 1114 
Q 2925 864 3034 691 
L 1715 -122 
Q 1344 -346 1139 -538 
Q 960 -192 749 -13 
Q 851 58 896 147 
Q 941 237 941 506 
L 941 3949 
Q 941 4768 915 5011 
Q 1126 4979 1286 4979 
L 1549 4979 
Q 1613 4979 1613 4950 
Q 1613 4922 1581 4870 
Q 1485 4730 1485 4224 
L 1485 3309 
Q 2368 3309 2970 3347 
L 2970 2790 
Q 2381 2829 1485 2835 
z
" transform="scale(0.015625)"/>
      </defs>
      <use xlink:href="#STHeiti-4f"/>
      <use xlink:href="#STHeiti-45" transform="translate(86.899994 0)"/>
      <use xlink:href="#STHeiti-4d" transform="translate(140.499985 0)"/>
      <use xlink:href="#STHeiti-5360" transform="translate(232.399979 0)"/>
      <use xlink:href="#STHeiti-6536" transform="translate(332.399963 0)"/>
      <use xlink:href="#STHeiti-5165" transform="translate(432.399948 0)"/>
      <use xlink:href="#STHeiti-6bd4" transform="translate(532.399933 0)"/>
     </g>
    </g>
    <g id="line2d_22">
     <path d="M 33.38125 34.119263 
L 42.38125 34.119263 
L 51.38125 34.119263 
" style="fill: none; stroke: #d69e2e; stroke-width: 2; stroke-linecap: square"/>
     <g>
      <use xlink:href="#m2f7e455430" x="42.38125" y="34.119263" style="fill: #d69e2e; stroke: #d69e2e"/>
     </g>
    </g>
    <g id="text_11">
     <!-- 共享出行占收入比 -->
     <g transform="translate(58.58125 37.269263) scale(0.09 -0.09)">
      <defs>
       <path id="STHeiti-5171" d="M 2010 1952 
L 2010 3456 
Q 1523 3450 730 3398 
L 730 3974 
Q 1344 3923 2010 3917 
L 2010 4160 
Q 2010 4928 1978 5158 
Q 2195 5120 2611 5120 
Q 2701 5120 2701 5088 
Q 2701 5056 2624 5011 
Q 2547 4966 2547 4646 
L 2547 3917 
L 3834 3917 
L 3834 4275 
Q 3834 5107 3808 5274 
Q 4026 5235 4448 5235 
Q 4538 5235 4538 5203 
Q 4538 5171 4461 5126 
Q 4384 5082 4384 4762 
L 4384 3917 
Q 5146 3923 5715 3974 
L 5715 3398 
Q 4992 3450 4384 3456 
L 4384 1952 
Q 5325 1952 5990 2010 
L 5990 1408 
Q 5005 1485 3177 1485 
Q 1350 1485 358 1408 
L 358 2010 
Q 1030 1952 2010 1952 
z
M 2547 3456 
L 2547 1952 
L 3834 1952 
L 3834 3456 
L 2547 3456 
z
M 5856 -77 
L 5408 -634 
Q 4550 166 3603 698 
L 3974 1094 
Q 5011 493 5856 -77 
z
M 2362 1082 
Q 2579 870 2854 768 
Q 2976 723 2976 684 
Q 2976 646 2883 614 
Q 2790 582 2691 518 
Q 2592 454 2432 304 
Q 2272 154 1808 -140 
Q 1344 -435 864 -691 
Q 704 -442 410 -282 
Q 1018 -32 1590 368 
Q 2163 768 2362 1082 
z
" transform="scale(0.015625)"/>
       <path id="STHeiti-4eab" d="M 3590 4602 
Q 4954 4614 5837 4672 
L 5837 4122 
Q 4922 4186 3194 4186 
Q 1466 4186 550 4122 
L 550 4672 
Q 1318 4614 2970 4602 
Q 2899 4922 2797 5158 
L 3469 5242 
Q 3565 4890 3590 4602 
z
M 5158 2528 
Q 4563 2554 3126 2554 
Q 1690 2554 1318 2534 
Q 1350 2861 1350 3229 
Q 1350 3597 1318 3834 
Q 1869 3802 3238 3802 
Q 4608 3802 5158 3834 
Q 5146 3654 5146 3299 
Q 5146 2944 5158 2528 
z
M 4621 2963 
L 4621 3398 
L 1856 3398 
L 1856 2963 
L 4621 2963 
z
M 3552 672 
L 3552 6 
Q 3552 -192 3485 -297 
Q 3418 -403 3200 -476 
Q 2982 -550 2509 -614 
Q 2496 -211 2285 45 
Q 2592 19 2752 19 
Q 2912 19 2963 70 
Q 3014 122 3014 275 
L 3014 672 
Q 1318 672 486 608 
L 486 1171 
Q 1293 1120 3014 1107 
L 3014 1472 
L 4109 1850 
Q 1568 1856 845 1830 
L 845 2234 
Q 1235 2208 3027 2208 
Q 4819 2208 5318 2246 
L 5318 1728 
Q 4800 1690 4506 1581 
L 3552 1235 
L 3552 1107 
Q 5139 1120 5946 1171 
L 5946 608 
Q 4973 672 3552 672 
z
" transform="scale(0.015625)"/>
       <path id="STHeiti-51fa" d="M 4858 2502 
L 3494 2502 
L 3494 326 
L 4973 371 
L 4973 1331 
Q 4973 1690 4934 1952 
Q 5203 1901 5408 1901 
L 5587 1907 
Q 5638 1907 5638 1891 
Q 5638 1875 5606 1843 
Q 5523 1760 5523 1325 
L 5523 102 
Q 5523 -275 5549 -608 
L 4934 -608 
Q 4960 -371 4973 -102 
L 3034 -160 
Q 1357 -211 845 -269 
Q 877 -19 877 256 
L 877 1523 
Q 877 1882 851 2016 
Q 1011 1984 1148 1968 
Q 1286 1952 1363 1958 
L 1491 1958 
Q 1542 1958 1542 1932 
Q 1542 1907 1513 1859 
Q 1485 1811 1459 1660 
Q 1434 1510 1434 1389 
L 1434 262 
L 2938 307 
L 2938 2502 
L 2163 2502 
Q 1613 2502 1094 2432 
Q 1146 2739 1146 3002 
L 1146 4006 
Q 1146 4346 1094 4576 
Q 1350 4531 1529 4531 
Q 1709 4531 1757 4540 
Q 1805 4550 1833 4550 
Q 1862 4550 1862 4531 
Q 1862 4512 1814 4464 
Q 1766 4416 1728 4256 
Q 1690 4096 1690 4013 
L 1690 2963 
L 2938 2963 
L 2938 4326 
Q 2938 4870 2893 5178 
Q 3149 5126 3254 5116 
Q 3360 5107 3616 5107 
Q 3680 5107 3680 5088 
Q 3680 5069 3629 5017 
Q 3578 4966 3536 4752 
Q 3494 4538 3494 4333 
L 3494 2963 
L 4858 2963 
L 4858 4006 
Q 4858 4365 4800 4627 
Q 5062 4582 5261 4582 
L 5472 4595 
Q 5517 4595 5517 4572 
Q 5517 4550 5498 4506 
Q 5402 4339 5402 4000 
L 5402 2842 
Q 5402 2477 5427 2202 
L 4813 2202 
Q 4851 2368 4858 2502 
z
" transform="scale(0.015625)"/>
       <path id="STHeiti-884c" d="M 1677 5184 
Q 1997 4915 2240 4813 
Q 2323 4774 2323 4736 
Q 2323 4698 2227 4678 
Q 2061 4640 1737 4246 
Q 1414 3853 800 3290 
Q 672 3501 410 3648 
Q 800 3917 1177 4409 
Q 1555 4902 1677 5184 
z
M 5658 4160 
Q 5184 4218 4329 4218 
Q 3475 4218 3002 4160 
L 3002 4749 
Q 3411 4698 4329 4698 
Q 5248 4698 5658 4749 
L 5658 4160 
z
M 1747 2560 
L 1747 -576 
L 1158 -576 
Q 1216 -51 1216 454 
L 1216 1894 
Q 1050 1702 653 1280 
Q 544 1523 282 1760 
Q 1203 2458 1824 3699 
Q 2042 3520 2362 3347 
Q 2445 3302 2445 3267 
Q 2445 3232 2371 3216 
Q 2298 3200 2134 3030 
Q 1971 2861 1747 2560 
z
M 4934 2566 
L 4934 128 
Q 4934 -141 4844 -278 
Q 4755 -416 4489 -486 
Q 4224 -557 3680 -582 
Q 3661 -301 3379 90 
Q 3661 51 3866 51 
Q 4378 51 4378 326 
L 4378 2573 
Q 3251 2573 2630 2515 
L 2630 3104 
Q 3181 3053 4355 3053 
Q 5530 3053 6067 3104 
L 6067 2515 
Q 5638 2560 4934 2566 
z
" transform="scale(0.015625)"/>
      </defs>
      <use xlink:href="#STHeiti-5171"/>
      <use xlink:href="#STHeiti-4eab" transform="translate(99.999985 0)"/>
      <use xlink:href="#STHeiti-51fa" transform="translate(199.999969 0)"/>
      <use xlink:href="#STHeiti-884c" transform="translate(299.999954 0)"/>
      <use xlink:href="#STHeiti-5360" transform="translate(399.999939 0)"/>
      <use xlink:href="#STHeiti-6536" transform="translate(499.999924 0)"/>
      <use xlink:href="#STHeiti-5165" transform="translate(599.999908 0)"/>
      <use xlink:href="#STHeiti-6bd4" transform="translate(699.999893 0)"/>
     </g>
    </g>
   </g>
  </g>
 </g>
 <defs>
  <clipPath id="p70cfe8ca71">
   <rect x="25.28125" y="9.117545" width="680.33" height="309.129611"/>
  </clipPath>
 </defs>
</svg>
