<?xml version="1.0" encoding="utf-8" standalone="no"?>
<!DOCTYPE svg PUBLIC "-//W3C//DTD SVG 1.1//EN"
  "http://www.w3.org/Graphics/SVG/1.1/DTD/svg11.dtd">
<svg xmlns:xlink="http://www.w3.org/1999/xlink" width="711.768271pt" height="352.352705pt" viewBox="0 0 711.768271 352.352705" xmlns="http://www.w3.org/2000/svg" version="1.1">
 <metadata>
  <rdf:RDF xmlns:dc="http://purl.org/dc/elements/1.1/" xmlns:cc="http://creativecommons.org/ns#" xmlns:rdf="http://www.w3.org/1999/02/22-rdf-syntax-ns#">
   <cc:Work>
    <dc:type rdf:resource="http://purl.org/dc/dcmitype/StillImage"/>
    <dc:date>2026-06-04T15:39:47.230082</dc:date>
    <dc:format>image/svg+xml</dc:format>
    <dc:creator>
     <cc:Agent>
      <dc:title>Matplotlib v3.10.9, https://matplotlib.org/</dc:title>
     </cc:Agent>
    </dc:creator>
   </cc:Work>
  </rdf:RDF>
 </metadata>
 <defs>
  <style type="text/css">*{stroke-linejoin: round; stroke-linecap: butt}</style>
 </defs>
 <g id="figure_1">
  <g id="patch_1">
   <path d="M 0 352.352705 
L 711.768271 352.352705 
L 711.768271 0 
L 0 0 
z
" style="fill: #ffffff"/>
  </g>
  <g id="axes_1">
   <g id="patch_2">
    <path d="M 112.251618 263.675464 
L 704.568271 263.675464 
L 704.568271 7.2 
L 112.251618 7.2 
z
" style="fill: #fafafa"/>
   </g>
   <g id="matplotlib.axis_1">
    <g id="xtick_1">
     <g id="line2d_1">
      <path d="M 126.698366 263.675464 
L 126.698366 7.2 
" clip-path="url(#p06ae3f75ea)" style="fill: none; stroke: #b0b0b0; stroke-opacity: 0.3; stroke-width: 0.8; stroke-linecap: square"/>
     </g>
     <g id="line2d_2">
      <defs>
       <path id="m1784631b4f" d="M 0 0 
L 0 3.5 
" style="stroke: #000000; stroke-width: 0.8"/>
      </defs>
      <g>
       <use xlink:href="#m1784631b4f" x="126.698366" y="263.675464" style="stroke: #000000; stroke-width: 0.8"/>
      </g>
     </g>
     <g id="text_1">
      <!-- 宁德时代 储能系统（含集成） -->
      <g transform="translate(11.279687 343.99169) rotate(-30) scale(0.1 -0.1)">
       <defs>
        <path id="STHeiti-5b81" d="M 3155 4314 
Q 3059 4730 2848 5101 
L 3520 5267 
Q 3603 4864 3789 4314 
Q 5459 4326 5766 4365 
L 5766 3213 
L 5222 3213 
L 5222 3840 
L 1190 3840 
L 1190 3066 
L 659 3066 
L 659 4365 
Q 1082 4314 3155 4314 
z
M 3680 2234 
L 3680 -32 
Q 3680 -243 3603 -348 
Q 3526 -454 3299 -528 
Q 3072 -602 2554 -691 
Q 2515 -410 2195 6 
Q 2413 -38 2621 -38 
Q 2829 -38 2963 45 
Q 3098 128 3098 262 
L 3098 2234 
Q 1555 2234 653 2163 
L 653 2784 
Q 1555 2720 3276 2720 
Q 4998 2720 5888 2784 
L 5888 2163 
Q 4986 2227 3680 2234 
z
" transform="scale(0.015625)"/>
        <path id="STHeiti-5fb7" d="M 3981 4173 
Q 3923 3917 3898 3699 
Q 4928 3693 5632 3738 
Q 5606 3405 5606 2976 
Q 5606 2547 5632 2214 
Q 5088 2253 3981 2253 
Q 2874 2253 2330 2214 
Q 2355 2547 2355 2976 
Q 2355 3405 2330 3738 
Q 2886 3699 3488 3699 
Q 3552 4038 3571 4173 
Q 2618 4166 2150 4134 
L 2150 4582 
Q 2438 4550 3616 4544 
Q 3629 4730 3629 4899 
Q 3629 5069 3603 5197 
Q 3955 5094 4224 5094 
Q 4314 5094 4314 5059 
Q 4314 5024 4259 4989 
Q 4205 4954 4169 4870 
Q 4134 4787 4077 4544 
Q 5498 4544 5875 4570 
L 5875 4134 
Q 5427 4173 3981 4173 
z
M 4237 3341 
L 3699 3341 
L 3699 2611 
L 4237 2611 
L 4237 3341 
z
M 5184 3341 
L 4640 3341 
L 4640 2611 
L 5184 2611 
L 5184 3341 
z
M 3309 3341 
L 2765 3341 
L 2765 2611 
L 3309 2611 
L 3309 3341 
z
M 1427 5094 
Q 1754 4909 1971 4851 
Q 2061 4826 2061 4800 
Q 2061 4774 1984 4730 
Q 1933 4698 1421 4064 
Q 909 3430 666 3098 
Q 538 3386 314 3526 
Q 717 3866 1024 4298 
Q 1331 4730 1427 5094 
z
M 1498 2688 
L 1498 -563 
L 973 -563 
Q 1030 -115 1030 467 
L 1030 2016 
Q 838 1734 538 1370 
Q 429 1658 250 1850 
Q 672 2176 1059 2726 
Q 1446 3277 1619 3827 
Q 1850 3597 2086 3514 
Q 2157 3488 2157 3446 
Q 2157 3405 2074 3379 
Q 1946 3347 1498 2688 
z
M 5786 1901 
L 5786 1466 
Q 5318 1504 3891 1504 
Q 2464 1504 1997 1466 
L 1997 1914 
Q 2458 1875 3930 1875 
Q 5402 1875 5786 1901 
z
M 4486 589 
L 3955 397 
Q 3872 877 3642 1235 
L 4154 1382 
Q 4256 1030 4486 589 
z
M 6131 282 
L 5626 -109 
Q 5504 141 5251 470 
Q 4998 800 4813 954 
L 5222 1248 
Q 5600 768 6131 282 
z
M 5203 307 
Q 5082 -96 4880 -249 
Q 4678 -403 3923 -403 
Q 3450 -403 3232 -358 
Q 3014 -314 2944 -214 
Q 2874 -115 2874 102 
L 2874 768 
Q 2874 966 2854 1133 
Q 3014 1082 3366 1082 
Q 3418 1082 3418 1053 
Q 3418 1024 3379 976 
Q 3341 928 3325 851 
Q 3309 774 3309 704 
L 3309 218 
Q 3309 77 3417 35 
Q 3526 -6 3910 -6 
Q 4294 -6 4444 29 
Q 4595 64 4649 169 
Q 4704 275 4717 538 
Q 4870 333 5203 307 
z
M 2650 954 
Q 2349 109 2227 -365 
L 1690 -166 
Q 2061 371 2189 1037 
L 2650 954 
z
" transform="scale(0.015625)"/>
        <path id="STHeiti-65f6" d="M 4851 3795 
Q 4851 4909 4781 5261 
Q 4979 5229 5421 5229 
Q 5530 5229 5530 5184 
Q 5530 5158 5491 5133 
Q 5376 5069 5376 4883 
L 5376 3802 
Q 5728 3808 6144 3846 
L 6144 3258 
Q 5862 3290 5376 3302 
L 5376 83 
Q 5376 -186 5299 -310 
Q 5222 -435 4988 -502 
Q 4755 -570 4230 -614 
Q 4192 -224 3962 70 
Q 4230 51 4428 51 
Q 4627 51 4739 89 
Q 4851 128 4851 275 
L 4851 3309 
L 4077 3309 
Q 3379 3309 2867 3258 
L 2867 3846 
Q 3373 3795 4077 3795 
L 4851 3795 
z
M 1165 634 
L 1165 -224 
L 627 -224 
Q 672 173 672 627 
L 672 3949 
Q 672 4422 634 4659 
Q 864 4608 1683 4608 
Q 2502 4608 2726 4659 
Q 2688 4435 2688 3949 
L 2688 896 
Q 2688 486 2733 51 
L 2195 51 
L 2195 634 
L 1165 634 
z
M 2195 2829 
L 2195 4154 
L 1165 4154 
L 1165 2829 
L 2195 2829 
z
M 2195 1062 
L 2195 2381 
L 1165 2381 
L 1165 1062 
L 2195 1062 
z
M 4243 1574 
L 3674 1370 
Q 3526 1933 3238 2579 
L 3757 2758 
Q 3891 2163 4243 1574 
z
" transform="scale(0.015625)"/>
        <path id="STHeiti-4ee3" d="M 3904 2630 
Q 4013 1907 4269 1305 
Q 4525 704 4829 406 
Q 5133 109 5248 109 
Q 5331 109 5411 345 
Q 5491 582 5568 909 
Q 5754 595 6118 538 
Q 5914 -141 5776 -365 
Q 5638 -589 5459 -589 
Q 5190 -589 4752 -278 
Q 4314 32 3965 710 
Q 3616 1389 3398 2515 
Q 2509 2304 2208 2202 
L 2099 2765 
Q 2566 2803 3315 2976 
Q 3142 4064 3104 5190 
Q 3366 5152 3597 5152 
L 3866 5165 
Q 3942 5165 3942 5129 
Q 3942 5094 3849 4995 
Q 3757 4896 3757 4461 
Q 3757 4026 3846 3098 
L 4352 3219 
Q 5306 3443 5677 3597 
L 5843 3040 
Q 5562 3021 4499 2771 
L 3904 2630 
z
M 1248 2566 
Q 966 2042 710 1709 
Q 525 2035 294 2227 
Q 806 2701 1123 3478 
Q 1440 4256 1549 5094 
Q 1901 4973 2227 4922 
Q 2342 4902 2342 4864 
Q 2342 4826 2227 4749 
Q 2176 4717 2089 4531 
Q 2003 4346 1773 3757 
L 1773 -653 
L 1178 -653 
Q 1248 -38 1248 614 
L 1248 2566 
z
M 5357 4096 
L 4800 3738 
Q 4557 4243 4256 4614 
L 4787 4915 
Q 5120 4493 5357 4096 
z
" transform="scale(0.015625)"/>
        <path id="STHeiti-20" transform="scale(0.015625)"/>
        <path id="STHeiti-50a8" d="M 4474 4448 
Q 4787 4454 4992 4493 
L 4992 4013 
Q 4768 4045 4474 4051 
L 4474 3194 
L 4646 3194 
Q 5146 3917 5382 4685 
Q 5568 4531 5888 4390 
Q 5933 4365 5933 4336 
Q 5933 4307 5865 4272 
Q 5798 4237 5577 3859 
Q 5357 3482 5146 3194 
Q 5696 3206 6086 3251 
L 6086 2733 
Q 5600 2778 4845 2784 
Q 4653 2541 4365 2234 
L 5139 2234 
Q 5504 2234 5670 2278 
Q 5619 2099 5619 1651 
L 5619 301 
Q 5619 -102 5677 -499 
L 5139 -499 
L 5139 -154 
L 3994 -154 
L 3994 -614 
L 3514 -614 
Q 3565 -211 3565 186 
L 3565 1466 
Q 3315 1242 3117 1088 
Q 3008 1261 2784 1446 
Q 3200 1709 3546 1997 
Q 3533 2157 3507 2278 
Q 3642 2253 3814 2240 
Q 4102 2509 4339 2790 
Q 3533 2790 3008 2733 
L 3008 3251 
Q 3482 3206 4013 3194 
L 4013 4058 
Q 3558 4051 3302 4013 
L 3302 4493 
Q 3610 4448 4013 4442 
Q 4013 5024 3955 5254 
Q 4192 5210 4506 5210 
Q 4563 5210 4563 5181 
Q 4563 5152 4518 5107 
Q 4474 5062 4474 4813 
L 4474 4448 
z
M 5139 1242 
L 5139 1830 
L 3994 1830 
L 3994 1242 
L 5139 1242 
z
M 3994 845 
L 3994 243 
L 5139 243 
L 5139 845 
L 3994 845 
z
M 1510 4070 
L 1510 -582 
L 954 -582 
Q 1024 64 1024 538 
L 1024 2970 
Q 832 2547 646 2202 
Q 518 2464 237 2637 
Q 608 3098 905 3808 
Q 1203 4518 1338 5165 
Q 1670 5056 1875 5050 
Q 1978 5043 1978 5001 
Q 1978 4960 1888 4870 
Q 1830 4813 1510 4070 
z
M 2957 3712 
L 2419 3565 
Q 2336 4141 2093 4627 
L 2586 4774 
Q 2733 4256 2957 3712 
z
M 3123 602 
L 2586 154 
Q 2426 26 2246 -218 
Q 2067 115 1926 250 
Q 2042 378 2090 515 
Q 2138 653 2138 909 
L 2138 2784 
Q 1856 2784 1658 2746 
L 1658 3277 
Q 1939 3226 2192 3226 
Q 2445 3226 2669 3277 
Q 2598 2989 2598 2470 
L 2598 794 
Q 2835 941 2982 1082 
Q 2982 832 3123 602 
z
" transform="scale(0.015625)"/>
        <path id="STHeiti-80fd" d="M 2842 3334 
L 1363 3206 
Q 922 3162 736 3078 
Q 685 3347 589 3622 
Q 749 3693 841 3760 
Q 934 3827 1100 4044 
Q 1267 4262 1436 4556 
Q 1606 4851 1709 5101 
Q 2035 4922 2198 4893 
Q 2362 4864 2362 4825 
Q 2362 4787 2237 4704 
Q 2112 4621 1901 4358 
L 1274 3622 
L 2662 3648 
Q 2464 4000 2278 4237 
L 2669 4442 
Q 3136 3827 3443 3315 
L 2982 3046 
Q 2950 3130 2842 3334 
z
M 4179 3994 
Q 4902 4288 5363 4666 
Q 5562 4371 5760 4237 
Q 5811 4205 5811 4173 
Q 5811 4141 5782 4131 
Q 5754 4122 5670 4122 
Q 5459 4122 4179 3610 
L 4179 3264 
Q 4179 3174 4220 3123 
Q 4262 3072 4406 3043 
Q 4550 3014 4816 3014 
Q 5082 3014 5190 3056 
Q 5299 3098 5356 3222 
Q 5414 3347 5459 3635 
Q 5632 3386 5965 3302 
Q 5850 2957 5747 2819 
Q 5645 2682 5465 2646 
Q 5286 2611 4784 2611 
Q 4282 2611 4064 2646 
Q 3846 2682 3782 2797 
Q 3718 2912 3718 3219 
L 3718 4339 
Q 3718 4787 3674 5043 
Q 3891 5005 4262 5005 
Q 4365 5005 4365 4966 
Q 4365 4928 4272 4857 
Q 4179 4787 4179 4666 
L 4179 3994 
z
M 1350 640 
L 1350 -474 
L 806 -474 
Q 858 38 858 531 
L 858 2240 
Q 858 2598 813 2829 
Q 1216 2778 1977 2778 
Q 2739 2778 3110 2829 
Q 3066 2598 3066 2240 
L 3066 19 
Q 3066 -179 3002 -278 
Q 2938 -378 2758 -432 
Q 2579 -486 2202 -518 
Q 2182 -224 1997 45 
Q 2208 6 2330 6 
Q 2573 6 2573 198 
L 2573 640 
L 1350 640 
z
M 1350 1875 
L 2573 1875 
L 2573 2374 
L 1350 2374 
L 1350 1875 
z
M 2573 1517 
L 1350 1517 
L 1350 1011 
L 2573 1011 
L 2573 1517 
z
M 4122 1312 
Q 4890 1632 5344 1984 
Q 5504 1741 5709 1555 
Q 5747 1523 5747 1491 
Q 5747 1459 5728 1452 
Q 5709 1446 5651 1446 
Q 5459 1446 4122 902 
L 4122 256 
Q 4122 166 4160 124 
Q 4198 83 4336 64 
Q 4474 45 4826 45 
Q 5178 45 5293 237 
Q 5408 429 5434 762 
Q 5638 467 5965 397 
Q 5850 0 5750 -153 
Q 5651 -307 5456 -355 
Q 5261 -403 4742 -403 
Q 4224 -403 4006 -368 
Q 3789 -333 3725 -214 
Q 3661 -96 3661 211 
L 3661 1664 
Q 3661 2086 3610 2368 
Q 3827 2330 4205 2330 
Q 4307 2330 4307 2291 
Q 4307 2253 4214 2182 
Q 4122 2112 4122 1990 
L 4122 1312 
z
" transform="scale(0.015625)"/>
        <path id="STHeiti-7cfb" d="M 2701 4307 
Q 1139 4166 922 4128 
Q 864 4448 736 4659 
Q 902 4646 1126 4646 
Q 1997 4646 3158 4793 
Q 4320 4941 5242 5133 
Q 5376 4832 5472 4720 
Q 5568 4608 5568 4579 
Q 5568 4550 5510 4550 
L 5402 4563 
Q 5203 4563 2931 4326 
Q 3046 4211 3196 4160 
Q 3347 4109 3347 4080 
Q 3347 4051 3222 4019 
Q 3098 3987 2774 3737 
Q 2451 3488 1894 3245 
L 3661 3373 
Q 4269 3802 4442 4064 
Q 4755 3814 4889 3737 
Q 5024 3661 5024 3613 
Q 5024 3565 4864 3558 
Q 4813 3558 3930 3008 
Q 3622 2822 3072 2528 
Q 2522 2234 2086 2042 
L 4710 2150 
Q 4448 2426 4109 2656 
L 4531 2957 
L 5824 1766 
L 5306 1363 
Q 5184 1587 5037 1779 
L 3571 1696 
L 3571 51 
Q 3571 -192 3494 -310 
Q 3418 -429 3197 -483 
Q 2976 -538 2496 -557 
Q 2419 -128 2227 141 
Q 2650 51 2787 51 
Q 2925 51 2976 99 
Q 3027 147 3027 314 
L 3027 1670 
Q 1350 1619 1056 1485 
Q 986 1830 838 2080 
Q 1146 2048 1814 2317 
Q 2483 2586 3123 3002 
L 2035 2886 
Q 1510 2835 1344 2726 
Q 1331 3053 1190 3283 
Q 1990 3475 2701 4307 
z
M 1798 1408 
Q 2010 1158 2298 1011 
Q 2374 973 2374 944 
Q 2374 915 2227 877 
Q 2176 864 1779 518 
Q 1382 173 915 -275 
Q 768 -51 435 90 
Q 864 320 1277 726 
Q 1690 1133 1798 1408 
z
M 5939 269 
L 5395 -205 
Q 5210 77 4797 467 
Q 4384 858 4109 998 
L 4499 1376 
Q 5152 781 5939 269 
z
" transform="scale(0.015625)"/>
        <path id="STHeiti-7edf" d="M 4058 4307 
Q 3917 4838 3795 5107 
L 4390 5229 
Q 4454 4774 4576 4307 
Q 5510 4320 5984 4371 
L 5984 3814 
Q 5421 3878 4281 3878 
Q 3142 3878 2579 3814 
L 2579 4371 
Q 3085 4314 4058 4307 
z
M 1715 3322 
Q 1907 3674 2035 4019 
Q 2330 3789 2486 3750 
Q 2643 3712 2643 3664 
Q 2643 3616 2566 3597 
Q 2490 3578 2397 3462 
Q 2304 3347 1965 2848 
L 1216 1728 
L 2451 1869 
Q 2368 1549 2368 1357 
Q 1024 1350 627 1216 
Q 563 1491 442 1690 
Q 742 1754 1491 2938 
Q 704 2886 493 2829 
Q 442 3078 346 3283 
Q 544 3443 800 3958 
Q 1056 4474 1254 5146 
Q 1664 4973 1811 4953 
Q 1958 4934 1958 4889 
Q 1958 4845 1862 4813 
Q 1837 4800 1773 4707 
Q 1709 4614 1459 4205 
L 909 3283 
L 1715 3322 
z
M 4960 2675 
Q 4781 2918 4544 3213 
L 4941 3418 
Q 5434 2861 5869 2291 
L 5408 1978 
Q 5370 2054 5210 2310 
L 4755 2278 
L 4755 307 
Q 4755 102 4816 57 
Q 4877 13 5146 13 
Q 5306 13 5386 128 
Q 5466 243 5562 634 
Q 5760 403 6048 333 
Q 5862 -186 5702 -326 
Q 5542 -467 5129 -467 
Q 4717 -467 4534 -419 
Q 4352 -371 4304 -268 
Q 4256 -166 4256 58 
L 4256 2240 
L 3795 2202 
Q 3750 1018 3513 429 
Q 3277 -160 2630 -634 
Q 2426 -384 2099 -237 
Q 2688 -6 2985 464 
Q 3283 934 3290 2157 
Q 2912 2125 2778 2080 
Q 2688 2381 2611 2566 
Q 2758 2579 2934 2768 
Q 3110 2957 3376 3286 
Q 3642 3616 3699 3840 
Q 4006 3699 4205 3661 
Q 4326 3635 4326 3593 
Q 4326 3552 4205 3475 
Q 3987 3334 3354 2605 
L 4960 2675 
z
M 2547 768 
Q 2509 672 2509 560 
Q 2509 448 2528 320 
Q 973 58 474 -122 
Q 429 154 307 506 
Q 909 480 2547 768 
z
" transform="scale(0.015625)"/>
        <path id="STHeiti-ff08" d="M 5651 -749 
L 5274 -749 
Q 4646 173 4409 835 
Q 4173 1498 4173 2266 
Q 4173 3034 4432 3750 
Q 4691 4467 5254 5267 
L 5645 5267 
Q 5082 4237 4928 3606 
Q 4774 2976 4774 2093 
Q 4774 1472 4953 861 
Q 5133 250 5651 -749 
z
" transform="scale(0.015625)"/>
        <path id="STHeiti-542b" d="M 3142 4819 
Q 2464 3936 685 2586 
Q 525 2835 224 3027 
Q 832 3270 1670 3996 
Q 2509 4723 2803 5331 
Q 2963 5242 3430 5210 
Q 3514 5203 3514 5158 
Q 3514 5114 3424 5056 
Q 3622 4634 4480 4096 
Q 5338 3558 6240 3501 
Q 5926 3187 5856 2842 
Q 5395 2982 4739 3321 
Q 4083 3661 3667 4128 
Q 3251 4595 3142 4819 
z
M 3526 3328 
L 2906 3213 
Q 2854 3622 2778 3872 
L 3334 3987 
Q 3456 3667 3526 3328 
z
M 4794 2957 
Q 4390 2234 3590 1581 
Q 3366 1734 3104 1824 
Q 3501 2106 3910 2509 
L 2816 2509 
Q 1869 2509 1350 2464 
L 1350 2957 
Q 1875 2918 3129 2918 
Q 4384 2918 4794 2957 
z
M 4544 -154 
L 1824 -154 
L 1824 -634 
L 1222 -634 
Q 1274 -352 1274 19 
L 1274 902 
Q 1274 1229 1229 1574 
Q 1619 1530 3190 1530 
Q 4762 1530 5139 1574 
Q 5107 1254 5107 902 
L 5107 160 
Q 5107 -141 5146 -493 
L 4544 -493 
L 4544 -154 
z
M 1824 275 
L 4544 275 
L 4544 1101 
L 1824 1101 
L 1824 275 
z
" transform="scale(0.015625)"/>
        <path id="STHeiti-96c6" d="M 3949 4730 
L 3450 4410 
Q 3258 4666 2963 4902 
L 3437 5229 
Q 3661 4966 3949 4730 
z
M 1216 3322 
Q 1005 3027 800 2797 
Q 640 2963 333 3078 
Q 1382 3994 1734 5158 
Q 2029 5005 2240 4966 
Q 2349 4947 2349 4912 
Q 2349 4877 2246 4803 
Q 2144 4730 1901 4358 
L 3469 4358 
Q 5280 4358 5626 4390 
L 5626 3981 
Q 5050 4013 3584 4013 
L 3584 3590 
Q 4979 3590 5274 3622 
L 5274 3226 
Q 4774 3258 3584 3258 
L 3584 2861 
Q 5024 2861 5338 2893 
L 5338 2496 
Q 5024 2528 3584 2528 
L 3584 2099 
Q 5267 2099 5626 2131 
L 5626 1709 
Q 5030 1741 3450 1741 
L 1677 1741 
L 1677 1466 
L 1178 1466 
Q 1216 1747 1216 2138 
L 1216 3322 
z
M 1677 3590 
L 3130 3590 
L 3130 4013 
L 1677 4013 
L 1677 3590 
z
M 1677 3258 
L 1677 2861 
L 3130 2861 
L 3130 3258 
L 1677 3258 
z
M 1677 2528 
L 1677 2099 
L 3130 2099 
L 3130 2528 
L 1677 2528 
z
M 2502 826 
Q 1331 838 525 787 
L 525 1242 
Q 1421 1184 3040 1184 
Q 3040 1421 3014 1606 
Q 3238 1587 3597 1587 
Q 3686 1587 3686 1548 
Q 3686 1510 3606 1475 
Q 3526 1440 3526 1338 
L 3526 1184 
Q 5242 1184 5939 1216 
L 5939 787 
Q 5056 826 4006 826 
Q 4339 474 4860 272 
Q 5382 70 5971 64 
Q 5786 -160 5715 -499 
Q 4262 -218 3654 826 
L 3526 826 
L 3526 -83 
Q 3526 -320 3558 -614 
L 3008 -614 
Q 3046 -333 3046 -83 
L 3046 826 
L 2899 826 
Q 2310 45 858 -563 
Q 691 -262 416 -96 
Q 992 58 1593 320 
Q 2195 582 2502 826 
z
" transform="scale(0.015625)"/>
        <path id="STHeiti-6210" d="M 3392 3610 
L 1491 3610 
L 1491 2720 
Q 2778 2720 3066 2778 
L 2976 1056 
Q 2957 813 2877 688 
Q 2797 563 2585 480 
Q 2374 397 1907 294 
Q 1907 550 1670 947 
Q 1984 890 2163 890 
Q 2342 890 2412 957 
Q 2483 1024 2490 1203 
L 2547 2310 
L 1485 2310 
Q 1472 1382 1357 832 
Q 1242 282 845 -422 
Q 582 -224 282 -160 
Q 685 320 835 937 
Q 986 1555 986 2771 
Q 986 3334 954 4141 
Q 1453 4077 3347 4077 
L 3251 5248 
Q 3514 5203 3750 5203 
L 3930 5210 
Q 4006 5210 4006 5178 
Q 4006 5146 3942 5072 
Q 3878 4998 3878 4461 
Q 3878 4288 3885 4077 
Q 5274 4083 5798 4141 
L 5798 3546 
Q 5126 3610 3904 3610 
Q 3968 2432 4301 1549 
Q 4666 2202 4832 3187 
Q 5152 3014 5434 2938 
Q 5510 2912 5510 2883 
Q 5510 2854 5452 2832 
Q 5395 2810 5328 2685 
Q 5261 2560 5222 2451 
Q 4973 1632 4563 1030 
Q 4858 557 5050 326 
Q 5242 96 5347 96 
Q 5453 96 5510 256 
Q 5568 416 5600 755 
Q 5882 410 6144 358 
Q 5971 -160 5840 -397 
Q 5709 -634 5529 -634 
Q 5350 -634 4972 -304 
Q 4595 26 4230 589 
Q 3725 0 2899 -557 
Q 2752 -237 2470 -109 
Q 3424 326 3987 1056 
Q 3744 1542 3638 2019 
Q 3533 2496 3392 3610 
z
M 5331 4474 
L 4794 4211 
Q 4634 4646 4416 4922 
L 4922 5165 
Q 5178 4819 5331 4474 
z
" transform="scale(0.015625)"/>
        <path id="STHeiti-ff09" d="M 1120 5267 
Q 1747 4346 1984 3683 
Q 2221 3021 2221 2253 
Q 2221 1485 1961 768 
Q 1702 51 1139 -749 
L 749 -749 
Q 1312 282 1465 912 
Q 1619 1542 1619 2426 
Q 1619 3046 1440 3657 
Q 1261 4269 742 5267 
L 1120 5267 
z
" transform="scale(0.015625)"/>
       </defs>
       <use xlink:href="#STHeiti-5b81"/>
       <use xlink:href="#STHeiti-5fb7" transform="translate(99.999985 0)"/>
       <use xlink:href="#STHeiti-65f6" transform="translate(199.999969 0)"/>
       <use xlink:href="#STHeiti-4ee3" transform="translate(299.999954 0)"/>
       <use xlink:href="#STHeiti-20" transform="translate(399.999939 0)"/>
       <use xlink:href="#STHeiti-50a8" transform="translate(424.999924 0)"/>
       <use xlink:href="#STHeiti-80fd" transform="translate(524.999908 0)"/>
       <use xlink:href="#STHeiti-7cfb" transform="translate(624.999893 0)"/>
       <use xlink:href="#STHeiti-7edf" transform="translate(724.999878 0)"/>
       <use xlink:href="#STHeiti-ff08" transform="translate(824.999863 0)"/>
       <use xlink:href="#STHeiti-542b" transform="translate(924.999847 0)"/>
       <use xlink:href="#STHeiti-96c6" transform="translate(1024.999832 0)"/>
       <use xlink:href="#STHeiti-6210" transform="translate(1124.999817 0)"/>
       <use xlink:href="#STHeiti-ff09" transform="translate(1224.999802 0)"/>
      </g>
     </g>
    </g>
    <g id="xtick_2">
     <g id="line2d_3">
      <path d="M 415.633319 263.675464 
L 415.633319 7.2 
" clip-path="url(#p06ae3f75ea)" style="fill: none; stroke: #b0b0b0; stroke-opacity: 0.3; stroke-width: 0.8; stroke-linecap: square"/>
     </g>
     <g id="line2d_4">
      <g>
       <use xlink:href="#m1784631b4f" x="415.633319" y="263.675464" style="stroke: #000000; stroke-width: 0.8"/>
      </g>
     </g>
     <g id="text_2">
      <!-- 阳光电源 储能系统 Q4 2025 -->
      <g transform="translate(307.651633 339.524735) rotate(-30) scale(0.1 -0.1)">
       <defs>
        <path id="STHeiti-9633" d="M 2758 4902 
Q 2496 3891 2074 2816 
Q 2381 2374 2544 2006 
Q 2707 1638 2707 1427 
Q 2707 979 2425 742 
Q 2144 506 1542 442 
Q 1510 832 1286 1133 
Q 1517 1082 1683 1082 
Q 2157 1082 2157 1542 
Q 2157 2003 1536 2739 
Q 1907 3469 2099 4371 
L 1171 4371 
L 1171 826 
Q 1171 -70 1222 -659 
L 602 -659 
Q 672 -90 672 826 
L 672 3955 
Q 672 4480 621 4896 
Q 1005 4864 1670 4864 
Q 2336 4864 2758 4902 
z
M 3552 237 
L 3552 -346 
L 2995 -346 
Q 3046 192 3046 794 
L 3046 4077 
Q 3046 4538 3008 4902 
Q 3302 4858 4355 4858 
Q 5408 4858 5798 4902 
Q 5747 4621 5747 4077 
L 5747 666 
Q 5747 141 5798 -320 
L 5222 -320 
L 5222 237 
L 3552 237 
z
M 5222 2842 
L 5222 4365 
L 3552 4365 
L 3552 2842 
L 5222 2842 
z
M 3552 2349 
L 3552 717 
L 5222 717 
L 5222 2349 
L 3552 2349 
z
" transform="scale(0.015625)"/>
        <path id="STHeiti-5149" d="M 2944 2899 
L 2944 4454 
Q 2944 4838 2906 5222 
Q 3168 5184 3373 5184 
L 3616 5190 
Q 3699 5190 3699 5158 
Q 3699 5126 3632 5091 
Q 3565 5056 3542 5014 
Q 3520 4973 3520 4877 
L 3520 2899 
L 4506 2899 
Q 5235 2899 5875 2957 
L 5875 2355 
Q 5267 2419 4506 2419 
L 4045 2419 
L 4045 486 
Q 4045 288 4169 233 
Q 4294 179 4659 179 
Q 5024 179 5181 224 
Q 5338 269 5408 429 
Q 5478 589 5523 979 
Q 5754 685 6099 602 
Q 5984 154 5865 -22 
Q 5747 -198 5491 -252 
Q 5235 -307 4659 -307 
Q 4083 -307 3856 -268 
Q 3629 -230 3561 -124 
Q 3494 -19 3494 243 
L 3494 2419 
L 2746 2419 
Q 2739 1504 2595 1001 
Q 2451 499 2054 160 
Q 1658 -179 832 -525 
Q 691 -205 442 19 
Q 1491 301 1865 781 
Q 2240 1261 2234 2419 
L 1958 2419 
Q 1197 2419 589 2355 
L 589 2957 
Q 1229 2899 1958 2899 
L 2944 2899 
z
M 4813 4710 
Q 5184 4448 5382 4397 
Q 5434 4384 5434 4345 
Q 5434 4307 5363 4282 
Q 5222 4237 4538 3168 
Q 4352 3360 4019 3437 
Q 4448 3891 4813 4710 
z
M 2374 3443 
L 1830 3168 
Q 1594 3859 1203 4307 
L 1696 4557 
Q 2016 4070 2374 3443 
z
" transform="scale(0.015625)"/>
        <path id="STHeiti-7535" d="M 3232 4269 
Q 4602 4275 5222 4346 
Q 5178 4083 5178 3622 
L 5178 1843 
Q 5178 1325 5242 851 
L 4640 851 
L 4640 1235 
L 3232 1235 
L 3232 448 
Q 3232 307 3302 243 
Q 3373 179 3613 147 
Q 3853 115 4218 115 
Q 5229 115 5417 224 
Q 5606 333 5638 922 
Q 5811 531 6176 531 
Q 6042 64 5914 -86 
Q 5786 -237 5450 -285 
Q 5114 -333 4378 -333 
Q 3642 -333 3277 -285 
Q 2912 -237 2809 -134 
Q 2707 -32 2707 205 
L 2707 1235 
L 1370 1235 
L 1370 582 
L 781 582 
Q 851 1024 851 1638 
L 851 3622 
Q 851 4045 806 4346 
Q 1440 4275 2707 4269 
Q 2707 4947 2637 5267 
Q 2912 5229 3334 5229 
Q 3437 5229 3437 5174 
Q 3437 5120 3373 5094 
Q 3309 5069 3270 4998 
Q 3232 4928 3232 4870 
L 3232 4269 
z
M 2707 3808 
L 1370 3808 
L 1370 2963 
L 2707 2963 
L 2707 3808 
z
M 4640 2963 
L 4640 3808 
L 3232 3808 
L 3232 2963 
L 4640 2963 
z
M 1370 2534 
L 1370 1670 
L 2707 1670 
L 2707 2534 
L 1370 2534 
z
M 4640 1670 
L 4640 2534 
L 3232 2534 
L 3232 1670 
L 4640 1670 
z
" transform="scale(0.015625)"/>
        <path id="STHeiti-6e90" d="M 1894 4422 
L 1549 3936 
Q 1158 4314 691 4634 
L 1018 5075 
Q 1466 4781 1894 4422 
z
M 5926 4358 
Q 5754 4410 3994 4410 
L 2579 4410 
Q 2611 2272 2448 1385 
Q 2285 499 1677 -384 
Q 1530 -109 1306 -19 
Q 1709 486 1888 1209 
Q 2067 1933 2067 3488 
Q 2067 4045 2048 4890 
Q 2182 4858 3923 4858 
Q 5664 4858 5926 4890 
L 5926 4358 
z
M 3808 3744 
Q 3942 4109 3968 4397 
Q 4333 4243 4550 4192 
Q 4627 4173 4627 4153 
Q 4627 4134 4570 4102 
Q 4461 4038 4314 3744 
Q 5434 3744 5555 3763 
Q 5536 3558 5536 3002 
L 5536 2253 
Q 5536 1824 5562 1478 
Q 5491 1491 4467 1491 
L 4467 -32 
Q 4467 -250 4409 -352 
Q 4352 -454 4160 -512 
Q 3968 -570 3533 -614 
Q 3520 -301 3354 -51 
Q 3526 -70 3673 -70 
Q 3821 -70 3897 -12 
Q 3974 45 3974 269 
L 3974 1491 
Q 3091 1491 3014 1478 
Q 3040 1709 3040 2253 
L 3040 3002 
Q 3040 3533 3021 3763 
Q 3110 3750 3808 3744 
z
M 5050 2822 
L 5050 3354 
L 3520 3354 
L 3520 2822 
L 5050 2822 
z
M 5050 1875 
L 5050 2432 
L 3520 2432 
L 3520 1875 
L 5050 1875 
z
M 1645 2989 
L 1363 2483 
Q 992 2797 378 3117 
L 640 3565 
Q 1261 3238 1645 2989 
z
M 1517 1683 
Q 1440 1491 1229 691 
Q 1018 -109 947 -454 
Q 589 -218 339 -115 
Q 506 179 723 790 
Q 941 1402 1018 1978 
Q 1254 1773 1517 1683 
z
M 3053 1146 
Q 3405 986 3520 957 
Q 3635 928 3635 893 
Q 3635 858 3539 829 
Q 3443 800 3366 707 
Q 3290 614 3072 278 
Q 2854 -58 2733 -224 
Q 2522 -26 2298 64 
Q 2720 474 3053 1146 
z
M 6010 186 
L 5504 -128 
Q 5178 454 4787 864 
L 5222 1139 
Q 5555 698 6010 186 
z
" transform="scale(0.015625)"/>
        <path id="STHeiti-51" d="M 4416 883 
L 5094 19 
L 4531 19 
L 4064 614 
Q 3494 269 2822 269 
Q 1779 269 1072 963 
Q 365 1658 365 2662 
Q 365 3693 1049 4393 
Q 1734 5094 2784 5094 
Q 3443 5094 4003 4774 
Q 4563 4454 4883 3897 
Q 5203 3341 5203 2682 
Q 5203 1626 4416 883 
z
M 4134 1242 
Q 4730 1830 4730 2668 
Q 4730 3507 4154 4076 
Q 3578 4646 2778 4646 
Q 1978 4646 1411 4070 
Q 845 3494 845 2659 
Q 845 1824 1421 1270 
Q 1997 717 2790 717 
Q 3322 717 3776 979 
L 2752 2278 
L 3309 2278 
L 4134 1242 
z
" transform="scale(0.015625)"/>
        <path id="STHeiti-34" d="M 2726 5094 
L 2816 5094 
L 2816 1894 
L 3373 1894 
L 3373 1453 
L 2816 1453 
L 2816 384 
L 2362 384 
L 2362 1453 
L 160 1453 
L 2726 5094 
z
M 2362 1894 
L 2362 3808 
L 1005 1894 
L 2362 1894 
z
" transform="scale(0.015625)"/>
        <path id="STHeiti-32" d="M 742 3539 
L 301 3539 
Q 333 4243 768 4668 
Q 1203 5094 1820 5094 
Q 2438 5094 2844 4694 
Q 3251 4294 3251 3718 
Q 3251 3290 3024 2925 
Q 2797 2560 2336 2061 
L 1190 826 
L 3315 826 
L 3315 384 
L 192 384 
L 1946 2278 
Q 2406 2778 2604 3066 
Q 2803 3354 2803 3725 
Q 2803 4096 2512 4377 
Q 2221 4659 1789 4659 
Q 1357 4659 1072 4368 
Q 787 4077 742 3539 
z
" transform="scale(0.015625)"/>
        <path id="STHeiti-30" d="M 1747 269 
Q 1005 269 605 880 
Q 205 1491 205 2681 
Q 205 3872 605 4483 
Q 1005 5094 1741 5094 
Q 2477 5094 2909 4470 
Q 3341 3846 3341 2681 
Q 3341 1517 2905 893 
Q 2470 269 1747 269 
z
M 1760 4659 
Q 1229 4659 934 4147 
Q 640 3635 640 2669 
Q 640 685 1760 685 
Q 2304 685 2608 1206 
Q 2912 1728 2912 2681 
Q 2912 3635 2598 4147 
Q 2285 4659 1760 4659 
z
" transform="scale(0.015625)"/>
        <path id="STHeiti-35" d="M 3149 4979 
L 3149 4544 
L 1510 4544 
L 1280 3290 
Q 1587 3379 1856 3379 
Q 2458 3379 2861 2953 
Q 3264 2528 3264 1862 
Q 3264 1197 2825 733 
Q 2387 269 1664 269 
Q 1114 269 726 598 
Q 339 928 262 1498 
L 730 1498 
Q 813 1114 1075 909 
Q 1338 704 1683 704 
Q 2138 704 2467 1043 
Q 2797 1382 2797 1888 
Q 2797 2349 2509 2646 
Q 2221 2944 1757 2944 
Q 1293 2944 730 2701 
L 1158 4979 
L 3149 4979 
z
" transform="scale(0.015625)"/>
       </defs>
       <use xlink:href="#STHeiti-9633"/>
       <use xlink:href="#STHeiti-5149" transform="translate(99.999985 0)"/>
       <use xlink:href="#STHeiti-7535" transform="translate(199.999969 0)"/>
       <use xlink:href="#STHeiti-6e90" transform="translate(299.999954 0)"/>
       <use xlink:href="#STHeiti-20" transform="translate(399.999939 0)"/>
       <use xlink:href="#STHeiti-50a8" transform="translate(424.999924 0)"/>
       <use xlink:href="#STHeiti-80fd" transform="translate(524.999908 0)"/>
       <use xlink:href="#STHeiti-7cfb" transform="translate(624.999893 0)"/>
       <use xlink:href="#STHeiti-7edf" transform="translate(724.999878 0)"/>
       <use xlink:href="#STHeiti-20" transform="translate(824.999863 0)"/>
       <use xlink:href="#STHeiti-51" transform="translate(849.999847 0)"/>
       <use xlink:href="#STHeiti-34" transform="translate(937.099838 0)"/>
       <use xlink:href="#STHeiti-20" transform="translate(992.499832 0)"/>
       <use xlink:href="#STHeiti-32" transform="translate(1017.499817 0)"/>
       <use xlink:href="#STHeiti-30" transform="translate(1072.899811 0)"/>
       <use xlink:href="#STHeiti-32" transform="translate(1128.299805 0)"/>
       <use xlink:href="#STHeiti-35" transform="translate(1183.699799 0)"/>
      </g>
     </g>
    </g>
    <g id="xtick_3">
     <g id="line2d_5">
      <path d="M 704.568271 263.675464 
L 704.568271 7.2 
" clip-path="url(#p06ae3f75ea)" style="fill: none; stroke: #b0b0b0; stroke-opacity: 0.3; stroke-width: 0.8; stroke-linecap: square"/>
     </g>
     <g id="line2d_6">
      <g>
       <use xlink:href="#m1784631b4f" x="704.568271" y="263.675464" style="stroke: #000000; stroke-width: 0.8"/>
      </g>
     </g>
     <g id="text_3">
      <!-- 派能科技 户储电芯（估计） -->
      <g transform="translate(597.809847 338.91456) rotate(-30) scale(0.1 -0.1)">
       <defs>
        <path id="STHeiti-6d3e" d="M 2694 4173 
L 2694 2957 
Q 2694 1722 2492 941 
Q 2291 160 1837 -435 
Q 1645 -307 1344 -218 
Q 1677 90 1875 528 
Q 2074 966 2160 1612 
Q 2246 2259 2246 3244 
Q 2246 4230 2214 4640 
Q 2381 4627 2573 4627 
Q 3258 4627 4051 4758 
Q 4845 4890 5350 5082 
Q 5498 4774 5722 4538 
Q 5766 4486 5766 4451 
Q 5766 4416 5667 4435 
Q 5568 4454 5363 4454 
Q 5158 4454 4826 4397 
Q 3795 4237 2694 4173 
z
M 749 4659 
L 1082 5030 
Q 1491 4742 1939 4365 
L 1594 3917 
Q 1229 4320 749 4659 
z
M 4192 3200 
Q 3878 3174 3661 3162 
L 3661 211 
Q 4026 397 4250 563 
Q 4269 288 4339 115 
L 3571 -346 
Q 3302 -512 3219 -582 
Q 3072 -358 2906 -160 
Q 3187 70 3187 333 
L 3187 2605 
Q 3187 3302 3149 3539 
Q 4474 3584 5318 3859 
Q 5389 3725 5497 3565 
Q 5606 3405 5654 3360 
Q 5702 3315 5702 3289 
Q 5702 3264 5657 3264 
Q 5613 3264 5533 3277 
Q 5453 3290 5264 3290 
Q 5075 3290 4614 3245 
Q 4602 2534 4672 2067 
Q 5139 2317 5587 2701 
Q 5754 2451 5926 2278 
Q 5958 2246 5958 2220 
Q 5958 2195 5868 2195 
Q 5779 2195 5491 2060 
Q 5203 1926 4768 1677 
Q 5133 486 5990 6 
Q 5619 -198 5389 -461 
Q 5094 -186 4793 364 
Q 4493 915 4358 1513 
Q 4224 2112 4192 3200 
z
M 506 3130 
L 736 3552 
Q 1280 3226 1741 2906 
L 1434 2426 
Q 1069 2778 506 3130 
z
M 1107 2080 
Q 1318 1901 1568 1824 
L 1190 454 
Q 1050 -51 973 -429 
Q 678 -243 384 -77 
Q 858 794 1107 2080 
z
" transform="scale(0.015625)"/>
        <path id="STHeiti-79d1" d="M 5318 1293 
Q 5318 6 5370 -595 
L 4755 -595 
Q 4813 0 4813 1222 
Q 3411 1024 3040 928 
L 2970 1459 
Q 3398 1472 4813 1677 
L 4813 4000 
Q 4813 4710 4723 5082 
Q 4992 5030 5370 5030 
Q 5510 5030 5510 4988 
Q 5510 4947 5414 4896 
Q 5318 4845 5318 4710 
L 5318 1754 
Q 5696 1811 6086 1920 
L 6157 1370 
Q 5734 1350 5318 1293 
z
M 1606 2099 
Q 1261 1286 666 506 
Q 544 742 333 973 
Q 1062 1664 1562 2880 
Q 870 2874 538 2829 
L 538 3341 
Q 966 3290 1606 3290 
L 1606 4250 
Q 1133 4154 877 4115 
Q 832 4371 691 4576 
Q 1203 4608 1830 4758 
Q 2458 4909 2790 5062 
Q 2829 4934 2934 4764 
Q 3040 4595 3101 4544 
Q 3162 4493 3162 4457 
Q 3162 4422 3085 4438 
Q 3008 4454 2899 4454 
Q 2573 4454 2086 4352 
L 2086 3290 
Q 2675 3296 2970 3341 
L 2970 2829 
Q 2656 2874 2086 2874 
L 2086 602 
Q 2086 83 2138 -499 
L 1555 -499 
Q 1606 122 1606 602 
L 1606 2099 
z
M 3840 4435 
Q 4186 4019 4454 3603 
L 3981 3315 
Q 3712 3795 3418 4173 
L 3840 4435 
z
M 4314 2195 
L 3872 1869 
Q 3603 2381 3334 2746 
L 3757 2976 
Q 4096 2560 4314 2195 
z
M 3002 1792 
L 2586 1472 
Q 2387 1888 2138 2202 
L 2432 2451 
Q 2746 2118 3002 1792 
z
" transform="scale(0.015625)"/>
        <path id="STHeiti-6280" d="M 2950 2394 
L 2573 2362 
L 2573 2912 
Q 2899 2880 3923 2861 
L 3923 3814 
Q 2957 3802 2515 3763 
L 2515 4333 
Q 3091 4294 3923 4282 
Q 3910 4877 3859 5178 
Q 4173 5126 4506 5126 
Q 4614 5126 4614 5094 
Q 4614 5062 4537 5017 
Q 4461 4973 4461 4794 
L 4461 4282 
Q 5350 4282 5926 4333 
L 5926 3763 
Q 5440 3814 4461 3814 
L 4461 2861 
Q 4973 2867 5600 2931 
Q 5229 1562 4448 717 
Q 5139 250 6150 96 
Q 5933 -218 5818 -582 
Q 4922 -346 4077 352 
Q 3443 -160 2611 -627 
Q 2451 -320 2118 -173 
Q 3098 109 3706 717 
Q 3232 1325 2950 2394 
z
M 3482 2406 
Q 3642 1690 4083 1069 
Q 4768 1869 4870 2406 
L 3482 2406 
z
M 1235 2138 
L 1235 3379 
Q 666 3373 352 3315 
L 352 3898 
Q 640 3846 1235 3846 
Q 1235 4883 1171 5171 
Q 1440 5133 1645 5133 
L 1830 5139 
Q 1958 5139 1958 5088 
Q 1958 5037 1856 4957 
Q 1754 4877 1754 4723 
L 1754 3853 
Q 2093 3859 2310 3898 
L 2310 3322 
Q 2042 3366 1754 3373 
L 1754 2291 
Q 2182 2432 2413 2515 
Q 2406 2432 2406 2301 
Q 2406 2170 2464 2003 
Q 2099 1914 1754 1805 
L 1754 45 
Q 1754 -160 1690 -259 
Q 1626 -358 1418 -422 
Q 1210 -486 710 -576 
Q 621 -224 397 96 
Q 614 70 774 70 
Q 1235 70 1235 275 
L 1235 1619 
Q 819 1453 435 1261 
Q 384 1658 301 1926 
Q 749 2016 1235 2138 
z
" transform="scale(0.015625)"/>
        <path id="STHeiti-6237" d="M 3936 4518 
L 3296 4307 
Q 3187 4691 2970 5075 
L 3578 5274 
Q 3834 4717 3936 4518 
z
M 5082 1792 
L 1984 1792 
Q 1901 320 1082 -666 
Q 832 -474 435 -352 
Q 973 141 1206 749 
Q 1440 1357 1440 2368 
L 1440 3686 
Q 1440 4032 1402 4186 
Q 1798 4160 3568 4160 
Q 5338 4160 5696 4186 
Q 5645 4013 5645 3686 
L 5645 2131 
Q 5645 1638 5690 1299 
L 5082 1299 
L 5082 1792 
z
M 1990 2272 
L 5082 2272 
L 5082 3680 
L 1990 3680 
L 1990 2272 
z
" transform="scale(0.015625)"/>
        <path id="STHeiti-82af" d="M 2464 4422 
L 3827 4422 
Q 3827 4973 3776 5274 
Q 3994 5248 4378 5248 
Q 4429 5248 4429 5216 
Q 4429 5184 4374 5152 
Q 4320 5120 4320 5024 
L 4320 4422 
Q 5318 4435 5901 4480 
L 5901 3930 
Q 5318 3974 4320 3987 
L 4320 3104 
L 3827 3104 
L 3827 3987 
L 2464 3987 
L 2464 3046 
L 1971 3046 
L 1971 3987 
Q 973 3974 403 3930 
L 403 4474 
Q 928 4422 1971 4422 
Q 1971 4902 1920 5184 
Q 2138 5158 2522 5158 
Q 2573 5158 2573 5126 
Q 2573 5094 2518 5062 
Q 2464 5030 2464 4934 
L 2464 4422 
z
M 4077 1568 
L 3488 1338 
Q 3296 2182 2938 2771 
L 3462 2950 
Q 3802 2240 4077 1568 
z
M 6118 845 
L 5530 550 
Q 5178 1446 4640 2157 
L 5088 2413 
Q 5645 1645 6118 845 
z
M 4928 672 
Q 4806 237 4729 67 
Q 4653 -102 4525 -169 
Q 4397 -237 4019 -272 
Q 3642 -307 3187 -307 
Q 2733 -307 2502 -272 
Q 2272 -237 2182 -176 
Q 2093 -115 2064 19 
Q 2035 154 2035 480 
L 2035 1581 
Q 2035 2074 1978 2374 
Q 2195 2336 2406 2336 
L 2605 2342 
Q 2669 2342 2669 2310 
Q 2669 2278 2601 2220 
Q 2534 2163 2534 2035 
L 2534 570 
Q 2534 346 2566 301 
Q 2598 256 2809 221 
Q 3021 186 3248 189 
Q 3475 192 3734 221 
Q 3994 250 4070 285 
Q 4147 320 4198 409 
Q 4250 499 4291 662 
Q 4333 826 4371 1114 
Q 4512 800 4928 672 
z
M 1005 2323 
Q 1267 2234 1433 2234 
Q 1600 2234 1600 2202 
Q 1600 2170 1555 2125 
Q 1510 2080 1433 1561 
Q 1357 1043 1069 179 
Q 806 275 435 314 
Q 973 1107 1005 2323 
z
" transform="scale(0.015625)"/>
        <path id="STHeiti-4f30" d="M 1120 2784 
Q 864 2419 717 2227 
Q 608 2451 320 2656 
Q 838 3226 1145 3856 
Q 1453 4486 1638 5261 
Q 1933 5037 2221 4992 
Q 2291 4979 2291 4950 
Q 2291 4922 2221 4845 
Q 2067 4678 1632 3712 
L 1632 -557 
L 1050 -557 
Q 1120 115 1120 736 
L 1120 2784 
z
M 4928 0 
L 3008 0 
L 3008 -544 
L 2438 -544 
Q 2464 -250 2464 122 
L 2464 1984 
Q 2464 2221 2438 2342 
Q 2733 2323 3680 2323 
L 3680 3437 
Q 2701 3430 2061 3373 
L 2061 3949 
Q 2656 3898 3680 3891 
L 3680 4461 
Q 3680 4947 3642 5203 
Q 3846 5165 4307 5165 
Q 4378 5165 4378 5129 
Q 4378 5094 4333 5056 
Q 4218 4960 4218 4698 
L 4218 3891 
Q 5299 3891 5907 3949 
L 5907 3373 
Q 5325 3437 4218 3437 
L 4218 2323 
Q 5254 2323 5504 2342 
Q 5472 2221 5472 1984 
L 5472 109 
Q 5472 -262 5491 -454 
L 4928 -454 
L 4928 0 
z
M 3008 454 
L 4928 454 
L 4928 1869 
L 3008 1869 
L 3008 454 
z
" transform="scale(0.015625)"/>
        <path id="STHeiti-8ba1" d="M 4646 3309 
Q 5555 3315 6138 3366 
L 6138 2726 
Q 5389 2778 4646 2778 
L 4646 506 
Q 4646 -32 4704 -646 
L 3994 -646 
Q 4051 -58 4051 506 
L 4051 2784 
Q 2982 2778 2336 2726 
L 2336 3366 
Q 2995 3315 4051 3309 
L 4051 4288 
Q 4051 4973 3981 5267 
Q 4141 5235 4288 5222 
Q 4435 5210 4538 5210 
L 4717 5216 
Q 4826 5216 4826 5174 
Q 4826 5133 4755 5091 
Q 4685 5050 4665 4957 
Q 4646 4864 4646 4608 
L 4646 3309 
z
M 2099 4147 
L 1523 3814 
Q 1299 4346 890 4896 
L 1427 5197 
Q 1754 4614 2099 4147 
z
M 2688 909 
L 1946 173 
Q 1670 -90 1370 -538 
Q 1146 -218 922 -13 
Q 1037 122 1088 269 
Q 1139 416 1139 659 
L 1139 2739 
Q 608 2739 262 2694 
L 262 3315 
Q 563 3270 979 3270 
Q 1395 3270 1766 3315 
Q 1683 2950 1683 2483 
L 1683 614 
Q 2163 1107 2432 1523 
Q 2522 1165 2688 909 
z
" transform="scale(0.015625)"/>
       </defs>
       <use xlink:href="#STHeiti-6d3e"/>
       <use xlink:href="#STHeiti-80fd" transform="translate(99.999985 0)"/>
       <use xlink:href="#STHeiti-79d1" transform="translate(199.999969 0)"/>
       <use xlink:href="#STHeiti-6280" transform="translate(299.999954 0)"/>
       <use xlink:href="#STHeiti-20" transform="translate(399.999939 0)"/>
       <use xlink:href="#STHeiti-6237" transform="translate(424.999924 0)"/>
       <use xlink:href="#STHeiti-50a8" transform="translate(524.999908 0)"/>
       <use xlink:href="#STHeiti-7535" transform="translate(624.999893 0)"/>
       <use xlink:href="#STHeiti-82af" transform="translate(724.999878 0)"/>
       <use xlink:href="#STHeiti-ff08" transform="translate(824.999863 0)"/>
       <use xlink:href="#STHeiti-4f30" transform="translate(924.999847 0)"/>
       <use xlink:href="#STHeiti-8ba1" transform="translate(1024.999832 0)"/>
       <use xlink:href="#STHeiti-ff09" transform="translate(1124.999817 0)"/>
      </g>
     </g>
    </g>
   </g>
   <g id="matplotlib.axis_2">
    <g id="ytick_1">
     <g id="line2d_7">
      <path d="M 112.251618 252.017488 
L 704.568271 252.017488 
" clip-path="url(#p06ae3f75ea)" style="fill: none; stroke: #b0b0b0; stroke-opacity: 0.3; stroke-width: 0.8; stroke-linecap: square"/>
     </g>
     <g id="line2d_8">
      <defs>
       <path id="mc3b5f54913" d="M 0 0 
L -3.5 0 
" style="stroke: #000000; stroke-width: 0.8"/>
      </defs>
      <g>
       <use xlink:href="#mc3b5f54913" x="112.251618" y="252.017488" style="stroke: #000000; stroke-width: 0.8"/>
      </g>
     </g>
     <g id="text_4">
      <!-- 24.0 -->
      <g transform="translate(85.859431 255.997176) scale(0.1 -0.1)">
       <defs>
        <path id="STHeiti-2e" d="M 582 685 
Q 582 845 697 957 
Q 813 1069 969 1069 
Q 1126 1069 1238 957 
Q 1350 845 1350 681 
Q 1350 518 1238 406 
Q 1126 294 969 294 
Q 813 294 697 409 
Q 582 525 582 685 
z
" transform="scale(0.015625)"/>
       </defs>
       <use xlink:href="#STHeiti-32"/>
       <use xlink:href="#STHeiti-34" transform="translate(55.399994 0)"/>
       <use xlink:href="#STHeiti-2e" transform="translate(110.799988 0)"/>
       <use xlink:href="#STHeiti-30" transform="translate(138.499985 0)"/>
      </g>
     </g>
    </g>
    <g id="ytick_2">
     <g id="line2d_9">
      <path d="M 112.251618 208.999128 
L 704.568271 208.999128 
" clip-path="url(#p06ae3f75ea)" style="fill: none; stroke: #b0b0b0; stroke-opacity: 0.3; stroke-width: 0.8; stroke-linecap: square"/>
     </g>
     <g id="line2d_10">
      <g>
       <use xlink:href="#mc3b5f54913" x="112.251618" y="208.999128" style="stroke: #000000; stroke-width: 0.8"/>
      </g>
     </g>
     <g id="text_5">
      <!-- 24.5 -->
      <g transform="translate(85.859431 212.978816) scale(0.1 -0.1)">
       <use xlink:href="#STHeiti-32"/>
       <use xlink:href="#STHeiti-34" transform="translate(55.399994 0)"/>
       <use xlink:href="#STHeiti-2e" transform="translate(110.799988 0)"/>
       <use xlink:href="#STHeiti-35" transform="translate(138.499985 0)"/>
      </g>
     </g>
    </g>
    <g id="ytick_3">
     <g id="line2d_11">
      <path d="M 112.251618 165.980768 
L 704.568271 165.980768 
" clip-path="url(#p06ae3f75ea)" style="fill: none; stroke: #b0b0b0; stroke-opacity: 0.3; stroke-width: 0.8; stroke-linecap: square"/>
     </g>
     <g id="line2d_12">
      <g>
       <use xlink:href="#mc3b5f54913" x="112.251618" y="165.980768" style="stroke: #000000; stroke-width: 0.8"/>
      </g>
     </g>
     <g id="text_6">
      <!-- 25.0 -->
      <g transform="translate(85.859431 169.960455) scale(0.1 -0.1)">
       <use xlink:href="#STHeiti-32"/>
       <use xlink:href="#STHeiti-35" transform="translate(55.399994 0)"/>
       <use xlink:href="#STHeiti-2e" transform="translate(110.799988 0)"/>
       <use xlink:href="#STHeiti-30" transform="translate(138.499985 0)"/>
      </g>
     </g>
    </g>
    <g id="ytick_4">
     <g id="line2d_13">
      <path d="M 112.251618 122.962407 
L 704.568271 122.962407 
" clip-path="url(#p06ae3f75ea)" style="fill: none; stroke: #b0b0b0; stroke-opacity: 0.3; stroke-width: 0.8; stroke-linecap: square"/>
     </g>
     <g id="line2d_14">
      <g>
       <use xlink:href="#mc3b5f54913" x="112.251618" y="122.962407" style="stroke: #000000; stroke-width: 0.8"/>
      </g>
     </g>
     <g id="text_7">
      <!-- 25.5 -->
      <g transform="translate(85.859431 126.942095) scale(0.1 -0.1)">
       <use xlink:href="#STHeiti-32"/>
       <use xlink:href="#STHeiti-35" transform="translate(55.399994 0)"/>
       <use xlink:href="#STHeiti-2e" transform="translate(110.799988 0)"/>
       <use xlink:href="#STHeiti-35" transform="translate(138.499985 0)"/>
      </g>
     </g>
    </g>
    <g id="ytick_5">
     <g id="line2d_15">
      <path d="M 112.251618 79.944047 
L 704.568271 79.944047 
" clip-path="url(#p06ae3f75ea)" style="fill: none; stroke: #b0b0b0; stroke-opacity: 0.3; stroke-width: 0.8; stroke-linecap: square"/>
     </g>
     <g id="line2d_16">
      <g>
       <use xlink:href="#mc3b5f54913" x="112.251618" y="79.944047" style="stroke: #000000; stroke-width: 0.8"/>
      </g>
     </g>
     <g id="text_8">
      <!-- 26.0 -->
      <g transform="translate(85.859431 83.923735) scale(0.1 -0.1)">
       <defs>
        <path id="STHeiti-36" d="M 2349 5094 
L 2726 4851 
L 1485 2970 
Q 1747 3059 1984 3059 
Q 2496 3059 2880 2652 
Q 3264 2246 3264 1660 
Q 3264 1075 2845 672 
Q 2426 269 1827 269 
Q 1229 269 829 678 
Q 429 1088 429 1677 
Q 429 1958 537 2256 
Q 646 2554 954 3014 
L 2349 5094 
z
M 2810 1683 
Q 2810 2086 2528 2368 
Q 2246 2650 1843 2650 
Q 1440 2650 1158 2368 
Q 877 2086 877 1683 
Q 877 1280 1161 998 
Q 1446 717 1843 717 
Q 2240 717 2525 998 
Q 2810 1280 2810 1683 
z
" transform="scale(0.015625)"/>
       </defs>
       <use xlink:href="#STHeiti-32"/>
       <use xlink:href="#STHeiti-36" transform="translate(55.399994 0)"/>
       <use xlink:href="#STHeiti-2e" transform="translate(110.799988 0)"/>
       <use xlink:href="#STHeiti-30" transform="translate(138.499985 0)"/>
      </g>
     </g>
    </g>
    <g id="ytick_6">
     <g id="line2d_17">
      <path d="M 112.251618 36.925687 
L 704.568271 36.925687 
" clip-path="url(#p06ae3f75ea)" style="fill: none; stroke: #b0b0b0; stroke-opacity: 0.3; stroke-width: 0.8; stroke-linecap: square"/>
     </g>
     <g id="line2d_18">
      <g>
       <use xlink:href="#mc3b5f54913" x="112.251618" y="36.925687" style="stroke: #000000; stroke-width: 0.8"/>
      </g>
     </g>
     <g id="text_9">
      <!-- 26.5 -->
      <g transform="translate(85.859431 40.905374) scale(0.1 -0.1)">
       <use xlink:href="#STHeiti-32"/>
       <use xlink:href="#STHeiti-36" transform="translate(55.399994 0)"/>
       <use xlink:href="#STHeiti-2e" transform="translate(110.799988 0)"/>
       <use xlink:href="#STHeiti-35" transform="translate(138.499985 0)"/>
      </g>
     </g>
    </g>
   </g>
   <g id="line2d_19">
    <path d="M 126.698366 18.857976 
L 415.633319 252.017488 
" clip-path="url(#p06ae3f75ea)" style="fill: none; stroke: #1a365d; stroke-width: 2; stroke-linecap: square"/>
    <defs>
     <path id="m65e48a1d89" d="M 0 3 
C 0.795609 3 1.55874 2.683901 2.12132 2.12132 
C 2.683901 1.55874 3 0.795609 3 0 
C 3 -0.795609 2.683901 -1.55874 2.12132 -2.12132 
C 1.55874 -2.683901 0.795609 -3 0 -3 
C -0.795609 -3 -1.55874 -2.683901 -2.12132 -2.12132 
C -2.683901 -1.55874 -3 -0.795609 -3 0 
C -3 0.795609 -2.683901 1.55874 -2.12132 2.12132 
C -1.55874 2.683901 -0.795609 3 0 3 
z
" style="stroke: #1a365d"/>
    </defs>
    <g clip-path="url(#p06ae3f75ea)">
     <use xlink:href="#m65e48a1d89" x="126.698366" y="18.857976" style="fill: #1a365d; stroke: #1a365d"/>
     <use xlink:href="#m65e48a1d89" x="415.633319" y="252.017488" style="fill: #1a365d; stroke: #1a365d"/>
    </g>
   </g>
   <g id="patch_3">
    <path d="M 112.251618 263.675464 
L 112.251618 7.2 
" style="fill: none; stroke: #000000; stroke-width: 0.8; stroke-linejoin: miter; stroke-linecap: square"/>
   </g>
   <g id="patch_4">
    <path d="M 704.568271 263.675464 
L 704.568271 7.2 
" style="fill: none; stroke: #000000; stroke-width: 0.8; stroke-linejoin: miter; stroke-linecap: square"/>
   </g>
   <g id="patch_5">
    <path d="M 112.251618 263.675464 
L 704.568271 263.675464 
" style="fill: none; stroke: #000000; stroke-width: 0.8; stroke-linejoin: miter; stroke-linecap: square"/>
   </g>
   <g id="patch_6">
    <path d="M 112.251618 7.2 
L 704.568271 7.2 
" style="fill: none; stroke: #000000; stroke-width: 0.8; stroke-linejoin: miter; stroke-linecap: square"/>
   </g>
   <g id="legend_1">
    <g id="patch_7">
     <path d="M 646.373428 27.27 
L 698.268271 27.27 
Q 700.068271 27.27 700.068271 25.47 
L 700.068271 13.5 
Q 700.068271 11.7 698.268271 11.7 
L 646.373428 11.7 
Q 644.573428 11.7 644.573428 13.5 
L 644.573428 25.47 
Q 644.573428 27.27 646.373428 27.27 
z
" style="fill: #ffffff; opacity: 0.8; stroke: #cccccc; stroke-linejoin: miter"/>
    </g>
    <g id="line2d_20">
     <path d="M 648.173428 19.313437 
L 657.173428 19.313437 
L 666.173428 19.313437 
" style="fill: none; stroke: #1a365d; stroke-width: 2; stroke-linecap: square"/>
     <g>
      <use xlink:href="#m65e48a1d89" x="657.173428" y="19.313437" style="fill: #1a365d; stroke: #1a365d"/>
     </g>
    </g>
    <g id="text_10">
     <!-- GM% -->
     <g transform="translate(673.373428 22.463437) scale(0.09 -0.09)">
      <defs>
       <path id="STHeiti-47" d="M 5318 4211 
L 4966 3872 
Q 4582 4243 4124 4441 
Q 3667 4640 3180 4640 
Q 2694 4640 2208 4377 
Q 1722 4115 1450 3670 
Q 1178 3226 1178 2707 
Q 1178 1901 1782 1302 
Q 2387 704 3296 704 
Q 3987 704 4483 1091 
Q 4979 1478 5075 2144 
L 3610 2144 
L 3610 2586 
L 5594 2586 
Q 5574 1491 4940 880 
Q 4307 269 3283 269 
Q 2106 269 1398 992 
Q 691 1715 691 2691 
Q 691 3667 1395 4380 
Q 2099 5094 3244 5094 
Q 4390 5094 5318 4211 
z
" transform="scale(0.015625)"/>
       <path id="STHeiti-4d" d="M 352 384 
L 1005 4979 
L 1075 4979 
L 2944 1210 
L 4800 4979 
L 4870 4979 
L 5530 384 
L 5075 384 
L 4627 3674 
L 3002 384 
L 2886 384 
L 1242 3699 
L 794 384 
L 352 384 
z
" transform="scale(0.015625)"/>
       <path id="STHeiti-25" d="M 4314 5184 
L 966 64 
L 550 64 
L 3603 4730 
Q 3232 4640 2845 4614 
Q 2458 4589 2278 4595 
L 2112 4602 
Q 2304 4333 2304 4032 
Q 2304 3571 1993 3248 
Q 1683 2925 1225 2925 
Q 768 2925 454 3238 
Q 141 3552 141 4006 
Q 141 4461 464 4774 
Q 787 5088 1210 5088 
Q 1382 5088 1702 5021 
Q 2022 4954 2490 4954 
Q 3232 4954 3949 5184 
L 4314 5184 
z
M 1914 4013 
Q 1914 4301 1712 4499 
Q 1510 4698 1225 4698 
Q 941 4698 739 4496 
Q 538 4294 538 4012 
Q 538 3731 739 3529 
Q 941 3328 1225 3328 
Q 1510 3328 1712 3526 
Q 1914 3725 1914 4013 
z
M 2656 1331 
Q 2656 1773 2973 2093 
Q 3290 2413 3734 2413 
Q 4179 2413 4496 2096 
Q 4813 1779 4813 1331 
Q 4813 883 4496 566 
Q 4179 250 3734 250 
Q 3290 250 2973 566 
Q 2656 883 2656 1331 
z
M 4422 1331 
Q 4422 1613 4220 1814 
Q 4019 2016 3734 2016 
Q 3450 2016 3251 1814 
Q 3053 1613 3053 1331 
Q 3053 1050 3251 848 
Q 3450 646 3734 646 
Q 4019 646 4220 844 
Q 4422 1043 4422 1331 
z
" transform="scale(0.015625)"/>
      </defs>
      <use xlink:href="#STHeiti-47"/>
      <use xlink:href="#STHeiti-4d" transform="translate(87.199982 0)"/>
      <use xlink:href="#STHeiti-25" transform="translate(179.099976 0)"/>
     </g>
    </g>
   </g>
  </g>
 </g>
 <defs>
  <clipPath id="p06ae3f75ea">
   <rect x="112.251618" y="7.2" width="592.316653" height="256.475464"/>
  </clipPath>
 </defs>
</svg>
