<?xml version="1.0" encoding="utf-8" standalone="no"?>
<!DOCTYPE svg PUBLIC "-//W3C//DTD SVG 1.1//EN"
  "http://www.w3.org/Graphics/SVG/1.1/DTD/svg11.dtd">
<svg xmlns:xlink="http://www.w3.org/1999/xlink" width="708.223077pt" height="351.331914pt" viewBox="0 0 708.223077 351.331914" xmlns="http://www.w3.org/2000/svg" version="1.1">
 <metadata>
  <rdf:RDF xmlns:dc="http://purl.org/dc/elements/1.1/" xmlns:cc="http://creativecommons.org/ns#" xmlns:rdf="http://www.w3.org/1999/02/22-rdf-syntax-ns#">
   <cc:Work>
    <dc:type rdf:resource="http://purl.org/dc/dcmitype/StillImage"/>
    <dc:date>2026-06-04T17:16:43.516648</dc:date>
    <dc:format>image/svg+xml</dc:format>
    <dc:creator>
     <cc:Agent>
      <dc:title>Matplotlib v3.10.9, https://matplotlib.org/</dc:title>
     </cc:Agent>
    </dc:creator>
   </cc:Work>
  </rdf:RDF>
 </metadata>
 <defs>
  <style type="text/css">*{stroke-linejoin: round; stroke-linecap: butt}</style>
 </defs>
 <g id="figure_1">
  <g id="patch_1">
   <path d="M 0 351.331914 
L 708.223077 351.331914 
L 708.223077 0 
L 0 0 
z
" style="fill: #ffffff"/>
  </g>
  <g id="axes_1">
   <g id="patch_2">
    <path d="M 28.051563 269.931784 
L 701.023077 269.931784 
L 701.023077 18.159375 
L 28.051563 18.159375 
z
" style="fill: #fafafa"/>
   </g>
   <g id="matplotlib.axis_1">
    <g id="xtick_1">
     <g id="line2d_1">
      <path d="M 58.641177 269.931784 
L 58.641177 18.159375 
" clip-path="url(#p4bc3942def)" style="fill: none; stroke: #b0b0b0; stroke-opacity: 0.3; stroke-width: 0.8; stroke-linecap: square"/>
     </g>
     <g id="line2d_2">
      <defs>
       <path id="m76175df935" d="M 0 0 
L 0 3.5 
" style="stroke: #000000; stroke-width: 0.8"/>
      </defs>
      <g>
       <use xlink:href="#m76175df935" x="58.641177" y="269.931784" style="stroke: #000000; stroke-width: 0.8"/>
      </g>
     </g>
     <g id="text_1">
      <!-- FY2030营收 -->
      <g transform="translate(12.129704 310.291211) rotate(-30) scale(0.1 -0.1)">
       <defs>
        <path id="STHeiti-46" d="M 557 4979 
L 2861 4979 
L 2861 4525 
L 1018 4525 
L 1018 3091 
L 2861 3091 
L 2861 2637 
L 1018 2637 
L 1018 384 
L 557 384 
L 557 4979 
z
" transform="scale(0.015625)"/>
        <path id="STHeiti-59" d="M 198 4979 
L 730 4979 
L 1901 3085 
L 3059 4979 
L 3590 4979 
L 2131 2579 
L 2131 384 
L 1683 384 
L 1683 2579 
L 198 4979 
z
" transform="scale(0.015625)"/>
        <path id="STHeiti-32" d="M 742 3539 
L 301 3539 
Q 333 4243 768 4668 
Q 1203 5094 1820 5094 
Q 2438 5094 2844 4694 
Q 3251 4294 3251 3718 
Q 3251 3290 3024 2925 
Q 2797 2560 2336 2061 
L 1190 826 
L 3315 826 
L 3315 384 
L 192 384 
L 1946 2278 
Q 2406 2778 2604 3066 
Q 2803 3354 2803 3725 
Q 2803 4096 2512 4377 
Q 2221 4659 1789 4659 
Q 1357 4659 1072 4368 
Q 787 4077 742 3539 
z
" transform="scale(0.015625)"/>
        <path id="STHeiti-30" d="M 1747 269 
Q 1005 269 605 880 
Q 205 1491 205 2681 
Q 205 3872 605 4483 
Q 1005 5094 1741 5094 
Q 2477 5094 2909 4470 
Q 3341 3846 3341 2681 
Q 3341 1517 2905 893 
Q 2470 269 1747 269 
z
M 1760 4659 
Q 1229 4659 934 4147 
Q 640 3635 640 2669 
Q 640 685 1760 685 
Q 2304 685 2608 1206 
Q 2912 1728 2912 2681 
Q 2912 3635 2598 4147 
Q 2285 4659 1760 4659 
z
" transform="scale(0.015625)"/>
        <path id="STHeiti-33" d="M 845 3917 
L 378 3917 
Q 506 4486 867 4790 
Q 1229 5094 1750 5094 
Q 2272 5094 2659 4748 
Q 3046 4403 3046 3910 
Q 3046 3315 2458 2970 
Q 2861 2803 3081 2473 
Q 3302 2144 3302 1754 
Q 3302 1146 2857 707 
Q 2413 269 1734 269 
Q 1133 269 742 611 
Q 352 954 224 1613 
L 672 1613 
Q 794 1158 1046 937 
Q 1299 717 1760 717 
Q 2221 717 2534 1011 
Q 2848 1306 2848 1741 
Q 2848 2176 2502 2441 
Q 2157 2707 1498 2720 
L 1498 3142 
Q 1971 3142 2268 3360 
Q 2566 3578 2566 3901 
Q 2566 4224 2326 4438 
Q 2086 4653 1747 4653 
Q 1408 4653 1200 4470 
Q 992 4288 845 3917 
z
" transform="scale(0.015625)"/>
        <path id="STHeiti-8425" d="M 4282 3693 
Q 5274 3706 5856 3731 
L 5856 2662 
L 5344 2662 
L 5344 3277 
L 1082 3277 
L 1082 2624 
L 570 2624 
L 570 3731 
Q 1082 3699 2106 3693 
L 2106 4218 
Q 1056 4205 467 4160 
L 467 4666 
Q 1133 4614 2106 4614 
Q 2099 4973 2054 5178 
Q 2387 5133 2650 5133 
Q 2733 5133 2733 5101 
Q 2733 5069 2681 5037 
Q 2630 5005 2617 4979 
Q 2605 4954 2605 4890 
L 2605 4614 
L 3782 4614 
Q 3776 4947 3738 5171 
Q 4019 5133 4326 5133 
Q 4410 5133 4410 5101 
Q 4410 5069 4358 5037 
Q 4307 5005 4294 4979 
Q 4282 4954 4282 4890 
L 4282 4614 
Q 5299 4614 5965 4666 
L 5965 4160 
Q 5344 4218 4282 4218 
L 4282 3693 
z
M 2605 3693 
L 3782 3693 
L 3782 4218 
L 2605 4218 
L 2605 3693 
z
M 4794 1568 
Q 4230 1587 3270 1587 
Q 2310 1587 1587 1562 
Q 1619 1773 1619 2176 
Q 1619 2579 1587 2874 
Q 2086 2848 3190 2848 
Q 4294 2848 4794 2874 
Q 4774 2611 4774 2217 
Q 4774 1824 4794 1568 
z
M 4269 1971 
L 4269 2464 
L 2118 2464 
L 2118 1971 
L 4269 1971 
z
M 4698 -109 
L 1722 -109 
L 1722 -576 
L 1152 -576 
Q 1197 -333 1197 -64 
L 1197 890 
Q 1197 1037 1158 1197 
Q 1350 1184 3235 1184 
Q 5120 1184 5280 1197 
Q 5248 1082 5248 890 
L 5248 0 
Q 5248 -269 5293 -512 
L 4698 -512 
L 4698 -109 
z
M 1722 288 
L 4698 288 
L 4698 794 
L 1722 794 
L 1722 288 
z
" transform="scale(0.015625)"/>
        <path id="STHeiti-6536" d="M 1824 1664 
L 1824 4230 
Q 1824 4998 1773 5190 
Q 2003 5146 2413 5146 
Q 2522 5146 2522 5107 
Q 2522 5069 2435 5017 
Q 2349 4966 2349 4544 
L 2349 563 
Q 2349 26 2413 -589 
L 1766 -589 
Q 1824 6 1824 563 
L 1824 1197 
L 1082 992 
Q 826 922 614 762 
Q 512 1030 352 1293 
Q 608 1440 608 1722 
L 608 3539 
Q 608 4115 582 4282 
Q 806 4243 973 4243 
L 1171 4250 
Q 1261 4250 1261 4211 
Q 1261 4173 1203 4141 
Q 1082 4083 1082 3968 
L 1082 1510 
L 1824 1664 
z
M 4224 1286 
Q 4685 1984 4781 3462 
L 3629 3462 
Q 3226 2547 2970 2157 
Q 2733 2317 2522 2387 
Q 2906 2918 3203 3712 
Q 3501 4506 3565 5146 
Q 3981 5005 4250 4966 
Q 4326 4954 4326 4922 
Q 4326 4890 4278 4851 
Q 4230 4813 4150 4653 
Q 4070 4493 3821 3917 
L 5120 3917 
Q 5747 3917 5971 3974 
L 5971 3424 
Q 5754 3462 5318 3462 
Q 5178 1722 4576 896 
Q 5178 365 6061 173 
Q 5734 -134 5664 -493 
Q 4845 -115 4237 518 
Q 3699 -115 2899 -499 
Q 2790 -262 2483 -64 
Q 3213 173 3898 883 
Q 3450 1466 3315 2675 
L 3744 2810 
Q 3814 1888 4224 1286 
z
" transform="scale(0.015625)"/>
       </defs>
       <use xlink:href="#STHeiti-46"/>
       <use xlink:href="#STHeiti-59" transform="translate(48.499985 0)"/>
       <use xlink:href="#STHeiti-32" transform="translate(107.699982 0)"/>
       <use xlink:href="#STHeiti-30" transform="translate(163.099976 0)"/>
       <use xlink:href="#STHeiti-33" transform="translate(218.499969 0)"/>
       <use xlink:href="#STHeiti-30" transform="translate(273.899963 0)"/>
       <use xlink:href="#STHeiti-8425" transform="translate(329.299957 0)"/>
       <use xlink:href="#STHeiti-6536" transform="translate(429.299942 0)"/>
      </g>
     </g>
    </g>
    <g id="xtick_2">
     <g id="line2d_3">
      <path d="M 146.040075 269.931784 
L 146.040075 18.159375 
" clip-path="url(#p4bc3942def)" style="fill: none; stroke: #b0b0b0; stroke-opacity: 0.3; stroke-width: 0.8; stroke-linecap: square"/>
     </g>
     <g id="line2d_4">
      <g>
       <use xlink:href="#m76175df935" x="146.040075" y="269.931784" style="stroke: #000000; stroke-width: 0.8"/>
      </g>
     </g>
     <g id="text_2">
      <!-- FY2026E营收 -->
      <g transform="translate(94.887247 312.970898) rotate(-30) scale(0.1 -0.1)">
       <defs>
        <path id="STHeiti-36" d="M 2349 5094 
L 2726 4851 
L 1485 2970 
Q 1747 3059 1984 3059 
Q 2496 3059 2880 2652 
Q 3264 2246 3264 1660 
Q 3264 1075 2845 672 
Q 2426 269 1827 269 
Q 1229 269 829 678 
Q 429 1088 429 1677 
Q 429 1958 537 2256 
Q 646 2554 954 3014 
L 2349 5094 
z
M 2810 1683 
Q 2810 2086 2528 2368 
Q 2246 2650 1843 2650 
Q 1440 2650 1158 2368 
Q 877 2086 877 1683 
Q 877 1280 1161 998 
Q 1446 717 1843 717 
Q 2240 717 2525 998 
Q 2810 1280 2810 1683 
z
" transform="scale(0.015625)"/>
        <path id="STHeiti-45" d="M 563 4979 
L 3200 4979 
L 3200 4525 
L 1024 4525 
L 1024 3091 
L 3181 3091 
L 3181 2643 
L 1024 2643 
L 1024 838 
L 3181 838 
L 3181 384 
L 563 384 
L 563 4979 
z
" transform="scale(0.015625)"/>
       </defs>
       <use xlink:href="#STHeiti-46"/>
       <use xlink:href="#STHeiti-59" transform="translate(48.499985 0)"/>
       <use xlink:href="#STHeiti-32" transform="translate(107.699982 0)"/>
       <use xlink:href="#STHeiti-30" transform="translate(163.099976 0)"/>
       <use xlink:href="#STHeiti-32" transform="translate(218.499969 0)"/>
       <use xlink:href="#STHeiti-36" transform="translate(273.899963 0)"/>
       <use xlink:href="#STHeiti-45" transform="translate(329.299957 0)"/>
       <use xlink:href="#STHeiti-8425" transform="translate(382.899948 0)"/>
       <use xlink:href="#STHeiti-6536" transform="translate(482.899933 0)"/>
      </g>
     </g>
    </g>
    <g id="xtick_3">
     <g id="line2d_5">
      <path d="M 233.438973 269.931784 
L 233.438973 18.159375 
" clip-path="url(#p4bc3942def)" style="fill: none; stroke: #b0b0b0; stroke-opacity: 0.3; stroke-width: 0.8; stroke-linecap: square"/>
     </g>
     <g id="line2d_6">
      <g>
       <use xlink:href="#m76175df935" x="233.438973" y="269.931784" style="stroke: #000000; stroke-width: 0.8"/>
      </g>
     </g>
     <g id="text_3">
      <!-- FY2026E销量（GWh） -->
      <g transform="translate(143.817026 335.267657) rotate(-30) scale(0.1 -0.1)">
       <defs>
        <path id="STHeiti-9500" d="M 4000 3264 
L 4000 4474 
Q 4000 4845 3955 5242 
Q 4141 5203 4608 5203 
Q 4710 5203 4710 5161 
Q 4710 5120 4640 5050 
Q 4518 4941 4518 4723 
L 4518 3264 
Q 5254 3270 5741 3315 
Q 5702 3072 5702 2496 
L 5702 -147 
Q 5702 -314 5641 -400 
Q 5581 -486 5385 -537 
Q 5190 -589 4794 -614 
Q 4730 -346 4576 -70 
Q 4851 -70 4976 -54 
Q 5101 -38 5136 3 
Q 5171 45 5171 128 
L 5171 710 
L 3437 710 
L 3437 -538 
L 2867 -538 
Q 2912 -58 2912 410 
L 2912 2496 
Q 2912 3110 2880 3315 
Q 3251 3283 4000 3264 
z
M 3437 2214 
L 5171 2214 
L 5171 2854 
L 3437 2854 
L 3437 2214 
z
M 5171 1805 
L 3437 1805 
L 3437 1133 
L 5171 1133 
L 5171 1805 
z
M 1184 3866 
Q 896 3456 602 3130 
Q 442 3354 250 3475 
Q 890 4102 1382 5210 
Q 1606 5062 1804 5011 
Q 2003 4960 2003 4909 
Q 2003 4858 1881 4794 
Q 1760 4730 1459 4282 
Q 2234 4282 2464 4314 
L 2464 3834 
Q 2259 3866 1184 3866 
z
M 5414 4960 
Q 5722 4768 5958 4666 
Q 6022 4640 6022 4605 
Q 6022 4570 5939 4544 
Q 5856 4518 5728 4368 
Q 5600 4218 5216 3674 
Q 4979 3821 4781 3872 
Q 5235 4461 5414 4960 
z
M 3610 3917 
L 3098 3674 
Q 2950 4179 2624 4627 
L 3104 4851 
Q 3341 4512 3610 3917 
z
M 1171 1600 
Q 627 1581 397 1542 
L 397 2067 
Q 608 2022 1171 2003 
L 1171 2810 
Q 896 2790 774 2765 
L 774 3270 
Q 1094 3219 1564 3219 
Q 2035 3219 2438 3270 
L 2438 2765 
Q 2138 2810 1664 2822 
L 1664 2003 
Q 2278 2016 2573 2067 
L 2573 1542 
Q 2195 1594 1664 1606 
L 1664 480 
Q 2074 774 2298 1018 
Q 2362 730 2496 595 
L 1760 -26 
Q 1472 -275 1331 -486 
Q 1178 -205 1005 -38 
Q 1171 115 1171 493 
L 1171 1600 
z
" transform="scale(0.015625)"/>
        <path id="STHeiti-91cf" d="M 5229 3379 
Q 5043 3411 3209 3411 
Q 1376 3411 1197 3379 
Q 1229 3834 1229 4186 
Q 1229 4538 1197 4934 
Q 1389 4890 3174 4890 
Q 4960 4890 5222 4934 
Q 5210 4461 5210 4115 
Q 5210 3770 5229 3379 
z
M 1690 4288 
L 4742 4288 
L 4742 4595 
L 1690 4595 
L 1690 4288 
z
M 4742 4019 
L 1690 4019 
L 1690 3693 
L 4742 3693 
L 4742 4019 
z
M 5952 2746 
Q 5082 2797 3190 2797 
Q 1299 2797 448 2746 
L 448 3174 
Q 1619 3130 3321 3130 
Q 5024 3130 5952 3174 
L 5952 2746 
z
M 3398 352 
L 3398 0 
Q 5075 0 5875 51 
L 5875 -384 
Q 4979 -339 3164 -339 
Q 1350 -339 467 -384 
L 467 51 
Q 1254 0 2938 0 
L 2938 352 
Q 1766 346 986 282 
L 986 742 
Q 1875 672 2938 666 
L 2938 1030 
Q 1363 1030 1178 1011 
Q 1210 1325 1210 1798 
Q 1210 2272 1178 2566 
Q 1370 2522 3155 2522 
Q 4941 2522 5210 2566 
Q 5190 2208 5190 1875 
Q 5190 1542 5216 1011 
Q 4928 1030 3398 1030 
L 3398 666 
Q 4659 666 5363 742 
L 5363 282 
Q 4608 352 3398 352 
z
M 2938 1907 
L 2938 2221 
L 1670 2221 
L 1670 1907 
L 2938 1907 
z
M 3398 2221 
L 3398 1907 
L 4723 1907 
L 4723 2221 
L 3398 2221 
z
M 3398 1638 
L 3398 1331 
L 4723 1331 
L 4723 1638 
L 3398 1638 
z
M 2938 1331 
L 2938 1638 
L 1670 1638 
L 1670 1331 
L 2938 1331 
z
" transform="scale(0.015625)"/>
        <path id="STHeiti-ff08" d="M 5651 -749 
L 5274 -749 
Q 4646 173 4409 835 
Q 4173 1498 4173 2266 
Q 4173 3034 4432 3750 
Q 4691 4467 5254 5267 
L 5645 5267 
Q 5082 4237 4928 3606 
Q 4774 2976 4774 2093 
Q 4774 1472 4953 861 
Q 5133 250 5651 -749 
z
" transform="scale(0.015625)"/>
        <path id="STHeiti-47" d="M 5318 4211 
L 4966 3872 
Q 4582 4243 4124 4441 
Q 3667 4640 3180 4640 
Q 2694 4640 2208 4377 
Q 1722 4115 1450 3670 
Q 1178 3226 1178 2707 
Q 1178 1901 1782 1302 
Q 2387 704 3296 704 
Q 3987 704 4483 1091 
Q 4979 1478 5075 2144 
L 3610 2144 
L 3610 2586 
L 5594 2586 
Q 5574 1491 4940 880 
Q 4307 269 3283 269 
Q 2106 269 1398 992 
Q 691 1715 691 2691 
Q 691 3667 1395 4380 
Q 2099 5094 3244 5094 
Q 4390 5094 5318 4211 
z
" transform="scale(0.015625)"/>
        <path id="STHeiti-57" d="M 301 4979 
L 774 4979 
L 1709 1555 
L 3027 4979 
L 3117 4979 
L 4422 1555 
L 5376 4979 
L 5843 4979 
L 4525 269 
L 4435 269 
L 3072 3859 
L 1683 269 
L 1600 269 
L 301 4979 
z
" transform="scale(0.015625)"/>
        <path id="STHeiti-68" d="M 486 5094 
L 928 5094 
L 928 3174 
Q 1453 3872 2202 3872 
Q 2586 3872 2893 3664 
Q 3200 3456 3328 3120 
Q 3456 2784 3456 2131 
L 3456 384 
L 3014 384 
L 3014 2003 
Q 3014 2528 2982 2726 
Q 2950 2925 2841 3104 
Q 2733 3283 2550 3376 
Q 2368 3469 2109 3469 
Q 1850 3469 1613 3347 
Q 1376 3226 1209 3008 
Q 1043 2790 985 2560 
Q 928 2330 928 1632 
L 928 384 
L 486 384 
L 486 5094 
z
" transform="scale(0.015625)"/>
        <path id="STHeiti-ff09" d="M 1120 5267 
Q 1747 4346 1984 3683 
Q 2221 3021 2221 2253 
Q 2221 1485 1961 768 
Q 1702 51 1139 -749 
L 749 -749 
Q 1312 282 1465 912 
Q 1619 1542 1619 2426 
Q 1619 3046 1440 3657 
Q 1261 4269 742 5267 
L 1120 5267 
z
" transform="scale(0.015625)"/>
       </defs>
       <use xlink:href="#STHeiti-46"/>
       <use xlink:href="#STHeiti-59" transform="translate(48.499985 0)"/>
       <use xlink:href="#STHeiti-32" transform="translate(107.699982 0)"/>
       <use xlink:href="#STHeiti-30" transform="translate(163.099976 0)"/>
       <use xlink:href="#STHeiti-32" transform="translate(218.499969 0)"/>
       <use xlink:href="#STHeiti-36" transform="translate(273.899963 0)"/>
       <use xlink:href="#STHeiti-45" transform="translate(329.299957 0)"/>
       <use xlink:href="#STHeiti-9500" transform="translate(382.899948 0)"/>
       <use xlink:href="#STHeiti-91cf" transform="translate(482.899933 0)"/>
       <use xlink:href="#STHeiti-ff08" transform="translate(582.899918 0)"/>
       <use xlink:href="#STHeiti-47" transform="translate(682.899902 0)"/>
       <use xlink:href="#STHeiti-57" transform="translate(770.099884 0)"/>
       <use xlink:href="#STHeiti-68" transform="translate(866.099869 0)"/>
       <use xlink:href="#STHeiti-ff09" transform="translate(927.099854 0)"/>
      </g>
     </g>
    </g>
    <g id="xtick_4">
     <g id="line2d_7">
      <path d="M 320.837871 269.931784 
L 320.837871 18.159375 
" clip-path="url(#p4bc3942def)" style="fill: none; stroke: #b0b0b0; stroke-opacity: 0.3; stroke-width: 0.8; stroke-linecap: square"/>
     </g>
     <g id="line2d_8">
      <g>
       <use xlink:href="#m76175df935" x="320.837871" y="269.931784" style="stroke: #000000; stroke-width: 0.8"/>
      </g>
     </g>
     <g id="text_4">
      <!-- FY2026E GM -->
      <g transform="translate(269.329161 313.176367) rotate(-30) scale(0.1 -0.1)">
       <defs>
        <path id="STHeiti-20" transform="scale(0.015625)"/>
        <path id="STHeiti-4d" d="M 352 384 
L 1005 4979 
L 1075 4979 
L 2944 1210 
L 4800 4979 
L 4870 4979 
L 5530 384 
L 5075 384 
L 4627 3674 
L 3002 384 
L 2886 384 
L 1242 3699 
L 794 384 
L 352 384 
z
" transform="scale(0.015625)"/>
       </defs>
       <use xlink:href="#STHeiti-46"/>
       <use xlink:href="#STHeiti-59" transform="translate(48.499985 0)"/>
       <use xlink:href="#STHeiti-32" transform="translate(107.699982 0)"/>
       <use xlink:href="#STHeiti-30" transform="translate(163.099976 0)"/>
       <use xlink:href="#STHeiti-32" transform="translate(218.499969 0)"/>
       <use xlink:href="#STHeiti-36" transform="translate(273.899963 0)"/>
       <use xlink:href="#STHeiti-45" transform="translate(329.299957 0)"/>
       <use xlink:href="#STHeiti-20" transform="translate(382.899948 0)"/>
       <use xlink:href="#STHeiti-47" transform="translate(407.899933 0)"/>
       <use xlink:href="#STHeiti-4d" transform="translate(495.099915 0)"/>
      </g>
     </g>
    </g>
    <g id="xtick_5">
     <g id="line2d_9">
      <path d="M 408.236769 269.931784 
L 408.236769 18.159375 
" clip-path="url(#p4bc3942def)" style="fill: none; stroke: #b0b0b0; stroke-opacity: 0.3; stroke-width: 0.8; stroke-linecap: square"/>
     </g>
     <g id="line2d_10">
      <g>
       <use xlink:href="#m76175df935" x="408.236769" y="269.931784" style="stroke: #000000; stroke-width: 0.8"/>
      </g>
     </g>
     <g id="text_5">
      <!-- 国内民用FY2026E GM -->
      <g transform="translate(322.087042 333.176367) rotate(-30) scale(0.1 -0.1)">
       <defs>
        <path id="STHeiti-56fd" d="M 1254 -262 
L 1254 -666 
L 678 -666 
Q 736 -122 736 384 
L 736 4173 
Q 736 4538 678 4902 
Q 1024 4838 3216 4838 
Q 5408 4838 5798 4902 
Q 5741 4589 5741 4173 
L 5741 397 
Q 5741 -115 5798 -570 
L 5222 -570 
L 5222 -262 
L 1254 -262 
z
M 5222 186 
L 5222 4390 
L 1254 4390 
L 1254 186 
L 5222 186 
z
M 3386 1171 
Q 4390 1171 4890 1216 
L 4890 698 
Q 4486 742 3260 742 
Q 2035 742 1587 698 
L 1587 1216 
Q 1978 1171 2899 1171 
L 2899 2214 
Q 2259 2214 1856 2176 
L 1856 2669 
Q 2253 2630 2899 2624 
L 2899 3373 
Q 2112 3366 1741 3328 
L 1741 3859 
Q 2170 3814 3306 3814 
Q 4442 3814 4742 3859 
L 4742 3328 
Q 4211 3373 3386 3373 
L 3386 2624 
Q 4186 2624 4608 2669 
L 4608 2176 
Q 4262 2214 3386 2214 
L 3386 1171 
z
M 4538 1587 
L 4083 1299 
Q 3968 1574 3712 1843 
L 4128 2106 
Q 4365 1766 4538 1587 
z
" transform="scale(0.015625)"/>
        <path id="STHeiti-5185" d="M 3302 2733 
Q 4141 2106 4787 1376 
L 4301 992 
Q 3654 1850 3174 2317 
Q 3008 1862 2768 1529 
Q 2528 1197 2093 781 
Q 1862 966 1581 1088 
Q 2323 1606 2569 2105 
Q 2816 2605 2886 3546 
L 1472 3546 
L 1472 -461 
L 890 -461 
Q 947 -51 947 486 
L 947 3130 
Q 947 3680 896 4077 
Q 1504 4006 2918 4019 
Q 2938 4653 2880 5158 
Q 3155 5133 3328 5133 
L 3616 5133 
Q 3706 5133 3706 5101 
Q 3706 5069 3622 5005 
Q 3590 4979 3545 4710 
Q 3501 4442 3475 4019 
Q 5082 4019 5562 4077 
Q 5517 3674 5517 3130 
L 5517 141 
Q 5517 -122 5443 -253 
Q 5370 -384 5139 -464 
Q 4909 -544 4410 -608 
Q 4397 -301 4154 13 
Q 4339 -6 4537 -6 
Q 4736 -6 4857 64 
Q 4979 134 4979 326 
L 4979 3546 
L 3430 3546 
Q 3373 3098 3302 2733 
z
" transform="scale(0.015625)"/>
        <path id="STHeiti-6c11" d="M 3654 2285 
Q 5216 2285 5677 2330 
L 5677 1773 
Q 5261 1805 3763 1805 
Q 4045 922 4553 509 
Q 5062 96 5242 96 
Q 5357 96 5424 240 
Q 5491 384 5562 730 
Q 5811 448 6048 378 
Q 5894 -122 5769 -339 
Q 5645 -557 5449 -557 
Q 5254 -557 4793 -336 
Q 4333 -115 3891 445 
Q 3450 1005 3245 1805 
L 1562 1805 
L 1562 230 
Q 2182 538 2688 826 
Q 2682 499 2822 282 
L 1741 -237 
Q 1382 -403 1088 -653 
Q 934 -320 723 -115 
Q 883 -19 956 144 
Q 1030 307 1030 710 
L 1030 4192 
Q 1030 4589 986 4896 
Q 1382 4838 3065 4838 
Q 4749 4838 5306 4896 
Q 5267 4570 5267 4173 
L 5267 3610 
Q 5267 3347 5312 3034 
Q 4973 3072 3558 3078 
Q 3584 2746 3654 2285 
z
M 1562 3558 
L 4736 3558 
L 4736 4358 
L 1562 4358 
L 1562 3558 
z
M 1562 2285 
L 3142 2285 
Q 3078 2650 3034 3078 
L 1562 3078 
L 1562 2285 
z
" transform="scale(0.015625)"/>
        <path id="STHeiti-7528" d="M 3501 1491 
L 3501 1024 
Q 3501 454 3546 -70 
L 2931 -70 
Q 2976 467 2976 1024 
L 2976 1491 
L 1709 1491 
Q 1587 352 1024 -570 
Q 774 -352 461 -230 
Q 1203 621 1203 2310 
L 1203 3955 
Q 1203 4557 1152 4864 
Q 2048 4819 3421 4819 
Q 4794 4819 5530 4864 
Q 5472 4525 5472 3955 
L 5472 134 
Q 5472 -122 5417 -224 
Q 5363 -326 5164 -387 
Q 4966 -448 4435 -531 
Q 4365 -192 4230 83 
Q 4666 77 4803 134 
Q 4941 192 4941 358 
L 4941 1491 
L 3501 1491 
z
M 1728 3405 
L 2976 3405 
L 2976 4346 
L 1728 4346 
L 1728 3405 
z
M 3501 3405 
L 4941 3405 
L 4941 4346 
L 3501 4346 
L 3501 3405 
z
M 2976 2938 
L 1728 2938 
L 1728 1958 
L 2976 1958 
L 2976 2938 
z
M 4941 2938 
L 3501 2938 
L 3501 1958 
L 4941 1958 
L 4941 2938 
z
" transform="scale(0.015625)"/>
       </defs>
       <use xlink:href="#STHeiti-56fd"/>
       <use xlink:href="#STHeiti-5185" transform="translate(99.999985 0)"/>
       <use xlink:href="#STHeiti-6c11" transform="translate(199.999969 0)"/>
       <use xlink:href="#STHeiti-7528" transform="translate(299.999954 0)"/>
       <use xlink:href="#STHeiti-46" transform="translate(399.999939 0)"/>
       <use xlink:href="#STHeiti-59" transform="translate(448.499924 0)"/>
       <use xlink:href="#STHeiti-32" transform="translate(507.699921 0)"/>
       <use xlink:href="#STHeiti-30" transform="translate(563.099915 0)"/>
       <use xlink:href="#STHeiti-32" transform="translate(618.499908 0)"/>
       <use xlink:href="#STHeiti-36" transform="translate(673.899902 0)"/>
       <use xlink:href="#STHeiti-45" transform="translate(729.299896 0)"/>
       <use xlink:href="#STHeiti-20" transform="translate(782.899887 0)"/>
       <use xlink:href="#STHeiti-47" transform="translate(807.899872 0)"/>
       <use xlink:href="#STHeiti-4d" transform="translate(895.099854 0)"/>
      </g>
     </g>
    </g>
    <g id="xtick_6">
     <g id="line2d_11">
      <path d="M 495.635667 269.931784 
L 495.635667 18.159375 
" clip-path="url(#p4bc3942def)" style="fill: none; stroke: #b0b0b0; stroke-opacity: 0.3; stroke-width: 0.8; stroke-linecap: square"/>
     </g>
     <g id="line2d_12">
      <g>
       <use xlink:href="#m76175df935" x="495.635667" y="269.931784" style="stroke: #000000; stroke-width: 0.8"/>
      </g>
     </g>
     <g id="text_6">
      <!-- 家储FY2026E营收 -->
      <g transform="translate(427.162331 322.970898) rotate(-30) scale(0.1 -0.1)">
       <defs>
        <path id="STHeiti-5bb6" d="M 3008 4544 
Q 2912 4851 2797 5139 
L 3437 5235 
Q 3507 4896 3642 4544 
Q 5197 4544 5760 4582 
L 5760 3270 
L 5242 3270 
L 5242 4109 
L 1171 4109 
L 1171 3206 
L 653 3206 
L 653 4582 
Q 1242 4544 3008 4544 
z
M 4608 1990 
Q 4742 1363 5097 966 
Q 5453 570 6099 301 
Q 5856 77 5696 -314 
Q 5152 -19 4765 541 
Q 4378 1101 4243 1760 
L 3808 1472 
Q 3942 1024 3942 605 
Q 3942 186 3776 -112 
Q 3610 -410 2797 -614 
Q 2765 -230 2515 38 
Q 2624 26 2720 26 
Q 3149 26 3309 234 
Q 3469 442 3469 838 
Q 3469 1037 3424 1235 
Q 2342 173 819 -397 
Q 627 -70 448 102 
Q 1088 166 1923 633 
Q 2758 1101 3258 1658 
Q 3187 1786 3078 1926 
Q 2189 1114 877 666 
Q 742 896 525 1094 
Q 1971 1421 2822 2234 
Q 2701 2355 2560 2477 
Q 1843 2048 838 1722 
Q 704 1978 493 2144 
Q 1146 2253 1782 2534 
Q 2419 2816 2842 3181 
Q 1965 3168 1645 3142 
L 1645 3648 
Q 2182 3603 3244 3603 
Q 4307 3603 4832 3648 
L 4832 3149 
Q 4435 3181 3501 3181 
Q 3238 2931 2944 2726 
Q 3424 2387 3654 1894 
Q 4563 2438 4947 2886 
Q 5178 2624 5421 2490 
Q 5459 2464 5459 2445 
Q 5459 2406 5353 2396 
Q 5248 2387 4608 1990 
z
" transform="scale(0.015625)"/>
        <path id="STHeiti-50a8" d="M 4474 4448 
Q 4787 4454 4992 4493 
L 4992 4013 
Q 4768 4045 4474 4051 
L 4474 3194 
L 4646 3194 
Q 5146 3917 5382 4685 
Q 5568 4531 5888 4390 
Q 5933 4365 5933 4336 
Q 5933 4307 5865 4272 
Q 5798 4237 5577 3859 
Q 5357 3482 5146 3194 
Q 5696 3206 6086 3251 
L 6086 2733 
Q 5600 2778 4845 2784 
Q 4653 2541 4365 2234 
L 5139 2234 
Q 5504 2234 5670 2278 
Q 5619 2099 5619 1651 
L 5619 301 
Q 5619 -102 5677 -499 
L 5139 -499 
L 5139 -154 
L 3994 -154 
L 3994 -614 
L 3514 -614 
Q 3565 -211 3565 186 
L 3565 1466 
Q 3315 1242 3117 1088 
Q 3008 1261 2784 1446 
Q 3200 1709 3546 1997 
Q 3533 2157 3507 2278 
Q 3642 2253 3814 2240 
Q 4102 2509 4339 2790 
Q 3533 2790 3008 2733 
L 3008 3251 
Q 3482 3206 4013 3194 
L 4013 4058 
Q 3558 4051 3302 4013 
L 3302 4493 
Q 3610 4448 4013 4442 
Q 4013 5024 3955 5254 
Q 4192 5210 4506 5210 
Q 4563 5210 4563 5181 
Q 4563 5152 4518 5107 
Q 4474 5062 4474 4813 
L 4474 4448 
z
M 5139 1242 
L 5139 1830 
L 3994 1830 
L 3994 1242 
L 5139 1242 
z
M 3994 845 
L 3994 243 
L 5139 243 
L 5139 845 
L 3994 845 
z
M 1510 4070 
L 1510 -582 
L 954 -582 
Q 1024 64 1024 538 
L 1024 2970 
Q 832 2547 646 2202 
Q 518 2464 237 2637 
Q 608 3098 905 3808 
Q 1203 4518 1338 5165 
Q 1670 5056 1875 5050 
Q 1978 5043 1978 5001 
Q 1978 4960 1888 4870 
Q 1830 4813 1510 4070 
z
M 2957 3712 
L 2419 3565 
Q 2336 4141 2093 4627 
L 2586 4774 
Q 2733 4256 2957 3712 
z
M 3123 602 
L 2586 154 
Q 2426 26 2246 -218 
Q 2067 115 1926 250 
Q 2042 378 2090 515 
Q 2138 653 2138 909 
L 2138 2784 
Q 1856 2784 1658 2746 
L 1658 3277 
Q 1939 3226 2192 3226 
Q 2445 3226 2669 3277 
Q 2598 2989 2598 2470 
L 2598 794 
Q 2835 941 2982 1082 
Q 2982 832 3123 602 
z
" transform="scale(0.015625)"/>
       </defs>
       <use xlink:href="#STHeiti-5bb6"/>
       <use xlink:href="#STHeiti-50a8" transform="translate(99.999985 0)"/>
       <use xlink:href="#STHeiti-46" transform="translate(199.999969 0)"/>
       <use xlink:href="#STHeiti-59" transform="translate(248.499954 0)"/>
       <use xlink:href="#STHeiti-32" transform="translate(307.699951 0)"/>
       <use xlink:href="#STHeiti-30" transform="translate(363.099945 0)"/>
       <use xlink:href="#STHeiti-32" transform="translate(418.499939 0)"/>
       <use xlink:href="#STHeiti-36" transform="translate(473.899933 0)"/>
       <use xlink:href="#STHeiti-45" transform="translate(529.299927 0)"/>
       <use xlink:href="#STHeiti-8425" transform="translate(582.899918 0)"/>
       <use xlink:href="#STHeiti-6536" transform="translate(682.899902 0)"/>
      </g>
     </g>
    </g>
    <g id="xtick_7">
     <g id="line2d_13">
      <path d="M 583.034565 269.931784 
L 583.034565 18.159375 
" clip-path="url(#p4bc3942def)" style="fill: none; stroke: #b0b0b0; stroke-opacity: 0.3; stroke-width: 0.8; stroke-linecap: square"/>
     </g>
     <g id="line2d_14">
      <g>
       <use xlink:href="#m76175df935" x="583.034565" y="269.931784" style="stroke: #000000; stroke-width: 0.8"/>
      </g>
     </g>
     <g id="text_7">
      <!-- 南亚及东南亚FY2026E营收 -->
      <g transform="translate(479.920213 342.970898) rotate(-30) scale(0.1 -0.1)">
       <defs>
        <path id="STHeiti-5357" d="M 3488 4550 
Q 4966 4550 5978 4614 
L 5978 4026 
Q 5107 4090 3430 4090 
L 3360 3456 
Q 5274 3456 5651 3533 
Q 5600 3174 5600 2586 
L 5600 134 
Q 5600 -160 5536 -288 
Q 5472 -416 5251 -486 
Q 5030 -557 4493 -621 
Q 4493 -480 4441 -285 
Q 4390 -90 4307 58 
Q 4518 26 4666 26 
Q 5069 26 5069 294 
L 5069 3014 
L 1414 3014 
L 1414 -538 
L 819 -538 
Q 883 -13 883 352 
L 883 2586 
Q 883 3174 832 3533 
Q 1306 3462 2848 3456 
Q 2880 3802 2886 4090 
Q 1299 4077 474 4026 
L 474 4614 
Q 1318 4557 2893 4550 
Q 2893 4915 2854 5210 
Q 3219 5139 3610 5139 
Q 3686 5139 3686 5107 
Q 3686 5075 3628 5040 
Q 3571 5005 3548 4912 
Q 3526 4819 3488 4550 
z
M 3386 1120 
Q 4134 1120 4653 1171 
L 4653 672 
Q 4205 710 3386 717 
Q 3386 96 3430 -384 
L 2842 -384 
Q 2886 96 2886 717 
Q 2131 710 1728 672 
L 1728 1171 
Q 2253 1126 2886 1120 
L 2886 1619 
Q 2278 1613 1843 1568 
L 1843 2054 
Q 2566 2003 3430 2003 
Q 3629 2502 3674 2982 
Q 4051 2778 4237 2752 
Q 4314 2739 4314 2713 
Q 4314 2688 4250 2656 
Q 4186 2624 4112 2499 
Q 4038 2374 3872 2016 
Q 4288 2022 4589 2054 
L 4589 1568 
Q 4218 1613 3386 1619 
L 3386 1120 
z
M 2957 2298 
L 2458 2118 
Q 2330 2458 2163 2720 
L 2675 2886 
Q 2752 2701 2957 2298 
z
" transform="scale(0.015625)"/>
        <path id="STHeiti-4e9a" d="M 4096 314 
Q 5440 301 6029 371 
L 6029 -250 
Q 5318 -192 3158 -192 
Q 998 -192 480 -250 
L 480 371 
Q 1210 294 2317 314 
L 2317 4269 
Q 1184 4256 762 4211 
L 762 4806 
Q 1261 4749 3165 4749 
Q 5069 4749 5709 4806 
L 5709 4211 
Q 5222 4269 4096 4269 
L 4096 314 
z
M 2854 314 
L 3558 314 
L 3558 4269 
L 2854 4269 
L 2854 314 
z
M 5082 3610 
Q 5395 3475 5683 3418 
Q 5786 3398 5786 3369 
Q 5786 3341 5696 3264 
Q 5606 3187 5449 2844 
Q 5293 2502 4819 1286 
Q 4563 1427 4269 1478 
Q 4774 2419 5082 3610 
z
M 1946 1446 
L 1357 1254 
Q 1190 2400 813 3290 
L 1312 3456 
Q 1715 2362 1946 1446 
z
" transform="scale(0.015625)"/>
        <path id="STHeiti-53ca" d="M 2598 4237 
Q 2541 2611 2163 1692 
Q 1786 774 819 -109 
Q 595 90 262 294 
Q 1165 915 1590 1843 
Q 2016 2771 2061 4237 
Q 1421 4224 1024 4192 
L 1024 4774 
Q 1651 4730 3344 4730 
Q 5037 4730 5171 4781 
L 4301 2970 
L 4877 2970 
Q 5293 2970 5472 3008 
Q 5146 2067 4861 1555 
Q 4576 1043 4173 691 
Q 4576 461 5149 301 
Q 5722 141 6086 147 
Q 5875 -109 5792 -550 
Q 5286 -454 4707 -201 
Q 4128 51 3744 346 
Q 2771 -346 1664 -627 
Q 1549 -288 1357 -77 
Q 2682 198 3386 691 
Q 2739 1453 2477 2643 
L 2963 2842 
Q 3200 1645 3782 1011 
Q 4416 1606 4666 2464 
L 4205 2464 
Q 3731 2464 3462 2432 
L 4288 4237 
L 2598 4237 
z
" transform="scale(0.015625)"/>
        <path id="STHeiti-4e1c" d="M 2131 3821 
Q 768 3808 493 3782 
L 493 4352 
Q 1114 4282 2330 4256 
Q 2605 4883 2688 5242 
Q 3066 5056 3392 4986 
Q 3450 4973 3450 4944 
Q 3450 4915 3392 4877 
Q 3238 4762 2950 4256 
Q 4717 4269 5811 4352 
L 5811 3776 
Q 5190 3821 2707 3821 
Q 2259 3066 1754 2374 
L 3098 2374 
Q 3098 3014 3034 3290 
Q 3258 3251 3434 3248 
Q 3610 3245 3696 3245 
Q 3782 3245 3782 3222 
Q 3782 3200 3750 3149 
Q 3648 2995 3648 2682 
L 3648 2374 
Q 4992 2394 5414 2502 
L 5414 1888 
Q 5050 1926 3648 1926 
L 3648 218 
Q 3648 -154 3587 -304 
Q 3526 -454 3337 -521 
Q 3149 -589 2662 -653 
Q 2598 -346 2381 26 
Q 2694 -32 2848 -32 
Q 3002 -32 3050 45 
Q 3098 122 3098 320 
L 3098 1926 
Q 1658 1907 1190 1728 
Q 1133 1978 934 2310 
Q 1197 2432 1523 2841 
Q 1850 3251 2131 3821 
z
M 6035 211 
L 5517 -243 
Q 4947 563 4198 1075 
L 4563 1427 
Q 5370 870 6035 211 
z
M 1792 1408 
Q 2080 1126 2323 1011 
Q 2387 979 2387 937 
Q 2387 896 2310 883 
Q 2086 851 774 -339 
Q 582 -77 314 64 
Q 1210 614 1792 1408 
z
" transform="scale(0.015625)"/>
       </defs>
       <use xlink:href="#STHeiti-5357"/>
       <use xlink:href="#STHeiti-4e9a" transform="translate(99.999985 0)"/>
       <use xlink:href="#STHeiti-53ca" transform="translate(199.999969 0)"/>
       <use xlink:href="#STHeiti-4e1c" transform="translate(299.999954 0)"/>
       <use xlink:href="#STHeiti-5357" transform="translate(399.999939 0)"/>
       <use xlink:href="#STHeiti-4e9a" transform="translate(499.999924 0)"/>
       <use xlink:href="#STHeiti-46" transform="translate(599.999908 0)"/>
       <use xlink:href="#STHeiti-59" transform="translate(648.499893 0)"/>
       <use xlink:href="#STHeiti-32" transform="translate(707.69989 0)"/>
       <use xlink:href="#STHeiti-30" transform="translate(763.099884 0)"/>
       <use xlink:href="#STHeiti-32" transform="translate(818.499878 0)"/>
       <use xlink:href="#STHeiti-36" transform="translate(873.899872 0)"/>
       <use xlink:href="#STHeiti-45" transform="translate(929.299866 0)"/>
       <use xlink:href="#STHeiti-8425" transform="translate(982.899857 0)"/>
       <use xlink:href="#STHeiti-6536" transform="translate(1082.899841 0)"/>
      </g>
     </g>
    </g>
    <g id="xtick_8">
     <g id="line2d_15">
      <path d="M 670.433462 269.931784 
L 670.433462 18.159375 
" clip-path="url(#p4bc3942def)" style="fill: none; stroke: #b0b0b0; stroke-opacity: 0.3; stroke-width: 0.8; stroke-linecap: square"/>
     </g>
     <g id="line2d_16">
      <g>
       <use xlink:href="#m76175df935" x="670.433462" y="269.931784" style="stroke: #000000; stroke-width: 0.8"/>
      </g>
     </g>
     <g id="text_8">
      <!-- EB海外FY2025 GM -->
      <g transform="translate(596.632717 326.125163) rotate(-30) scale(0.1 -0.1)">
       <defs>
        <path id="STHeiti-42" d="M 570 4979 
L 1478 4979 
Q 2202 4979 2576 4688 
Q 2950 4397 2950 3853 
Q 2950 3552 2800 3299 
Q 2650 3046 2362 2893 
Q 2835 2739 3081 2432 
Q 3328 2125 3328 1702 
Q 3328 1133 2912 758 
Q 2496 384 1837 384 
L 570 384 
L 570 4979 
z
M 1024 4531 
L 1024 3059 
L 1286 3059 
Q 1888 3059 2182 3251 
Q 2477 3443 2477 3853 
Q 2477 4531 1555 4531 
L 1024 4531 
z
M 1024 2598 
L 1024 832 
L 1594 832 
Q 2086 832 2320 931 
Q 2554 1030 2701 1238 
Q 2848 1446 2848 1664 
Q 2848 1882 2765 2048 
Q 2682 2214 2518 2342 
Q 2355 2470 2128 2534 
Q 1901 2598 1280 2598 
L 1024 2598 
z
" transform="scale(0.015625)"/>
        <path id="STHeiti-6d77" d="M 2573 3546 
Q 2355 3258 2221 3091 
Q 2010 3264 1747 3296 
Q 2106 3661 2474 4246 
Q 2842 4832 3008 5312 
Q 3386 5146 3661 5101 
Q 3725 5088 3725 5043 
Q 3725 4998 3648 4985 
Q 3571 4973 3500 4899 
Q 3430 4826 3277 4589 
L 5030 4589 
Q 5606 4589 5965 4659 
L 5965 4134 
Q 5581 4166 5030 4166 
L 3002 4166 
Q 2829 3898 2611 3597 
L 4128 3597 
Q 4986 3597 5530 3648 
L 5421 2163 
Q 5811 2163 6074 2202 
L 6074 1722 
Q 5837 1754 5389 1766 
L 5312 672 
Q 5645 678 5837 710 
L 5837 186 
Q 5626 230 5286 237 
Q 5274 -314 5062 -461 
Q 4851 -608 4294 -698 
Q 4269 -429 4006 -154 
Q 4422 -166 4588 -83 
Q 4755 0 4787 250 
L 3251 250 
Q 2675 250 2221 205 
L 2381 1760 
Q 2010 1747 1792 1722 
L 1792 2202 
Q 1946 2182 2426 2157 
L 2573 3546 
z
M 2925 2157 
L 4934 2157 
L 5011 3213 
L 3046 3213 
L 2925 2157 
z
M 4365 2387 
L 3840 2298 
Q 3782 2618 3616 2899 
L 4096 3021 
Q 4282 2701 4365 2387 
z
M 4902 1766 
L 2880 1766 
L 2752 666 
L 4819 666 
L 4902 1766 
z
M 4224 896 
L 3718 781 
Q 3718 890 3641 1120 
Q 3565 1350 3482 1498 
L 3962 1619 
Q 4154 1126 4224 896 
z
M 2067 4358 
L 1664 3974 
Q 1293 4410 723 4755 
L 1120 5139 
Q 1619 4742 2067 4358 
z
M 1728 2931 
L 1395 2464 
Q 1005 2816 403 3078 
L 710 3533 
Q 1434 3098 1728 2931 
z
M 1651 1581 
Q 1536 1286 1353 739 
Q 1171 192 1113 9 
Q 1056 -173 979 -518 
Q 653 -224 365 -90 
Q 563 186 828 918 
Q 1094 1651 1165 1971 
Q 1331 1715 1651 1581 
z
" transform="scale(0.015625)"/>
        <path id="STHeiti-5916" d="M 4320 3098 
L 4320 730 
Q 4320 -38 4378 -499 
L 3718 -499 
Q 3776 -38 3776 730 
L 3776 4365 
Q 3776 4941 3718 5267 
Q 4070 5203 4365 5203 
Q 4493 5203 4493 5168 
Q 4493 5133 4403 5075 
Q 4320 5011 4320 4819 
L 4320 3648 
Q 5363 2893 6150 1965 
L 5670 1536 
Q 5024 2458 4320 3098 
z
M 2355 1926 
Q 2618 2579 2701 3450 
L 1632 3450 
Q 1261 2432 819 1766 
Q 544 2042 301 2074 
Q 742 2490 1097 3402 
Q 1453 4314 1485 5107 
Q 1914 4986 2163 4960 
Q 2246 4947 2246 4912 
Q 2246 4877 2169 4816 
Q 2093 4755 1974 4406 
Q 1856 4058 1798 3910 
Q 3002 3891 3283 3949 
Q 3238 3162 3065 2432 
Q 2893 1702 2669 1337 
Q 2445 973 2025 547 
Q 1606 122 966 -320 
Q 749 -32 371 115 
Q 1638 691 2118 1459 
Q 1805 1997 1395 2310 
L 1766 2662 
Q 2054 2374 2355 1926 
z
" transform="scale(0.015625)"/>
        <path id="STHeiti-35" d="M 3149 4979 
L 3149 4544 
L 1510 4544 
L 1280 3290 
Q 1587 3379 1856 3379 
Q 2458 3379 2861 2953 
Q 3264 2528 3264 1862 
Q 3264 1197 2825 733 
Q 2387 269 1664 269 
Q 1114 269 726 598 
Q 339 928 262 1498 
L 730 1498 
Q 813 1114 1075 909 
Q 1338 704 1683 704 
Q 2138 704 2467 1043 
Q 2797 1382 2797 1888 
Q 2797 2349 2509 2646 
Q 2221 2944 1757 2944 
Q 1293 2944 730 2701 
L 1158 4979 
L 3149 4979 
z
" transform="scale(0.015625)"/>
       </defs>
       <use xlink:href="#STHeiti-45"/>
       <use xlink:href="#STHeiti-42" transform="translate(53.599991 0)"/>
       <use xlink:href="#STHeiti-6d77" transform="translate(110.999985 0)"/>
       <use xlink:href="#STHeiti-5916" transform="translate(210.999969 0)"/>
       <use xlink:href="#STHeiti-46" transform="translate(310.999954 0)"/>
       <use xlink:href="#STHeiti-59" transform="translate(359.499939 0)"/>
       <use xlink:href="#STHeiti-32" transform="translate(418.699936 0)"/>
       <use xlink:href="#STHeiti-30" transform="translate(474.09993 0)"/>
       <use xlink:href="#STHeiti-32" transform="translate(529.499924 0)"/>
       <use xlink:href="#STHeiti-35" transform="translate(584.899918 0)"/>
       <use xlink:href="#STHeiti-20" transform="translate(640.299911 0)"/>
       <use xlink:href="#STHeiti-47" transform="translate(665.299896 0)"/>
       <use xlink:href="#STHeiti-4d" transform="translate(752.499878 0)"/>
      </g>
     </g>
    </g>
   </g>
   <g id="matplotlib.axis_2">
    <g id="ytick_1">
     <g id="line2d_17">
      <path d="M 28.051563 258.487169 
L 701.023077 258.487169 
" clip-path="url(#p4bc3942def)" style="fill: none; stroke: #b0b0b0; stroke-opacity: 0.3; stroke-width: 0.8; stroke-linecap: square"/>
     </g>
     <g id="line2d_18">
      <defs>
       <path id="mcf14cf88ed" d="M 0 0 
L -3.5 0 
" style="stroke: #000000; stroke-width: 0.8"/>
      </defs>
      <g>
       <use xlink:href="#mcf14cf88ed" x="28.051563" y="258.487169" style="stroke: #000000; stroke-width: 0.8"/>
      </g>
     </g>
     <g id="text_9">
      <!-- 0.0 -->
      <g transform="translate(7.2 262.466856) scale(0.1 -0.1)">
       <defs>
        <path id="STHeiti-2e" d="M 582 685 
Q 582 845 697 957 
Q 813 1069 969 1069 
Q 1126 1069 1238 957 
Q 1350 845 1350 681 
Q 1350 518 1238 406 
Q 1126 294 969 294 
Q 813 294 697 409 
Q 582 525 582 685 
z
" transform="scale(0.015625)"/>
       </defs>
       <use xlink:href="#STHeiti-30"/>
       <use xlink:href="#STHeiti-2e" transform="translate(55.399994 0)"/>
       <use xlink:href="#STHeiti-30" transform="translate(83.099991 0)"/>
      </g>
     </g>
    </g>
    <g id="ytick_2">
     <g id="line2d_19">
      <path d="M 28.051563 223.815756 
L 701.023077 223.815756 
" clip-path="url(#p4bc3942def)" style="fill: none; stroke: #b0b0b0; stroke-opacity: 0.3; stroke-width: 0.8; stroke-linecap: square"/>
     </g>
     <g id="line2d_20">
      <g>
       <use xlink:href="#mcf14cf88ed" x="28.051563" y="223.815756" style="stroke: #000000; stroke-width: 0.8"/>
      </g>
     </g>
     <g id="text_10">
      <!-- 0.2 -->
      <g transform="translate(7.2 227.795443) scale(0.1 -0.1)">
       <use xlink:href="#STHeiti-30"/>
       <use xlink:href="#STHeiti-2e" transform="translate(55.399994 0)"/>
       <use xlink:href="#STHeiti-32" transform="translate(83.099991 0)"/>
      </g>
     </g>
    </g>
    <g id="ytick_3">
     <g id="line2d_21">
      <path d="M 28.051563 189.144343 
L 701.023077 189.144343 
" clip-path="url(#p4bc3942def)" style="fill: none; stroke: #b0b0b0; stroke-opacity: 0.3; stroke-width: 0.8; stroke-linecap: square"/>
     </g>
     <g id="line2d_22">
      <g>
       <use xlink:href="#mcf14cf88ed" x="28.051563" y="189.144343" style="stroke: #000000; stroke-width: 0.8"/>
      </g>
     </g>
     <g id="text_11">
      <!-- 0.4 -->
      <g transform="translate(7.2 193.12403) scale(0.1 -0.1)">
       <defs>
        <path id="STHeiti-34" d="M 2726 5094 
L 2816 5094 
L 2816 1894 
L 3373 1894 
L 3373 1453 
L 2816 1453 
L 2816 384 
L 2362 384 
L 2362 1453 
L 160 1453 
L 2726 5094 
z
M 2362 1894 
L 2362 3808 
L 1005 1894 
L 2362 1894 
z
" transform="scale(0.015625)"/>
       </defs>
       <use xlink:href="#STHeiti-30"/>
       <use xlink:href="#STHeiti-2e" transform="translate(55.399994 0)"/>
       <use xlink:href="#STHeiti-34" transform="translate(83.099991 0)"/>
      </g>
     </g>
    </g>
    <g id="ytick_4">
     <g id="line2d_23">
      <path d="M 28.051563 154.47293 
L 701.023077 154.47293 
" clip-path="url(#p4bc3942def)" style="fill: none; stroke: #b0b0b0; stroke-opacity: 0.3; stroke-width: 0.8; stroke-linecap: square"/>
     </g>
     <g id="line2d_24">
      <g>
       <use xlink:href="#mcf14cf88ed" x="28.051563" y="154.47293" style="stroke: #000000; stroke-width: 0.8"/>
      </g>
     </g>
     <g id="text_12">
      <!-- 0.6 -->
      <g transform="translate(7.2 158.452617) scale(0.1 -0.1)">
       <use xlink:href="#STHeiti-30"/>
       <use xlink:href="#STHeiti-2e" transform="translate(55.399994 0)"/>
       <use xlink:href="#STHeiti-36" transform="translate(83.099991 0)"/>
      </g>
     </g>
    </g>
    <g id="ytick_5">
     <g id="line2d_25">
      <path d="M 28.051563 119.801517 
L 701.023077 119.801517 
" clip-path="url(#p4bc3942def)" style="fill: none; stroke: #b0b0b0; stroke-opacity: 0.3; stroke-width: 0.8; stroke-linecap: square"/>
     </g>
     <g id="line2d_26">
      <g>
       <use xlink:href="#mcf14cf88ed" x="28.051563" y="119.801517" style="stroke: #000000; stroke-width: 0.8"/>
      </g>
     </g>
     <g id="text_13">
      <!-- 0.8 -->
      <g transform="translate(7.2 123.781204) scale(0.1 -0.1)">
       <defs>
        <path id="STHeiti-38" d="M 2458 2906 
Q 3328 2477 3328 1702 
Q 3328 1088 2896 678 
Q 2464 269 1763 269 
Q 1062 269 640 678 
Q 218 1088 218 1664 
Q 218 2470 1107 2906 
Q 435 3264 435 3898 
Q 435 4371 828 4732 
Q 1222 5094 1779 5094 
Q 2336 5094 2726 4742 
Q 3117 4390 3117 3885 
Q 3117 3270 2458 2906 
z
M 2656 3904 
Q 2656 4211 2416 4432 
Q 2176 4653 1789 4653 
Q 1402 4653 1152 4432 
Q 902 4211 902 3897 
Q 902 3584 1174 3337 
Q 1446 3091 1792 3091 
Q 2138 3091 2397 3334 
Q 2656 3578 2656 3904 
z
M 2867 1696 
Q 2867 2086 2550 2380 
Q 2234 2675 1782 2675 
Q 1331 2675 1004 2371 
Q 678 2067 678 1654 
Q 678 1242 979 973 
Q 1280 704 1766 704 
Q 2253 704 2560 992 
Q 2867 1280 2867 1696 
z
" transform="scale(0.015625)"/>
       </defs>
       <use xlink:href="#STHeiti-30"/>
       <use xlink:href="#STHeiti-2e" transform="translate(55.399994 0)"/>
       <use xlink:href="#STHeiti-38" transform="translate(83.099991 0)"/>
      </g>
     </g>
    </g>
    <g id="ytick_6">
     <g id="line2d_27">
      <path d="M 28.051563 85.130104 
L 701.023077 85.130104 
" clip-path="url(#p4bc3942def)" style="fill: none; stroke: #b0b0b0; stroke-opacity: 0.3; stroke-width: 0.8; stroke-linecap: square"/>
     </g>
     <g id="line2d_28">
      <g>
       <use xlink:href="#mcf14cf88ed" x="28.051563" y="85.130104" style="stroke: #000000; stroke-width: 0.8"/>
      </g>
     </g>
     <g id="text_14">
      <!-- 1.0 -->
      <g transform="translate(7.2 89.109791) scale(0.1 -0.1)">
       <defs>
        <path id="STHeiti-31" d="M 1184 4979 
L 2086 4979 
L 2086 384 
L 1632 384 
L 1632 4531 
L 909 4531 
L 1184 4979 
z
" transform="scale(0.015625)"/>
       </defs>
       <use xlink:href="#STHeiti-31"/>
       <use xlink:href="#STHeiti-2e" transform="translate(55.399994 0)"/>
       <use xlink:href="#STHeiti-30" transform="translate(83.099991 0)"/>
      </g>
     </g>
    </g>
    <g id="ytick_7">
     <g id="line2d_29">
      <path d="M 28.051563 50.45869 
L 701.023077 50.45869 
" clip-path="url(#p4bc3942def)" style="fill: none; stroke: #b0b0b0; stroke-opacity: 0.3; stroke-width: 0.8; stroke-linecap: square"/>
     </g>
     <g id="line2d_30">
      <g>
       <use xlink:href="#mcf14cf88ed" x="28.051563" y="50.45869" style="stroke: #000000; stroke-width: 0.8"/>
      </g>
     </g>
     <g id="text_15">
      <!-- 1.2 -->
      <g transform="translate(7.2 54.438378) scale(0.1 -0.1)">
       <use xlink:href="#STHeiti-31"/>
       <use xlink:href="#STHeiti-2e" transform="translate(55.399994 0)"/>
       <use xlink:href="#STHeiti-32" transform="translate(83.099991 0)"/>
      </g>
     </g>
    </g>
    <g id="text_16">
     <!-- 1e7 -->
     <g transform="translate(28.051563 15.159375) scale(0.1 -0.1)">
      <defs>
       <path id="STHeiti-65" d="M 3347 1485 
L 3718 1293 
Q 3168 269 2093 269 
Q 1325 269 825 797 
Q 326 1325 326 2067 
Q 326 2810 828 3341 
Q 1331 3872 2070 3872 
Q 2810 3872 3312 3379 
Q 3814 2886 3834 2035 
L 774 2035 
Q 794 1421 1162 1046 
Q 1530 672 2054 672 
Q 2918 672 3347 1485 
z
M 3347 2413 
Q 3258 2899 2899 3174 
Q 2541 3450 2074 3450 
Q 1114 3450 819 2413 
L 3347 2413 
z
" transform="scale(0.015625)"/>
       <path id="STHeiti-37" d="M 461 4979 
L 3373 4979 
L 915 269 
L 538 461 
L 2662 4544 
L 461 4544 
L 461 4979 
z
" transform="scale(0.015625)"/>
      </defs>
      <use xlink:href="#STHeiti-31"/>
      <use xlink:href="#STHeiti-65" transform="translate(55.399994 0)"/>
      <use xlink:href="#STHeiti-37" transform="translate(120.399979 0)"/>
     </g>
    </g>
   </g>
   <g id="line2d_31">
    <path d="M 58.641177 258.484408 
L 146.040075 258.486278 
L 233.438973 258.487023 
L 320.837871 258.48689 
L 408.236769 116.28216 
L 495.635667 258.425974 
L 583.034565 258.428072 
L 670.433462 258.486718 
" clip-path="url(#p4bc3942def)" style="fill: none; stroke: #1a365d; stroke-width: 2; stroke-linecap: square"/>
    <defs>
     <path id="mbcf6acf220" d="M 0 3 
C 0.795609 3 1.55874 2.683901 2.12132 2.12132 
C 2.683901 1.55874 3 0.795609 3 0 
C 3 -0.795609 2.683901 -1.55874 2.12132 -2.12132 
C 1.55874 -2.683901 0.795609 -3 0 -3 
C -0.795609 -3 -1.55874 -2.683901 -2.12132 -2.12132 
C -2.683901 -1.55874 -3 -0.795609 -3 0 
C -3 0.795609 -2.683901 1.55874 -2.12132 2.12132 
C -1.55874 2.683901 -0.795609 3 0 3 
z
" style="stroke: #1a365d"/>
    </defs>
    <g clip-path="url(#p4bc3942def)">
     <use xlink:href="#mbcf6acf220" x="58.641177" y="258.484408" style="fill: #1a365d; stroke: #1a365d"/>
     <use xlink:href="#mbcf6acf220" x="146.040075" y="258.486278" style="fill: #1a365d; stroke: #1a365d"/>
     <use xlink:href="#mbcf6acf220" x="233.438973" y="258.487023" style="fill: #1a365d; stroke: #1a365d"/>
     <use xlink:href="#mbcf6acf220" x="320.837871" y="258.48689" style="fill: #1a365d; stroke: #1a365d"/>
     <use xlink:href="#mbcf6acf220" x="408.236769" y="116.28216" style="fill: #1a365d; stroke: #1a365d"/>
     <use xlink:href="#mbcf6acf220" x="495.635667" y="258.425974" style="fill: #1a365d; stroke: #1a365d"/>
     <use xlink:href="#mbcf6acf220" x="583.034565" y="258.428072" style="fill: #1a365d; stroke: #1a365d"/>
     <use xlink:href="#mbcf6acf220" x="670.433462" y="258.486718" style="fill: #1a365d; stroke: #1a365d"/>
    </g>
   </g>
   <g id="line2d_32">
    <path d="M 58.641177 258.484727 
L 146.040075 258.486341 
L 233.438973 258.487035 
L 320.837871 258.486881 
L 408.236769 29.603575 
L 495.635667 258.440605 
L 583.034565 258.404582 
L 670.433462 258.486782 
" clip-path="url(#p4bc3942def)" style="fill: none; stroke: #d69e2e; stroke-width: 2; stroke-linecap: square"/>
    <defs>
     <path id="meaaa96dd6e" d="M 0 3 
C 0.795609 3 1.55874 2.683901 2.12132 2.12132 
C 2.683901 1.55874 3 0.795609 3 0 
C 3 -0.795609 2.683901 -1.55874 2.12132 -2.12132 
C 1.55874 -2.683901 0.795609 -3 0 -3 
C -0.795609 -3 -1.55874 -2.683901 -2.12132 -2.12132 
C -2.683901 -1.55874 -3 -0.795609 -3 0 
C -3 0.795609 -2.683901 1.55874 -2.12132 2.12132 
C -1.55874 2.683901 -0.795609 3 0 3 
z
" style="stroke: #d69e2e"/>
    </defs>
    <g clip-path="url(#p4bc3942def)">
     <use xlink:href="#meaaa96dd6e" x="58.641177" y="258.484727" style="fill: #d69e2e; stroke: #d69e2e"/>
     <use xlink:href="#meaaa96dd6e" x="146.040075" y="258.486341" style="fill: #d69e2e; stroke: #d69e2e"/>
     <use xlink:href="#meaaa96dd6e" x="233.438973" y="258.487035" style="fill: #d69e2e; stroke: #d69e2e"/>
     <use xlink:href="#meaaa96dd6e" x="320.837871" y="258.486881" style="fill: #d69e2e; stroke: #d69e2e"/>
     <use xlink:href="#meaaa96dd6e" x="408.236769" y="29.603575" style="fill: #d69e2e; stroke: #d69e2e"/>
     <use xlink:href="#meaaa96dd6e" x="495.635667" y="258.440605" style="fill: #d69e2e; stroke: #d69e2e"/>
     <use xlink:href="#meaaa96dd6e" x="583.034565" y="258.404582" style="fill: #d69e2e; stroke: #d69e2e"/>
     <use xlink:href="#meaaa96dd6e" x="670.433462" y="258.486782" style="fill: #d69e2e; stroke: #d69e2e"/>
    </g>
   </g>
   <g id="line2d_33">
    <path d="M 58.641177 258.48737 
L 146.040075 258.487292 
L 233.438973 258.487309 
L 320.837871 258.48716 
M 495.635667 258.487583 
L 583.034565 258.486481 
L 670.433462 258.487233 
" clip-path="url(#p4bc3942def)" style="fill: none; stroke: #38a169; stroke-width: 2; stroke-linecap: square"/>
    <defs>
     <path id="m6b87e768e7" d="M 0 3 
C 0.795609 3 1.55874 2.683901 2.12132 2.12132 
C 2.683901 1.55874 3 0.795609 3 0 
C 3 -0.795609 2.683901 -1.55874 2.12132 -2.12132 
C 1.55874 -2.683901 0.795609 -3 0 -3 
C -0.795609 -3 -1.55874 -2.683901 -2.12132 -2.12132 
C -2.683901 -1.55874 -3 -0.795609 -3 0 
C -3 0.795609 -2.683901 1.55874 -2.12132 2.12132 
C -1.55874 2.683901 -0.795609 3 0 3 
z
" style="stroke: #38a169"/>
    </defs>
    <g clip-path="url(#p4bc3942def)">
     <use xlink:href="#m6b87e768e7" x="58.641177" y="258.48737" style="fill: #38a169; stroke: #38a169"/>
     <use xlink:href="#m6b87e768e7" x="146.040075" y="258.487292" style="fill: #38a169; stroke: #38a169"/>
     <use xlink:href="#m6b87e768e7" x="233.438973" y="258.487309" style="fill: #38a169; stroke: #38a169"/>
     <use xlink:href="#m6b87e768e7" x="320.837871" y="258.48716" style="fill: #38a169; stroke: #38a169"/>
     <use xlink:href="#m6b87e768e7" x="495.635667" y="258.487583" style="fill: #38a169; stroke: #38a169"/>
     <use xlink:href="#m6b87e768e7" x="583.034565" y="258.486481" style="fill: #38a169; stroke: #38a169"/>
     <use xlink:href="#m6b87e768e7" x="670.433462" y="258.487233" style="fill: #38a169; stroke: #38a169"/>
    </g>
   </g>
   <g id="patch_3">
    <path d="M 28.051563 269.931784 
L 28.051563 18.159375 
" style="fill: none; stroke: #000000; stroke-width: 0.8; stroke-linejoin: miter; stroke-linecap: square"/>
   </g>
   <g id="patch_4">
    <path d="M 701.023077 269.931784 
L 701.023077 18.159375 
" style="fill: none; stroke: #000000; stroke-width: 0.8; stroke-linejoin: miter; stroke-linecap: square"/>
   </g>
   <g id="patch_5">
    <path d="M 28.051563 269.931784 
L 701.023077 269.931784 
" style="fill: none; stroke: #000000; stroke-width: 0.8; stroke-linejoin: miter; stroke-linecap: square"/>
   </g>
   <g id="patch_6">
    <path d="M 28.051563 18.159375 
L 701.023077 18.159375 
" style="fill: none; stroke: #000000; stroke-width: 0.8; stroke-linejoin: miter; stroke-linecap: square"/>
   </g>
   <g id="legend_1">
    <g id="patch_7">
     <path d="M 609.003702 63.969375 
L 694.723077 63.969375 
Q 696.523077 63.969375 696.523077 62.169375 
L 696.523077 24.459375 
Q 696.523077 22.659375 694.723077 22.659375 
L 609.003702 22.659375 
Q 607.203702 22.659375 607.203702 24.459375 
L 607.203702 62.169375 
Q 607.203702 63.969375 609.003702 63.969375 
z
" style="fill: #ffffff; opacity: 0.8; stroke: #cccccc; stroke-linejoin: miter"/>
    </g>
    <g id="line2d_34">
     <path d="M 610.803702 30.272812 
L 619.803702 30.272812 
L 628.803702 30.272812 
" style="fill: none; stroke: #1a365d; stroke-width: 2; stroke-linecap: square"/>
     <g>
      <use xlink:href="#mbcf6acf220" x="619.803702" y="30.272812" style="fill: #1a365d; stroke: #1a365d"/>
     </g>
    </g>
    <g id="text_17">
     <!-- 2025年12月版 -->
     <g transform="translate(636.003702 33.422812) scale(0.09 -0.09)">
      <defs>
       <path id="STHeiti-5e74" d="M 2125 4346 
L 3738 4346 
Q 5107 4346 5696 4397 
L 5696 3827 
Q 5088 3878 3770 3878 
L 3770 2886 
Q 4819 2893 5395 2938 
L 5395 2406 
Q 4602 2451 3770 2458 
L 3770 1338 
Q 5658 1338 6080 1395 
L 6080 819 
Q 5709 870 3770 877 
Q 3770 -26 3821 -704 
L 3174 -704 
Q 3226 -19 3226 877 
Q 973 877 371 819 
L 371 1395 
Q 730 1357 1466 1344 
L 1466 2349 
Q 1466 2682 1421 2938 
Q 2093 2886 3226 2886 
L 3226 3878 
L 1862 3878 
Q 1510 3277 1120 2803 
Q 922 2938 563 3040 
Q 973 3430 1341 4028 
Q 1709 4627 1907 5216 
Q 2234 5088 2426 5043 
Q 2618 4998 2618 4966 
Q 2618 4934 2522 4886 
Q 2426 4838 2125 4346 
z
M 3226 2458 
L 1984 2458 
L 1984 1338 
L 3226 1338 
L 3226 2458 
z
" transform="scale(0.015625)"/>
       <path id="STHeiti-6708" d="M 4710 1587 
L 2208 1587 
Q 2112 269 1235 -595 
Q 1005 -339 614 -237 
Q 1184 192 1430 800 
Q 1677 1408 1677 2509 
L 1677 4045 
Q 1677 4646 1651 4877 
Q 1978 4851 3501 4851 
Q 5024 4851 5331 4877 
Q 5306 4646 5306 4045 
L 5306 288 
Q 5306 -64 5245 -205 
Q 5184 -346 4969 -416 
Q 4755 -486 4211 -538 
Q 4211 -160 3930 173 
Q 4294 109 4457 109 
Q 4621 109 4665 214 
Q 4710 320 4710 659 
L 4710 1587 
z
M 2227 3443 
L 4710 3443 
L 4710 4371 
L 2227 4371 
L 2227 3443 
z
M 4710 2995 
L 2227 2995 
L 2227 2054 
L 4710 2054 
L 4710 2995 
z
" transform="scale(0.015625)"/>
       <path id="STHeiti-7248" d="M 1190 2880 
Q 1190 2349 1184 2150 
L 1914 2150 
Q 2202 2150 2381 2176 
Q 2355 2061 2355 1760 
L 2355 838 
Q 2355 416 2381 90 
L 1850 90 
Q 1888 378 1888 838 
L 1888 1779 
L 1171 1779 
Q 1146 1062 1059 556 
Q 973 51 730 -582 
Q 570 -384 326 -230 
Q 621 544 672 1309 
Q 723 2074 723 3197 
Q 723 4320 698 4730 
Q 896 4698 1056 4698 
L 1229 4704 
Q 1293 4704 1293 4678 
Q 1293 4653 1261 4614 
Q 1190 4518 1190 3309 
L 1798 3309 
L 1798 4378 
Q 1798 4870 1779 5114 
Q 2086 5056 2342 5056 
Q 2432 5056 2432 5014 
Q 2432 4973 2387 4947 
Q 2266 4877 2266 4723 
L 2266 3309 
Q 2560 3309 2746 3341 
L 2746 2848 
Q 2573 2880 2118 2880 
L 1190 2880 
z
M 3635 3053 
L 3450 3053 
Q 3437 1658 3296 931 
Q 3155 205 2656 -557 
Q 2477 -390 2163 -326 
Q 2720 294 2848 1222 
Q 2976 2150 2976 3520 
Q 2976 4294 2925 4698 
Q 3693 4691 4419 4780 
Q 5146 4870 5581 5030 
Q 5626 4870 5712 4707 
Q 5798 4544 5859 4483 
Q 5920 4422 5920 4393 
Q 5920 4365 5885 4365 
Q 5850 4365 5818 4371 
Q 5741 4390 5517 4390 
Q 5293 4390 5005 4352 
Q 4179 4243 3450 4250 
L 3450 3462 
L 4730 3462 
Q 5402 3462 5741 3520 
Q 5446 1472 4941 717 
Q 5523 166 6195 58 
Q 5965 -205 5875 -544 
Q 5107 -173 4646 339 
Q 4186 -160 3590 -576 
Q 3488 -371 3174 -173 
Q 3846 134 4339 698 
Q 3808 1677 3635 3053 
z
M 4096 3053 
Q 4134 2522 4281 1971 
Q 4429 1421 4621 1075 
Q 4992 1728 5152 3053 
L 4096 3053 
z
" transform="scale(0.015625)"/>
      </defs>
      <use xlink:href="#STHeiti-32"/>
      <use xlink:href="#STHeiti-30" transform="translate(55.399994 0)"/>
      <use xlink:href="#STHeiti-32" transform="translate(110.799988 0)"/>
      <use xlink:href="#STHeiti-35" transform="translate(166.199982 0)"/>
      <use xlink:href="#STHeiti-5e74" transform="translate(221.599976 0)"/>
      <use xlink:href="#STHeiti-31" transform="translate(321.59996 0)"/>
      <use xlink:href="#STHeiti-32" transform="translate(376.999954 0)"/>
      <use xlink:href="#STHeiti-6708" transform="translate(432.399948 0)"/>
      <use xlink:href="#STHeiti-7248" transform="translate(532.399933 0)"/>
     </g>
    </g>
    <g id="line2d_35">
     <path d="M 610.803702 43.142812 
L 619.803702 43.142812 
L 628.803702 43.142812 
" style="fill: none; stroke: #d69e2e; stroke-width: 2; stroke-linecap: square"/>
     <g>
      <use xlink:href="#meaaa96dd6e" x="619.803702" y="43.142812" style="fill: #d69e2e; stroke: #d69e2e"/>
     </g>
    </g>
    <g id="text_18">
     <!-- 2026年5月版 -->
     <g transform="translate(636.003702 46.292812) scale(0.09 -0.09)">
      <use xlink:href="#STHeiti-32"/>
      <use xlink:href="#STHeiti-30" transform="translate(55.399994 0)"/>
      <use xlink:href="#STHeiti-32" transform="translate(110.799988 0)"/>
      <use xlink:href="#STHeiti-36" transform="translate(166.199982 0)"/>
      <use xlink:href="#STHeiti-5e74" transform="translate(221.599976 0)"/>
      <use xlink:href="#STHeiti-35" transform="translate(321.59996 0)"/>
      <use xlink:href="#STHeiti-6708" transform="translate(376.999954 0)"/>
      <use xlink:href="#STHeiti-7248" transform="translate(476.999939 0)"/>
     </g>
    </g>
    <g id="line2d_36">
     <path d="M 610.803702 56.012812 
L 619.803702 56.012812 
L 628.803702 56.012812 
" style="fill: none; stroke: #38a169; stroke-width: 2; stroke-linecap: square"/>
     <g>
      <use xlink:href="#m6b87e768e7" x="619.803702" y="56.012812" style="fill: #38a169; stroke: #38a169"/>
     </g>
    </g>
    <g id="text_19">
     <!-- 变动幅度 -->
     <g transform="translate(636.003702 59.162812) scale(0.09 -0.09)">
      <defs>
       <path id="STHeiti-53d8" d="M 2272 4058 
Q 1350 4058 602 3987 
L 602 4563 
Q 1555 4493 2957 4493 
Q 2867 4832 2694 5056 
L 3302 5210 
Q 3437 4768 3507 4493 
Q 4922 4493 5869 4563 
L 5869 3987 
Q 5152 4058 4045 4058 
L 4045 2842 
Q 4045 2470 4083 2208 
L 3507 2208 
Q 3546 2470 3546 2842 
L 3546 4058 
L 2752 4058 
L 2752 2842 
Q 2752 2470 2790 2208 
L 2240 2208 
Q 2272 2483 2272 2842 
L 2272 4058 
z
M 1446 3808 
Q 1568 3680 1894 3514 
Q 1952 3482 1952 3446 
Q 1952 3411 1881 3398 
Q 1811 3386 1635 3194 
Q 1459 3002 890 2304 
Q 774 2464 416 2637 
Q 1018 3072 1446 3808 
z
M 5946 2650 
L 5478 2285 
Q 4877 3040 4346 3411 
L 4710 3744 
Q 5453 3181 5946 2650 
z
M 1459 1587 
Q 1280 1581 941 1549 
L 941 2086 
Q 1466 2022 3078 2022 
Q 4691 2022 5210 2086 
Q 4730 1107 3616 397 
Q 4499 83 5523 83 
Q 5741 83 5958 96 
Q 5715 -160 5594 -512 
Q 4358 -410 3136 122 
Q 2061 -384 736 -582 
Q 672 -282 429 -32 
Q 1696 -13 2624 378 
Q 2061 717 1459 1587 
z
M 2003 1594 
Q 2451 966 3110 608 
Q 3936 1030 4275 1594 
L 2003 1594 
z
" transform="scale(0.015625)"/>
       <path id="STHeiti-52a8" d="M 3994 3917 
Q 4006 4192 4006 4569 
Q 4006 4947 3955 5222 
Q 4288 5133 4627 5133 
Q 4736 5133 4736 5101 
Q 4736 5069 4672 4998 
Q 4608 4928 4566 4707 
Q 4525 4486 4493 3923 
Q 5523 3955 5939 4026 
Q 5856 3706 5837 3245 
L 5728 806 
Q 5702 294 5616 51 
Q 5530 -192 5312 -304 
Q 5094 -416 4614 -493 
Q 4550 -109 4262 205 
Q 4486 186 4713 186 
Q 4941 186 5062 278 
Q 5184 371 5197 627 
L 5363 3501 
L 4467 3501 
Q 4378 1638 4058 896 
Q 3738 154 2784 -557 
Q 2586 -294 2163 -173 
Q 3187 346 3523 954 
Q 3859 1562 3968 3494 
Q 3392 3475 2874 3411 
L 2874 3962 
Q 3245 3917 3994 3917 
z
M 2803 3994 
Q 2426 4045 1712 4045 
Q 998 4045 698 3994 
L 698 4557 
Q 986 4499 1712 4499 
Q 2438 4499 2803 4550 
L 2803 3994 
z
M 1350 2682 
Q 614 2662 358 2630 
L 358 3155 
Q 749 3098 1593 3098 
Q 2438 3098 2957 3149 
L 2957 2630 
Q 2470 2675 1907 2682 
Q 1363 1242 1126 890 
L 2445 1197 
Q 2266 1632 2138 1830 
L 2592 2042 
Q 2758 1581 3194 723 
L 2682 480 
Q 2656 602 2579 826 
Q 1030 448 659 141 
Q 570 461 384 768 
Q 595 851 723 1049 
Q 851 1248 1059 1789 
Q 1267 2330 1350 2682 
z
" transform="scale(0.015625)"/>
       <path id="STHeiti-5e45" d="M 1286 4058 
Q 1286 4781 1248 5203 
Q 1530 5165 1805 5165 
Q 1920 5165 1920 5126 
Q 1920 5088 1827 5033 
Q 1734 4979 1734 4858 
L 1734 4058 
Q 2080 4058 2598 4083 
L 2598 998 
Q 2598 794 2480 707 
Q 2362 621 1997 570 
Q 1984 787 1818 1062 
Q 1926 1050 2003 1050 
Q 2080 1050 2115 1088 
Q 2150 1126 2150 1280 
L 2150 3674 
L 1734 3674 
L 1734 538 
Q 1734 -102 1786 -582 
L 1242 -582 
Q 1286 -64 1286 538 
L 1286 3674 
L 922 3674 
L 922 531 
L 442 531 
Q 474 947 474 1434 
L 474 4083 
Q 774 4070 1286 4058 
z
M 5958 4314 
Q 5408 4371 4393 4371 
Q 3379 4371 2829 4314 
L 2829 4832 
Q 3379 4774 4393 4774 
Q 5408 4774 5958 4832 
L 5958 4314 
z
M 5555 2573 
Q 5094 2605 4361 2605 
Q 3629 2605 3168 2573 
Q 3187 2938 3187 3258 
Q 3187 3578 3168 3942 
Q 3584 3904 4361 3904 
Q 5139 3904 5555 3942 
Q 5536 3578 5536 3258 
Q 5536 2938 5555 2573 
z
M 5146 2976 
L 5146 3514 
L 3590 3514 
L 3590 2976 
L 5146 2976 
z
M 3373 -275 
L 3373 -582 
L 2899 -582 
Q 2925 -333 2925 115 
L 2925 1587 
Q 2925 1888 2893 2202 
Q 3411 2170 4371 2170 
Q 5331 2170 5843 2202 
Q 5811 1958 5811 1587 
L 5811 179 
Q 5811 -269 5837 -518 
L 5363 -518 
L 5363 -275 
L 3373 -275 
z
M 4122 1798 
L 3373 1798 
L 3373 1120 
L 4122 1120 
L 4122 1798 
z
M 5363 1120 
L 5363 1798 
L 4550 1798 
L 4550 1120 
L 5363 1120 
z
M 3373 768 
L 3373 102 
L 4122 102 
L 4122 768 
L 3373 768 
z
M 5363 102 
L 5363 768 
L 4550 768 
L 4550 102 
L 5363 102 
z
" transform="scale(0.015625)"/>
       <path id="STHeiti-5ea6" d="M 3661 4557 
Q 5344 4563 5779 4614 
L 5779 4090 
Q 5133 4147 4275 4147 
L 1510 4147 
Q 1542 3526 1542 2995 
Q 1542 1786 1379 931 
Q 1216 77 858 -557 
Q 608 -294 326 -160 
Q 685 352 851 1081 
Q 1018 1811 1018 2726 
Q 1018 3642 934 4614 
Q 1446 4563 3059 4557 
Q 3008 4806 2854 5101 
L 3437 5210 
Q 3533 4909 3661 4557 
z
M 2522 3430 
Q 2515 3840 2464 3987 
Q 2707 3923 2938 3923 
L 3053 3930 
Q 3091 3930 3091 3907 
Q 3091 3885 3059 3846 
Q 2989 3770 2982 3430 
L 4269 3430 
Q 4269 3898 4230 4045 
Q 4454 3974 4685 3974 
L 4845 3987 
Q 4877 3987 4877 3968 
Q 4877 3949 4838 3910 
Q 4774 3840 4768 3430 
Q 5472 3437 5888 3482 
L 5888 3014 
Q 5421 3066 4768 3072 
L 4768 2746 
Q 4768 2336 4813 2086 
Q 4538 2138 3658 2138 
Q 2778 2138 2477 2086 
Q 2522 2387 2522 2707 
L 2522 3066 
Q 2074 3059 1773 3014 
L 1773 3482 
Q 2080 3437 2522 3430 
z
M 2982 3072 
L 2982 2522 
L 4269 2522 
L 4269 3072 
L 2982 3072 
z
M 2336 1382 
Q 1997 1363 1843 1344 
L 1843 1824 
Q 2541 1766 3574 1766 
Q 4608 1766 5267 1824 
Q 4787 851 4090 365 
Q 4832 83 5760 83 
Q 5907 83 6067 90 
Q 5824 -192 5779 -557 
Q 4499 -422 3629 64 
Q 2976 -307 1869 -582 
Q 1773 -326 1459 -26 
Q 2278 13 3168 358 
Q 2707 723 2336 1382 
z
M 2880 1389 
Q 3162 877 3622 582 
Q 4147 928 4435 1389 
L 2880 1389 
z
" transform="scale(0.015625)"/>
      </defs>
      <use xlink:href="#STHeiti-53d8"/>
      <use xlink:href="#STHeiti-52a8" transform="translate(99.999985 0)"/>
      <use xlink:href="#STHeiti-5e45" transform="translate(199.999969 0)"/>
      <use xlink:href="#STHeiti-5ea6" transform="translate(299.999954 0)"/>
     </g>
    </g>
   </g>
  </g>
 </g>
 <defs>
  <clipPath id="p4bc3942def">
   <rect x="28.051563" y="18.159375" width="672.971514" height="251.772409"/>
  </clipPath>
 </defs>
</svg>
