<?xml version="1.0" encoding="utf-8" standalone="no"?>
<!DOCTYPE svg PUBLIC "-//W3C//DTD SVG 1.1//EN"
  "http://www.w3.org/Graphics/SVG/1.1/DTD/svg11.dtd">
<svg xmlns:xlink="http://www.w3.org/1999/xlink" width="712.81125pt" height="352.198869pt" viewBox="0 0 712.81125 352.198869" xmlns="http://www.w3.org/2000/svg" version="1.1">
 <metadata>
  <rdf:RDF xmlns:dc="http://purl.org/dc/elements/1.1/" xmlns:cc="http://creativecommons.org/ns#" xmlns:rdf="http://www.w3.org/1999/02/22-rdf-syntax-ns#">
   <cc:Work>
    <dc:type rdf:resource="http://purl.org/dc/dcmitype/StillImage"/>
    <dc:date>2026-06-05T16:34:11.043366</dc:date>
    <dc:format>image/svg+xml</dc:format>
    <dc:creator>
     <cc:Agent>
      <dc:title>Matplotlib v3.10.9, https://matplotlib.org/</dc:title>
     </cc:Agent>
    </dc:creator>
   </cc:Work>
  </rdf:RDF>
 </metadata>
 <defs>
  <style type="text/css">*{stroke-linejoin: round; stroke-linecap: butt}</style>
 </defs>
 <g id="figure_1">
  <g id="patch_1">
   <path d="M 0 352.198869 
L 712.81125 352.198869 
L 712.81125 0 
L 0 0 
z
" style="fill: #ffffff"/>
  </g>
  <g id="axes_1">
   <g id="patch_2">
    <path d="M 25.28125 308.855464 
L 705.61125 308.855464 
L 705.61125 7.2 
L 25.28125 7.2 
z
" style="fill: #fafafa"/>
   </g>
   <g id="matplotlib.axis_1">
    <g id="xtick_1">
     <g id="line2d_1">
      <path d="M 56.205341 308.855464 
L 56.205341 7.2 
" clip-path="url(#p6c3abe44cd)" style="fill: none; stroke: #b0b0b0; stroke-opacity: 0.3; stroke-width: 0.8; stroke-linecap: square"/>
     </g>
     <g id="line2d_2">
      <defs>
       <path id="m687a7dac0e" d="M 0 0 
L 0 3.5 
" style="stroke: #000000; stroke-width: 0.8"/>
      </defs>
      <g>
       <use xlink:href="#m687a7dac0e" x="56.205341" y="308.855464" style="stroke: #000000; stroke-width: 0.8"/>
      </g>
     </g>
     <g id="text_1">
      <!-- 2019年前 -->
      <g transform="translate(19.021232 343.837854) rotate(-30) scale(0.1 -0.1)">
       <defs>
        <path id="STHeiti-32" d="M 742 3539 
L 301 3539 
Q 333 4243 768 4668 
Q 1203 5094 1820 5094 
Q 2438 5094 2844 4694 
Q 3251 4294 3251 3718 
Q 3251 3290 3024 2925 
Q 2797 2560 2336 2061 
L 1190 826 
L 3315 826 
L 3315 384 
L 192 384 
L 1946 2278 
Q 2406 2778 2604 3066 
Q 2803 3354 2803 3725 
Q 2803 4096 2512 4377 
Q 2221 4659 1789 4659 
Q 1357 4659 1072 4368 
Q 787 4077 742 3539 
z
" transform="scale(0.015625)"/>
        <path id="STHeiti-30" d="M 1747 269 
Q 1005 269 605 880 
Q 205 1491 205 2681 
Q 205 3872 605 4483 
Q 1005 5094 1741 5094 
Q 2477 5094 2909 4470 
Q 3341 3846 3341 2681 
Q 3341 1517 2905 893 
Q 2470 269 1747 269 
z
M 1760 4659 
Q 1229 4659 934 4147 
Q 640 3635 640 2669 
Q 640 685 1760 685 
Q 2304 685 2608 1206 
Q 2912 1728 2912 2681 
Q 2912 3635 2598 4147 
Q 2285 4659 1760 4659 
z
" transform="scale(0.015625)"/>
        <path id="STHeiti-31" d="M 1184 4979 
L 2086 4979 
L 2086 384 
L 1632 384 
L 1632 4531 
L 909 4531 
L 1184 4979 
z
" transform="scale(0.015625)"/>
        <path id="STHeiti-39" d="M 1229 269 
L 851 512 
L 2093 2394 
Q 1850 2310 1613 2310 
Q 1062 2310 688 2707 
Q 314 3104 314 3696 
Q 314 4288 730 4691 
Q 1146 5094 1750 5094 
Q 2355 5094 2748 4681 
Q 3142 4269 3142 3693 
Q 3142 3373 3011 3049 
Q 2880 2726 2624 2349 
L 1229 269 
z
M 762 3680 
Q 762 3277 1043 2995 
Q 1325 2714 1728 2714 
Q 2131 2714 2412 2998 
Q 2694 3283 2694 3680 
Q 2694 4077 2412 4361 
Q 2131 4646 1728 4646 
Q 1325 4646 1043 4364 
Q 762 4083 762 3680 
z
" transform="scale(0.015625)"/>
        <path id="STHeiti-5e74" d="M 2125 4346 
L 3738 4346 
Q 5107 4346 5696 4397 
L 5696 3827 
Q 5088 3878 3770 3878 
L 3770 2886 
Q 4819 2893 5395 2938 
L 5395 2406 
Q 4602 2451 3770 2458 
L 3770 1338 
Q 5658 1338 6080 1395 
L 6080 819 
Q 5709 870 3770 877 
Q 3770 -26 3821 -704 
L 3174 -704 
Q 3226 -19 3226 877 
Q 973 877 371 819 
L 371 1395 
Q 730 1357 1466 1344 
L 1466 2349 
Q 1466 2682 1421 2938 
Q 2093 2886 3226 2886 
L 3226 3878 
L 1862 3878 
Q 1510 3277 1120 2803 
Q 922 2938 563 3040 
Q 973 3430 1341 4028 
Q 1709 4627 1907 5216 
Q 2234 5088 2426 5043 
Q 2618 4998 2618 4966 
Q 2618 4934 2522 4886 
Q 2426 4838 2125 4346 
z
M 3226 2458 
L 1984 2458 
L 1984 1338 
L 3226 1338 
L 3226 2458 
z
" transform="scale(0.015625)"/>
        <path id="STHeiti-524d" d="M 2746 4576 
L 2125 4333 
Q 2003 4685 1741 4992 
L 2310 5254 
Q 2496 4941 2746 4576 
z
M 4128 4218 
Q 5344 4237 6035 4282 
L 6035 3718 
Q 5094 3782 3238 3782 
Q 1382 3782 442 3718 
L 442 4282 
Q 1382 4218 2458 4218 
L 3565 4218 
Q 3834 4691 4058 5254 
Q 4442 5075 4710 5011 
Q 4762 4998 4762 4969 
Q 4762 4941 4672 4902 
Q 4486 4813 4128 4218 
z
M 4832 3405 
Q 5037 3379 5216 3379 
L 5440 3386 
Q 5536 3386 5536 3350 
Q 5536 3315 5472 3273 
Q 5408 3232 5408 3130 
L 5408 -6 
Q 5408 -243 5344 -361 
Q 5280 -480 5069 -550 
Q 4858 -621 4403 -666 
Q 4371 -314 4173 6 
Q 4474 -45 4634 -45 
Q 4896 -45 4896 115 
L 4896 2611 
Q 4896 3162 4832 3405 
z
M 1408 762 
L 1408 -563 
L 870 -563 
Q 928 122 928 550 
L 928 2592 
Q 928 3034 883 3283 
Q 1434 3238 2080 3238 
Q 2726 3238 3258 3283 
Q 3213 2957 3213 2592 
L 3213 58 
Q 3213 -218 3171 -330 
Q 3130 -442 2966 -499 
Q 2803 -557 2394 -602 
Q 2323 -307 2118 26 
Q 2394 -19 2506 -19 
Q 2618 -19 2666 25 
Q 2714 70 2714 205 
L 2714 762 
L 1408 762 
z
M 2714 2202 
L 2714 2803 
L 1408 2803 
L 1408 2202 
L 2714 2202 
z
M 1408 1786 
L 1408 1184 
L 2714 1184 
L 2714 1786 
L 1408 1786 
z
M 3750 3085 
Q 3987 3034 4314 3034 
Q 4397 3034 4397 2995 
Q 4397 2957 4339 2915 
Q 4282 2874 4282 2739 
L 4282 1338 
Q 4282 979 4320 531 
L 3750 531 
Q 3789 1005 3789 1338 
L 3789 2381 
Q 3789 2848 3750 3085 
z
" transform="scale(0.015625)"/>
       </defs>
       <use xlink:href="#STHeiti-32"/>
       <use xlink:href="#STHeiti-30" transform="translate(55.399994 0)"/>
       <use xlink:href="#STHeiti-31" transform="translate(110.799988 0)"/>
       <use xlink:href="#STHeiti-39" transform="translate(166.199982 0)"/>
       <use xlink:href="#STHeiti-5e74" transform="translate(221.599976 0)"/>
       <use xlink:href="#STHeiti-524d" transform="translate(321.59996 0)"/>
      </g>
     </g>
    </g>
    <g id="xtick_2">
     <g id="line2d_3">
      <path d="M 262.365947 308.855464 
L 262.365947 7.2 
" clip-path="url(#p6c3abe44cd)" style="fill: none; stroke: #b0b0b0; stroke-opacity: 0.3; stroke-width: 0.8; stroke-linecap: square"/>
     </g>
     <g id="line2d_4">
      <g>
       <use xlink:href="#m687a7dac0e" x="262.365947" y="308.855464" style="stroke: #000000; stroke-width: 0.8"/>
      </g>
     </g>
     <g id="text_2">
      <!-- 2020 -->
      <g transform="translate(242.502346 333.829735) rotate(-30) scale(0.1 -0.1)">
       <use xlink:href="#STHeiti-32"/>
       <use xlink:href="#STHeiti-30" transform="translate(55.399994 0)"/>
       <use xlink:href="#STHeiti-32" transform="translate(110.799988 0)"/>
       <use xlink:href="#STHeiti-30" transform="translate(166.199982 0)"/>
      </g>
     </g>
    </g>
    <g id="xtick_3">
     <g id="line2d_5">
      <path d="M 468.526553 308.855464 
L 468.526553 7.2 
" clip-path="url(#p6c3abe44cd)" style="fill: none; stroke: #b0b0b0; stroke-opacity: 0.3; stroke-width: 0.8; stroke-linecap: square"/>
     </g>
     <g id="line2d_6">
      <g>
       <use xlink:href="#m687a7dac0e" x="468.526553" y="308.855464" style="stroke: #000000; stroke-width: 0.8"/>
      </g>
     </g>
     <g id="text_3">
      <!-- 2021 -->
      <g transform="translate(448.662953 333.829735) rotate(-30) scale(0.1 -0.1)">
       <use xlink:href="#STHeiti-32"/>
       <use xlink:href="#STHeiti-30" transform="translate(55.399994 0)"/>
       <use xlink:href="#STHeiti-32" transform="translate(110.799988 0)"/>
       <use xlink:href="#STHeiti-31" transform="translate(166.199982 0)"/>
      </g>
     </g>
    </g>
    <g id="xtick_4">
     <g id="line2d_7">
      <path d="M 674.687159 308.855464 
L 674.687159 7.2 
" clip-path="url(#p6c3abe44cd)" style="fill: none; stroke: #b0b0b0; stroke-opacity: 0.3; stroke-width: 0.8; stroke-linecap: square"/>
     </g>
     <g id="line2d_8">
      <g>
       <use xlink:href="#m687a7dac0e" x="674.687159" y="308.855464" style="stroke: #000000; stroke-width: 0.8"/>
      </g>
     </g>
     <g id="text_4">
      <!-- 2022 -->
      <g transform="translate(654.823559 333.829735) rotate(-30) scale(0.1 -0.1)">
       <use xlink:href="#STHeiti-32"/>
       <use xlink:href="#STHeiti-30" transform="translate(55.399994 0)"/>
       <use xlink:href="#STHeiti-32" transform="translate(110.799988 0)"/>
       <use xlink:href="#STHeiti-32" transform="translate(166.199982 0)"/>
      </g>
     </g>
    </g>
   </g>
   <g id="matplotlib.axis_2">
    <g id="ytick_1">
     <g id="line2d_9">
      <path d="M 25.28125 295.143852 
L 705.61125 295.143852 
" clip-path="url(#p6c3abe44cd)" style="fill: none; stroke: #b0b0b0; stroke-opacity: 0.3; stroke-width: 0.8; stroke-linecap: square"/>
     </g>
     <g id="line2d_10">
      <defs>
       <path id="m638472cb33" d="M 0 0 
L -3.5 0 
" style="stroke: #000000; stroke-width: 0.8"/>
      </defs>
      <g>
       <use xlink:href="#m638472cb33" x="25.28125" y="295.143852" style="stroke: #000000; stroke-width: 0.8"/>
      </g>
     </g>
     <g id="text_5">
      <!-- 0 -->
      <g transform="translate(12.740625 299.123539) scale(0.1 -0.1)">
       <use xlink:href="#STHeiti-30"/>
      </g>
     </g>
    </g>
    <g id="ytick_2">
     <g id="line2d_11">
      <path d="M 25.28125 259.781861 
L 705.61125 259.781861 
" clip-path="url(#p6c3abe44cd)" style="fill: none; stroke: #b0b0b0; stroke-opacity: 0.3; stroke-width: 0.8; stroke-linecap: square"/>
     </g>
     <g id="line2d_12">
      <g>
       <use xlink:href="#m638472cb33" x="25.28125" y="259.781861" style="stroke: #000000; stroke-width: 0.8"/>
      </g>
     </g>
     <g id="text_6">
      <!-- 2 -->
      <g transform="translate(12.740625 263.761548) scale(0.1 -0.1)">
       <use xlink:href="#STHeiti-32"/>
      </g>
     </g>
    </g>
    <g id="ytick_3">
     <g id="line2d_13">
      <path d="M 25.28125 224.41987 
L 705.61125 224.41987 
" clip-path="url(#p6c3abe44cd)" style="fill: none; stroke: #b0b0b0; stroke-opacity: 0.3; stroke-width: 0.8; stroke-linecap: square"/>
     </g>
     <g id="line2d_14">
      <g>
       <use xlink:href="#m638472cb33" x="25.28125" y="224.41987" style="stroke: #000000; stroke-width: 0.8"/>
      </g>
     </g>
     <g id="text_7">
      <!-- 4 -->
      <g transform="translate(12.740625 228.399558) scale(0.1 -0.1)">
       <defs>
        <path id="STHeiti-34" d="M 2726 5094 
L 2816 5094 
L 2816 1894 
L 3373 1894 
L 3373 1453 
L 2816 1453 
L 2816 384 
L 2362 384 
L 2362 1453 
L 160 1453 
L 2726 5094 
z
M 2362 1894 
L 2362 3808 
L 1005 1894 
L 2362 1894 
z
" transform="scale(0.015625)"/>
       </defs>
       <use xlink:href="#STHeiti-34"/>
      </g>
     </g>
    </g>
    <g id="ytick_4">
     <g id="line2d_15">
      <path d="M 25.28125 189.057879 
L 705.61125 189.057879 
" clip-path="url(#p6c3abe44cd)" style="fill: none; stroke: #b0b0b0; stroke-opacity: 0.3; stroke-width: 0.8; stroke-linecap: square"/>
     </g>
     <g id="line2d_16">
      <g>
       <use xlink:href="#m638472cb33" x="25.28125" y="189.057879" style="stroke: #000000; stroke-width: 0.8"/>
      </g>
     </g>
     <g id="text_8">
      <!-- 6 -->
      <g transform="translate(12.740625 193.037567) scale(0.1 -0.1)">
       <defs>
        <path id="STHeiti-36" d="M 2349 5094 
L 2726 4851 
L 1485 2970 
Q 1747 3059 1984 3059 
Q 2496 3059 2880 2652 
Q 3264 2246 3264 1660 
Q 3264 1075 2845 672 
Q 2426 269 1827 269 
Q 1229 269 829 678 
Q 429 1088 429 1677 
Q 429 1958 537 2256 
Q 646 2554 954 3014 
L 2349 5094 
z
M 2810 1683 
Q 2810 2086 2528 2368 
Q 2246 2650 1843 2650 
Q 1440 2650 1158 2368 
Q 877 2086 877 1683 
Q 877 1280 1161 998 
Q 1446 717 1843 717 
Q 2240 717 2525 998 
Q 2810 1280 2810 1683 
z
" transform="scale(0.015625)"/>
       </defs>
       <use xlink:href="#STHeiti-36"/>
      </g>
     </g>
    </g>
    <g id="ytick_5">
     <g id="line2d_17">
      <path d="M 25.28125 153.695888 
L 705.61125 153.695888 
" clip-path="url(#p6c3abe44cd)" style="fill: none; stroke: #b0b0b0; stroke-opacity: 0.3; stroke-width: 0.8; stroke-linecap: square"/>
     </g>
     <g id="line2d_18">
      <g>
       <use xlink:href="#m638472cb33" x="25.28125" y="153.695888" style="stroke: #000000; stroke-width: 0.8"/>
      </g>
     </g>
     <g id="text_9">
      <!-- 8 -->
      <g transform="translate(12.740625 157.675576) scale(0.1 -0.1)">
       <defs>
        <path id="STHeiti-38" d="M 2458 2906 
Q 3328 2477 3328 1702 
Q 3328 1088 2896 678 
Q 2464 269 1763 269 
Q 1062 269 640 678 
Q 218 1088 218 1664 
Q 218 2470 1107 2906 
Q 435 3264 435 3898 
Q 435 4371 828 4732 
Q 1222 5094 1779 5094 
Q 2336 5094 2726 4742 
Q 3117 4390 3117 3885 
Q 3117 3270 2458 2906 
z
M 2656 3904 
Q 2656 4211 2416 4432 
Q 2176 4653 1789 4653 
Q 1402 4653 1152 4432 
Q 902 4211 902 3897 
Q 902 3584 1174 3337 
Q 1446 3091 1792 3091 
Q 2138 3091 2397 3334 
Q 2656 3578 2656 3904 
z
M 2867 1696 
Q 2867 2086 2550 2380 
Q 2234 2675 1782 2675 
Q 1331 2675 1004 2371 
Q 678 2067 678 1654 
Q 678 1242 979 973 
Q 1280 704 1766 704 
Q 2253 704 2560 992 
Q 2867 1280 2867 1696 
z
" transform="scale(0.015625)"/>
       </defs>
       <use xlink:href="#STHeiti-38"/>
      </g>
     </g>
    </g>
    <g id="ytick_6">
     <g id="line2d_19">
      <path d="M 25.28125 118.333897 
L 705.61125 118.333897 
" clip-path="url(#p6c3abe44cd)" style="fill: none; stroke: #b0b0b0; stroke-opacity: 0.3; stroke-width: 0.8; stroke-linecap: square"/>
     </g>
     <g id="line2d_20">
      <g>
       <use xlink:href="#m638472cb33" x="25.28125" y="118.333897" style="stroke: #000000; stroke-width: 0.8"/>
      </g>
     </g>
     <g id="text_10">
      <!-- 10 -->
      <g transform="translate(7.2 122.313585) scale(0.1 -0.1)">
       <use xlink:href="#STHeiti-31"/>
       <use xlink:href="#STHeiti-30" transform="translate(55.399994 0)"/>
      </g>
     </g>
    </g>
    <g id="ytick_7">
     <g id="line2d_21">
      <path d="M 25.28125 82.971906 
L 705.61125 82.971906 
" clip-path="url(#p6c3abe44cd)" style="fill: none; stroke: #b0b0b0; stroke-opacity: 0.3; stroke-width: 0.8; stroke-linecap: square"/>
     </g>
     <g id="line2d_22">
      <g>
       <use xlink:href="#m638472cb33" x="25.28125" y="82.971906" style="stroke: #000000; stroke-width: 0.8"/>
      </g>
     </g>
     <g id="text_11">
      <!-- 12 -->
      <g transform="translate(7.2 86.951594) scale(0.1 -0.1)">
       <use xlink:href="#STHeiti-31"/>
       <use xlink:href="#STHeiti-32" transform="translate(55.399994 0)"/>
      </g>
     </g>
    </g>
    <g id="ytick_8">
     <g id="line2d_23">
      <path d="M 25.28125 47.609915 
L 705.61125 47.609915 
" clip-path="url(#p6c3abe44cd)" style="fill: none; stroke: #b0b0b0; stroke-opacity: 0.3; stroke-width: 0.8; stroke-linecap: square"/>
     </g>
     <g id="line2d_24">
      <g>
       <use xlink:href="#m638472cb33" x="25.28125" y="47.609915" style="stroke: #000000; stroke-width: 0.8"/>
      </g>
     </g>
     <g id="text_12">
      <!-- 14 -->
      <g transform="translate(7.2 51.589603) scale(0.1 -0.1)">
       <use xlink:href="#STHeiti-31"/>
       <use xlink:href="#STHeiti-34" transform="translate(55.399994 0)"/>
      </g>
     </g>
    </g>
    <g id="ytick_9">
     <g id="line2d_25">
      <path d="M 25.28125 12.247924 
L 705.61125 12.247924 
" clip-path="url(#p6c3abe44cd)" style="fill: none; stroke: #b0b0b0; stroke-opacity: 0.3; stroke-width: 0.8; stroke-linecap: square"/>
     </g>
     <g id="line2d_26">
      <g>
       <use xlink:href="#m638472cb33" x="25.28125" y="12.247924" style="stroke: #000000; stroke-width: 0.8"/>
      </g>
     </g>
     <g id="text_13">
      <!-- 16 -->
      <g transform="translate(7.2 16.227612) scale(0.1 -0.1)">
       <use xlink:href="#STHeiti-31"/>
       <use xlink:href="#STHeiti-36" transform="translate(55.399994 0)"/>
      </g>
     </g>
    </g>
   </g>
   <g id="line2d_27">
    <path d="M 56.205341 295.143852 
L 262.365947 144.148151 
M 674.687159 20.911612 
" clip-path="url(#p6c3abe44cd)" style="fill: none; stroke: #1a365d; stroke-width: 2; stroke-linecap: square"/>
    <defs>
     <path id="m2524933a67" d="M 0 3 
C 0.795609 3 1.55874 2.683901 2.12132 2.12132 
C 2.683901 1.55874 3 0.795609 3 0 
C 3 -0.795609 2.683901 -1.55874 2.12132 -2.12132 
C 1.55874 -2.683901 0.795609 -3 0 -3 
C -0.795609 -3 -1.55874 -2.683901 -2.12132 -2.12132 
C -2.683901 -1.55874 -3 -0.795609 -3 0 
C -3 0.795609 -2.683901 1.55874 -2.12132 2.12132 
C -1.55874 2.683901 -0.795609 3 0 3 
z
" style="stroke: #1a365d"/>
    </defs>
    <g clip-path="url(#p6c3abe44cd)">
     <use xlink:href="#m2524933a67" x="56.205341" y="295.143852" style="fill: #1a365d; stroke: #1a365d"/>
     <use xlink:href="#m2524933a67" x="262.365947" y="144.148151" style="fill: #1a365d; stroke: #1a365d"/>
     <use xlink:href="#m2524933a67" x="674.687159" y="20.911612" style="fill: #1a365d; stroke: #1a365d"/>
    </g>
   </g>
   <g id="patch_3">
    <path d="M 25.28125 308.855464 
L 25.28125 7.2 
" style="fill: none; stroke: #000000; stroke-width: 0.8; stroke-linejoin: miter; stroke-linecap: square"/>
   </g>
   <g id="patch_4">
    <path d="M 705.61125 308.855464 
L 705.61125 7.2 
" style="fill: none; stroke: #000000; stroke-width: 0.8; stroke-linejoin: miter; stroke-linecap: square"/>
   </g>
   <g id="patch_5">
    <path d="M 25.28125 308.855464 
L 705.61125 308.855464 
" style="fill: none; stroke: #000000; stroke-width: 0.8; stroke-linejoin: miter; stroke-linecap: square"/>
   </g>
   <g id="patch_6">
    <path d="M 25.28125 7.2 
L 705.61125 7.2 
" style="fill: none; stroke: #000000; stroke-width: 0.8; stroke-linejoin: miter; stroke-linecap: square"/>
   </g>
   <g id="legend_1">
    <g id="patch_7">
     <path d="M 31.58125 27.296719 
L 127.934688 27.296719 
Q 129.734688 27.296719 129.734688 25.496719 
L 129.734688 13.5 
Q 129.734688 11.7 127.934688 11.7 
L 31.58125 11.7 
Q 29.78125 11.7 29.78125 13.5 
L 29.78125 25.496719 
Q 29.78125 27.296719 31.58125 27.296719 
z
" style="fill: #ffffff; opacity: 0.8; stroke: #cccccc; stroke-linejoin: miter"/>
    </g>
    <g id="line2d_28">
     <path d="M 33.38125 19.340156 
L 42.38125 19.340156 
L 51.38125 19.340156 
" style="fill: none; stroke: #1a365d; stroke-width: 2; stroke-linecap: square"/>
     <g>
      <use xlink:href="#m2524933a67" x="42.38125" y="19.340156" style="fill: #1a365d; stroke: #1a365d"/>
     </g>
    </g>
    <g id="text_14">
     <!-- CATL/ATL市占率 -->
     <g transform="translate(58.58125 22.490156) scale(0.09 -0.09)">
      <defs>
       <path id="STHeiti-43" d="M 4838 4128 
L 4480 3853 
Q 3840 4646 2835 4646 
Q 2016 4646 1424 4070 
Q 832 3494 832 2659 
Q 832 1824 1411 1264 
Q 1990 704 2861 704 
Q 3834 704 4480 1459 
L 4838 1184 
Q 4499 736 3980 502 
Q 3462 269 2835 269 
Q 1741 269 1043 960 
Q 346 1651 346 2707 
Q 346 3360 669 3913 
Q 992 4467 1565 4780 
Q 2138 5094 2797 5094 
Q 3456 5094 3981 4844 
Q 4506 4595 4838 4128 
z
" transform="scale(0.015625)"/>
       <path id="STHeiti-41" d="M 2438 5165 
L 4582 384 
L 4090 384 
L 3366 1952 
L 1382 1952 
L 666 384 
L 154 384 
L 2323 5165 
L 2438 5165 
z
M 2381 4147 
L 1594 2419 
L 3162 2419 
L 2381 4147 
z
" transform="scale(0.015625)"/>
       <path id="STHeiti-54" d="M 102 4531 
L 102 4979 
L 2624 4979 
L 2624 4531 
L 1600 4531 
L 1600 384 
L 1133 384 
L 1133 4531 
L 102 4531 
z
" transform="scale(0.015625)"/>
       <path id="STHeiti-4c" d="M 557 4979 
L 1024 4979 
L 1024 826 
L 2790 826 
L 2790 384 
L 557 384 
L 557 4979 
z
" transform="scale(0.015625)"/>
       <path id="STHeiti-2f" d="M 2611 5094 
L 704 -243 
L 224 -243 
L 2131 5094 
L 2611 5094 
z
" transform="scale(0.015625)"/>
       <path id="STHeiti-5e02" d="M 3590 4525 
L 2970 4339 
Q 2848 4768 2618 5094 
L 3238 5280 
Q 3424 4934 3590 4525 
z
M 2918 3821 
Q 1338 3814 461 3757 
L 461 4365 
Q 1402 4301 3232 4301 
Q 5062 4301 6003 4365 
L 6003 3757 
Q 5120 3821 3475 3821 
L 3475 2970 
Q 4608 2982 5299 3021 
L 5299 672 
Q 5299 390 5232 252 
Q 5165 115 4950 28 
Q 4736 -58 4256 -134 
Q 4224 282 3936 544 
Q 4301 467 4454 467 
Q 4608 467 4675 531 
Q 4742 595 4742 826 
L 4742 2509 
L 3475 2509 
L 3475 461 
Q 3475 6 3539 -640 
L 2854 -640 
Q 2918 6 2918 461 
L 2918 2509 
L 1709 2509 
L 1709 -58 
L 1107 -58 
Q 1158 378 1158 845 
L 1158 3021 
Q 1952 2976 2918 2970 
L 2918 3821 
z
" transform="scale(0.015625)"/>
       <path id="STHeiti-5360" d="M 1536 64 
L 1536 -550 
L 922 -550 
Q 986 -32 986 666 
L 986 1542 
Q 986 2138 941 2515 
Q 1197 2470 2598 2470 
L 2598 4314 
Q 2598 4947 2534 5267 
Q 2771 5235 2950 5242 
L 3238 5242 
Q 3309 5242 3309 5210 
Q 3309 5178 3238 5130 
Q 3168 5082 3168 4768 
L 3168 4154 
L 4506 4154 
Q 5350 4154 5741 4211 
L 5741 3610 
Q 5370 3667 4506 3667 
L 3168 3667 
L 3168 2470 
Q 4883 2470 5094 2515 
Q 5050 2042 5050 1542 
L 5050 736 
Q 5050 83 5107 -448 
L 4512 -448 
L 4512 64 
L 1536 64 
z
M 4512 544 
L 4512 2003 
L 1536 2003 
L 1536 544 
L 4512 544 
z
" transform="scale(0.015625)"/>
       <path id="STHeiti-7387" d="M 3066 4621 
Q 2970 4934 2867 5152 
L 3526 5254 
Q 3546 4902 3616 4621 
Q 5018 4627 5837 4685 
L 5837 4115 
Q 4941 4179 3277 4179 
Q 1613 4179 678 4115 
L 678 4685 
Q 1568 4621 3066 4621 
z
M 3046 2790 
L 2662 2739 
Q 2195 2675 2106 2637 
Q 2106 2854 2010 3059 
Q 2336 3155 2842 4128 
Q 3110 3955 3251 3913 
Q 3392 3872 3392 3846 
Q 3392 3821 3251 3769 
Q 3110 3718 2944 3497 
Q 2778 3277 2573 3085 
L 3373 3142 
Q 3686 3501 3859 3770 
Q 4077 3546 4307 3443 
Q 4397 3405 4397 3360 
Q 4397 3315 4307 3308 
Q 4218 3302 3965 3126 
Q 3712 2950 3411 2636 
Q 3110 2323 2624 1952 
L 3808 2035 
Q 3661 2278 3552 2413 
L 3942 2656 
Q 4211 2176 4595 1600 
L 4141 1389 
Q 4109 1466 4000 1683 
L 3456 1651 
L 3456 1018 
Q 5126 1018 5990 1075 
L 5990 518 
Q 5126 576 3456 576 
Q 3469 -160 3520 -691 
L 2886 -691 
Q 2944 -70 2944 576 
Q 1325 563 506 518 
L 506 1075 
Q 1331 1030 2950 1018 
L 2950 1613 
Q 2419 1574 2093 1491 
Q 2048 1786 1933 1965 
Q 2157 1965 2377 2147 
Q 2598 2330 3046 2790 
z
M 5248 3898 
Q 5453 3629 5709 3475 
Q 5760 3443 5760 3414 
Q 5760 3386 5677 3386 
Q 5594 3386 5389 3296 
Q 5184 3206 4755 2803 
Q 4595 3002 4384 3117 
Q 4934 3482 5248 3898 
z
M 1958 3238 
L 1587 2848 
Q 1261 3219 877 3507 
L 1222 3859 
Q 1517 3558 1958 3238 
z
M 5811 1933 
L 5414 1485 
Q 5030 1920 4461 2291 
L 4826 2675 
Q 5242 2317 5811 1933 
z
M 2003 2170 
Q 1824 2099 1024 1350 
Q 890 1645 704 1888 
Q 1018 2003 1357 2272 
Q 1696 2541 1798 2662 
Q 1830 2413 2003 2170 
z
" transform="scale(0.015625)"/>
      </defs>
      <use xlink:href="#STHeiti-43"/>
      <use xlink:href="#STHeiti-41" transform="translate(81.299988 0)"/>
      <use xlink:href="#STHeiti-54" transform="translate(155.299973 0)"/>
      <use xlink:href="#STHeiti-4c" transform="translate(197.899963 0)"/>
      <use xlink:href="#STHeiti-2f" transform="translate(244.09996 0)"/>
      <use xlink:href="#STHeiti-41" transform="translate(287.799957 0)"/>
      <use xlink:href="#STHeiti-54" transform="translate(361.799942 0)"/>
      <use xlink:href="#STHeiti-4c" transform="translate(404.399933 0)"/>
      <use xlink:href="#STHeiti-5e02" transform="translate(450.59993 0)"/>
      <use xlink:href="#STHeiti-5360" transform="translate(550.599915 0)"/>
      <use xlink:href="#STHeiti-7387" transform="translate(650.599899 0)"/>
     </g>
    </g>
   </g>
  </g>
 </g>
 <defs>
  <clipPath id="p6c3abe44cd">
   <rect x="25.28125" y="7.2" width="680.33" height="301.655464"/>
  </clipPath>
 </defs>
</svg>
