<?xml version="1.0" encoding="utf-8" standalone="no"?>
<!DOCTYPE svg PUBLIC "-//W3C//DTD SVG 1.1//EN"
  "http://www.w3.org/Graphics/SVG/1.1/DTD/svg11.dtd">
<svg xmlns:xlink="http://www.w3.org/1999/xlink" width="709.067167pt" height="352.311103pt" viewBox="0 0 709.067167 352.311103" xmlns="http://www.w3.org/2000/svg" version="1.1">
 <metadata>
  <rdf:RDF xmlns:dc="http://purl.org/dc/elements/1.1/" xmlns:cc="http://creativecommons.org/ns#" xmlns:rdf="http://www.w3.org/1999/02/22-rdf-syntax-ns#">
   <cc:Work>
    <dc:type rdf:resource="http://purl.org/dc/dcmitype/StillImage"/>
    <dc:date>2026-06-05T11:44:46.652067</dc:date>
    <dc:format>image/svg+xml</dc:format>
    <dc:creator>
     <cc:Agent>
      <dc:title>Matplotlib v3.10.9, https://matplotlib.org/</dc:title>
     </cc:Agent>
    </dc:creator>
   </cc:Work>
  </rdf:RDF>
 </metadata>
 <defs>
  <style type="text/css">*{stroke-linejoin: round; stroke-linecap: butt}</style>
 </defs>
 <g id="figure_1">
  <g id="patch_1">
   <path d="M 0 352.311103 
L 709.067167 352.311103 
L 709.067167 0 
L 0 0 
z
" style="fill: #ffffff"/>
  </g>
  <g id="axes_1">
   <g id="patch_2">
    <path d="M 26.861114 282.845464 
L 701.867167 282.845464 
L 701.867167 7.2 
L 26.861114 7.2 
z
" style="fill: #fafafa"/>
   </g>
   <g id="matplotlib.axis_1">
    <g id="xtick_1">
     <g id="line2d_1">
      <path d="M 46.521485 282.845464 
L 46.521485 7.2 
" clip-path="url(#p621af7e133)" style="fill: none; stroke: #b0b0b0; stroke-opacity: 0.3; stroke-width: 0.8; stroke-linecap: square"/>
     </g>
     <g id="line2d_2">
      <defs>
       <path id="ma5e3cfa1c5" d="M 0 0 
L 0 3.5 
" style="stroke: #000000; stroke-width: 0.8"/>
      </defs>
      <g>
       <use xlink:href="#ma5e3cfa1c5" x="46.521485" y="282.845464" style="stroke: #000000; stroke-width: 0.8"/>
      </g>
     </g>
     <g id="text_1">
      <!-- 存货增加 -->
      <g transform="translate(11.210156 316.791258) rotate(-30) scale(0.1 -0.1)">
       <defs>
        <path id="STHeiti-5b58" d="M 1549 2272 
Q 1088 1786 608 1427 
Q 397 1683 122 1811 
Q 685 2125 1251 2681 
Q 1818 3238 2202 3872 
Q 1318 3866 627 3834 
L 627 4384 
Q 1267 4339 2438 4333 
Q 2726 4954 2797 5254 
Q 3206 5082 3494 5024 
Q 3584 5011 3584 4979 
Q 3584 4947 3526 4922 
Q 3366 4851 3053 4326 
Q 4838 4326 5824 4384 
L 5824 3834 
Q 5005 3878 2778 3878 
Q 2451 3354 2048 2854 
L 2048 237 
Q 2048 -198 2080 -531 
L 1517 -531 
Q 1549 -198 1549 237 
L 1549 2272 
z
M 4499 1203 
L 4499 166 
Q 4499 -173 4444 -304 
Q 4390 -435 4198 -502 
Q 4006 -570 3475 -666 
Q 3437 -384 3245 -26 
Q 3507 -51 3686 -51 
Q 3866 -51 3930 41 
Q 3994 134 3994 435 
L 3994 1203 
Q 2842 1203 2195 1165 
L 2195 1683 
Q 2886 1632 3994 1632 
L 3994 2189 
L 4749 2714 
L 3533 2714 
Q 3072 2714 2630 2675 
L 2630 3168 
Q 2970 3130 4102 3130 
Q 5235 3130 5613 3181 
L 5613 2720 
Q 5363 2662 5242 2566 
L 4499 2003 
L 4499 1632 
Q 5530 1638 6074 1683 
L 6074 1165 
Q 5395 1197 4499 1203 
z
" transform="scale(0.015625)"/>
        <path id="STHeiti-8d27" d="M 1485 3782 
Q 1133 3405 723 3040 
Q 531 3270 256 3366 
Q 1395 4102 1997 5216 
Q 2259 5030 2425 4966 
Q 2592 4902 2592 4838 
Q 2592 4774 2502 4749 
Q 2458 4736 2304 4611 
Q 2150 4486 1984 4320 
L 1984 2528 
L 1414 2528 
Q 1485 2944 1485 3354 
L 1485 3782 
z
M 3878 4070 
Q 4659 4358 5261 4858 
Q 5536 4595 5702 4486 
Q 5766 4442 5766 4419 
Q 5766 4397 5683 4384 
Q 5510 4358 5027 4131 
Q 4544 3904 3878 3654 
L 3878 3309 
Q 3878 3162 4016 3107 
Q 4154 3053 4573 3053 
Q 4992 3053 5155 3088 
Q 5318 3123 5392 3244 
Q 5466 3366 5523 3674 
Q 5773 3418 6106 3309 
Q 5939 2957 5820 2832 
Q 5702 2707 5459 2672 
Q 5216 2637 4624 2637 
Q 4032 2637 3779 2685 
Q 3526 2733 3452 2845 
Q 3379 2957 3379 3194 
L 3379 3469 
Q 2944 3322 2586 3187 
Q 2458 3469 2253 3642 
Q 2816 3731 3379 3904 
L 3379 4301 
Q 3379 4845 3328 5069 
Q 3514 5037 3987 5037 
Q 4096 5037 4096 4979 
Q 4096 4922 3987 4832 
Q 3878 4742 3878 4634 
L 3878 4070 
z
M 5229 595 
L 4653 595 
L 4653 1798 
L 1920 1798 
L 1920 640 
L 1338 640 
Q 1389 922 1389 1101 
L 1389 1894 
Q 1389 2048 1350 2272 
Q 2195 2234 3244 2234 
Q 4294 2234 5216 2272 
Q 5197 2163 5197 1894 
L 5197 1101 
Q 5197 870 5229 595 
z
M 2950 1485 
Q 3283 1370 3462 1350 
Q 3642 1331 3642 1312 
Q 3642 1293 3610 1277 
Q 3578 1261 3501 1110 
Q 3424 960 3373 806 
Q 3213 282 2627 -44 
Q 2042 -371 781 -576 
Q 730 -269 442 13 
Q 1075 6 1756 147 
Q 2438 288 2672 589 
Q 2906 890 2950 1485 
z
M 5946 -128 
L 5530 -621 
Q 4723 -102 3616 301 
L 3974 710 
L 5946 -128 
z
" transform="scale(0.015625)"/>
        <path id="STHeiti-589e" d="M 4333 4275 
Q 4608 4787 4742 5325 
Q 4883 5254 5052 5196 
Q 5222 5139 5267 5136 
Q 5312 5133 5312 5110 
Q 5312 5088 5274 5056 
Q 5152 4954 4787 4275 
Q 5555 4282 5888 4333 
Q 5850 3994 5850 3254 
Q 5850 2515 5894 2080 
Q 5370 2131 4160 2131 
Q 2950 2131 2394 2086 
Q 2432 2547 2432 3235 
Q 2432 3923 2394 4333 
Q 2816 4275 4333 4275 
z
M 4301 2496 
L 5440 2496 
L 5440 3923 
L 4301 3923 
L 4301 2496 
z
M 4691 3648 
Q 4973 3590 5158 3590 
Q 5210 3590 5210 3568 
Q 5210 3546 5178 3514 
Q 5146 3482 5066 3264 
Q 4986 3046 4909 2771 
Q 4762 2822 4550 2810 
Q 4646 3117 4691 3648 
z
M 3878 3923 
L 2861 3923 
L 2861 2496 
L 3878 2496 
L 3878 3923 
z
M 3603 2803 
L 3213 2771 
Q 3213 3219 3142 3571 
L 3514 3610 
Q 3552 3334 3603 2803 
z
M 3904 4474 
L 3347 4307 
Q 3245 4710 3027 5050 
L 3558 5203 
Q 3802 4704 3904 4474 
z
M 1523 1120 
Q 1933 1248 2285 1389 
Q 2234 1254 2234 1132 
Q 2234 1011 2266 883 
Q 1414 659 493 154 
Q 403 531 256 832 
Q 653 890 1030 986 
L 1030 2944 
Q 602 2938 339 2886 
L 339 3469 
Q 608 3418 1030 3411 
Q 1030 4691 986 5037 
Q 1216 5011 1632 5011 
Q 1709 5011 1709 4979 
Q 1709 4947 1664 4908 
Q 1619 4870 1571 4716 
Q 1523 4563 1523 4442 
L 1523 3418 
Q 1843 3424 2099 3469 
L 2099 2886 
Q 1843 2931 1523 2938 
L 1523 1120 
z
M 3200 -198 
L 3200 -614 
L 2662 -614 
Q 2707 -301 2707 19 
L 2707 1075 
Q 2707 1574 2662 1792 
Q 3046 1741 4211 1741 
Q 5376 1741 5632 1792 
Q 5594 1542 5594 1075 
L 5594 141 
Q 5594 -250 5632 -544 
L 5107 -544 
L 5107 -198 
L 3200 -198 
z
M 5107 966 
L 5107 1421 
L 3200 1421 
L 3200 966 
L 5107 966 
z
M 3200 646 
L 3200 115 
L 5107 115 
L 5107 646 
L 3200 646 
z
" transform="scale(0.015625)"/>
        <path id="STHeiti-52a0" d="M 1965 3507 
Q 1901 1920 1645 1017 
Q 1389 115 781 -499 
Q 550 -269 288 -154 
Q 877 346 1139 1181 
Q 1402 2016 1440 3507 
Q 851 3501 512 3450 
L 512 4051 
Q 826 4000 1446 3994 
Q 1453 4461 1453 4832 
Q 1453 5203 1395 5325 
Q 1683 5261 2112 5242 
Q 2176 5235 2176 5206 
Q 2176 5178 2131 5114 
Q 1990 4909 1984 3994 
Q 2918 3994 3251 4051 
L 3078 691 
Q 3053 211 2976 -9 
Q 2899 -230 2694 -336 
Q 2490 -442 2035 -506 
Q 2016 -128 1798 154 
Q 1952 141 2048 141 
Q 2355 141 2454 288 
Q 2554 435 2579 992 
L 2701 3507 
L 1965 3507 
z
M 5254 326 
L 4275 326 
L 4275 -397 
L 3693 -397 
Q 3744 70 3744 506 
L 3744 3718 
Q 3744 4115 3706 4269 
Q 4250 4224 4787 4224 
Q 5325 4224 5837 4269 
Q 5798 4147 5798 3718 
L 5798 608 
Q 5798 102 5843 -307 
L 5254 -307 
L 5254 326 
z
M 4275 781 
L 5254 781 
L 5254 3744 
L 4275 3744 
L 4275 781 
z
" transform="scale(0.015625)"/>
       </defs>
       <use xlink:href="#STHeiti-5b58"/>
       <use xlink:href="#STHeiti-8d27" transform="translate(99.999985 0)"/>
       <use xlink:href="#STHeiti-589e" transform="translate(199.999969 0)"/>
       <use xlink:href="#STHeiti-52a0" transform="translate(299.999954 0)"/>
      </g>
     </g>
    </g>
    <g id="xtick_2">
     <g id="line2d_3">
      <path d="M 177.590621 282.845464 
L 177.590621 7.2 
" clip-path="url(#p621af7e133)" style="fill: none; stroke: #b0b0b0; stroke-opacity: 0.3; stroke-width: 0.8; stroke-linecap: square"/>
     </g>
     <g id="line2d_4">
      <g>
       <use xlink:href="#ma5e3cfa1c5" x="177.590621" y="282.845464" style="stroke: #000000; stroke-width: 0.8"/>
      </g>
     </g>
     <g id="text_2">
      <!-- 应收票据减少 -->
      <g transform="translate(124.958784 326.868389) rotate(-30) scale(0.1 -0.1)">
       <defs>
        <path id="STHeiti-5e94" d="M 3853 4614 
L 3264 4499 
Q 3136 4909 2970 5190 
L 3642 5370 
Q 3750 5024 3853 4614 
z
M 5850 3936 
Q 5446 3987 4333 3987 
L 1536 3987 
Q 1530 2509 1488 1798 
Q 1446 1088 1299 573 
Q 1152 58 813 -582 
Q 550 -307 294 -198 
Q 704 333 864 921 
Q 1024 1510 1024 2400 
Q 1024 3290 947 4512 
Q 1517 4461 3513 4461 
Q 5510 4461 5850 4512 
L 5850 3936 
z
M 4128 1574 
L 3552 1453 
Q 3526 2298 3136 3277 
L 3686 3418 
Q 3962 2477 4128 1574 
z
M 4435 250 
Q 5395 256 5965 314 
L 5965 -275 
Q 5229 -211 3734 -211 
Q 2240 -211 1523 -275 
L 1517 314 
Q 2246 250 3891 250 
Q 4198 691 4547 1641 
Q 4896 2592 5024 3341 
Q 5344 3181 5677 3091 
Q 5773 3066 5773 3034 
Q 5773 3002 5696 2950 
Q 5568 2861 5402 2432 
Q 4986 1376 4435 250 
z
M 3091 1062 
L 2534 845 
Q 2355 1651 1850 2662 
L 2368 2842 
Q 2758 1984 3091 1062 
z
" transform="scale(0.015625)"/>
        <path id="STHeiti-6536" d="M 1824 1664 
L 1824 4230 
Q 1824 4998 1773 5190 
Q 2003 5146 2413 5146 
Q 2522 5146 2522 5107 
Q 2522 5069 2435 5017 
Q 2349 4966 2349 4544 
L 2349 563 
Q 2349 26 2413 -589 
L 1766 -589 
Q 1824 6 1824 563 
L 1824 1197 
L 1082 992 
Q 826 922 614 762 
Q 512 1030 352 1293 
Q 608 1440 608 1722 
L 608 3539 
Q 608 4115 582 4282 
Q 806 4243 973 4243 
L 1171 4250 
Q 1261 4250 1261 4211 
Q 1261 4173 1203 4141 
Q 1082 4083 1082 3968 
L 1082 1510 
L 1824 1664 
z
M 4224 1286 
Q 4685 1984 4781 3462 
L 3629 3462 
Q 3226 2547 2970 2157 
Q 2733 2317 2522 2387 
Q 2906 2918 3203 3712 
Q 3501 4506 3565 5146 
Q 3981 5005 4250 4966 
Q 4326 4954 4326 4922 
Q 4326 4890 4278 4851 
Q 4230 4813 4150 4653 
Q 4070 4493 3821 3917 
L 5120 3917 
Q 5747 3917 5971 3974 
L 5971 3424 
Q 5754 3462 5318 3462 
Q 5178 1722 4576 896 
Q 5178 365 6061 173 
Q 5734 -134 5664 -493 
Q 4845 -115 4237 518 
Q 3699 -115 2899 -499 
Q 2790 -262 2483 -64 
Q 3213 173 3898 883 
Q 3450 1466 3315 2675 
L 3744 2810 
Q 3814 1888 4224 1286 
z
" transform="scale(0.015625)"/>
        <path id="STHeiti-7968" d="M 2330 3878 
L 2330 4390 
Q 1043 4378 525 4352 
L 525 4890 
Q 1395 4813 3276 4813 
Q 5158 4813 5888 4890 
L 5888 4352 
Q 5306 4390 4083 4390 
L 4083 3878 
Q 4966 3891 5549 3949 
Q 5491 3654 5491 3209 
Q 5491 2765 5549 2496 
Q 4454 2566 3225 2566 
Q 1997 2566 941 2496 
Q 992 2829 992 3257 
Q 992 3686 941 3949 
Q 1427 3904 2330 3878 
z
M 2797 4390 
L 2797 3878 
L 3622 3878 
L 3622 4390 
L 2797 4390 
z
M 4083 3514 
L 4083 2931 
L 5018 2931 
L 5018 3514 
L 4083 3514 
z
M 2330 2931 
L 2330 3514 
L 1459 3514 
L 1459 2931 
L 2330 2931 
z
M 2797 3514 
L 2797 2931 
L 3622 2931 
L 3622 3514 
L 2797 3514 
z
M 5235 1760 
Q 4442 1811 3197 1811 
Q 1952 1811 1165 1741 
L 1165 2272 
Q 1990 2208 3206 2208 
Q 4422 2208 5235 2272 
L 5235 1760 
z
M 3475 986 
L 3475 45 
Q 3475 -250 3427 -362 
Q 3379 -474 3203 -534 
Q 3027 -595 2534 -678 
Q 2470 -358 2240 -51 
Q 2624 -90 2758 -90 
Q 2893 -90 2928 -51 
Q 2963 -13 2963 90 
L 2963 986 
Q 1094 986 525 922 
L 525 1466 
Q 1472 1389 3302 1389 
Q 5133 1389 5901 1466 
L 5901 922 
Q 5069 986 3475 986 
z
M 1830 896 
Q 2080 659 2278 614 
Q 2368 595 2368 560 
Q 2368 525 2266 493 
Q 2061 429 1846 208 
Q 1632 -13 979 -474 
Q 870 -282 531 -109 
Q 1408 352 1830 896 
z
M 5760 102 
L 5427 -378 
Q 4710 141 4077 429 
L 4365 832 
Q 4960 557 5760 102 
z
" transform="scale(0.015625)"/>
        <path id="STHeiti-636e" d="M 1229 2176 
L 1229 3245 
Q 730 3245 448 3187 
L 448 3731 
Q 691 3680 1229 3680 
Q 1229 4454 1216 4681 
Q 1203 4909 1152 5114 
Q 1376 5069 1734 5069 
Q 1888 5069 1888 5021 
Q 1888 4973 1811 4915 
Q 1734 4858 1712 4810 
Q 1690 4762 1690 4678 
L 1690 3686 
Q 2016 3693 2208 3731 
L 2208 3187 
Q 1971 3232 1690 3238 
L 1690 2355 
Q 1971 2477 2240 2624 
Q 2234 2323 2310 2106 
Q 1990 2010 1690 1894 
L 1690 186 
Q 1690 -102 1635 -224 
Q 1581 -346 1395 -419 
Q 1210 -493 736 -576 
Q 723 -243 467 90 
Q 704 51 858 51 
Q 1229 51 1229 269 
L 1229 1696 
Q 794 1485 480 1242 
Q 454 1587 365 1920 
Q 838 2042 1229 2176 
z
M 4627 2214 
L 4627 1523 
Q 5510 1523 5722 1568 
Q 5683 1408 5683 1030 
L 5683 160 
Q 5683 -179 5728 -480 
L 5190 -480 
L 5190 -218 
L 3738 -218 
L 3738 -550 
L 3200 -550 
Q 3245 -307 3245 96 
L 3245 1030 
Q 3245 1357 3206 1568 
Q 3469 1530 4166 1523 
L 4166 2214 
Q 3494 2208 3098 2150 
L 3098 2669 
Q 3533 2618 4166 2611 
L 4166 3302 
L 3027 3302 
Q 3027 1690 2851 986 
Q 2675 282 2253 -474 
Q 2048 -307 1741 -282 
Q 2195 384 2368 1091 
Q 2541 1798 2541 2848 
Q 2541 3898 2496 4838 
Q 2778 4768 4067 4768 
Q 5357 4768 5741 4838 
Q 5696 4461 5696 4051 
Q 5696 3642 5741 3238 
Q 5434 3302 4627 3302 
L 4627 2611 
Q 5542 2611 6042 2669 
L 6042 2150 
Q 5574 2214 4627 2214 
z
M 3027 4378 
L 3027 3712 
L 5235 3712 
L 5235 4378 
L 3027 4378 
z
M 5190 205 
L 5190 1146 
L 3738 1146 
L 3738 205 
L 5190 205 
z
" transform="scale(0.015625)"/>
        <path id="STHeiti-51cf" d="M 3923 3757 
L 2202 3757 
Q 2202 1504 2051 790 
Q 1901 77 1466 -666 
Q 1184 -518 915 -486 
Q 1062 -371 1228 -41 
Q 1395 288 1523 733 
Q 1651 1178 1696 1539 
Q 1741 1901 1741 2537 
Q 1741 3174 1702 4275 
Q 2208 4218 3878 4218 
Q 3834 4877 3821 5274 
Q 3923 5242 4064 5226 
Q 4205 5210 4288 5216 
L 4422 5216 
Q 4506 5216 4506 5174 
Q 4506 5133 4442 5065 
Q 4378 4998 4390 4218 
Q 5408 4224 5722 4269 
L 5722 3699 
Q 5325 3757 4410 3757 
Q 4480 2477 4710 1568 
Q 4973 2234 5082 3258 
Q 5350 3142 5632 3130 
Q 5728 3123 5728 3078 
Q 5728 3034 5677 3011 
Q 5626 2989 5587 2889 
Q 5549 2790 5453 2470 
Q 5152 1453 4909 998 
Q 5082 576 5238 365 
Q 5395 154 5472 154 
Q 5549 154 5597 304 
Q 5645 454 5690 762 
Q 5894 557 6118 531 
Q 5997 -19 5869 -278 
Q 5741 -538 5565 -538 
Q 5389 -538 5107 -230 
Q 4826 77 4608 525 
Q 4058 -205 3450 -621 
Q 3245 -384 2995 -275 
Q 3840 166 4403 1005 
Q 4096 1798 3923 3757 
z
M 5510 4582 
L 4986 4416 
Q 4890 4698 4736 4973 
L 5242 5120 
Q 5382 4851 5510 4582 
z
M 1504 3200 
L 960 2938 
Q 781 3635 410 4230 
L 902 4493 
Q 1184 3923 1504 3200 
z
M 3738 2752 
Q 3462 2797 3084 2797 
Q 2707 2797 2451 2752 
L 2451 3245 
Q 2637 3194 3094 3194 
Q 3552 3194 3738 3245 
L 3738 2752 
z
M 1408 2118 
Q 934 602 806 0 
Q 525 250 230 378 
Q 320 518 582 1152 
Q 845 1786 941 2400 
Q 1094 2195 1408 2118 
z
M 3386 666 
L 2899 666 
L 2899 269 
L 2438 269 
Q 2490 576 2490 966 
L 2490 1856 
Q 2490 2182 2451 2368 
Q 2611 2330 3142 2330 
Q 3674 2330 3834 2368 
Q 3795 2189 3795 1856 
L 3795 1107 
Q 3795 774 3840 410 
L 3386 410 
L 3386 666 
z
M 2899 1056 
L 3386 1056 
L 3386 1946 
L 2899 1946 
L 2899 1056 
z
" transform="scale(0.015625)"/>
        <path id="STHeiti-5c11" d="M 3533 1299 
L 2861 1299 
Q 2906 1562 2906 1990 
L 2906 4634 
Q 2906 5018 2867 5242 
Q 3136 5184 3379 5184 
L 3533 5190 
Q 3597 5190 3597 5158 
Q 3597 5126 3542 5068 
Q 3488 5011 3488 4851 
L 3488 1997 
Q 3488 1581 3533 1299 
z
M 6106 2829 
L 5530 2413 
Q 4941 3366 4115 4096 
L 4538 4435 
L 6106 2829 
z
M 1536 4314 
Q 1862 4166 2150 4102 
Q 2266 4083 2266 4044 
Q 2266 4006 2173 3926 
Q 2080 3846 1891 3468 
Q 1702 3091 1203 1978 
Q 915 2138 563 2150 
Q 1222 3008 1536 4314 
z
M 4653 2394 
Q 5050 2118 5261 2061 
Q 5370 2035 5370 2006 
Q 5370 1978 5270 1920 
Q 5171 1862 5030 1651 
Q 4614 966 4166 582 
Q 3718 198 3148 -35 
Q 2579 -269 1069 -550 
Q 986 -198 659 141 
Q 1274 115 1904 224 
Q 2534 333 3030 531 
Q 3526 730 3785 960 
Q 4045 1190 4297 1587 
Q 4550 1984 4653 2394 
z
" transform="scale(0.015625)"/>
       </defs>
       <use xlink:href="#STHeiti-5e94"/>
       <use xlink:href="#STHeiti-6536" transform="translate(99.999985 0)"/>
       <use xlink:href="#STHeiti-7968" transform="translate(199.999969 0)"/>
       <use xlink:href="#STHeiti-636e" transform="translate(299.999954 0)"/>
       <use xlink:href="#STHeiti-51cf" transform="translate(399.999939 0)"/>
       <use xlink:href="#STHeiti-5c11" transform="translate(499.999924 0)"/>
      </g>
     </g>
    </g>
    <g id="xtick_3">
     <g id="line2d_5">
      <path d="M 308.659758 282.845464 
L 308.659758 7.2 
" clip-path="url(#p621af7e133)" style="fill: none; stroke: #b0b0b0; stroke-opacity: 0.3; stroke-width: 0.8; stroke-linecap: square"/>
     </g>
     <g id="line2d_6">
      <g>
       <use xlink:href="#ma5e3cfa1c5" x="308.659758" y="282.845464" style="stroke: #000000; stroke-width: 0.8"/>
      </g>
     </g>
     <g id="text_3">
      <!-- 应收账款减少 -->
      <g transform="translate(256.027921 326.852151) rotate(-30) scale(0.1 -0.1)">
       <defs>
        <path id="STHeiti-8d26" d="M 3859 2867 
L 5011 2867 
Q 5670 2867 5939 2912 
L 5939 2394 
Q 5683 2438 5005 2438 
L 4672 2438 
Q 4832 1549 5152 1069 
Q 5472 589 6106 326 
Q 5843 109 5683 -256 
Q 5101 115 4726 819 
Q 4352 1523 4250 2438 
L 3859 2438 
L 3859 294 
Q 4160 448 4448 640 
Q 4461 307 4582 160 
Q 3718 -339 3450 -602 
Q 3309 -326 3123 -102 
Q 3398 115 3398 595 
L 3398 2432 
Q 3085 2426 2880 2394 
L 2880 2912 
Q 3053 2886 3398 2867 
L 3398 4166 
Q 3398 4845 3360 5178 
Q 3661 5120 3859 5120 
L 3981 5133 
Q 4051 5133 4051 5094 
Q 4051 5056 4006 4992 
Q 3859 4768 3859 4454 
L 3859 2867 
z
M 5152 4979 
Q 5402 4806 5715 4717 
Q 5779 4698 5779 4662 
Q 5779 4627 5683 4576 
Q 5587 4525 5468 4387 
Q 5350 4250 5088 3814 
Q 4826 3379 4550 3066 
Q 4358 3200 4083 3264 
Q 4403 3578 4716 4086 
Q 5030 4595 5152 4979 
z
M 2784 1139 
L 2272 1139 
L 2272 4378 
L 1120 4378 
L 1120 1050 
L 595 1050 
Q 653 1382 653 2086 
L 653 4339 
Q 653 4717 627 4890 
Q 864 4832 1718 4832 
Q 2573 4832 2752 4890 
Q 2726 4730 2726 4339 
L 2726 2170 
Q 2726 1549 2784 1139 
z
M 1504 3936 
Q 1594 3910 1706 3897 
Q 1818 3885 1901 3885 
L 2029 3891 
Q 2093 3891 2093 3862 
Q 2093 3834 2054 3795 
Q 1952 3693 1952 2822 
Q 1952 1952 1888 1475 
Q 1824 998 1587 540 
Q 1350 83 806 -576 
Q 602 -390 301 -307 
Q 742 77 992 409 
Q 1242 742 1354 1097 
Q 1466 1453 1494 1821 
Q 1523 2189 1523 2982 
Q 1523 3776 1504 3936 
z
M 2861 154 
L 2490 -250 
Q 2291 83 1811 576 
L 2170 883 
Q 2566 422 2861 154 
z
" transform="scale(0.015625)"/>
        <path id="STHeiti-6b3e" d="M 1824 4147 
Q 1037 4147 550 4102 
L 550 4589 
Q 1050 4544 1824 4544 
Q 1824 5005 1798 5248 
Q 2074 5210 2387 5210 
Q 2470 5210 2470 5181 
Q 2470 5152 2413 5107 
Q 2317 5037 2317 4819 
L 2317 4544 
Q 3002 4550 3546 4589 
L 3546 4102 
Q 3002 4141 2317 4147 
L 2317 3590 
Q 2893 3597 3309 3635 
L 3309 3155 
Q 2861 3200 1971 3200 
Q 1082 3200 736 3155 
L 736 3635 
Q 1248 3590 1824 3590 
L 1824 4147 
z
M 4365 4141 
L 5357 4141 
Q 5786 4141 6080 4192 
L 5766 2899 
L 5235 2957 
L 5421 3674 
L 4224 3674 
Q 4077 3232 3885 2739 
Q 3661 2848 3354 2925 
Q 3936 3942 4000 5178 
Q 4435 5082 4698 5082 
Q 4781 5082 4781 5030 
Q 4781 4979 4707 4928 
Q 4634 4877 4566 4729 
Q 4499 4582 4365 4141 
z
M 4339 3168 
Q 4627 3123 4832 3123 
L 4992 3136 
Q 5043 3136 5043 3097 
Q 5043 3059 5004 3020 
Q 4966 2982 4940 2921 
Q 4915 2861 4873 2675 
Q 4832 2490 4832 2426 
Q 4832 1440 5165 880 
Q 5498 320 6170 0 
Q 5875 -339 5741 -595 
Q 5261 -237 5005 220 
Q 4749 678 4653 1350 
Q 4512 710 4221 272 
Q 3930 -166 3328 -640 
Q 3142 -448 2848 -301 
Q 3456 83 3763 470 
Q 4070 858 4208 1533 
Q 4346 2208 4346 2925 
Q 4346 3059 4339 3168 
z
M 3270 2291 
Q 2816 2336 1965 2336 
Q 1114 2336 762 2291 
L 762 2803 
Q 1210 2758 2013 2758 
Q 2816 2758 3270 2803 
L 3270 2291 
z
M 2362 1427 
L 2362 -38 
Q 2362 -262 2294 -380 
Q 2227 -499 2038 -560 
Q 1850 -621 1466 -646 
Q 1440 -384 1235 -70 
Q 1446 -102 1584 -102 
Q 1722 -102 1792 -51 
Q 1862 0 1862 134 
L 1862 1427 
Q 915 1427 525 1382 
L 525 1888 
Q 1062 1843 2003 1843 
Q 2944 1843 3475 1888 
L 3475 1382 
Q 2950 1421 2362 1427 
z
M 3494 506 
L 3021 205 
Q 2874 621 2624 966 
L 3072 1190 
Q 3302 736 3494 506 
z
M 992 1146 
Q 1280 1024 1414 989 
Q 1549 954 1549 915 
Q 1549 877 1469 822 
Q 1389 768 1328 678 
Q 1267 589 870 -115 
Q 659 6 403 51 
Q 915 730 992 1146 
z
" transform="scale(0.015625)"/>
       </defs>
       <use xlink:href="#STHeiti-5e94"/>
       <use xlink:href="#STHeiti-6536" transform="translate(99.999985 0)"/>
       <use xlink:href="#STHeiti-8d26" transform="translate(199.999969 0)"/>
       <use xlink:href="#STHeiti-6b3e" transform="translate(299.999954 0)"/>
       <use xlink:href="#STHeiti-51cf" transform="translate(399.999939 0)"/>
       <use xlink:href="#STHeiti-5c11" transform="translate(499.999924 0)"/>
      </g>
     </g>
    </g>
    <g id="xtick_4">
     <g id="line2d_7">
      <path d="M 439.728894 282.845464 
L 439.728894 7.2 
" clip-path="url(#p621af7e133)" style="fill: none; stroke: #b0b0b0; stroke-opacity: 0.3; stroke-width: 0.8; stroke-linecap: square"/>
     </g>
     <g id="line2d_8">
      <g>
       <use xlink:href="#ma5e3cfa1c5" x="439.728894" y="282.845464" style="stroke: #000000; stroke-width: 0.8"/>
      </g>
     </g>
     <g id="text_4">
      <!-- 短期借款 -->
      <g transform="translate(404.417565 316.738485) rotate(-30) scale(0.1 -0.1)">
       <defs>
        <path id="STHeiti-77ed" d="M 2003 2534 
Q 2438 2541 2778 2586 
L 2778 2022 
Q 2509 2067 1965 2074 
Q 1946 1875 1875 1587 
Q 2381 1254 2925 794 
L 2573 384 
Q 2163 838 1754 1178 
Q 1376 134 826 -461 
Q 659 -256 339 -96 
Q 1363 858 1485 2080 
Q 813 2080 422 2022 
L 422 2573 
Q 794 2528 1517 2528 
Q 1562 3078 1555 3731 
L 1075 3731 
Q 947 3334 832 3085 
Q 614 3194 371 3200 
Q 941 4442 909 5216 
Q 1261 5075 1530 5043 
Q 1606 5030 1606 5001 
Q 1606 4973 1536 4934 
Q 1434 4864 1210 4160 
Q 2560 4160 2726 4198 
L 2726 3693 
Q 2490 3718 2054 3731 
Q 2022 2803 2003 2534 
z
M 5952 4243 
Q 5408 4301 4416 4301 
Q 3424 4301 2880 4243 
L 2880 4813 
Q 3437 4755 4422 4755 
Q 5408 4755 5952 4813 
L 5952 4243 
z
M 5638 1856 
Q 5171 1914 4332 1914 
Q 3494 1914 3040 1850 
Q 3104 2304 3104 2857 
Q 3104 3411 3040 3827 
Q 3456 3763 4326 3763 
Q 5197 3763 5638 3827 
Q 5594 3494 5594 2902 
Q 5594 2310 5638 1856 
z
M 5082 2355 
L 5082 3315 
L 3597 3315 
L 3597 2355 
L 5082 2355 
z
M 4454 166 
Q 4819 934 5062 1760 
Q 5171 1664 5356 1587 
Q 5542 1510 5606 1510 
Q 5670 1510 5670 1488 
Q 5670 1466 5606 1427 
Q 5498 1350 4915 166 
Q 5677 166 6138 224 
L 6138 -314 
Q 5478 -262 4371 -262 
Q 3264 -262 2605 -314 
L 2605 224 
Q 3187 166 3859 166 
L 4454 166 
z
M 4128 595 
L 3616 410 
Q 3526 954 3258 1434 
L 3725 1606 
Q 3955 1133 4128 595 
z
" transform="scale(0.015625)"/>
        <path id="STHeiti-671f" d="M 1082 4320 
Q 1082 4870 1018 5107 
Q 1216 5062 1555 5062 
Q 1613 5062 1613 5036 
Q 1613 5011 1561 4963 
Q 1510 4915 1510 4774 
L 1510 4320 
L 2554 4320 
Q 2554 4966 2502 5126 
Q 2784 5069 3034 5056 
Q 3130 5050 3130 5005 
Q 3130 4979 3056 4928 
Q 2982 4877 2982 4749 
L 2982 4326 
Q 3238 4339 3437 4371 
L 3437 3827 
Q 3290 3853 2982 3878 
L 2982 1395 
Q 3264 1421 3418 1446 
L 3418 960 
Q 3136 1018 1971 1018 
Q 806 1018 512 960 
L 512 1446 
Q 781 1402 1082 1389 
L 1082 3878 
Q 838 3872 538 3827 
L 538 4371 
Q 838 4326 1082 4320 
z
M 1510 3322 
L 2554 3322 
L 2554 3885 
L 1510 3885 
L 1510 3322 
z
M 2554 2957 
L 1510 2957 
L 1510 2349 
L 2554 2349 
L 2554 2957 
z
M 1510 1997 
L 1510 1389 
L 2554 1389 
L 2554 1997 
L 1510 1997 
z
M 4160 1427 
Q 4000 160 3347 -614 
Q 3200 -461 2880 -352 
Q 3264 51 3494 630 
Q 3725 1210 3725 2611 
L 3725 4051 
Q 3725 4486 3674 4883 
Q 4058 4832 4710 4832 
Q 5363 4832 5754 4883 
Q 5702 4550 5702 4051 
L 5702 32 
Q 5702 -218 5654 -326 
Q 5606 -435 5424 -486 
Q 5242 -538 4794 -576 
Q 4806 -301 4614 13 
Q 4832 -6 4963 -6 
Q 5094 -6 5161 35 
Q 5229 77 5229 269 
L 5229 1427 
L 4160 1427 
z
M 5229 3360 
L 5229 4403 
L 4186 4403 
L 4186 3360 
L 5229 3360 
z
M 4186 2957 
L 4186 1824 
L 5229 1824 
L 5229 2957 
L 4186 2957 
z
M 3149 339 
L 2746 19 
Q 2534 416 2182 659 
L 2554 934 
Q 2893 659 3149 339 
z
M 1286 883 
Q 1510 723 1805 640 
Q 1862 627 1862 601 
Q 1862 576 1818 563 
Q 1683 518 1475 281 
Q 1267 45 864 -448 
Q 678 -282 384 -205 
Q 954 160 1286 883 
z
" transform="scale(0.015625)"/>
        <path id="STHeiti-501f" d="M 4870 4256 
Q 5536 4269 5824 4314 
L 5824 3795 
Q 5510 3840 4870 3853 
L 4870 3078 
Q 5779 3078 6099 3136 
L 6099 2592 
Q 5741 2650 4032 2650 
Q 2323 2650 1914 2592 
L 1914 3136 
Q 2310 3085 2957 3078 
L 2957 3846 
Q 2573 3840 2202 3795 
L 2202 4314 
Q 2554 4269 2957 4262 
Q 2957 4851 2893 5146 
Q 3098 5114 3302 5114 
L 3514 5120 
Q 3571 5120 3571 5094 
Q 3571 5069 3526 5030 
Q 3437 4960 3437 4768 
L 3437 4256 
L 4410 4256 
Q 4410 4864 4346 5165 
Q 4627 5120 4922 5120 
Q 4998 5120 4998 5097 
Q 4998 5075 4954 5037 
Q 4870 4973 4870 4762 
L 4870 4256 
z
M 4410 3853 
L 3437 3853 
L 3437 3078 
L 4410 3078 
L 4410 3853 
z
M 1082 2893 
Q 883 2515 608 2061 
Q 448 2298 224 2477 
Q 1165 3725 1498 5133 
Q 1792 5018 2022 4947 
Q 2131 4915 2131 4867 
Q 2131 4819 2042 4749 
Q 2003 4717 1587 3878 
L 1587 -634 
L 1011 -634 
Q 1082 64 1082 742 
L 1082 2893 
z
M 2976 -166 
L 2976 -550 
L 2445 -550 
Q 2496 -115 2496 307 
L 2496 1453 
Q 2496 1888 2451 2157 
Q 2682 2118 3981 2118 
Q 5280 2118 5485 2157 
Q 5446 1971 5446 1453 
L 5446 390 
Q 5446 32 5491 -467 
L 4954 -467 
L 4954 -166 
L 2976 -166 
z
M 4954 1171 
L 4954 1715 
L 2976 1715 
L 2976 1171 
L 4954 1171 
z
M 2976 768 
L 2976 230 
L 4954 230 
L 4954 768 
L 2976 768 
z
" transform="scale(0.015625)"/>
       </defs>
       <use xlink:href="#STHeiti-77ed"/>
       <use xlink:href="#STHeiti-671f" transform="translate(99.999985 0)"/>
       <use xlink:href="#STHeiti-501f" transform="translate(199.999969 0)"/>
       <use xlink:href="#STHeiti-6b3e" transform="translate(299.999954 0)"/>
      </g>
     </g>
    </g>
    <g id="xtick_5">
     <g id="line2d_9">
      <path d="M 570.79803 282.845464 
L 570.79803 7.2 
" clip-path="url(#p621af7e133)" style="fill: none; stroke: #b0b0b0; stroke-opacity: 0.3; stroke-width: 0.8; stroke-linecap: square"/>
     </g>
     <g id="line2d_10">
      <g>
       <use xlink:href="#ma5e3cfa1c5" x="570.79803" y="282.845464" style="stroke: #000000; stroke-width: 0.8"/>
      </g>
     </g>
     <g id="text_5">
      <!-- 应付账款/票据 -->
      <g transform="translate(514.381392 329.053545) rotate(-30) scale(0.1 -0.1)">
       <defs>
        <path id="STHeiti-4ed8" d="M 1254 3014 
Q 922 2342 614 1862 
Q 486 2131 218 2278 
Q 480 2611 781 3136 
Q 1082 3661 1261 4118 
Q 1440 4576 1619 5171 
Q 1939 5011 2189 4966 
Q 2304 4947 2304 4896 
Q 2304 4845 2217 4784 
Q 2131 4723 1773 4064 
L 1773 -576 
L 1184 -576 
Q 1254 122 1254 800 
L 1254 3014 
z
M 5165 3226 
L 5165 90 
Q 5165 -192 5094 -313 
Q 5024 -435 4797 -499 
Q 4570 -563 4013 -627 
Q 3974 -294 3738 58 
Q 3962 32 4173 32 
Q 4384 32 4505 99 
Q 4627 166 4627 333 
L 4627 3232 
Q 2893 3232 2304 3168 
L 2304 3789 
Q 2938 3738 4627 3738 
Q 4627 4589 4570 5152 
Q 4902 5101 5081 5101 
Q 5261 5101 5261 5065 
Q 5261 5030 5232 4995 
Q 5203 4960 5184 4793 
Q 5165 4627 5165 4499 
L 5165 3744 
Q 5677 3750 6118 3802 
L 6118 3168 
Q 5709 3219 5165 3226 
z
M 3872 1440 
L 3315 1178 
Q 3130 1824 2720 2419 
L 3277 2669 
Q 3622 2022 3872 1440 
z
" transform="scale(0.015625)"/>
        <path id="STHeiti-2f" d="M 2611 5094 
L 704 -243 
L 224 -243 
L 2131 5094 
L 2611 5094 
z
" transform="scale(0.015625)"/>
       </defs>
       <use xlink:href="#STHeiti-5e94"/>
       <use xlink:href="#STHeiti-4ed8" transform="translate(99.999985 0)"/>
       <use xlink:href="#STHeiti-8d26" transform="translate(199.999969 0)"/>
       <use xlink:href="#STHeiti-6b3e" transform="translate(299.999954 0)"/>
       <use xlink:href="#STHeiti-2f" transform="translate(399.999939 0)"/>
       <use xlink:href="#STHeiti-7968" transform="translate(443.699936 0)"/>
       <use xlink:href="#STHeiti-636e" transform="translate(543.699921 0)"/>
      </g>
     </g>
    </g>
    <g id="xtick_6">
     <g id="line2d_11">
      <path d="M 701.867167 282.845464 
L 701.867167 7.2 
" clip-path="url(#p621af7e133)" style="fill: none; stroke: #b0b0b0; stroke-opacity: 0.3; stroke-width: 0.8; stroke-linecap: square"/>
     </g>
     <g id="line2d_12">
      <g>
       <use xlink:href="#ma5e3cfa1c5" x="701.867167" y="282.845464" style="stroke: #000000; stroke-width: 0.8"/>
      </g>
     </g>
     <g id="text_6">
      <!-- 折旧摊销（Q1估计） -->
      <g transform="translate(619.57396 343.950087) rotate(-30) scale(0.1 -0.1)">
       <defs>
        <path id="STHeiti-6298" d="M 1414 1715 
Q 826 1504 493 1338 
Q 448 1670 346 1990 
Q 941 2093 1414 2227 
L 1414 3341 
Q 742 3328 442 3290 
L 442 3859 
Q 800 3808 1414 3802 
Q 1414 4838 1344 5261 
Q 1574 5216 1978 5216 
Q 2138 5216 2138 5165 
Q 2138 5114 2058 5053 
Q 1978 4992 1955 4944 
Q 1933 4896 1933 4813 
L 1933 3802 
Q 2464 3814 2778 3859 
L 2778 3290 
Q 2483 3334 1933 3334 
L 1933 2381 
Q 2298 2496 2707 2675 
Q 2675 2547 2675 2403 
Q 2675 2259 2707 2138 
Q 2330 2029 1933 1894 
L 1933 269 
Q 1933 -19 1872 -144 
Q 1811 -269 1596 -352 
Q 1382 -435 858 -525 
Q 864 -166 627 160 
Q 947 134 1126 134 
Q 1306 134 1360 179 
Q 1414 224 1414 346 
L 1414 1715 
z
M 4666 2771 
L 3744 2771 
Q 3725 1594 3504 784 
Q 3283 -26 2803 -653 
Q 2547 -416 2182 -333 
Q 2810 282 3014 1069 
Q 3219 1856 3219 3277 
Q 3219 4154 3162 4672 
Q 3597 4653 4365 4816 
Q 5133 4979 5485 5184 
Q 5549 5037 5661 4854 
Q 5773 4672 5837 4614 
Q 5901 4557 5901 4537 
Q 5901 4518 5843 4508 
Q 5786 4499 5651 4486 
L 4787 4371 
Q 4064 4262 3744 4230 
L 3744 3251 
L 4890 3251 
Q 5696 3251 6093 3328 
L 6093 2694 
Q 5747 2752 5197 2765 
L 5197 467 
Q 5197 58 5242 -550 
L 4627 -550 
Q 4666 -19 4666 467 
L 4666 2771 
z
" transform="scale(0.015625)"/>
        <path id="STHeiti-65e7" d="M 794 4742 
Q 1011 4717 1216 4717 
L 1466 4723 
Q 1568 4723 1568 4684 
Q 1568 4646 1478 4585 
Q 1389 4525 1389 4102 
L 1389 704 
Q 1389 230 1459 -480 
L 794 -480 
Q 851 102 851 704 
L 851 3782 
Q 851 4480 794 4742 
z
M 2771 -6 
L 2771 -582 
L 2182 -582 
Q 2234 -58 2234 557 
L 2234 3885 
Q 2234 4390 2176 4710 
Q 2522 4666 3837 4666 
Q 5152 4666 5574 4710 
Q 5517 4403 5517 3885 
L 5517 506 
Q 5517 -32 5574 -480 
L 4966 -480 
L 4966 -6 
L 2771 -6 
z
M 4966 2650 
L 4966 4179 
L 2771 4179 
L 2771 2650 
L 4966 2650 
z
M 2771 2170 
L 2771 474 
L 4966 474 
L 4966 2170 
L 2771 2170 
z
" transform="scale(0.015625)"/>
        <path id="STHeiti-644a" d="M 5517 4442 
L 5050 4218 
Q 4934 4525 4749 4858 
L 5190 5094 
Q 5344 4723 5517 4442 
z
M 4256 -6 
L 4256 -570 
L 3776 -570 
Q 3827 179 3827 806 
L 3827 2931 
Q 3661 2573 3482 2304 
Q 3334 2534 3142 2611 
Q 3533 3213 3725 3939 
Q 3917 4666 3949 5088 
Q 4083 5043 4275 5008 
Q 4467 4973 4553 4973 
Q 4640 4973 4640 4941 
Q 4640 4909 4579 4848 
Q 4518 4787 4457 4646 
Q 4397 4506 4250 4083 
L 4986 4083 
Q 5658 4070 5914 4128 
L 5914 3635 
Q 5811 3661 5306 3667 
L 5306 2925 
Q 5664 2931 5824 2957 
L 5824 2464 
Q 5664 2490 5306 2490 
L 5306 1664 
Q 5696 1670 5856 1696 
L 5856 1203 
Q 5683 1229 5306 1229 
L 5306 429 
Q 5907 429 6042 461 
L 6042 -38 
Q 5888 -6 5114 -6 
L 4256 -6 
z
M 4256 3667 
L 4256 2925 
L 4870 2925 
L 4870 3667 
L 4256 3667 
z
M 4256 2496 
L 4256 1664 
L 4870 1664 
L 4870 2496 
L 4256 2496 
z
M 4256 1235 
L 4256 429 
L 4870 429 
L 4870 1235 
L 4256 1235 
z
M 1024 2387 
L 1024 3411 
Q 640 3405 352 3373 
L 352 3872 
Q 659 3840 1024 3840 
Q 1024 4723 966 5069 
Q 1146 5037 1530 5037 
Q 1651 5037 1651 4998 
Q 1651 4960 1564 4883 
Q 1478 4806 1478 4646 
L 1478 3840 
Q 1862 3846 2042 3872 
L 2042 3373 
Q 1779 3405 1478 3405 
L 1478 2522 
Q 1613 2566 1933 2682 
Q 1920 2400 1971 2234 
Q 1645 2131 1478 2067 
L 1478 141 
Q 1478 -122 1440 -224 
Q 1402 -326 1254 -377 
Q 1107 -429 710 -493 
Q 666 -198 454 115 
Q 666 96 800 96 
Q 934 96 979 134 
Q 1024 173 1024 282 
L 1024 1875 
Q 755 1747 486 1581 
Q 454 1939 346 2227 
Q 627 2278 1024 2387 
z
M 2656 2669 
Q 2790 3258 2835 4019 
L 2413 4019 
Q 2189 4019 2003 4000 
L 2003 4499 
Q 2202 4480 2627 4480 
Q 3053 4480 3366 4499 
Q 3181 2957 2912 2106 
Q 3283 1280 3514 730 
L 3040 506 
Q 2874 1056 2707 1498 
Q 2426 762 2093 160 
Q 1914 301 1658 410 
Q 2016 870 2470 2093 
Q 2291 2534 1952 3187 
L 2304 3411 
Q 2541 2925 2656 2669 
z
" transform="scale(0.015625)"/>
        <path id="STHeiti-9500" d="M 4000 3264 
L 4000 4474 
Q 4000 4845 3955 5242 
Q 4141 5203 4608 5203 
Q 4710 5203 4710 5161 
Q 4710 5120 4640 5050 
Q 4518 4941 4518 4723 
L 4518 3264 
Q 5254 3270 5741 3315 
Q 5702 3072 5702 2496 
L 5702 -147 
Q 5702 -314 5641 -400 
Q 5581 -486 5385 -537 
Q 5190 -589 4794 -614 
Q 4730 -346 4576 -70 
Q 4851 -70 4976 -54 
Q 5101 -38 5136 3 
Q 5171 45 5171 128 
L 5171 710 
L 3437 710 
L 3437 -538 
L 2867 -538 
Q 2912 -58 2912 410 
L 2912 2496 
Q 2912 3110 2880 3315 
Q 3251 3283 4000 3264 
z
M 3437 2214 
L 5171 2214 
L 5171 2854 
L 3437 2854 
L 3437 2214 
z
M 5171 1805 
L 3437 1805 
L 3437 1133 
L 5171 1133 
L 5171 1805 
z
M 1184 3866 
Q 896 3456 602 3130 
Q 442 3354 250 3475 
Q 890 4102 1382 5210 
Q 1606 5062 1804 5011 
Q 2003 4960 2003 4909 
Q 2003 4858 1881 4794 
Q 1760 4730 1459 4282 
Q 2234 4282 2464 4314 
L 2464 3834 
Q 2259 3866 1184 3866 
z
M 5414 4960 
Q 5722 4768 5958 4666 
Q 6022 4640 6022 4605 
Q 6022 4570 5939 4544 
Q 5856 4518 5728 4368 
Q 5600 4218 5216 3674 
Q 4979 3821 4781 3872 
Q 5235 4461 5414 4960 
z
M 3610 3917 
L 3098 3674 
Q 2950 4179 2624 4627 
L 3104 4851 
Q 3341 4512 3610 3917 
z
M 1171 1600 
Q 627 1581 397 1542 
L 397 2067 
Q 608 2022 1171 2003 
L 1171 2810 
Q 896 2790 774 2765 
L 774 3270 
Q 1094 3219 1564 3219 
Q 2035 3219 2438 3270 
L 2438 2765 
Q 2138 2810 1664 2822 
L 1664 2003 
Q 2278 2016 2573 2067 
L 2573 1542 
Q 2195 1594 1664 1606 
L 1664 480 
Q 2074 774 2298 1018 
Q 2362 730 2496 595 
L 1760 -26 
Q 1472 -275 1331 -486 
Q 1178 -205 1005 -38 
Q 1171 115 1171 493 
L 1171 1600 
z
" transform="scale(0.015625)"/>
        <path id="STHeiti-ff08" d="M 5651 -749 
L 5274 -749 
Q 4646 173 4409 835 
Q 4173 1498 4173 2266 
Q 4173 3034 4432 3750 
Q 4691 4467 5254 5267 
L 5645 5267 
Q 5082 4237 4928 3606 
Q 4774 2976 4774 2093 
Q 4774 1472 4953 861 
Q 5133 250 5651 -749 
z
" transform="scale(0.015625)"/>
        <path id="STHeiti-51" d="M 4416 883 
L 5094 19 
L 4531 19 
L 4064 614 
Q 3494 269 2822 269 
Q 1779 269 1072 963 
Q 365 1658 365 2662 
Q 365 3693 1049 4393 
Q 1734 5094 2784 5094 
Q 3443 5094 4003 4774 
Q 4563 4454 4883 3897 
Q 5203 3341 5203 2682 
Q 5203 1626 4416 883 
z
M 4134 1242 
Q 4730 1830 4730 2668 
Q 4730 3507 4154 4076 
Q 3578 4646 2778 4646 
Q 1978 4646 1411 4070 
Q 845 3494 845 2659 
Q 845 1824 1421 1270 
Q 1997 717 2790 717 
Q 3322 717 3776 979 
L 2752 2278 
L 3309 2278 
L 4134 1242 
z
" transform="scale(0.015625)"/>
        <path id="STHeiti-31" d="M 1184 4979 
L 2086 4979 
L 2086 384 
L 1632 384 
L 1632 4531 
L 909 4531 
L 1184 4979 
z
" transform="scale(0.015625)"/>
        <path id="STHeiti-4f30" d="M 1120 2784 
Q 864 2419 717 2227 
Q 608 2451 320 2656 
Q 838 3226 1145 3856 
Q 1453 4486 1638 5261 
Q 1933 5037 2221 4992 
Q 2291 4979 2291 4950 
Q 2291 4922 2221 4845 
Q 2067 4678 1632 3712 
L 1632 -557 
L 1050 -557 
Q 1120 115 1120 736 
L 1120 2784 
z
M 4928 0 
L 3008 0 
L 3008 -544 
L 2438 -544 
Q 2464 -250 2464 122 
L 2464 1984 
Q 2464 2221 2438 2342 
Q 2733 2323 3680 2323 
L 3680 3437 
Q 2701 3430 2061 3373 
L 2061 3949 
Q 2656 3898 3680 3891 
L 3680 4461 
Q 3680 4947 3642 5203 
Q 3846 5165 4307 5165 
Q 4378 5165 4378 5129 
Q 4378 5094 4333 5056 
Q 4218 4960 4218 4698 
L 4218 3891 
Q 5299 3891 5907 3949 
L 5907 3373 
Q 5325 3437 4218 3437 
L 4218 2323 
Q 5254 2323 5504 2342 
Q 5472 2221 5472 1984 
L 5472 109 
Q 5472 -262 5491 -454 
L 4928 -454 
L 4928 0 
z
M 3008 454 
L 4928 454 
L 4928 1869 
L 3008 1869 
L 3008 454 
z
" transform="scale(0.015625)"/>
        <path id="STHeiti-8ba1" d="M 4646 3309 
Q 5555 3315 6138 3366 
L 6138 2726 
Q 5389 2778 4646 2778 
L 4646 506 
Q 4646 -32 4704 -646 
L 3994 -646 
Q 4051 -58 4051 506 
L 4051 2784 
Q 2982 2778 2336 2726 
L 2336 3366 
Q 2995 3315 4051 3309 
L 4051 4288 
Q 4051 4973 3981 5267 
Q 4141 5235 4288 5222 
Q 4435 5210 4538 5210 
L 4717 5216 
Q 4826 5216 4826 5174 
Q 4826 5133 4755 5091 
Q 4685 5050 4665 4957 
Q 4646 4864 4646 4608 
L 4646 3309 
z
M 2099 4147 
L 1523 3814 
Q 1299 4346 890 4896 
L 1427 5197 
Q 1754 4614 2099 4147 
z
M 2688 909 
L 1946 173 
Q 1670 -90 1370 -538 
Q 1146 -218 922 -13 
Q 1037 122 1088 269 
Q 1139 416 1139 659 
L 1139 2739 
Q 608 2739 262 2694 
L 262 3315 
Q 563 3270 979 3270 
Q 1395 3270 1766 3315 
Q 1683 2950 1683 2483 
L 1683 614 
Q 2163 1107 2432 1523 
Q 2522 1165 2688 909 
z
" transform="scale(0.015625)"/>
        <path id="STHeiti-ff09" d="M 1120 5267 
Q 1747 4346 1984 3683 
Q 2221 3021 2221 2253 
Q 2221 1485 1961 768 
Q 1702 51 1139 -749 
L 749 -749 
Q 1312 282 1465 912 
Q 1619 1542 1619 2426 
Q 1619 3046 1440 3657 
Q 1261 4269 742 5267 
L 1120 5267 
z
" transform="scale(0.015625)"/>
       </defs>
       <use xlink:href="#STHeiti-6298"/>
       <use xlink:href="#STHeiti-65e7" transform="translate(99.999985 0)"/>
       <use xlink:href="#STHeiti-644a" transform="translate(199.999969 0)"/>
       <use xlink:href="#STHeiti-9500" transform="translate(299.999954 0)"/>
       <use xlink:href="#STHeiti-ff08" transform="translate(399.999939 0)"/>
       <use xlink:href="#STHeiti-51" transform="translate(499.999924 0)"/>
       <use xlink:href="#STHeiti-31" transform="translate(587.099915 0)"/>
       <use xlink:href="#STHeiti-4f30" transform="translate(642.499908 0)"/>
       <use xlink:href="#STHeiti-8ba1" transform="translate(742.499893 0)"/>
       <use xlink:href="#STHeiti-ff09" transform="translate(842.499878 0)"/>
      </g>
     </g>
    </g>
   </g>
   <g id="matplotlib.axis_2">
    <g id="ytick_1">
     <g id="line2d_13">
      <path d="M 26.861114 280.084762 
L 701.867167 280.084762 
" clip-path="url(#p621af7e133)" style="fill: none; stroke: #b0b0b0; stroke-opacity: 0.3; stroke-width: 0.8; stroke-linecap: square"/>
     </g>
     <g id="line2d_14">
      <defs>
       <path id="me953476342" d="M 0 0 
L -3.5 0 
" style="stroke: #000000; stroke-width: 0.8"/>
      </defs>
      <g>
       <use xlink:href="#me953476342" x="26.861114" y="280.084762" style="stroke: #000000; stroke-width: 0.8"/>
      </g>
     </g>
     <g id="text_7">
      <!-- -3 -->
      <g transform="translate(11.000177 284.06445) scale(0.1 -0.1)">
       <defs>
        <path id="STHeiti-2d" d="M 205 2304 
L 1920 2304 
L 1920 1920 
L 205 1920 
L 205 2304 
z
" transform="scale(0.015625)"/>
        <path id="STHeiti-33" d="M 845 3917 
L 378 3917 
Q 506 4486 867 4790 
Q 1229 5094 1750 5094 
Q 2272 5094 2659 4748 
Q 3046 4403 3046 3910 
Q 3046 3315 2458 2970 
Q 2861 2803 3081 2473 
Q 3302 2144 3302 1754 
Q 3302 1146 2857 707 
Q 2413 269 1734 269 
Q 1133 269 742 611 
Q 352 954 224 1613 
L 672 1613 
Q 794 1158 1046 937 
Q 1299 717 1760 717 
Q 2221 717 2534 1011 
Q 2848 1306 2848 1741 
Q 2848 2176 2502 2441 
Q 2157 2707 1498 2720 
L 1498 3142 
Q 1971 3142 2268 3360 
Q 2566 3578 2566 3901 
Q 2566 4224 2326 4438 
Q 2086 4653 1747 4653 
Q 1408 4653 1200 4470 
Q 992 4288 845 3917 
z
" transform="scale(0.015625)"/>
       </defs>
       <use xlink:href="#STHeiti-2d"/>
       <use xlink:href="#STHeiti-33" transform="translate(33.199997 0)"/>
      </g>
     </g>
    </g>
    <g id="ytick_2">
     <g id="line2d_15">
      <path d="M 26.861114 237.612426 
L 701.867167 237.612426 
" clip-path="url(#p621af7e133)" style="fill: none; stroke: #b0b0b0; stroke-opacity: 0.3; stroke-width: 0.8; stroke-linecap: square"/>
     </g>
     <g id="line2d_16">
      <g>
       <use xlink:href="#me953476342" x="26.861114" y="237.612426" style="stroke: #000000; stroke-width: 0.8"/>
      </g>
     </g>
     <g id="text_8">
      <!-- -2 -->
      <g transform="translate(11.000177 241.592113) scale(0.1 -0.1)">
       <defs>
        <path id="STHeiti-32" d="M 742 3539 
L 301 3539 
Q 333 4243 768 4668 
Q 1203 5094 1820 5094 
Q 2438 5094 2844 4694 
Q 3251 4294 3251 3718 
Q 3251 3290 3024 2925 
Q 2797 2560 2336 2061 
L 1190 826 
L 3315 826 
L 3315 384 
L 192 384 
L 1946 2278 
Q 2406 2778 2604 3066 
Q 2803 3354 2803 3725 
Q 2803 4096 2512 4377 
Q 2221 4659 1789 4659 
Q 1357 4659 1072 4368 
Q 787 4077 742 3539 
z
" transform="scale(0.015625)"/>
       </defs>
       <use xlink:href="#STHeiti-2d"/>
       <use xlink:href="#STHeiti-32" transform="translate(33.199997 0)"/>
      </g>
     </g>
    </g>
    <g id="ytick_3">
     <g id="line2d_17">
      <path d="M 26.861114 195.140089 
L 701.867167 195.140089 
" clip-path="url(#p621af7e133)" style="fill: none; stroke: #b0b0b0; stroke-opacity: 0.3; stroke-width: 0.8; stroke-linecap: square"/>
     </g>
     <g id="line2d_18">
      <g>
       <use xlink:href="#me953476342" x="26.861114" y="195.140089" style="stroke: #000000; stroke-width: 0.8"/>
      </g>
     </g>
     <g id="text_9">
      <!-- -1 -->
      <g transform="translate(11.000177 199.119777) scale(0.1 -0.1)">
       <use xlink:href="#STHeiti-2d"/>
       <use xlink:href="#STHeiti-31" transform="translate(33.199997 0)"/>
      </g>
     </g>
    </g>
    <g id="ytick_4">
     <g id="line2d_19">
      <path d="M 26.861114 152.667753 
L 701.867167 152.667753 
" clip-path="url(#p621af7e133)" style="fill: none; stroke: #b0b0b0; stroke-opacity: 0.3; stroke-width: 0.8; stroke-linecap: square"/>
     </g>
     <g id="line2d_20">
      <g>
       <use xlink:href="#me953476342" x="26.861114" y="152.667753" style="stroke: #000000; stroke-width: 0.8"/>
      </g>
     </g>
     <g id="text_10">
      <!-- 0 -->
      <g transform="translate(14.320489 156.64744) scale(0.1 -0.1)">
       <defs>
        <path id="STHeiti-30" d="M 1747 269 
Q 1005 269 605 880 
Q 205 1491 205 2681 
Q 205 3872 605 4483 
Q 1005 5094 1741 5094 
Q 2477 5094 2909 4470 
Q 3341 3846 3341 2681 
Q 3341 1517 2905 893 
Q 2470 269 1747 269 
z
M 1760 4659 
Q 1229 4659 934 4147 
Q 640 3635 640 2669 
Q 640 685 1760 685 
Q 2304 685 2608 1206 
Q 2912 1728 2912 2681 
Q 2912 3635 2598 4147 
Q 2285 4659 1760 4659 
z
" transform="scale(0.015625)"/>
       </defs>
       <use xlink:href="#STHeiti-30"/>
      </g>
     </g>
    </g>
    <g id="ytick_5">
     <g id="line2d_21">
      <path d="M 26.861114 110.195416 
L 701.867167 110.195416 
" clip-path="url(#p621af7e133)" style="fill: none; stroke: #b0b0b0; stroke-opacity: 0.3; stroke-width: 0.8; stroke-linecap: square"/>
     </g>
     <g id="line2d_22">
      <g>
       <use xlink:href="#me953476342" x="26.861114" y="110.195416" style="stroke: #000000; stroke-width: 0.8"/>
      </g>
     </g>
     <g id="text_11">
      <!-- 1 -->
      <g transform="translate(14.320489 114.175104) scale(0.1 -0.1)">
       <use xlink:href="#STHeiti-31"/>
      </g>
     </g>
    </g>
    <g id="ytick_6">
     <g id="line2d_23">
      <path d="M 26.861114 67.72308 
L 701.867167 67.72308 
" clip-path="url(#p621af7e133)" style="fill: none; stroke: #b0b0b0; stroke-opacity: 0.3; stroke-width: 0.8; stroke-linecap: square"/>
     </g>
     <g id="line2d_24">
      <g>
       <use xlink:href="#me953476342" x="26.861114" y="67.72308" style="stroke: #000000; stroke-width: 0.8"/>
      </g>
     </g>
     <g id="text_12">
      <!-- 2 -->
      <g transform="translate(14.320489 71.702767) scale(0.1 -0.1)">
       <use xlink:href="#STHeiti-32"/>
      </g>
     </g>
    </g>
    <g id="ytick_7">
     <g id="line2d_25">
      <path d="M 26.861114 25.250743 
L 701.867167 25.250743 
" clip-path="url(#p621af7e133)" style="fill: none; stroke: #b0b0b0; stroke-opacity: 0.3; stroke-width: 0.8; stroke-linecap: square"/>
     </g>
     <g id="line2d_26">
      <g>
       <use xlink:href="#me953476342" x="26.861114" y="25.250743" style="stroke: #000000; stroke-width: 0.8"/>
      </g>
     </g>
     <g id="text_13">
      <!-- 3 -->
      <g transform="translate(14.320489 29.230431) scale(0.1 -0.1)">
       <use xlink:href="#STHeiti-33"/>
      </g>
     </g>
    </g>
   </g>
   <g id="line2d_27">
    <path d="M 46.521485 270.316125 
L 177.590621 19.729339 
L 308.659758 120.8135 
L 439.728894 152.667753 
" clip-path="url(#p621af7e133)" style="fill: none; stroke: #1a365d; stroke-width: 2; stroke-linecap: square"/>
    <defs>
     <path id="md719aa81ff" d="M 0 3 
C 0.795609 3 1.55874 2.683901 2.12132 2.12132 
C 2.683901 1.55874 3 0.795609 3 0 
C 3 -0.795609 2.683901 -1.55874 2.12132 -2.12132 
C 1.55874 -2.683901 0.795609 -3 0 -3 
C -0.795609 -3 -1.55874 -2.683901 -2.12132 -2.12132 
C -2.683901 -1.55874 -3 -0.795609 -3 0 
C -3 0.795609 -2.683901 1.55874 -2.12132 2.12132 
C -1.55874 2.683901 -0.795609 3 0 3 
z
" style="stroke: #1a365d"/>
    </defs>
    <g clip-path="url(#p621af7e133)">
     <use xlink:href="#md719aa81ff" x="46.521485" y="270.316125" style="fill: #1a365d; stroke: #1a365d"/>
     <use xlink:href="#md719aa81ff" x="177.590621" y="19.729339" style="fill: #1a365d; stroke: #1a365d"/>
     <use xlink:href="#md719aa81ff" x="308.659758" y="120.8135" style="fill: #1a365d; stroke: #1a365d"/>
     <use xlink:href="#md719aa81ff" x="439.728894" y="152.667753" style="fill: #1a365d; stroke: #1a365d"/>
    </g>
   </g>
   <g id="patch_3">
    <path d="M 26.861114 282.845464 
L 26.861114 7.2 
" style="fill: none; stroke: #000000; stroke-width: 0.8; stroke-linejoin: miter; stroke-linecap: square"/>
   </g>
   <g id="patch_4">
    <path d="M 701.867167 282.845464 
L 701.867167 7.2 
" style="fill: none; stroke: #000000; stroke-width: 0.8; stroke-linejoin: miter; stroke-linecap: square"/>
   </g>
   <g id="patch_5">
    <path d="M 26.861114 282.845464 
L 701.867167 282.845464 
" style="fill: none; stroke: #000000; stroke-width: 0.8; stroke-linejoin: miter; stroke-linecap: square"/>
   </g>
   <g id="patch_6">
    <path d="M 26.861114 7.2 
L 701.867167 7.2 
" style="fill: none; stroke: #000000; stroke-width: 0.8; stroke-linejoin: miter; stroke-linecap: square"/>
   </g>
   <g id="legend_1">
    <g id="patch_7">
     <path d="M 594.767167 27.414844 
L 695.567167 27.414844 
Q 697.367167 27.414844 697.367167 25.614844 
L 697.367167 13.5 
Q 697.367167 11.7 695.567167 11.7 
L 594.767167 11.7 
Q 592.967167 11.7 592.967167 13.5 
L 592.967167 25.614844 
Q 592.967167 27.414844 594.767167 27.414844 
z
" style="fill: #ffffff; opacity: 0.8; stroke: #cccccc; stroke-linejoin: miter"/>
    </g>
    <g id="line2d_28">
     <path d="M 596.567167 19.458281 
L 605.567167 19.458281 
L 614.567167 19.458281 
" style="fill: none; stroke: #1a365d; stroke-width: 2; stroke-linecap: square"/>
     <g>
      <use xlink:href="#md719aa81ff" x="605.567167" y="19.458281" style="fill: #1a365d; stroke: #1a365d"/>
     </g>
    </g>
    <g id="text_14">
     <!-- 金额影响（估计） -->
     <g transform="translate(621.767167 22.608281) scale(0.09 -0.09)">
      <defs>
       <path id="STHeiti-91d1" d="M 3386 4947 
Q 4038 4243 4636 3878 
Q 5235 3514 6138 3302 
Q 6042 3213 5958 3024 
Q 5875 2835 5869 2688 
Q 4192 3251 3123 4698 
Q 2586 3968 1632 3187 
Q 2182 3142 3200 3142 
Q 4218 3142 4736 3194 
L 4736 2662 
Q 4314 2694 3405 2707 
L 3405 1920 
Q 4768 1920 5261 1958 
L 5261 1440 
Q 4768 1478 3405 1478 
L 3405 154 
L 4006 147 
Q 4288 787 4371 1299 
Q 4736 1146 4922 1094 
Q 4979 1075 4979 1024 
Q 4979 973 4934 954 
Q 4826 902 4390 147 
Q 5094 154 5632 211 
L 5632 -390 
Q 4525 -320 3024 -320 
Q 1523 -320 646 -384 
L 646 218 
Q 1472 154 2886 154 
L 2886 1478 
Q 1638 1478 1005 1434 
L 1005 1965 
Q 1664 1920 2886 1920 
L 2886 2707 
Q 1990 2707 1574 2662 
L 1574 3142 
Q 1037 2720 678 2528 
Q 570 2797 275 2925 
Q 742 3130 1184 3469 
Q 1626 3808 1984 4173 
Q 2342 4538 2505 4787 
Q 2669 5037 2778 5306 
Q 3219 5126 3360 5107 
Q 3501 5088 3501 5040 
Q 3501 4992 3386 4947 
z
M 2234 525 
L 1709 275 
Q 1491 774 1286 1037 
L 1805 1261 
Q 2080 832 2234 525 
z
" transform="scale(0.015625)"/>
       <path id="STHeiti-989d" d="M 2182 4538 
Q 2733 4538 3168 4570 
L 3168 3763 
L 2707 3763 
L 2707 4134 
L 902 4134 
L 902 3546 
L 461 3546 
L 461 4563 
Q 858 4538 1619 4538 
Q 1549 4826 1459 5011 
L 1990 5126 
Q 2106 4826 2182 4538 
z
M 4288 4384 
Q 3680 4378 3366 4333 
L 3366 4851 
Q 3763 4800 4643 4800 
Q 5523 4800 5920 4851 
L 5920 4333 
Q 5555 4384 4781 4384 
Q 4653 3898 4614 3642 
Q 5440 3642 5766 3667 
Q 5754 3571 5754 2899 
L 5754 1830 
Q 5754 1254 5779 1030 
L 5267 1030 
L 5267 3219 
L 3866 3219 
L 3866 915 
L 3379 915 
Q 3405 1152 3405 1715 
L 3405 2899 
Q 3405 3590 3398 3667 
Q 3642 3654 4166 3642 
Q 4243 4019 4288 4384 
z
M 2336 19 
L 1370 19 
L 1370 -570 
L 883 -570 
Q 947 -154 947 224 
L 947 1210 
Q 806 1107 659 1024 
Q 518 1203 307 1376 
Q 1037 1670 1619 2234 
Q 1376 2349 1120 2464 
L 1382 2778 
Q 1664 2650 1894 2541 
Q 2118 2803 2291 3053 
L 1357 3053 
Q 1107 2707 730 2336 
Q 550 2496 301 2579 
Q 1037 3162 1402 3968 
Q 1677 3834 1808 3824 
Q 1939 3814 1939 3772 
Q 1939 3731 1859 3686 
Q 1779 3642 1638 3443 
L 2266 3443 
Q 2771 3443 3040 3462 
Q 2694 2810 2291 2355 
Q 2714 2150 3245 1869 
L 2957 1459 
Q 2586 1741 1990 2048 
Q 1651 1728 1286 1453 
L 2042 1453 
Q 2560 1453 2771 1478 
Q 2752 1325 2752 998 
L 2752 442 
Q 2752 0 2803 -358 
L 2336 -358 
L 2336 19 
z
M 1370 390 
L 2336 390 
L 2336 1082 
L 1370 1082 
L 1370 390 
z
M 4307 2957 
Q 4570 2925 4755 2925 
L 4870 2931 
Q 4909 2931 4909 2912 
Q 4909 2893 4877 2867 
Q 4806 2816 4806 2643 
Q 4806 2285 4739 1440 
Q 4672 595 4243 89 
Q 3814 -416 3251 -627 
Q 3123 -442 2867 -269 
Q 3181 -154 3469 41 
Q 3757 237 3958 499 
Q 4160 762 4243 1062 
Q 4326 1363 4326 2246 
Q 4326 2630 4307 2957 
z
M 6138 -134 
L 5734 -531 
Q 5158 77 4653 454 
L 4992 794 
Q 5587 378 6138 -134 
z
" transform="scale(0.015625)"/>
       <path id="STHeiti-5f71" d="M 4966 5152 
Q 5331 4890 5555 4826 
Q 5651 4794 5651 4752 
Q 5651 4710 5555 4684 
Q 5459 4659 5184 4262 
Q 4787 3699 4192 3117 
Q 3962 3283 3680 3360 
Q 4102 3654 4464 4163 
Q 4826 4672 4966 5152 
z
M 3590 3219 
Q 3027 3264 2169 3264 
Q 1312 3264 883 3219 
Q 915 3578 915 4086 
Q 915 4595 883 4966 
Q 1261 4915 2214 4915 
Q 3168 4915 3590 4966 
Q 3552 4614 3552 4108 
Q 3552 3603 3590 3219 
z
M 3078 4243 
L 3078 4576 
L 1389 4576 
L 1389 4243 
L 3078 4243 
z
M 3078 3578 
L 3078 3923 
L 1389 3923 
L 1389 3578 
L 3078 3578 
z
M 5306 3418 
Q 5370 3328 5520 3216 
Q 5670 3104 5785 3056 
Q 5901 3008 5901 2973 
Q 5901 2938 5824 2915 
Q 5747 2893 5625 2774 
Q 5504 2656 5398 2505 
Q 5293 2355 4902 1980 
Q 4512 1606 4198 1363 
Q 4038 1568 3763 1683 
Q 5056 2534 5306 3418 
z
M 2010 2797 
Q 1933 2989 1875 3117 
L 2483 3181 
Q 2509 2995 2566 2797 
Q 3462 2803 4019 2854 
L 4019 2394 
Q 3456 2451 2224 2451 
Q 992 2451 435 2394 
L 435 2854 
Q 1037 2803 2010 2797 
z
M 2496 1062 
L 2496 -83 
Q 2496 -269 2441 -368 
Q 2387 -467 2217 -531 
Q 2048 -595 1683 -646 
Q 1677 -378 1466 -102 
Q 1664 -134 1785 -134 
Q 1907 -134 1964 -80 
Q 2022 -26 2022 141 
L 2022 1062 
Q 1286 1062 896 1024 
Q 922 1254 922 1625 
Q 922 1997 896 2176 
Q 1370 2138 2246 2138 
Q 3123 2138 3597 2176 
Q 3565 1933 3565 1587 
Q 3565 1242 3597 1024 
Q 3270 1050 2496 1062 
z
M 3085 1402 
L 3085 1798 
L 1402 1798 
L 1402 1402 
L 3085 1402 
z
M 5568 1702 
Q 5798 1504 6035 1376 
Q 6125 1325 6125 1293 
Q 6125 1261 6035 1222 
Q 5984 1203 5606 781 
Q 5056 154 4694 -134 
Q 4333 -422 3814 -717 
Q 3725 -474 3411 -333 
Q 4928 390 5568 1702 
z
M 1184 909 
Q 1344 710 1581 653 
Q 1658 634 1658 595 
Q 1658 557 1568 521 
Q 1478 486 1411 435 
Q 1344 384 1129 185 
Q 915 -13 742 -224 
Q 595 -32 320 64 
Q 806 314 1184 909 
z
M 3686 250 
L 3264 0 
Q 3098 403 2835 646 
L 3219 883 
Q 3482 518 3686 250 
z
" transform="scale(0.015625)"/>
       <path id="STHeiti-54cd" d="M 3475 4314 
Q 3571 4832 3616 5293 
Q 3955 5190 4269 5190 
Q 4365 5190 4365 5148 
Q 4365 5107 4281 5033 
Q 4198 4960 4115 4784 
Q 4032 4608 3930 4314 
L 4595 4314 
Q 5536 4307 5843 4378 
Q 5811 4026 5811 3219 
L 5811 -51 
Q 5811 -218 5744 -304 
Q 5677 -390 5472 -460 
Q 5267 -531 4806 -621 
Q 4774 -358 4570 6 
Q 4717 0 4899 0 
Q 5082 0 5197 45 
Q 5312 90 5312 275 
L 5312 3859 
L 3046 3859 
L 3046 -557 
L 2496 -557 
Q 2560 70 2560 755 
L 2560 3219 
Q 2560 3955 2515 4378 
Q 2726 4333 3475 4314 
z
M 1677 915 
L 1069 915 
L 1069 38 
L 538 38 
Q 602 525 602 1069 
L 602 3802 
Q 602 4320 557 4608 
Q 934 4563 1372 4563 
Q 1811 4563 2182 4608 
Q 2138 4307 2138 3802 
L 2138 1344 
Q 2138 819 2182 461 
L 1677 461 
L 1677 915 
z
M 1069 1363 
L 1677 1363 
L 1677 4102 
L 1069 4102 
L 1069 1363 
z
M 4877 781 
Q 4672 813 4189 813 
Q 3706 813 3450 774 
Q 3488 1261 3488 2045 
Q 3488 2829 3450 3162 
Q 3795 3110 4195 3110 
Q 4595 3110 4877 3162 
Q 4851 2765 4851 2029 
Q 4851 1293 4877 781 
z
M 4422 1274 
L 4422 2669 
L 3904 2669 
L 3904 1274 
L 4422 1274 
z
" transform="scale(0.015625)"/>
      </defs>
      <use xlink:href="#STHeiti-91d1"/>
      <use xlink:href="#STHeiti-989d" transform="translate(99.999985 0)"/>
      <use xlink:href="#STHeiti-5f71" transform="translate(199.999969 0)"/>
      <use xlink:href="#STHeiti-54cd" transform="translate(299.999954 0)"/>
      <use xlink:href="#STHeiti-ff08" transform="translate(399.999939 0)"/>
      <use xlink:href="#STHeiti-4f30" transform="translate(499.999924 0)"/>
      <use xlink:href="#STHeiti-8ba1" transform="translate(599.999908 0)"/>
      <use xlink:href="#STHeiti-ff09" transform="translate(699.999893 0)"/>
     </g>
    </g>
   </g>
  </g>
 </g>
 <defs>
  <clipPath id="p621af7e133">
   <rect x="26.861114" y="7.2" width="675.006052" height="275.645464"/>
  </clipPath>
 </defs>
</svg>
