<?xml version="1.0" encoding="utf-8" standalone="no"?>
<!DOCTYPE svg PUBLIC "-//W3C//DTD SVG 1.1//EN"
  "http://www.w3.org/Graphics/SVG/1.1/DTD/svg11.dtd">
<svg xmlns:xlink="http://www.w3.org/1999/xlink" width="712.693125pt" height="352.365126pt" viewBox="0 0 712.693125 352.365126" xmlns="http://www.w3.org/2000/svg" version="1.1">
 <metadata>
  <rdf:RDF xmlns:dc="http://purl.org/dc/elements/1.1/" xmlns:cc="http://creativecommons.org/ns#" xmlns:rdf="http://www.w3.org/1999/02/22-rdf-syntax-ns#">
   <cc:Work>
    <dc:type rdf:resource="http://purl.org/dc/dcmitype/StillImage"/>
    <dc:date>2026-06-06T21:15:55.414039</dc:date>
    <dc:format>image/svg+xml</dc:format>
    <dc:creator>
     <cc:Agent>
      <dc:title>Matplotlib v3.10.9, https://matplotlib.org/</dc:title>
     </cc:Agent>
    </dc:creator>
   </cc:Work>
  </rdf:RDF>
 </metadata>
 <defs>
  <style type="text/css">*{stroke-linejoin: round; stroke-linecap: butt}</style>
 </defs>
 <g id="figure_1">
  <g id="patch_1">
   <path d="M -0 352.365126 
L 712.693125 352.365126 
L 712.693125 0 
L -0 0 
z
" style="fill: #ffffff"/>
  </g>
  <g id="axes_1">
   <g id="patch_2">
    <path d="M 41.903125 281.765464 
L 705.493125 281.765464 
L 705.493125 7.2 
L 41.903125 7.2 
z
" style="fill: #fafafa"/>
   </g>
   <g id="matplotlib.axis_1">
    <g id="xtick_1">
     <g id="line2d_1">
      <path d="M 72.066307 281.765464 
L 72.066307 7.2 
" clip-path="url(#p068624137b)" style="fill: none; stroke: #b0b0b0; stroke-opacity: 0.3; stroke-width: 0.8; stroke-linecap: square"/>
     </g>
     <g id="line2d_2">
      <defs>
       <path id="m662c7ae263" d="M 0 0 
L 0 3.5 
" style="stroke: #000000; stroke-width: 0.8"/>
      </defs>
      <g>
       <use xlink:href="#m662c7ae263" x="72.066307" y="281.765464" style="stroke: #000000; stroke-width: 0.8"/>
      </g>
     </g>
     <g id="text_1">
      <!-- 总资产 -->
      <g transform="translate(45.415232 310.658485) rotate(-30) scale(0.1 -0.1)">
       <defs>
        <path id="STHeiti-603b" d="M 3411 3968 
Q 3885 4666 4102 5254 
Q 4454 5037 4794 4973 
Q 4877 4960 4877 4928 
Q 4877 4896 4806 4858 
Q 4595 4749 4451 4601 
Q 4307 4454 3962 3968 
Q 4838 3974 5120 4000 
Q 5088 3514 5088 3142 
Q 5088 2771 5120 2029 
Q 4960 2042 3155 2042 
Q 1350 2042 1210 2029 
Q 1242 2374 1242 3020 
Q 1242 3667 1210 4000 
Q 1734 3962 3411 3968 
z
M 1760 3584 
L 1760 2451 
L 4570 2451 
L 4570 3584 
L 1760 3584 
z
M 2701 4422 
L 2234 4038 
Q 1978 4397 1498 4838 
L 1882 5146 
Q 2355 4698 2701 4422 
z
M 3994 954 
L 3469 659 
Q 3264 1178 2925 1626 
L 3443 1850 
Q 3718 1363 3994 954 
z
M 6176 467 
L 5594 115 
Q 5357 640 4794 1325 
L 5286 1581 
Q 5664 1146 6176 467 
z
M 5056 435 
Q 4922 64 4832 -93 
Q 4742 -250 4620 -317 
Q 4499 -384 4176 -416 
Q 3853 -448 3152 -448 
Q 2451 -448 2198 -345 
Q 1946 -243 1946 160 
L 1946 845 
Q 1946 1274 1888 1517 
Q 2170 1459 2406 1459 
L 2554 1466 
Q 2624 1466 2624 1437 
Q 2624 1408 2550 1347 
Q 2477 1286 2477 1165 
L 2477 358 
Q 2477 179 2614 115 
Q 2752 51 3107 51 
Q 3462 51 3811 80 
Q 4160 109 4243 147 
Q 4326 186 4380 326 
Q 4435 467 4499 819 
Q 4762 493 5056 435 
z
M 1427 1389 
Q 1261 672 1101 -205 
L 448 -134 
Q 806 621 858 1434 
L 1427 1389 
z
" transform="scale(0.015625)"/>
        <path id="STHeiti-8d44" d="M 3123 4141 
Q 2893 3846 2611 3571 
Q 2426 3757 2138 3814 
Q 2931 4486 3181 5254 
Q 3482 5114 3725 5094 
Q 3834 5082 3834 5043 
Q 3834 5005 3718 4918 
Q 3603 4832 3424 4570 
L 4685 4570 
Q 5299 4570 5901 4621 
L 5549 3629 
L 4966 3706 
L 5165 4141 
L 4154 4141 
Q 4378 3539 4835 3225 
Q 5293 2912 6080 2848 
Q 5850 2592 5747 2278 
Q 4371 2643 3987 3667 
Q 3578 2739 2534 2381 
Q 2381 2566 2163 2682 
Q 3443 3174 3725 4141 
L 3123 4141 
z
M 2010 4326 
L 1645 3840 
Q 1222 4192 698 4442 
L 1011 4858 
Q 1587 4595 2010 4326 
z
M 2163 3155 
Q 1261 2611 710 2266 
Q 576 2560 397 2803 
Q 1293 3123 2029 3629 
Q 2067 3360 2163 3155 
z
M 5120 544 
L 4570 544 
L 4570 1914 
L 1946 1914 
L 1946 506 
L 1395 506 
Q 1427 768 1427 1088 
L 1427 1818 
Q 1427 2278 1395 2381 
Q 1542 2349 3190 2349 
Q 4838 2349 5120 2381 
Q 5094 2266 5094 1818 
L 5094 1126 
Q 5094 826 5120 544 
z
M 2899 1683 
Q 3219 1600 3417 1590 
Q 3616 1581 3616 1558 
Q 3616 1536 3571 1498 
Q 3450 1402 3354 1069 
Q 3130 250 2557 -124 
Q 1984 -499 1037 -634 
Q 928 -384 691 -198 
Q 1376 -141 1917 64 
Q 2458 269 2656 630 
Q 2854 992 2899 1683 
z
M 5645 -128 
L 5286 -614 
Q 4384 -51 3392 352 
L 3661 755 
Q 4800 282 5645 -128 
z
" transform="scale(0.015625)"/>
        <path id="STHeiti-4ea7" d="M 3200 4416 
Q 3078 4813 2931 5094 
L 3622 5210 
Q 3718 4864 3814 4416 
Q 5120 4422 5869 4480 
L 5869 3930 
Q 4998 3994 3302 3994 
Q 1606 3994 730 3930 
L 730 4480 
Q 1587 4416 3200 4416 
z
M 3923 2714 
Q 4397 3629 4416 3904 
Q 4525 3834 4736 3731 
Q 4947 3629 5027 3603 
Q 5107 3578 5107 3539 
Q 5107 3501 5020 3475 
Q 4934 3450 4828 3312 
Q 4723 3174 4435 2714 
Q 5875 2714 6029 2752 
L 6029 2253 
Q 5562 2298 4429 2298 
L 1702 2298 
Q 1722 1229 1523 630 
Q 1325 32 749 -672 
Q 576 -397 288 -218 
Q 768 147 969 656 
Q 1171 1165 1171 1971 
Q 1171 2323 1133 2752 
Q 1331 2714 3923 2714 
z
M 2925 3014 
L 2330 2842 
Q 2208 3283 2016 3597 
L 2579 3789 
Q 2803 3373 2925 3014 
z
" transform="scale(0.015625)"/>
       </defs>
       <use xlink:href="#STHeiti-603b"/>
       <use xlink:href="#STHeiti-8d44" transform="translate(99.999985 0)"/>
       <use xlink:href="#STHeiti-4ea7" transform="translate(199.999969 0)"/>
      </g>
     </g>
    </g>
    <g id="xtick_2">
     <g id="line2d_3">
      <path d="M 172.610246 281.765464 
L 172.610246 7.2 
" clip-path="url(#p068624137b)" style="fill: none; stroke: #b0b0b0; stroke-opacity: 0.3; stroke-width: 0.8; stroke-linecap: square"/>
     </g>
     <g id="line2d_4">
      <g>
       <use xlink:href="#m662c7ae263" x="172.610246" y="281.765464" style="stroke: #000000; stroke-width: 0.8"/>
      </g>
     </g>
     <g id="text_2">
      <!-- 资产负债率 -->
      <g transform="translate(128.638664 320.701786) rotate(-30) scale(0.1 -0.1)">
       <defs>
        <path id="STHeiti-8d1f" d="M 2330 4218 
Q 1683 3616 1037 3142 
Q 864 3302 525 3462 
Q 1107 3725 1670 4240 
Q 2234 4755 2528 5293 
Q 2886 5146 3065 5104 
Q 3245 5062 3245 5033 
Q 3245 5005 3133 4963 
Q 3021 4922 2739 4634 
L 3968 4634 
Q 4538 4634 5120 4672 
L 4128 3366 
Q 4973 3366 5542 3386 
Q 5517 3232 5517 2707 
L 5517 1523 
Q 5517 1069 5555 819 
L 4954 819 
L 4954 2957 
L 1978 2957 
L 1978 736 
L 1389 736 
Q 1440 1037 1440 1440 
L 1440 2707 
Q 1440 3302 1434 3386 
Q 2138 3366 3494 3366 
L 4141 4218 
L 2330 4218 
z
M 3117 2618 
Q 3507 2534 3789 2534 
Q 3866 2534 3866 2483 
Q 3866 2458 3827 2445 
Q 3667 2400 3654 2240 
Q 3610 1549 3440 1027 
Q 3270 506 2563 48 
Q 1856 -410 998 -595 
Q 902 -294 467 58 
Q 582 51 704 51 
Q 1216 51 1705 217 
Q 2195 384 2534 678 
Q 2874 973 2982 1357 
Q 3091 1741 3117 2618 
z
M 6112 -38 
L 5683 -595 
Q 4902 -6 3494 608 
L 3821 1005 
Q 4749 627 6112 -38 
z
" transform="scale(0.015625)"/>
        <path id="STHeiti-503a" d="M 3706 4230 
Q 2899 4224 2138 4147 
L 2138 4685 
Q 2694 4627 3706 4621 
Q 3706 5011 3654 5210 
Q 3930 5171 4237 5171 
Q 4320 5171 4320 5142 
Q 4320 5114 4272 5078 
Q 4224 5043 4201 4976 
Q 4179 4909 4179 4845 
L 4179 4621 
Q 5146 4621 5811 4685 
L 5811 4166 
Q 5242 4224 4179 4230 
L 4179 3795 
Q 4973 3795 5536 3859 
L 5536 3334 
Q 5056 3392 4179 3398 
L 4179 2989 
Q 5434 3002 6003 3053 
L 6003 2534 
Q 5344 2598 3929 2598 
Q 2515 2598 1850 2534 
L 1850 3053 
Q 2426 3002 3706 2989 
L 3706 3398 
Q 2854 3392 2381 3315 
L 2381 3859 
Q 2861 3802 3706 3795 
L 3706 4230 
z
M 998 2701 
Q 845 2406 570 2029 
Q 442 2266 230 2477 
Q 717 3046 960 3740 
Q 1203 4435 1344 5075 
Q 1600 4960 1894 4896 
Q 2003 4877 2003 4835 
Q 2003 4794 1939 4739 
Q 1875 4685 1830 4605 
Q 1786 4525 1491 3814 
L 1491 -595 
L 928 -595 
Q 998 102 998 781 
L 998 2701 
z
M 5530 659 
L 4986 659 
L 4986 1798 
L 2867 1798 
L 2867 563 
L 2330 563 
Q 2368 845 2368 1197 
L 2368 1690 
Q 2368 2067 2330 2285 
Q 2733 2227 3936 2227 
Q 5139 2227 5523 2278 
Q 5485 1939 5485 1632 
L 5485 1293 
Q 5485 986 5530 659 
z
M 3738 1466 
Q 3859 1434 4003 1411 
Q 4147 1389 4218 1395 
L 4326 1395 
Q 4378 1395 4378 1369 
Q 4378 1344 4314 1274 
Q 4186 1133 4147 941 
Q 4000 250 3533 -92 
Q 3066 -435 2221 -602 
Q 2112 -326 1843 -96 
Q 2490 -102 3075 189 
Q 3661 480 3738 1466 
z
M 5978 -128 
L 5658 -634 
Q 4992 -141 4301 122 
L 4595 525 
Q 5235 237 5978 -128 
z
" transform="scale(0.015625)"/>
        <path id="STHeiti-7387" d="M 3066 4621 
Q 2970 4934 2867 5152 
L 3526 5254 
Q 3546 4902 3616 4621 
Q 5018 4627 5837 4685 
L 5837 4115 
Q 4941 4179 3277 4179 
Q 1613 4179 678 4115 
L 678 4685 
Q 1568 4621 3066 4621 
z
M 3046 2790 
L 2662 2739 
Q 2195 2675 2106 2637 
Q 2106 2854 2010 3059 
Q 2336 3155 2842 4128 
Q 3110 3955 3251 3913 
Q 3392 3872 3392 3846 
Q 3392 3821 3251 3769 
Q 3110 3718 2944 3497 
Q 2778 3277 2573 3085 
L 3373 3142 
Q 3686 3501 3859 3770 
Q 4077 3546 4307 3443 
Q 4397 3405 4397 3360 
Q 4397 3315 4307 3308 
Q 4218 3302 3965 3126 
Q 3712 2950 3411 2636 
Q 3110 2323 2624 1952 
L 3808 2035 
Q 3661 2278 3552 2413 
L 3942 2656 
Q 4211 2176 4595 1600 
L 4141 1389 
Q 4109 1466 4000 1683 
L 3456 1651 
L 3456 1018 
Q 5126 1018 5990 1075 
L 5990 518 
Q 5126 576 3456 576 
Q 3469 -160 3520 -691 
L 2886 -691 
Q 2944 -70 2944 576 
Q 1325 563 506 518 
L 506 1075 
Q 1331 1030 2950 1018 
L 2950 1613 
Q 2419 1574 2093 1491 
Q 2048 1786 1933 1965 
Q 2157 1965 2377 2147 
Q 2598 2330 3046 2790 
z
M 5248 3898 
Q 5453 3629 5709 3475 
Q 5760 3443 5760 3414 
Q 5760 3386 5677 3386 
Q 5594 3386 5389 3296 
Q 5184 3206 4755 2803 
Q 4595 3002 4384 3117 
Q 4934 3482 5248 3898 
z
M 1958 3238 
L 1587 2848 
Q 1261 3219 877 3507 
L 1222 3859 
Q 1517 3558 1958 3238 
z
M 5811 1933 
L 5414 1485 
Q 5030 1920 4461 2291 
L 4826 2675 
Q 5242 2317 5811 1933 
z
M 2003 2170 
Q 1824 2099 1024 1350 
Q 890 1645 704 1888 
Q 1018 2003 1357 2272 
Q 1696 2541 1798 2662 
Q 1830 2413 2003 2170 
z
" transform="scale(0.015625)"/>
       </defs>
       <use xlink:href="#STHeiti-8d44"/>
       <use xlink:href="#STHeiti-4ea7" transform="translate(99.999985 0)"/>
       <use xlink:href="#STHeiti-8d1f" transform="translate(199.999969 0)"/>
       <use xlink:href="#STHeiti-503a" transform="translate(299.999954 0)"/>
       <use xlink:href="#STHeiti-7387" transform="translate(399.999939 0)"/>
      </g>
     </g>
    </g>
    <g id="xtick_3">
     <g id="line2d_5">
      <path d="M 273.154186 281.765464 
L 273.154186 7.2 
" clip-path="url(#p068624137b)" style="fill: none; stroke: #b0b0b0; stroke-opacity: 0.3; stroke-width: 0.8; stroke-linecap: square"/>
     </g>
     <g id="line2d_6">
      <g>
       <use xlink:href="#m662c7ae263" x="273.154186" y="281.765464" style="stroke: #000000; stroke-width: 0.8"/>
      </g>
     </g>
     <g id="text_3">
      <!-- 流动比率 -->
      <g transform="translate(237.842857 315.658485) rotate(-30) scale(0.1 -0.1)">
       <defs>
        <path id="STHeiti-6d41" d="M 3667 4506 
Q 3603 4890 3450 5158 
L 4109 5261 
Q 4109 5107 4237 4506 
Q 5389 4506 5837 4557 
L 5837 4006 
Q 5402 4064 3856 4064 
Q 2310 4064 2010 4000 
L 2010 4563 
Q 2368 4518 3667 4506 
z
M 1862 4365 
L 1517 3878 
Q 1165 4250 627 4570 
L 973 5005 
Q 1427 4704 1862 4365 
z
M 5043 2790 
Q 3667 2650 3027 2557 
Q 2387 2464 2272 2374 
Q 2246 2733 2067 3002 
Q 2342 3046 2595 3283 
Q 2848 3520 3270 4026 
Q 3558 3846 3757 3763 
Q 3821 3738 3821 3712 
Q 3821 3686 3699 3654 
Q 3648 3642 2822 2944 
L 4698 3155 
Q 4493 3360 4282 3526 
L 4666 3808 
Q 5331 3206 5722 2842 
L 5318 2419 
Q 5203 2605 5043 2790 
z
M 1632 3091 
L 1363 2522 
Q 858 2893 282 3040 
L 550 3546 
Q 998 3334 1632 3091 
z
M 6144 416 
Q 6099 122 6035 -70 
Q 5971 -262 5827 -358 
Q 5683 -454 5305 -454 
Q 4928 -454 4797 -416 
Q 4666 -378 4627 -250 
Q 4589 -122 4589 211 
L 4589 1670 
Q 4589 2182 4538 2298 
Q 4781 2259 5088 2259 
Q 5133 2259 5133 2236 
Q 5133 2214 5107 2182 
Q 5056 2112 5056 1664 
L 5056 224 
Q 5056 128 5104 86 
Q 5152 45 5337 45 
Q 5523 45 5571 169 
Q 5619 294 5606 627 
Q 5830 435 6144 416 
z
M 3437 2266 
Q 3686 2227 3866 2227 
L 3987 2234 
Q 4038 2234 4038 2208 
Q 4038 2182 4013 2150 
Q 3962 2080 3962 1632 
L 3962 192 
Q 3962 -211 3994 -486 
L 3437 -486 
Q 3482 -173 3482 179 
L 3482 1638 
Q 3482 2125 3437 2266 
z
M 2400 2195 
Q 2630 2144 2957 2144 
Q 2995 2144 2995 2121 
Q 2995 2099 2969 2083 
Q 2944 2067 2944 1702 
L 2950 1306 
Q 2950 710 2681 259 
Q 2413 -192 1894 -576 
Q 1760 -339 1421 -186 
Q 1766 -51 2009 179 
Q 2253 410 2355 678 
Q 2458 947 2458 1491 
Q 2458 1805 2400 2195 
z
M 1658 1824 
Q 1478 1312 1292 576 
Q 1107 -160 1088 -422 
Q 762 -154 416 -6 
Q 634 294 832 886 
Q 1030 1478 1120 2080 
Q 1293 1926 1658 1824 
z
" transform="scale(0.015625)"/>
        <path id="STHeiti-52a8" d="M 3994 3917 
Q 4006 4192 4006 4569 
Q 4006 4947 3955 5222 
Q 4288 5133 4627 5133 
Q 4736 5133 4736 5101 
Q 4736 5069 4672 4998 
Q 4608 4928 4566 4707 
Q 4525 4486 4493 3923 
Q 5523 3955 5939 4026 
Q 5856 3706 5837 3245 
L 5728 806 
Q 5702 294 5616 51 
Q 5530 -192 5312 -304 
Q 5094 -416 4614 -493 
Q 4550 -109 4262 205 
Q 4486 186 4713 186 
Q 4941 186 5062 278 
Q 5184 371 5197 627 
L 5363 3501 
L 4467 3501 
Q 4378 1638 4058 896 
Q 3738 154 2784 -557 
Q 2586 -294 2163 -173 
Q 3187 346 3523 954 
Q 3859 1562 3968 3494 
Q 3392 3475 2874 3411 
L 2874 3962 
Q 3245 3917 3994 3917 
z
M 2803 3994 
Q 2426 4045 1712 4045 
Q 998 4045 698 3994 
L 698 4557 
Q 986 4499 1712 4499 
Q 2438 4499 2803 4550 
L 2803 3994 
z
M 1350 2682 
Q 614 2662 358 2630 
L 358 3155 
Q 749 3098 1593 3098 
Q 2438 3098 2957 3149 
L 2957 2630 
Q 2470 2675 1907 2682 
Q 1363 1242 1126 890 
L 2445 1197 
Q 2266 1632 2138 1830 
L 2592 2042 
Q 2758 1581 3194 723 
L 2682 480 
Q 2656 602 2579 826 
Q 1030 448 659 141 
Q 570 461 384 768 
Q 595 851 723 1049 
Q 851 1248 1059 1789 
Q 1267 2330 1350 2682 
z
" transform="scale(0.015625)"/>
        <path id="STHeiti-6bd4" d="M 4000 2291 
L 4000 467 
Q 4000 314 4041 253 
Q 4083 192 4217 173 
Q 4352 154 4681 154 
Q 5011 154 5142 205 
Q 5274 256 5354 438 
Q 5434 621 5555 1107 
Q 5773 826 6144 717 
Q 5971 198 5811 -22 
Q 5651 -243 5382 -316 
Q 5114 -390 4570 -390 
Q 4026 -390 3808 -329 
Q 3590 -269 3526 -99 
Q 3462 70 3462 461 
L 3462 4301 
Q 3462 4934 3424 5222 
Q 3712 5171 3869 5177 
Q 4026 5184 4096 5184 
Q 4166 5184 4166 5155 
Q 4166 5126 4105 5036 
Q 4045 4947 4022 4828 
Q 4000 4710 4000 4499 
L 4000 2842 
Q 4864 3386 5421 3936 
Q 5632 3610 5888 3443 
Q 5939 3411 5939 3379 
Q 5939 3347 5830 3318 
Q 5722 3290 5190 2998 
Q 4659 2707 4000 2291 
z
M 1485 2835 
L 1485 346 
L 2938 1286 
Q 2925 1203 2925 1114 
Q 2925 864 3034 691 
L 1715 -122 
Q 1344 -346 1139 -538 
Q 960 -192 749 -13 
Q 851 58 896 147 
Q 941 237 941 506 
L 941 3949 
Q 941 4768 915 5011 
Q 1126 4979 1286 4979 
L 1549 4979 
Q 1613 4979 1613 4950 
Q 1613 4922 1581 4870 
Q 1485 4730 1485 4224 
L 1485 3309 
Q 2368 3309 2970 3347 
L 2970 2790 
Q 2381 2829 1485 2835 
z
" transform="scale(0.015625)"/>
       </defs>
       <use xlink:href="#STHeiti-6d41"/>
       <use xlink:href="#STHeiti-52a8" transform="translate(99.999985 0)"/>
       <use xlink:href="#STHeiti-6bd4" transform="translate(199.999969 0)"/>
       <use xlink:href="#STHeiti-7387" transform="translate(299.999954 0)"/>
      </g>
     </g>
    </g>
    <g id="xtick_4">
     <g id="line2d_7">
      <path d="M 373.698125 281.765464 
L 373.698125 7.2 
" clip-path="url(#p068624137b)" style="fill: none; stroke: #b0b0b0; stroke-opacity: 0.3; stroke-width: 0.8; stroke-linecap: square"/>
     </g>
     <g id="line2d_8">
      <g>
       <use xlink:href="#m662c7ae263" x="373.698125" y="281.765464" style="stroke: #000000; stroke-width: 0.8"/>
      </g>
     </g>
     <g id="text_4">
      <!-- 速动比率 -->
      <g transform="translate(338.386796 315.701786) rotate(-30) scale(0.1 -0.1)">
       <defs>
        <path id="STHeiti-901f" d="M 3635 2086 
Q 3386 1606 3085 1270 
Q 2784 934 2240 518 
Q 2048 826 1722 947 
Q 2746 1338 3283 2189 
Q 2682 2189 2195 2157 
Q 2246 2528 2246 2995 
Q 2246 3462 2195 3795 
Q 2701 3744 3635 3744 
L 3635 4218 
Q 2688 4211 1946 4154 
L 1946 4710 
Q 2733 4653 3635 4646 
Q 3629 5043 3590 5293 
Q 3795 5242 4198 5242 
Q 4301 5242 4301 5210 
Q 4301 5178 4208 5085 
Q 4115 4992 4115 4838 
L 4115 4646 
Q 5152 4646 5837 4698 
L 5837 4154 
Q 5082 4211 4115 4218 
L 4115 3744 
Q 4960 3750 5613 3795 
Q 5568 3488 5568 2957 
Q 5568 2426 5613 2144 
Q 5082 2182 4115 2189 
L 4115 1645 
Q 4115 1030 4166 442 
L 3590 442 
Q 3635 941 3635 1645 
L 3635 2086 
z
M 4115 3322 
L 4115 2598 
L 5088 2598 
L 5088 3322 
L 4115 3322 
z
M 3635 2598 
L 3635 3322 
L 2720 3322 
L 2720 2598 
L 3635 2598 
z
M 1619 3814 
L 1024 3610 
Q 883 4224 589 4730 
L 1133 4928 
Q 1357 4442 1619 3814 
z
M 1485 531 
Q 1850 461 2349 230 
Q 2694 70 3555 70 
Q 4416 70 6029 314 
Q 5850 -45 5818 -390 
Q 4672 -429 3859 -429 
Q 3046 -429 2614 -342 
Q 2182 -256 1779 -32 
Q 1536 109 1389 109 
Q 1242 109 1101 -28 
Q 960 -166 762 -474 
Q 531 -218 256 -70 
Q 723 371 960 480 
L 960 2496 
Q 582 2496 358 2458 
L 358 3008 
Q 666 2963 973 2963 
Q 1280 2963 1555 3008 
Q 1485 2701 1485 2253 
L 1485 531 
z
M 5869 1171 
L 5485 698 
Q 5082 1203 4307 1619 
L 4666 1984 
Q 5402 1510 5869 1171 
z
" transform="scale(0.015625)"/>
       </defs>
       <use xlink:href="#STHeiti-901f"/>
       <use xlink:href="#STHeiti-52a8" transform="translate(99.999985 0)"/>
       <use xlink:href="#STHeiti-6bd4" transform="translate(199.999969 0)"/>
       <use xlink:href="#STHeiti-7387" transform="translate(299.999954 0)"/>
      </g>
     </g>
    </g>
    <g id="xtick_5">
     <g id="line2d_9">
      <path d="M 474.242064 281.765464 
L 474.242064 7.2 
" clip-path="url(#p068624137b)" style="fill: none; stroke: #b0b0b0; stroke-opacity: 0.3; stroke-width: 0.8; stroke-linecap: square"/>
     </g>
     <g id="line2d_10">
      <g>
       <use xlink:href="#m662c7ae263" x="474.242064" y="281.765464" style="stroke: #000000; stroke-width: 0.8"/>
      </g>
     </g>
     <g id="text_5">
      <!-- 产权比率 -->
      <g transform="translate(438.930736 315.658485) rotate(-30) scale(0.1 -0.1)">
       <defs>
        <path id="STHeiti-6743" d="M 1414 2406 
Q 1146 1491 589 762 
Q 454 1133 301 1331 
Q 634 1683 864 2156 
Q 1094 2630 1312 3398 
Q 730 3379 467 3347 
L 467 3891 
Q 851 3840 1414 3840 
Q 1414 4768 1338 5242 
Q 1542 5216 1715 5216 
L 1997 5229 
Q 2067 5229 2067 5197 
Q 2067 5165 1993 5097 
Q 1920 5030 1920 4896 
L 1920 3840 
Q 2330 3846 2662 3891 
L 2662 3347 
Q 2394 3386 1920 3392 
L 1920 614 
Q 1920 115 1984 -589 
L 1357 -589 
Q 1414 45 1414 614 
L 1414 2406 
z
M 3174 4109 
Q 3046 4102 2816 4083 
L 2816 4640 
Q 3392 4589 4339 4589 
Q 5286 4589 5709 4640 
Q 5517 3322 5248 2506 
Q 4979 1690 4570 1133 
Q 5114 557 6170 339 
Q 5926 58 5786 -365 
Q 4723 128 4211 704 
Q 3571 64 2630 -454 
Q 2515 -179 2240 19 
Q 3315 506 3910 1114 
Q 3514 1747 3366 2403 
Q 3219 3059 3174 4109 
z
M 3680 4128 
Q 3686 3194 3811 2643 
Q 3936 2093 4262 1549 
Q 4870 2502 5050 4128 
L 3680 4128 
z
M 2861 1760 
L 2368 1517 
Q 2221 2003 1965 2477 
L 2362 2669 
Q 2637 2234 2861 1760 
z
" transform="scale(0.015625)"/>
       </defs>
       <use xlink:href="#STHeiti-4ea7"/>
       <use xlink:href="#STHeiti-6743" transform="translate(99.999985 0)"/>
       <use xlink:href="#STHeiti-6bd4" transform="translate(199.999969 0)"/>
       <use xlink:href="#STHeiti-7387" transform="translate(299.999954 0)"/>
      </g>
     </g>
    </g>
    <g id="xtick_6">
     <g id="line2d_11">
      <path d="M 574.786004 281.765464 
L 574.786004 7.2 
" clip-path="url(#p068624137b)" style="fill: none; stroke: #b0b0b0; stroke-opacity: 0.3; stroke-width: 0.8; stroke-linecap: square"/>
     </g>
     <g id="line2d_12">
      <g>
       <use xlink:href="#m662c7ae263" x="574.786004" y="281.765464" style="stroke: #000000; stroke-width: 0.8"/>
      </g>
     </g>
     <g id="text_6">
      <!-- 货币资金（2025Q3） -->
      <g transform="translate(490.620017 344.004111) rotate(-30) scale(0.1 -0.1)">
       <defs>
        <path id="STHeiti-8d27" d="M 1485 3782 
Q 1133 3405 723 3040 
Q 531 3270 256 3366 
Q 1395 4102 1997 5216 
Q 2259 5030 2425 4966 
Q 2592 4902 2592 4838 
Q 2592 4774 2502 4749 
Q 2458 4736 2304 4611 
Q 2150 4486 1984 4320 
L 1984 2528 
L 1414 2528 
Q 1485 2944 1485 3354 
L 1485 3782 
z
M 3878 4070 
Q 4659 4358 5261 4858 
Q 5536 4595 5702 4486 
Q 5766 4442 5766 4419 
Q 5766 4397 5683 4384 
Q 5510 4358 5027 4131 
Q 4544 3904 3878 3654 
L 3878 3309 
Q 3878 3162 4016 3107 
Q 4154 3053 4573 3053 
Q 4992 3053 5155 3088 
Q 5318 3123 5392 3244 
Q 5466 3366 5523 3674 
Q 5773 3418 6106 3309 
Q 5939 2957 5820 2832 
Q 5702 2707 5459 2672 
Q 5216 2637 4624 2637 
Q 4032 2637 3779 2685 
Q 3526 2733 3452 2845 
Q 3379 2957 3379 3194 
L 3379 3469 
Q 2944 3322 2586 3187 
Q 2458 3469 2253 3642 
Q 2816 3731 3379 3904 
L 3379 4301 
Q 3379 4845 3328 5069 
Q 3514 5037 3987 5037 
Q 4096 5037 4096 4979 
Q 4096 4922 3987 4832 
Q 3878 4742 3878 4634 
L 3878 4070 
z
M 5229 595 
L 4653 595 
L 4653 1798 
L 1920 1798 
L 1920 640 
L 1338 640 
Q 1389 922 1389 1101 
L 1389 1894 
Q 1389 2048 1350 2272 
Q 2195 2234 3244 2234 
Q 4294 2234 5216 2272 
Q 5197 2163 5197 1894 
L 5197 1101 
Q 5197 870 5229 595 
z
M 2950 1485 
Q 3283 1370 3462 1350 
Q 3642 1331 3642 1312 
Q 3642 1293 3610 1277 
Q 3578 1261 3501 1110 
Q 3424 960 3373 806 
Q 3213 282 2627 -44 
Q 2042 -371 781 -576 
Q 730 -269 442 13 
Q 1075 6 1756 147 
Q 2438 288 2672 589 
Q 2906 890 2950 1485 
z
M 5946 -128 
L 5530 -621 
Q 4723 -102 3616 301 
L 3974 710 
L 5946 -128 
z
" transform="scale(0.015625)"/>
        <path id="STHeiti-5e01" d="M 2931 4205 
L 928 4045 
Q 864 4288 685 4557 
Q 851 4544 1120 4544 
Q 2278 4544 3475 4678 
Q 4672 4813 5312 5082 
Q 5478 4813 5722 4544 
Q 5773 4486 5773 4448 
Q 5773 4410 5693 4419 
Q 5613 4429 5549 4429 
Q 5306 4429 3450 4256 
L 3450 3155 
Q 5165 3155 5472 3226 
Q 5446 3027 5446 2355 
L 5446 749 
Q 5446 518 5363 390 
Q 5280 262 5056 185 
Q 4832 109 4378 58 
Q 4397 403 4230 634 
Q 4659 634 4793 691 
Q 4928 749 4928 896 
L 4928 2733 
L 3450 2733 
L 3450 435 
Q 3450 -70 3520 -646 
L 2861 -646 
Q 2931 -77 2931 435 
L 2931 2733 
L 1530 2733 
L 1530 205 
L 954 205 
Q 1005 550 1005 915 
L 1005 2355 
Q 1005 3027 979 3226 
Q 1229 3162 2931 3155 
L 2931 4205 
z
" transform="scale(0.015625)"/>
        <path id="STHeiti-91d1" d="M 3386 4947 
Q 4038 4243 4636 3878 
Q 5235 3514 6138 3302 
Q 6042 3213 5958 3024 
Q 5875 2835 5869 2688 
Q 4192 3251 3123 4698 
Q 2586 3968 1632 3187 
Q 2182 3142 3200 3142 
Q 4218 3142 4736 3194 
L 4736 2662 
Q 4314 2694 3405 2707 
L 3405 1920 
Q 4768 1920 5261 1958 
L 5261 1440 
Q 4768 1478 3405 1478 
L 3405 154 
L 4006 147 
Q 4288 787 4371 1299 
Q 4736 1146 4922 1094 
Q 4979 1075 4979 1024 
Q 4979 973 4934 954 
Q 4826 902 4390 147 
Q 5094 154 5632 211 
L 5632 -390 
Q 4525 -320 3024 -320 
Q 1523 -320 646 -384 
L 646 218 
Q 1472 154 2886 154 
L 2886 1478 
Q 1638 1478 1005 1434 
L 1005 1965 
Q 1664 1920 2886 1920 
L 2886 2707 
Q 1990 2707 1574 2662 
L 1574 3142 
Q 1037 2720 678 2528 
Q 570 2797 275 2925 
Q 742 3130 1184 3469 
Q 1626 3808 1984 4173 
Q 2342 4538 2505 4787 
Q 2669 5037 2778 5306 
Q 3219 5126 3360 5107 
Q 3501 5088 3501 5040 
Q 3501 4992 3386 4947 
z
M 2234 525 
L 1709 275 
Q 1491 774 1286 1037 
L 1805 1261 
Q 2080 832 2234 525 
z
" transform="scale(0.015625)"/>
        <path id="STHeiti-ff08" d="M 5651 -749 
L 5274 -749 
Q 4646 173 4409 835 
Q 4173 1498 4173 2266 
Q 4173 3034 4432 3750 
Q 4691 4467 5254 5267 
L 5645 5267 
Q 5082 4237 4928 3606 
Q 4774 2976 4774 2093 
Q 4774 1472 4953 861 
Q 5133 250 5651 -749 
z
" transform="scale(0.015625)"/>
        <path id="STHeiti-32" d="M 742 3539 
L 301 3539 
Q 333 4243 768 4668 
Q 1203 5094 1820 5094 
Q 2438 5094 2844 4694 
Q 3251 4294 3251 3718 
Q 3251 3290 3024 2925 
Q 2797 2560 2336 2061 
L 1190 826 
L 3315 826 
L 3315 384 
L 192 384 
L 1946 2278 
Q 2406 2778 2604 3066 
Q 2803 3354 2803 3725 
Q 2803 4096 2512 4377 
Q 2221 4659 1789 4659 
Q 1357 4659 1072 4368 
Q 787 4077 742 3539 
z
" transform="scale(0.015625)"/>
        <path id="STHeiti-30" d="M 1747 269 
Q 1005 269 605 880 
Q 205 1491 205 2681 
Q 205 3872 605 4483 
Q 1005 5094 1741 5094 
Q 2477 5094 2909 4470 
Q 3341 3846 3341 2681 
Q 3341 1517 2905 893 
Q 2470 269 1747 269 
z
M 1760 4659 
Q 1229 4659 934 4147 
Q 640 3635 640 2669 
Q 640 685 1760 685 
Q 2304 685 2608 1206 
Q 2912 1728 2912 2681 
Q 2912 3635 2598 4147 
Q 2285 4659 1760 4659 
z
" transform="scale(0.015625)"/>
        <path id="STHeiti-35" d="M 3149 4979 
L 3149 4544 
L 1510 4544 
L 1280 3290 
Q 1587 3379 1856 3379 
Q 2458 3379 2861 2953 
Q 3264 2528 3264 1862 
Q 3264 1197 2825 733 
Q 2387 269 1664 269 
Q 1114 269 726 598 
Q 339 928 262 1498 
L 730 1498 
Q 813 1114 1075 909 
Q 1338 704 1683 704 
Q 2138 704 2467 1043 
Q 2797 1382 2797 1888 
Q 2797 2349 2509 2646 
Q 2221 2944 1757 2944 
Q 1293 2944 730 2701 
L 1158 4979 
L 3149 4979 
z
" transform="scale(0.015625)"/>
        <path id="STHeiti-51" d="M 4416 883 
L 5094 19 
L 4531 19 
L 4064 614 
Q 3494 269 2822 269 
Q 1779 269 1072 963 
Q 365 1658 365 2662 
Q 365 3693 1049 4393 
Q 1734 5094 2784 5094 
Q 3443 5094 4003 4774 
Q 4563 4454 4883 3897 
Q 5203 3341 5203 2682 
Q 5203 1626 4416 883 
z
M 4134 1242 
Q 4730 1830 4730 2668 
Q 4730 3507 4154 4076 
Q 3578 4646 2778 4646 
Q 1978 4646 1411 4070 
Q 845 3494 845 2659 
Q 845 1824 1421 1270 
Q 1997 717 2790 717 
Q 3322 717 3776 979 
L 2752 2278 
L 3309 2278 
L 4134 1242 
z
" transform="scale(0.015625)"/>
        <path id="STHeiti-33" d="M 845 3917 
L 378 3917 
Q 506 4486 867 4790 
Q 1229 5094 1750 5094 
Q 2272 5094 2659 4748 
Q 3046 4403 3046 3910 
Q 3046 3315 2458 2970 
Q 2861 2803 3081 2473 
Q 3302 2144 3302 1754 
Q 3302 1146 2857 707 
Q 2413 269 1734 269 
Q 1133 269 742 611 
Q 352 954 224 1613 
L 672 1613 
Q 794 1158 1046 937 
Q 1299 717 1760 717 
Q 2221 717 2534 1011 
Q 2848 1306 2848 1741 
Q 2848 2176 2502 2441 
Q 2157 2707 1498 2720 
L 1498 3142 
Q 1971 3142 2268 3360 
Q 2566 3578 2566 3901 
Q 2566 4224 2326 4438 
Q 2086 4653 1747 4653 
Q 1408 4653 1200 4470 
Q 992 4288 845 3917 
z
" transform="scale(0.015625)"/>
        <path id="STHeiti-ff09" d="M 1120 5267 
Q 1747 4346 1984 3683 
Q 2221 3021 2221 2253 
Q 2221 1485 1961 768 
Q 1702 51 1139 -749 
L 749 -749 
Q 1312 282 1465 912 
Q 1619 1542 1619 2426 
Q 1619 3046 1440 3657 
Q 1261 4269 742 5267 
L 1120 5267 
z
" transform="scale(0.015625)"/>
       </defs>
       <use xlink:href="#STHeiti-8d27"/>
       <use xlink:href="#STHeiti-5e01" transform="translate(99.999985 0)"/>
       <use xlink:href="#STHeiti-8d44" transform="translate(199.999969 0)"/>
       <use xlink:href="#STHeiti-91d1" transform="translate(299.999954 0)"/>
       <use xlink:href="#STHeiti-ff08" transform="translate(399.999939 0)"/>
       <use xlink:href="#STHeiti-32" transform="translate(499.999924 0)"/>
       <use xlink:href="#STHeiti-30" transform="translate(555.399918 0)"/>
       <use xlink:href="#STHeiti-32" transform="translate(610.799911 0)"/>
       <use xlink:href="#STHeiti-35" transform="translate(666.199905 0)"/>
       <use xlink:href="#STHeiti-51" transform="translate(721.599899 0)"/>
       <use xlink:href="#STHeiti-33" transform="translate(808.69989 0)"/>
       <use xlink:href="#STHeiti-ff09" transform="translate(864.099884 0)"/>
      </g>
     </g>
    </g>
    <g id="xtick_7">
     <g id="line2d_13">
      <path d="M 675.329943 281.765464 
L 675.329943 7.2 
" clip-path="url(#p068624137b)" style="fill: none; stroke: #b0b0b0; stroke-opacity: 0.3; stroke-width: 0.8; stroke-linecap: square"/>
     </g>
     <g id="line2d_14">
      <g>
       <use xlink:href="#m662c7ae263" x="675.329943" y="281.765464" style="stroke: #000000; stroke-width: 0.8"/>
      </g>
     </g>
     <g id="text_7">
      <!-- 短期借款（2025Q3） -->
      <g transform="translate(591.163956 343.951337) rotate(-30) scale(0.1 -0.1)">
       <defs>
        <path id="STHeiti-77ed" d="M 2003 2534 
Q 2438 2541 2778 2586 
L 2778 2022 
Q 2509 2067 1965 2074 
Q 1946 1875 1875 1587 
Q 2381 1254 2925 794 
L 2573 384 
Q 2163 838 1754 1178 
Q 1376 134 826 -461 
Q 659 -256 339 -96 
Q 1363 858 1485 2080 
Q 813 2080 422 2022 
L 422 2573 
Q 794 2528 1517 2528 
Q 1562 3078 1555 3731 
L 1075 3731 
Q 947 3334 832 3085 
Q 614 3194 371 3200 
Q 941 4442 909 5216 
Q 1261 5075 1530 5043 
Q 1606 5030 1606 5001 
Q 1606 4973 1536 4934 
Q 1434 4864 1210 4160 
Q 2560 4160 2726 4198 
L 2726 3693 
Q 2490 3718 2054 3731 
Q 2022 2803 2003 2534 
z
M 5952 4243 
Q 5408 4301 4416 4301 
Q 3424 4301 2880 4243 
L 2880 4813 
Q 3437 4755 4422 4755 
Q 5408 4755 5952 4813 
L 5952 4243 
z
M 5638 1856 
Q 5171 1914 4332 1914 
Q 3494 1914 3040 1850 
Q 3104 2304 3104 2857 
Q 3104 3411 3040 3827 
Q 3456 3763 4326 3763 
Q 5197 3763 5638 3827 
Q 5594 3494 5594 2902 
Q 5594 2310 5638 1856 
z
M 5082 2355 
L 5082 3315 
L 3597 3315 
L 3597 2355 
L 5082 2355 
z
M 4454 166 
Q 4819 934 5062 1760 
Q 5171 1664 5356 1587 
Q 5542 1510 5606 1510 
Q 5670 1510 5670 1488 
Q 5670 1466 5606 1427 
Q 5498 1350 4915 166 
Q 5677 166 6138 224 
L 6138 -314 
Q 5478 -262 4371 -262 
Q 3264 -262 2605 -314 
L 2605 224 
Q 3187 166 3859 166 
L 4454 166 
z
M 4128 595 
L 3616 410 
Q 3526 954 3258 1434 
L 3725 1606 
Q 3955 1133 4128 595 
z
" transform="scale(0.015625)"/>
        <path id="STHeiti-671f" d="M 1082 4320 
Q 1082 4870 1018 5107 
Q 1216 5062 1555 5062 
Q 1613 5062 1613 5036 
Q 1613 5011 1561 4963 
Q 1510 4915 1510 4774 
L 1510 4320 
L 2554 4320 
Q 2554 4966 2502 5126 
Q 2784 5069 3034 5056 
Q 3130 5050 3130 5005 
Q 3130 4979 3056 4928 
Q 2982 4877 2982 4749 
L 2982 4326 
Q 3238 4339 3437 4371 
L 3437 3827 
Q 3290 3853 2982 3878 
L 2982 1395 
Q 3264 1421 3418 1446 
L 3418 960 
Q 3136 1018 1971 1018 
Q 806 1018 512 960 
L 512 1446 
Q 781 1402 1082 1389 
L 1082 3878 
Q 838 3872 538 3827 
L 538 4371 
Q 838 4326 1082 4320 
z
M 1510 3322 
L 2554 3322 
L 2554 3885 
L 1510 3885 
L 1510 3322 
z
M 2554 2957 
L 1510 2957 
L 1510 2349 
L 2554 2349 
L 2554 2957 
z
M 1510 1997 
L 1510 1389 
L 2554 1389 
L 2554 1997 
L 1510 1997 
z
M 4160 1427 
Q 4000 160 3347 -614 
Q 3200 -461 2880 -352 
Q 3264 51 3494 630 
Q 3725 1210 3725 2611 
L 3725 4051 
Q 3725 4486 3674 4883 
Q 4058 4832 4710 4832 
Q 5363 4832 5754 4883 
Q 5702 4550 5702 4051 
L 5702 32 
Q 5702 -218 5654 -326 
Q 5606 -435 5424 -486 
Q 5242 -538 4794 -576 
Q 4806 -301 4614 13 
Q 4832 -6 4963 -6 
Q 5094 -6 5161 35 
Q 5229 77 5229 269 
L 5229 1427 
L 4160 1427 
z
M 5229 3360 
L 5229 4403 
L 4186 4403 
L 4186 3360 
L 5229 3360 
z
M 4186 2957 
L 4186 1824 
L 5229 1824 
L 5229 2957 
L 4186 2957 
z
M 3149 339 
L 2746 19 
Q 2534 416 2182 659 
L 2554 934 
Q 2893 659 3149 339 
z
M 1286 883 
Q 1510 723 1805 640 
Q 1862 627 1862 601 
Q 1862 576 1818 563 
Q 1683 518 1475 281 
Q 1267 45 864 -448 
Q 678 -282 384 -205 
Q 954 160 1286 883 
z
" transform="scale(0.015625)"/>
        <path id="STHeiti-501f" d="M 4870 4256 
Q 5536 4269 5824 4314 
L 5824 3795 
Q 5510 3840 4870 3853 
L 4870 3078 
Q 5779 3078 6099 3136 
L 6099 2592 
Q 5741 2650 4032 2650 
Q 2323 2650 1914 2592 
L 1914 3136 
Q 2310 3085 2957 3078 
L 2957 3846 
Q 2573 3840 2202 3795 
L 2202 4314 
Q 2554 4269 2957 4262 
Q 2957 4851 2893 5146 
Q 3098 5114 3302 5114 
L 3514 5120 
Q 3571 5120 3571 5094 
Q 3571 5069 3526 5030 
Q 3437 4960 3437 4768 
L 3437 4256 
L 4410 4256 
Q 4410 4864 4346 5165 
Q 4627 5120 4922 5120 
Q 4998 5120 4998 5097 
Q 4998 5075 4954 5037 
Q 4870 4973 4870 4762 
L 4870 4256 
z
M 4410 3853 
L 3437 3853 
L 3437 3078 
L 4410 3078 
L 4410 3853 
z
M 1082 2893 
Q 883 2515 608 2061 
Q 448 2298 224 2477 
Q 1165 3725 1498 5133 
Q 1792 5018 2022 4947 
Q 2131 4915 2131 4867 
Q 2131 4819 2042 4749 
Q 2003 4717 1587 3878 
L 1587 -634 
L 1011 -634 
Q 1082 64 1082 742 
L 1082 2893 
z
M 2976 -166 
L 2976 -550 
L 2445 -550 
Q 2496 -115 2496 307 
L 2496 1453 
Q 2496 1888 2451 2157 
Q 2682 2118 3981 2118 
Q 5280 2118 5485 2157 
Q 5446 1971 5446 1453 
L 5446 390 
Q 5446 32 5491 -467 
L 4954 -467 
L 4954 -166 
L 2976 -166 
z
M 4954 1171 
L 4954 1715 
L 2976 1715 
L 2976 1171 
L 4954 1171 
z
M 2976 768 
L 2976 230 
L 4954 230 
L 4954 768 
L 2976 768 
z
" transform="scale(0.015625)"/>
        <path id="STHeiti-6b3e" d="M 1824 4147 
Q 1037 4147 550 4102 
L 550 4589 
Q 1050 4544 1824 4544 
Q 1824 5005 1798 5248 
Q 2074 5210 2387 5210 
Q 2470 5210 2470 5181 
Q 2470 5152 2413 5107 
Q 2317 5037 2317 4819 
L 2317 4544 
Q 3002 4550 3546 4589 
L 3546 4102 
Q 3002 4141 2317 4147 
L 2317 3590 
Q 2893 3597 3309 3635 
L 3309 3155 
Q 2861 3200 1971 3200 
Q 1082 3200 736 3155 
L 736 3635 
Q 1248 3590 1824 3590 
L 1824 4147 
z
M 4365 4141 
L 5357 4141 
Q 5786 4141 6080 4192 
L 5766 2899 
L 5235 2957 
L 5421 3674 
L 4224 3674 
Q 4077 3232 3885 2739 
Q 3661 2848 3354 2925 
Q 3936 3942 4000 5178 
Q 4435 5082 4698 5082 
Q 4781 5082 4781 5030 
Q 4781 4979 4707 4928 
Q 4634 4877 4566 4729 
Q 4499 4582 4365 4141 
z
M 4339 3168 
Q 4627 3123 4832 3123 
L 4992 3136 
Q 5043 3136 5043 3097 
Q 5043 3059 5004 3020 
Q 4966 2982 4940 2921 
Q 4915 2861 4873 2675 
Q 4832 2490 4832 2426 
Q 4832 1440 5165 880 
Q 5498 320 6170 0 
Q 5875 -339 5741 -595 
Q 5261 -237 5005 220 
Q 4749 678 4653 1350 
Q 4512 710 4221 272 
Q 3930 -166 3328 -640 
Q 3142 -448 2848 -301 
Q 3456 83 3763 470 
Q 4070 858 4208 1533 
Q 4346 2208 4346 2925 
Q 4346 3059 4339 3168 
z
M 3270 2291 
Q 2816 2336 1965 2336 
Q 1114 2336 762 2291 
L 762 2803 
Q 1210 2758 2013 2758 
Q 2816 2758 3270 2803 
L 3270 2291 
z
M 2362 1427 
L 2362 -38 
Q 2362 -262 2294 -380 
Q 2227 -499 2038 -560 
Q 1850 -621 1466 -646 
Q 1440 -384 1235 -70 
Q 1446 -102 1584 -102 
Q 1722 -102 1792 -51 
Q 1862 0 1862 134 
L 1862 1427 
Q 915 1427 525 1382 
L 525 1888 
Q 1062 1843 2003 1843 
Q 2944 1843 3475 1888 
L 3475 1382 
Q 2950 1421 2362 1427 
z
M 3494 506 
L 3021 205 
Q 2874 621 2624 966 
L 3072 1190 
Q 3302 736 3494 506 
z
M 992 1146 
Q 1280 1024 1414 989 
Q 1549 954 1549 915 
Q 1549 877 1469 822 
Q 1389 768 1328 678 
Q 1267 589 870 -115 
Q 659 6 403 51 
Q 915 730 992 1146 
z
" transform="scale(0.015625)"/>
       </defs>
       <use xlink:href="#STHeiti-77ed"/>
       <use xlink:href="#STHeiti-671f" transform="translate(99.999985 0)"/>
       <use xlink:href="#STHeiti-501f" transform="translate(199.999969 0)"/>
       <use xlink:href="#STHeiti-6b3e" transform="translate(299.999954 0)"/>
       <use xlink:href="#STHeiti-ff08" transform="translate(399.999939 0)"/>
       <use xlink:href="#STHeiti-32" transform="translate(499.999924 0)"/>
       <use xlink:href="#STHeiti-30" transform="translate(555.399918 0)"/>
       <use xlink:href="#STHeiti-32" transform="translate(610.799911 0)"/>
       <use xlink:href="#STHeiti-35" transform="translate(666.199905 0)"/>
       <use xlink:href="#STHeiti-51" transform="translate(721.599899 0)"/>
       <use xlink:href="#STHeiti-33" transform="translate(808.69989 0)"/>
       <use xlink:href="#STHeiti-ff09" transform="translate(864.099884 0)"/>
      </g>
     </g>
    </g>
   </g>
   <g id="matplotlib.axis_2">
    <g id="ytick_1">
     <g id="line2d_15">
      <path d="M 41.903125 269.241447 
L 705.493125 269.241447 
" clip-path="url(#p068624137b)" style="fill: none; stroke: #b0b0b0; stroke-opacity: 0.3; stroke-width: 0.8; stroke-linecap: square"/>
     </g>
     <g id="line2d_16">
      <defs>
       <path id="mec56f272de" d="M 0 0 
L -3.5 0 
" style="stroke: #000000; stroke-width: 0.8"/>
      </defs>
      <g>
       <use xlink:href="#mec56f272de" x="41.903125" y="269.241447" style="stroke: #000000; stroke-width: 0.8"/>
      </g>
     </g>
     <g id="text_8">
      <!-- 0 -->
      <g transform="translate(29.3625 273.221134) scale(0.1 -0.1)">
       <use xlink:href="#STHeiti-30"/>
      </g>
     </g>
    </g>
    <g id="ytick_2">
     <g id="line2d_17">
      <path d="M 41.903125 238.418484 
L 705.493125 238.418484 
" clip-path="url(#p068624137b)" style="fill: none; stroke: #b0b0b0; stroke-opacity: 0.3; stroke-width: 0.8; stroke-linecap: square"/>
     </g>
     <g id="line2d_18">
      <g>
       <use xlink:href="#mec56f272de" x="41.903125" y="238.418484" style="stroke: #000000; stroke-width: 0.8"/>
      </g>
     </g>
     <g id="text_9">
      <!-- 2500 -->
      <g transform="translate(12.740625 242.398172) scale(0.1 -0.1)">
       <use xlink:href="#STHeiti-32"/>
       <use xlink:href="#STHeiti-35" transform="translate(55.399994 0)"/>
       <use xlink:href="#STHeiti-30" transform="translate(110.799988 0)"/>
       <use xlink:href="#STHeiti-30" transform="translate(166.199982 0)"/>
      </g>
     </g>
    </g>
    <g id="ytick_3">
     <g id="line2d_19">
      <path d="M 41.903125 207.595522 
L 705.493125 207.595522 
" clip-path="url(#p068624137b)" style="fill: none; stroke: #b0b0b0; stroke-opacity: 0.3; stroke-width: 0.8; stroke-linecap: square"/>
     </g>
     <g id="line2d_20">
      <g>
       <use xlink:href="#mec56f272de" x="41.903125" y="207.595522" style="stroke: #000000; stroke-width: 0.8"/>
      </g>
     </g>
     <g id="text_10">
      <!-- 5000 -->
      <g transform="translate(12.740625 211.575209) scale(0.1 -0.1)">
       <use xlink:href="#STHeiti-35"/>
       <use xlink:href="#STHeiti-30" transform="translate(55.399994 0)"/>
       <use xlink:href="#STHeiti-30" transform="translate(110.799988 0)"/>
       <use xlink:href="#STHeiti-30" transform="translate(166.199982 0)"/>
      </g>
     </g>
    </g>
    <g id="ytick_4">
     <g id="line2d_21">
      <path d="M 41.903125 176.772559 
L 705.493125 176.772559 
" clip-path="url(#p068624137b)" style="fill: none; stroke: #b0b0b0; stroke-opacity: 0.3; stroke-width: 0.8; stroke-linecap: square"/>
     </g>
     <g id="line2d_22">
      <g>
       <use xlink:href="#mec56f272de" x="41.903125" y="176.772559" style="stroke: #000000; stroke-width: 0.8"/>
      </g>
     </g>
     <g id="text_11">
      <!-- 7500 -->
      <g transform="translate(12.740625 180.752247) scale(0.1 -0.1)">
       <defs>
        <path id="STHeiti-37" d="M 461 4979 
L 3373 4979 
L 915 269 
L 538 461 
L 2662 4544 
L 461 4544 
L 461 4979 
z
" transform="scale(0.015625)"/>
       </defs>
       <use xlink:href="#STHeiti-37"/>
       <use xlink:href="#STHeiti-35" transform="translate(55.399994 0)"/>
       <use xlink:href="#STHeiti-30" transform="translate(110.799988 0)"/>
       <use xlink:href="#STHeiti-30" transform="translate(166.199982 0)"/>
      </g>
     </g>
    </g>
    <g id="ytick_5">
     <g id="line2d_23">
      <path d="M 41.903125 145.949597 
L 705.493125 145.949597 
" clip-path="url(#p068624137b)" style="fill: none; stroke: #b0b0b0; stroke-opacity: 0.3; stroke-width: 0.8; stroke-linecap: square"/>
     </g>
     <g id="line2d_24">
      <g>
       <use xlink:href="#mec56f272de" x="41.903125" y="145.949597" style="stroke: #000000; stroke-width: 0.8"/>
      </g>
     </g>
     <g id="text_12">
      <!-- 10000 -->
      <g transform="translate(7.2 149.929284) scale(0.1 -0.1)">
       <defs>
        <path id="STHeiti-31" d="M 1184 4979 
L 2086 4979 
L 2086 384 
L 1632 384 
L 1632 4531 
L 909 4531 
L 1184 4979 
z
" transform="scale(0.015625)"/>
       </defs>
       <use xlink:href="#STHeiti-31"/>
       <use xlink:href="#STHeiti-30" transform="translate(55.399994 0)"/>
       <use xlink:href="#STHeiti-30" transform="translate(110.799988 0)"/>
       <use xlink:href="#STHeiti-30" transform="translate(166.199982 0)"/>
       <use xlink:href="#STHeiti-30" transform="translate(221.599976 0)"/>
      </g>
     </g>
    </g>
    <g id="ytick_6">
     <g id="line2d_25">
      <path d="M 41.903125 115.126634 
L 705.493125 115.126634 
" clip-path="url(#p068624137b)" style="fill: none; stroke: #b0b0b0; stroke-opacity: 0.3; stroke-width: 0.8; stroke-linecap: square"/>
     </g>
     <g id="line2d_26">
      <g>
       <use xlink:href="#mec56f272de" x="41.903125" y="115.126634" style="stroke: #000000; stroke-width: 0.8"/>
      </g>
     </g>
     <g id="text_13">
      <!-- 12500 -->
      <g transform="translate(7.2 119.106322) scale(0.1 -0.1)">
       <use xlink:href="#STHeiti-31"/>
       <use xlink:href="#STHeiti-32" transform="translate(55.399994 0)"/>
       <use xlink:href="#STHeiti-35" transform="translate(110.799988 0)"/>
       <use xlink:href="#STHeiti-30" transform="translate(166.199982 0)"/>
       <use xlink:href="#STHeiti-30" transform="translate(221.599976 0)"/>
      </g>
     </g>
    </g>
    <g id="ytick_7">
     <g id="line2d_27">
      <path d="M 41.903125 84.303672 
L 705.493125 84.303672 
" clip-path="url(#p068624137b)" style="fill: none; stroke: #b0b0b0; stroke-opacity: 0.3; stroke-width: 0.8; stroke-linecap: square"/>
     </g>
     <g id="line2d_28">
      <g>
       <use xlink:href="#mec56f272de" x="41.903125" y="84.303672" style="stroke: #000000; stroke-width: 0.8"/>
      </g>
     </g>
     <g id="text_14">
      <!-- 15000 -->
      <g transform="translate(7.2 88.283359) scale(0.1 -0.1)">
       <use xlink:href="#STHeiti-31"/>
       <use xlink:href="#STHeiti-35" transform="translate(55.399994 0)"/>
       <use xlink:href="#STHeiti-30" transform="translate(110.799988 0)"/>
       <use xlink:href="#STHeiti-30" transform="translate(166.199982 0)"/>
       <use xlink:href="#STHeiti-30" transform="translate(221.599976 0)"/>
      </g>
     </g>
    </g>
    <g id="ytick_8">
     <g id="line2d_29">
      <path d="M 41.903125 53.480709 
L 705.493125 53.480709 
" clip-path="url(#p068624137b)" style="fill: none; stroke: #b0b0b0; stroke-opacity: 0.3; stroke-width: 0.8; stroke-linecap: square"/>
     </g>
     <g id="line2d_30">
      <g>
       <use xlink:href="#mec56f272de" x="41.903125" y="53.480709" style="stroke: #000000; stroke-width: 0.8"/>
      </g>
     </g>
     <g id="text_15">
      <!-- 17500 -->
      <g transform="translate(7.2 57.460397) scale(0.1 -0.1)">
       <use xlink:href="#STHeiti-31"/>
       <use xlink:href="#STHeiti-37" transform="translate(55.399994 0)"/>
       <use xlink:href="#STHeiti-35" transform="translate(110.799988 0)"/>
       <use xlink:href="#STHeiti-30" transform="translate(166.199982 0)"/>
       <use xlink:href="#STHeiti-30" transform="translate(221.599976 0)"/>
      </g>
     </g>
    </g>
    <g id="ytick_9">
     <g id="line2d_31">
      <path d="M 41.903125 22.657747 
L 705.493125 22.657747 
" clip-path="url(#p068624137b)" style="fill: none; stroke: #b0b0b0; stroke-opacity: 0.3; stroke-width: 0.8; stroke-linecap: square"/>
     </g>
     <g id="line2d_32">
      <g>
       <use xlink:href="#mec56f272de" x="41.903125" y="22.657747" style="stroke: #000000; stroke-width: 0.8"/>
      </g>
     </g>
     <g id="text_16">
      <!-- 20000 -->
      <g transform="translate(7.2 26.637434) scale(0.1 -0.1)">
       <use xlink:href="#STHeiti-32"/>
       <use xlink:href="#STHeiti-30" transform="translate(55.399994 0)"/>
       <use xlink:href="#STHeiti-30" transform="translate(110.799988 0)"/>
       <use xlink:href="#STHeiti-30" transform="translate(166.199982 0)"/>
       <use xlink:href="#STHeiti-30" transform="translate(221.599976 0)"/>
      </g>
     </g>
    </g>
   </g>
   <g id="line2d_33">
    <path d="M 72.066307 267.407111 
L 172.610246 268.556314 
L 273.154186 269.210624 
L 373.698125 269.238981 
L 474.242064 269.222707 
L 574.786004 269.093497 
L 675.329943 269.145279 
" clip-path="url(#p068624137b)" style="fill: none; stroke: #1a365d; stroke-width: 2; stroke-linecap: square"/>
    <defs>
     <path id="mcd80544cdc" d="M 0 3 
C 0.795609 3 1.55874 2.683901 2.12132 2.12132 
C 2.683901 1.55874 3 0.795609 3 0 
C 3 -0.795609 2.683901 -1.55874 2.12132 -2.12132 
C 1.55874 -2.683901 0.795609 -3 0 -3 
C -0.795609 -3 -1.55874 -2.683901 -2.12132 -2.12132 
C -2.683901 -1.55874 -3 -0.795609 -3 0 
C -3 0.795609 -2.683901 1.55874 -2.12132 2.12132 
C -1.55874 2.683901 -0.795609 3 0 3 
z
" style="stroke: #1a365d"/>
    </defs>
    <g clip-path="url(#p068624137b)">
     <use xlink:href="#mcd80544cdc" x="72.066307" y="267.407111" style="fill: #1a365d; stroke: #1a365d"/>
     <use xlink:href="#mcd80544cdc" x="172.610246" y="268.556314" style="fill: #1a365d; stroke: #1a365d"/>
     <use xlink:href="#mcd80544cdc" x="273.154186" y="269.210624" style="fill: #1a365d; stroke: #1a365d"/>
     <use xlink:href="#mcd80544cdc" x="373.698125" y="269.238981" style="fill: #1a365d; stroke: #1a365d"/>
     <use xlink:href="#mcd80544cdc" x="474.242064" y="269.222707" style="fill: #1a365d; stroke: #1a365d"/>
     <use xlink:href="#mcd80544cdc" x="574.786004" y="269.093497" style="fill: #1a365d; stroke: #1a365d"/>
     <use xlink:href="#mcd80544cdc" x="675.329943" y="269.145279" style="fill: #1a365d; stroke: #1a365d"/>
    </g>
   </g>
   <g id="line2d_34">
    <path d="M 72.066307 267.526334 
L 172.610246 268.600083 
L 273.154186 269.201254 
L 373.698125 269.238241 
L 474.242064 269.225296 
" clip-path="url(#p068624137b)" style="fill: none; stroke: #d69e2e; stroke-width: 2; stroke-linecap: square"/>
    <defs>
     <path id="m0e87b6a086" d="M 0 3 
C 0.795609 3 1.55874 2.683901 2.12132 2.12132 
C 2.683901 1.55874 3 0.795609 3 0 
C 3 -0.795609 2.683901 -1.55874 2.12132 -2.12132 
C 1.55874 -2.683901 0.795609 -3 0 -3 
C -0.795609 -3 -1.55874 -2.683901 -2.12132 -2.12132 
C -2.683901 -1.55874 -3 -0.795609 -3 0 
C -3 0.795609 -2.683901 1.55874 -2.12132 2.12132 
C -1.55874 2.683901 -0.795609 3 0 3 
z
" style="stroke: #d69e2e"/>
    </defs>
    <g clip-path="url(#p068624137b)">
     <use xlink:href="#m0e87b6a086" x="72.066307" y="267.526334" style="fill: #d69e2e; stroke: #d69e2e"/>
     <use xlink:href="#m0e87b6a086" x="172.610246" y="268.600083" style="fill: #d69e2e; stroke: #d69e2e"/>
     <use xlink:href="#m0e87b6a086" x="273.154186" y="269.201254" style="fill: #d69e2e; stroke: #d69e2e"/>
     <use xlink:href="#m0e87b6a086" x="373.698125" y="269.238241" style="fill: #d69e2e; stroke: #d69e2e"/>
     <use xlink:href="#m0e87b6a086" x="474.242064" y="269.225296" style="fill: #d69e2e; stroke: #d69e2e"/>
    </g>
   </g>
   <g id="line2d_35">
    <path d="M 172.610246 269.285216 
L 273.154186 269.232077 
L 373.698125 269.240707 
L 474.242064 269.244036 
L 574.786004 19.680248 
L 675.329943 268.066476 
" clip-path="url(#p068624137b)" style="fill: none; stroke: #38a169; stroke-width: 2; stroke-linecap: square"/>
    <defs>
     <path id="m508e58e85a" d="M 0 3 
C 0.795609 3 1.55874 2.683901 2.12132 2.12132 
C 2.683901 1.55874 3 0.795609 3 0 
C 3 -0.795609 2.683901 -1.55874 2.12132 -2.12132 
C 1.55874 -2.683901 0.795609 -3 0 -3 
C -0.795609 -3 -1.55874 -2.683901 -2.12132 -2.12132 
C -2.683901 -1.55874 -3 -0.795609 -3 0 
C -3 0.795609 -2.683901 1.55874 -2.12132 2.12132 
C -1.55874 2.683901 -0.795609 3 0 3 
z
" style="stroke: #38a169"/>
    </defs>
    <g clip-path="url(#p068624137b)">
     <use xlink:href="#m508e58e85a" x="172.610246" y="269.285216" style="fill: #38a169; stroke: #38a169"/>
     <use xlink:href="#m508e58e85a" x="273.154186" y="269.232077" style="fill: #38a169; stroke: #38a169"/>
     <use xlink:href="#m508e58e85a" x="373.698125" y="269.240707" style="fill: #38a169; stroke: #38a169"/>
     <use xlink:href="#m508e58e85a" x="474.242064" y="269.244036" style="fill: #38a169; stroke: #38a169"/>
     <use xlink:href="#m508e58e85a" x="574.786004" y="19.680248" style="fill: #38a169; stroke: #38a169"/>
     <use xlink:href="#m508e58e85a" x="675.329943" y="268.066476" style="fill: #38a169; stroke: #38a169"/>
    </g>
   </g>
   <g id="patch_3">
    <path d="M 41.903125 281.765464 
L 41.903125 7.2 
" style="fill: none; stroke: #000000; stroke-width: 0.8; stroke-linejoin: miter; stroke-linecap: square"/>
   </g>
   <g id="patch_4">
    <path d="M 705.493125 281.765464 
L 705.493125 7.2 
" style="fill: none; stroke: #000000; stroke-width: 0.8; stroke-linejoin: miter; stroke-linecap: square"/>
   </g>
   <g id="patch_5">
    <path d="M 41.903125 281.765464 
L 705.493125 281.765464 
" style="fill: none; stroke: #000000; stroke-width: 0.8; stroke-linejoin: miter; stroke-linecap: square"/>
   </g>
   <g id="patch_6">
    <path d="M 41.903125 7.2 
L 705.493125 7.2 
" style="fill: none; stroke: #000000; stroke-width: 0.8; stroke-linejoin: miter; stroke-linecap: square"/>
   </g>
   <g id="legend_1">
    <g id="patch_7">
     <path d="M 614.830781 53.01 
L 699.193125 53.01 
Q 700.993125 53.01 700.993125 51.21 
L 700.993125 13.5 
Q 700.993125 11.7 699.193125 11.7 
L 614.830781 11.7 
Q 613.030781 11.7 613.030781 13.5 
L 613.030781 51.21 
Q 613.030781 53.01 614.830781 53.01 
z
" style="fill: #ffffff; opacity: 0.8; stroke: #cccccc; stroke-linejoin: miter"/>
    </g>
    <g id="line2d_36">
     <path d="M 616.630781 19.313437 
L 625.630781 19.313437 
L 634.630781 19.313437 
" style="fill: none; stroke: #1a365d; stroke-width: 2; stroke-linecap: square"/>
     <g>
      <use xlink:href="#mcd80544cdc" x="625.630781" y="19.313437" style="fill: #1a365d; stroke: #1a365d"/>
     </g>
    </g>
    <g id="text_17">
     <!-- FY2025-12-31 -->
     <g transform="translate(641.830781 22.463437) scale(0.09 -0.09)">
      <defs>
       <path id="STHeiti-46" d="M 557 4979 
L 2861 4979 
L 2861 4525 
L 1018 4525 
L 1018 3091 
L 2861 3091 
L 2861 2637 
L 1018 2637 
L 1018 384 
L 557 384 
L 557 4979 
z
" transform="scale(0.015625)"/>
       <path id="STHeiti-59" d="M 198 4979 
L 730 4979 
L 1901 3085 
L 3059 4979 
L 3590 4979 
L 2131 2579 
L 2131 384 
L 1683 384 
L 1683 2579 
L 198 4979 
z
" transform="scale(0.015625)"/>
       <path id="STHeiti-2d" d="M 205 2304 
L 1920 2304 
L 1920 1920 
L 205 1920 
L 205 2304 
z
" transform="scale(0.015625)"/>
      </defs>
      <use xlink:href="#STHeiti-46"/>
      <use xlink:href="#STHeiti-59" transform="translate(48.499985 0)"/>
      <use xlink:href="#STHeiti-32" transform="translate(107.699982 0)"/>
      <use xlink:href="#STHeiti-30" transform="translate(163.099976 0)"/>
      <use xlink:href="#STHeiti-32" transform="translate(218.499969 0)"/>
      <use xlink:href="#STHeiti-35" transform="translate(273.899963 0)"/>
      <use xlink:href="#STHeiti-2d" transform="translate(329.299957 0)"/>
      <use xlink:href="#STHeiti-31" transform="translate(362.499954 0)"/>
      <use xlink:href="#STHeiti-32" transform="translate(417.899948 0)"/>
      <use xlink:href="#STHeiti-2d" transform="translate(473.299942 0)"/>
      <use xlink:href="#STHeiti-33" transform="translate(506.499939 0)"/>
      <use xlink:href="#STHeiti-31" transform="translate(561.899933 0)"/>
     </g>
    </g>
    <g id="line2d_37">
     <path d="M 616.630781 32.183438 
L 625.630781 32.183438 
L 634.630781 32.183438 
" style="fill: none; stroke: #d69e2e; stroke-width: 2; stroke-linecap: square"/>
     <g>
      <use xlink:href="#m0e87b6a086" x="625.630781" y="32.183438" style="fill: #d69e2e; stroke: #d69e2e"/>
     </g>
    </g>
    <g id="text_18">
     <!-- FY2026-03-31 -->
     <g transform="translate(641.830781 35.333438) scale(0.09 -0.09)">
      <defs>
       <path id="STHeiti-36" d="M 2349 5094 
L 2726 4851 
L 1485 2970 
Q 1747 3059 1984 3059 
Q 2496 3059 2880 2652 
Q 3264 2246 3264 1660 
Q 3264 1075 2845 672 
Q 2426 269 1827 269 
Q 1229 269 829 678 
Q 429 1088 429 1677 
Q 429 1958 537 2256 
Q 646 2554 954 3014 
L 2349 5094 
z
M 2810 1683 
Q 2810 2086 2528 2368 
Q 2246 2650 1843 2650 
Q 1440 2650 1158 2368 
Q 877 2086 877 1683 
Q 877 1280 1161 998 
Q 1446 717 1843 717 
Q 2240 717 2525 998 
Q 2810 1280 2810 1683 
z
" transform="scale(0.015625)"/>
      </defs>
      <use xlink:href="#STHeiti-46"/>
      <use xlink:href="#STHeiti-59" transform="translate(48.499985 0)"/>
      <use xlink:href="#STHeiti-32" transform="translate(107.699982 0)"/>
      <use xlink:href="#STHeiti-30" transform="translate(163.099976 0)"/>
      <use xlink:href="#STHeiti-32" transform="translate(218.499969 0)"/>
      <use xlink:href="#STHeiti-36" transform="translate(273.899963 0)"/>
      <use xlink:href="#STHeiti-2d" transform="translate(329.299957 0)"/>
      <use xlink:href="#STHeiti-30" transform="translate(362.499954 0)"/>
      <use xlink:href="#STHeiti-33" transform="translate(417.899948 0)"/>
      <use xlink:href="#STHeiti-2d" transform="translate(473.299942 0)"/>
      <use xlink:href="#STHeiti-33" transform="translate(506.499939 0)"/>
      <use xlink:href="#STHeiti-31" transform="translate(561.899933 0)"/>
     </g>
    </g>
    <g id="line2d_38">
     <path d="M 616.630781 45.053438 
L 625.630781 45.053438 
L 634.630781 45.053438 
" style="fill: none; stroke: #38a169; stroke-width: 2; stroke-linecap: square"/>
     <g>
      <use xlink:href="#m508e58e85a" x="625.630781" y="45.053438" style="fill: #38a169; stroke: #38a169"/>
     </g>
    </g>
    <g id="text_19">
     <!-- 变化 -->
     <g transform="translate(641.830781 48.203438) scale(0.09 -0.09)">
      <defs>
       <path id="STHeiti-53d8" d="M 2272 4058 
Q 1350 4058 602 3987 
L 602 4563 
Q 1555 4493 2957 4493 
Q 2867 4832 2694 5056 
L 3302 5210 
Q 3437 4768 3507 4493 
Q 4922 4493 5869 4563 
L 5869 3987 
Q 5152 4058 4045 4058 
L 4045 2842 
Q 4045 2470 4083 2208 
L 3507 2208 
Q 3546 2470 3546 2842 
L 3546 4058 
L 2752 4058 
L 2752 2842 
Q 2752 2470 2790 2208 
L 2240 2208 
Q 2272 2483 2272 2842 
L 2272 4058 
z
M 1446 3808 
Q 1568 3680 1894 3514 
Q 1952 3482 1952 3446 
Q 1952 3411 1881 3398 
Q 1811 3386 1635 3194 
Q 1459 3002 890 2304 
Q 774 2464 416 2637 
Q 1018 3072 1446 3808 
z
M 5946 2650 
L 5478 2285 
Q 4877 3040 4346 3411 
L 4710 3744 
Q 5453 3181 5946 2650 
z
M 1459 1587 
Q 1280 1581 941 1549 
L 941 2086 
Q 1466 2022 3078 2022 
Q 4691 2022 5210 2086 
Q 4730 1107 3616 397 
Q 4499 83 5523 83 
Q 5741 83 5958 96 
Q 5715 -160 5594 -512 
Q 4358 -410 3136 122 
Q 2061 -384 736 -582 
Q 672 -282 429 -32 
Q 1696 -13 2624 378 
Q 2061 717 1459 1587 
z
M 2003 1594 
Q 2451 966 3110 608 
Q 3936 1030 4275 1594 
L 2003 1594 
z
" transform="scale(0.015625)"/>
       <path id="STHeiti-5316" d="M 1293 2912 
Q 1011 2464 730 2086 
Q 589 2336 314 2528 
Q 781 2912 1177 3696 
Q 1574 4480 1683 5274 
Q 2003 5120 2236 5072 
Q 2470 5024 2470 4963 
Q 2470 4902 2362 4845 
Q 2317 4819 2214 4636 
Q 2112 4454 1824 3859 
L 1824 -531 
L 1222 -531 
Q 1293 -6 1293 499 
L 1293 2912 
z
M 3283 1395 
Q 2995 1178 2534 858 
Q 2374 1139 2054 1312 
Q 2579 1485 3283 2035 
L 3283 4422 
Q 3283 4992 3232 5229 
Q 3584 5152 3917 5152 
Q 4019 5152 4019 5104 
Q 4019 5056 3964 5017 
Q 3910 4979 3868 4889 
Q 3827 4800 3827 4736 
L 3827 2522 
Q 4570 3245 5158 4307 
Q 5472 4045 5766 3891 
Q 5837 3853 5837 3817 
Q 5837 3782 5766 3772 
Q 5696 3763 5536 3625 
Q 5376 3488 5280 3366 
Q 4518 2445 3827 1843 
L 3827 448 
Q 3827 275 3868 201 
Q 3910 128 4048 105 
Q 4186 83 4544 83 
Q 4902 83 5065 134 
Q 5229 186 5315 371 
Q 5402 557 5472 1005 
Q 5709 685 6080 576 
Q 5882 -83 5754 -204 
Q 5626 -326 5437 -377 
Q 5248 -429 4589 -429 
Q 3930 -429 3680 -381 
Q 3430 -333 3356 -208 
Q 3283 -83 3283 198 
L 3283 1395 
z
" transform="scale(0.015625)"/>
      </defs>
      <use xlink:href="#STHeiti-53d8"/>
      <use xlink:href="#STHeiti-5316" transform="translate(99.999985 0)"/>
     </g>
    </g>
   </g>
  </g>
 </g>
 <defs>
  <clipPath id="p068624137b">
   <rect x="41.903125" y="7.2" width="663.59" height="274.565464"/>
  </clipPath>
 </defs>
</svg>
