<?xml version="1.0" encoding="utf-8" standalone="no"?>
<!DOCTYPE svg PUBLIC "-//W3C//DTD SVG 1.1//EN"
  "http://www.w3.org/Graphics/SVG/1.1/DTD/svg11.dtd">
<svg xmlns:xlink="http://www.w3.org/1999/xlink" width="712.603125pt" height="352.1445pt" viewBox="0 0 712.603125 352.1445" xmlns="http://www.w3.org/2000/svg" version="1.1">
 <metadata>
  <rdf:RDF xmlns:dc="http://purl.org/dc/elements/1.1/" xmlns:cc="http://creativecommons.org/ns#" xmlns:rdf="http://www.w3.org/1999/02/22-rdf-syntax-ns#">
   <cc:Work>
    <dc:type rdf:resource="http://purl.org/dc/dcmitype/StillImage"/>
    <dc:date>2026-06-05T11:42:05.021956</dc:date>
    <dc:format>image/svg+xml</dc:format>
    <dc:creator>
     <cc:Agent>
      <dc:title>Matplotlib v3.10.9, https://matplotlib.org/</dc:title>
     </cc:Agent>
    </dc:creator>
   </cc:Work>
  </rdf:RDF>
 </metadata>
 <defs>
  <style type="text/css">*{stroke-linejoin: round; stroke-linecap: butt}</style>
 </defs>
 <g id="figure_1">
  <g id="patch_1">
   <path d="M -0 352.1445 
L 712.603125 352.1445 
L 712.603125 0 
L -0 0 
z
" style="fill: #ffffff"/>
  </g>
  <g id="axes_1">
   <g id="patch_2">
    <path d="M 41.903125 309.890464 
L 705.403125 309.890464 
L 705.403125 7.2 
L 41.903125 7.2 
z
" style="fill: #fafafa"/>
   </g>
   <g id="matplotlib.axis_1">
    <g id="xtick_1">
     <g id="line2d_1">
      <path d="M 72.062216 309.890464 
L 72.062216 7.2 
" clip-path="url(#p648f8ca29e)" style="fill: none; stroke: #b0b0b0; stroke-opacity: 0.3; stroke-width: 0.8; stroke-linecap: square"/>
     </g>
     <g id="line2d_2">
      <defs>
       <path id="m36625ba9e7" d="M 0 0 
L 0 3.5 
" style="stroke: #000000; stroke-width: 0.8"/>
      </defs>
      <g>
       <use xlink:href="#m36625ba9e7" x="72.062216" y="309.890464" style="stroke: #000000; stroke-width: 0.8"/>
      </g>
     </g>
     <g id="text_1">
      <!-- 2023.01 -->
      <g transform="translate(40.20281 341.790516) rotate(-30) scale(0.1 -0.1)">
       <defs>
        <path id="STHeiti-32" d="M 742 3539 
L 301 3539 
Q 333 4243 768 4668 
Q 1203 5094 1820 5094 
Q 2438 5094 2844 4694 
Q 3251 4294 3251 3718 
Q 3251 3290 3024 2925 
Q 2797 2560 2336 2061 
L 1190 826 
L 3315 826 
L 3315 384 
L 192 384 
L 1946 2278 
Q 2406 2778 2604 3066 
Q 2803 3354 2803 3725 
Q 2803 4096 2512 4377 
Q 2221 4659 1789 4659 
Q 1357 4659 1072 4368 
Q 787 4077 742 3539 
z
" transform="scale(0.015625)"/>
        <path id="STHeiti-30" d="M 1747 269 
Q 1005 269 605 880 
Q 205 1491 205 2681 
Q 205 3872 605 4483 
Q 1005 5094 1741 5094 
Q 2477 5094 2909 4470 
Q 3341 3846 3341 2681 
Q 3341 1517 2905 893 
Q 2470 269 1747 269 
z
M 1760 4659 
Q 1229 4659 934 4147 
Q 640 3635 640 2669 
Q 640 685 1760 685 
Q 2304 685 2608 1206 
Q 2912 1728 2912 2681 
Q 2912 3635 2598 4147 
Q 2285 4659 1760 4659 
z
" transform="scale(0.015625)"/>
        <path id="STHeiti-33" d="M 845 3917 
L 378 3917 
Q 506 4486 867 4790 
Q 1229 5094 1750 5094 
Q 2272 5094 2659 4748 
Q 3046 4403 3046 3910 
Q 3046 3315 2458 2970 
Q 2861 2803 3081 2473 
Q 3302 2144 3302 1754 
Q 3302 1146 2857 707 
Q 2413 269 1734 269 
Q 1133 269 742 611 
Q 352 954 224 1613 
L 672 1613 
Q 794 1158 1046 937 
Q 1299 717 1760 717 
Q 2221 717 2534 1011 
Q 2848 1306 2848 1741 
Q 2848 2176 2502 2441 
Q 2157 2707 1498 2720 
L 1498 3142 
Q 1971 3142 2268 3360 
Q 2566 3578 2566 3901 
Q 2566 4224 2326 4438 
Q 2086 4653 1747 4653 
Q 1408 4653 1200 4470 
Q 992 4288 845 3917 
z
" transform="scale(0.015625)"/>
        <path id="STHeiti-2e" d="M 582 685 
Q 582 845 697 957 
Q 813 1069 969 1069 
Q 1126 1069 1238 957 
Q 1350 845 1350 681 
Q 1350 518 1238 406 
Q 1126 294 969 294 
Q 813 294 697 409 
Q 582 525 582 685 
z
" transform="scale(0.015625)"/>
        <path id="STHeiti-31" d="M 1184 4979 
L 2086 4979 
L 2086 384 
L 1632 384 
L 1632 4531 
L 909 4531 
L 1184 4979 
z
" transform="scale(0.015625)"/>
       </defs>
       <use xlink:href="#STHeiti-32"/>
       <use xlink:href="#STHeiti-30" transform="translate(55.399994 0)"/>
       <use xlink:href="#STHeiti-32" transform="translate(110.799988 0)"/>
       <use xlink:href="#STHeiti-33" transform="translate(166.199982 0)"/>
       <use xlink:href="#STHeiti-2e" transform="translate(221.599976 0)"/>
       <use xlink:href="#STHeiti-30" transform="translate(249.299973 0)"/>
       <use xlink:href="#STHeiti-31" transform="translate(304.699966 0)"/>
      </g>
     </g>
    </g>
    <g id="xtick_2">
     <g id="line2d_3">
      <path d="M 273.122822 309.890464 
L 273.122822 7.2 
" clip-path="url(#p648f8ca29e)" style="fill: none; stroke: #b0b0b0; stroke-opacity: 0.3; stroke-width: 0.8; stroke-linecap: square"/>
     </g>
     <g id="line2d_4">
      <g>
       <use xlink:href="#m36625ba9e7" x="273.122822" y="309.890464" style="stroke: #000000; stroke-width: 0.8"/>
      </g>
     </g>
     <g id="text_2">
      <!-- 2024.08 -->
      <g transform="translate(241.263416 341.790516) rotate(-30) scale(0.1 -0.1)">
       <defs>
        <path id="STHeiti-34" d="M 2726 5094 
L 2816 5094 
L 2816 1894 
L 3373 1894 
L 3373 1453 
L 2816 1453 
L 2816 384 
L 2362 384 
L 2362 1453 
L 160 1453 
L 2726 5094 
z
M 2362 1894 
L 2362 3808 
L 1005 1894 
L 2362 1894 
z
" transform="scale(0.015625)"/>
        <path id="STHeiti-38" d="M 2458 2906 
Q 3328 2477 3328 1702 
Q 3328 1088 2896 678 
Q 2464 269 1763 269 
Q 1062 269 640 678 
Q 218 1088 218 1664 
Q 218 2470 1107 2906 
Q 435 3264 435 3898 
Q 435 4371 828 4732 
Q 1222 5094 1779 5094 
Q 2336 5094 2726 4742 
Q 3117 4390 3117 3885 
Q 3117 3270 2458 2906 
z
M 2656 3904 
Q 2656 4211 2416 4432 
Q 2176 4653 1789 4653 
Q 1402 4653 1152 4432 
Q 902 4211 902 3897 
Q 902 3584 1174 3337 
Q 1446 3091 1792 3091 
Q 2138 3091 2397 3334 
Q 2656 3578 2656 3904 
z
M 2867 1696 
Q 2867 2086 2550 2380 
Q 2234 2675 1782 2675 
Q 1331 2675 1004 2371 
Q 678 2067 678 1654 
Q 678 1242 979 973 
Q 1280 704 1766 704 
Q 2253 704 2560 992 
Q 2867 1280 2867 1696 
z
" transform="scale(0.015625)"/>
       </defs>
       <use xlink:href="#STHeiti-32"/>
       <use xlink:href="#STHeiti-30" transform="translate(55.399994 0)"/>
       <use xlink:href="#STHeiti-32" transform="translate(110.799988 0)"/>
       <use xlink:href="#STHeiti-34" transform="translate(166.199982 0)"/>
       <use xlink:href="#STHeiti-2e" transform="translate(221.599976 0)"/>
       <use xlink:href="#STHeiti-30" transform="translate(249.299973 0)"/>
       <use xlink:href="#STHeiti-38" transform="translate(304.699966 0)"/>
      </g>
     </g>
    </g>
    <g id="xtick_3">
     <g id="line2d_5">
      <path d="M 474.183428 309.890464 
L 474.183428 7.2 
" clip-path="url(#p648f8ca29e)" style="fill: none; stroke: #b0b0b0; stroke-opacity: 0.3; stroke-width: 0.8; stroke-linecap: square"/>
     </g>
     <g id="line2d_6">
      <g>
       <use xlink:href="#m36625ba9e7" x="474.183428" y="309.890464" style="stroke: #000000; stroke-width: 0.8"/>
      </g>
     </g>
     <g id="text_3">
      <!-- 2024.11 -->
      <g transform="translate(442.324023 341.790516) rotate(-30) scale(0.1 -0.1)">
       <use xlink:href="#STHeiti-32"/>
       <use xlink:href="#STHeiti-30" transform="translate(55.399994 0)"/>
       <use xlink:href="#STHeiti-32" transform="translate(110.799988 0)"/>
       <use xlink:href="#STHeiti-34" transform="translate(166.199982 0)"/>
       <use xlink:href="#STHeiti-2e" transform="translate(221.599976 0)"/>
       <use xlink:href="#STHeiti-31" transform="translate(249.299973 0)"/>
       <use xlink:href="#STHeiti-31" transform="translate(304.699966 0)"/>
      </g>
     </g>
    </g>
    <g id="xtick_4">
     <g id="line2d_7">
      <path d="M 675.244034 309.890464 
L 675.244034 7.2 
" clip-path="url(#p648f8ca29e)" style="fill: none; stroke: #b0b0b0; stroke-opacity: 0.3; stroke-width: 0.8; stroke-linecap: square"/>
     </g>
     <g id="line2d_8">
      <g>
       <use xlink:href="#m36625ba9e7" x="675.244034" y="309.890464" style="stroke: #000000; stroke-width: 0.8"/>
      </g>
     </g>
     <g id="text_4">
      <!-- 时间未知 -->
      <g transform="translate(639.932705 343.783485) rotate(-30) scale(0.1 -0.1)">
       <defs>
        <path id="STHeiti-65f6" d="M 4851 3795 
Q 4851 4909 4781 5261 
Q 4979 5229 5421 5229 
Q 5530 5229 5530 5184 
Q 5530 5158 5491 5133 
Q 5376 5069 5376 4883 
L 5376 3802 
Q 5728 3808 6144 3846 
L 6144 3258 
Q 5862 3290 5376 3302 
L 5376 83 
Q 5376 -186 5299 -310 
Q 5222 -435 4988 -502 
Q 4755 -570 4230 -614 
Q 4192 -224 3962 70 
Q 4230 51 4428 51 
Q 4627 51 4739 89 
Q 4851 128 4851 275 
L 4851 3309 
L 4077 3309 
Q 3379 3309 2867 3258 
L 2867 3846 
Q 3373 3795 4077 3795 
L 4851 3795 
z
M 1165 634 
L 1165 -224 
L 627 -224 
Q 672 173 672 627 
L 672 3949 
Q 672 4422 634 4659 
Q 864 4608 1683 4608 
Q 2502 4608 2726 4659 
Q 2688 4435 2688 3949 
L 2688 896 
Q 2688 486 2733 51 
L 2195 51 
L 2195 634 
L 1165 634 
z
M 2195 2829 
L 2195 4154 
L 1165 4154 
L 1165 2829 
L 2195 2829 
z
M 2195 1062 
L 2195 2381 
L 1165 2381 
L 1165 1062 
L 2195 1062 
z
M 4243 1574 
L 3674 1370 
Q 3526 1933 3238 2579 
L 3757 2758 
Q 3891 2163 4243 1574 
z
" transform="scale(0.015625)"/>
        <path id="STHeiti-95f4" d="M 2342 4301 
L 1786 3962 
Q 1568 4531 1229 4915 
L 1741 5178 
Q 2118 4685 2342 4301 
z
M 5715 4870 
Q 5690 4755 5690 4102 
L 5690 13 
Q 5690 -282 5642 -390 
Q 5594 -499 5408 -553 
Q 5222 -608 4698 -678 
Q 4666 -358 4480 -32 
Q 4794 -70 4938 -70 
Q 5082 -70 5123 -6 
Q 5165 58 5165 262 
L 5165 4346 
L 3680 4346 
Q 3187 4346 2822 4307 
L 2822 4870 
Q 3405 4832 4301 4832 
Q 5197 4832 5715 4870 
z
M 710 3962 
Q 870 3917 1274 3917 
Q 1382 3917 1382 3869 
Q 1382 3821 1318 3744 
Q 1280 3699 1280 3552 
L 1280 -614 
L 678 -614 
Q 736 -70 736 512 
L 736 3181 
Q 736 3661 710 3962 
z
M 4416 531 
Q 4186 563 3235 563 
Q 2285 563 2048 531 
Q 2074 640 2074 998 
L 2074 3014 
Q 2074 3366 2048 3475 
Q 2285 3443 3235 3443 
Q 4186 3443 4416 3475 
Q 4384 3328 4384 3014 
L 4384 998 
Q 4384 678 4416 531 
z
M 3878 2240 
L 3878 3034 
L 2573 3034 
L 2573 2240 
L 3878 2240 
z
M 3878 998 
L 3878 1824 
L 2573 1824 
L 2573 998 
L 3878 998 
z
" transform="scale(0.015625)"/>
        <path id="STHeiti-672a" d="M 3488 2240 
L 3488 563 
Q 3488 26 3552 -589 
L 2874 -589 
Q 2931 -122 2931 563 
L 2931 2093 
Q 2714 1453 2234 912 
Q 1754 371 864 -256 
Q 685 51 397 198 
Q 1018 474 1651 1062 
Q 2285 1651 2560 2240 
Q 1286 2227 582 2176 
L 582 2778 
Q 1510 2714 2931 2707 
L 2931 3706 
Q 1677 3693 1018 3642 
L 1018 4230 
Q 1773 4166 2931 4160 
L 2931 4602 
Q 2931 5069 2874 5267 
Q 3072 5248 3251 5248 
L 3520 5254 
Q 3622 5254 3622 5212 
Q 3622 5171 3568 5139 
Q 3514 5107 3501 5040 
Q 3488 4973 3488 4774 
L 3488 4160 
Q 4602 4166 5338 4230 
L 5338 3642 
Q 4698 3693 3488 3706 
L 3488 2701 
Q 4794 2707 5818 2778 
L 5818 2176 
Q 5114 2234 3872 2240 
Q 4474 864 6061 493 
Q 5933 422 5833 233 
Q 5734 45 5709 -147 
Q 3718 800 3488 2240 
z
" transform="scale(0.015625)"/>
        <path id="STHeiti-77e5" d="M 2362 2464 
Q 2995 2470 3411 2522 
L 3411 1926 
Q 2989 1978 2317 1984 
Q 2304 1818 2234 1555 
Q 2803 1050 3494 333 
L 3053 -102 
Q 2733 352 2074 1062 
Q 1638 -19 902 -659 
Q 755 -454 429 -250 
Q 1600 614 1805 1984 
Q 960 1984 480 1926 
L 480 2509 
Q 941 2464 1850 2464 
Q 1888 3078 1882 3718 
L 1338 3718 
L 986 2899 
Q 749 3046 448 3066 
Q 1165 4282 1203 5274 
Q 1594 5114 1965 5088 
Q 2048 5082 2048 5050 
Q 2048 5018 1984 4986 
Q 1920 4954 1833 4800 
Q 1747 4646 1536 4198 
L 2189 4198 
Q 2874 4198 3302 4250 
L 3302 3693 
Q 3021 3718 2394 3718 
Q 2387 2822 2362 2464 
z
M 5274 352 
L 4224 352 
L 4224 -390 
L 3648 -390 
Q 3699 128 3699 576 
L 3699 3955 
Q 3699 4378 3661 4538 
Q 4243 4499 4758 4499 
Q 5274 4499 5837 4538 
Q 5798 4397 5798 3955 
L 5798 832 
Q 5798 205 5843 -262 
L 5274 -262 
L 5274 352 
z
M 4224 826 
L 5274 826 
L 5274 3987 
L 4224 3987 
L 4224 826 
z
" transform="scale(0.015625)"/>
       </defs>
       <use xlink:href="#STHeiti-65f6"/>
       <use xlink:href="#STHeiti-95f4" transform="translate(99.999985 0)"/>
       <use xlink:href="#STHeiti-672a" transform="translate(199.999969 0)"/>
       <use xlink:href="#STHeiti-77e5" transform="translate(299.999954 0)"/>
      </g>
     </g>
    </g>
   </g>
   <g id="matplotlib.axis_2">
    <g id="ytick_1">
     <g id="line2d_9">
      <path d="M 41.903125 296.13563 
L 705.403125 296.13563 
" clip-path="url(#p648f8ca29e)" style="fill: none; stroke: #b0b0b0; stroke-opacity: 0.3; stroke-width: 0.8; stroke-linecap: square"/>
     </g>
     <g id="line2d_10">
      <defs>
       <path id="m1ec72b3ba0" d="M 0 0 
L -3.5 0 
" style="stroke: #000000; stroke-width: 0.8"/>
      </defs>
      <g>
       <use xlink:href="#m1ec72b3ba0" x="41.903125" y="296.13563" style="stroke: #000000; stroke-width: 0.8"/>
      </g>
     </g>
     <g id="text_5">
      <!-- 0 -->
      <g transform="translate(29.3625 300.115318) scale(0.1 -0.1)">
       <use xlink:href="#STHeiti-30"/>
      </g>
     </g>
    </g>
    <g id="ytick_2">
     <g id="line2d_11">
      <path d="M 41.903125 257.898019 
L 705.403125 257.898019 
" clip-path="url(#p648f8ca29e)" style="fill: none; stroke: #b0b0b0; stroke-opacity: 0.3; stroke-width: 0.8; stroke-linecap: square"/>
     </g>
     <g id="line2d_12">
      <g>
       <use xlink:href="#m1ec72b3ba0" x="41.903125" y="257.898019" style="stroke: #000000; stroke-width: 0.8"/>
      </g>
     </g>
     <g id="text_6">
      <!-- 10000 -->
      <g transform="translate(7.2 261.877706) scale(0.1 -0.1)">
       <use xlink:href="#STHeiti-31"/>
       <use xlink:href="#STHeiti-30" transform="translate(55.399994 0)"/>
       <use xlink:href="#STHeiti-30" transform="translate(110.799988 0)"/>
       <use xlink:href="#STHeiti-30" transform="translate(166.199982 0)"/>
       <use xlink:href="#STHeiti-30" transform="translate(221.599976 0)"/>
      </g>
     </g>
    </g>
    <g id="ytick_3">
     <g id="line2d_13">
      <path d="M 41.903125 219.660407 
L 705.403125 219.660407 
" clip-path="url(#p648f8ca29e)" style="fill: none; stroke: #b0b0b0; stroke-opacity: 0.3; stroke-width: 0.8; stroke-linecap: square"/>
     </g>
     <g id="line2d_14">
      <g>
       <use xlink:href="#m1ec72b3ba0" x="41.903125" y="219.660407" style="stroke: #000000; stroke-width: 0.8"/>
      </g>
     </g>
     <g id="text_7">
      <!-- 20000 -->
      <g transform="translate(7.2 223.640094) scale(0.1 -0.1)">
       <use xlink:href="#STHeiti-32"/>
       <use xlink:href="#STHeiti-30" transform="translate(55.399994 0)"/>
       <use xlink:href="#STHeiti-30" transform="translate(110.799988 0)"/>
       <use xlink:href="#STHeiti-30" transform="translate(166.199982 0)"/>
       <use xlink:href="#STHeiti-30" transform="translate(221.599976 0)"/>
      </g>
     </g>
    </g>
    <g id="ytick_4">
     <g id="line2d_15">
      <path d="M 41.903125 181.422795 
L 705.403125 181.422795 
" clip-path="url(#p648f8ca29e)" style="fill: none; stroke: #b0b0b0; stroke-opacity: 0.3; stroke-width: 0.8; stroke-linecap: square"/>
     </g>
     <g id="line2d_16">
      <g>
       <use xlink:href="#m1ec72b3ba0" x="41.903125" y="181.422795" style="stroke: #000000; stroke-width: 0.8"/>
      </g>
     </g>
     <g id="text_8">
      <!-- 30000 -->
      <g transform="translate(7.2 185.402483) scale(0.1 -0.1)">
       <use xlink:href="#STHeiti-33"/>
       <use xlink:href="#STHeiti-30" transform="translate(55.399994 0)"/>
       <use xlink:href="#STHeiti-30" transform="translate(110.799988 0)"/>
       <use xlink:href="#STHeiti-30" transform="translate(166.199982 0)"/>
       <use xlink:href="#STHeiti-30" transform="translate(221.599976 0)"/>
      </g>
     </g>
    </g>
    <g id="ytick_5">
     <g id="line2d_17">
      <path d="M 41.903125 143.185183 
L 705.403125 143.185183 
" clip-path="url(#p648f8ca29e)" style="fill: none; stroke: #b0b0b0; stroke-opacity: 0.3; stroke-width: 0.8; stroke-linecap: square"/>
     </g>
     <g id="line2d_18">
      <g>
       <use xlink:href="#m1ec72b3ba0" x="41.903125" y="143.185183" style="stroke: #000000; stroke-width: 0.8"/>
      </g>
     </g>
     <g id="text_9">
      <!-- 40000 -->
      <g transform="translate(7.2 147.164871) scale(0.1 -0.1)">
       <use xlink:href="#STHeiti-34"/>
       <use xlink:href="#STHeiti-30" transform="translate(55.399994 0)"/>
       <use xlink:href="#STHeiti-30" transform="translate(110.799988 0)"/>
       <use xlink:href="#STHeiti-30" transform="translate(166.199982 0)"/>
       <use xlink:href="#STHeiti-30" transform="translate(221.599976 0)"/>
      </g>
     </g>
    </g>
    <g id="ytick_6">
     <g id="line2d_19">
      <path d="M 41.903125 104.947572 
L 705.403125 104.947572 
" clip-path="url(#p648f8ca29e)" style="fill: none; stroke: #b0b0b0; stroke-opacity: 0.3; stroke-width: 0.8; stroke-linecap: square"/>
     </g>
     <g id="line2d_20">
      <g>
       <use xlink:href="#m1ec72b3ba0" x="41.903125" y="104.947572" style="stroke: #000000; stroke-width: 0.8"/>
      </g>
     </g>
     <g id="text_10">
      <!-- 50000 -->
      <g transform="translate(7.2 108.927259) scale(0.1 -0.1)">
       <defs>
        <path id="STHeiti-35" d="M 3149 4979 
L 3149 4544 
L 1510 4544 
L 1280 3290 
Q 1587 3379 1856 3379 
Q 2458 3379 2861 2953 
Q 3264 2528 3264 1862 
Q 3264 1197 2825 733 
Q 2387 269 1664 269 
Q 1114 269 726 598 
Q 339 928 262 1498 
L 730 1498 
Q 813 1114 1075 909 
Q 1338 704 1683 704 
Q 2138 704 2467 1043 
Q 2797 1382 2797 1888 
Q 2797 2349 2509 2646 
Q 2221 2944 1757 2944 
Q 1293 2944 730 2701 
L 1158 4979 
L 3149 4979 
z
" transform="scale(0.015625)"/>
       </defs>
       <use xlink:href="#STHeiti-35"/>
       <use xlink:href="#STHeiti-30" transform="translate(55.399994 0)"/>
       <use xlink:href="#STHeiti-30" transform="translate(110.799988 0)"/>
       <use xlink:href="#STHeiti-30" transform="translate(166.199982 0)"/>
       <use xlink:href="#STHeiti-30" transform="translate(221.599976 0)"/>
      </g>
     </g>
    </g>
    <g id="ytick_7">
     <g id="line2d_21">
      <path d="M 41.903125 66.70996 
L 705.403125 66.70996 
" clip-path="url(#p648f8ca29e)" style="fill: none; stroke: #b0b0b0; stroke-opacity: 0.3; stroke-width: 0.8; stroke-linecap: square"/>
     </g>
     <g id="line2d_22">
      <g>
       <use xlink:href="#m1ec72b3ba0" x="41.903125" y="66.70996" style="stroke: #000000; stroke-width: 0.8"/>
      </g>
     </g>
     <g id="text_11">
      <!-- 60000 -->
      <g transform="translate(7.2 70.689647) scale(0.1 -0.1)">
       <defs>
        <path id="STHeiti-36" d="M 2349 5094 
L 2726 4851 
L 1485 2970 
Q 1747 3059 1984 3059 
Q 2496 3059 2880 2652 
Q 3264 2246 3264 1660 
Q 3264 1075 2845 672 
Q 2426 269 1827 269 
Q 1229 269 829 678 
Q 429 1088 429 1677 
Q 429 1958 537 2256 
Q 646 2554 954 3014 
L 2349 5094 
z
M 2810 1683 
Q 2810 2086 2528 2368 
Q 2246 2650 1843 2650 
Q 1440 2650 1158 2368 
Q 877 2086 877 1683 
Q 877 1280 1161 998 
Q 1446 717 1843 717 
Q 2240 717 2525 998 
Q 2810 1280 2810 1683 
z
" transform="scale(0.015625)"/>
       </defs>
       <use xlink:href="#STHeiti-36"/>
       <use xlink:href="#STHeiti-30" transform="translate(55.399994 0)"/>
       <use xlink:href="#STHeiti-30" transform="translate(110.799988 0)"/>
       <use xlink:href="#STHeiti-30" transform="translate(166.199982 0)"/>
       <use xlink:href="#STHeiti-30" transform="translate(221.599976 0)"/>
      </g>
     </g>
    </g>
    <g id="ytick_8">
     <g id="line2d_23">
      <path d="M 41.903125 28.472348 
L 705.403125 28.472348 
" clip-path="url(#p648f8ca29e)" style="fill: none; stroke: #b0b0b0; stroke-opacity: 0.3; stroke-width: 0.8; stroke-linecap: square"/>
     </g>
     <g id="line2d_24">
      <g>
       <use xlink:href="#m1ec72b3ba0" x="41.903125" y="28.472348" style="stroke: #000000; stroke-width: 0.8"/>
      </g>
     </g>
     <g id="text_12">
      <!-- 70000 -->
      <g transform="translate(7.2 32.452036) scale(0.1 -0.1)">
       <defs>
        <path id="STHeiti-37" d="M 461 4979 
L 3373 4979 
L 915 269 
L 538 461 
L 2662 4544 
L 461 4544 
L 461 4979 
z
" transform="scale(0.015625)"/>
       </defs>
       <use xlink:href="#STHeiti-37"/>
       <use xlink:href="#STHeiti-30" transform="translate(55.399994 0)"/>
       <use xlink:href="#STHeiti-30" transform="translate(110.799988 0)"/>
       <use xlink:href="#STHeiti-30" transform="translate(166.199982 0)"/>
       <use xlink:href="#STHeiti-30" transform="translate(221.599976 0)"/>
      </g>
     </g>
    </g>
   </g>
   <g id="line2d_25">
    <path d="M 72.062216 296.127983 
L 273.122822 296.131806 
L 474.183428 296.127983 
L 675.244034 296.124159 
" clip-path="url(#p648f8ca29e)" style="fill: none; stroke: #1a365d; stroke-width: 2; stroke-linecap: square"/>
    <defs>
     <path id="mc83c80c0ee" d="M 0 3 
C 0.795609 3 1.55874 2.683901 2.12132 2.12132 
C 2.683901 1.55874 3 0.795609 3 0 
C 3 -0.795609 2.683901 -1.55874 2.12132 -2.12132 
C 1.55874 -2.683901 0.795609 -3 0 -3 
C -0.795609 -3 -1.55874 -2.683901 -2.12132 -2.12132 
C -2.683901 -1.55874 -3 -0.795609 -3 0 
C -3 0.795609 -2.683901 1.55874 -2.12132 2.12132 
C -1.55874 2.683901 -0.795609 3 0 3 
z
" style="stroke: #1a365d"/>
    </defs>
    <g clip-path="url(#p648f8ca29e)">
     <use xlink:href="#mc83c80c0ee" x="72.062216" y="296.127983" style="fill: #1a365d; stroke: #1a365d"/>
     <use xlink:href="#mc83c80c0ee" x="273.122822" y="296.131806" style="fill: #1a365d; stroke: #1a365d"/>
     <use xlink:href="#mc83c80c0ee" x="474.183428" y="296.127983" style="fill: #1a365d; stroke: #1a365d"/>
     <use xlink:href="#mc83c80c0ee" x="675.244034" y="296.124159" style="fill: #1a365d; stroke: #1a365d"/>
    </g>
   </g>
   <g id="line2d_26">
    <path d="M 72.062216 143.074294 
L 273.122822 170.716264 
L 474.183428 226.543177 
L 675.244034 20.958657 
" clip-path="url(#p648f8ca29e)" style="fill: none; stroke: #d69e2e; stroke-width: 2; stroke-linecap: square"/>
    <defs>
     <path id="mbf488206ac" d="M 0 3 
C 0.795609 3 1.55874 2.683901 2.12132 2.12132 
C 2.683901 1.55874 3 0.795609 3 0 
C 3 -0.795609 2.683901 -1.55874 2.12132 -2.12132 
C 1.55874 -2.683901 0.795609 -3 0 -3 
C -0.795609 -3 -1.55874 -2.683901 -2.12132 -2.12132 
C -2.683901 -1.55874 -3 -0.795609 -3 0 
C -3 0.795609 -2.683901 1.55874 -2.12132 2.12132 
C -1.55874 2.683901 -0.795609 3 0 3 
z
" style="stroke: #d69e2e"/>
    </defs>
    <g clip-path="url(#p648f8ca29e)">
     <use xlink:href="#mbf488206ac" x="72.062216" y="143.074294" style="fill: #d69e2e; stroke: #d69e2e"/>
     <use xlink:href="#mbf488206ac" x="273.122822" y="170.716264" style="fill: #d69e2e; stroke: #d69e2e"/>
     <use xlink:href="#mbf488206ac" x="474.183428" y="226.543177" style="fill: #d69e2e; stroke: #d69e2e"/>
     <use xlink:href="#mbf488206ac" x="675.244034" y="20.958657" style="fill: #d69e2e; stroke: #d69e2e"/>
    </g>
   </g>
   <g id="patch_3">
    <path d="M 41.903125 309.890464 
L 41.903125 7.2 
" style="fill: none; stroke: #000000; stroke-width: 0.8; stroke-linejoin: miter; stroke-linecap: square"/>
   </g>
   <g id="patch_4">
    <path d="M 705.403125 309.890464 
L 705.403125 7.2 
" style="fill: none; stroke: #000000; stroke-width: 0.8; stroke-linejoin: miter; stroke-linecap: square"/>
   </g>
   <g id="patch_5">
    <path d="M 41.903125 309.890464 
L 705.403125 309.890464 
" style="fill: none; stroke: #000000; stroke-width: 0.8; stroke-linejoin: miter; stroke-linecap: square"/>
   </g>
   <g id="patch_6">
    <path d="M 41.903125 7.2 
L 705.403125 7.2 
" style="fill: none; stroke: #000000; stroke-width: 0.8; stroke-linejoin: miter; stroke-linecap: square"/>
   </g>
   <g id="legend_1">
    <g id="patch_7">
     <path d="M 48.203125 40.311563 
L 134.936406 40.311563 
Q 136.736406 40.311563 136.736406 38.511563 
L 136.736406 13.5 
Q 136.736406 11.7 134.936406 11.7 
L 48.203125 11.7 
Q 46.403125 11.7 46.403125 13.5 
L 46.403125 38.511563 
Q 46.403125 40.311563 48.203125 40.311563 
z
" style="fill: #ffffff; opacity: 0.8; stroke: #cccccc; stroke-linejoin: miter"/>
    </g>
    <g id="line2d_27">
     <path d="M 50.003125 19.340156 
L 59.003125 19.340156 
L 68.003125 19.340156 
" style="fill: none; stroke: #1a365d; stroke-width: 2; stroke-linecap: square"/>
     <g>
      <use xlink:href="#mc83c80c0ee" x="59.003125" y="19.340156" style="fill: #1a365d; stroke: #1a365d"/>
     </g>
    </g>
    <g id="text_13">
     <!-- 新增质押/抵押 -->
     <g transform="translate(75.203125 22.490156) scale(0.09 -0.09)">
      <defs>
       <path id="STHeiti-65b0" d="M 1888 4506 
Q 1792 4832 1696 5062 
L 2272 5178 
Q 2368 4762 2432 4506 
Q 3027 4525 3373 4570 
L 3373 4026 
Q 2880 4096 2025 4096 
Q 1171 4096 666 4026 
L 666 4570 
Q 1082 4512 1888 4506 
z
M 4269 3072 
L 5101 3072 
Q 5760 3072 6048 3149 
L 6048 2547 
Q 5760 2618 5370 2630 
L 5370 371 
Q 5370 -205 5421 -646 
L 4800 -646 
Q 4851 -186 4851 371 
L 4851 2630 
L 4269 2630 
Q 4256 1491 4080 755 
Q 3904 19 3501 -582 
Q 3322 -422 2918 -320 
Q 3462 218 3622 1123 
Q 3782 2029 3782 3379 
Q 3782 4128 3731 4678 
Q 4115 4659 4652 4761 
Q 5190 4864 5638 5043 
Q 5702 4902 5801 4748 
Q 5901 4595 5971 4531 
Q 6042 4467 6042 4435 
Q 6042 4403 5997 4403 
Q 5952 4403 5891 4416 
Q 5830 4429 5760 4429 
Q 5645 4429 5072 4358 
Q 4499 4288 4269 4282 
L 4269 3072 
z
M 1779 3309 
L 1267 3123 
Q 1171 3539 998 3763 
L 1478 3949 
Q 1587 3661 1779 3309 
z
M 2522 3053 
Q 3021 3059 3424 3104 
L 3424 2592 
Q 3008 2650 2266 2656 
L 2266 2016 
Q 2874 2022 3341 2074 
L 3341 1542 
Q 2982 1600 2266 1600 
L 2266 154 
Q 2266 -96 2211 -211 
Q 2157 -326 1974 -393 
Q 1792 -461 1363 -531 
Q 1350 -198 1139 77 
Q 1402 32 1539 32 
Q 1677 32 1734 128 
Q 1792 224 1792 570 
L 1792 1606 
Q 1024 1600 563 1542 
L 563 2074 
Q 1030 2016 1792 2016 
L 1792 2656 
Q 896 2650 448 2592 
L 448 3104 
Q 1018 3040 2138 3046 
Q 2406 3565 2534 3942 
Q 2784 3776 3034 3712 
Q 3091 3699 3091 3667 
Q 3091 3635 3017 3603 
Q 2944 3571 2522 3053 
z
M 1062 1408 
Q 1408 1248 1507 1225 
Q 1606 1203 1606 1180 
Q 1606 1158 1520 1107 
Q 1434 1056 1206 707 
Q 979 358 774 -19 
Q 563 154 256 186 
Q 845 749 1062 1408 
z
M 3354 582 
L 2912 262 
Q 2701 762 2381 1088 
L 2758 1344 
Q 2970 1088 3354 582 
z
" transform="scale(0.015625)"/>
       <path id="STHeiti-589e" d="M 4333 4275 
Q 4608 4787 4742 5325 
Q 4883 5254 5052 5196 
Q 5222 5139 5267 5136 
Q 5312 5133 5312 5110 
Q 5312 5088 5274 5056 
Q 5152 4954 4787 4275 
Q 5555 4282 5888 4333 
Q 5850 3994 5850 3254 
Q 5850 2515 5894 2080 
Q 5370 2131 4160 2131 
Q 2950 2131 2394 2086 
Q 2432 2547 2432 3235 
Q 2432 3923 2394 4333 
Q 2816 4275 4333 4275 
z
M 4301 2496 
L 5440 2496 
L 5440 3923 
L 4301 3923 
L 4301 2496 
z
M 4691 3648 
Q 4973 3590 5158 3590 
Q 5210 3590 5210 3568 
Q 5210 3546 5178 3514 
Q 5146 3482 5066 3264 
Q 4986 3046 4909 2771 
Q 4762 2822 4550 2810 
Q 4646 3117 4691 3648 
z
M 3878 3923 
L 2861 3923 
L 2861 2496 
L 3878 2496 
L 3878 3923 
z
M 3603 2803 
L 3213 2771 
Q 3213 3219 3142 3571 
L 3514 3610 
Q 3552 3334 3603 2803 
z
M 3904 4474 
L 3347 4307 
Q 3245 4710 3027 5050 
L 3558 5203 
Q 3802 4704 3904 4474 
z
M 1523 1120 
Q 1933 1248 2285 1389 
Q 2234 1254 2234 1132 
Q 2234 1011 2266 883 
Q 1414 659 493 154 
Q 403 531 256 832 
Q 653 890 1030 986 
L 1030 2944 
Q 602 2938 339 2886 
L 339 3469 
Q 608 3418 1030 3411 
Q 1030 4691 986 5037 
Q 1216 5011 1632 5011 
Q 1709 5011 1709 4979 
Q 1709 4947 1664 4908 
Q 1619 4870 1571 4716 
Q 1523 4563 1523 4442 
L 1523 3418 
Q 1843 3424 2099 3469 
L 2099 2886 
Q 1843 2931 1523 2938 
L 1523 1120 
z
M 3200 -198 
L 3200 -614 
L 2662 -614 
Q 2707 -301 2707 19 
L 2707 1075 
Q 2707 1574 2662 1792 
Q 3046 1741 4211 1741 
Q 5376 1741 5632 1792 
Q 5594 1542 5594 1075 
L 5594 141 
Q 5594 -250 5632 -544 
L 5107 -544 
L 5107 -198 
L 3200 -198 
z
M 5107 966 
L 5107 1421 
L 3200 1421 
L 3200 966 
L 5107 966 
z
M 3200 646 
L 3200 115 
L 5107 115 
L 5107 646 
L 3200 646 
z
" transform="scale(0.015625)"/>
       <path id="STHeiti-8d28" d="M 1594 3238 
Q 1581 1926 1424 1145 
Q 1267 365 896 -320 
Q 640 -134 314 -96 
Q 768 467 928 1318 
Q 1088 2170 1088 3475 
Q 1088 4326 1069 4787 
Q 1293 4762 1651 4762 
Q 2490 4762 3635 4890 
Q 4781 5018 5216 5178 
Q 5254 5050 5331 4867 
Q 5408 4685 5456 4627 
Q 5504 4570 5504 4525 
Q 5504 4480 5449 4480 
Q 5395 4480 5334 4502 
Q 5274 4525 4957 4525 
Q 4640 4525 3872 4442 
L 3846 3693 
Q 5491 3693 5952 3750 
L 5952 3181 
Q 5498 3238 3827 3238 
L 3802 2573 
Q 4966 2573 5357 2630 
Q 5331 2483 5331 2182 
L 5331 1389 
Q 5331 1056 5357 826 
L 4819 826 
L 4819 2170 
L 2637 2170 
L 2637 710 
L 2093 710 
Q 2125 922 2125 1267 
L 2125 2182 
Q 2125 2451 2106 2618 
Q 2451 2586 3309 2573 
L 3334 3238 
L 1594 3238 
z
M 3379 4403 
Q 2086 4339 1606 4346 
Q 1613 4122 1606 3693 
L 3354 3693 
L 3379 4403 
z
M 3386 1805 
Q 3520 1766 4038 1766 
Q 4109 1766 4109 1731 
Q 4109 1696 4070 1645 
Q 4000 1549 3952 1187 
Q 3904 826 3715 442 
Q 3526 58 2982 -246 
Q 2438 -550 1850 -640 
Q 1747 -378 1459 -154 
Q 2112 -128 2611 93 
Q 3110 314 3260 598 
Q 3411 883 3411 1370 
Q 3411 1574 3386 1805 
z
M 5920 -154 
L 5498 -640 
Q 4979 -128 3987 371 
L 4262 755 
Q 5062 378 5920 -154 
z
" transform="scale(0.015625)"/>
       <path id="STHeiti-62bc" d="M 1203 2208 
L 1203 3450 
Q 717 3437 442 3392 
L 442 3917 
Q 672 3878 1203 3866 
Q 1203 4864 1133 5242 
Q 1402 5190 1581 5190 
L 1747 5197 
Q 1850 5197 1850 5155 
Q 1850 5114 1770 5030 
Q 1690 4947 1690 4806 
L 1690 3866 
Q 2202 3878 2406 3917 
L 2406 3392 
Q 2202 3430 1690 3443 
L 1690 2355 
Q 2099 2496 2362 2611 
Q 2323 2438 2323 2329 
Q 2323 2221 2362 2093 
Q 2106 2029 1690 1888 
L 1690 83 
Q 1690 -134 1635 -227 
Q 1581 -320 1401 -374 
Q 1222 -429 736 -518 
Q 723 -205 506 102 
Q 710 83 873 83 
Q 1037 83 1120 137 
Q 1203 192 1203 358 
L 1203 1722 
Q 762 1555 474 1395 
Q 448 1709 358 2029 
Q 819 2106 1203 2208 
z
M 3955 1357 
L 3066 1357 
L 3066 896 
L 2573 896 
Q 2592 1229 2592 1984 
L 2592 4282 
Q 2592 4704 2573 4858 
Q 2675 4826 4204 4826 
Q 5734 4826 5830 4858 
Q 5805 4634 5805 4282 
L 5805 2112 
Q 5805 1722 5830 1024 
L 5344 1024 
L 5344 1357 
L 4422 1357 
Q 4422 467 4486 -634 
L 3891 -634 
Q 3955 467 3955 1357 
z
M 3955 3264 
L 3955 4390 
L 3066 4390 
L 3066 3264 
L 3955 3264 
z
M 4422 4390 
L 4422 3264 
L 5344 3264 
L 5344 4390 
L 4422 4390 
z
M 4422 1766 
L 5344 1766 
L 5344 2848 
L 4422 2848 
L 4422 1766 
z
M 3066 1766 
L 3955 1766 
L 3955 2848 
L 3066 2848 
L 3066 1766 
z
" transform="scale(0.015625)"/>
       <path id="STHeiti-2f" d="M 2611 5094 
L 704 -243 
L 224 -243 
L 2131 5094 
L 2611 5094 
z
" transform="scale(0.015625)"/>
       <path id="STHeiti-62b5" d="M 1139 2131 
L 1139 3373 
Q 640 3360 371 3315 
L 371 3846 
Q 595 3808 1139 3795 
Q 1139 4858 1069 5139 
Q 1242 5101 1677 5101 
Q 1824 5101 1824 5053 
Q 1824 5005 1766 4953 
Q 1709 4902 1680 4812 
Q 1651 4723 1651 4640 
L 1651 3795 
Q 2035 3802 2298 3846 
L 2298 3315 
Q 2035 3360 1651 3366 
L 1651 2330 
Q 1971 2458 2189 2573 
L 2246 2067 
Q 1933 1958 1651 1843 
L 1651 154 
Q 1651 -128 1600 -240 
Q 1549 -352 1360 -416 
Q 1171 -480 678 -563 
Q 627 -256 435 102 
Q 608 90 777 90 
Q 947 90 1043 147 
Q 1139 205 1139 397 
L 1139 1626 
Q 736 1453 403 1254 
L 314 1882 
Q 666 1965 1139 2131 
z
M 4525 2842 
Q 5594 2842 5914 2880 
L 5914 2355 
Q 5613 2394 4557 2394 
Q 4691 1312 4998 797 
Q 5306 282 5466 282 
Q 5626 282 5664 806 
Q 5882 582 6163 461 
Q 6016 -13 5865 -240 
Q 5715 -467 5536 -467 
Q 5222 -467 4729 253 
Q 4237 973 4058 2394 
L 3059 2394 
L 3059 627 
Q 3443 922 3667 1158 
Q 3667 870 3840 653 
L 3123 45 
Q 2816 -230 2630 -467 
Q 2496 -154 2246 70 
Q 2470 154 2524 278 
Q 2579 403 2579 819 
L 2579 3635 
Q 2579 4346 2528 4646 
Q 2739 4634 2976 4634 
Q 3597 4634 4240 4733 
Q 4883 4832 5370 5011 
Q 5568 4557 5670 4461 
Q 5709 4429 5709 4403 
Q 5709 4352 5619 4368 
Q 5530 4384 5293 4384 
Q 5056 4384 4538 4326 
Q 4512 3885 4512 3523 
Q 4512 3162 4525 2842 
z
M 3059 2842 
L 4019 2842 
Q 3994 3251 3994 3590 
Q 3994 3930 4013 4250 
Q 3341 4166 3059 4166 
L 3059 2842 
z
M 4422 -416 
L 3898 -506 
Q 3808 6 3725 358 
L 4250 448 
Q 4326 -58 4422 -416 
z
" transform="scale(0.015625)"/>
      </defs>
      <use xlink:href="#STHeiti-65b0"/>
      <use xlink:href="#STHeiti-589e" transform="translate(99.999985 0)"/>
      <use xlink:href="#STHeiti-8d28" transform="translate(199.999969 0)"/>
      <use xlink:href="#STHeiti-62bc" transform="translate(299.999954 0)"/>
      <use xlink:href="#STHeiti-2f" transform="translate(399.999939 0)"/>
      <use xlink:href="#STHeiti-62b5" transform="translate(443.699936 0)"/>
      <use xlink:href="#STHeiti-62bc" transform="translate(543.699921 0)"/>
     </g>
    </g>
    <g id="line2d_28">
     <path d="M 50.003125 32.355 
L 59.003125 32.355 
L 68.003125 32.355 
" style="fill: none; stroke: #d69e2e; stroke-width: 2; stroke-linecap: square"/>
     <g>
      <use xlink:href="#mbf488206ac" x="59.003125" y="32.355" style="fill: #d69e2e; stroke: #d69e2e"/>
     </g>
    </g>
    <g id="text_14">
     <!-- 金额（万元） -->
     <g transform="translate(75.203125 35.505) scale(0.09 -0.09)">
      <defs>
       <path id="STHeiti-91d1" d="M 3386 4947 
Q 4038 4243 4636 3878 
Q 5235 3514 6138 3302 
Q 6042 3213 5958 3024 
Q 5875 2835 5869 2688 
Q 4192 3251 3123 4698 
Q 2586 3968 1632 3187 
Q 2182 3142 3200 3142 
Q 4218 3142 4736 3194 
L 4736 2662 
Q 4314 2694 3405 2707 
L 3405 1920 
Q 4768 1920 5261 1958 
L 5261 1440 
Q 4768 1478 3405 1478 
L 3405 154 
L 4006 147 
Q 4288 787 4371 1299 
Q 4736 1146 4922 1094 
Q 4979 1075 4979 1024 
Q 4979 973 4934 954 
Q 4826 902 4390 147 
Q 5094 154 5632 211 
L 5632 -390 
Q 4525 -320 3024 -320 
Q 1523 -320 646 -384 
L 646 218 
Q 1472 154 2886 154 
L 2886 1478 
Q 1638 1478 1005 1434 
L 1005 1965 
Q 1664 1920 2886 1920 
L 2886 2707 
Q 1990 2707 1574 2662 
L 1574 3142 
Q 1037 2720 678 2528 
Q 570 2797 275 2925 
Q 742 3130 1184 3469 
Q 1626 3808 1984 4173 
Q 2342 4538 2505 4787 
Q 2669 5037 2778 5306 
Q 3219 5126 3360 5107 
Q 3501 5088 3501 5040 
Q 3501 4992 3386 4947 
z
M 2234 525 
L 1709 275 
Q 1491 774 1286 1037 
L 1805 1261 
Q 2080 832 2234 525 
z
" transform="scale(0.015625)"/>
       <path id="STHeiti-989d" d="M 2182 4538 
Q 2733 4538 3168 4570 
L 3168 3763 
L 2707 3763 
L 2707 4134 
L 902 4134 
L 902 3546 
L 461 3546 
L 461 4563 
Q 858 4538 1619 4538 
Q 1549 4826 1459 5011 
L 1990 5126 
Q 2106 4826 2182 4538 
z
M 4288 4384 
Q 3680 4378 3366 4333 
L 3366 4851 
Q 3763 4800 4643 4800 
Q 5523 4800 5920 4851 
L 5920 4333 
Q 5555 4384 4781 4384 
Q 4653 3898 4614 3642 
Q 5440 3642 5766 3667 
Q 5754 3571 5754 2899 
L 5754 1830 
Q 5754 1254 5779 1030 
L 5267 1030 
L 5267 3219 
L 3866 3219 
L 3866 915 
L 3379 915 
Q 3405 1152 3405 1715 
L 3405 2899 
Q 3405 3590 3398 3667 
Q 3642 3654 4166 3642 
Q 4243 4019 4288 4384 
z
M 2336 19 
L 1370 19 
L 1370 -570 
L 883 -570 
Q 947 -154 947 224 
L 947 1210 
Q 806 1107 659 1024 
Q 518 1203 307 1376 
Q 1037 1670 1619 2234 
Q 1376 2349 1120 2464 
L 1382 2778 
Q 1664 2650 1894 2541 
Q 2118 2803 2291 3053 
L 1357 3053 
Q 1107 2707 730 2336 
Q 550 2496 301 2579 
Q 1037 3162 1402 3968 
Q 1677 3834 1808 3824 
Q 1939 3814 1939 3772 
Q 1939 3731 1859 3686 
Q 1779 3642 1638 3443 
L 2266 3443 
Q 2771 3443 3040 3462 
Q 2694 2810 2291 2355 
Q 2714 2150 3245 1869 
L 2957 1459 
Q 2586 1741 1990 2048 
Q 1651 1728 1286 1453 
L 2042 1453 
Q 2560 1453 2771 1478 
Q 2752 1325 2752 998 
L 2752 442 
Q 2752 0 2803 -358 
L 2336 -358 
L 2336 19 
z
M 1370 390 
L 2336 390 
L 2336 1082 
L 1370 1082 
L 1370 390 
z
M 4307 2957 
Q 4570 2925 4755 2925 
L 4870 2931 
Q 4909 2931 4909 2912 
Q 4909 2893 4877 2867 
Q 4806 2816 4806 2643 
Q 4806 2285 4739 1440 
Q 4672 595 4243 89 
Q 3814 -416 3251 -627 
Q 3123 -442 2867 -269 
Q 3181 -154 3469 41 
Q 3757 237 3958 499 
Q 4160 762 4243 1062 
Q 4326 1363 4326 2246 
Q 4326 2630 4307 2957 
z
M 6138 -134 
L 5734 -531 
Q 5158 77 4653 454 
L 4992 794 
Q 5587 378 6138 -134 
z
" transform="scale(0.015625)"/>
       <path id="STHeiti-ff08" d="M 5651 -749 
L 5274 -749 
Q 4646 173 4409 835 
Q 4173 1498 4173 2266 
Q 4173 3034 4432 3750 
Q 4691 4467 5254 5267 
L 5645 5267 
Q 5082 4237 4928 3606 
Q 4774 2976 4774 2093 
Q 4774 1472 4953 861 
Q 5133 250 5651 -749 
z
" transform="scale(0.015625)"/>
       <path id="STHeiti-4e07" d="M 2304 4102 
Q 1312 4096 678 4026 
L 678 4659 
Q 960 4614 3107 4614 
Q 5254 4614 5946 4666 
L 5946 4026 
Q 5274 4102 4128 4102 
L 2918 4102 
Q 2918 3501 2880 3104 
L 4301 3104 
Q 4890 3104 5254 3168 
Q 5222 3053 5216 2925 
L 5082 922 
Q 5050 422 4944 195 
Q 4838 -32 4566 -134 
Q 4294 -237 3686 -288 
Q 3648 19 3347 410 
Q 3648 390 3885 390 
Q 4122 390 4262 473 
Q 4403 557 4457 765 
Q 4512 973 4544 1453 
L 4627 2611 
L 2835 2611 
Q 2714 1453 2304 829 
Q 1894 205 947 -384 
Q 774 -51 435 147 
Q 1229 429 1645 937 
Q 2061 1446 2185 2262 
Q 2310 3078 2310 3802 
Q 2310 3968 2304 4102 
z
" transform="scale(0.015625)"/>
       <path id="STHeiti-5143" d="M 5139 4269 
Q 4435 4320 3200 4320 
Q 1965 4320 1242 4269 
L 1242 4877 
Q 1920 4819 3251 4819 
Q 4582 4819 5139 4877 
L 5139 4269 
z
M 2765 2739 
Q 2790 1485 2425 787 
Q 2061 90 1011 -570 
Q 813 -230 506 -45 
Q 1459 326 1833 912 
Q 2208 1498 2182 2739 
Q 1018 2739 666 2694 
L 666 3277 
Q 1299 3232 3200 3232 
Q 5101 3232 5715 3277 
L 5715 2694 
Q 5094 2739 4102 2739 
L 4102 570 
Q 4102 326 4249 300 
Q 4397 275 4723 275 
Q 5050 275 5197 342 
Q 5344 410 5424 586 
Q 5504 762 5587 1171 
Q 5837 864 6150 813 
Q 6010 307 5869 92 
Q 5728 -122 5481 -192 
Q 5235 -262 4713 -262 
Q 4192 -262 3945 -204 
Q 3699 -147 3616 -16 
Q 3533 115 3533 390 
L 3533 2739 
L 2765 2739 
z
" transform="scale(0.015625)"/>
       <path id="STHeiti-ff09" d="M 1120 5267 
Q 1747 4346 1984 3683 
Q 2221 3021 2221 2253 
Q 2221 1485 1961 768 
Q 1702 51 1139 -749 
L 749 -749 
Q 1312 282 1465 912 
Q 1619 1542 1619 2426 
Q 1619 3046 1440 3657 
Q 1261 4269 742 5267 
L 1120 5267 
z
" transform="scale(0.015625)"/>
      </defs>
      <use xlink:href="#STHeiti-91d1"/>
      <use xlink:href="#STHeiti-989d" transform="translate(99.999985 0)"/>
      <use xlink:href="#STHeiti-ff08" transform="translate(199.999969 0)"/>
      <use xlink:href="#STHeiti-4e07" transform="translate(299.999954 0)"/>
      <use xlink:href="#STHeiti-5143" transform="translate(399.999939 0)"/>
      <use xlink:href="#STHeiti-ff09" transform="translate(499.999924 0)"/>
     </g>
    </g>
   </g>
  </g>
 </g>
 <defs>
  <clipPath id="p648f8ca29e">
   <rect x="41.903125" y="7.2" width="663.5" height="302.690464"/>
  </clipPath>
 </defs>
</svg>
