<?xml version="1.0" encoding="utf-8" standalone="no"?>
<!DOCTYPE svg PUBLIC "-//W3C//DTD SVG 1.1//EN"
  "http://www.w3.org/Graphics/SVG/1.1/DTD/svg11.dtd">
<svg xmlns:xlink="http://www.w3.org/1999/xlink" width="710.022667pt" height="352.349586pt" viewBox="0 0 710.022667 352.349586" xmlns="http://www.w3.org/2000/svg" version="1.1">
 <metadata>
  <rdf:RDF xmlns:dc="http://purl.org/dc/elements/1.1/" xmlns:cc="http://creativecommons.org/ns#" xmlns:rdf="http://www.w3.org/1999/02/22-rdf-syntax-ns#">
   <cc:Work>
    <dc:type rdf:resource="http://purl.org/dc/dcmitype/StillImage"/>
    <dc:date>2026-06-05T11:44:46.587838</dc:date>
    <dc:format>image/svg+xml</dc:format>
    <dc:creator>
     <cc:Agent>
      <dc:title>Matplotlib v3.10.9, https://matplotlib.org/</dc:title>
     </cc:Agent>
    </dc:creator>
   </cc:Work>
  </rdf:RDF>
 </metadata>
 <defs>
  <style type="text/css">*{stroke-linejoin: round; stroke-linecap: butt}</style>
 </defs>
 <g id="figure_1">
  <g id="patch_1">
   <path d="M 0 352.349586 
L 710.022667 352.349586 
L 710.022667 0 
L 0 0 
z
" style="fill: #ffffff"/>
  </g>
  <g id="axes_1">
   <g id="patch_2">
    <path d="M 87.918156 269.930464 
L 702.822667 269.930464 
L 702.822667 7.2 
L 87.918156 7.2 
z
" style="fill: #fafafa"/>
   </g>
   <g id="matplotlib.axis_1">
    <g id="xtick_1">
     <g id="line2d_1">
      <path d="M 115.868361 269.930464 
L 115.868361 7.2 
" clip-path="url(#p5759f8831b)" style="fill: none; stroke: #b0b0b0; stroke-opacity: 0.3; stroke-width: 0.8; stroke-linecap: square"/>
     </g>
     <g id="line2d_2">
      <defs>
       <path id="m9f1bbadeba" d="M 0 0 
L 0 3.5 
" style="stroke: #000000; stroke-width: 0.8"/>
      </defs>
      <g>
       <use xlink:href="#m9f1bbadeba" x="115.868361" y="269.930464" style="stroke: #000000; stroke-width: 0.8"/>
      </g>
     </g>
     <g id="text_1">
      <!-- 每百万辆电动自行车火灾数 -->
      <g transform="translate(11.275 343.988571) rotate(-30) scale(0.1 -0.1)">
       <defs>
        <path id="STHeiti-6bcf" d="M 1830 4109 
Q 1517 3648 845 2912 
Q 512 3174 339 3232 
Q 1472 4179 1843 5299 
Q 1946 5216 2170 5129 
Q 2394 5043 2486 5033 
Q 2579 5024 2579 4979 
Q 2579 4934 2480 4905 
Q 2381 4877 2138 4570 
L 4864 4576 
Q 5261 4576 5798 4621 
L 5798 4083 
Q 5594 4109 4864 4109 
L 1830 4109 
z
M 1440 2176 
L 1536 3648 
Q 2272 3616 3501 3616 
Q 4730 3616 5248 3654 
L 5210 2176 
Q 5805 2182 6086 2221 
L 6086 1709 
Q 5862 1741 5197 1741 
L 5165 659 
Q 5587 666 5766 710 
L 5766 179 
Q 5638 205 5152 211 
Q 5139 -275 4956 -432 
Q 4774 -589 4051 -659 
Q 4006 -339 3814 -64 
Q 4045 -77 4227 -77 
Q 4410 -77 4496 -9 
Q 4582 58 4608 211 
L 2752 211 
Q 1773 211 1312 192 
L 1414 1741 
Q 608 1741 339 1715 
L 339 2221 
Q 557 2189 1440 2176 
z
M 1946 2176 
L 4678 2176 
L 4704 3181 
L 2010 3181 
L 1946 2176 
z
M 3853 2534 
L 3398 2202 
Q 3142 2534 2803 2822 
L 3232 3117 
Q 3590 2816 3853 2534 
z
M 4666 1741 
L 1920 1741 
L 1856 653 
L 4634 653 
L 4666 1741 
z
M 3699 1082 
L 3309 730 
Q 3027 1094 2656 1376 
L 3091 1677 
Q 3424 1395 3699 1082 
z
" transform="scale(0.015625)"/>
        <path id="STHeiti-767e" d="M 2861 4256 
Q 1478 4250 538 4186 
L 538 4768 
Q 1478 4704 3270 4704 
Q 5062 4704 5978 4768 
L 5978 4186 
Q 5165 4250 3488 4256 
Q 3360 3693 3213 3270 
Q 4333 3270 5235 3302 
Q 5184 3066 5184 2342 
L 5184 461 
Q 5184 -109 5235 -486 
L 4608 -486 
L 4608 6 
L 1875 6 
L 1875 -634 
L 1248 -634 
Q 1299 -333 1299 301 
L 1299 2368 
Q 1299 2938 1248 3315 
L 2714 3270 
Q 2829 3706 2861 4256 
z
M 4608 1926 
L 4608 2829 
L 1875 2829 
L 1875 1926 
L 4608 1926 
z
M 1875 1472 
L 1875 467 
L 4608 467 
L 4608 1472 
L 1875 1472 
z
" transform="scale(0.015625)"/>
        <path id="STHeiti-4e07" d="M 2304 4102 
Q 1312 4096 678 4026 
L 678 4659 
Q 960 4614 3107 4614 
Q 5254 4614 5946 4666 
L 5946 4026 
Q 5274 4102 4128 4102 
L 2918 4102 
Q 2918 3501 2880 3104 
L 4301 3104 
Q 4890 3104 5254 3168 
Q 5222 3053 5216 2925 
L 5082 922 
Q 5050 422 4944 195 
Q 4838 -32 4566 -134 
Q 4294 -237 3686 -288 
Q 3648 19 3347 410 
Q 3648 390 3885 390 
Q 4122 390 4262 473 
Q 4403 557 4457 765 
Q 4512 973 4544 1453 
L 4627 2611 
L 2835 2611 
Q 2714 1453 2304 829 
Q 1894 205 947 -384 
Q 774 -51 435 147 
Q 1229 429 1645 937 
Q 2061 1446 2185 2262 
Q 2310 3078 2310 3802 
Q 2310 3968 2304 4102 
z
" transform="scale(0.015625)"/>
        <path id="STHeiti-8f86" d="M 1376 2496 
Q 1376 3232 1344 3456 
Q 1613 3411 1862 3411 
Q 1933 3411 1933 3376 
Q 1933 3341 1872 3315 
Q 1811 3290 1811 3155 
L 1811 2496 
Q 2221 2502 2349 2547 
L 2349 2029 
Q 2067 2054 1811 2054 
L 1811 1363 
Q 2221 1472 2413 1568 
Q 2394 1440 2394 1302 
Q 2394 1165 2406 1069 
L 1811 922 
Q 1811 109 1850 -576 
L 1318 -576 
Q 1376 77 1376 813 
Q 576 608 410 525 
Q 384 902 256 1126 
Q 512 1107 1376 1274 
L 1376 2048 
Q 646 2035 416 1971 
Q 410 2227 339 2509 
Q 576 2733 864 3872 
Q 614 3866 429 3834 
L 429 4346 
Q 653 4314 966 4307 
Q 1094 4870 1114 5229 
Q 1555 5094 1667 5084 
Q 1779 5075 1779 5049 
Q 1779 5024 1708 4979 
Q 1638 4934 1434 4301 
Q 2022 4301 2310 4346 
L 2310 3834 
Q 1984 3878 1299 3878 
L 864 2496 
L 1376 2496 
z
M 3469 4326 
Q 2688 4320 2432 4269 
L 2432 4800 
Q 2797 4742 4243 4742 
Q 5690 4742 5946 4800 
L 5946 4269 
Q 5555 4326 4864 4326 
Q 4864 3872 4845 3437 
Q 5638 3437 5773 3462 
Q 5754 3251 5754 2880 
L 5754 147 
Q 5754 -128 5696 -259 
Q 5638 -390 5465 -470 
Q 5293 -550 4896 -627 
Q 4864 -282 4672 -26 
Q 4851 -45 5011 -45 
Q 5171 -45 5232 32 
Q 5293 109 5293 326 
L 5293 1120 
L 5011 960 
Q 4883 1408 4691 1786 
Q 4557 909 4269 326 
Q 4032 410 3802 410 
Q 4288 1082 4416 3008 
L 3878 3008 
Q 3866 2669 3840 2381 
Q 4051 2042 4243 1651 
L 4006 1382 
L 3776 1862 
Q 3667 1139 3373 486 
Q 3194 570 3008 602 
L 3008 -512 
L 2534 -512 
Q 2566 -250 2566 64 
L 2566 2874 
Q 2566 3168 2547 3456 
Q 2803 3437 3494 3437 
Q 3494 3923 3469 4326 
z
M 4454 4326 
L 3891 4326 
Q 3898 3840 3891 3437 
L 4435 3437 
Q 4454 3853 4454 4326 
z
M 4826 3008 
Q 4806 2714 4762 2285 
Q 5101 1754 5293 1229 
L 5293 3008 
L 4826 3008 
z
M 3008 678 
Q 3398 1395 3482 3008 
L 3008 3008 
L 3008 678 
z
" transform="scale(0.015625)"/>
        <path id="STHeiti-7535" d="M 3232 4269 
Q 4602 4275 5222 4346 
Q 5178 4083 5178 3622 
L 5178 1843 
Q 5178 1325 5242 851 
L 4640 851 
L 4640 1235 
L 3232 1235 
L 3232 448 
Q 3232 307 3302 243 
Q 3373 179 3613 147 
Q 3853 115 4218 115 
Q 5229 115 5417 224 
Q 5606 333 5638 922 
Q 5811 531 6176 531 
Q 6042 64 5914 -86 
Q 5786 -237 5450 -285 
Q 5114 -333 4378 -333 
Q 3642 -333 3277 -285 
Q 2912 -237 2809 -134 
Q 2707 -32 2707 205 
L 2707 1235 
L 1370 1235 
L 1370 582 
L 781 582 
Q 851 1024 851 1638 
L 851 3622 
Q 851 4045 806 4346 
Q 1440 4275 2707 4269 
Q 2707 4947 2637 5267 
Q 2912 5229 3334 5229 
Q 3437 5229 3437 5174 
Q 3437 5120 3373 5094 
Q 3309 5069 3270 4998 
Q 3232 4928 3232 4870 
L 3232 4269 
z
M 2707 3808 
L 1370 3808 
L 1370 2963 
L 2707 2963 
L 2707 3808 
z
M 4640 2963 
L 4640 3808 
L 3232 3808 
L 3232 2963 
L 4640 2963 
z
M 1370 2534 
L 1370 1670 
L 2707 1670 
L 2707 2534 
L 1370 2534 
z
M 4640 1670 
L 4640 2534 
L 3232 2534 
L 3232 1670 
L 4640 1670 
z
" transform="scale(0.015625)"/>
        <path id="STHeiti-52a8" d="M 3994 3917 
Q 4006 4192 4006 4569 
Q 4006 4947 3955 5222 
Q 4288 5133 4627 5133 
Q 4736 5133 4736 5101 
Q 4736 5069 4672 4998 
Q 4608 4928 4566 4707 
Q 4525 4486 4493 3923 
Q 5523 3955 5939 4026 
Q 5856 3706 5837 3245 
L 5728 806 
Q 5702 294 5616 51 
Q 5530 -192 5312 -304 
Q 5094 -416 4614 -493 
Q 4550 -109 4262 205 
Q 4486 186 4713 186 
Q 4941 186 5062 278 
Q 5184 371 5197 627 
L 5363 3501 
L 4467 3501 
Q 4378 1638 4058 896 
Q 3738 154 2784 -557 
Q 2586 -294 2163 -173 
Q 3187 346 3523 954 
Q 3859 1562 3968 3494 
Q 3392 3475 2874 3411 
L 2874 3962 
Q 3245 3917 3994 3917 
z
M 2803 3994 
Q 2426 4045 1712 4045 
Q 998 4045 698 3994 
L 698 4557 
Q 986 4499 1712 4499 
Q 2438 4499 2803 4550 
L 2803 3994 
z
M 1350 2682 
Q 614 2662 358 2630 
L 358 3155 
Q 749 3098 1593 3098 
Q 2438 3098 2957 3149 
L 2957 2630 
Q 2470 2675 1907 2682 
Q 1363 1242 1126 890 
L 2445 1197 
Q 2266 1632 2138 1830 
L 2592 2042 
Q 2758 1581 3194 723 
L 2682 480 
Q 2656 602 2579 826 
Q 1030 448 659 141 
Q 570 461 384 768 
Q 595 851 723 1049 
Q 851 1248 1059 1789 
Q 1267 2330 1350 2682 
z
" transform="scale(0.015625)"/>
        <path id="STHeiti-81ea" d="M 1837 38 
L 1837 -602 
L 1222 -602 
Q 1280 -128 1280 435 
L 1280 3776 
Q 1280 4147 1254 4326 
Q 1498 4301 2426 4288 
Q 2592 4685 2675 5280 
Q 3110 5139 3392 5107 
Q 3475 5094 3475 5068 
Q 3475 5043 3398 4979 
Q 3283 4877 2950 4288 
L 3994 4288 
Q 4992 4288 5453 4326 
Q 5427 4166 5427 3776 
L 5427 435 
Q 5427 -38 5485 -499 
L 4851 -499 
L 4851 38 
L 1837 38 
z
M 4851 3040 
L 4851 3846 
L 1837 3846 
L 1837 3040 
L 4851 3040 
z
M 4851 1824 
L 4851 2598 
L 1837 2598 
L 1837 1824 
L 4851 1824 
z
M 4851 512 
L 4851 1389 
L 1837 1389 
L 1837 512 
L 4851 512 
z
" transform="scale(0.015625)"/>
        <path id="STHeiti-884c" d="M 1677 5184 
Q 1997 4915 2240 4813 
Q 2323 4774 2323 4736 
Q 2323 4698 2227 4678 
Q 2061 4640 1737 4246 
Q 1414 3853 800 3290 
Q 672 3501 410 3648 
Q 800 3917 1177 4409 
Q 1555 4902 1677 5184 
z
M 5658 4160 
Q 5184 4218 4329 4218 
Q 3475 4218 3002 4160 
L 3002 4749 
Q 3411 4698 4329 4698 
Q 5248 4698 5658 4749 
L 5658 4160 
z
M 1747 2560 
L 1747 -576 
L 1158 -576 
Q 1216 -51 1216 454 
L 1216 1894 
Q 1050 1702 653 1280 
Q 544 1523 282 1760 
Q 1203 2458 1824 3699 
Q 2042 3520 2362 3347 
Q 2445 3302 2445 3267 
Q 2445 3232 2371 3216 
Q 2298 3200 2134 3030 
Q 1971 2861 1747 2560 
z
M 4934 2566 
L 4934 128 
Q 4934 -141 4844 -278 
Q 4755 -416 4489 -486 
Q 4224 -557 3680 -582 
Q 3661 -301 3379 90 
Q 3661 51 3866 51 
Q 4378 51 4378 326 
L 4378 2573 
Q 3251 2573 2630 2515 
L 2630 3104 
Q 3181 3053 4355 3053 
Q 5530 3053 6067 3104 
L 6067 2515 
Q 5638 2560 4934 2566 
z
" transform="scale(0.015625)"/>
        <path id="STHeiti-8f66" d="M 3130 2464 
Q 3130 3245 3059 3373 
Q 3238 3334 3718 3334 
Q 3834 3334 3834 3292 
Q 3834 3251 3754 3206 
Q 3674 3162 3674 2720 
L 3674 2464 
Q 4806 2464 5389 2522 
L 5389 1978 
Q 4973 2022 3674 2022 
L 3674 1050 
Q 5069 1056 5914 1107 
L 5914 557 
Q 5069 608 3674 614 
Q 3674 -403 3725 -685 
L 3085 -685 
Q 3130 -518 3130 614 
Q 1466 614 538 557 
L 538 1107 
Q 1472 1050 3130 1050 
L 3130 2022 
Q 1709 2016 1178 1914 
Q 1133 2189 954 2451 
Q 1254 2522 1500 2835 
Q 1747 3149 2112 3770 
Q 1216 3770 614 3712 
L 614 4282 
Q 1152 4224 2368 4224 
Q 2650 4730 2803 5261 
Q 3251 5056 3398 5017 
Q 3546 4979 3546 4947 
Q 3546 4915 3488 4889 
Q 3430 4864 3286 4685 
Q 3142 4506 2963 4224 
L 4538 4224 
Q 5235 4224 5856 4282 
L 5856 3712 
Q 5235 3770 4538 3770 
L 2688 3770 
Q 2189 2957 1786 2464 
L 3130 2464 
z
" transform="scale(0.015625)"/>
        <path id="STHeiti-706b" d="M 3290 2349 
Q 3117 1466 2589 816 
Q 2061 166 973 -467 
Q 736 -166 454 0 
Q 992 269 1395 544 
Q 1798 819 2089 1126 
Q 2381 1434 2563 1792 
Q 2746 2150 2826 2576 
Q 2906 3002 2906 3750 
Q 2906 4499 2810 5184 
Q 3149 5114 3539 5114 
Q 3610 5114 3610 5075 
Q 3610 5037 3558 4985 
Q 3507 4934 3456 4467 
Q 3405 4000 3405 3418 
Q 3405 3226 3581 2682 
Q 3757 2138 3923 1821 
Q 4090 1504 4301 1254 
Q 4512 1005 4777 819 
Q 5043 634 5363 499 
Q 5683 365 6074 282 
Q 5824 -6 5690 -410 
Q 4563 77 4022 688 
Q 3482 1299 3290 2349 
z
M 5024 4230 
Q 5325 4032 5613 3968 
Q 5715 3942 5715 3900 
Q 5715 3859 5619 3801 
Q 5523 3744 5376 3462 
L 4774 2368 
Q 4531 2534 4224 2560 
Q 4710 3187 5024 4230 
z
M 1818 3923 
Q 1798 3059 1619 2176 
L 1018 2304 
Q 1293 3110 1293 3738 
Q 1293 3853 1286 3968 
L 1818 3923 
z
" transform="scale(0.015625)"/>
        <path id="STHeiti-707e" d="M 3635 4666 
L 2995 4499 
Q 2906 4858 2726 5216 
L 3347 5389 
L 3635 4666 
z
M 5741 3142 
L 5184 3142 
L 5184 3987 
L 1190 3987 
L 1190 3066 
L 640 3066 
L 640 4506 
Q 1267 4448 3187 4448 
Q 5107 4448 5741 4506 
L 5741 3142 
z
M 3386 2797 
Q 3488 1690 4096 1075 
Q 4704 461 5971 211 
Q 5747 -26 5613 -480 
Q 4486 -51 3939 486 
Q 3392 1024 3206 1843 
Q 3046 1018 2476 416 
Q 1907 -186 832 -646 
Q 704 -320 378 -96 
Q 1459 307 1996 739 
Q 2534 1171 2704 1769 
Q 2874 2368 2874 2912 
Q 2874 3200 2829 3494 
Q 3200 3411 3539 3411 
Q 3622 3411 3622 3363 
Q 3622 3315 3561 3254 
Q 3501 3194 3386 2797 
z
M 4762 2912 
Q 5075 2707 5331 2637 
Q 5440 2611 5440 2569 
Q 5440 2528 5331 2467 
Q 5222 2406 5040 2131 
Q 4858 1856 4698 1504 
Q 4467 1690 4141 1728 
Q 4518 2157 4762 2912 
z
M 1869 2752 
Q 1786 2054 1600 1478 
L 947 1562 
Q 1331 2029 1318 2810 
L 1869 2752 
z
" transform="scale(0.015625)"/>
        <path id="STHeiti-6570" d="M 4640 480 
Q 4173 -51 3194 -467 
Q 3059 -237 2803 -26 
Q 3238 70 3673 323 
Q 4109 576 4365 890 
Q 3994 1549 3962 2835 
Q 3744 2458 3520 2176 
Q 3366 2419 3206 2522 
Q 3584 3040 3837 3747 
Q 4090 4454 4147 5171 
Q 4486 5062 4800 5037 
Q 4877 5030 4877 4988 
Q 4877 4947 4781 4896 
Q 4704 4858 4480 4128 
L 5216 4128 
Q 5747 4128 6003 4179 
L 6003 3661 
Q 5850 3680 5562 3699 
Q 5440 1773 4934 896 
Q 5254 518 6112 250 
Q 5856 6 5754 -365 
Q 4902 141 4640 480 
z
M 4627 1363 
Q 5018 2253 5088 3706 
L 4352 3706 
Q 4237 3328 3981 2874 
L 4384 2886 
Q 4384 1907 4627 1363 
z
M 1549 3526 
Q 1222 3520 589 3488 
L 589 3942 
Q 1158 3898 1850 3898 
L 1850 4499 
Q 1850 4800 1786 5165 
Q 2042 5139 2362 5139 
Q 2458 5139 2458 5094 
Q 2458 5050 2406 5030 
Q 2355 5011 2336 4976 
Q 2317 4941 2317 4845 
L 2317 3898 
Q 2758 3904 3507 3942 
L 3507 3488 
Q 2810 3526 2317 3533 
Q 2317 2970 2362 2515 
L 1805 2515 
Q 1850 3034 1850 3456 
Q 1632 3014 1401 2745 
Q 1171 2477 755 2189 
Q 608 2406 282 2573 
Q 1030 2816 1549 3526 
z
M 2861 4922 
Q 3155 4826 3386 4794 
Q 3462 4781 3462 4755 
Q 3462 4730 3388 4701 
Q 3315 4672 3228 4521 
Q 3142 4371 3014 4122 
Q 2835 4166 2560 4186 
Q 2746 4461 2861 4922 
z
M 1510 4230 
L 973 4154 
Q 966 4461 883 4806 
L 1389 4870 
Q 1459 4595 1510 4230 
z
M 3360 2790 
L 3046 2477 
Q 2765 2816 2464 3078 
L 2790 3328 
Q 3034 3117 3360 2790 
z
M 2899 755 
Q 3168 666 3450 525 
Q 3251 314 3168 128 
Q 2886 288 2637 390 
Q 2394 128 1984 -51 
Q 1574 -230 781 -410 
Q 627 -115 346 109 
Q 1619 134 2157 557 
Q 1709 691 1030 781 
Q 1248 1165 1408 1555 
Q 800 1549 531 1504 
L 531 1965 
Q 858 1939 1536 1926 
Q 1600 2118 1696 2458 
Q 1946 2355 2214 2336 
Q 2342 2323 2342 2294 
Q 2342 2266 2243 2198 
Q 2144 2131 2035 1926 
L 2899 1926 
Q 3162 1926 3341 1971 
Q 3123 1158 2899 755 
z
M 1862 1555 
L 1626 1043 
Q 2118 966 2470 883 
Q 2662 1165 2726 1555 
L 1862 1555 
z
" transform="scale(0.015625)"/>
       </defs>
       <use xlink:href="#STHeiti-6bcf"/>
       <use xlink:href="#STHeiti-767e" transform="translate(99.999985 0)"/>
       <use xlink:href="#STHeiti-4e07" transform="translate(199.999969 0)"/>
       <use xlink:href="#STHeiti-8f86" transform="translate(299.999954 0)"/>
       <use xlink:href="#STHeiti-7535" transform="translate(399.999939 0)"/>
       <use xlink:href="#STHeiti-52a8" transform="translate(499.999924 0)"/>
       <use xlink:href="#STHeiti-81ea" transform="translate(599.999908 0)"/>
       <use xlink:href="#STHeiti-884c" transform="translate(699.999893 0)"/>
       <use xlink:href="#STHeiti-8f66" transform="translate(799.999878 0)"/>
       <use xlink:href="#STHeiti-706b" transform="translate(899.999863 0)"/>
       <use xlink:href="#STHeiti-707e" transform="translate(999.999847 0)"/>
       <use xlink:href="#STHeiti-6570" transform="translate(1099.999832 0)"/>
      </g>
     </g>
    </g>
    <g id="xtick_2">
     <g id="line2d_3">
      <path d="M 255.619386 269.930464 
L 255.619386 7.2 
" clip-path="url(#p5759f8831b)" style="fill: none; stroke: #b0b0b0; stroke-opacity: 0.3; stroke-width: 0.8; stroke-linecap: square"/>
     </g>
     <g id="line2d_4">
      <g>
       <use xlink:href="#m9f1bbadeba" x="255.619386" y="269.930464" style="stroke: #000000; stroke-width: 0.8"/>
      </g>
     </g>
     <g id="text_2">
      <!-- 伤亡人数同比 -->
      <g transform="translate(202.987549 313.866786) rotate(-30) scale(0.1 -0.1)">
       <defs>
        <path id="STHeiti-4f24" d="M 3200 3725 
Q 2829 3155 2470 2733 
Q 2285 2867 1965 2950 
Q 2957 3834 3322 5299 
Q 3469 5216 3661 5149 
Q 3853 5082 3949 5072 
Q 4045 5062 4045 5027 
Q 4045 4992 3990 4953 
Q 3936 4915 3789 4707 
Q 3642 4499 3469 4186 
L 4896 4186 
Q 5702 4186 5984 4237 
L 5984 3674 
Q 5702 3725 4902 3725 
L 3200 3725 
z
M 1088 2803 
Q 864 2394 576 1978 
Q 422 2253 205 2438 
Q 717 2982 1046 3766 
Q 1376 4550 1504 5165 
Q 1792 4992 2093 4947 
Q 2208 4934 2208 4883 
Q 2208 4832 2125 4771 
Q 2042 4710 1942 4524 
Q 1843 4339 1594 3795 
L 1594 -646 
L 1018 -646 
Q 1088 51 1088 730 
L 1088 2803 
z
M 4128 2547 
Q 5376 2547 5722 2605 
L 5472 198 
Q 5440 -102 5357 -243 
Q 5274 -384 5056 -457 
Q 4838 -531 4358 -595 
Q 4314 -237 4083 102 
Q 4422 58 4598 58 
Q 4774 58 4857 134 
Q 4941 211 4966 512 
L 5094 2093 
L 4070 2093 
Q 3936 1152 3577 547 
Q 3219 -58 2413 -659 
Q 2234 -378 1901 -230 
Q 2675 128 3049 653 
Q 3424 1178 3533 2093 
Q 2848 2093 2406 2035 
L 2406 2605 
Q 2752 2554 3578 2547 
Q 3603 2816 3603 2976 
Q 3603 3136 3565 3328 
Q 3744 3270 4000 3270 
L 4262 3283 
Q 4326 3283 4326 3251 
Q 4326 3219 4265 3164 
Q 4205 3110 4128 2547 
z
" transform="scale(0.015625)"/>
        <path id="STHeiti-4ea1" d="M 3853 4205 
L 3226 4026 
Q 3034 4653 2739 5120 
L 3341 5325 
Q 3578 4717 3853 4205 
z
M 1504 3360 
Q 806 3360 365 3328 
L 365 3917 
Q 960 3872 3251 3872 
Q 5542 3872 6016 3917 
L 6016 3328 
Q 5434 3366 4326 3366 
L 2093 3366 
L 2093 339 
L 3968 339 
Q 5318 339 5562 371 
L 5562 -218 
Q 5210 -186 3430 -186 
Q 1651 -186 1453 -218 
Q 1504 154 1504 768 
L 1504 3360 
z
" transform="scale(0.015625)"/>
        <path id="STHeiti-4eba" d="M 3238 2758 
Q 2893 1632 2339 896 
Q 1786 160 838 -410 
Q 634 -147 339 26 
Q 1229 486 1837 1219 
Q 2445 1952 2662 2723 
Q 2880 3494 2880 4307 
Q 2880 4666 2835 5075 
Q 3104 5043 3337 5040 
Q 3571 5037 3664 5037 
Q 3757 5037 3757 4995 
Q 3757 4954 3712 4922 
Q 3667 4890 3616 4749 
Q 3565 4608 3558 4506 
Q 3520 3981 3456 3603 
Q 3693 2202 4371 1411 
Q 5050 621 6125 269 
Q 5811 32 5651 -384 
Q 4781 70 4121 787 
Q 3462 1504 3238 2758 
z
" transform="scale(0.015625)"/>
        <path id="STHeiti-540c" d="M 5632 4922 
Q 5606 4646 5606 3597 
L 5606 262 
Q 5606 -198 5539 -297 
Q 5472 -397 5337 -451 
Q 5203 -506 4634 -589 
Q 4582 -186 4314 102 
Q 4608 83 4790 83 
Q 4973 83 5033 137 
Q 5094 192 5094 365 
L 5094 4326 
L 1491 4326 
L 1491 -403 
L 883 -403 
Q 973 550 973 1664 
L 973 3597 
Q 973 4653 947 4922 
Q 1491 4851 3388 4851 
Q 5286 4851 5632 4922 
z
M 4678 3142 
Q 4198 3206 3270 3206 
Q 2342 3206 1862 3142 
L 1862 3738 
Q 2323 3667 3270 3667 
Q 4218 3667 4678 3738 
L 4678 3142 
z
M 4346 736 
Q 4006 755 3184 755 
Q 2362 755 2182 742 
Q 2208 992 2208 1664 
Q 2208 2336 2182 2573 
Q 2483 2547 3264 2547 
Q 4045 2547 4346 2573 
Q 4326 2298 4326 1658 
Q 4326 1018 4346 736 
z
M 3827 1210 
L 3827 2112 
L 2701 2112 
L 2701 1210 
L 3827 1210 
z
" transform="scale(0.015625)"/>
        <path id="STHeiti-6bd4" d="M 4000 2291 
L 4000 467 
Q 4000 314 4041 253 
Q 4083 192 4217 173 
Q 4352 154 4681 154 
Q 5011 154 5142 205 
Q 5274 256 5354 438 
Q 5434 621 5555 1107 
Q 5773 826 6144 717 
Q 5971 198 5811 -22 
Q 5651 -243 5382 -316 
Q 5114 -390 4570 -390 
Q 4026 -390 3808 -329 
Q 3590 -269 3526 -99 
Q 3462 70 3462 461 
L 3462 4301 
Q 3462 4934 3424 5222 
Q 3712 5171 3869 5177 
Q 4026 5184 4096 5184 
Q 4166 5184 4166 5155 
Q 4166 5126 4105 5036 
Q 4045 4947 4022 4828 
Q 4000 4710 4000 4499 
L 4000 2842 
Q 4864 3386 5421 3936 
Q 5632 3610 5888 3443 
Q 5939 3411 5939 3379 
Q 5939 3347 5830 3318 
Q 5722 3290 5190 2998 
Q 4659 2707 4000 2291 
z
M 1485 2835 
L 1485 346 
L 2938 1286 
Q 2925 1203 2925 1114 
Q 2925 864 3034 691 
L 1715 -122 
Q 1344 -346 1139 -538 
Q 960 -192 749 -13 
Q 851 58 896 147 
Q 941 237 941 506 
L 941 3949 
Q 941 4768 915 5011 
Q 1126 4979 1286 4979 
L 1549 4979 
Q 1613 4979 1613 4950 
Q 1613 4922 1581 4870 
Q 1485 4730 1485 4224 
L 1485 3309 
Q 2368 3309 2970 3347 
L 2970 2790 
Q 2381 2829 1485 2835 
z
" transform="scale(0.015625)"/>
       </defs>
       <use xlink:href="#STHeiti-4f24"/>
       <use xlink:href="#STHeiti-4ea1" transform="translate(99.999985 0)"/>
       <use xlink:href="#STHeiti-4eba" transform="translate(199.999969 0)"/>
       <use xlink:href="#STHeiti-6570" transform="translate(299.999954 0)"/>
       <use xlink:href="#STHeiti-540c" transform="translate(399.999939 0)"/>
       <use xlink:href="#STHeiti-6bd4" transform="translate(499.999924 0)"/>
      </g>
     </g>
    </g>
    <g id="xtick_3">
     <g id="line2d_5">
      <path d="M 395.370411 269.930464 
L 395.370411 7.2 
" clip-path="url(#p5759f8831b)" style="fill: none; stroke: #b0b0b0; stroke-opacity: 0.3; stroke-width: 0.8; stroke-linecap: square"/>
     </g>
     <g id="line2d_6">
      <g>
       <use xlink:href="#m9f1bbadeba" x="395.370411" y="269.930464" style="stroke: #000000; stroke-width: 0.8"/>
      </g>
     </g>
     <g id="text_3">
      <!-- 2025年Q1火灾 -->
      <g transform="translate(337.185187 317.220531) rotate(-30) scale(0.1 -0.1)">
       <defs>
        <path id="STHeiti-32" d="M 742 3539 
L 301 3539 
Q 333 4243 768 4668 
Q 1203 5094 1820 5094 
Q 2438 5094 2844 4694 
Q 3251 4294 3251 3718 
Q 3251 3290 3024 2925 
Q 2797 2560 2336 2061 
L 1190 826 
L 3315 826 
L 3315 384 
L 192 384 
L 1946 2278 
Q 2406 2778 2604 3066 
Q 2803 3354 2803 3725 
Q 2803 4096 2512 4377 
Q 2221 4659 1789 4659 
Q 1357 4659 1072 4368 
Q 787 4077 742 3539 
z
" transform="scale(0.015625)"/>
        <path id="STHeiti-30" d="M 1747 269 
Q 1005 269 605 880 
Q 205 1491 205 2681 
Q 205 3872 605 4483 
Q 1005 5094 1741 5094 
Q 2477 5094 2909 4470 
Q 3341 3846 3341 2681 
Q 3341 1517 2905 893 
Q 2470 269 1747 269 
z
M 1760 4659 
Q 1229 4659 934 4147 
Q 640 3635 640 2669 
Q 640 685 1760 685 
Q 2304 685 2608 1206 
Q 2912 1728 2912 2681 
Q 2912 3635 2598 4147 
Q 2285 4659 1760 4659 
z
" transform="scale(0.015625)"/>
        <path id="STHeiti-35" d="M 3149 4979 
L 3149 4544 
L 1510 4544 
L 1280 3290 
Q 1587 3379 1856 3379 
Q 2458 3379 2861 2953 
Q 3264 2528 3264 1862 
Q 3264 1197 2825 733 
Q 2387 269 1664 269 
Q 1114 269 726 598 
Q 339 928 262 1498 
L 730 1498 
Q 813 1114 1075 909 
Q 1338 704 1683 704 
Q 2138 704 2467 1043 
Q 2797 1382 2797 1888 
Q 2797 2349 2509 2646 
Q 2221 2944 1757 2944 
Q 1293 2944 730 2701 
L 1158 4979 
L 3149 4979 
z
" transform="scale(0.015625)"/>
        <path id="STHeiti-5e74" d="M 2125 4346 
L 3738 4346 
Q 5107 4346 5696 4397 
L 5696 3827 
Q 5088 3878 3770 3878 
L 3770 2886 
Q 4819 2893 5395 2938 
L 5395 2406 
Q 4602 2451 3770 2458 
L 3770 1338 
Q 5658 1338 6080 1395 
L 6080 819 
Q 5709 870 3770 877 
Q 3770 -26 3821 -704 
L 3174 -704 
Q 3226 -19 3226 877 
Q 973 877 371 819 
L 371 1395 
Q 730 1357 1466 1344 
L 1466 2349 
Q 1466 2682 1421 2938 
Q 2093 2886 3226 2886 
L 3226 3878 
L 1862 3878 
Q 1510 3277 1120 2803 
Q 922 2938 563 3040 
Q 973 3430 1341 4028 
Q 1709 4627 1907 5216 
Q 2234 5088 2426 5043 
Q 2618 4998 2618 4966 
Q 2618 4934 2522 4886 
Q 2426 4838 2125 4346 
z
M 3226 2458 
L 1984 2458 
L 1984 1338 
L 3226 1338 
L 3226 2458 
z
" transform="scale(0.015625)"/>
        <path id="STHeiti-51" d="M 4416 883 
L 5094 19 
L 4531 19 
L 4064 614 
Q 3494 269 2822 269 
Q 1779 269 1072 963 
Q 365 1658 365 2662 
Q 365 3693 1049 4393 
Q 1734 5094 2784 5094 
Q 3443 5094 4003 4774 
Q 4563 4454 4883 3897 
Q 5203 3341 5203 2682 
Q 5203 1626 4416 883 
z
M 4134 1242 
Q 4730 1830 4730 2668 
Q 4730 3507 4154 4076 
Q 3578 4646 2778 4646 
Q 1978 4646 1411 4070 
Q 845 3494 845 2659 
Q 845 1824 1421 1270 
Q 1997 717 2790 717 
Q 3322 717 3776 979 
L 2752 2278 
L 3309 2278 
L 4134 1242 
z
" transform="scale(0.015625)"/>
        <path id="STHeiti-31" d="M 1184 4979 
L 2086 4979 
L 2086 384 
L 1632 384 
L 1632 4531 
L 909 4531 
L 1184 4979 
z
" transform="scale(0.015625)"/>
       </defs>
       <use xlink:href="#STHeiti-32"/>
       <use xlink:href="#STHeiti-30" transform="translate(55.399994 0)"/>
       <use xlink:href="#STHeiti-32" transform="translate(110.799988 0)"/>
       <use xlink:href="#STHeiti-35" transform="translate(166.199982 0)"/>
       <use xlink:href="#STHeiti-5e74" transform="translate(221.599976 0)"/>
       <use xlink:href="#STHeiti-51" transform="translate(321.59996 0)"/>
       <use xlink:href="#STHeiti-31" transform="translate(408.699951 0)"/>
       <use xlink:href="#STHeiti-706b" transform="translate(464.099945 0)"/>
       <use xlink:href="#STHeiti-707e" transform="translate(564.09993 0)"/>
      </g>
     </g>
    </g>
    <g id="xtick_4">
     <g id="line2d_7">
      <path d="M 535.121437 269.930464 
L 535.121437 7.2 
" clip-path="url(#p5759f8831b)" style="fill: none; stroke: #b0b0b0; stroke-opacity: 0.3; stroke-width: 0.8; stroke-linecap: square"/>
     </g>
     <g id="line2d_8">
      <g>
       <use xlink:href="#m9f1bbadeba" x="535.121437" y="269.930464" style="stroke: #000000; stroke-width: 0.8"/>
      </g>
     </g>
     <g id="text_4">
      <!-- 2025年H1火灾 -->
      <g transform="translate(478.564069 316.280687) rotate(-30) scale(0.1 -0.1)">
       <defs>
        <path id="STHeiti-48" d="M 550 4979 
L 1018 4979 
L 1018 3053 
L 3354 3053 
L 3354 4979 
L 3814 4979 
L 3814 384 
L 3354 384 
L 3354 2605 
L 1018 2605 
L 1018 384 
L 550 384 
L 550 4979 
z
" transform="scale(0.015625)"/>
       </defs>
       <use xlink:href="#STHeiti-32"/>
       <use xlink:href="#STHeiti-30" transform="translate(55.399994 0)"/>
       <use xlink:href="#STHeiti-32" transform="translate(110.799988 0)"/>
       <use xlink:href="#STHeiti-35" transform="translate(166.199982 0)"/>
       <use xlink:href="#STHeiti-5e74" transform="translate(221.599976 0)"/>
       <use xlink:href="#STHeiti-48" transform="translate(321.59996 0)"/>
       <use xlink:href="#STHeiti-31" transform="translate(389.899948 0)"/>
       <use xlink:href="#STHeiti-706b" transform="translate(445.299942 0)"/>
       <use xlink:href="#STHeiti-707e" transform="translate(545.299927 0)"/>
      </g>
     </g>
    </g>
    <g id="xtick_5">
     <g id="line2d_9">
      <path d="M 674.872462 269.930464 
L 674.872462 7.2 
" clip-path="url(#p5759f8831b)" style="fill: none; stroke: #b0b0b0; stroke-opacity: 0.3; stroke-width: 0.8; stroke-linecap: square"/>
     </g>
     <g id="line2d_10">
      <g>
       <use xlink:href="#m9f1bbadeba" x="674.872462" y="269.930464" style="stroke: #000000; stroke-width: 0.8"/>
      </g>
     </g>
     <g id="text_5">
      <!-- 全国保有量 -->
      <g transform="translate(630.900879 308.901968) rotate(-30) scale(0.1 -0.1)">
       <defs>
        <path id="STHeiti-5168" d="M 1549 3053 
Q 1120 2707 736 2470 
Q 544 2733 250 2899 
Q 1114 3245 1824 3894 
Q 2534 4544 2899 5344 
Q 3245 5203 3597 5146 
Q 3718 5126 3718 5084 
Q 3718 5043 3635 5008 
Q 3552 4973 3526 4954 
Q 3936 4262 4611 3836 
Q 5286 3411 6112 3322 
Q 5869 3059 5734 2669 
Q 5254 2854 4838 3091 
L 4838 2630 
Q 4339 2682 3475 2688 
L 3475 1786 
Q 4474 1792 5165 1837 
L 5165 1274 
Q 4538 1325 3475 1331 
L 3475 198 
Q 4883 205 5645 262 
L 5645 -333 
Q 4800 -269 3158 -269 
Q 1517 -269 672 -333 
L 672 262 
Q 1478 198 2950 198 
L 2950 1331 
Q 1869 1325 1235 1274 
L 1235 1837 
Q 1946 1792 2950 1786 
L 2950 2688 
Q 2061 2682 1549 2630 
L 1549 3053 
z
M 3213 4710 
Q 2541 3898 1690 3168 
Q 2253 3130 3197 3130 
Q 4141 3130 4698 3168 
Q 3642 3821 3213 4710 
z
" transform="scale(0.015625)"/>
        <path id="STHeiti-56fd" d="M 1254 -262 
L 1254 -666 
L 678 -666 
Q 736 -122 736 384 
L 736 4173 
Q 736 4538 678 4902 
Q 1024 4838 3216 4838 
Q 5408 4838 5798 4902 
Q 5741 4589 5741 4173 
L 5741 397 
Q 5741 -115 5798 -570 
L 5222 -570 
L 5222 -262 
L 1254 -262 
z
M 5222 186 
L 5222 4390 
L 1254 4390 
L 1254 186 
L 5222 186 
z
M 3386 1171 
Q 4390 1171 4890 1216 
L 4890 698 
Q 4486 742 3260 742 
Q 2035 742 1587 698 
L 1587 1216 
Q 1978 1171 2899 1171 
L 2899 2214 
Q 2259 2214 1856 2176 
L 1856 2669 
Q 2253 2630 2899 2624 
L 2899 3373 
Q 2112 3366 1741 3328 
L 1741 3859 
Q 2170 3814 3306 3814 
Q 4442 3814 4742 3859 
L 4742 3328 
Q 4211 3373 3386 3373 
L 3386 2624 
Q 4186 2624 4608 2669 
L 4608 2176 
Q 4262 2214 3386 2214 
L 3386 1171 
z
M 4538 1587 
L 4083 1299 
Q 3968 1574 3712 1843 
L 4128 2106 
Q 4365 1766 4538 1587 
z
" transform="scale(0.015625)"/>
        <path id="STHeiti-4fdd" d="M 1638 3872 
L 1638 -557 
L 1075 -557 
Q 1146 19 1146 826 
L 1146 2899 
Q 883 2438 614 2042 
Q 480 2266 230 2451 
Q 685 2848 1040 3702 
Q 1395 4557 1453 5133 
Q 1747 5011 2061 4947 
Q 2170 4928 2170 4880 
Q 2170 4832 2067 4755 
Q 1990 4691 1638 3872 
z
M 4186 2253 
Q 5197 2259 5894 2310 
L 5894 1818 
Q 5299 1869 4493 1875 
Q 4826 1261 5197 960 
Q 5568 659 6246 506 
Q 5984 282 5798 -109 
Q 4646 416 4224 1875 
L 4186 1875 
L 4186 474 
Q 4186 45 4250 -550 
L 3629 -550 
Q 3686 -51 3686 474 
L 3686 1875 
L 3654 1875 
Q 3450 1222 3142 748 
Q 2835 275 2272 -256 
Q 2086 -64 1754 83 
Q 2861 902 3270 1869 
Q 2598 1862 1978 1818 
L 1978 2310 
Q 2675 2259 3686 2253 
L 3686 3040 
Q 2918 3040 2560 3014 
Q 2586 3309 2586 3945 
Q 2586 4582 2560 4909 
Q 2925 4870 3926 4870 
Q 4928 4870 5446 4909 
Q 5421 4582 5421 3961 
Q 5421 3341 5446 3014 
Q 5197 3040 4186 3040 
L 4186 2253 
z
M 3078 4448 
L 3078 3450 
L 4922 3450 
L 4922 4448 
L 3078 4448 
z
" transform="scale(0.015625)"/>
        <path id="STHeiti-6709" d="M 2208 3968 
Q 1222 3968 506 3910 
L 506 4461 
Q 1318 4410 2406 4403 
Q 2592 4883 2682 5299 
Q 3014 5184 3386 5133 
Q 3488 5120 3488 5085 
Q 3488 5050 3405 4998 
Q 3168 4851 3008 4403 
Q 4627 4403 5100 4412 
Q 5574 4422 6042 4461 
L 6042 3910 
Q 5344 3974 2790 3974 
Q 2630 3674 2374 3270 
L 3507 3270 
Q 4576 3270 5222 3334 
Q 5171 2957 5171 2464 
L 5171 294 
Q 5171 -51 5123 -182 
Q 5075 -314 4883 -384 
Q 4691 -454 4160 -550 
Q 4134 -218 3923 102 
Q 4173 64 4326 64 
Q 4480 64 4553 137 
Q 4627 211 4627 454 
L 4627 819 
L 2285 819 
L 2285 -518 
L 1690 -518 
Q 1747 -26 1747 397 
L 1747 2413 
Q 1382 1958 877 1440 
Q 659 1670 390 1773 
Q 1472 2541 2208 3968 
z
M 4627 2291 
L 4627 2854 
L 2285 2854 
L 2285 2291 
L 4627 2291 
z
M 2285 1869 
L 2285 1242 
L 4627 1242 
L 4627 1869 
L 2285 1869 
z
" transform="scale(0.015625)"/>
        <path id="STHeiti-91cf" d="M 5229 3379 
Q 5043 3411 3209 3411 
Q 1376 3411 1197 3379 
Q 1229 3834 1229 4186 
Q 1229 4538 1197 4934 
Q 1389 4890 3174 4890 
Q 4960 4890 5222 4934 
Q 5210 4461 5210 4115 
Q 5210 3770 5229 3379 
z
M 1690 4288 
L 4742 4288 
L 4742 4595 
L 1690 4595 
L 1690 4288 
z
M 4742 4019 
L 1690 4019 
L 1690 3693 
L 4742 3693 
L 4742 4019 
z
M 5952 2746 
Q 5082 2797 3190 2797 
Q 1299 2797 448 2746 
L 448 3174 
Q 1619 3130 3321 3130 
Q 5024 3130 5952 3174 
L 5952 2746 
z
M 3398 352 
L 3398 0 
Q 5075 0 5875 51 
L 5875 -384 
Q 4979 -339 3164 -339 
Q 1350 -339 467 -384 
L 467 51 
Q 1254 0 2938 0 
L 2938 352 
Q 1766 346 986 282 
L 986 742 
Q 1875 672 2938 666 
L 2938 1030 
Q 1363 1030 1178 1011 
Q 1210 1325 1210 1798 
Q 1210 2272 1178 2566 
Q 1370 2522 3155 2522 
Q 4941 2522 5210 2566 
Q 5190 2208 5190 1875 
Q 5190 1542 5216 1011 
Q 4928 1030 3398 1030 
L 3398 666 
Q 4659 666 5363 742 
L 5363 282 
Q 4608 352 3398 352 
z
M 2938 1907 
L 2938 2221 
L 1670 2221 
L 1670 1907 
L 2938 1907 
z
M 3398 2221 
L 3398 1907 
L 4723 1907 
L 4723 2221 
L 3398 2221 
z
M 3398 1638 
L 3398 1331 
L 4723 1331 
L 4723 1638 
L 3398 1638 
z
M 2938 1331 
L 2938 1638 
L 1670 1638 
L 1670 1331 
L 2938 1331 
z
" transform="scale(0.015625)"/>
       </defs>
       <use xlink:href="#STHeiti-5168"/>
       <use xlink:href="#STHeiti-56fd" transform="translate(99.999985 0)"/>
       <use xlink:href="#STHeiti-4fdd" transform="translate(199.999969 0)"/>
       <use xlink:href="#STHeiti-6709" transform="translate(299.999954 0)"/>
       <use xlink:href="#STHeiti-91cf" transform="translate(399.999939 0)"/>
      </g>
     </g>
    </g>
   </g>
   <g id="matplotlib.axis_2">
    <g id="ytick_1">
     <g id="line2d_11">
      <path d="M 87.918156 258.026636 
L 702.822667 258.026636 
" clip-path="url(#p5759f8831b)" style="fill: none; stroke: #b0b0b0; stroke-opacity: 0.3; stroke-width: 0.8; stroke-linecap: square"/>
     </g>
     <g id="line2d_12">
      <defs>
       <path id="mbc71ee3607" d="M 0 0 
L -3.5 0 
" style="stroke: #000000; stroke-width: 0.8"/>
      </defs>
      <g>
       <use xlink:href="#mbc71ee3607" x="87.918156" y="258.026636" style="stroke: #000000; stroke-width: 0.8"/>
      </g>
     </g>
     <g id="text_6">
      <!-- 0 -->
      <g transform="translate(75.377531 262.006323) scale(0.1 -0.1)">
       <use xlink:href="#STHeiti-30"/>
      </g>
     </g>
    </g>
    <g id="ytick_2">
     <g id="line2d_13">
      <path d="M 87.918156 225.97195 
L 702.822667 225.97195 
" clip-path="url(#p5759f8831b)" style="fill: none; stroke: #b0b0b0; stroke-opacity: 0.3; stroke-width: 0.8; stroke-linecap: square"/>
     </g>
     <g id="line2d_14">
      <g>
       <use xlink:href="#mbc71ee3607" x="87.918156" y="225.97195" style="stroke: #000000; stroke-width: 0.8"/>
      </g>
     </g>
     <g id="text_7">
      <!-- 2500 -->
      <g transform="translate(58.755656 229.951637) scale(0.1 -0.1)">
       <use xlink:href="#STHeiti-32"/>
       <use xlink:href="#STHeiti-35" transform="translate(55.399994 0)"/>
       <use xlink:href="#STHeiti-30" transform="translate(110.799988 0)"/>
       <use xlink:href="#STHeiti-30" transform="translate(166.199982 0)"/>
      </g>
     </g>
    </g>
    <g id="ytick_3">
     <g id="line2d_15">
      <path d="M 87.918156 193.917264 
L 702.822667 193.917264 
" clip-path="url(#p5759f8831b)" style="fill: none; stroke: #b0b0b0; stroke-opacity: 0.3; stroke-width: 0.8; stroke-linecap: square"/>
     </g>
     <g id="line2d_16">
      <g>
       <use xlink:href="#mbc71ee3607" x="87.918156" y="193.917264" style="stroke: #000000; stroke-width: 0.8"/>
      </g>
     </g>
     <g id="text_8">
      <!-- 5000 -->
      <g transform="translate(58.755656 197.896951) scale(0.1 -0.1)">
       <use xlink:href="#STHeiti-35"/>
       <use xlink:href="#STHeiti-30" transform="translate(55.399994 0)"/>
       <use xlink:href="#STHeiti-30" transform="translate(110.799988 0)"/>
       <use xlink:href="#STHeiti-30" transform="translate(166.199982 0)"/>
      </g>
     </g>
    </g>
    <g id="ytick_4">
     <g id="line2d_17">
      <path d="M 87.918156 161.862578 
L 702.822667 161.862578 
" clip-path="url(#p5759f8831b)" style="fill: none; stroke: #b0b0b0; stroke-opacity: 0.3; stroke-width: 0.8; stroke-linecap: square"/>
     </g>
     <g id="line2d_18">
      <g>
       <use xlink:href="#mbc71ee3607" x="87.918156" y="161.862578" style="stroke: #000000; stroke-width: 0.8"/>
      </g>
     </g>
     <g id="text_9">
      <!-- 7500 -->
      <g transform="translate(58.755656 165.842265) scale(0.1 -0.1)">
       <defs>
        <path id="STHeiti-37" d="M 461 4979 
L 3373 4979 
L 915 269 
L 538 461 
L 2662 4544 
L 461 4544 
L 461 4979 
z
" transform="scale(0.015625)"/>
       </defs>
       <use xlink:href="#STHeiti-37"/>
       <use xlink:href="#STHeiti-35" transform="translate(55.399994 0)"/>
       <use xlink:href="#STHeiti-30" transform="translate(110.799988 0)"/>
       <use xlink:href="#STHeiti-30" transform="translate(166.199982 0)"/>
      </g>
     </g>
    </g>
    <g id="ytick_5">
     <g id="line2d_19">
      <path d="M 87.918156 129.807892 
L 702.822667 129.807892 
" clip-path="url(#p5759f8831b)" style="fill: none; stroke: #b0b0b0; stroke-opacity: 0.3; stroke-width: 0.8; stroke-linecap: square"/>
     </g>
     <g id="line2d_20">
      <g>
       <use xlink:href="#mbc71ee3607" x="87.918156" y="129.807892" style="stroke: #000000; stroke-width: 0.8"/>
      </g>
     </g>
     <g id="text_10">
      <!-- 10000 -->
      <g transform="translate(53.215031 133.787579) scale(0.1 -0.1)">
       <use xlink:href="#STHeiti-31"/>
       <use xlink:href="#STHeiti-30" transform="translate(55.399994 0)"/>
       <use xlink:href="#STHeiti-30" transform="translate(110.799988 0)"/>
       <use xlink:href="#STHeiti-30" transform="translate(166.199982 0)"/>
       <use xlink:href="#STHeiti-30" transform="translate(221.599976 0)"/>
      </g>
     </g>
    </g>
    <g id="ytick_6">
     <g id="line2d_21">
      <path d="M 87.918156 97.753206 
L 702.822667 97.753206 
" clip-path="url(#p5759f8831b)" style="fill: none; stroke: #b0b0b0; stroke-opacity: 0.3; stroke-width: 0.8; stroke-linecap: square"/>
     </g>
     <g id="line2d_22">
      <g>
       <use xlink:href="#mbc71ee3607" x="87.918156" y="97.753206" style="stroke: #000000; stroke-width: 0.8"/>
      </g>
     </g>
     <g id="text_11">
      <!-- 12500 -->
      <g transform="translate(53.215031 101.732893) scale(0.1 -0.1)">
       <use xlink:href="#STHeiti-31"/>
       <use xlink:href="#STHeiti-32" transform="translate(55.399994 0)"/>
       <use xlink:href="#STHeiti-35" transform="translate(110.799988 0)"/>
       <use xlink:href="#STHeiti-30" transform="translate(166.199982 0)"/>
       <use xlink:href="#STHeiti-30" transform="translate(221.599976 0)"/>
      </g>
     </g>
    </g>
    <g id="ytick_7">
     <g id="line2d_23">
      <path d="M 87.918156 65.69852 
L 702.822667 65.69852 
" clip-path="url(#p5759f8831b)" style="fill: none; stroke: #b0b0b0; stroke-opacity: 0.3; stroke-width: 0.8; stroke-linecap: square"/>
     </g>
     <g id="line2d_24">
      <g>
       <use xlink:href="#mbc71ee3607" x="87.918156" y="65.69852" style="stroke: #000000; stroke-width: 0.8"/>
      </g>
     </g>
     <g id="text_12">
      <!-- 15000 -->
      <g transform="translate(53.215031 69.678207) scale(0.1 -0.1)">
       <use xlink:href="#STHeiti-31"/>
       <use xlink:href="#STHeiti-35" transform="translate(55.399994 0)"/>
       <use xlink:href="#STHeiti-30" transform="translate(110.799988 0)"/>
       <use xlink:href="#STHeiti-30" transform="translate(166.199982 0)"/>
       <use xlink:href="#STHeiti-30" transform="translate(221.599976 0)"/>
      </g>
     </g>
    </g>
    <g id="ytick_8">
     <g id="line2d_25">
      <path d="M 87.918156 33.643834 
L 702.822667 33.643834 
" clip-path="url(#p5759f8831b)" style="fill: none; stroke: #b0b0b0; stroke-opacity: 0.3; stroke-width: 0.8; stroke-linecap: square"/>
     </g>
     <g id="line2d_26">
      <g>
       <use xlink:href="#mbc71ee3607" x="87.918156" y="33.643834" style="stroke: #000000; stroke-width: 0.8"/>
      </g>
     </g>
     <g id="text_13">
      <!-- 17500 -->
      <g transform="translate(53.215031 37.623521) scale(0.1 -0.1)">
       <use xlink:href="#STHeiti-31"/>
       <use xlink:href="#STHeiti-37" transform="translate(55.399994 0)"/>
       <use xlink:href="#STHeiti-35" transform="translate(110.799988 0)"/>
       <use xlink:href="#STHeiti-30" transform="translate(166.199982 0)"/>
       <use xlink:href="#STHeiti-30" transform="translate(221.599976 0)"/>
      </g>
     </g>
    </g>
   </g>
   <g id="line2d_27">
    <path d="M 115.868361 257.98817 
L 255.619386 256.872667 
L 395.370411 19.142294 
L 535.121437 167.658065 
L 674.872462 257.977913 
" clip-path="url(#p5759f8831b)" style="fill: none; stroke: #1a365d; stroke-width: 2; stroke-linecap: square"/>
    <defs>
     <path id="mf9f349600f" d="M 0 3 
C 0.795609 3 1.55874 2.683901 2.12132 2.12132 
C 2.683901 1.55874 3 0.795609 3 0 
C 3 -0.795609 2.683901 -1.55874 2.12132 -2.12132 
C 1.55874 -2.683901 0.795609 -3 0 -3 
C -0.795609 -3 -1.55874 -2.683901 -2.12132 -2.12132 
C -2.683901 -1.55874 -3 -0.795609 -3 0 
C -3 0.795609 -2.683901 1.55874 -2.12132 2.12132 
C -1.55874 2.683901 -0.795609 3 0 3 
z
" style="stroke: #1a365d"/>
    </defs>
    <g clip-path="url(#p5759f8831b)">
     <use xlink:href="#mf9f349600f" x="115.868361" y="257.98817" style="fill: #1a365d; stroke: #1a365d"/>
     <use xlink:href="#mf9f349600f" x="255.619386" y="256.872667" style="fill: #1a365d; stroke: #1a365d"/>
     <use xlink:href="#mf9f349600f" x="395.370411" y="19.142294" style="fill: #1a365d; stroke: #1a365d"/>
     <use xlink:href="#mf9f349600f" x="535.121437" y="167.658065" style="fill: #1a365d; stroke: #1a365d"/>
     <use xlink:href="#mf9f349600f" x="674.872462" y="257.977913" style="fill: #1a365d; stroke: #1a365d"/>
    </g>
   </g>
   <g id="patch_3">
    <path d="M 87.918156 269.930464 
L 87.918156 7.2 
" style="fill: none; stroke: #000000; stroke-width: 0.8; stroke-linejoin: miter; stroke-linecap: square"/>
   </g>
   <g id="patch_4">
    <path d="M 702.822667 269.930464 
L 702.822667 7.2 
" style="fill: none; stroke: #000000; stroke-width: 0.8; stroke-linejoin: miter; stroke-linecap: square"/>
   </g>
   <g id="patch_5">
    <path d="M 87.918156 269.930464 
L 702.822667 269.930464 
" style="fill: none; stroke: #000000; stroke-width: 0.8; stroke-linejoin: miter; stroke-linecap: square"/>
   </g>
   <g id="patch_6">
    <path d="M 87.918156 7.2 
L 702.822667 7.2 
" style="fill: none; stroke: #000000; stroke-width: 0.8; stroke-linejoin: miter; stroke-linecap: square"/>
   </g>
   <g id="legend_1">
    <g id="patch_7">
     <path d="M 638.776417 27.27 
L 696.522667 27.27 
Q 698.322667 27.27 698.322667 25.47 
L 698.322667 13.5 
Q 698.322667 11.7 696.522667 11.7 
L 638.776417 11.7 
Q 636.976417 11.7 636.976417 13.5 
L 636.976417 25.47 
Q 636.976417 27.27 638.776417 27.27 
z
" style="fill: #ffffff; opacity: 0.8; stroke: #cccccc; stroke-linejoin: miter"/>
    </g>
    <g id="line2d_28">
     <path d="M 640.576417 19.313437 
L 649.576417 19.313437 
L 658.576417 19.313437 
" style="fill: none; stroke: #1a365d; stroke-width: 2; stroke-linecap: square"/>
     <g>
      <use xlink:href="#mf9f349600f" x="649.576417" y="19.313437" style="fill: #1a365d; stroke: #1a365d"/>
     </g>
    </g>
    <g id="text_14">
     <!-- 2024年 -->
     <g transform="translate(665.776417 22.463437) scale(0.09 -0.09)">
      <defs>
       <path id="STHeiti-34" d="M 2726 5094 
L 2816 5094 
L 2816 1894 
L 3373 1894 
L 3373 1453 
L 2816 1453 
L 2816 384 
L 2362 384 
L 2362 1453 
L 160 1453 
L 2726 5094 
z
M 2362 1894 
L 2362 3808 
L 1005 1894 
L 2362 1894 
z
" transform="scale(0.015625)"/>
      </defs>
      <use xlink:href="#STHeiti-32"/>
      <use xlink:href="#STHeiti-30" transform="translate(55.399994 0)"/>
      <use xlink:href="#STHeiti-32" transform="translate(110.799988 0)"/>
      <use xlink:href="#STHeiti-34" transform="translate(166.199982 0)"/>
      <use xlink:href="#STHeiti-5e74" transform="translate(221.599976 0)"/>
     </g>
    </g>
   </g>
  </g>
 </g>
 <defs>
  <clipPath id="p5759f8831b">
   <rect x="87.918156" y="7.2" width="614.904511" height="262.730464"/>
  </clipPath>
 </defs>
</svg>
