<?xml version="1.0" encoding="utf-8" standalone="no"?>
<!DOCTYPE svg PUBLIC "-//W3C//DTD SVG 1.1//EN"
  "http://www.w3.org/Graphics/SVG/1.1/DTD/svg11.dtd">
<svg xmlns:xlink="http://www.w3.org/1999/xlink" width="712.72125pt" height="352.13575pt" viewBox="0 0 712.72125 352.13575" xmlns="http://www.w3.org/2000/svg" version="1.1">
 <metadata>
  <rdf:RDF xmlns:dc="http://purl.org/dc/elements/1.1/" xmlns:cc="http://creativecommons.org/ns#" xmlns:rdf="http://www.w3.org/1999/02/22-rdf-syntax-ns#">
   <cc:Work>
    <dc:type rdf:resource="http://purl.org/dc/dcmitype/StillImage"/>
    <dc:date>2026-06-05T13:58:33.718490</dc:date>
    <dc:format>image/svg+xml</dc:format>
    <dc:creator>
     <cc:Agent>
      <dc:title>Matplotlib v3.10.9, https://matplotlib.org/</dc:title>
     </cc:Agent>
    </dc:creator>
   </cc:Work>
  </rdf:RDF>
 </metadata>
 <defs>
  <style type="text/css">*{stroke-linejoin: round; stroke-linecap: butt}</style>
 </defs>
 <g id="figure_1">
  <g id="patch_1">
   <path d="M -0 352.13575 
L 712.72125 352.13575 
L 712.72125 0 
L -0 0 
z
" style="fill: #ffffff"/>
  </g>
  <g id="axes_1">
   <g id="patch_2">
    <path d="M 25.28125 318.800464 
L 705.52125 318.800464 
L 705.52125 7.2 
L 25.28125 7.2 
z
" style="fill: #fafafa"/>
   </g>
   <g id="matplotlib.axis_1">
    <g id="xtick_1">
     <g id="line2d_1">
      <path d="M 56.20125 318.800464 
L 56.20125 7.2 
" clip-path="url(#p9e686809c7)" style="fill: none; stroke: #b0b0b0; stroke-opacity: 0.3; stroke-width: 0.8; stroke-linecap: square"/>
     </g>
     <g id="line2d_2">
      <defs>
       <path id="mc62c0cb08b" d="M 0 0 
L 0 3.5 
" style="stroke: #000000; stroke-width: 0.8"/>
      </defs>
      <g>
       <use xlink:href="#mc62c0cb08b" x="56.20125" y="318.800464" style="stroke: #000000; stroke-width: 0.8"/>
      </g>
     </g>
     <g id="text_1">
      <!-- 2022 -->
      <g transform="translate(36.337649 343.774735) rotate(-30) scale(0.1 -0.1)">
       <defs>
        <path id="STHeiti-32" d="M 742 3539 
L 301 3539 
Q 333 4243 768 4668 
Q 1203 5094 1820 5094 
Q 2438 5094 2844 4694 
Q 3251 4294 3251 3718 
Q 3251 3290 3024 2925 
Q 2797 2560 2336 2061 
L 1190 826 
L 3315 826 
L 3315 384 
L 192 384 
L 1946 2278 
Q 2406 2778 2604 3066 
Q 2803 3354 2803 3725 
Q 2803 4096 2512 4377 
Q 2221 4659 1789 4659 
Q 1357 4659 1072 4368 
Q 787 4077 742 3539 
z
" transform="scale(0.015625)"/>
        <path id="STHeiti-30" d="M 1747 269 
Q 1005 269 605 880 
Q 205 1491 205 2681 
Q 205 3872 605 4483 
Q 1005 5094 1741 5094 
Q 2477 5094 2909 4470 
Q 3341 3846 3341 2681 
Q 3341 1517 2905 893 
Q 2470 269 1747 269 
z
M 1760 4659 
Q 1229 4659 934 4147 
Q 640 3635 640 2669 
Q 640 685 1760 685 
Q 2304 685 2608 1206 
Q 2912 1728 2912 2681 
Q 2912 3635 2598 4147 
Q 2285 4659 1760 4659 
z
" transform="scale(0.015625)"/>
       </defs>
       <use xlink:href="#STHeiti-32"/>
       <use xlink:href="#STHeiti-30" transform="translate(55.399994 0)"/>
       <use xlink:href="#STHeiti-32" transform="translate(110.799988 0)"/>
       <use xlink:href="#STHeiti-32" transform="translate(166.199982 0)"/>
      </g>
     </g>
    </g>
    <g id="xtick_2">
     <g id="line2d_3">
      <path d="M 365.40125 318.800464 
L 365.40125 7.2 
" clip-path="url(#p9e686809c7)" style="fill: none; stroke: #b0b0b0; stroke-opacity: 0.3; stroke-width: 0.8; stroke-linecap: square"/>
     </g>
     <g id="line2d_4">
      <g>
       <use xlink:href="#mc62c0cb08b" x="365.40125" y="318.800464" style="stroke: #000000; stroke-width: 0.8"/>
      </g>
     </g>
     <g id="text_2">
      <!-- 2024 -->
      <g transform="translate(345.537649 343.774735) rotate(-30) scale(0.1 -0.1)">
       <defs>
        <path id="STHeiti-34" d="M 2726 5094 
L 2816 5094 
L 2816 1894 
L 3373 1894 
L 3373 1453 
L 2816 1453 
L 2816 384 
L 2362 384 
L 2362 1453 
L 160 1453 
L 2726 5094 
z
M 2362 1894 
L 2362 3808 
L 1005 1894 
L 2362 1894 
z
" transform="scale(0.015625)"/>
       </defs>
       <use xlink:href="#STHeiti-32"/>
       <use xlink:href="#STHeiti-30" transform="translate(55.399994 0)"/>
       <use xlink:href="#STHeiti-32" transform="translate(110.799988 0)"/>
       <use xlink:href="#STHeiti-34" transform="translate(166.199982 0)"/>
      </g>
     </g>
    </g>
    <g id="xtick_3">
     <g id="line2d_5">
      <path d="M 674.60125 318.800464 
L 674.60125 7.2 
" clip-path="url(#p9e686809c7)" style="fill: none; stroke: #b0b0b0; stroke-opacity: 0.3; stroke-width: 0.8; stroke-linecap: square"/>
     </g>
     <g id="line2d_6">
      <g>
       <use xlink:href="#mc62c0cb08b" x="674.60125" y="318.800464" style="stroke: #000000; stroke-width: 0.8"/>
      </g>
     </g>
     <g id="text_3">
      <!-- 2025 -->
      <g transform="translate(654.737649 343.774735) rotate(-30) scale(0.1 -0.1)">
       <defs>
        <path id="STHeiti-35" d="M 3149 4979 
L 3149 4544 
L 1510 4544 
L 1280 3290 
Q 1587 3379 1856 3379 
Q 2458 3379 2861 2953 
Q 3264 2528 3264 1862 
Q 3264 1197 2825 733 
Q 2387 269 1664 269 
Q 1114 269 726 598 
Q 339 928 262 1498 
L 730 1498 
Q 813 1114 1075 909 
Q 1338 704 1683 704 
Q 2138 704 2467 1043 
Q 2797 1382 2797 1888 
Q 2797 2349 2509 2646 
Q 2221 2944 1757 2944 
Q 1293 2944 730 2701 
L 1158 4979 
L 3149 4979 
z
" transform="scale(0.015625)"/>
       </defs>
       <use xlink:href="#STHeiti-32"/>
       <use xlink:href="#STHeiti-30" transform="translate(55.399994 0)"/>
       <use xlink:href="#STHeiti-32" transform="translate(110.799988 0)"/>
       <use xlink:href="#STHeiti-35" transform="translate(166.199982 0)"/>
      </g>
     </g>
    </g>
   </g>
   <g id="matplotlib.axis_2">
    <g id="ytick_1">
     <g id="line2d_7">
      <path d="M 25.28125 304.636806 
L 705.52125 304.636806 
" clip-path="url(#p9e686809c7)" style="fill: none; stroke: #b0b0b0; stroke-opacity: 0.3; stroke-width: 0.8; stroke-linecap: square"/>
     </g>
     <g id="line2d_8">
      <defs>
       <path id="mb4095dbc7e" d="M 0 0 
L -3.5 0 
" style="stroke: #000000; stroke-width: 0.8"/>
      </defs>
      <g>
       <use xlink:href="#mb4095dbc7e" x="25.28125" y="304.636806" style="stroke: #000000; stroke-width: 0.8"/>
      </g>
     </g>
     <g id="text_4">
      <!-- 0 -->
      <g transform="translate(12.740625 308.616494) scale(0.1 -0.1)">
       <use xlink:href="#STHeiti-30"/>
      </g>
     </g>
    </g>
    <g id="ytick_2">
     <g id="line2d_9">
      <path d="M 25.28125 269.227663 
L 705.52125 269.227663 
" clip-path="url(#p9e686809c7)" style="fill: none; stroke: #b0b0b0; stroke-opacity: 0.3; stroke-width: 0.8; stroke-linecap: square"/>
     </g>
     <g id="line2d_10">
      <g>
       <use xlink:href="#mb4095dbc7e" x="25.28125" y="269.227663" style="stroke: #000000; stroke-width: 0.8"/>
      </g>
     </g>
     <g id="text_5">
      <!-- 10 -->
      <g transform="translate(7.2 273.20735) scale(0.1 -0.1)">
       <defs>
        <path id="STHeiti-31" d="M 1184 4979 
L 2086 4979 
L 2086 384 
L 1632 384 
L 1632 4531 
L 909 4531 
L 1184 4979 
z
" transform="scale(0.015625)"/>
       </defs>
       <use xlink:href="#STHeiti-31"/>
       <use xlink:href="#STHeiti-30" transform="translate(55.399994 0)"/>
      </g>
     </g>
    </g>
    <g id="ytick_3">
     <g id="line2d_11">
      <path d="M 25.28125 233.818519 
L 705.52125 233.818519 
" clip-path="url(#p9e686809c7)" style="fill: none; stroke: #b0b0b0; stroke-opacity: 0.3; stroke-width: 0.8; stroke-linecap: square"/>
     </g>
     <g id="line2d_12">
      <g>
       <use xlink:href="#mb4095dbc7e" x="25.28125" y="233.818519" style="stroke: #000000; stroke-width: 0.8"/>
      </g>
     </g>
     <g id="text_6">
      <!-- 20 -->
      <g transform="translate(7.2 237.798207) scale(0.1 -0.1)">
       <use xlink:href="#STHeiti-32"/>
       <use xlink:href="#STHeiti-30" transform="translate(55.399994 0)"/>
      </g>
     </g>
    </g>
    <g id="ytick_4">
     <g id="line2d_13">
      <path d="M 25.28125 198.409376 
L 705.52125 198.409376 
" clip-path="url(#p9e686809c7)" style="fill: none; stroke: #b0b0b0; stroke-opacity: 0.3; stroke-width: 0.8; stroke-linecap: square"/>
     </g>
     <g id="line2d_14">
      <g>
       <use xlink:href="#mb4095dbc7e" x="25.28125" y="198.409376" style="stroke: #000000; stroke-width: 0.8"/>
      </g>
     </g>
     <g id="text_7">
      <!-- 30 -->
      <g transform="translate(7.2 202.389063) scale(0.1 -0.1)">
       <defs>
        <path id="STHeiti-33" d="M 845 3917 
L 378 3917 
Q 506 4486 867 4790 
Q 1229 5094 1750 5094 
Q 2272 5094 2659 4748 
Q 3046 4403 3046 3910 
Q 3046 3315 2458 2970 
Q 2861 2803 3081 2473 
Q 3302 2144 3302 1754 
Q 3302 1146 2857 707 
Q 2413 269 1734 269 
Q 1133 269 742 611 
Q 352 954 224 1613 
L 672 1613 
Q 794 1158 1046 937 
Q 1299 717 1760 717 
Q 2221 717 2534 1011 
Q 2848 1306 2848 1741 
Q 2848 2176 2502 2441 
Q 2157 2707 1498 2720 
L 1498 3142 
Q 1971 3142 2268 3360 
Q 2566 3578 2566 3901 
Q 2566 4224 2326 4438 
Q 2086 4653 1747 4653 
Q 1408 4653 1200 4470 
Q 992 4288 845 3917 
z
" transform="scale(0.015625)"/>
       </defs>
       <use xlink:href="#STHeiti-33"/>
       <use xlink:href="#STHeiti-30" transform="translate(55.399994 0)"/>
      </g>
     </g>
    </g>
    <g id="ytick_5">
     <g id="line2d_15">
      <path d="M 25.28125 163.000232 
L 705.52125 163.000232 
" clip-path="url(#p9e686809c7)" style="fill: none; stroke: #b0b0b0; stroke-opacity: 0.3; stroke-width: 0.8; stroke-linecap: square"/>
     </g>
     <g id="line2d_16">
      <g>
       <use xlink:href="#mb4095dbc7e" x="25.28125" y="163.000232" style="stroke: #000000; stroke-width: 0.8"/>
      </g>
     </g>
     <g id="text_8">
      <!-- 40 -->
      <g transform="translate(7.2 166.979919) scale(0.1 -0.1)">
       <use xlink:href="#STHeiti-34"/>
       <use xlink:href="#STHeiti-30" transform="translate(55.399994 0)"/>
      </g>
     </g>
    </g>
    <g id="ytick_6">
     <g id="line2d_17">
      <path d="M 25.28125 127.591088 
L 705.52125 127.591088 
" clip-path="url(#p9e686809c7)" style="fill: none; stroke: #b0b0b0; stroke-opacity: 0.3; stroke-width: 0.8; stroke-linecap: square"/>
     </g>
     <g id="line2d_18">
      <g>
       <use xlink:href="#mb4095dbc7e" x="25.28125" y="127.591088" style="stroke: #000000; stroke-width: 0.8"/>
      </g>
     </g>
     <g id="text_9">
      <!-- 50 -->
      <g transform="translate(7.2 131.570776) scale(0.1 -0.1)">
       <use xlink:href="#STHeiti-35"/>
       <use xlink:href="#STHeiti-30" transform="translate(55.399994 0)"/>
      </g>
     </g>
    </g>
    <g id="ytick_7">
     <g id="line2d_19">
      <path d="M 25.28125 92.181945 
L 705.52125 92.181945 
" clip-path="url(#p9e686809c7)" style="fill: none; stroke: #b0b0b0; stroke-opacity: 0.3; stroke-width: 0.8; stroke-linecap: square"/>
     </g>
     <g id="line2d_20">
      <g>
       <use xlink:href="#mb4095dbc7e" x="25.28125" y="92.181945" style="stroke: #000000; stroke-width: 0.8"/>
      </g>
     </g>
     <g id="text_10">
      <!-- 60 -->
      <g transform="translate(7.2 96.161632) scale(0.1 -0.1)">
       <defs>
        <path id="STHeiti-36" d="M 2349 5094 
L 2726 4851 
L 1485 2970 
Q 1747 3059 1984 3059 
Q 2496 3059 2880 2652 
Q 3264 2246 3264 1660 
Q 3264 1075 2845 672 
Q 2426 269 1827 269 
Q 1229 269 829 678 
Q 429 1088 429 1677 
Q 429 1958 537 2256 
Q 646 2554 954 3014 
L 2349 5094 
z
M 2810 1683 
Q 2810 2086 2528 2368 
Q 2246 2650 1843 2650 
Q 1440 2650 1158 2368 
Q 877 2086 877 1683 
Q 877 1280 1161 998 
Q 1446 717 1843 717 
Q 2240 717 2525 998 
Q 2810 1280 2810 1683 
z
" transform="scale(0.015625)"/>
       </defs>
       <use xlink:href="#STHeiti-36"/>
       <use xlink:href="#STHeiti-30" transform="translate(55.399994 0)"/>
      </g>
     </g>
    </g>
    <g id="ytick_8">
     <g id="line2d_21">
      <path d="M 25.28125 56.772801 
L 705.52125 56.772801 
" clip-path="url(#p9e686809c7)" style="fill: none; stroke: #b0b0b0; stroke-opacity: 0.3; stroke-width: 0.8; stroke-linecap: square"/>
     </g>
     <g id="line2d_22">
      <g>
       <use xlink:href="#mb4095dbc7e" x="25.28125" y="56.772801" style="stroke: #000000; stroke-width: 0.8"/>
      </g>
     </g>
     <g id="text_11">
      <!-- 70 -->
      <g transform="translate(7.2 60.752489) scale(0.1 -0.1)">
       <defs>
        <path id="STHeiti-37" d="M 461 4979 
L 3373 4979 
L 915 269 
L 538 461 
L 2662 4544 
L 461 4544 
L 461 4979 
z
" transform="scale(0.015625)"/>
       </defs>
       <use xlink:href="#STHeiti-37"/>
       <use xlink:href="#STHeiti-30" transform="translate(55.399994 0)"/>
      </g>
     </g>
    </g>
    <g id="ytick_9">
     <g id="line2d_23">
      <path d="M 25.28125 21.363657 
L 705.52125 21.363657 
" clip-path="url(#p9e686809c7)" style="fill: none; stroke: #b0b0b0; stroke-opacity: 0.3; stroke-width: 0.8; stroke-linecap: square"/>
     </g>
     <g id="line2d_24">
      <g>
       <use xlink:href="#mb4095dbc7e" x="25.28125" y="21.363657" style="stroke: #000000; stroke-width: 0.8"/>
      </g>
     </g>
     <g id="text_12">
      <!-- 80 -->
      <g transform="translate(7.2 25.343345) scale(0.1 -0.1)">
       <defs>
        <path id="STHeiti-38" d="M 2458 2906 
Q 3328 2477 3328 1702 
Q 3328 1088 2896 678 
Q 2464 269 1763 269 
Q 1062 269 640 678 
Q 218 1088 218 1664 
Q 218 2470 1107 2906 
Q 435 3264 435 3898 
Q 435 4371 828 4732 
Q 1222 5094 1779 5094 
Q 2336 5094 2726 4742 
Q 3117 4390 3117 3885 
Q 3117 3270 2458 2906 
z
M 2656 3904 
Q 2656 4211 2416 4432 
Q 2176 4653 1789 4653 
Q 1402 4653 1152 4432 
Q 902 4211 902 3897 
Q 902 3584 1174 3337 
Q 1446 3091 1792 3091 
Q 2138 3091 2397 3334 
Q 2656 3578 2656 3904 
z
M 2867 1696 
Q 2867 2086 2550 2380 
Q 2234 2675 1782 2675 
Q 1331 2675 1004 2371 
Q 678 2067 678 1654 
Q 678 1242 979 973 
Q 1280 704 1766 704 
Q 2253 704 2560 992 
Q 2867 1280 2867 1696 
z
" transform="scale(0.015625)"/>
       </defs>
       <use xlink:href="#STHeiti-38"/>
       <use xlink:href="#STHeiti-30" transform="translate(55.399994 0)"/>
      </g>
     </g>
    </g>
   </g>
   <g id="line2d_25">
    <path d="M 56.20125 135.062418 
L 365.40125 96.431042 
L 674.60125 47.920515 
" clip-path="url(#p9e686809c7)" style="fill: none; stroke: #1a365d; stroke-width: 2; stroke-linecap: square"/>
    <defs>
     <path id="mc3378d43ac" d="M 0 3 
C 0.795609 3 1.55874 2.683901 2.12132 2.12132 
C 2.683901 1.55874 3 0.795609 3 0 
C 3 -0.795609 2.683901 -1.55874 2.12132 -2.12132 
C 1.55874 -2.683901 0.795609 -3 0 -3 
C -0.795609 -3 -1.55874 -2.683901 -2.12132 -2.12132 
C -2.683901 -1.55874 -3 -0.795609 -3 0 
C -3 0.795609 -2.683901 1.55874 -2.12132 2.12132 
C -1.55874 2.683901 -0.795609 3 0 3 
z
" style="stroke: #1a365d"/>
    </defs>
    <g clip-path="url(#p9e686809c7)">
     <use xlink:href="#mc3378d43ac" x="56.20125" y="135.062418" style="fill: #1a365d; stroke: #1a365d"/>
     <use xlink:href="#mc3378d43ac" x="365.40125" y="96.431042" style="fill: #1a365d; stroke: #1a365d"/>
     <use xlink:href="#mc3378d43ac" x="674.60125" y="47.920515" style="fill: #1a365d; stroke: #1a365d"/>
    </g>
   </g>
   <g id="line2d_26">
    <path d="M 56.20125 21.363657 
L 365.40125 39.068229 
L 674.60125 47.920515 
" clip-path="url(#p9e686809c7)" style="fill: none; stroke: #d69e2e; stroke-width: 2; stroke-linecap: square"/>
    <defs>
     <path id="m1ab021f894" d="M 0 3 
C 0.795609 3 1.55874 2.683901 2.12132 2.12132 
C 2.683901 1.55874 3 0.795609 3 0 
C 3 -0.795609 2.683901 -1.55874 2.12132 -2.12132 
C 1.55874 -2.683901 0.795609 -3 0 -3 
C -0.795609 -3 -1.55874 -2.683901 -2.12132 -2.12132 
C -2.683901 -1.55874 -3 -0.795609 -3 0 
C -3 0.795609 -2.683901 1.55874 -2.12132 2.12132 
C -1.55874 2.683901 -0.795609 3 0 3 
z
" style="stroke: #d69e2e"/>
    </defs>
    <g clip-path="url(#p9e686809c7)">
     <use xlink:href="#m1ab021f894" x="56.20125" y="21.363657" style="fill: #d69e2e; stroke: #d69e2e"/>
     <use xlink:href="#m1ab021f894" x="365.40125" y="39.068229" style="fill: #d69e2e; stroke: #d69e2e"/>
     <use xlink:href="#m1ab021f894" x="674.60125" y="47.920515" style="fill: #d69e2e; stroke: #d69e2e"/>
    </g>
   </g>
   <g id="line2d_27">
    <path d="M 56.20125 191.327547 
L 365.40125 247.982177 
L 674.60125 304.636806 
" clip-path="url(#p9e686809c7)" style="fill: none; stroke: #38a169; stroke-width: 2; stroke-linecap: square"/>
    <defs>
     <path id="m90f9972d2a" d="M 0 3 
C 0.795609 3 1.55874 2.683901 2.12132 2.12132 
C 2.683901 1.55874 3 0.795609 3 0 
C 3 -0.795609 2.683901 -1.55874 2.12132 -2.12132 
C 1.55874 -2.683901 0.795609 -3 0 -3 
C -0.795609 -3 -1.55874 -2.683901 -2.12132 -2.12132 
C -2.683901 -1.55874 -3 -0.795609 -3 0 
C -3 0.795609 -2.683901 1.55874 -2.12132 2.12132 
C -1.55874 2.683901 -0.795609 3 0 3 
z
" style="stroke: #38a169"/>
    </defs>
    <g clip-path="url(#p9e686809c7)">
     <use xlink:href="#m90f9972d2a" x="56.20125" y="191.327547" style="fill: #38a169; stroke: #38a169"/>
     <use xlink:href="#m90f9972d2a" x="365.40125" y="247.982177" style="fill: #38a169; stroke: #38a169"/>
     <use xlink:href="#m90f9972d2a" x="674.60125" y="304.636806" style="fill: #38a169; stroke: #38a169"/>
    </g>
   </g>
   <g id="patch_3">
    <path d="M 25.28125 318.800464 
L 25.28125 7.2 
" style="fill: none; stroke: #000000; stroke-width: 0.8; stroke-linejoin: miter; stroke-linecap: square"/>
   </g>
   <g id="patch_4">
    <path d="M 705.52125 318.800464 
L 705.52125 7.2 
" style="fill: none; stroke: #000000; stroke-width: 0.8; stroke-linejoin: miter; stroke-linecap: square"/>
   </g>
   <g id="patch_5">
    <path d="M 25.28125 318.800464 
L 705.52125 318.800464 
" style="fill: none; stroke: #000000; stroke-width: 0.8; stroke-linejoin: miter; stroke-linecap: square"/>
   </g>
   <g id="patch_6">
    <path d="M 25.28125 7.2 
L 705.52125 7.2 
" style="fill: none; stroke: #000000; stroke-width: 0.8; stroke-linejoin: miter; stroke-linecap: square"/>
   </g>
   <g id="legend_1">
    <g id="patch_7">
     <path d="M 31.58125 314.300464 
L 148.051094 314.300464 
Q 149.851094 314.300464 149.851094 312.500464 
L 149.851094 274.700464 
Q 149.851094 272.900464 148.051094 272.900464 
L 31.58125 272.900464 
Q 29.78125 272.900464 29.78125 274.700464 
L 29.78125 312.500464 
Q 29.78125 314.300464 31.58125 314.300464 
z
" style="fill: #ffffff; opacity: 0.8; stroke: #cccccc; stroke-linejoin: miter"/>
    </g>
    <g id="line2d_28">
     <path d="M 33.38125 280.513901 
L 42.38125 280.513901 
L 51.38125 280.513901 
" style="fill: none; stroke: #1a365d; stroke-width: 2; stroke-linecap: square"/>
     <g>
      <use xlink:href="#mc3378d43ac" x="42.38125" y="280.513901" style="fill: #1a365d; stroke: #1a365d"/>
     </g>
    </g>
    <g id="text_13">
     <!-- 内部Excel -->
     <g transform="translate(58.58125 283.663901) scale(0.09 -0.09)">
      <defs>
       <path id="STHeiti-5185" d="M 3302 2733 
Q 4141 2106 4787 1376 
L 4301 992 
Q 3654 1850 3174 2317 
Q 3008 1862 2768 1529 
Q 2528 1197 2093 781 
Q 1862 966 1581 1088 
Q 2323 1606 2569 2105 
Q 2816 2605 2886 3546 
L 1472 3546 
L 1472 -461 
L 890 -461 
Q 947 -51 947 486 
L 947 3130 
Q 947 3680 896 4077 
Q 1504 4006 2918 4019 
Q 2938 4653 2880 5158 
Q 3155 5133 3328 5133 
L 3616 5133 
Q 3706 5133 3706 5101 
Q 3706 5069 3622 5005 
Q 3590 4979 3545 4710 
Q 3501 4442 3475 4019 
Q 5082 4019 5562 4077 
Q 5517 3674 5517 3130 
L 5517 141 
Q 5517 -122 5443 -253 
Q 5370 -384 5139 -464 
Q 4909 -544 4410 -608 
Q 4397 -301 4154 13 
Q 4339 -6 4537 -6 
Q 4736 -6 4857 64 
Q 4979 134 4979 326 
L 4979 3546 
L 3430 3546 
Q 3373 3098 3302 2733 
z
" transform="scale(0.015625)"/>
       <path id="STHeiti-90e8" d="M 2560 4646 
L 1894 4403 
Q 1856 4614 1619 5037 
L 2266 5254 
Q 2426 4838 2560 4646 
z
M 5254 2650 
Q 6086 1747 6086 1018 
Q 6086 563 5779 300 
Q 5472 38 4883 6 
Q 4826 378 4659 627 
Q 4813 608 4941 608 
Q 5549 608 5549 1069 
Q 5549 1811 4736 2528 
L 5299 4333 
L 4390 4333 
L 4390 794 
Q 4390 -96 4448 -666 
L 3821 -666 
Q 3904 -45 3904 794 
L 3904 4147 
Q 3904 4742 3872 4819 
Q 4390 4787 4928 4787 
Q 5466 4787 5984 4819 
L 5254 2650 
z
M 3507 3904 
Q 2861 3949 1939 3949 
Q 1018 3949 518 3904 
L 518 4429 
Q 1158 4384 2083 4384 
Q 3008 4384 3507 4429 
L 3507 3904 
z
M 2598 2797 
Q 3328 2797 3629 2842 
L 3629 2298 
Q 3072 2362 1981 2362 
Q 890 2362 346 2298 
L 346 2842 
Q 755 2797 1274 2797 
L 2189 2797 
Q 2406 3213 2598 3834 
Q 2899 3667 3136 3622 
Q 3181 3616 3181 3584 
Q 3181 3552 3104 3497 
Q 3027 3443 2598 2797 
z
M 1830 3098 
L 1306 2854 
Q 1242 3258 1018 3616 
L 1555 3827 
Q 1651 3450 1830 3098 
z
M 1350 102 
L 1350 -474 
L 800 -474 
Q 851 -102 851 320 
L 851 1158 
Q 851 1626 813 1850 
Q 1056 1805 2038 1805 
Q 3021 1805 3238 1850 
Q 3194 1536 3194 1158 
L 3194 410 
Q 3194 -45 3245 -390 
L 2694 -390 
L 2694 102 
L 1350 102 
z
M 2694 538 
L 2694 1382 
L 1350 1382 
L 1350 538 
L 2694 538 
z
" transform="scale(0.015625)"/>
       <path id="STHeiti-45" d="M 563 4979 
L 3200 4979 
L 3200 4525 
L 1024 4525 
L 1024 3091 
L 3181 3091 
L 3181 2643 
L 1024 2643 
L 1024 838 
L 3181 838 
L 3181 384 
L 563 384 
L 563 4979 
z
" transform="scale(0.015625)"/>
       <path id="STHeiti-78" d="M 1530 1805 
L 544 384 
L 26 384 
L 1267 2176 
L 147 3782 
L 672 3782 
L 1530 2554 
L 2381 3782 
L 2906 3782 
L 1792 2182 
L 3053 384 
L 2522 384 
L 1530 1805 
z
" transform="scale(0.015625)"/>
       <path id="STHeiti-63" d="M 4038 3078 
L 3693 2861 
Q 3245 3456 2464 3456 
Q 1850 3456 1434 3062 
Q 1018 2669 1018 2086 
Q 1018 1504 1427 1088 
Q 1837 672 2464 672 
Q 3213 672 3693 1267 
L 4038 1037 
Q 3782 666 3350 467 
Q 2918 269 2419 269 
Q 1632 269 1104 787 
Q 576 1306 576 2054 
Q 576 2803 1110 3337 
Q 1645 3872 2483 3872 
Q 2976 3872 3395 3661 
Q 3814 3450 4038 3078 
z
" transform="scale(0.015625)"/>
       <path id="STHeiti-65" d="M 3347 1485 
L 3718 1293 
Q 3168 269 2093 269 
Q 1325 269 825 797 
Q 326 1325 326 2067 
Q 326 2810 828 3341 
Q 1331 3872 2070 3872 
Q 2810 3872 3312 3379 
Q 3814 2886 3834 2035 
L 774 2035 
Q 794 1421 1162 1046 
Q 1530 672 2054 672 
Q 2918 672 3347 1485 
z
M 3347 2413 
Q 3258 2899 2899 3174 
Q 2541 3450 2074 3450 
Q 1114 3450 819 2413 
L 3347 2413 
z
" transform="scale(0.015625)"/>
       <path id="STHeiti-6c" d="M 422 5094 
L 858 5094 
L 858 384 
L 422 384 
L 422 5094 
z
" transform="scale(0.015625)"/>
      </defs>
      <use xlink:href="#STHeiti-5185"/>
      <use xlink:href="#STHeiti-90e8" transform="translate(99.999985 0)"/>
      <use xlink:href="#STHeiti-45" transform="translate(199.999969 0)"/>
      <use xlink:href="#STHeiti-78" transform="translate(253.59996 0)"/>
      <use xlink:href="#STHeiti-63" transform="translate(301.599945 0)"/>
      <use xlink:href="#STHeiti-65" transform="translate(366.299942 0)"/>
      <use xlink:href="#STHeiti-6c" transform="translate(431.299927 0)"/>
     </g>
    </g>
    <g id="line2d_29">
     <path d="M 33.38125 293.473901 
L 42.38125 293.473901 
L 51.38125 293.473901 
" style="fill: none; stroke: #d69e2e; stroke-width: 2; stroke-linecap: square"/>
     <g>
      <use xlink:href="#m1ab021f894" x="42.38125" y="293.473901" style="fill: #d69e2e; stroke: #d69e2e"/>
     </g>
    </g>
    <g id="text_14">
     <!-- 04报告（GGII/起点） -->
     <g transform="translate(58.58125 296.623901) scale(0.09 -0.09)">
      <defs>
       <path id="STHeiti-62a5" d="M 1421 2278 
L 1421 3456 
Q 749 3456 365 3398 
L 365 3949 
Q 698 3898 1421 3898 
Q 1421 5075 1363 5216 
Q 1536 5178 2003 5178 
Q 2125 5178 2125 5139 
Q 2125 5101 2032 5027 
Q 1939 4954 1939 4800 
L 1939 3904 
Q 2387 3910 2643 3949 
L 2643 3398 
Q 2336 3443 1939 3450 
L 1939 2445 
Q 2349 2598 2669 2758 
Q 2650 2451 2733 2208 
Q 2336 2086 1939 1939 
L 1939 230 
Q 1939 -77 1875 -208 
Q 1811 -339 1593 -412 
Q 1376 -486 838 -570 
Q 800 -256 531 64 
Q 979 58 1152 80 
Q 1325 102 1373 176 
Q 1421 250 1421 429 
L 1421 1747 
Q 902 1542 493 1325 
Q 442 1677 333 2010 
Q 902 2131 1421 2278 
z
M 3520 -147 
L 3520 -595 
L 2950 -595 
Q 2989 51 2989 870 
L 2989 4262 
Q 2989 4698 2970 4883 
Q 3347 4864 4272 4864 
Q 5197 4864 5555 4883 
Q 5517 3930 5392 3590 
Q 5267 3251 4352 3091 
Q 4275 3411 4038 3661 
Q 4531 3661 4704 3715 
Q 4877 3770 4934 3968 
Q 4992 4166 4966 4422 
L 3520 4422 
L 3520 2803 
L 4819 2803 
Q 5242 2803 5626 2848 
Q 5434 1440 4992 704 
Q 5485 237 6093 128 
Q 5818 -90 5728 -429 
Q 5114 -134 4691 346 
Q 4397 -83 3814 -454 
Q 3706 -269 3520 -147 
z
M 4205 2381 
Q 4333 1542 4672 1056 
Q 4973 1536 5011 2381 
L 4205 2381 
z
M 3520 -32 
Q 4058 288 4390 685 
Q 3962 1184 3744 2381 
L 3520 2381 
L 3520 -32 
z
" transform="scale(0.015625)"/>
       <path id="STHeiti-544a" d="M 3046 4186 
L 3046 4442 
Q 3046 5139 3002 5242 
Q 3302 5203 3482 5203 
L 3770 5203 
Q 3821 5203 3821 5174 
Q 3821 5146 3753 5110 
Q 3686 5075 3638 4976 
Q 3590 4877 3590 4768 
L 3590 4186 
Q 4890 4198 5408 4237 
L 5408 3712 
Q 4698 3757 3590 3763 
L 3590 2854 
Q 5184 2861 6035 2918 
L 6035 2374 
Q 5203 2432 3212 2432 
Q 1222 2432 390 2374 
L 390 2918 
Q 1312 2854 3046 2854 
L 3046 3763 
L 1728 3763 
Q 1606 3514 1440 3238 
Q 1158 3366 858 3398 
Q 1254 3808 1414 4256 
Q 1574 4704 1645 5062 
Q 1786 5005 1971 4957 
Q 2157 4909 2233 4909 
Q 2310 4909 2310 4880 
Q 2310 4851 2278 4826 
Q 2163 4730 1914 4186 
L 3046 4186 
z
M 1958 -64 
L 1958 -608 
L 1363 -608 
Q 1408 -307 1408 77 
L 1408 1306 
Q 1408 1690 1376 1875 
Q 1850 1798 3267 1798 
Q 4685 1798 5120 1875 
Q 5088 1709 5088 1306 
L 5088 141 
Q 5088 -186 5126 -582 
L 4531 -582 
L 4531 -64 
L 1958 -64 
z
M 4531 390 
L 4531 1389 
L 1958 1389 
L 1958 390 
L 4531 390 
z
" transform="scale(0.015625)"/>
       <path id="STHeiti-ff08" d="M 5651 -749 
L 5274 -749 
Q 4646 173 4409 835 
Q 4173 1498 4173 2266 
Q 4173 3034 4432 3750 
Q 4691 4467 5254 5267 
L 5645 5267 
Q 5082 4237 4928 3606 
Q 4774 2976 4774 2093 
Q 4774 1472 4953 861 
Q 5133 250 5651 -749 
z
" transform="scale(0.015625)"/>
       <path id="STHeiti-47" d="M 5318 4211 
L 4966 3872 
Q 4582 4243 4124 4441 
Q 3667 4640 3180 4640 
Q 2694 4640 2208 4377 
Q 1722 4115 1450 3670 
Q 1178 3226 1178 2707 
Q 1178 1901 1782 1302 
Q 2387 704 3296 704 
Q 3987 704 4483 1091 
Q 4979 1478 5075 2144 
L 3610 2144 
L 3610 2586 
L 5594 2586 
Q 5574 1491 4940 880 
Q 4307 269 3283 269 
Q 2106 269 1398 992 
Q 691 1715 691 2691 
Q 691 3667 1395 4380 
Q 2099 5094 3244 5094 
Q 4390 5094 5318 4211 
z
" transform="scale(0.015625)"/>
       <path id="STHeiti-49" d="M 493 4979 
L 954 4979 
L 954 384 
L 493 384 
L 493 4979 
z
" transform="scale(0.015625)"/>
       <path id="STHeiti-2f" d="M 2611 5094 
L 704 -243 
L 224 -243 
L 2131 5094 
L 2611 5094 
z
" transform="scale(0.015625)"/>
       <path id="STHeiti-8d77" d="M 2387 1811 
Q 3014 1818 3258 1856 
L 3258 1357 
Q 3014 1395 2387 1402 
L 2387 301 
Q 2912 64 3805 64 
Q 4698 64 6157 237 
Q 6035 0 5997 -358 
Q 4941 -410 3993 -410 
Q 3046 -410 2646 -307 
Q 2246 -205 1856 96 
Q 1466 397 1216 806 
Q 1050 45 800 -486 
Q 608 -275 371 -147 
Q 794 486 915 2150 
Q 1171 2093 1530 2093 
Q 1587 2093 1587 2064 
Q 1587 2035 1536 2003 
Q 1440 1939 1338 1434 
Q 1594 896 1907 614 
L 1907 2618 
Q 915 2618 563 2566 
L 563 3085 
Q 986 3034 1786 3034 
L 1786 3878 
Q 1139 3878 666 3834 
L 666 4339 
Q 1101 4288 1786 4288 
Q 1786 4947 1734 5254 
Q 1837 5229 2355 5229 
Q 2432 5229 2432 5203 
Q 2432 5178 2381 5146 
Q 2259 5062 2259 4902 
L 2259 4288 
Q 2630 4294 3021 4339 
L 3021 3834 
Q 2707 3872 2259 3878 
L 2259 3034 
Q 2810 3040 3200 3085 
L 3200 2566 
Q 2829 2605 2387 2611 
L 2387 1811 
z
M 5146 3174 
L 5146 4256 
Q 3725 4256 3379 4211 
L 3379 4774 
Q 3667 4723 4540 4723 
Q 5414 4723 5677 4774 
Q 5638 4390 5638 3981 
L 5638 3264 
Q 5638 2790 5683 2477 
L 5146 2477 
L 5146 2746 
L 4058 2746 
L 4058 1459 
Q 4058 1280 4093 1222 
Q 4128 1165 4569 1165 
Q 5011 1165 5168 1222 
Q 5325 1280 5478 1862 
Q 5709 1626 5965 1549 
Q 5818 1146 5734 1002 
Q 5651 858 5500 806 
Q 5350 755 4966 729 
Q 4582 704 4201 704 
Q 3821 704 3741 745 
Q 3661 787 3619 867 
Q 3578 947 3578 1402 
L 3578 2554 
Q 3578 2989 3526 3213 
Q 3789 3174 5146 3174 
z
" transform="scale(0.015625)"/>
       <path id="STHeiti-70b9" d="M 3238 3962 
L 3238 3206 
Q 4749 3206 5120 3270 
Q 5082 2893 5082 2217 
Q 5082 1542 5120 1248 
Q 4621 1299 3136 1299 
Q 1651 1299 1216 1235 
Q 1280 1734 1280 2268 
Q 1280 2803 1216 3270 
Q 1658 3213 2662 3206 
L 2662 4224 
Q 2662 4922 2598 5229 
Q 3040 5133 3354 5133 
Q 3450 5133 3450 5104 
Q 3450 5075 3376 5030 
Q 3302 4986 3270 4934 
Q 3238 4883 3238 4755 
L 3238 4429 
L 4358 4429 
Q 4998 4429 5594 4486 
L 5594 3904 
Q 5114 3962 4365 3962 
L 3238 3962 
z
M 4557 1754 
L 4557 2752 
L 1779 2752 
L 1779 1754 
L 4557 1754 
z
M 6022 -141 
L 5389 -397 
Q 5184 230 4781 813 
L 5267 998 
Q 5613 435 6022 -141 
z
M 1478 704 
Q 1107 -83 909 -538 
L 275 -294 
Q 800 250 1005 896 
L 1478 704 
z
M 4320 -250 
L 3706 -333 
Q 3584 314 3405 762 
L 3923 890 
Q 4083 352 4320 -250 
z
M 2835 -358 
L 2214 -422 
Q 2227 154 2080 653 
L 2605 710 
Q 2714 64 2835 -358 
z
" transform="scale(0.015625)"/>
       <path id="STHeiti-ff09" d="M 1120 5267 
Q 1747 4346 1984 3683 
Q 2221 3021 2221 2253 
Q 2221 1485 1961 768 
Q 1702 51 1139 -749 
L 749 -749 
Q 1312 282 1465 912 
Q 1619 1542 1619 2426 
Q 1619 3046 1440 3657 
Q 1261 4269 742 5267 
L 1120 5267 
z
" transform="scale(0.015625)"/>
      </defs>
      <use xlink:href="#STHeiti-30"/>
      <use xlink:href="#STHeiti-34" transform="translate(55.399994 0)"/>
      <use xlink:href="#STHeiti-62a5" transform="translate(110.799988 0)"/>
      <use xlink:href="#STHeiti-544a" transform="translate(210.799973 0)"/>
      <use xlink:href="#STHeiti-ff08" transform="translate(310.799957 0)"/>
      <use xlink:href="#STHeiti-47" transform="translate(410.799942 0)"/>
      <use xlink:href="#STHeiti-47" transform="translate(497.999924 0)"/>
      <use xlink:href="#STHeiti-49" transform="translate(585.199905 0)"/>
      <use xlink:href="#STHeiti-49" transform="translate(607.799896 0)"/>
      <use xlink:href="#STHeiti-2f" transform="translate(630.399887 0)"/>
      <use xlink:href="#STHeiti-8d77" transform="translate(674.099884 0)"/>
      <use xlink:href="#STHeiti-70b9" transform="translate(774.099869 0)"/>
      <use xlink:href="#STHeiti-ff09" transform="translate(874.099854 0)"/>
     </g>
    </g>
    <g id="line2d_30">
     <path d="M 33.38125 306.343901 
L 42.38125 306.343901 
L 51.38125 306.343901 
" style="fill: none; stroke: #38a169; stroke-width: 2; stroke-linecap: square"/>
     <g>
      <use xlink:href="#m90f9972d2a" x="42.38125" y="306.343901" style="fill: #38a169; stroke: #38a169"/>
     </g>
    </g>
    <g id="text_15">
     <!-- 偏差 -->
     <g transform="translate(58.58125 309.493901) scale(0.09 -0.09)">
      <defs>
       <path id="STHeiti-504f" d="M 4378 1037 
L 3891 1037 
Q 3891 448 3923 -13 
L 3405 -13 
Q 3450 416 3450 1037 
L 2886 1037 
L 2886 -544 
L 2381 -544 
Q 2445 -83 2445 339 
L 2445 1786 
Q 2266 1286 1907 646 
Q 1811 890 1619 1101 
Q 1997 1626 2160 2314 
Q 2323 3002 2323 3584 
Q 2323 4166 2272 4576 
Q 2502 4531 3840 4531 
Q 3770 4826 3648 5101 
L 4173 5248 
Q 4282 4915 4371 4531 
Q 5331 4531 5626 4576 
Q 5594 4160 5594 3817 
Q 5594 3475 5626 3066 
Q 5434 3104 4454 3104 
L 2752 3104 
Q 2726 2880 2662 2586 
L 4230 2586 
Q 5235 2586 5850 2624 
L 5850 179 
Q 5850 -173 5802 -313 
Q 5754 -454 5603 -508 
Q 5453 -563 5043 -614 
Q 5018 -333 4813 -77 
Q 4998 -90 5136 -90 
Q 5274 -90 5341 -45 
Q 5408 0 5408 173 
L 5408 1037 
L 4819 1037 
Q 4819 474 4851 6 
L 4339 6 
Q 4378 582 4378 1037 
z
M 5152 3507 
L 5152 4128 
L 2765 4128 
L 2765 3507 
L 5152 3507 
z
M 4819 1421 
L 5408 1421 
L 5408 2202 
L 4819 2202 
L 4819 1421 
z
M 3891 1421 
L 4378 1421 
L 4378 2202 
L 3891 2202 
L 3891 1421 
z
M 2886 1421 
L 3450 1421 
L 3450 2202 
L 2886 2202 
L 2886 1421 
z
M 1146 2970 
Q 838 2387 627 2086 
Q 506 2310 243 2490 
Q 589 2874 944 3597 
Q 1299 4320 1549 5094 
Q 1824 4979 2074 4941 
Q 2176 4928 2176 4889 
Q 2176 4851 2067 4742 
Q 1958 4634 1581 3859 
L 1581 -595 
L 1075 -595 
Q 1146 96 1146 762 
L 1146 2970 
z
" transform="scale(0.015625)"/>
       <path id="STHeiti-5dee" d="M 2848 3898 
Q 1523 3898 755 3840 
L 755 4352 
Q 1434 4288 3571 4288 
Q 3866 4698 4013 5190 
Q 4378 5062 4640 5011 
Q 4717 4998 4717 4966 
Q 4717 4934 4627 4902 
Q 4480 4851 4038 4294 
Q 4947 4301 5562 4352 
L 5562 3840 
Q 4896 3898 3360 3898 
Q 3322 3686 3238 3392 
Q 4666 3392 5344 3450 
L 5344 2938 
Q 4614 2995 3104 2995 
Q 2989 2682 2848 2432 
Q 5152 2432 5869 2490 
L 5869 1971 
Q 5197 2022 2611 2022 
Q 2259 1466 1849 1030 
Q 1440 595 736 83 
Q 608 339 333 493 
Q 1523 1165 2086 2016 
Q 1126 2010 550 1971 
L 550 2490 
Q 1350 2445 2336 2438 
Q 2483 2701 2598 2995 
Q 1651 2989 1056 2938 
L 1056 3450 
Q 1715 3398 2739 3392 
Q 2810 3648 2848 3898 
z
M 2765 4544 
L 2227 4333 
Q 2099 4614 1850 4896 
L 2394 5165 
Q 2528 4883 2765 4544 
z
M 3814 1075 
L 3814 115 
Q 5043 115 5747 173 
L 5747 -365 
Q 4979 -307 3587 -307 
Q 2195 -307 1427 -365 
L 1427 173 
Q 2144 122 3315 115 
L 3315 1069 
Q 2752 1069 2291 1018 
L 2291 1478 
L 3776 1478 
Q 4723 1478 5267 1536 
L 5267 1018 
Q 4730 1075 3814 1075 
z
" transform="scale(0.015625)"/>
      </defs>
      <use xlink:href="#STHeiti-504f"/>
      <use xlink:href="#STHeiti-5dee" transform="translate(99.999985 0)"/>
     </g>
    </g>
   </g>
  </g>
 </g>
 <defs>
  <clipPath id="p9e686809c7">
   <rect x="25.28125" y="7.2" width="680.24" height="311.600464"/>
  </clipPath>
 </defs>
</svg>
