<?xml version="1.0" encoding="utf-8" standalone="no"?>
<!DOCTYPE svg PUBLIC "-//W3C//DTD SVG 1.1//EN"
  "http://www.w3.org/Graphics/SVG/1.1/DTD/svg11.dtd">
<svg xmlns:xlink="http://www.w3.org/1999/xlink" width="708.753601pt" height="352.364228pt" viewBox="0 0 708.753601 352.364228" xmlns="http://www.w3.org/2000/svg" version="1.1">
 <metadata>
  <rdf:RDF xmlns:dc="http://purl.org/dc/elements/1.1/" xmlns:cc="http://creativecommons.org/ns#" xmlns:rdf="http://www.w3.org/1999/02/22-rdf-syntax-ns#">
   <cc:Work>
    <dc:type rdf:resource="http://purl.org/dc/dcmitype/StillImage"/>
    <dc:date>2026-06-05T07:52:32.018450</dc:date>
    <dc:format>image/svg+xml</dc:format>
    <dc:creator>
     <cc:Agent>
      <dc:title>Matplotlib v3.10.9, https://matplotlib.org/</dc:title>
     </cc:Agent>
    </dc:creator>
   </cc:Work>
  </rdf:RDF>
 </metadata>
 <defs>
  <style type="text/css">*{stroke-linejoin: round; stroke-linecap: butt}</style>
 </defs>
 <g id="figure_1">
  <g id="patch_1">
   <path d="M 0 352.364228 
L 708.753601 352.364228 
L 708.753601 0 
L 0 0 
z
" style="fill: #ffffff"/>
  </g>
  <g id="axes_1">
   <g id="patch_2">
    <path d="M 63.656116 263.945464 
L 701.553601 263.945464 
L 701.553601 7.2 
L 63.656116 7.2 
z
" style="fill: #fafafa"/>
   </g>
   <g id="matplotlib.axis_1">
    <g id="xtick_1">
     <g id="line2d_1">
      <path d="M 92.651456 263.945464 
L 92.651456 7.2 
" clip-path="url(#pf759fb48e4)" style="fill: none; stroke: #b0b0b0; stroke-opacity: 0.3; stroke-width: 0.8; stroke-linecap: square"/>
     </g>
     <g id="line2d_2">
      <defs>
       <path id="m1df0245bbe" d="M 0 0 
L 0 3.5 
" style="stroke: #000000; stroke-width: 0.8"/>
      </defs>
      <g>
       <use xlink:href="#m1df0245bbe" x="92.651456" y="263.945464" style="stroke: #000000; stroke-width: 0.8"/>
      </g>
     </g>
     <g id="text_1">
      <!-- 宁德时代（300750） -->
      <g transform="translate(11.229687 324.546962) rotate(-30) scale(0.1 -0.1)">
       <defs>
        <path id="STHeiti-5b81" d="M 3155 4314 
Q 3059 4730 2848 5101 
L 3520 5267 
Q 3603 4864 3789 4314 
Q 5459 4326 5766 4365 
L 5766 3213 
L 5222 3213 
L 5222 3840 
L 1190 3840 
L 1190 3066 
L 659 3066 
L 659 4365 
Q 1082 4314 3155 4314 
z
M 3680 2234 
L 3680 -32 
Q 3680 -243 3603 -348 
Q 3526 -454 3299 -528 
Q 3072 -602 2554 -691 
Q 2515 -410 2195 6 
Q 2413 -38 2621 -38 
Q 2829 -38 2963 45 
Q 3098 128 3098 262 
L 3098 2234 
Q 1555 2234 653 2163 
L 653 2784 
Q 1555 2720 3276 2720 
Q 4998 2720 5888 2784 
L 5888 2163 
Q 4986 2227 3680 2234 
z
" transform="scale(0.015625)"/>
        <path id="STHeiti-5fb7" d="M 3981 4173 
Q 3923 3917 3898 3699 
Q 4928 3693 5632 3738 
Q 5606 3405 5606 2976 
Q 5606 2547 5632 2214 
Q 5088 2253 3981 2253 
Q 2874 2253 2330 2214 
Q 2355 2547 2355 2976 
Q 2355 3405 2330 3738 
Q 2886 3699 3488 3699 
Q 3552 4038 3571 4173 
Q 2618 4166 2150 4134 
L 2150 4582 
Q 2438 4550 3616 4544 
Q 3629 4730 3629 4899 
Q 3629 5069 3603 5197 
Q 3955 5094 4224 5094 
Q 4314 5094 4314 5059 
Q 4314 5024 4259 4989 
Q 4205 4954 4169 4870 
Q 4134 4787 4077 4544 
Q 5498 4544 5875 4570 
L 5875 4134 
Q 5427 4173 3981 4173 
z
M 4237 3341 
L 3699 3341 
L 3699 2611 
L 4237 2611 
L 4237 3341 
z
M 5184 3341 
L 4640 3341 
L 4640 2611 
L 5184 2611 
L 5184 3341 
z
M 3309 3341 
L 2765 3341 
L 2765 2611 
L 3309 2611 
L 3309 3341 
z
M 1427 5094 
Q 1754 4909 1971 4851 
Q 2061 4826 2061 4800 
Q 2061 4774 1984 4730 
Q 1933 4698 1421 4064 
Q 909 3430 666 3098 
Q 538 3386 314 3526 
Q 717 3866 1024 4298 
Q 1331 4730 1427 5094 
z
M 1498 2688 
L 1498 -563 
L 973 -563 
Q 1030 -115 1030 467 
L 1030 2016 
Q 838 1734 538 1370 
Q 429 1658 250 1850 
Q 672 2176 1059 2726 
Q 1446 3277 1619 3827 
Q 1850 3597 2086 3514 
Q 2157 3488 2157 3446 
Q 2157 3405 2074 3379 
Q 1946 3347 1498 2688 
z
M 5786 1901 
L 5786 1466 
Q 5318 1504 3891 1504 
Q 2464 1504 1997 1466 
L 1997 1914 
Q 2458 1875 3930 1875 
Q 5402 1875 5786 1901 
z
M 4486 589 
L 3955 397 
Q 3872 877 3642 1235 
L 4154 1382 
Q 4256 1030 4486 589 
z
M 6131 282 
L 5626 -109 
Q 5504 141 5251 470 
Q 4998 800 4813 954 
L 5222 1248 
Q 5600 768 6131 282 
z
M 5203 307 
Q 5082 -96 4880 -249 
Q 4678 -403 3923 -403 
Q 3450 -403 3232 -358 
Q 3014 -314 2944 -214 
Q 2874 -115 2874 102 
L 2874 768 
Q 2874 966 2854 1133 
Q 3014 1082 3366 1082 
Q 3418 1082 3418 1053 
Q 3418 1024 3379 976 
Q 3341 928 3325 851 
Q 3309 774 3309 704 
L 3309 218 
Q 3309 77 3417 35 
Q 3526 -6 3910 -6 
Q 4294 -6 4444 29 
Q 4595 64 4649 169 
Q 4704 275 4717 538 
Q 4870 333 5203 307 
z
M 2650 954 
Q 2349 109 2227 -365 
L 1690 -166 
Q 2061 371 2189 1037 
L 2650 954 
z
" transform="scale(0.015625)"/>
        <path id="STHeiti-65f6" d="M 4851 3795 
Q 4851 4909 4781 5261 
Q 4979 5229 5421 5229 
Q 5530 5229 5530 5184 
Q 5530 5158 5491 5133 
Q 5376 5069 5376 4883 
L 5376 3802 
Q 5728 3808 6144 3846 
L 6144 3258 
Q 5862 3290 5376 3302 
L 5376 83 
Q 5376 -186 5299 -310 
Q 5222 -435 4988 -502 
Q 4755 -570 4230 -614 
Q 4192 -224 3962 70 
Q 4230 51 4428 51 
Q 4627 51 4739 89 
Q 4851 128 4851 275 
L 4851 3309 
L 4077 3309 
Q 3379 3309 2867 3258 
L 2867 3846 
Q 3373 3795 4077 3795 
L 4851 3795 
z
M 1165 634 
L 1165 -224 
L 627 -224 
Q 672 173 672 627 
L 672 3949 
Q 672 4422 634 4659 
Q 864 4608 1683 4608 
Q 2502 4608 2726 4659 
Q 2688 4435 2688 3949 
L 2688 896 
Q 2688 486 2733 51 
L 2195 51 
L 2195 634 
L 1165 634 
z
M 2195 2829 
L 2195 4154 
L 1165 4154 
L 1165 2829 
L 2195 2829 
z
M 2195 1062 
L 2195 2381 
L 1165 2381 
L 1165 1062 
L 2195 1062 
z
M 4243 1574 
L 3674 1370 
Q 3526 1933 3238 2579 
L 3757 2758 
Q 3891 2163 4243 1574 
z
" transform="scale(0.015625)"/>
        <path id="STHeiti-4ee3" d="M 3904 2630 
Q 4013 1907 4269 1305 
Q 4525 704 4829 406 
Q 5133 109 5248 109 
Q 5331 109 5411 345 
Q 5491 582 5568 909 
Q 5754 595 6118 538 
Q 5914 -141 5776 -365 
Q 5638 -589 5459 -589 
Q 5190 -589 4752 -278 
Q 4314 32 3965 710 
Q 3616 1389 3398 2515 
Q 2509 2304 2208 2202 
L 2099 2765 
Q 2566 2803 3315 2976 
Q 3142 4064 3104 5190 
Q 3366 5152 3597 5152 
L 3866 5165 
Q 3942 5165 3942 5129 
Q 3942 5094 3849 4995 
Q 3757 4896 3757 4461 
Q 3757 4026 3846 3098 
L 4352 3219 
Q 5306 3443 5677 3597 
L 5843 3040 
Q 5562 3021 4499 2771 
L 3904 2630 
z
M 1248 2566 
Q 966 2042 710 1709 
Q 525 2035 294 2227 
Q 806 2701 1123 3478 
Q 1440 4256 1549 5094 
Q 1901 4973 2227 4922 
Q 2342 4902 2342 4864 
Q 2342 4826 2227 4749 
Q 2176 4717 2089 4531 
Q 2003 4346 1773 3757 
L 1773 -653 
L 1178 -653 
Q 1248 -38 1248 614 
L 1248 2566 
z
M 5357 4096 
L 4800 3738 
Q 4557 4243 4256 4614 
L 4787 4915 
Q 5120 4493 5357 4096 
z
" transform="scale(0.015625)"/>
        <path id="STHeiti-ff08" d="M 5651 -749 
L 5274 -749 
Q 4646 173 4409 835 
Q 4173 1498 4173 2266 
Q 4173 3034 4432 3750 
Q 4691 4467 5254 5267 
L 5645 5267 
Q 5082 4237 4928 3606 
Q 4774 2976 4774 2093 
Q 4774 1472 4953 861 
Q 5133 250 5651 -749 
z
" transform="scale(0.015625)"/>
        <path id="STHeiti-33" d="M 845 3917 
L 378 3917 
Q 506 4486 867 4790 
Q 1229 5094 1750 5094 
Q 2272 5094 2659 4748 
Q 3046 4403 3046 3910 
Q 3046 3315 2458 2970 
Q 2861 2803 3081 2473 
Q 3302 2144 3302 1754 
Q 3302 1146 2857 707 
Q 2413 269 1734 269 
Q 1133 269 742 611 
Q 352 954 224 1613 
L 672 1613 
Q 794 1158 1046 937 
Q 1299 717 1760 717 
Q 2221 717 2534 1011 
Q 2848 1306 2848 1741 
Q 2848 2176 2502 2441 
Q 2157 2707 1498 2720 
L 1498 3142 
Q 1971 3142 2268 3360 
Q 2566 3578 2566 3901 
Q 2566 4224 2326 4438 
Q 2086 4653 1747 4653 
Q 1408 4653 1200 4470 
Q 992 4288 845 3917 
z
" transform="scale(0.015625)"/>
        <path id="STHeiti-30" d="M 1747 269 
Q 1005 269 605 880 
Q 205 1491 205 2681 
Q 205 3872 605 4483 
Q 1005 5094 1741 5094 
Q 2477 5094 2909 4470 
Q 3341 3846 3341 2681 
Q 3341 1517 2905 893 
Q 2470 269 1747 269 
z
M 1760 4659 
Q 1229 4659 934 4147 
Q 640 3635 640 2669 
Q 640 685 1760 685 
Q 2304 685 2608 1206 
Q 2912 1728 2912 2681 
Q 2912 3635 2598 4147 
Q 2285 4659 1760 4659 
z
" transform="scale(0.015625)"/>
        <path id="STHeiti-37" d="M 461 4979 
L 3373 4979 
L 915 269 
L 538 461 
L 2662 4544 
L 461 4544 
L 461 4979 
z
" transform="scale(0.015625)"/>
        <path id="STHeiti-35" d="M 3149 4979 
L 3149 4544 
L 1510 4544 
L 1280 3290 
Q 1587 3379 1856 3379 
Q 2458 3379 2861 2953 
Q 3264 2528 3264 1862 
Q 3264 1197 2825 733 
Q 2387 269 1664 269 
Q 1114 269 726 598 
Q 339 928 262 1498 
L 730 1498 
Q 813 1114 1075 909 
Q 1338 704 1683 704 
Q 2138 704 2467 1043 
Q 2797 1382 2797 1888 
Q 2797 2349 2509 2646 
Q 2221 2944 1757 2944 
Q 1293 2944 730 2701 
L 1158 4979 
L 3149 4979 
z
" transform="scale(0.015625)"/>
        <path id="STHeiti-ff09" d="M 1120 5267 
Q 1747 4346 1984 3683 
Q 2221 3021 2221 2253 
Q 2221 1485 1961 768 
Q 1702 51 1139 -749 
L 749 -749 
Q 1312 282 1465 912 
Q 1619 1542 1619 2426 
Q 1619 3046 1440 3657 
Q 1261 4269 742 5267 
L 1120 5267 
z
" transform="scale(0.015625)"/>
       </defs>
       <use xlink:href="#STHeiti-5b81"/>
       <use xlink:href="#STHeiti-5fb7" transform="translate(99.999985 0)"/>
       <use xlink:href="#STHeiti-65f6" transform="translate(199.999969 0)"/>
       <use xlink:href="#STHeiti-4ee3" transform="translate(299.999954 0)"/>
       <use xlink:href="#STHeiti-ff08" transform="translate(399.999939 0)"/>
       <use xlink:href="#STHeiti-33" transform="translate(499.999924 0)"/>
       <use xlink:href="#STHeiti-30" transform="translate(555.399918 0)"/>
       <use xlink:href="#STHeiti-30" transform="translate(610.799911 0)"/>
       <use xlink:href="#STHeiti-37" transform="translate(666.199905 0)"/>
       <use xlink:href="#STHeiti-35" transform="translate(721.599899 0)"/>
       <use xlink:href="#STHeiti-30" transform="translate(776.999893 0)"/>
       <use xlink:href="#STHeiti-ff09" transform="translate(832.399887 0)"/>
      </g>
     </g>
    </g>
    <g id="xtick_2">
     <g id="line2d_3">
      <path d="M 175.495286 263.945464 
L 175.495286 7.2 
" clip-path="url(#pf759fb48e4)" style="fill: none; stroke: #b0b0b0; stroke-opacity: 0.3; stroke-width: 0.8; stroke-linecap: square"/>
     </g>
     <g id="line2d_4">
      <g>
       <use xlink:href="#m1df0245bbe" x="175.495286" y="263.945464" style="stroke: #000000; stroke-width: 0.8"/>
      </g>
     </g>
     <g id="text_2">
      <!-- 博力威（688345） -->
      <g transform="translate(102.733771 319.607855) rotate(-30) scale(0.1 -0.1)">
       <defs>
        <path id="STHeiti-535a" d="M 5325 4704 
L 4781 4493 
Q 4710 4710 4480 4960 
L 5018 5158 
Q 5114 4973 5325 4704 
z
M 3539 4070 
Q 2573 4064 2042 4019 
L 2042 4506 
Q 2413 4461 3539 4454 
Q 3533 4947 3488 5139 
Q 3744 5101 3949 5101 
Q 4154 5101 4154 5078 
Q 4154 5056 4102 5030 
Q 4051 5005 4022 4925 
Q 3994 4845 3994 4794 
L 3994 4454 
Q 5152 4454 5843 4506 
L 5843 4019 
Q 5190 4070 3994 4070 
L 3994 3674 
Q 5075 3674 5478 3725 
Q 5434 3411 5434 3078 
L 5434 2349 
Q 5434 2176 5472 1498 
L 4954 1498 
L 4954 1869 
L 3994 1869 
Q 4000 1568 4032 1382 
L 3494 1382 
Q 3526 1542 3539 1869 
L 2694 1869 
L 2694 1370 
L 2208 1370 
Q 2240 1690 2240 2234 
L 2240 3078 
Q 2240 3411 2195 3725 
Q 2566 3680 3539 3674 
L 3539 4070 
z
M 3539 2912 
L 3539 3328 
L 2694 3328 
L 2694 2912 
L 3539 2912 
z
M 3994 3328 
L 3994 2912 
L 4954 2912 
L 4954 3328 
L 3994 3328 
z
M 3539 2163 
L 3539 2598 
L 2694 2598 
L 2694 2163 
L 3539 2163 
z
M 3994 2598 
L 3994 2163 
L 4954 2163 
L 4954 2598 
L 3994 2598 
z
M 1478 2931 
L 1478 646 
Q 1478 -32 1517 -589 
L 941 -589 
Q 1005 96 1005 646 
L 1005 2938 
Q 538 2925 301 2886 
L 301 3392 
Q 486 3354 1005 3341 
L 1005 3738 
Q 1005 4787 941 5082 
Q 966 5062 1530 5062 
Q 1613 5062 1613 5017 
Q 1613 4973 1545 4899 
Q 1478 4826 1478 4691 
L 1478 3341 
Q 1862 3354 2074 3392 
L 2074 2886 
Q 1907 2918 1478 2931 
z
M 5146 730 
L 5146 -6 
Q 5146 -243 5088 -352 
Q 5030 -461 4848 -518 
Q 4666 -576 4218 -640 
Q 4198 -486 4019 -77 
Q 4205 -90 4381 -90 
Q 4557 -90 4621 -26 
Q 4685 38 4685 230 
L 4685 730 
L 2963 730 
Q 2234 730 1875 691 
L 1875 1165 
Q 2253 1114 2957 1114 
L 4678 1114 
Q 4666 1338 4640 1485 
Q 4877 1440 5056 1440 
Q 5235 1440 5235 1408 
Q 5235 1376 5200 1325 
Q 5165 1274 5152 1114 
Q 5594 1126 5990 1165 
L 5990 691 
Q 5651 717 5146 730 
z
M 3469 -64 
L 2944 -243 
Q 2810 128 2579 461 
L 3066 646 
Q 3296 314 3469 -64 
z
" transform="scale(0.015625)"/>
        <path id="STHeiti-529b" d="M 3270 3386 
Q 3066 1760 2554 989 
Q 2042 218 947 -499 
Q 678 -230 378 -109 
Q 1453 358 2032 1248 
Q 2611 2138 2682 3386 
Q 1248 3386 781 3328 
L 781 3923 
Q 1203 3872 2714 3866 
Q 2797 5082 2778 5267 
Q 3104 5139 3507 5114 
Q 3610 5107 3610 5062 
Q 3610 5018 3533 4966 
Q 3482 4928 3443 4742 
Q 3405 4557 3328 3866 
Q 5395 3866 5715 3923 
L 5389 582 
Q 5350 198 5241 6 
Q 5133 -186 4848 -304 
Q 4563 -422 3936 -538 
Q 3853 -122 3661 141 
Q 4154 134 4387 185 
Q 4621 237 4713 381 
Q 4806 525 4838 832 
L 5094 3386 
L 3270 3386 
z
" transform="scale(0.015625)"/>
        <path id="STHeiti-5a01" d="M 5536 4749 
L 5011 4474 
Q 4890 4819 4678 5075 
L 5184 5312 
Q 5363 4986 5536 4749 
z
M 3782 3814 
L 1389 3814 
Q 1402 3507 1402 3129 
Q 1402 2752 1376 2342 
L 2093 2342 
Q 2182 2624 2246 2880 
Q 1926 2874 1690 2842 
L 1690 3328 
Q 1946 3290 2630 3290 
Q 3315 3290 3565 3328 
L 3565 2842 
Q 3258 2880 2746 2880 
L 2547 2342 
Q 3315 2342 3622 2381 
Q 3430 1478 3162 986 
Q 3398 902 3744 749 
Q 3584 512 3494 262 
Q 3251 429 2906 608 
Q 2464 90 1466 -256 
Q 1344 19 1107 186 
Q 2080 403 2490 794 
Q 2125 954 1613 1107 
Q 1766 1414 1958 1933 
L 1350 1933 
Q 1235 346 717 -474 
Q 499 -352 179 -307 
Q 538 141 698 851 
Q 858 1562 858 2483 
Q 858 3405 800 4333 
Q 1658 4269 3750 4288 
Q 3686 5075 3674 5286 
Q 3878 5242 4141 5242 
L 4378 5254 
Q 4429 5254 4429 5225 
Q 4429 5197 4368 5142 
Q 4307 5088 4291 4915 
Q 4275 4742 4275 4288 
Q 5683 4307 5901 4333 
L 5901 3770 
Q 5645 3802 4282 3814 
Q 4339 2336 4595 1485 
Q 4915 2131 4986 3315 
Q 5402 3194 5626 3174 
Q 5683 3168 5683 3133 
Q 5683 3098 5613 3072 
Q 5517 3034 5389 2490 
Q 5171 1542 4800 954 
Q 5197 109 5389 109 
Q 5549 109 5632 723 
Q 5888 448 6080 403 
Q 5926 -70 5782 -307 
Q 5638 -544 5472 -544 
Q 5306 -544 5046 -297 
Q 4787 -51 4486 518 
Q 4128 83 3424 -499 
Q 3258 -288 2925 -186 
Q 3789 333 4275 960 
Q 3968 1766 3782 3814 
z
M 2400 1933 
L 2182 1344 
Q 2464 1254 2765 1139 
Q 2944 1440 3053 1933 
L 2400 1933 
z
" transform="scale(0.015625)"/>
        <path id="STHeiti-36" d="M 2349 5094 
L 2726 4851 
L 1485 2970 
Q 1747 3059 1984 3059 
Q 2496 3059 2880 2652 
Q 3264 2246 3264 1660 
Q 3264 1075 2845 672 
Q 2426 269 1827 269 
Q 1229 269 829 678 
Q 429 1088 429 1677 
Q 429 1958 537 2256 
Q 646 2554 954 3014 
L 2349 5094 
z
M 2810 1683 
Q 2810 2086 2528 2368 
Q 2246 2650 1843 2650 
Q 1440 2650 1158 2368 
Q 877 2086 877 1683 
Q 877 1280 1161 998 
Q 1446 717 1843 717 
Q 2240 717 2525 998 
Q 2810 1280 2810 1683 
z
" transform="scale(0.015625)"/>
        <path id="STHeiti-38" d="M 2458 2906 
Q 3328 2477 3328 1702 
Q 3328 1088 2896 678 
Q 2464 269 1763 269 
Q 1062 269 640 678 
Q 218 1088 218 1664 
Q 218 2470 1107 2906 
Q 435 3264 435 3898 
Q 435 4371 828 4732 
Q 1222 5094 1779 5094 
Q 2336 5094 2726 4742 
Q 3117 4390 3117 3885 
Q 3117 3270 2458 2906 
z
M 2656 3904 
Q 2656 4211 2416 4432 
Q 2176 4653 1789 4653 
Q 1402 4653 1152 4432 
Q 902 4211 902 3897 
Q 902 3584 1174 3337 
Q 1446 3091 1792 3091 
Q 2138 3091 2397 3334 
Q 2656 3578 2656 3904 
z
M 2867 1696 
Q 2867 2086 2550 2380 
Q 2234 2675 1782 2675 
Q 1331 2675 1004 2371 
Q 678 2067 678 1654 
Q 678 1242 979 973 
Q 1280 704 1766 704 
Q 2253 704 2560 992 
Q 2867 1280 2867 1696 
z
" transform="scale(0.015625)"/>
        <path id="STHeiti-34" d="M 2726 5094 
L 2816 5094 
L 2816 1894 
L 3373 1894 
L 3373 1453 
L 2816 1453 
L 2816 384 
L 2362 384 
L 2362 1453 
L 160 1453 
L 2726 5094 
z
M 2362 1894 
L 2362 3808 
L 1005 1894 
L 2362 1894 
z
" transform="scale(0.015625)"/>
       </defs>
       <use xlink:href="#STHeiti-535a"/>
       <use xlink:href="#STHeiti-529b" transform="translate(99.999985 0)"/>
       <use xlink:href="#STHeiti-5a01" transform="translate(199.999969 0)"/>
       <use xlink:href="#STHeiti-ff08" transform="translate(299.999954 0)"/>
       <use xlink:href="#STHeiti-36" transform="translate(399.999939 0)"/>
       <use xlink:href="#STHeiti-38" transform="translate(455.399933 0)"/>
       <use xlink:href="#STHeiti-38" transform="translate(510.799927 0)"/>
       <use xlink:href="#STHeiti-33" transform="translate(566.199921 0)"/>
       <use xlink:href="#STHeiti-34" transform="translate(621.599915 0)"/>
       <use xlink:href="#STHeiti-35" transform="translate(676.999908 0)"/>
       <use xlink:href="#STHeiti-ff09" transform="translate(732.399902 0)"/>
      </g>
     </g>
    </g>
    <g id="xtick_3">
     <g id="line2d_5">
      <path d="M 258.339115 263.945464 
L 258.339115 7.2 
" clip-path="url(#pf759fb48e4)" style="fill: none; stroke: #b0b0b0; stroke-opacity: 0.3; stroke-width: 0.8; stroke-linecap: square"/>
     </g>
     <g id="line2d_6">
      <g>
       <use xlink:href="#m1df0245bbe" x="258.339115" y="263.945464" style="stroke: #000000; stroke-width: 0.8"/>
      </g>
     </g>
     <g id="text_3">
      <!-- 德方纳米（300769）FY2025 -->
      <g transform="translate(148.396694 341.013369) rotate(-30) scale(0.1 -0.1)">
       <defs>
        <path id="STHeiti-65b9" d="M 3654 4378 
L 2982 4134 
Q 2874 4563 2630 5005 
L 3322 5222 
Q 3424 4800 3654 4378 
z
M 2854 2758 
L 4499 2758 
Q 4890 2758 5152 2790 
L 4947 454 
Q 4915 83 4825 -89 
Q 4736 -262 4493 -364 
Q 4250 -467 3699 -550 
Q 3642 -141 3283 224 
Q 3597 154 3814 154 
Q 4307 154 4358 563 
L 4557 2259 
L 2797 2259 
Q 2688 1363 2365 784 
Q 2042 205 1210 -525 
Q 1018 -198 589 -77 
Q 1043 147 1388 496 
Q 1734 845 1952 1286 
Q 2170 1728 2246 2227 
Q 2323 2726 2342 3571 
Q 1184 3565 461 3526 
L 461 4102 
Q 1370 4058 3226 4058 
Q 5082 4058 5958 4102 
L 5958 3526 
Q 5050 3571 2938 3571 
Q 2899 3123 2854 2758 
z
" transform="scale(0.015625)"/>
        <path id="STHeiti-7eb3" d="M 4333 2234 
Q 4154 1549 3814 992 
Q 3661 1114 3379 1222 
Q 3968 2125 4096 3654 
L 3309 3654 
L 3309 -582 
L 2752 -582 
Q 2810 -58 2810 454 
L 2810 3130 
Q 2810 3814 2758 4166 
Q 3059 4102 4122 4109 
Q 4128 4563 4077 5254 
Q 4422 5184 4787 5184 
Q 4864 5184 4864 5149 
Q 4864 5114 4809 5085 
Q 4755 5056 4707 4867 
Q 4659 4678 4652 4505 
Q 4646 4333 4627 4109 
Q 5619 4115 5901 4166 
Q 5862 3885 5862 3130 
L 5862 83 
Q 5862 -179 5804 -300 
Q 5747 -422 5536 -489 
Q 5325 -557 4832 -608 
Q 4794 -262 4525 32 
Q 4794 -6 4982 -6 
Q 5171 -6 5267 64 
Q 5363 134 5363 339 
L 5363 1395 
Q 5158 1274 4941 1088 
Q 4659 1709 4333 2234 
z
M 4595 3654 
Q 4563 3194 4454 2739 
Q 5107 1907 5363 1472 
L 5363 3654 
L 4595 3654 
z
M 1581 2797 
L 1005 2720 
Q 634 2675 518 2630 
Q 467 2950 378 3123 
Q 614 3296 931 3862 
Q 1248 4429 1498 5178 
Q 1824 4960 2080 4890 
Q 2176 4858 2176 4819 
Q 2176 4781 2093 4752 
Q 2010 4723 1795 4419 
Q 1581 4115 973 3110 
L 1818 3226 
Q 1952 3482 2170 3949 
Q 2458 3706 2714 3661 
Q 2790 3648 2790 3613 
Q 2790 3578 2729 3555 
Q 2669 3533 2579 3421 
Q 2490 3309 2112 2790 
L 1267 1626 
Q 1875 1651 2592 1728 
Q 2554 1581 2554 1459 
Q 2554 1338 2560 1267 
L 1376 1152 
Q 877 1114 614 1030 
Q 614 1312 499 1555 
Q 960 1741 1581 2797 
z
M 2554 602 
Q 2451 435 2451 205 
Q 2451 141 2458 83 
Q 1139 -64 570 -301 
Q 557 58 410 384 
Q 966 346 2554 602 
z
" transform="scale(0.015625)"/>
        <path id="STHeiti-7c73" d="M 2912 2522 
Q 2618 1690 2179 1104 
Q 1741 518 966 -77 
Q 768 211 461 378 
Q 1203 858 1648 1306 
Q 2093 1754 2541 2515 
Q 1472 2509 602 2451 
L 602 3027 
Q 1427 2970 2963 2963 
L 2963 3808 
Q 2963 4794 2912 5120 
Q 3027 5094 3533 5094 
Q 3629 5094 3629 5052 
Q 3629 5011 3555 4944 
Q 3482 4877 3482 4768 
L 3482 2963 
Q 5094 2963 5939 3027 
L 5939 2451 
Q 5203 2509 3898 2515 
Q 4262 1734 4713 1356 
Q 5165 979 5978 742 
Q 5696 390 5645 70 
Q 4826 390 4346 953 
Q 3866 1517 3565 2522 
L 3482 2522 
L 3482 646 
Q 3482 -70 3520 -538 
L 2925 -538 
Q 2963 58 2963 646 
L 2963 2522 
L 2912 2522 
z
M 4653 4736 
Q 5011 4544 5306 4461 
Q 5389 4435 5389 4403 
Q 5389 4371 5331 4339 
Q 5203 4262 4966 3952 
Q 4730 3642 4346 3091 
Q 4147 3245 3891 3309 
Q 4378 3878 4653 4736 
z
M 2432 3418 
L 1888 3149 
Q 1613 3872 1133 4429 
L 1677 4691 
Q 2022 4173 2432 3418 
z
" transform="scale(0.015625)"/>
        <path id="STHeiti-39" d="M 1229 269 
L 851 512 
L 2093 2394 
Q 1850 2310 1613 2310 
Q 1062 2310 688 2707 
Q 314 3104 314 3696 
Q 314 4288 730 4691 
Q 1146 5094 1750 5094 
Q 2355 5094 2748 4681 
Q 3142 4269 3142 3693 
Q 3142 3373 3011 3049 
Q 2880 2726 2624 2349 
L 1229 269 
z
M 762 3680 
Q 762 3277 1043 2995 
Q 1325 2714 1728 2714 
Q 2131 2714 2412 2998 
Q 2694 3283 2694 3680 
Q 2694 4077 2412 4361 
Q 2131 4646 1728 4646 
Q 1325 4646 1043 4364 
Q 762 4083 762 3680 
z
" transform="scale(0.015625)"/>
        <path id="STHeiti-46" d="M 557 4979 
L 2861 4979 
L 2861 4525 
L 1018 4525 
L 1018 3091 
L 2861 3091 
L 2861 2637 
L 1018 2637 
L 1018 384 
L 557 384 
L 557 4979 
z
" transform="scale(0.015625)"/>
        <path id="STHeiti-59" d="M 198 4979 
L 730 4979 
L 1901 3085 
L 3059 4979 
L 3590 4979 
L 2131 2579 
L 2131 384 
L 1683 384 
L 1683 2579 
L 198 4979 
z
" transform="scale(0.015625)"/>
        <path id="STHeiti-32" d="M 742 3539 
L 301 3539 
Q 333 4243 768 4668 
Q 1203 5094 1820 5094 
Q 2438 5094 2844 4694 
Q 3251 4294 3251 3718 
Q 3251 3290 3024 2925 
Q 2797 2560 2336 2061 
L 1190 826 
L 3315 826 
L 3315 384 
L 192 384 
L 1946 2278 
Q 2406 2778 2604 3066 
Q 2803 3354 2803 3725 
Q 2803 4096 2512 4377 
Q 2221 4659 1789 4659 
Q 1357 4659 1072 4368 
Q 787 4077 742 3539 
z
" transform="scale(0.015625)"/>
       </defs>
       <use xlink:href="#STHeiti-5fb7"/>
       <use xlink:href="#STHeiti-65b9" transform="translate(99.999985 0)"/>
       <use xlink:href="#STHeiti-7eb3" transform="translate(199.999969 0)"/>
       <use xlink:href="#STHeiti-7c73" transform="translate(299.999954 0)"/>
       <use xlink:href="#STHeiti-ff08" transform="translate(399.999939 0)"/>
       <use xlink:href="#STHeiti-33" transform="translate(499.999924 0)"/>
       <use xlink:href="#STHeiti-30" transform="translate(555.399918 0)"/>
       <use xlink:href="#STHeiti-30" transform="translate(610.799911 0)"/>
       <use xlink:href="#STHeiti-37" transform="translate(666.199905 0)"/>
       <use xlink:href="#STHeiti-36" transform="translate(721.599899 0)"/>
       <use xlink:href="#STHeiti-39" transform="translate(776.999893 0)"/>
       <use xlink:href="#STHeiti-ff09" transform="translate(832.399887 0)"/>
       <use xlink:href="#STHeiti-46" transform="translate(932.399872 0)"/>
       <use xlink:href="#STHeiti-59" transform="translate(980.899857 0)"/>
       <use xlink:href="#STHeiti-32" transform="translate(1040.099854 0)"/>
       <use xlink:href="#STHeiti-30" transform="translate(1095.499847 0)"/>
       <use xlink:href="#STHeiti-32" transform="translate(1150.899841 0)"/>
       <use xlink:href="#STHeiti-35" transform="translate(1206.299835 0)"/>
      </g>
     </g>
    </g>
    <g id="xtick_4">
     <g id="line2d_7">
      <path d="M 341.182944 263.945464 
L 341.182944 7.2 
" clip-path="url(#pf759fb48e4)" style="fill: none; stroke: #b0b0b0; stroke-opacity: 0.3; stroke-width: 0.8; stroke-linecap: square"/>
     </g>
     <g id="line2d_8">
      <g>
       <use xlink:href="#m1df0245bbe" x="341.182944" y="263.945464" style="stroke: #000000; stroke-width: 0.8"/>
      </g>
     </g>
     <g id="text_4">
      <!-- 德方纳米（300769）Q1 2026 -->
      <g transform="translate(226.061962 344.003212) rotate(-30) scale(0.1 -0.1)">
       <defs>
        <path id="STHeiti-51" d="M 4416 883 
L 5094 19 
L 4531 19 
L 4064 614 
Q 3494 269 2822 269 
Q 1779 269 1072 963 
Q 365 1658 365 2662 
Q 365 3693 1049 4393 
Q 1734 5094 2784 5094 
Q 3443 5094 4003 4774 
Q 4563 4454 4883 3897 
Q 5203 3341 5203 2682 
Q 5203 1626 4416 883 
z
M 4134 1242 
Q 4730 1830 4730 2668 
Q 4730 3507 4154 4076 
Q 3578 4646 2778 4646 
Q 1978 4646 1411 4070 
Q 845 3494 845 2659 
Q 845 1824 1421 1270 
Q 1997 717 2790 717 
Q 3322 717 3776 979 
L 2752 2278 
L 3309 2278 
L 4134 1242 
z
" transform="scale(0.015625)"/>
        <path id="STHeiti-31" d="M 1184 4979 
L 2086 4979 
L 2086 384 
L 1632 384 
L 1632 4531 
L 909 4531 
L 1184 4979 
z
" transform="scale(0.015625)"/>
        <path id="STHeiti-20" transform="scale(0.015625)"/>
       </defs>
       <use xlink:href="#STHeiti-5fb7"/>
       <use xlink:href="#STHeiti-65b9" transform="translate(99.999985 0)"/>
       <use xlink:href="#STHeiti-7eb3" transform="translate(199.999969 0)"/>
       <use xlink:href="#STHeiti-7c73" transform="translate(299.999954 0)"/>
       <use xlink:href="#STHeiti-ff08" transform="translate(399.999939 0)"/>
       <use xlink:href="#STHeiti-33" transform="translate(499.999924 0)"/>
       <use xlink:href="#STHeiti-30" transform="translate(555.399918 0)"/>
       <use xlink:href="#STHeiti-30" transform="translate(610.799911 0)"/>
       <use xlink:href="#STHeiti-37" transform="translate(666.199905 0)"/>
       <use xlink:href="#STHeiti-36" transform="translate(721.599899 0)"/>
       <use xlink:href="#STHeiti-39" transform="translate(776.999893 0)"/>
       <use xlink:href="#STHeiti-ff09" transform="translate(832.399887 0)"/>
       <use xlink:href="#STHeiti-51" transform="translate(932.399872 0)"/>
       <use xlink:href="#STHeiti-31" transform="translate(1019.499863 0)"/>
       <use xlink:href="#STHeiti-20" transform="translate(1074.899857 0)"/>
       <use xlink:href="#STHeiti-32" transform="translate(1099.899841 0)"/>
       <use xlink:href="#STHeiti-30" transform="translate(1155.299835 0)"/>
       <use xlink:href="#STHeiti-32" transform="translate(1210.699829 0)"/>
       <use xlink:href="#STHeiti-36" transform="translate(1266.099823 0)"/>
      </g>
     </g>
    </g>
    <g id="xtick_5">
     <g id="line2d_9">
      <path d="M 424.026773 263.945464 
L 424.026773 7.2 
" clip-path="url(#pf759fb48e4)" style="fill: none; stroke: #b0b0b0; stroke-opacity: 0.3; stroke-width: 0.8; stroke-linecap: square"/>
     </g>
     <g id="line2d_10">
      <g>
       <use xlink:href="#m1df0245bbe" x="424.026773" y="263.945464" style="stroke: #000000; stroke-width: 0.8"/>
      </g>
     </g>
     <g id="text_5">
      <!-- 容百科技（688005） -->
      <g transform="translate(342.605005 324.582145) rotate(-30) scale(0.1 -0.1)">
       <defs>
        <path id="STHeiti-5bb9" d="M 3610 4589 
Q 5229 4595 5690 4640 
L 5690 3507 
L 5184 3507 
L 5184 4160 
L 1254 4160 
L 1254 3430 
L 742 3430 
L 742 4640 
Q 1350 4589 2982 4589 
Q 2912 4909 2797 5197 
L 3443 5293 
Q 3539 5005 3610 4589 
z
M 2253 3859 
Q 2477 3693 2643 3622 
Q 2720 3590 2720 3555 
Q 2720 3520 2621 3494 
Q 2522 3469 2330 3290 
Q 1920 2918 1210 2458 
Q 1069 2675 768 2842 
Q 1184 2982 1603 3267 
Q 2022 3552 2253 3859 
z
M 5549 2931 
L 5178 2509 
Q 4448 3130 3635 3475 
L 3936 3853 
Q 4794 3418 5549 2931 
z
M 3347 2938 
Q 3840 2445 4505 2185 
Q 5171 1926 6150 1850 
Q 5926 1574 5843 1229 
Q 5274 1363 4896 1498 
L 4896 134 
Q 4896 -218 4941 -550 
L 4352 -550 
L 4352 -90 
L 2054 -90 
L 2054 -646 
L 1485 -646 
Q 1523 -365 1523 45 
L 1523 1466 
Q 909 1139 627 1011 
Q 480 1286 237 1498 
Q 2106 1907 2931 3328 
Q 3277 3142 3443 3130 
Q 3539 3123 3539 3088 
Q 3539 3053 3347 2938 
z
M 4717 1568 
Q 3667 1971 3136 2682 
Q 2688 2125 1709 1568 
Q 2227 1555 3209 1555 
Q 4192 1555 4717 1568 
z
M 4352 326 
L 4352 1146 
L 2054 1146 
L 2054 326 
L 4352 326 
z
" transform="scale(0.015625)"/>
        <path id="STHeiti-767e" d="M 2861 4256 
Q 1478 4250 538 4186 
L 538 4768 
Q 1478 4704 3270 4704 
Q 5062 4704 5978 4768 
L 5978 4186 
Q 5165 4250 3488 4256 
Q 3360 3693 3213 3270 
Q 4333 3270 5235 3302 
Q 5184 3066 5184 2342 
L 5184 461 
Q 5184 -109 5235 -486 
L 4608 -486 
L 4608 6 
L 1875 6 
L 1875 -634 
L 1248 -634 
Q 1299 -333 1299 301 
L 1299 2368 
Q 1299 2938 1248 3315 
L 2714 3270 
Q 2829 3706 2861 4256 
z
M 4608 1926 
L 4608 2829 
L 1875 2829 
L 1875 1926 
L 4608 1926 
z
M 1875 1472 
L 1875 467 
L 4608 467 
L 4608 1472 
L 1875 1472 
z
" transform="scale(0.015625)"/>
        <path id="STHeiti-79d1" d="M 5318 1293 
Q 5318 6 5370 -595 
L 4755 -595 
Q 4813 0 4813 1222 
Q 3411 1024 3040 928 
L 2970 1459 
Q 3398 1472 4813 1677 
L 4813 4000 
Q 4813 4710 4723 5082 
Q 4992 5030 5370 5030 
Q 5510 5030 5510 4988 
Q 5510 4947 5414 4896 
Q 5318 4845 5318 4710 
L 5318 1754 
Q 5696 1811 6086 1920 
L 6157 1370 
Q 5734 1350 5318 1293 
z
M 1606 2099 
Q 1261 1286 666 506 
Q 544 742 333 973 
Q 1062 1664 1562 2880 
Q 870 2874 538 2829 
L 538 3341 
Q 966 3290 1606 3290 
L 1606 4250 
Q 1133 4154 877 4115 
Q 832 4371 691 4576 
Q 1203 4608 1830 4758 
Q 2458 4909 2790 5062 
Q 2829 4934 2934 4764 
Q 3040 4595 3101 4544 
Q 3162 4493 3162 4457 
Q 3162 4422 3085 4438 
Q 3008 4454 2899 4454 
Q 2573 4454 2086 4352 
L 2086 3290 
Q 2675 3296 2970 3341 
L 2970 2829 
Q 2656 2874 2086 2874 
L 2086 602 
Q 2086 83 2138 -499 
L 1555 -499 
Q 1606 122 1606 602 
L 1606 2099 
z
M 3840 4435 
Q 4186 4019 4454 3603 
L 3981 3315 
Q 3712 3795 3418 4173 
L 3840 4435 
z
M 4314 2195 
L 3872 1869 
Q 3603 2381 3334 2746 
L 3757 2976 
Q 4096 2560 4314 2195 
z
M 3002 1792 
L 2586 1472 
Q 2387 1888 2138 2202 
L 2432 2451 
Q 2746 2118 3002 1792 
z
" transform="scale(0.015625)"/>
        <path id="STHeiti-6280" d="M 2950 2394 
L 2573 2362 
L 2573 2912 
Q 2899 2880 3923 2861 
L 3923 3814 
Q 2957 3802 2515 3763 
L 2515 4333 
Q 3091 4294 3923 4282 
Q 3910 4877 3859 5178 
Q 4173 5126 4506 5126 
Q 4614 5126 4614 5094 
Q 4614 5062 4537 5017 
Q 4461 4973 4461 4794 
L 4461 4282 
Q 5350 4282 5926 4333 
L 5926 3763 
Q 5440 3814 4461 3814 
L 4461 2861 
Q 4973 2867 5600 2931 
Q 5229 1562 4448 717 
Q 5139 250 6150 96 
Q 5933 -218 5818 -582 
Q 4922 -346 4077 352 
Q 3443 -160 2611 -627 
Q 2451 -320 2118 -173 
Q 3098 109 3706 717 
Q 3232 1325 2950 2394 
z
M 3482 2406 
Q 3642 1690 4083 1069 
Q 4768 1869 4870 2406 
L 3482 2406 
z
M 1235 2138 
L 1235 3379 
Q 666 3373 352 3315 
L 352 3898 
Q 640 3846 1235 3846 
Q 1235 4883 1171 5171 
Q 1440 5133 1645 5133 
L 1830 5139 
Q 1958 5139 1958 5088 
Q 1958 5037 1856 4957 
Q 1754 4877 1754 4723 
L 1754 3853 
Q 2093 3859 2310 3898 
L 2310 3322 
Q 2042 3366 1754 3373 
L 1754 2291 
Q 2182 2432 2413 2515 
Q 2406 2432 2406 2301 
Q 2406 2170 2464 2003 
Q 2099 1914 1754 1805 
L 1754 45 
Q 1754 -160 1690 -259 
Q 1626 -358 1418 -422 
Q 1210 -486 710 -576 
Q 621 -224 397 96 
Q 614 70 774 70 
Q 1235 70 1235 275 
L 1235 1619 
Q 819 1453 435 1261 
Q 384 1658 301 1926 
Q 749 2016 1235 2138 
z
" transform="scale(0.015625)"/>
       </defs>
       <use xlink:href="#STHeiti-5bb9"/>
       <use xlink:href="#STHeiti-767e" transform="translate(99.999985 0)"/>
       <use xlink:href="#STHeiti-79d1" transform="translate(199.999969 0)"/>
       <use xlink:href="#STHeiti-6280" transform="translate(299.999954 0)"/>
       <use xlink:href="#STHeiti-ff08" transform="translate(399.999939 0)"/>
       <use xlink:href="#STHeiti-36" transform="translate(499.999924 0)"/>
       <use xlink:href="#STHeiti-38" transform="translate(555.399918 0)"/>
       <use xlink:href="#STHeiti-38" transform="translate(610.799911 0)"/>
       <use xlink:href="#STHeiti-30" transform="translate(666.199905 0)"/>
       <use xlink:href="#STHeiti-30" transform="translate(721.599899 0)"/>
       <use xlink:href="#STHeiti-35" transform="translate(776.999893 0)"/>
       <use xlink:href="#STHeiti-ff09" transform="translate(832.399887 0)"/>
      </g>
     </g>
    </g>
    <g id="xtick_6">
     <g id="line2d_11">
      <path d="M 506.870603 263.945464 
L 506.870603 7.2 
" clip-path="url(#pf759fb48e4)" style="fill: none; stroke: #b0b0b0; stroke-opacity: 0.3; stroke-width: 0.8; stroke-linecap: square"/>
     </g>
     <g id="line2d_12">
      <g>
       <use xlink:href="#m1df0245bbe" x="506.870603" y="263.945464" style="stroke: #000000; stroke-width: 0.8"/>
      </g>
     </g>
     <g id="text_6">
      <!-- 天能动力（0819.HK） -->
      <g transform="translate(421.613965 326.761025) rotate(-30) scale(0.1 -0.1)">
       <defs>
        <path id="STHeiti-5929" d="M 2893 4218 
Q 1722 4211 1011 4160 
L 1011 4749 
Q 1741 4704 3152 4704 
Q 4563 4704 5338 4762 
L 5338 4160 
Q 4640 4211 3501 4218 
Q 3482 3443 3418 2886 
Q 4922 2886 5792 2944 
L 5792 2317 
Q 4966 2368 3603 2374 
Q 3904 1421 4547 845 
Q 5190 269 6042 198 
Q 5664 -90 5536 -474 
Q 3571 250 3290 2125 
Q 3053 1075 2464 432 
Q 1875 -211 800 -589 
Q 653 -320 358 -83 
Q 1466 250 2016 816 
Q 2566 1382 2752 2374 
Q 1421 2368 608 2317 
L 608 2931 
Q 1600 2886 2829 2886 
Q 2893 3539 2893 4218 
z
" transform="scale(0.015625)"/>
        <path id="STHeiti-80fd" d="M 2842 3334 
L 1363 3206 
Q 922 3162 736 3078 
Q 685 3347 589 3622 
Q 749 3693 841 3760 
Q 934 3827 1100 4044 
Q 1267 4262 1436 4556 
Q 1606 4851 1709 5101 
Q 2035 4922 2198 4893 
Q 2362 4864 2362 4825 
Q 2362 4787 2237 4704 
Q 2112 4621 1901 4358 
L 1274 3622 
L 2662 3648 
Q 2464 4000 2278 4237 
L 2669 4442 
Q 3136 3827 3443 3315 
L 2982 3046 
Q 2950 3130 2842 3334 
z
M 4179 3994 
Q 4902 4288 5363 4666 
Q 5562 4371 5760 4237 
Q 5811 4205 5811 4173 
Q 5811 4141 5782 4131 
Q 5754 4122 5670 4122 
Q 5459 4122 4179 3610 
L 4179 3264 
Q 4179 3174 4220 3123 
Q 4262 3072 4406 3043 
Q 4550 3014 4816 3014 
Q 5082 3014 5190 3056 
Q 5299 3098 5356 3222 
Q 5414 3347 5459 3635 
Q 5632 3386 5965 3302 
Q 5850 2957 5747 2819 
Q 5645 2682 5465 2646 
Q 5286 2611 4784 2611 
Q 4282 2611 4064 2646 
Q 3846 2682 3782 2797 
Q 3718 2912 3718 3219 
L 3718 4339 
Q 3718 4787 3674 5043 
Q 3891 5005 4262 5005 
Q 4365 5005 4365 4966 
Q 4365 4928 4272 4857 
Q 4179 4787 4179 4666 
L 4179 3994 
z
M 1350 640 
L 1350 -474 
L 806 -474 
Q 858 38 858 531 
L 858 2240 
Q 858 2598 813 2829 
Q 1216 2778 1977 2778 
Q 2739 2778 3110 2829 
Q 3066 2598 3066 2240 
L 3066 19 
Q 3066 -179 3002 -278 
Q 2938 -378 2758 -432 
Q 2579 -486 2202 -518 
Q 2182 -224 1997 45 
Q 2208 6 2330 6 
Q 2573 6 2573 198 
L 2573 640 
L 1350 640 
z
M 1350 1875 
L 2573 1875 
L 2573 2374 
L 1350 2374 
L 1350 1875 
z
M 2573 1517 
L 1350 1517 
L 1350 1011 
L 2573 1011 
L 2573 1517 
z
M 4122 1312 
Q 4890 1632 5344 1984 
Q 5504 1741 5709 1555 
Q 5747 1523 5747 1491 
Q 5747 1459 5728 1452 
Q 5709 1446 5651 1446 
Q 5459 1446 4122 902 
L 4122 256 
Q 4122 166 4160 124 
Q 4198 83 4336 64 
Q 4474 45 4826 45 
Q 5178 45 5293 237 
Q 5408 429 5434 762 
Q 5638 467 5965 397 
Q 5850 0 5750 -153 
Q 5651 -307 5456 -355 
Q 5261 -403 4742 -403 
Q 4224 -403 4006 -368 
Q 3789 -333 3725 -214 
Q 3661 -96 3661 211 
L 3661 1664 
Q 3661 2086 3610 2368 
Q 3827 2330 4205 2330 
Q 4307 2330 4307 2291 
Q 4307 2253 4214 2182 
Q 4122 2112 4122 1990 
L 4122 1312 
z
" transform="scale(0.015625)"/>
        <path id="STHeiti-52a8" d="M 3994 3917 
Q 4006 4192 4006 4569 
Q 4006 4947 3955 5222 
Q 4288 5133 4627 5133 
Q 4736 5133 4736 5101 
Q 4736 5069 4672 4998 
Q 4608 4928 4566 4707 
Q 4525 4486 4493 3923 
Q 5523 3955 5939 4026 
Q 5856 3706 5837 3245 
L 5728 806 
Q 5702 294 5616 51 
Q 5530 -192 5312 -304 
Q 5094 -416 4614 -493 
Q 4550 -109 4262 205 
Q 4486 186 4713 186 
Q 4941 186 5062 278 
Q 5184 371 5197 627 
L 5363 3501 
L 4467 3501 
Q 4378 1638 4058 896 
Q 3738 154 2784 -557 
Q 2586 -294 2163 -173 
Q 3187 346 3523 954 
Q 3859 1562 3968 3494 
Q 3392 3475 2874 3411 
L 2874 3962 
Q 3245 3917 3994 3917 
z
M 2803 3994 
Q 2426 4045 1712 4045 
Q 998 4045 698 3994 
L 698 4557 
Q 986 4499 1712 4499 
Q 2438 4499 2803 4550 
L 2803 3994 
z
M 1350 2682 
Q 614 2662 358 2630 
L 358 3155 
Q 749 3098 1593 3098 
Q 2438 3098 2957 3149 
L 2957 2630 
Q 2470 2675 1907 2682 
Q 1363 1242 1126 890 
L 2445 1197 
Q 2266 1632 2138 1830 
L 2592 2042 
Q 2758 1581 3194 723 
L 2682 480 
Q 2656 602 2579 826 
Q 1030 448 659 141 
Q 570 461 384 768 
Q 595 851 723 1049 
Q 851 1248 1059 1789 
Q 1267 2330 1350 2682 
z
" transform="scale(0.015625)"/>
        <path id="STHeiti-2e" d="M 582 685 
Q 582 845 697 957 
Q 813 1069 969 1069 
Q 1126 1069 1238 957 
Q 1350 845 1350 681 
Q 1350 518 1238 406 
Q 1126 294 969 294 
Q 813 294 697 409 
Q 582 525 582 685 
z
" transform="scale(0.015625)"/>
        <path id="STHeiti-48" d="M 550 4979 
L 1018 4979 
L 1018 3053 
L 3354 3053 
L 3354 4979 
L 3814 4979 
L 3814 384 
L 3354 384 
L 3354 2605 
L 1018 2605 
L 1018 384 
L 550 384 
L 550 4979 
z
" transform="scale(0.015625)"/>
        <path id="STHeiti-4b" d="M 557 4979 
L 1030 4979 
L 1030 3258 
L 2861 4979 
L 3482 4979 
L 1274 2918 
L 3654 384 
L 3046 384 
L 1030 2528 
L 1030 384 
L 557 384 
L 557 4979 
z
" transform="scale(0.015625)"/>
       </defs>
       <use xlink:href="#STHeiti-5929"/>
       <use xlink:href="#STHeiti-80fd" transform="translate(99.999985 0)"/>
       <use xlink:href="#STHeiti-52a8" transform="translate(199.999969 0)"/>
       <use xlink:href="#STHeiti-529b" transform="translate(299.999954 0)"/>
       <use xlink:href="#STHeiti-ff08" transform="translate(399.999939 0)"/>
       <use xlink:href="#STHeiti-30" transform="translate(499.999924 0)"/>
       <use xlink:href="#STHeiti-38" transform="translate(555.399918 0)"/>
       <use xlink:href="#STHeiti-31" transform="translate(610.799911 0)"/>
       <use xlink:href="#STHeiti-39" transform="translate(666.199905 0)"/>
       <use xlink:href="#STHeiti-2e" transform="translate(721.599899 0)"/>
       <use xlink:href="#STHeiti-48" transform="translate(749.299896 0)"/>
       <use xlink:href="#STHeiti-4b" transform="translate(817.599884 0)"/>
       <use xlink:href="#STHeiti-ff09" transform="translate(876.699875 0)"/>
      </g>
     </g>
    </g>
    <g id="xtick_7">
     <g id="line2d_13">
      <path d="M 589.714432 263.945464 
L 589.714432 7.2 
" clip-path="url(#pf759fb48e4)" style="fill: none; stroke: #b0b0b0; stroke-opacity: 0.3; stroke-width: 0.8; stroke-linecap: square"/>
     </g>
     <g id="line2d_14">
      <g>
       <use xlink:href="#m1df0245bbe" x="589.714432" y="263.945464" style="stroke: #000000; stroke-width: 0.8"/>
      </g>
     </g>
     <g id="text_7">
      <!-- 超威动力（0951.HK） -->
      <g transform="translate(504.457794 326.821917) rotate(-30) scale(0.1 -0.1)">
       <defs>
        <path id="STHeiti-8d85" d="M 2246 1850 
Q 2797 1856 2970 1888 
L 2970 1434 
Q 2797 1466 2246 1472 
L 2246 339 
Q 2906 70 4064 70 
Q 4877 70 6029 198 
Q 5875 -102 5824 -442 
Q 5107 -467 4307 -467 
Q 3507 -467 2896 -361 
Q 2285 -256 1837 61 
Q 1389 378 1146 730 
Q 966 83 755 -416 
Q 544 -198 320 -70 
Q 845 736 832 2125 
Q 1178 2042 1389 2042 
Q 1459 2042 1459 2019 
Q 1459 1997 1417 1958 
Q 1376 1920 1344 1785 
Q 1312 1651 1254 1280 
Q 1440 870 1766 608 
L 1766 2669 
Q 1050 2669 595 2618 
L 595 3110 
Q 1018 3059 1651 3059 
L 1651 3866 
Q 1190 3859 742 3808 
L 742 4326 
Q 1037 4282 1651 4275 
Q 1651 4717 1581 5120 
Q 1677 5094 2221 5094 
Q 2298 5094 2298 5068 
Q 2298 5043 2246 5011 
Q 2131 4934 2131 4768 
L 2131 4275 
Q 2643 4282 2893 4326 
L 2893 3808 
Q 2650 3853 2131 3859 
L 2131 3059 
Q 2739 3066 3053 3110 
L 3053 2618 
Q 2758 2656 2246 2662 
L 2246 1850 
z
M 3974 4307 
Q 3520 4301 3213 4256 
L 3213 4787 
Q 3437 4736 4445 4736 
Q 5453 4736 5773 4787 
Q 5619 3354 5523 3021 
Q 5427 2688 4653 2618 
Q 4621 2912 4429 3155 
Q 4602 3136 4733 3136 
Q 4864 3136 4937 3168 
Q 5011 3200 5040 3261 
Q 5069 3322 5126 3667 
Q 5184 4013 5203 4314 
L 4442 4314 
Q 4422 3834 4256 3446 
Q 4090 3059 3661 2566 
Q 3443 2752 3187 2835 
Q 3949 3341 3974 4307 
z
M 3872 762 
L 3872 314 
L 3360 314 
Q 3405 602 3405 954 
L 3405 1862 
Q 3405 2278 3360 2477 
Q 3642 2419 4538 2419 
Q 5434 2419 5690 2477 
Q 5645 2266 5645 1862 
L 5645 1018 
Q 5645 666 5690 390 
L 5171 390 
L 5171 762 
L 3872 762 
z
M 5171 1146 
L 5171 2042 
L 3872 2042 
L 3872 1146 
L 5171 1146 
z
" transform="scale(0.015625)"/>
       </defs>
       <use xlink:href="#STHeiti-8d85"/>
       <use xlink:href="#STHeiti-5a01" transform="translate(99.999985 0)"/>
       <use xlink:href="#STHeiti-52a8" transform="translate(199.999969 0)"/>
       <use xlink:href="#STHeiti-529b" transform="translate(299.999954 0)"/>
       <use xlink:href="#STHeiti-ff08" transform="translate(399.999939 0)"/>
       <use xlink:href="#STHeiti-30" transform="translate(499.999924 0)"/>
       <use xlink:href="#STHeiti-39" transform="translate(555.399918 0)"/>
       <use xlink:href="#STHeiti-35" transform="translate(610.799911 0)"/>
       <use xlink:href="#STHeiti-31" transform="translate(666.199905 0)"/>
       <use xlink:href="#STHeiti-2e" transform="translate(721.599899 0)"/>
       <use xlink:href="#STHeiti-48" transform="translate(749.299896 0)"/>
       <use xlink:href="#STHeiti-4b" transform="translate(817.599884 0)"/>
       <use xlink:href="#STHeiti-ff09" transform="translate(876.699875 0)"/>
      </g>
     </g>
    </g>
    <g id="xtick_8">
     <g id="line2d_15">
      <path d="M 672.558261 263.945464 
L 672.558261 7.2 
" clip-path="url(#pf759fb48e4)" style="fill: none; stroke: #b0b0b0; stroke-opacity: 0.3; stroke-width: 0.8; stroke-linecap: square"/>
     </g>
     <g id="line2d_16">
      <g>
       <use xlink:href="#m1df0245bbe" x="672.558261" y="263.945464" style="stroke: #000000; stroke-width: 0.8"/>
      </g>
     </g>
     <g id="text_8">
      <!-- 星恒电源 -->
      <g transform="translate(637.246933 297.838485) rotate(-30) scale(0.1 -0.1)">
       <defs>
        <path id="STHeiti-661f" d="M 3590 166 
Q 4966 173 5907 230 
L 5907 -339 
Q 5158 -282 3292 -282 
Q 1427 -282 608 -346 
L 608 224 
Q 1466 166 3059 166 
L 3059 736 
Q 2086 736 1510 678 
L 1510 1210 
Q 2003 1165 3059 1158 
L 3059 1702 
L 1581 1702 
Q 1274 1274 934 941 
Q 768 1146 538 1286 
Q 1178 1779 1600 2662 
Q 1933 2464 2086 2426 
Q 2182 2400 2182 2374 
Q 2182 2349 2105 2313 
Q 2029 2278 1907 2144 
L 3059 2144 
L 3059 2758 
Q 1472 2758 1190 2726 
Q 1216 2835 1216 3174 
L 1216 4474 
Q 1216 4774 1190 4928 
Q 1568 4896 3251 4896 
Q 4934 4896 5312 4928 
Q 5286 4742 5286 4474 
L 5286 3174 
Q 5286 2867 5312 2726 
Q 5062 2758 3590 2758 
L 3590 2144 
Q 5229 2144 5504 2176 
L 5504 1677 
Q 5126 1702 3590 1702 
L 3590 1158 
Q 4768 1158 5306 1210 
L 5306 678 
Q 4685 736 3590 736 
L 3590 166 
z
M 4768 4051 
L 4768 4474 
L 1734 4474 
L 1734 4051 
L 4768 4051 
z
M 4768 3174 
L 4768 3642 
L 1734 3642 
L 1734 3174 
L 4768 3174 
z
" transform="scale(0.015625)"/>
        <path id="STHeiti-6052" d="M 1120 5126 
Q 1376 5082 1773 5082 
Q 1920 5082 1920 5037 
Q 1920 4992 1811 4921 
Q 1702 4851 1702 4576 
L 1702 506 
Q 1702 64 1766 -653 
L 1120 -653 
Q 1184 -109 1184 512 
L 1184 4115 
Q 1184 4768 1120 5126 
z
M 5997 4282 
Q 5402 4346 4278 4346 
Q 3155 4346 2560 4282 
L 2560 4858 
Q 3194 4800 4282 4800 
Q 5370 4800 5997 4858 
L 5997 4282 
z
M 2624 2822 
L 2125 2669 
Q 2022 3277 1856 3731 
L 2291 3885 
Q 2419 3379 2624 2822 
z
M 2829 3162 
Q 2829 3482 2784 3776 
Q 3142 3725 4265 3725 
Q 5389 3725 5734 3776 
Q 5683 3520 5683 3162 
L 5683 1549 
Q 5683 1190 5722 883 
Q 5114 928 4214 928 
Q 3315 928 2790 883 
Q 2829 1190 2829 1542 
L 2829 3162 
z
M 3315 2534 
L 5152 2534 
L 5152 3277 
L 3315 3277 
L 3315 2534 
z
M 5152 2131 
L 3315 2131 
L 3315 1338 
L 5152 1338 
L 5152 2131 
z
M 960 3757 
Q 909 2854 762 2010 
L 205 2061 
Q 448 2835 448 3757 
L 960 3757 
z
M 6138 -352 
Q 5440 -294 4198 -294 
Q 2957 -294 2266 -352 
L 2266 224 
Q 2925 160 4201 160 
Q 5478 160 6138 224 
L 6138 -352 
z
" transform="scale(0.015625)"/>
        <path id="STHeiti-7535" d="M 3232 4269 
Q 4602 4275 5222 4346 
Q 5178 4083 5178 3622 
L 5178 1843 
Q 5178 1325 5242 851 
L 4640 851 
L 4640 1235 
L 3232 1235 
L 3232 448 
Q 3232 307 3302 243 
Q 3373 179 3613 147 
Q 3853 115 4218 115 
Q 5229 115 5417 224 
Q 5606 333 5638 922 
Q 5811 531 6176 531 
Q 6042 64 5914 -86 
Q 5786 -237 5450 -285 
Q 5114 -333 4378 -333 
Q 3642 -333 3277 -285 
Q 2912 -237 2809 -134 
Q 2707 -32 2707 205 
L 2707 1235 
L 1370 1235 
L 1370 582 
L 781 582 
Q 851 1024 851 1638 
L 851 3622 
Q 851 4045 806 4346 
Q 1440 4275 2707 4269 
Q 2707 4947 2637 5267 
Q 2912 5229 3334 5229 
Q 3437 5229 3437 5174 
Q 3437 5120 3373 5094 
Q 3309 5069 3270 4998 
Q 3232 4928 3232 4870 
L 3232 4269 
z
M 2707 3808 
L 1370 3808 
L 1370 2963 
L 2707 2963 
L 2707 3808 
z
M 4640 2963 
L 4640 3808 
L 3232 3808 
L 3232 2963 
L 4640 2963 
z
M 1370 2534 
L 1370 1670 
L 2707 1670 
L 2707 2534 
L 1370 2534 
z
M 4640 1670 
L 4640 2534 
L 3232 2534 
L 3232 1670 
L 4640 1670 
z
" transform="scale(0.015625)"/>
        <path id="STHeiti-6e90" d="M 1894 4422 
L 1549 3936 
Q 1158 4314 691 4634 
L 1018 5075 
Q 1466 4781 1894 4422 
z
M 5926 4358 
Q 5754 4410 3994 4410 
L 2579 4410 
Q 2611 2272 2448 1385 
Q 2285 499 1677 -384 
Q 1530 -109 1306 -19 
Q 1709 486 1888 1209 
Q 2067 1933 2067 3488 
Q 2067 4045 2048 4890 
Q 2182 4858 3923 4858 
Q 5664 4858 5926 4890 
L 5926 4358 
z
M 3808 3744 
Q 3942 4109 3968 4397 
Q 4333 4243 4550 4192 
Q 4627 4173 4627 4153 
Q 4627 4134 4570 4102 
Q 4461 4038 4314 3744 
Q 5434 3744 5555 3763 
Q 5536 3558 5536 3002 
L 5536 2253 
Q 5536 1824 5562 1478 
Q 5491 1491 4467 1491 
L 4467 -32 
Q 4467 -250 4409 -352 
Q 4352 -454 4160 -512 
Q 3968 -570 3533 -614 
Q 3520 -301 3354 -51 
Q 3526 -70 3673 -70 
Q 3821 -70 3897 -12 
Q 3974 45 3974 269 
L 3974 1491 
Q 3091 1491 3014 1478 
Q 3040 1709 3040 2253 
L 3040 3002 
Q 3040 3533 3021 3763 
Q 3110 3750 3808 3744 
z
M 5050 2822 
L 5050 3354 
L 3520 3354 
L 3520 2822 
L 5050 2822 
z
M 5050 1875 
L 5050 2432 
L 3520 2432 
L 3520 1875 
L 5050 1875 
z
M 1645 2989 
L 1363 2483 
Q 992 2797 378 3117 
L 640 3565 
Q 1261 3238 1645 2989 
z
M 1517 1683 
Q 1440 1491 1229 691 
Q 1018 -109 947 -454 
Q 589 -218 339 -115 
Q 506 179 723 790 
Q 941 1402 1018 1978 
Q 1254 1773 1517 1683 
z
M 3053 1146 
Q 3405 986 3520 957 
Q 3635 928 3635 893 
Q 3635 858 3539 829 
Q 3443 800 3366 707 
Q 3290 614 3072 278 
Q 2854 -58 2733 -224 
Q 2522 -26 2298 64 
Q 2720 474 3053 1146 
z
M 6010 186 
L 5504 -128 
Q 5178 454 4787 864 
L 5222 1139 
Q 5555 698 6010 186 
z
" transform="scale(0.015625)"/>
       </defs>
       <use xlink:href="#STHeiti-661f"/>
       <use xlink:href="#STHeiti-6052" transform="translate(99.999985 0)"/>
       <use xlink:href="#STHeiti-7535" transform="translate(199.999969 0)"/>
       <use xlink:href="#STHeiti-6e90" transform="translate(299.999954 0)"/>
      </g>
     </g>
    </g>
   </g>
   <g id="matplotlib.axis_2">
    <g id="ytick_1">
     <g id="line2d_17">
      <path d="M 63.656116 251.758543 
L 701.553601 251.758543 
" clip-path="url(#pf759fb48e4)" style="fill: none; stroke: #b0b0b0; stroke-opacity: 0.3; stroke-width: 0.8; stroke-linecap: square"/>
     </g>
     <g id="line2d_18">
      <defs>
       <path id="mc4284cd0ab" d="M 0 0 
L -3.5 0 
" style="stroke: #000000; stroke-width: 0.8"/>
      </defs>
      <g>
       <use xlink:href="#mc4284cd0ab" x="63.656116" y="251.758543" style="stroke: #000000; stroke-width: 0.8"/>
      </g>
     </g>
     <g id="text_9">
      <!-- 0 -->
      <g transform="translate(51.115491 255.738231) scale(0.1 -0.1)">
       <use xlink:href="#STHeiti-30"/>
      </g>
     </g>
    </g>
    <g id="ytick_2">
     <g id="line2d_19">
      <path d="M 63.656116 196.793428 
L 701.553601 196.793428 
" clip-path="url(#pf759fb48e4)" style="fill: none; stroke: #b0b0b0; stroke-opacity: 0.3; stroke-width: 0.8; stroke-linecap: square"/>
     </g>
     <g id="line2d_20">
      <g>
       <use xlink:href="#mc4284cd0ab" x="63.656116" y="196.793428" style="stroke: #000000; stroke-width: 0.8"/>
      </g>
     </g>
     <g id="text_10">
      <!-- 1000 -->
      <g transform="translate(34.493616 200.773115) scale(0.1 -0.1)">
       <use xlink:href="#STHeiti-31"/>
       <use xlink:href="#STHeiti-30" transform="translate(55.399994 0)"/>
       <use xlink:href="#STHeiti-30" transform="translate(110.799988 0)"/>
       <use xlink:href="#STHeiti-30" transform="translate(166.199982 0)"/>
      </g>
     </g>
    </g>
    <g id="ytick_3">
     <g id="line2d_21">
      <path d="M 63.656116 141.828312 
L 701.553601 141.828312 
" clip-path="url(#pf759fb48e4)" style="fill: none; stroke: #b0b0b0; stroke-opacity: 0.3; stroke-width: 0.8; stroke-linecap: square"/>
     </g>
     <g id="line2d_22">
      <g>
       <use xlink:href="#mc4284cd0ab" x="63.656116" y="141.828312" style="stroke: #000000; stroke-width: 0.8"/>
      </g>
     </g>
     <g id="text_11">
      <!-- 2000 -->
      <g transform="translate(34.493616 145.807999) scale(0.1 -0.1)">
       <use xlink:href="#STHeiti-32"/>
       <use xlink:href="#STHeiti-30" transform="translate(55.399994 0)"/>
       <use xlink:href="#STHeiti-30" transform="translate(110.799988 0)"/>
       <use xlink:href="#STHeiti-30" transform="translate(166.199982 0)"/>
      </g>
     </g>
    </g>
    <g id="ytick_4">
     <g id="line2d_23">
      <path d="M 63.656116 86.863196 
L 701.553601 86.863196 
" clip-path="url(#pf759fb48e4)" style="fill: none; stroke: #b0b0b0; stroke-opacity: 0.3; stroke-width: 0.8; stroke-linecap: square"/>
     </g>
     <g id="line2d_24">
      <g>
       <use xlink:href="#mc4284cd0ab" x="63.656116" y="86.863196" style="stroke: #000000; stroke-width: 0.8"/>
      </g>
     </g>
     <g id="text_12">
      <!-- 3000 -->
      <g transform="translate(34.493616 90.842883) scale(0.1 -0.1)">
       <use xlink:href="#STHeiti-33"/>
       <use xlink:href="#STHeiti-30" transform="translate(55.399994 0)"/>
       <use xlink:href="#STHeiti-30" transform="translate(110.799988 0)"/>
       <use xlink:href="#STHeiti-30" transform="translate(166.199982 0)"/>
      </g>
     </g>
    </g>
    <g id="ytick_5">
     <g id="line2d_25">
      <path d="M 63.656116 31.89808 
L 701.553601 31.89808 
" clip-path="url(#pf759fb48e4)" style="fill: none; stroke: #b0b0b0; stroke-opacity: 0.3; stroke-width: 0.8; stroke-linecap: square"/>
     </g>
     <g id="line2d_26">
      <g>
       <use xlink:href="#mc4284cd0ab" x="63.656116" y="31.89808" style="stroke: #000000; stroke-width: 0.8"/>
      </g>
     </g>
     <g id="text_13">
      <!-- 4000 -->
      <g transform="translate(34.493616 35.877768) scale(0.1 -0.1)">
       <use xlink:href="#STHeiti-34"/>
       <use xlink:href="#STHeiti-30" transform="translate(55.399994 0)"/>
       <use xlink:href="#STHeiti-30" transform="translate(110.799988 0)"/>
       <use xlink:href="#STHeiti-30" transform="translate(166.199982 0)"/>
      </g>
     </g>
    </g>
   </g>
   <g id="line2d_27">
    <path d="M 92.651456 18.870248 
L 175.495286 250.255248 
L 258.339115 246.967784 
L 341.182944 249.375192 
L 424.026773 245.013774 
L 506.870603 218.805014 
L 589.714432 218.436195 
L 672.558261 249.760012 
" clip-path="url(#pf759fb48e4)" style="fill: none; stroke: #1a365d; stroke-width: 2; stroke-linecap: square"/>
    <defs>
     <path id="mafe22a8a74" d="M 0 3 
C 0.795609 3 1.55874 2.683901 2.12132 2.12132 
C 2.683901 1.55874 3 0.795609 3 0 
C 3 -0.795609 2.683901 -1.55874 2.12132 -2.12132 
C 1.55874 -2.683901 0.795609 -3 0 -3 
C -0.795609 -3 -1.55874 -2.683901 -2.12132 -2.12132 
C -2.683901 -1.55874 -3 -0.795609 -3 0 
C -3 0.795609 -2.683901 1.55874 -2.12132 2.12132 
C -1.55874 2.683901 -0.795609 3 0 3 
z
" style="stroke: #1a365d"/>
    </defs>
    <g clip-path="url(#pf759fb48e4)">
     <use xlink:href="#mafe22a8a74" x="92.651456" y="18.870248" style="fill: #1a365d; stroke: #1a365d"/>
     <use xlink:href="#mafe22a8a74" x="175.495286" y="250.255248" style="fill: #1a365d; stroke: #1a365d"/>
     <use xlink:href="#mafe22a8a74" x="258.339115" y="246.967784" style="fill: #1a365d; stroke: #1a365d"/>
     <use xlink:href="#mafe22a8a74" x="341.182944" y="249.375192" style="fill: #1a365d; stroke: #1a365d"/>
     <use xlink:href="#mafe22a8a74" x="424.026773" y="245.013774" style="fill: #1a365d; stroke: #1a365d"/>
     <use xlink:href="#mafe22a8a74" x="506.870603" y="218.805014" style="fill: #1a365d; stroke: #1a365d"/>
     <use xlink:href="#mafe22a8a74" x="589.714432" y="218.436195" style="fill: #1a365d; stroke: #1a365d"/>
     <use xlink:href="#mafe22a8a74" x="672.558261" y="249.760012" style="fill: #1a365d; stroke: #1a365d"/>
    </g>
   </g>
   <g id="line2d_28">
    <path d="M 92.651456 250.31461 
L 175.495286 250.764774 
L 258.339115 251.687089 
L 341.182944 251.011568 
L 424.026773 251.399072 
M 672.558261 251.011018 
" clip-path="url(#pf759fb48e4)" style="fill: none; stroke: #d69e2e; stroke-width: 2; stroke-linecap: square"/>
    <defs>
     <path id="m65bf718476" d="M 0 3 
C 0.795609 3 1.55874 2.683901 2.12132 2.12132 
C 2.683901 1.55874 3 0.795609 3 0 
C 3 -0.795609 2.683901 -1.55874 2.12132 -2.12132 
C 1.55874 -2.683901 0.795609 -3 0 -3 
C -0.795609 -3 -1.55874 -2.683901 -2.12132 -2.12132 
C -2.683901 -1.55874 -3 -0.795609 -3 0 
C -3 0.795609 -2.683901 1.55874 -2.12132 2.12132 
C -1.55874 2.683901 -0.795609 3 0 3 
z
" style="stroke: #d69e2e"/>
    </defs>
    <g clip-path="url(#pf759fb48e4)">
     <use xlink:href="#m65bf718476" x="92.651456" y="250.31461" style="fill: #d69e2e; stroke: #d69e2e"/>
     <use xlink:href="#m65bf718476" x="175.495286" y="250.764774" style="fill: #d69e2e; stroke: #d69e2e"/>
     <use xlink:href="#m65bf718476" x="258.339115" y="251.687089" style="fill: #d69e2e; stroke: #d69e2e"/>
     <use xlink:href="#m65bf718476" x="341.182944" y="251.011568" style="fill: #d69e2e; stroke: #d69e2e"/>
     <use xlink:href="#m65bf718476" x="424.026773" y="251.399072" style="fill: #d69e2e; stroke: #d69e2e"/>
     <use xlink:href="#m65bf718476" x="672.558261" y="251.011018" style="fill: #d69e2e; stroke: #d69e2e"/>
    </g>
   </g>
   <g id="line2d_29">
    <path d="M 92.651456 250.762576 
L 175.495286 251.648613 
L 258.339115 252.275216 
L 341.182944 251.422707 
L 424.026773 251.840991 
L 506.870603 251.611237 
L 589.714432 251.721717 
" clip-path="url(#pf759fb48e4)" style="fill: none; stroke: #38a169; stroke-width: 2; stroke-linecap: square"/>
    <defs>
     <path id="m1cdd4dcba4" d="M 0 3 
C 0.795609 3 1.55874 2.683901 2.12132 2.12132 
C 2.683901 1.55874 3 0.795609 3 0 
C 3 -0.795609 2.683901 -1.55874 2.12132 -2.12132 
C 1.55874 -2.683901 0.795609 -3 0 -3 
C -0.795609 -3 -1.55874 -2.683901 -2.12132 -2.12132 
C -2.683901 -1.55874 -3 -0.795609 -3 0 
C -3 0.795609 -2.683901 1.55874 -2.12132 2.12132 
C -1.55874 2.683901 -0.795609 3 0 3 
z
" style="stroke: #38a169"/>
    </defs>
    <g clip-path="url(#pf759fb48e4)">
     <use xlink:href="#m1cdd4dcba4" x="92.651456" y="250.762576" style="fill: #38a169; stroke: #38a169"/>
     <use xlink:href="#m1cdd4dcba4" x="175.495286" y="251.648613" style="fill: #38a169; stroke: #38a169"/>
     <use xlink:href="#m1cdd4dcba4" x="258.339115" y="252.275216" style="fill: #38a169; stroke: #38a169"/>
     <use xlink:href="#m1cdd4dcba4" x="341.182944" y="251.422707" style="fill: #38a169; stroke: #38a169"/>
     <use xlink:href="#m1cdd4dcba4" x="424.026773" y="251.840991" style="fill: #38a169; stroke: #38a169"/>
     <use xlink:href="#m1cdd4dcba4" x="506.870603" y="251.611237" style="fill: #38a169; stroke: #38a169"/>
     <use xlink:href="#m1cdd4dcba4" x="589.714432" y="251.721717" style="fill: #38a169; stroke: #38a169"/>
    </g>
   </g>
   <g id="patch_3">
    <path d="M 63.656116 263.945464 
L 63.656116 7.2 
" style="fill: none; stroke: #000000; stroke-width: 0.8; stroke-linejoin: miter; stroke-linecap: square"/>
   </g>
   <g id="patch_4">
    <path d="M 701.553601 263.945464 
L 701.553601 7.2 
" style="fill: none; stroke: #000000; stroke-width: 0.8; stroke-linejoin: miter; stroke-linecap: square"/>
   </g>
   <g id="patch_5">
    <path d="M 63.656116 263.945464 
L 701.553601 263.945464 
" style="fill: none; stroke: #000000; stroke-width: 0.8; stroke-linejoin: miter; stroke-linecap: square"/>
   </g>
   <g id="patch_6">
    <path d="M 63.656116 7.2 
L 701.553601 7.2 
" style="fill: none; stroke: #000000; stroke-width: 0.8; stroke-linejoin: miter; stroke-linecap: square"/>
   </g>
   <g id="legend_1">
    <g id="patch_7">
     <path d="M 621.453601 53.118281 
L 695.253601 53.118281 
Q 697.053601 53.118281 697.053601 51.318281 
L 697.053601 13.5 
Q 697.053601 11.7 695.253601 11.7 
L 621.453601 11.7 
Q 619.653601 11.7 619.653601 13.5 
L 619.653601 51.318281 
Q 619.653601 53.118281 621.453601 53.118281 
z
" style="fill: #ffffff; opacity: 0.8; stroke: #cccccc; stroke-linejoin: miter"/>
    </g>
    <g id="line2d_30">
     <path d="M 623.253601 19.313437 
L 632.253601 19.313437 
L 641.253601 19.313437 
" style="fill: none; stroke: #1a365d; stroke-width: 2; stroke-linecap: square"/>
     <g>
      <use xlink:href="#mafe22a8a74" x="632.253601" y="19.313437" style="fill: #1a365d; stroke: #1a365d"/>
     </g>
    </g>
    <g id="text_14">
     <!-- 营收 -->
     <g transform="translate(648.453601 22.463437) scale(0.09 -0.09)">
      <defs>
       <path id="STHeiti-8425" d="M 4282 3693 
Q 5274 3706 5856 3731 
L 5856 2662 
L 5344 2662 
L 5344 3277 
L 1082 3277 
L 1082 2624 
L 570 2624 
L 570 3731 
Q 1082 3699 2106 3693 
L 2106 4218 
Q 1056 4205 467 4160 
L 467 4666 
Q 1133 4614 2106 4614 
Q 2099 4973 2054 5178 
Q 2387 5133 2650 5133 
Q 2733 5133 2733 5101 
Q 2733 5069 2681 5037 
Q 2630 5005 2617 4979 
Q 2605 4954 2605 4890 
L 2605 4614 
L 3782 4614 
Q 3776 4947 3738 5171 
Q 4019 5133 4326 5133 
Q 4410 5133 4410 5101 
Q 4410 5069 4358 5037 
Q 4307 5005 4294 4979 
Q 4282 4954 4282 4890 
L 4282 4614 
Q 5299 4614 5965 4666 
L 5965 4160 
Q 5344 4218 4282 4218 
L 4282 3693 
z
M 2605 3693 
L 3782 3693 
L 3782 4218 
L 2605 4218 
L 2605 3693 
z
M 4794 1568 
Q 4230 1587 3270 1587 
Q 2310 1587 1587 1562 
Q 1619 1773 1619 2176 
Q 1619 2579 1587 2874 
Q 2086 2848 3190 2848 
Q 4294 2848 4794 2874 
Q 4774 2611 4774 2217 
Q 4774 1824 4794 1568 
z
M 4269 1971 
L 4269 2464 
L 2118 2464 
L 2118 1971 
L 4269 1971 
z
M 4698 -109 
L 1722 -109 
L 1722 -576 
L 1152 -576 
Q 1197 -333 1197 -64 
L 1197 890 
Q 1197 1037 1158 1197 
Q 1350 1184 3235 1184 
Q 5120 1184 5280 1197 
Q 5248 1082 5248 890 
L 5248 0 
Q 5248 -269 5293 -512 
L 4698 -512 
L 4698 -109 
z
M 1722 288 
L 4698 288 
L 4698 794 
L 1722 794 
L 1722 288 
z
" transform="scale(0.015625)"/>
       <path id="STHeiti-6536" d="M 1824 1664 
L 1824 4230 
Q 1824 4998 1773 5190 
Q 2003 5146 2413 5146 
Q 2522 5146 2522 5107 
Q 2522 5069 2435 5017 
Q 2349 4966 2349 4544 
L 2349 563 
Q 2349 26 2413 -589 
L 1766 -589 
Q 1824 6 1824 563 
L 1824 1197 
L 1082 992 
Q 826 922 614 762 
Q 512 1030 352 1293 
Q 608 1440 608 1722 
L 608 3539 
Q 608 4115 582 4282 
Q 806 4243 973 4243 
L 1171 4250 
Q 1261 4250 1261 4211 
Q 1261 4173 1203 4141 
Q 1082 4083 1082 3968 
L 1082 1510 
L 1824 1664 
z
M 4224 1286 
Q 4685 1984 4781 3462 
L 3629 3462 
Q 3226 2547 2970 2157 
Q 2733 2317 2522 2387 
Q 2906 2918 3203 3712 
Q 3501 4506 3565 5146 
Q 3981 5005 4250 4966 
Q 4326 4954 4326 4922 
Q 4326 4890 4278 4851 
Q 4230 4813 4150 4653 
Q 4070 4493 3821 3917 
L 5120 3917 
Q 5747 3917 5971 3974 
L 5971 3424 
Q 5754 3462 5318 3462 
Q 5178 1722 4576 896 
Q 5178 365 6061 173 
Q 5734 -134 5664 -493 
Q 4845 -115 4237 518 
Q 3699 -115 2899 -499 
Q 2790 -262 2483 -64 
Q 3213 173 3898 883 
Q 3450 1466 3315 2675 
L 3744 2810 
Q 3814 1888 4224 1286 
z
" transform="scale(0.015625)"/>
      </defs>
      <use xlink:href="#STHeiti-8425"/>
      <use xlink:href="#STHeiti-6536" transform="translate(99.999985 0)"/>
     </g>
    </g>
    <g id="line2d_31">
     <path d="M 623.253601 32.201719 
L 632.253601 32.201719 
L 641.253601 32.201719 
" style="fill: none; stroke: #d69e2e; stroke-width: 2; stroke-linecap: square"/>
     <g>
      <use xlink:href="#m65bf718476" x="632.253601" y="32.201719" style="fill: #d69e2e; stroke: #d69e2e"/>
     </g>
    </g>
    <g id="text_15">
     <!-- 整体毛利率 -->
     <g transform="translate(648.453601 35.351719) scale(0.09 -0.09)">
      <defs>
       <path id="STHeiti-6574" d="M 4659 2509 
Q 4307 2176 3712 1920 
Q 3616 2144 3398 2285 
Q 3994 2496 4352 2797 
Q 4096 3098 3949 3450 
L 4314 3603 
Q 4435 3302 4621 3078 
Q 4928 3482 5011 4051 
L 4224 4051 
Q 4038 3654 3738 3226 
Q 3571 3354 3386 3398 
Q 3974 4230 4090 5190 
Q 4416 5082 4627 5056 
Q 4704 5043 4704 5014 
Q 4704 4986 4621 4922 
Q 4563 4883 4390 4448 
L 5216 4448 
Q 5722 4448 5939 4486 
L 5939 4026 
Q 5766 4045 5485 4051 
Q 5325 3309 4941 2810 
Q 5318 2573 6042 2458 
Q 5824 2291 5734 1939 
Q 5101 2157 4659 2509 
z
M 1830 2810 
Q 1414 2054 762 1651 
Q 602 1856 365 1939 
Q 1075 2253 1472 2835 
Q 896 2835 698 2822 
Q 736 3027 736 3344 
Q 736 3661 698 3885 
Q 1088 3859 1830 3859 
L 1830 4250 
Q 986 4250 544 4205 
L 544 4653 
Q 979 4602 1830 4602 
Q 1830 5043 1786 5184 
Q 1971 5158 2106 5158 
L 2291 5165 
Q 2355 5165 2355 5139 
Q 2355 5114 2294 5050 
Q 2234 4986 2234 4602 
Q 2976 4602 3437 4640 
L 3437 4205 
Q 3008 4243 2234 4250 
L 2234 3859 
Q 2970 3859 3354 3885 
Q 3328 3597 3328 3334 
Q 3328 3072 3354 2810 
Q 2976 2835 2234 2835 
Q 2234 2291 2291 1939 
L 1773 1939 
Q 1830 2278 1830 2810 
z
M 2234 3558 
L 2234 3136 
L 2925 3136 
L 2925 3558 
L 2234 3558 
z
M 1830 3136 
L 1830 3558 
L 1126 3558 
L 1126 3136 
L 1830 3136 
z
M 3302 2227 
L 2989 1939 
Q 2720 2246 2374 2458 
L 2682 2707 
Q 3104 2394 3302 2227 
z
M 3424 595 
L 3424 77 
Q 4928 77 5914 128 
L 5914 -397 
Q 4870 -346 3225 -346 
Q 1581 -346 538 -397 
L 538 128 
L 1626 90 
L 1626 474 
Q 1626 877 1587 1088 
Q 1670 1056 2138 1056 
Q 2202 1056 2202 1030 
Q 2202 1005 2157 960 
Q 2080 883 2080 614 
L 2080 77 
L 2963 77 
L 2963 1402 
Q 1709 1389 1126 1350 
L 1126 1818 
Q 1824 1773 3133 1773 
Q 4442 1773 5331 1818 
L 5331 1350 
Q 4563 1402 3424 1402 
L 3424 966 
Q 4928 966 5222 992 
L 5222 563 
Q 4634 595 3424 595 
z
" transform="scale(0.015625)"/>
       <path id="STHeiti-4f53" d="M 3648 3539 
L 3462 3539 
Q 3379 2624 3049 1872 
Q 2720 1120 2067 371 
Q 1894 634 1670 813 
Q 2733 1786 3072 3533 
Q 2464 3526 1946 3482 
L 1946 4038 
Q 2605 3987 3648 3981 
Q 3648 4966 3590 5274 
Q 3757 5235 4192 5235 
Q 4275 5235 4275 5200 
Q 4275 5165 4201 5107 
Q 4128 5050 4128 4883 
L 4128 3981 
Q 5267 3981 5933 4038 
L 5933 3482 
Q 5363 3533 4493 3539 
Q 4730 2534 5165 1958 
Q 5600 1382 6202 1069 
Q 5958 819 5766 461 
Q 4966 1171 4652 1808 
Q 4339 2445 4186 3539 
L 4128 3539 
L 4128 1030 
Q 4698 1043 4941 1082 
L 4941 563 
Q 4627 602 4128 614 
Q 4134 83 4198 -563 
L 3578 -563 
Q 3642 83 3648 614 
Q 3072 608 2714 563 
L 2714 1082 
Q 2995 1043 3648 1030 
L 3648 3539 
z
M 1062 2874 
Q 826 2406 576 1984 
Q 410 2221 179 2400 
Q 608 2886 880 3545 
Q 1152 4205 1350 5197 
Q 1690 5069 2022 5005 
Q 2106 4992 2106 4957 
Q 2106 4922 2016 4851 
Q 1926 4781 1555 3949 
L 1555 -621 
L 986 -621 
Q 1062 134 1062 736 
L 1062 2874 
z
" transform="scale(0.015625)"/>
       <path id="STHeiti-6bdb" d="M 3194 4179 
L 3194 3290 
Q 4365 3430 5082 3565 
L 5139 3021 
Q 4262 2989 3194 2848 
L 3194 1997 
Q 4890 2208 5843 2387 
L 5894 1830 
Q 4813 1760 3194 1530 
L 3194 512 
Q 3194 339 3235 272 
Q 3277 205 3421 179 
Q 3565 154 4070 154 
Q 4576 154 4803 198 
Q 5030 243 5123 409 
Q 5216 576 5312 1069 
Q 5626 787 5914 723 
Q 5786 262 5699 70 
Q 5613 -122 5453 -218 
Q 5293 -314 5011 -336 
Q 4730 -358 4026 -358 
Q 3322 -358 3066 -329 
Q 2810 -301 2739 -198 
Q 2669 -96 2669 205 
L 2669 1453 
Q 1344 1274 544 1126 
L 493 1683 
Q 1338 1747 2669 1920 
L 2669 2778 
Q 1690 2650 986 2515 
L 928 3053 
Q 1446 3078 2669 3226 
L 2669 4109 
Q 1670 3974 1018 3930 
Q 928 4230 762 4467 
Q 1792 4467 2963 4633 
Q 4134 4800 4960 5101 
Q 5018 4966 5120 4796 
Q 5222 4627 5270 4569 
Q 5318 4512 5318 4483 
Q 5318 4454 5296 4451 
Q 5274 4448 5165 4448 
Q 4864 4448 4409 4368 
Q 3955 4288 3194 4179 
z
" transform="scale(0.015625)"/>
       <path id="STHeiti-5229" d="M 4909 5165 
Q 5165 5107 5555 5107 
Q 5645 5107 5645 5065 
Q 5645 5024 5577 4976 
Q 5510 4928 5510 4768 
L 5510 198 
Q 5510 -90 5433 -227 
Q 5357 -365 5120 -445 
Q 4883 -525 4352 -595 
Q 4333 -275 4070 64 
Q 4269 51 4483 51 
Q 4698 51 4826 112 
Q 4954 173 4954 435 
L 4954 4109 
Q 4954 4826 4909 5165 
z
M 1658 2016 
Q 1325 1210 730 422 
Q 550 698 307 909 
Q 1267 1837 1594 2880 
Q 742 2867 410 2835 
L 410 3392 
Q 749 3354 1658 3341 
L 1658 4218 
Q 1120 4134 685 4096 
Q 621 4320 442 4576 
Q 864 4576 1561 4688 
Q 2259 4800 2912 5011 
Q 2970 4851 3072 4697 
Q 3174 4544 3244 4489 
Q 3315 4435 3315 4403 
Q 3315 4352 3244 4365 
Q 3174 4378 3091 4378 
Q 2778 4378 2182 4301 
L 2182 3341 
Q 3066 3354 3386 3392 
L 3386 2835 
Q 3040 2867 2182 2880 
L 2182 525 
Q 2182 90 2227 -576 
L 1587 -576 
Q 1658 128 1658 525 
L 1658 2016 
z
M 3725 4186 
Q 3968 4134 4326 4134 
Q 4403 4134 4403 4099 
Q 4403 4064 4345 4029 
Q 4288 3994 4288 3834 
L 4288 1766 
Q 4288 1357 4314 966 
L 3725 966 
Q 3750 1382 3750 1766 
L 3750 3482 
Q 3750 3968 3725 4186 
z
M 3322 1485 
L 2874 1165 
Q 2630 1613 2227 2176 
L 2605 2458 
Q 2957 1933 3322 1485 
z
" transform="scale(0.015625)"/>
       <path id="STHeiti-7387" d="M 3066 4621 
Q 2970 4934 2867 5152 
L 3526 5254 
Q 3546 4902 3616 4621 
Q 5018 4627 5837 4685 
L 5837 4115 
Q 4941 4179 3277 4179 
Q 1613 4179 678 4115 
L 678 4685 
Q 1568 4621 3066 4621 
z
M 3046 2790 
L 2662 2739 
Q 2195 2675 2106 2637 
Q 2106 2854 2010 3059 
Q 2336 3155 2842 4128 
Q 3110 3955 3251 3913 
Q 3392 3872 3392 3846 
Q 3392 3821 3251 3769 
Q 3110 3718 2944 3497 
Q 2778 3277 2573 3085 
L 3373 3142 
Q 3686 3501 3859 3770 
Q 4077 3546 4307 3443 
Q 4397 3405 4397 3360 
Q 4397 3315 4307 3308 
Q 4218 3302 3965 3126 
Q 3712 2950 3411 2636 
Q 3110 2323 2624 1952 
L 3808 2035 
Q 3661 2278 3552 2413 
L 3942 2656 
Q 4211 2176 4595 1600 
L 4141 1389 
Q 4109 1466 4000 1683 
L 3456 1651 
L 3456 1018 
Q 5126 1018 5990 1075 
L 5990 518 
Q 5126 576 3456 576 
Q 3469 -160 3520 -691 
L 2886 -691 
Q 2944 -70 2944 576 
Q 1325 563 506 518 
L 506 1075 
Q 1331 1030 2950 1018 
L 2950 1613 
Q 2419 1574 2093 1491 
Q 2048 1786 1933 1965 
Q 2157 1965 2377 2147 
Q 2598 2330 3046 2790 
z
M 5248 3898 
Q 5453 3629 5709 3475 
Q 5760 3443 5760 3414 
Q 5760 3386 5677 3386 
Q 5594 3386 5389 3296 
Q 5184 3206 4755 2803 
Q 4595 3002 4384 3117 
Q 4934 3482 5248 3898 
z
M 1958 3238 
L 1587 2848 
Q 1261 3219 877 3507 
L 1222 3859 
Q 1517 3558 1958 3238 
z
M 5811 1933 
L 5414 1485 
Q 5030 1920 4461 2291 
L 4826 2675 
Q 5242 2317 5811 1933 
z
M 2003 2170 
Q 1824 2099 1024 1350 
Q 890 1645 704 1888 
Q 1018 2003 1357 2272 
Q 1696 2541 1798 2662 
Q 1830 2413 2003 2170 
z
" transform="scale(0.015625)"/>
      </defs>
      <use xlink:href="#STHeiti-6574"/>
      <use xlink:href="#STHeiti-4f53" transform="translate(99.999985 0)"/>
      <use xlink:href="#STHeiti-6bdb" transform="translate(199.999969 0)"/>
      <use xlink:href="#STHeiti-5229" transform="translate(299.999954 0)"/>
      <use xlink:href="#STHeiti-7387" transform="translate(399.999939 0)"/>
     </g>
    </g>
    <g id="line2d_32">
     <path d="M 623.253601 45.161719 
L 632.253601 45.161719 
L 641.253601 45.161719 
" style="fill: none; stroke: #38a169; stroke-width: 2; stroke-linecap: square"/>
     <g>
      <use xlink:href="#m1cdd4dcba4" x="632.253601" y="45.161719" style="fill: #38a169; stroke: #38a169"/>
     </g>
    </g>
    <g id="text_16">
     <!-- 净利率 -->
     <g transform="translate(648.453601 48.311719) scale(0.09 -0.09)">
      <defs>
       <path id="STHeiti-51c0" d="M 5510 2010 
L 5510 1325 
Q 5510 781 5549 550 
L 4986 550 
L 4986 934 
L 3878 934 
L 3878 -147 
Q 3878 -339 3795 -441 
Q 3712 -544 3478 -601 
Q 3245 -659 2758 -710 
Q 2765 -384 2630 -90 
Q 2944 -115 3094 -115 
Q 3245 -115 3289 -70 
Q 3334 -26 3334 115 
L 3334 934 
Q 2163 934 1926 909 
L 1926 1389 
Q 2272 1357 3334 1357 
L 3334 2016 
Q 2490 2016 1754 1965 
L 1754 2496 
Q 2381 2451 3334 2451 
L 3334 3110 
Q 2771 3104 2387 3046 
L 2387 3533 
Q 2816 3514 3661 3514 
L 4205 4224 
L 2874 4224 
Q 2470 3680 1939 3046 
Q 1786 3200 1530 3270 
Q 2362 4109 2842 5306 
Q 3187 5184 3526 5133 
Q 3610 5120 3610 5078 
Q 3610 5037 3530 5014 
Q 3450 4992 3174 4634 
L 4058 4634 
Q 4659 4634 5101 4691 
L 4243 3514 
Q 5306 3520 5536 3558 
Q 5510 3251 5510 2675 
L 5510 2470 
L 6131 2509 
L 6131 1984 
Q 5920 1997 5510 2010 
z
M 4986 2451 
L 4986 3110 
L 3878 3110 
L 3878 2451 
L 4986 2451 
z
M 4986 1357 
L 4986 2016 
L 3878 2016 
L 3878 1357 
L 4986 1357 
z
M 1523 3693 
L 1011 3392 
Q 806 3942 448 4454 
L 909 4762 
Q 1325 4096 1523 3693 
z
M 1613 2080 
Q 1254 1242 819 -70 
Q 595 230 211 365 
Q 410 646 691 1299 
Q 973 1952 1088 2400 
Q 1293 2170 1613 2080 
z
" transform="scale(0.015625)"/>
      </defs>
      <use xlink:href="#STHeiti-51c0"/>
      <use xlink:href="#STHeiti-5229" transform="translate(99.999985 0)"/>
      <use xlink:href="#STHeiti-7387" transform="translate(199.999969 0)"/>
     </g>
    </g>
   </g>
  </g>
 </g>
 <defs>
  <clipPath id="pf759fb48e4">
   <rect x="63.656116" y="7.2" width="637.897485" height="256.745464"/>
  </clipPath>
 </defs>
</svg>
