<?xml version="1.0" encoding="utf-8" standalone="no"?>
<!DOCTYPE svg PUBLIC "-//W3C//DTD SVG 1.1//EN"
  "http://www.w3.org/Graphics/SVG/1.1/DTD/svg11.dtd">
<svg xmlns:xlink="http://www.w3.org/1999/xlink" width="712.72125pt" height="352.13575pt" viewBox="0 0 712.72125 352.13575" xmlns="http://www.w3.org/2000/svg" version="1.1">
 <metadata>
  <rdf:RDF xmlns:dc="http://purl.org/dc/elements/1.1/" xmlns:cc="http://creativecommons.org/ns#" xmlns:rdf="http://www.w3.org/1999/02/22-rdf-syntax-ns#">
   <cc:Work>
    <dc:type rdf:resource="http://purl.org/dc/dcmitype/StillImage"/>
    <dc:date>2026-06-05T11:23:47.252352</dc:date>
    <dc:format>image/svg+xml</dc:format>
    <dc:creator>
     <cc:Agent>
      <dc:title>Matplotlib v3.10.9, https://matplotlib.org/</dc:title>
     </cc:Agent>
    </dc:creator>
   </cc:Work>
  </rdf:RDF>
 </metadata>
 <defs>
  <style type="text/css">*{stroke-linejoin: round; stroke-linecap: butt}</style>
 </defs>
 <g id="figure_1">
  <g id="patch_1">
   <path d="M -0 352.13575 
L 712.72125 352.13575 
L 712.72125 0 
L -0 0 
z
" style="fill: #ffffff"/>
  </g>
  <g id="axes_1">
   <g id="patch_2">
    <path d="M 25.28125 318.800464 
L 705.52125 318.800464 
L 705.52125 7.2 
L 25.28125 7.2 
z
" style="fill: #fafafa"/>
   </g>
   <g id="matplotlib.axis_1">
    <g id="xtick_1">
     <g id="line2d_1">
      <path d="M 56.20125 318.800464 
L 56.20125 7.2 
" clip-path="url(#p99c8c43734)" style="fill: none; stroke: #b0b0b0; stroke-opacity: 0.3; stroke-width: 0.8; stroke-linecap: square"/>
     </g>
     <g id="line2d_2">
      <defs>
       <path id="m750cd5db9d" d="M 0 0 
L 0 3.5 
" style="stroke: #000000; stroke-width: 0.8"/>
      </defs>
      <g>
       <use xlink:href="#m750cd5db9d" x="56.20125" y="318.800464" style="stroke: #000000; stroke-width: 0.8"/>
      </g>
     </g>
     <g id="text_1">
      <!-- 2019 -->
      <g transform="translate(36.337649 343.774735) rotate(-30) scale(0.1 -0.1)">
       <defs>
        <path id="STHeiti-32" d="M 742 3539 
L 301 3539 
Q 333 4243 768 4668 
Q 1203 5094 1820 5094 
Q 2438 5094 2844 4694 
Q 3251 4294 3251 3718 
Q 3251 3290 3024 2925 
Q 2797 2560 2336 2061 
L 1190 826 
L 3315 826 
L 3315 384 
L 192 384 
L 1946 2278 
Q 2406 2778 2604 3066 
Q 2803 3354 2803 3725 
Q 2803 4096 2512 4377 
Q 2221 4659 1789 4659 
Q 1357 4659 1072 4368 
Q 787 4077 742 3539 
z
" transform="scale(0.015625)"/>
        <path id="STHeiti-30" d="M 1747 269 
Q 1005 269 605 880 
Q 205 1491 205 2681 
Q 205 3872 605 4483 
Q 1005 5094 1741 5094 
Q 2477 5094 2909 4470 
Q 3341 3846 3341 2681 
Q 3341 1517 2905 893 
Q 2470 269 1747 269 
z
M 1760 4659 
Q 1229 4659 934 4147 
Q 640 3635 640 2669 
Q 640 685 1760 685 
Q 2304 685 2608 1206 
Q 2912 1728 2912 2681 
Q 2912 3635 2598 4147 
Q 2285 4659 1760 4659 
z
" transform="scale(0.015625)"/>
        <path id="STHeiti-31" d="M 1184 4979 
L 2086 4979 
L 2086 384 
L 1632 384 
L 1632 4531 
L 909 4531 
L 1184 4979 
z
" transform="scale(0.015625)"/>
        <path id="STHeiti-39" d="M 1229 269 
L 851 512 
L 2093 2394 
Q 1850 2310 1613 2310 
Q 1062 2310 688 2707 
Q 314 3104 314 3696 
Q 314 4288 730 4691 
Q 1146 5094 1750 5094 
Q 2355 5094 2748 4681 
Q 3142 4269 3142 3693 
Q 3142 3373 3011 3049 
Q 2880 2726 2624 2349 
L 1229 269 
z
M 762 3680 
Q 762 3277 1043 2995 
Q 1325 2714 1728 2714 
Q 2131 2714 2412 2998 
Q 2694 3283 2694 3680 
Q 2694 4077 2412 4361 
Q 2131 4646 1728 4646 
Q 1325 4646 1043 4364 
Q 762 4083 762 3680 
z
" transform="scale(0.015625)"/>
       </defs>
       <use xlink:href="#STHeiti-32"/>
       <use xlink:href="#STHeiti-30" transform="translate(55.399994 0)"/>
       <use xlink:href="#STHeiti-31" transform="translate(110.799988 0)"/>
       <use xlink:href="#STHeiti-39" transform="translate(166.199982 0)"/>
      </g>
     </g>
    </g>
    <g id="xtick_2">
     <g id="line2d_3">
      <path d="M 159.267917 318.800464 
L 159.267917 7.2 
" clip-path="url(#p99c8c43734)" style="fill: none; stroke: #b0b0b0; stroke-opacity: 0.3; stroke-width: 0.8; stroke-linecap: square"/>
     </g>
     <g id="line2d_4">
      <g>
       <use xlink:href="#m750cd5db9d" x="159.267917" y="318.800464" style="stroke: #000000; stroke-width: 0.8"/>
      </g>
     </g>
     <g id="text_2">
      <!-- 2020 -->
      <g transform="translate(139.404316 343.774735) rotate(-30) scale(0.1 -0.1)">
       <use xlink:href="#STHeiti-32"/>
       <use xlink:href="#STHeiti-30" transform="translate(55.399994 0)"/>
       <use xlink:href="#STHeiti-32" transform="translate(110.799988 0)"/>
       <use xlink:href="#STHeiti-30" transform="translate(166.199982 0)"/>
      </g>
     </g>
    </g>
    <g id="xtick_3">
     <g id="line2d_5">
      <path d="M 262.334583 318.800464 
L 262.334583 7.2 
" clip-path="url(#p99c8c43734)" style="fill: none; stroke: #b0b0b0; stroke-opacity: 0.3; stroke-width: 0.8; stroke-linecap: square"/>
     </g>
     <g id="line2d_6">
      <g>
       <use xlink:href="#m750cd5db9d" x="262.334583" y="318.800464" style="stroke: #000000; stroke-width: 0.8"/>
      </g>
     </g>
     <g id="text_3">
      <!-- 2021 -->
      <g transform="translate(242.470983 343.774735) rotate(-30) scale(0.1 -0.1)">
       <use xlink:href="#STHeiti-32"/>
       <use xlink:href="#STHeiti-30" transform="translate(55.399994 0)"/>
       <use xlink:href="#STHeiti-32" transform="translate(110.799988 0)"/>
       <use xlink:href="#STHeiti-31" transform="translate(166.199982 0)"/>
      </g>
     </g>
    </g>
    <g id="xtick_4">
     <g id="line2d_7">
      <path d="M 365.40125 318.800464 
L 365.40125 7.2 
" clip-path="url(#p99c8c43734)" style="fill: none; stroke: #b0b0b0; stroke-opacity: 0.3; stroke-width: 0.8; stroke-linecap: square"/>
     </g>
     <g id="line2d_8">
      <g>
       <use xlink:href="#m750cd5db9d" x="365.40125" y="318.800464" style="stroke: #000000; stroke-width: 0.8"/>
      </g>
     </g>
     <g id="text_4">
      <!-- 2022 -->
      <g transform="translate(345.537649 343.774735) rotate(-30) scale(0.1 -0.1)">
       <use xlink:href="#STHeiti-32"/>
       <use xlink:href="#STHeiti-30" transform="translate(55.399994 0)"/>
       <use xlink:href="#STHeiti-32" transform="translate(110.799988 0)"/>
       <use xlink:href="#STHeiti-32" transform="translate(166.199982 0)"/>
      </g>
     </g>
    </g>
    <g id="xtick_5">
     <g id="line2d_9">
      <path d="M 468.467917 318.800464 
L 468.467917 7.2 
" clip-path="url(#p99c8c43734)" style="fill: none; stroke: #b0b0b0; stroke-opacity: 0.3; stroke-width: 0.8; stroke-linecap: square"/>
     </g>
     <g id="line2d_10">
      <g>
       <use xlink:href="#m750cd5db9d" x="468.467917" y="318.800464" style="stroke: #000000; stroke-width: 0.8"/>
      </g>
     </g>
     <g id="text_5">
      <!-- 2023 -->
      <g transform="translate(448.604316 343.774735) rotate(-30) scale(0.1 -0.1)">
       <defs>
        <path id="STHeiti-33" d="M 845 3917 
L 378 3917 
Q 506 4486 867 4790 
Q 1229 5094 1750 5094 
Q 2272 5094 2659 4748 
Q 3046 4403 3046 3910 
Q 3046 3315 2458 2970 
Q 2861 2803 3081 2473 
Q 3302 2144 3302 1754 
Q 3302 1146 2857 707 
Q 2413 269 1734 269 
Q 1133 269 742 611 
Q 352 954 224 1613 
L 672 1613 
Q 794 1158 1046 937 
Q 1299 717 1760 717 
Q 2221 717 2534 1011 
Q 2848 1306 2848 1741 
Q 2848 2176 2502 2441 
Q 2157 2707 1498 2720 
L 1498 3142 
Q 1971 3142 2268 3360 
Q 2566 3578 2566 3901 
Q 2566 4224 2326 4438 
Q 2086 4653 1747 4653 
Q 1408 4653 1200 4470 
Q 992 4288 845 3917 
z
" transform="scale(0.015625)"/>
       </defs>
       <use xlink:href="#STHeiti-32"/>
       <use xlink:href="#STHeiti-30" transform="translate(55.399994 0)"/>
       <use xlink:href="#STHeiti-32" transform="translate(110.799988 0)"/>
       <use xlink:href="#STHeiti-33" transform="translate(166.199982 0)"/>
      </g>
     </g>
    </g>
    <g id="xtick_6">
     <g id="line2d_11">
      <path d="M 571.534583 318.800464 
L 571.534583 7.2 
" clip-path="url(#p99c8c43734)" style="fill: none; stroke: #b0b0b0; stroke-opacity: 0.3; stroke-width: 0.8; stroke-linecap: square"/>
     </g>
     <g id="line2d_12">
      <g>
       <use xlink:href="#m750cd5db9d" x="571.534583" y="318.800464" style="stroke: #000000; stroke-width: 0.8"/>
      </g>
     </g>
     <g id="text_6">
      <!-- 2024 -->
      <g transform="translate(551.670983 343.774735) rotate(-30) scale(0.1 -0.1)">
       <defs>
        <path id="STHeiti-34" d="M 2726 5094 
L 2816 5094 
L 2816 1894 
L 3373 1894 
L 3373 1453 
L 2816 1453 
L 2816 384 
L 2362 384 
L 2362 1453 
L 160 1453 
L 2726 5094 
z
M 2362 1894 
L 2362 3808 
L 1005 1894 
L 2362 1894 
z
" transform="scale(0.015625)"/>
       </defs>
       <use xlink:href="#STHeiti-32"/>
       <use xlink:href="#STHeiti-30" transform="translate(55.399994 0)"/>
       <use xlink:href="#STHeiti-32" transform="translate(110.799988 0)"/>
       <use xlink:href="#STHeiti-34" transform="translate(166.199982 0)"/>
      </g>
     </g>
    </g>
    <g id="xtick_7">
     <g id="line2d_13">
      <path d="M 674.60125 318.800464 
L 674.60125 7.2 
" clip-path="url(#p99c8c43734)" style="fill: none; stroke: #b0b0b0; stroke-opacity: 0.3; stroke-width: 0.8; stroke-linecap: square"/>
     </g>
     <g id="line2d_14">
      <g>
       <use xlink:href="#m750cd5db9d" x="674.60125" y="318.800464" style="stroke: #000000; stroke-width: 0.8"/>
      </g>
     </g>
     <g id="text_7">
      <!-- 2025 -->
      <g transform="translate(654.737649 343.774735) rotate(-30) scale(0.1 -0.1)">
       <defs>
        <path id="STHeiti-35" d="M 3149 4979 
L 3149 4544 
L 1510 4544 
L 1280 3290 
Q 1587 3379 1856 3379 
Q 2458 3379 2861 2953 
Q 3264 2528 3264 1862 
Q 3264 1197 2825 733 
Q 2387 269 1664 269 
Q 1114 269 726 598 
Q 339 928 262 1498 
L 730 1498 
Q 813 1114 1075 909 
Q 1338 704 1683 704 
Q 2138 704 2467 1043 
Q 2797 1382 2797 1888 
Q 2797 2349 2509 2646 
Q 2221 2944 1757 2944 
Q 1293 2944 730 2701 
L 1158 4979 
L 3149 4979 
z
" transform="scale(0.015625)"/>
       </defs>
       <use xlink:href="#STHeiti-32"/>
       <use xlink:href="#STHeiti-30" transform="translate(55.399994 0)"/>
       <use xlink:href="#STHeiti-32" transform="translate(110.799988 0)"/>
       <use xlink:href="#STHeiti-35" transform="translate(166.199982 0)"/>
      </g>
     </g>
    </g>
   </g>
   <g id="matplotlib.axis_2">
    <g id="ytick_1">
     <g id="line2d_15">
      <path d="M 25.28125 304.636806 
L 705.52125 304.636806 
" clip-path="url(#p99c8c43734)" style="fill: none; stroke: #b0b0b0; stroke-opacity: 0.3; stroke-width: 0.8; stroke-linecap: square"/>
     </g>
     <g id="line2d_16">
      <defs>
       <path id="m92555396af" d="M 0 0 
L -3.5 0 
" style="stroke: #000000; stroke-width: 0.8"/>
      </defs>
      <g>
       <use xlink:href="#m92555396af" x="25.28125" y="304.636806" style="stroke: #000000; stroke-width: 0.8"/>
      </g>
     </g>
     <g id="text_8">
      <!-- 0 -->
      <g transform="translate(12.740625 308.616494) scale(0.1 -0.1)">
       <use xlink:href="#STHeiti-30"/>
      </g>
     </g>
    </g>
    <g id="ytick_2">
     <g id="line2d_17">
      <path d="M 25.28125 269.227663 
L 705.52125 269.227663 
" clip-path="url(#p99c8c43734)" style="fill: none; stroke: #b0b0b0; stroke-opacity: 0.3; stroke-width: 0.8; stroke-linecap: square"/>
     </g>
     <g id="line2d_18">
      <g>
       <use xlink:href="#m92555396af" x="25.28125" y="269.227663" style="stroke: #000000; stroke-width: 0.8"/>
      </g>
     </g>
     <g id="text_9">
      <!-- 10 -->
      <g transform="translate(7.2 273.20735) scale(0.1 -0.1)">
       <use xlink:href="#STHeiti-31"/>
       <use xlink:href="#STHeiti-30" transform="translate(55.399994 0)"/>
      </g>
     </g>
    </g>
    <g id="ytick_3">
     <g id="line2d_19">
      <path d="M 25.28125 233.818519 
L 705.52125 233.818519 
" clip-path="url(#p99c8c43734)" style="fill: none; stroke: #b0b0b0; stroke-opacity: 0.3; stroke-width: 0.8; stroke-linecap: square"/>
     </g>
     <g id="line2d_20">
      <g>
       <use xlink:href="#m92555396af" x="25.28125" y="233.818519" style="stroke: #000000; stroke-width: 0.8"/>
      </g>
     </g>
     <g id="text_10">
      <!-- 20 -->
      <g transform="translate(7.2 237.798207) scale(0.1 -0.1)">
       <use xlink:href="#STHeiti-32"/>
       <use xlink:href="#STHeiti-30" transform="translate(55.399994 0)"/>
      </g>
     </g>
    </g>
    <g id="ytick_4">
     <g id="line2d_21">
      <path d="M 25.28125 198.409376 
L 705.52125 198.409376 
" clip-path="url(#p99c8c43734)" style="fill: none; stroke: #b0b0b0; stroke-opacity: 0.3; stroke-width: 0.8; stroke-linecap: square"/>
     </g>
     <g id="line2d_22">
      <g>
       <use xlink:href="#m92555396af" x="25.28125" y="198.409376" style="stroke: #000000; stroke-width: 0.8"/>
      </g>
     </g>
     <g id="text_11">
      <!-- 30 -->
      <g transform="translate(7.2 202.389063) scale(0.1 -0.1)">
       <use xlink:href="#STHeiti-33"/>
       <use xlink:href="#STHeiti-30" transform="translate(55.399994 0)"/>
      </g>
     </g>
    </g>
    <g id="ytick_5">
     <g id="line2d_23">
      <path d="M 25.28125 163.000232 
L 705.52125 163.000232 
" clip-path="url(#p99c8c43734)" style="fill: none; stroke: #b0b0b0; stroke-opacity: 0.3; stroke-width: 0.8; stroke-linecap: square"/>
     </g>
     <g id="line2d_24">
      <g>
       <use xlink:href="#m92555396af" x="25.28125" y="163.000232" style="stroke: #000000; stroke-width: 0.8"/>
      </g>
     </g>
     <g id="text_12">
      <!-- 40 -->
      <g transform="translate(7.2 166.979919) scale(0.1 -0.1)">
       <use xlink:href="#STHeiti-34"/>
       <use xlink:href="#STHeiti-30" transform="translate(55.399994 0)"/>
      </g>
     </g>
    </g>
    <g id="ytick_6">
     <g id="line2d_25">
      <path d="M 25.28125 127.591088 
L 705.52125 127.591088 
" clip-path="url(#p99c8c43734)" style="fill: none; stroke: #b0b0b0; stroke-opacity: 0.3; stroke-width: 0.8; stroke-linecap: square"/>
     </g>
     <g id="line2d_26">
      <g>
       <use xlink:href="#m92555396af" x="25.28125" y="127.591088" style="stroke: #000000; stroke-width: 0.8"/>
      </g>
     </g>
     <g id="text_13">
      <!-- 50 -->
      <g transform="translate(7.2 131.570776) scale(0.1 -0.1)">
       <use xlink:href="#STHeiti-35"/>
       <use xlink:href="#STHeiti-30" transform="translate(55.399994 0)"/>
      </g>
     </g>
    </g>
    <g id="ytick_7">
     <g id="line2d_27">
      <path d="M 25.28125 92.181945 
L 705.52125 92.181945 
" clip-path="url(#p99c8c43734)" style="fill: none; stroke: #b0b0b0; stroke-opacity: 0.3; stroke-width: 0.8; stroke-linecap: square"/>
     </g>
     <g id="line2d_28">
      <g>
       <use xlink:href="#m92555396af" x="25.28125" y="92.181945" style="stroke: #000000; stroke-width: 0.8"/>
      </g>
     </g>
     <g id="text_14">
      <!-- 60 -->
      <g transform="translate(7.2 96.161632) scale(0.1 -0.1)">
       <defs>
        <path id="STHeiti-36" d="M 2349 5094 
L 2726 4851 
L 1485 2970 
Q 1747 3059 1984 3059 
Q 2496 3059 2880 2652 
Q 3264 2246 3264 1660 
Q 3264 1075 2845 672 
Q 2426 269 1827 269 
Q 1229 269 829 678 
Q 429 1088 429 1677 
Q 429 1958 537 2256 
Q 646 2554 954 3014 
L 2349 5094 
z
M 2810 1683 
Q 2810 2086 2528 2368 
Q 2246 2650 1843 2650 
Q 1440 2650 1158 2368 
Q 877 2086 877 1683 
Q 877 1280 1161 998 
Q 1446 717 1843 717 
Q 2240 717 2525 998 
Q 2810 1280 2810 1683 
z
" transform="scale(0.015625)"/>
       </defs>
       <use xlink:href="#STHeiti-36"/>
       <use xlink:href="#STHeiti-30" transform="translate(55.399994 0)"/>
      </g>
     </g>
    </g>
    <g id="ytick_8">
     <g id="line2d_29">
      <path d="M 25.28125 56.772801 
L 705.52125 56.772801 
" clip-path="url(#p99c8c43734)" style="fill: none; stroke: #b0b0b0; stroke-opacity: 0.3; stroke-width: 0.8; stroke-linecap: square"/>
     </g>
     <g id="line2d_30">
      <g>
       <use xlink:href="#m92555396af" x="25.28125" y="56.772801" style="stroke: #000000; stroke-width: 0.8"/>
      </g>
     </g>
     <g id="text_15">
      <!-- 70 -->
      <g transform="translate(7.2 60.752489) scale(0.1 -0.1)">
       <defs>
        <path id="STHeiti-37" d="M 461 4979 
L 3373 4979 
L 915 269 
L 538 461 
L 2662 4544 
L 461 4544 
L 461 4979 
z
" transform="scale(0.015625)"/>
       </defs>
       <use xlink:href="#STHeiti-37"/>
       <use xlink:href="#STHeiti-30" transform="translate(55.399994 0)"/>
      </g>
     </g>
    </g>
    <g id="ytick_9">
     <g id="line2d_31">
      <path d="M 25.28125 21.363657 
L 705.52125 21.363657 
" clip-path="url(#p99c8c43734)" style="fill: none; stroke: #b0b0b0; stroke-opacity: 0.3; stroke-width: 0.8; stroke-linecap: square"/>
     </g>
     <g id="line2d_32">
      <g>
       <use xlink:href="#m92555396af" x="25.28125" y="21.363657" style="stroke: #000000; stroke-width: 0.8"/>
      </g>
     </g>
     <g id="text_16">
      <!-- 80 -->
      <g transform="translate(7.2 25.343345) scale(0.1 -0.1)">
       <defs>
        <path id="STHeiti-38" d="M 2458 2906 
Q 3328 2477 3328 1702 
Q 3328 1088 2896 678 
Q 2464 269 1763 269 
Q 1062 269 640 678 
Q 218 1088 218 1664 
Q 218 2470 1107 2906 
Q 435 3264 435 3898 
Q 435 4371 828 4732 
Q 1222 5094 1779 5094 
Q 2336 5094 2726 4742 
Q 3117 4390 3117 3885 
Q 3117 3270 2458 2906 
z
M 2656 3904 
Q 2656 4211 2416 4432 
Q 2176 4653 1789 4653 
Q 1402 4653 1152 4432 
Q 902 4211 902 3897 
Q 902 3584 1174 3337 
Q 1446 3091 1792 3091 
Q 2138 3091 2397 3334 
Q 2656 3578 2656 3904 
z
M 2867 1696 
Q 2867 2086 2550 2380 
Q 2234 2675 1782 2675 
Q 1331 2675 1004 2371 
Q 678 2067 678 1654 
Q 678 1242 979 973 
Q 1280 704 1766 704 
Q 2253 704 2560 992 
Q 2867 1280 2867 1696 
z
" transform="scale(0.015625)"/>
       </defs>
       <use xlink:href="#STHeiti-38"/>
       <use xlink:href="#STHeiti-30" transform="translate(55.399994 0)"/>
      </g>
     </g>
    </g>
   </g>
   <g id="line2d_33">
    <path d="M 56.20125 144.587477 
L 159.267917 146.003843 
L 262.334583 147.420209 
L 365.40125 135.027008 
L 468.467917 98.555591 
L 571.534583 96.431042 
L 674.60125 47.920515 
" clip-path="url(#p99c8c43734)" style="fill: none; stroke: #1a365d; stroke-width: 2; stroke-linecap: square"/>
    <defs>
     <path id="meefcec8854" d="M 0 3 
C 0.795609 3 1.55874 2.683901 2.12132 2.12132 
C 2.683901 1.55874 3 0.795609 3 0 
C 3 -0.795609 2.683901 -1.55874 2.12132 -2.12132 
C 1.55874 -2.683901 0.795609 -3 0 -3 
C -0.795609 -3 -1.55874 -2.683901 -2.12132 -2.12132 
C -2.683901 -1.55874 -3 -0.795609 -3 0 
C -3 0.795609 -2.683901 1.55874 -2.12132 2.12132 
C -1.55874 2.683901 -0.795609 3 0 3 
z
" style="stroke: #1a365d"/>
    </defs>
    <g clip-path="url(#p99c8c43734)">
     <use xlink:href="#meefcec8854" x="56.20125" y="144.587477" style="fill: #1a365d; stroke: #1a365d"/>
     <use xlink:href="#meefcec8854" x="159.267917" y="146.003843" style="fill: #1a365d; stroke: #1a365d"/>
     <use xlink:href="#meefcec8854" x="262.334583" y="147.420209" style="fill: #1a365d; stroke: #1a365d"/>
     <use xlink:href="#meefcec8854" x="365.40125" y="135.027008" style="fill: #1a365d; stroke: #1a365d"/>
     <use xlink:href="#meefcec8854" x="468.467917" y="98.555591" style="fill: #1a365d; stroke: #1a365d"/>
     <use xlink:href="#meefcec8854" x="571.534583" y="96.431042" style="fill: #1a365d; stroke: #1a365d"/>
     <use xlink:href="#meefcec8854" x="674.60125" y="47.920515" style="fill: #1a365d; stroke: #1a365d"/>
    </g>
   </g>
   <g id="line2d_34">
    <path d="M 262.334583 21.363657 
L 365.40125 21.363657 
L 468.467917 39.068229 
L 571.534583 39.068229 
L 674.60125 47.920515 
" clip-path="url(#p99c8c43734)" style="fill: none; stroke: #d69e2e; stroke-width: 2; stroke-linecap: square"/>
    <defs>
     <path id="m7eba52db13" d="M 0 3 
C 0.795609 3 1.55874 2.683901 2.12132 2.12132 
C 2.683901 1.55874 3 0.795609 3 0 
C 3 -0.795609 2.683901 -1.55874 2.12132 -2.12132 
C 1.55874 -2.683901 0.795609 -3 0 -3 
C -0.795609 -3 -1.55874 -2.683901 -2.12132 -2.12132 
C -2.683901 -1.55874 -3 -0.795609 -3 0 
C -3 0.795609 -2.683901 1.55874 -2.12132 2.12132 
C -1.55874 2.683901 -0.795609 3 0 3 
z
" style="stroke: #d69e2e"/>
    </defs>
    <g clip-path="url(#p99c8c43734)">
     <use xlink:href="#m7eba52db13" x="262.334583" y="21.363657" style="fill: #d69e2e; stroke: #d69e2e"/>
     <use xlink:href="#m7eba52db13" x="365.40125" y="21.363657" style="fill: #d69e2e; stroke: #d69e2e"/>
     <use xlink:href="#m7eba52db13" x="468.467917" y="39.068229" style="fill: #d69e2e; stroke: #d69e2e"/>
     <use xlink:href="#m7eba52db13" x="571.534583" y="39.068229" style="fill: #d69e2e; stroke: #d69e2e"/>
     <use xlink:href="#m7eba52db13" x="674.60125" y="47.920515" style="fill: #d69e2e; stroke: #d69e2e"/>
    </g>
   </g>
   <g id="line2d_35">
    <path d="M 262.334583 177.163889 
L 365.40125 191.327547 
L 468.467917 244.441262 
L 571.534583 247.982177 
L 674.60125 304.636806 
" clip-path="url(#p99c8c43734)" style="fill: none; stroke: #38a169; stroke-width: 2; stroke-linecap: square"/>
    <defs>
     <path id="m02f71c19d7" d="M 0 3 
C 0.795609 3 1.55874 2.683901 2.12132 2.12132 
C 2.683901 1.55874 3 0.795609 3 0 
C 3 -0.795609 2.683901 -1.55874 2.12132 -2.12132 
C 1.55874 -2.683901 0.795609 -3 0 -3 
C -0.795609 -3 -1.55874 -2.683901 -2.12132 -2.12132 
C -2.683901 -1.55874 -3 -0.795609 -3 0 
C -3 0.795609 -2.683901 1.55874 -2.12132 2.12132 
C -1.55874 2.683901 -0.795609 3 0 3 
z
" style="stroke: #38a169"/>
    </defs>
    <g clip-path="url(#p99c8c43734)">
     <use xlink:href="#m02f71c19d7" x="262.334583" y="177.163889" style="fill: #38a169; stroke: #38a169"/>
     <use xlink:href="#m02f71c19d7" x="365.40125" y="191.327547" style="fill: #38a169; stroke: #38a169"/>
     <use xlink:href="#m02f71c19d7" x="468.467917" y="244.441262" style="fill: #38a169; stroke: #38a169"/>
     <use xlink:href="#m02f71c19d7" x="571.534583" y="247.982177" style="fill: #38a169; stroke: #38a169"/>
     <use xlink:href="#m02f71c19d7" x="674.60125" y="304.636806" style="fill: #38a169; stroke: #38a169"/>
    </g>
   </g>
   <g id="patch_3">
    <path d="M 25.28125 318.800464 
L 25.28125 7.2 
" style="fill: none; stroke: #000000; stroke-width: 0.8; stroke-linejoin: miter; stroke-linecap: square"/>
   </g>
   <g id="patch_4">
    <path d="M 705.52125 318.800464 
L 705.52125 7.2 
" style="fill: none; stroke: #000000; stroke-width: 0.8; stroke-linejoin: miter; stroke-linecap: square"/>
   </g>
   <g id="patch_5">
    <path d="M 25.28125 318.800464 
L 705.52125 318.800464 
" style="fill: none; stroke: #000000; stroke-width: 0.8; stroke-linejoin: miter; stroke-linecap: square"/>
   </g>
   <g id="patch_6">
    <path d="M 25.28125 7.2 
L 705.52125 7.2 
" style="fill: none; stroke: #000000; stroke-width: 0.8; stroke-linejoin: miter; stroke-linecap: square"/>
   </g>
   <g id="legend_1">
    <g id="patch_7">
     <path d="M 31.58125 53.01 
L 120.077969 53.01 
Q 121.877969 53.01 121.877969 51.21 
L 121.877969 13.5 
Q 121.877969 11.7 120.077969 11.7 
L 31.58125 11.7 
Q 29.78125 11.7 29.78125 13.5 
L 29.78125 51.21 
Q 29.78125 53.01 31.58125 53.01 
z
" style="fill: #ffffff; opacity: 0.8; stroke: #cccccc; stroke-linejoin: miter"/>
    </g>
    <g id="line2d_36">
     <path d="M 33.38125 19.313437 
L 42.38125 19.313437 
L 51.38125 19.313437 
" style="fill: none; stroke: #1a365d; stroke-width: 2; stroke-linecap: square"/>
     <g>
      <use xlink:href="#meefcec8854" x="42.38125" y="19.313437" style="fill: #1a365d; stroke: #1a365d"/>
     </g>
    </g>
    <g id="text_17">
     <!-- 管理层数据 -->
     <g transform="translate(58.58125 22.463437) scale(0.09 -0.09)">
      <defs>
       <path id="STHeiti-7ba1" d="M 1472 4333 
Q 1286 4070 941 3674 
Q 774 3885 467 3974 
Q 1133 4416 1459 5280 
Q 1779 5107 2048 5043 
Q 2118 5030 2118 5008 
Q 2118 4986 2054 4960 
Q 1862 4864 1722 4685 
Q 2982 4685 3136 4755 
L 3136 4269 
Q 2886 4326 2310 4333 
Q 2413 4064 2477 3718 
L 1939 3654 
Q 1914 4051 1862 4333 
L 1472 4333 
z
M 4019 4326 
Q 3942 4179 3718 3878 
Q 3520 4083 3264 4154 
Q 3750 4525 3994 5267 
Q 4326 5114 4544 5056 
Q 4608 5043 4608 5020 
Q 4608 4998 4550 4973 
Q 4435 4915 4237 4672 
L 4602 4672 
Q 5568 4672 5933 4755 
L 5933 4275 
Q 5626 4320 4838 4326 
Q 4973 3962 5037 3693 
L 4506 3603 
Q 4474 3942 4378 4326 
L 4019 4326 
z
M 3021 3354 
Q 2950 3603 2874 3789 
L 3379 3885 
Q 3488 3629 3571 3354 
Q 5197 3354 5830 3405 
L 5830 2304 
L 5350 2304 
L 5350 2970 
L 954 2970 
L 954 2336 
L 486 2336 
L 486 3405 
Q 1120 3354 3021 3354 
z
M 4480 -198 
L 1894 -198 
Q 1901 -320 1926 -634 
L 1344 -634 
Q 1389 -288 1389 51 
L 1389 1946 
Q 1389 2342 1338 2669 
Q 1958 2618 3120 2618 
Q 4282 2618 4826 2669 
Q 4794 2387 4794 2083 
Q 4794 1779 4826 1408 
Q 4102 1446 2976 1446 
L 1888 1446 
L 1888 1011 
L 3136 1011 
Q 4365 1011 4998 1037 
Q 4973 909 4973 557 
L 4973 -147 
Q 4973 -314 4998 -608 
L 4480 -608 
L 4480 -198 
z
M 1888 1830 
L 4326 1830 
L 4326 2227 
L 1888 2227 
L 1888 1830 
z
M 1888 179 
L 4480 179 
L 4480 634 
L 1888 634 
L 1888 179 
z
" transform="scale(0.015625)"/>
       <path id="STHeiti-7406" d="M 4397 864 
L 4397 160 
Q 5389 166 6086 211 
L 6086 -333 
Q 5389 -275 4096 -275 
Q 2803 -275 2099 -333 
L 2099 211 
Q 2816 166 3910 160 
L 3910 864 
Q 3187 864 2682 800 
L 2682 1350 
Q 3174 1286 3910 1280 
L 3910 1920 
Q 2771 1914 2598 1882 
Q 2637 2630 2637 3443 
Q 2637 4256 2598 4864 
Q 2797 4813 4214 4813 
Q 5632 4813 5754 4864 
Q 5722 4352 5722 3549 
Q 5722 2746 5766 1882 
Q 5658 1920 4397 1920 
L 4397 1280 
Q 5210 1286 5702 1350 
L 5702 800 
Q 5261 858 4397 864 
z
M 3910 3590 
L 3910 4390 
L 3110 4390 
L 3110 3590 
L 3910 3590 
z
M 4397 4390 
L 4397 3590 
L 5229 3590 
L 5229 4390 
L 4397 4390 
z
M 4397 3187 
L 4397 2336 
L 5229 2336 
L 5229 3187 
L 4397 3187 
z
M 3910 2336 
L 3910 3187 
L 3110 3187 
L 3110 2336 
L 3910 2336 
z
M 1171 4224 
Q 768 4218 429 4179 
L 429 4717 
Q 774 4678 1436 4678 
Q 2099 4678 2438 4717 
L 2438 4179 
Q 2131 4211 1670 4230 
L 1670 2861 
Q 2138 2874 2368 2906 
L 2368 2362 
Q 2035 2400 1670 2406 
L 1670 883 
Q 2035 1011 2368 1184 
Q 2342 979 2342 864 
Q 2342 749 2355 621 
Q 1184 269 448 -218 
Q 448 -45 400 182 
Q 352 410 275 563 
Q 710 595 1171 723 
L 1171 2406 
Q 685 2394 435 2362 
L 435 2906 
Q 742 2861 1171 2854 
L 1171 4224 
z
" transform="scale(0.015625)"/>
       <path id="STHeiti-5c42" d="M 5504 3315 
Q 5101 3360 3987 3360 
Q 2874 3360 1491 3328 
Q 1459 1811 1299 969 
Q 1139 128 774 -525 
Q 531 -224 282 -141 
Q 640 339 803 1129 
Q 966 1920 966 3171 
Q 966 4422 941 4915 
Q 1651 4864 3286 4864 
Q 4922 4864 5504 4915 
Q 5472 4518 5475 4112 
Q 5478 3706 5504 3315 
z
M 4966 3808 
L 4966 4416 
L 1491 4416 
L 1491 3808 
L 4966 3808 
z
M 5363 2381 
Q 4646 2432 3692 2432 
Q 2739 2432 2035 2374 
L 2035 2925 
Q 2701 2874 3725 2874 
Q 4749 2874 5363 2925 
L 5363 2381 
z
M 3078 1363 
Q 2035 1357 1568 1318 
L 1568 1856 
Q 2298 1811 3702 1811 
Q 5107 1811 5843 1856 
L 5843 1318 
Q 5158 1363 3782 1363 
Q 3360 864 2669 141 
L 4608 250 
Q 4282 685 3994 928 
L 4499 1178 
Q 4998 570 5696 -211 
L 5114 -531 
Q 5005 -326 4883 -147 
L 3264 -269 
Q 2522 -326 2029 -506 
Q 1933 -198 1734 141 
Q 1971 186 2134 288 
Q 2298 390 2598 729 
Q 2899 1069 3078 1363 
z
" transform="scale(0.015625)"/>
       <path id="STHeiti-6570" d="M 4640 480 
Q 4173 -51 3194 -467 
Q 3059 -237 2803 -26 
Q 3238 70 3673 323 
Q 4109 576 4365 890 
Q 3994 1549 3962 2835 
Q 3744 2458 3520 2176 
Q 3366 2419 3206 2522 
Q 3584 3040 3837 3747 
Q 4090 4454 4147 5171 
Q 4486 5062 4800 5037 
Q 4877 5030 4877 4988 
Q 4877 4947 4781 4896 
Q 4704 4858 4480 4128 
L 5216 4128 
Q 5747 4128 6003 4179 
L 6003 3661 
Q 5850 3680 5562 3699 
Q 5440 1773 4934 896 
Q 5254 518 6112 250 
Q 5856 6 5754 -365 
Q 4902 141 4640 480 
z
M 4627 1363 
Q 5018 2253 5088 3706 
L 4352 3706 
Q 4237 3328 3981 2874 
L 4384 2886 
Q 4384 1907 4627 1363 
z
M 1549 3526 
Q 1222 3520 589 3488 
L 589 3942 
Q 1158 3898 1850 3898 
L 1850 4499 
Q 1850 4800 1786 5165 
Q 2042 5139 2362 5139 
Q 2458 5139 2458 5094 
Q 2458 5050 2406 5030 
Q 2355 5011 2336 4976 
Q 2317 4941 2317 4845 
L 2317 3898 
Q 2758 3904 3507 3942 
L 3507 3488 
Q 2810 3526 2317 3533 
Q 2317 2970 2362 2515 
L 1805 2515 
Q 1850 3034 1850 3456 
Q 1632 3014 1401 2745 
Q 1171 2477 755 2189 
Q 608 2406 282 2573 
Q 1030 2816 1549 3526 
z
M 2861 4922 
Q 3155 4826 3386 4794 
Q 3462 4781 3462 4755 
Q 3462 4730 3388 4701 
Q 3315 4672 3228 4521 
Q 3142 4371 3014 4122 
Q 2835 4166 2560 4186 
Q 2746 4461 2861 4922 
z
M 1510 4230 
L 973 4154 
Q 966 4461 883 4806 
L 1389 4870 
Q 1459 4595 1510 4230 
z
M 3360 2790 
L 3046 2477 
Q 2765 2816 2464 3078 
L 2790 3328 
Q 3034 3117 3360 2790 
z
M 2899 755 
Q 3168 666 3450 525 
Q 3251 314 3168 128 
Q 2886 288 2637 390 
Q 2394 128 1984 -51 
Q 1574 -230 781 -410 
Q 627 -115 346 109 
Q 1619 134 2157 557 
Q 1709 691 1030 781 
Q 1248 1165 1408 1555 
Q 800 1549 531 1504 
L 531 1965 
Q 858 1939 1536 1926 
Q 1600 2118 1696 2458 
Q 1946 2355 2214 2336 
Q 2342 2323 2342 2294 
Q 2342 2266 2243 2198 
Q 2144 2131 2035 1926 
L 2899 1926 
Q 3162 1926 3341 1971 
Q 3123 1158 2899 755 
z
M 1862 1555 
L 1626 1043 
Q 2118 966 2470 883 
Q 2662 1165 2726 1555 
L 1862 1555 
z
" transform="scale(0.015625)"/>
       <path id="STHeiti-636e" d="M 1229 2176 
L 1229 3245 
Q 730 3245 448 3187 
L 448 3731 
Q 691 3680 1229 3680 
Q 1229 4454 1216 4681 
Q 1203 4909 1152 5114 
Q 1376 5069 1734 5069 
Q 1888 5069 1888 5021 
Q 1888 4973 1811 4915 
Q 1734 4858 1712 4810 
Q 1690 4762 1690 4678 
L 1690 3686 
Q 2016 3693 2208 3731 
L 2208 3187 
Q 1971 3232 1690 3238 
L 1690 2355 
Q 1971 2477 2240 2624 
Q 2234 2323 2310 2106 
Q 1990 2010 1690 1894 
L 1690 186 
Q 1690 -102 1635 -224 
Q 1581 -346 1395 -419 
Q 1210 -493 736 -576 
Q 723 -243 467 90 
Q 704 51 858 51 
Q 1229 51 1229 269 
L 1229 1696 
Q 794 1485 480 1242 
Q 454 1587 365 1920 
Q 838 2042 1229 2176 
z
M 4627 2214 
L 4627 1523 
Q 5510 1523 5722 1568 
Q 5683 1408 5683 1030 
L 5683 160 
Q 5683 -179 5728 -480 
L 5190 -480 
L 5190 -218 
L 3738 -218 
L 3738 -550 
L 3200 -550 
Q 3245 -307 3245 96 
L 3245 1030 
Q 3245 1357 3206 1568 
Q 3469 1530 4166 1523 
L 4166 2214 
Q 3494 2208 3098 2150 
L 3098 2669 
Q 3533 2618 4166 2611 
L 4166 3302 
L 3027 3302 
Q 3027 1690 2851 986 
Q 2675 282 2253 -474 
Q 2048 -307 1741 -282 
Q 2195 384 2368 1091 
Q 2541 1798 2541 2848 
Q 2541 3898 2496 4838 
Q 2778 4768 4067 4768 
Q 5357 4768 5741 4838 
Q 5696 4461 5696 4051 
Q 5696 3642 5741 3238 
Q 5434 3302 4627 3302 
L 4627 2611 
Q 5542 2611 6042 2669 
L 6042 2150 
Q 5574 2214 4627 2214 
z
M 3027 4378 
L 3027 3712 
L 5235 3712 
L 5235 4378 
L 3027 4378 
z
M 5190 205 
L 5190 1146 
L 3738 1146 
L 3738 205 
L 5190 205 
z
" transform="scale(0.015625)"/>
      </defs>
      <use xlink:href="#STHeiti-7ba1"/>
      <use xlink:href="#STHeiti-7406" transform="translate(99.999985 0)"/>
      <use xlink:href="#STHeiti-5c42" transform="translate(199.999969 0)"/>
      <use xlink:href="#STHeiti-6570" transform="translate(299.999954 0)"/>
      <use xlink:href="#STHeiti-636e" transform="translate(399.999939 0)"/>
     </g>
    </g>
    <g id="line2d_37">
     <path d="M 33.38125 32.183438 
L 42.38125 32.183438 
L 51.38125 32.183438 
" style="fill: none; stroke: #d69e2e; stroke-width: 2; stroke-linecap: square"/>
     <g>
      <use xlink:href="#m7eba52db13" x="42.38125" y="32.183438" style="fill: #d69e2e; stroke: #d69e2e"/>
     </g>
    </g>
    <g id="text_18">
     <!-- GGII/起点数据 -->
     <g transform="translate(58.58125 35.333438) scale(0.09 -0.09)">
      <defs>
       <path id="STHeiti-47" d="M 5318 4211 
L 4966 3872 
Q 4582 4243 4124 4441 
Q 3667 4640 3180 4640 
Q 2694 4640 2208 4377 
Q 1722 4115 1450 3670 
Q 1178 3226 1178 2707 
Q 1178 1901 1782 1302 
Q 2387 704 3296 704 
Q 3987 704 4483 1091 
Q 4979 1478 5075 2144 
L 3610 2144 
L 3610 2586 
L 5594 2586 
Q 5574 1491 4940 880 
Q 4307 269 3283 269 
Q 2106 269 1398 992 
Q 691 1715 691 2691 
Q 691 3667 1395 4380 
Q 2099 5094 3244 5094 
Q 4390 5094 5318 4211 
z
" transform="scale(0.015625)"/>
       <path id="STHeiti-49" d="M 493 4979 
L 954 4979 
L 954 384 
L 493 384 
L 493 4979 
z
" transform="scale(0.015625)"/>
       <path id="STHeiti-2f" d="M 2611 5094 
L 704 -243 
L 224 -243 
L 2131 5094 
L 2611 5094 
z
" transform="scale(0.015625)"/>
       <path id="STHeiti-8d77" d="M 2387 1811 
Q 3014 1818 3258 1856 
L 3258 1357 
Q 3014 1395 2387 1402 
L 2387 301 
Q 2912 64 3805 64 
Q 4698 64 6157 237 
Q 6035 0 5997 -358 
Q 4941 -410 3993 -410 
Q 3046 -410 2646 -307 
Q 2246 -205 1856 96 
Q 1466 397 1216 806 
Q 1050 45 800 -486 
Q 608 -275 371 -147 
Q 794 486 915 2150 
Q 1171 2093 1530 2093 
Q 1587 2093 1587 2064 
Q 1587 2035 1536 2003 
Q 1440 1939 1338 1434 
Q 1594 896 1907 614 
L 1907 2618 
Q 915 2618 563 2566 
L 563 3085 
Q 986 3034 1786 3034 
L 1786 3878 
Q 1139 3878 666 3834 
L 666 4339 
Q 1101 4288 1786 4288 
Q 1786 4947 1734 5254 
Q 1837 5229 2355 5229 
Q 2432 5229 2432 5203 
Q 2432 5178 2381 5146 
Q 2259 5062 2259 4902 
L 2259 4288 
Q 2630 4294 3021 4339 
L 3021 3834 
Q 2707 3872 2259 3878 
L 2259 3034 
Q 2810 3040 3200 3085 
L 3200 2566 
Q 2829 2605 2387 2611 
L 2387 1811 
z
M 5146 3174 
L 5146 4256 
Q 3725 4256 3379 4211 
L 3379 4774 
Q 3667 4723 4540 4723 
Q 5414 4723 5677 4774 
Q 5638 4390 5638 3981 
L 5638 3264 
Q 5638 2790 5683 2477 
L 5146 2477 
L 5146 2746 
L 4058 2746 
L 4058 1459 
Q 4058 1280 4093 1222 
Q 4128 1165 4569 1165 
Q 5011 1165 5168 1222 
Q 5325 1280 5478 1862 
Q 5709 1626 5965 1549 
Q 5818 1146 5734 1002 
Q 5651 858 5500 806 
Q 5350 755 4966 729 
Q 4582 704 4201 704 
Q 3821 704 3741 745 
Q 3661 787 3619 867 
Q 3578 947 3578 1402 
L 3578 2554 
Q 3578 2989 3526 3213 
Q 3789 3174 5146 3174 
z
" transform="scale(0.015625)"/>
       <path id="STHeiti-70b9" d="M 3238 3962 
L 3238 3206 
Q 4749 3206 5120 3270 
Q 5082 2893 5082 2217 
Q 5082 1542 5120 1248 
Q 4621 1299 3136 1299 
Q 1651 1299 1216 1235 
Q 1280 1734 1280 2268 
Q 1280 2803 1216 3270 
Q 1658 3213 2662 3206 
L 2662 4224 
Q 2662 4922 2598 5229 
Q 3040 5133 3354 5133 
Q 3450 5133 3450 5104 
Q 3450 5075 3376 5030 
Q 3302 4986 3270 4934 
Q 3238 4883 3238 4755 
L 3238 4429 
L 4358 4429 
Q 4998 4429 5594 4486 
L 5594 3904 
Q 5114 3962 4365 3962 
L 3238 3962 
z
M 4557 1754 
L 4557 2752 
L 1779 2752 
L 1779 1754 
L 4557 1754 
z
M 6022 -141 
L 5389 -397 
Q 5184 230 4781 813 
L 5267 998 
Q 5613 435 6022 -141 
z
M 1478 704 
Q 1107 -83 909 -538 
L 275 -294 
Q 800 250 1005 896 
L 1478 704 
z
M 4320 -250 
L 3706 -333 
Q 3584 314 3405 762 
L 3923 890 
Q 4083 352 4320 -250 
z
M 2835 -358 
L 2214 -422 
Q 2227 154 2080 653 
L 2605 710 
Q 2714 64 2835 -358 
z
" transform="scale(0.015625)"/>
      </defs>
      <use xlink:href="#STHeiti-47"/>
      <use xlink:href="#STHeiti-47" transform="translate(87.199982 0)"/>
      <use xlink:href="#STHeiti-49" transform="translate(174.399963 0)"/>
      <use xlink:href="#STHeiti-49" transform="translate(196.999954 0)"/>
      <use xlink:href="#STHeiti-2f" transform="translate(219.599945 0)"/>
      <use xlink:href="#STHeiti-8d77" transform="translate(263.299942 0)"/>
      <use xlink:href="#STHeiti-70b9" transform="translate(363.299927 0)"/>
      <use xlink:href="#STHeiti-6570" transform="translate(463.299911 0)"/>
      <use xlink:href="#STHeiti-636e" transform="translate(563.299896 0)"/>
     </g>
    </g>
    <g id="line2d_38">
     <path d="M 33.38125 45.053438 
L 42.38125 45.053438 
L 51.38125 45.053438 
" style="fill: none; stroke: #38a169; stroke-width: 2; stroke-linecap: square"/>
     <g>
      <use xlink:href="#m02f71c19d7" x="42.38125" y="45.053438" style="fill: #38a169; stroke: #38a169"/>
     </g>
    </g>
    <g id="text_19">
     <!-- 差异 -->
     <g transform="translate(58.58125 48.203438) scale(0.09 -0.09)">
      <defs>
       <path id="STHeiti-5dee" d="M 2848 3898 
Q 1523 3898 755 3840 
L 755 4352 
Q 1434 4288 3571 4288 
Q 3866 4698 4013 5190 
Q 4378 5062 4640 5011 
Q 4717 4998 4717 4966 
Q 4717 4934 4627 4902 
Q 4480 4851 4038 4294 
Q 4947 4301 5562 4352 
L 5562 3840 
Q 4896 3898 3360 3898 
Q 3322 3686 3238 3392 
Q 4666 3392 5344 3450 
L 5344 2938 
Q 4614 2995 3104 2995 
Q 2989 2682 2848 2432 
Q 5152 2432 5869 2490 
L 5869 1971 
Q 5197 2022 2611 2022 
Q 2259 1466 1849 1030 
Q 1440 595 736 83 
Q 608 339 333 493 
Q 1523 1165 2086 2016 
Q 1126 2010 550 1971 
L 550 2490 
Q 1350 2445 2336 2438 
Q 2483 2701 2598 2995 
Q 1651 2989 1056 2938 
L 1056 3450 
Q 1715 3398 2739 3392 
Q 2810 3648 2848 3898 
z
M 2765 4544 
L 2227 4333 
Q 2099 4614 1850 4896 
L 2394 5165 
Q 2528 4883 2765 4544 
z
M 3814 1075 
L 3814 115 
Q 5043 115 5747 173 
L 5747 -365 
Q 4979 -307 3587 -307 
Q 2195 -307 1427 -365 
L 1427 173 
Q 2144 122 3315 115 
L 3315 1069 
Q 2752 1069 2291 1018 
L 2291 1478 
L 3776 1478 
Q 4723 1478 5267 1536 
L 5267 1018 
Q 4730 1075 3814 1075 
z
" transform="scale(0.015625)"/>
       <path id="STHeiti-5f02" d="M 5939 3008 
Q 5779 2650 5683 2506 
Q 5587 2362 5452 2310 
Q 5318 2259 5050 2253 
L 3654 2227 
Q 2522 2202 2166 2202 
Q 1811 2202 1568 2256 
Q 1325 2310 1245 2432 
Q 1165 2554 1165 2784 
L 1165 4333 
Q 1165 4685 1114 4966 
Q 1606 4922 3126 4922 
Q 4646 4922 5242 4966 
Q 5197 4698 5197 4397 
L 5197 3917 
Q 5197 3597 5242 3373 
L 1715 3373 
L 1715 3002 
Q 1715 2822 1756 2758 
Q 1798 2694 1952 2675 
Q 2106 2656 2819 2656 
Q 3533 2656 4134 2678 
Q 4736 2701 4941 2742 
Q 5146 2784 5242 2905 
Q 5338 3027 5466 3373 
Q 5549 3078 5939 3008 
z
M 4646 3866 
L 4646 4429 
L 1715 4429 
L 1715 3866 
L 4646 3866 
z
M 4595 1446 
Q 5587 1453 6029 1504 
L 6029 909 
Q 5587 960 4595 966 
L 4595 307 
Q 4595 -128 4653 -595 
L 3968 -595 
Q 4026 -128 4026 307 
L 4026 966 
L 2483 966 
Q 2374 -96 960 -666 
Q 768 -403 467 -198 
Q 1069 -115 1475 198 
Q 1882 512 1965 966 
Q 826 966 346 909 
L 346 1504 
Q 819 1446 1978 1446 
Q 1978 1830 1939 2022 
Q 2150 1965 2579 1965 
Q 2688 1965 2688 1929 
Q 2688 1894 2611 1856 
Q 2496 1792 2496 1632 
L 2496 1446 
L 4026 1446 
Q 4019 1926 3962 2067 
Q 4294 2010 4634 2010 
Q 4774 2010 4774 1981 
Q 4774 1952 4684 1897 
Q 4595 1843 4595 1658 
L 4595 1446 
z
" transform="scale(0.015625)"/>
      </defs>
      <use xlink:href="#STHeiti-5dee"/>
      <use xlink:href="#STHeiti-5f02" transform="translate(99.999985 0)"/>
     </g>
    </g>
   </g>
  </g>
 </g>
 <defs>
  <clipPath id="p99c8c43734">
   <rect x="25.28125" y="7.2" width="680.24" height="311.600464"/>
  </clipPath>
 </defs>
</svg>
