<?xml version="1.0" encoding="utf-8" standalone="no"?>
<!DOCTYPE svg PUBLIC "-//W3C//DTD SVG 1.1//EN"
  "http://www.w3.org/Graphics/SVG/1.1/DTD/svg11.dtd">
<svg xmlns:xlink="http://www.w3.org/1999/xlink" width="710.512593pt" height="352.525095pt" viewBox="0 0 710.512593 352.525095" xmlns="http://www.w3.org/2000/svg" version="1.1">
 <metadata>
  <rdf:RDF xmlns:dc="http://purl.org/dc/elements/1.1/" xmlns:cc="http://creativecommons.org/ns#" xmlns:rdf="http://www.w3.org/1999/02/22-rdf-syntax-ns#">
   <cc:Work>
    <dc:type rdf:resource="http://purl.org/dc/dcmitype/StillImage"/>
    <dc:date>2026-06-05T15:21:53.673669</dc:date>
    <dc:format>image/svg+xml</dc:format>
    <dc:creator>
     <cc:Agent>
      <dc:title>Matplotlib v3.10.9, https://matplotlib.org/</dc:title>
     </cc:Agent>
    </dc:creator>
   </cc:Work>
  </rdf:RDF>
 </metadata>
 <defs>
  <style type="text/css">*{stroke-linejoin: round; stroke-linecap: butt}</style>
 </defs>
 <g id="figure_1">
  <g id="patch_1">
   <path d="M 0 352.525095 
L 710.512593 352.525095 
L 710.512593 0 
L 0 0 
z
" style="fill: #ffffff"/>
  </g>
  <g id="axes_1">
   <g id="patch_2">
    <path d="M 97.449387 182.990464 
L 703.312593 182.990464 
L 703.312593 7.2 
L 97.449387 7.2 
z
" style="fill: #fafafa"/>
   </g>
   <g id="matplotlib.axis_1">
    <g id="xtick_1">
     <g id="line2d_1">
      <path d="M 124.988624 182.990464 
L 124.988624 7.2 
" clip-path="url(#pea81c6c379)" style="fill: none; stroke: #b0b0b0; stroke-opacity: 0.3; stroke-width: 0.8; stroke-linecap: square"/>
     </g>
     <g id="line2d_2">
      <defs>
       <path id="ma98f26908e" d="M 0 0 
L 0 3.5 
" style="stroke: #000000; stroke-width: 0.8"/>
      </defs>
      <g>
       <use xlink:href="#ma98f26908e" x="124.988624" y="182.990464" style="stroke: #000000; stroke-width: 0.8"/>
      </g>
     </g>
     <g id="text_1">
      <!-- 长沙地下车库火灾（2024.7） -->
      <g transform="translate(11.325 262.371892) rotate(-30) scale(0.1 -0.1)">
       <defs>
        <path id="STHeiti-957f" d="M 4672 5158 
Q 4954 4947 5306 4813 
Q 5357 4794 5357 4762 
Q 5357 4730 5267 4685 
Q 5011 4550 4774 4291 
Q 4538 4032 4141 3664 
Q 3744 3296 3424 3046 
Q 3232 3251 2944 3392 
Q 3494 3718 3974 4217 
Q 4454 4717 4672 5158 
z
M 2253 2285 
L 2253 288 
Q 2714 563 3194 979 
Q 3187 678 3360 480 
Q 2042 -429 1862 -653 
Q 1696 -365 1446 -102 
Q 1587 32 1644 262 
Q 1702 493 1702 979 
L 1702 2285 
Q 678 2278 365 2240 
L 365 2803 
Q 678 2765 1702 2758 
L 1702 3872 
Q 1702 4858 1677 5120 
Q 1958 5069 2221 5069 
L 2342 5082 
Q 2419 5082 2419 5037 
Q 2419 4992 2387 4947 
Q 2253 4755 2253 4429 
L 2253 2758 
L 4179 2758 
Q 5613 2758 5990 2803 
L 5990 2240 
Q 5632 2285 4173 2285 
L 3674 2285 
Q 3910 1549 4569 1049 
Q 5229 550 6042 422 
Q 5728 224 5600 -224 
Q 4589 205 4029 797 
Q 3469 1389 3194 2285 
L 2253 2285 
z
" transform="scale(0.015625)"/>
        <path id="STHeiti-6c99" d="M 3526 5242 
Q 3725 5210 4186 5210 
Q 4256 5210 4256 5174 
Q 4256 5139 4205 5082 
Q 4096 4960 4096 4794 
L 4096 2093 
Q 4096 1658 4134 1286 
L 3526 1286 
Q 3578 1638 3578 2086 
L 3578 4448 
Q 3578 4858 3526 5242 
z
M 2029 4371 
L 1645 3885 
Q 1267 4307 653 4614 
L 1037 5024 
Q 1517 4749 2029 4371 
z
M 6125 2957 
L 5645 2547 
Q 5203 3174 4461 3872 
L 4877 4205 
Q 5555 3584 6125 2957 
z
M 2534 4026 
Q 2880 3910 3130 3891 
Q 3232 3878 3232 3846 
Q 3232 3814 3149 3738 
Q 3034 3642 2950 3277 
Q 2790 2598 2426 1734 
Q 2195 1888 1862 1907 
Q 2381 2771 2534 4026 
z
M 1747 2982 
L 1427 2438 
Q 1005 2778 378 3027 
L 672 3501 
Q 1325 3245 1747 2982 
z
M 4922 2330 
Q 5338 2118 5475 2099 
Q 5613 2080 5613 2045 
Q 5613 2010 5523 1958 
Q 5402 1888 5216 1517 
Q 4403 -160 2010 -653 
Q 1875 -333 1619 -109 
Q 2323 -19 2790 121 
Q 3258 262 3603 483 
Q 3949 704 4179 937 
Q 4410 1171 4602 1532 
Q 4794 1894 4922 2330 
z
M 1613 1677 
Q 1094 -45 1011 -403 
Q 627 -154 365 -58 
Q 915 870 1126 2029 
Q 1318 1779 1613 1677 
z
" transform="scale(0.015625)"/>
        <path id="STHeiti-5730" d="M 4346 3610 
Q 5293 3949 5690 4160 
L 5606 1939 
Q 5594 1690 5542 1565 
Q 5491 1440 5324 1350 
Q 5158 1261 4794 1152 
Q 4742 1517 4525 1779 
Q 4672 1766 4813 1766 
Q 4954 1766 5037 1814 
Q 5120 1862 5126 2048 
L 5165 3398 
L 4346 3117 
L 4346 1619 
Q 4346 1229 4384 730 
L 3814 730 
Q 3866 1242 3866 1619 
L 3866 2950 
L 3174 2707 
L 3174 608 
Q 3174 378 3212 285 
Q 3251 192 3379 160 
Q 3507 128 3821 128 
Q 5107 128 5286 262 
Q 5466 397 5536 1030 
Q 5747 704 6131 653 
Q 5971 173 5868 0 
Q 5766 -173 5600 -230 
Q 5434 -288 4950 -320 
Q 4467 -352 3827 -352 
Q 3187 -352 3011 -307 
Q 2835 -262 2768 -115 
Q 2701 32 2701 365 
L 2701 2534 
Q 2368 2400 2202 2298 
L 2048 2861 
Q 2240 2899 2701 3046 
Q 2701 4045 2643 4550 
Q 2848 4518 3040 4518 
L 3283 4525 
Q 3373 4525 3373 4473 
Q 3373 4422 3309 4396 
Q 3245 4371 3209 4297 
Q 3174 4224 3174 4160 
L 3174 3206 
L 3866 3443 
L 3866 4499 
Q 3866 5011 3795 5248 
Q 4128 5203 4349 5203 
Q 4570 5203 4570 5171 
Q 4570 5139 4480 5101 
Q 4346 5037 4346 4742 
L 4346 3610 
z
M 1536 966 
Q 1946 1126 2285 1306 
Q 2240 1139 2240 995 
Q 2240 851 2336 710 
Q 2035 653 1516 419 
Q 998 186 614 -64 
Q 518 333 397 646 
Q 736 717 1050 806 
L 1050 2957 
Q 691 2957 390 2912 
L 390 3475 
Q 627 3430 1050 3424 
Q 1050 4877 986 5101 
Q 1242 5056 1594 5056 
Q 1677 5056 1677 5021 
Q 1677 4986 1606 4947 
Q 1536 4909 1536 4794 
L 1536 3424 
Q 1939 3430 2157 3475 
L 2157 2912 
Q 1920 2950 1536 2957 
L 1536 966 
z
" transform="scale(0.015625)"/>
        <path id="STHeiti-4e0b" d="M 3360 4147 
L 3360 461 
Q 3360 -102 3411 -557 
L 2739 -557 
Q 2778 -83 2778 461 
L 2778 4147 
Q 1331 4141 525 4083 
L 525 4710 
Q 1459 4646 3267 4646 
Q 5075 4646 6003 4710 
L 6003 4083 
Q 5101 4147 3360 4147 
z
M 5728 1696 
L 5203 1248 
Q 4474 2202 3635 2790 
L 4058 3187 
Q 5075 2400 5728 1696 
z
" transform="scale(0.015625)"/>
        <path id="STHeiti-8f66" d="M 3130 2464 
Q 3130 3245 3059 3373 
Q 3238 3334 3718 3334 
Q 3834 3334 3834 3292 
Q 3834 3251 3754 3206 
Q 3674 3162 3674 2720 
L 3674 2464 
Q 4806 2464 5389 2522 
L 5389 1978 
Q 4973 2022 3674 2022 
L 3674 1050 
Q 5069 1056 5914 1107 
L 5914 557 
Q 5069 608 3674 614 
Q 3674 -403 3725 -685 
L 3085 -685 
Q 3130 -518 3130 614 
Q 1466 614 538 557 
L 538 1107 
Q 1472 1050 3130 1050 
L 3130 2022 
Q 1709 2016 1178 1914 
Q 1133 2189 954 2451 
Q 1254 2522 1500 2835 
Q 1747 3149 2112 3770 
Q 1216 3770 614 3712 
L 614 4282 
Q 1152 4224 2368 4224 
Q 2650 4730 2803 5261 
Q 3251 5056 3398 5017 
Q 3546 4979 3546 4947 
Q 3546 4915 3488 4889 
Q 3430 4864 3286 4685 
Q 3142 4506 2963 4224 
L 4538 4224 
Q 5235 4224 5856 4282 
L 5856 3712 
Q 5235 3770 4538 3770 
L 2688 3770 
Q 2189 2957 1786 2464 
L 3130 2464 
z
" transform="scale(0.015625)"/>
        <path id="STHeiti-5e93" d="M 3270 4570 
Q 3200 4896 3072 5139 
L 3686 5242 
Q 3763 4915 3891 4570 
Q 5613 4576 5978 4621 
L 5978 4083 
Q 5414 4134 4390 4134 
L 1536 4134 
Q 1542 2342 1376 1356 
Q 1210 371 787 -512 
Q 499 -256 198 -109 
Q 646 499 825 1299 
Q 1005 2099 1005 3450 
Q 1005 3974 979 4614 
Q 1235 4570 3270 4570 
z
M 3667 2042 
Q 3661 2592 3616 2714 
Q 3910 2682 4243 2682 
Q 4352 2682 4352 2650 
Q 4352 2618 4297 2586 
Q 4243 2554 4224 2445 
Q 4205 2336 4205 2042 
Q 5171 2042 5568 2086 
L 5568 1613 
Q 5133 1651 4205 1651 
L 4205 909 
Q 5389 915 5952 960 
L 5952 429 
Q 5382 474 4205 480 
Q 4205 -294 4250 -646 
L 3622 -646 
Q 3667 -294 3667 480 
Q 2259 480 1606 429 
L 1606 960 
Q 2419 909 3667 909 
L 3667 1651 
Q 2656 1645 2080 1555 
Q 2016 1882 1926 2118 
Q 2106 2150 2253 2348 
Q 2400 2547 2662 3002 
Q 2112 2989 1766 2957 
L 1766 3443 
Q 2310 3398 2867 3398 
Q 3014 3744 3078 3962 
Q 3424 3808 3654 3750 
Q 3706 3738 3706 3709 
Q 3706 3680 3658 3661 
Q 3610 3642 3462 3398 
L 4698 3398 
Q 5254 3398 5856 3443 
L 5856 2957 
Q 5376 3002 4698 3002 
L 3226 3002 
Q 2925 2483 2605 2042 
L 3667 2042 
z
" transform="scale(0.015625)"/>
        <path id="STHeiti-706b" d="M 3290 2349 
Q 3117 1466 2589 816 
Q 2061 166 973 -467 
Q 736 -166 454 0 
Q 992 269 1395 544 
Q 1798 819 2089 1126 
Q 2381 1434 2563 1792 
Q 2746 2150 2826 2576 
Q 2906 3002 2906 3750 
Q 2906 4499 2810 5184 
Q 3149 5114 3539 5114 
Q 3610 5114 3610 5075 
Q 3610 5037 3558 4985 
Q 3507 4934 3456 4467 
Q 3405 4000 3405 3418 
Q 3405 3226 3581 2682 
Q 3757 2138 3923 1821 
Q 4090 1504 4301 1254 
Q 4512 1005 4777 819 
Q 5043 634 5363 499 
Q 5683 365 6074 282 
Q 5824 -6 5690 -410 
Q 4563 77 4022 688 
Q 3482 1299 3290 2349 
z
M 5024 4230 
Q 5325 4032 5613 3968 
Q 5715 3942 5715 3900 
Q 5715 3859 5619 3801 
Q 5523 3744 5376 3462 
L 4774 2368 
Q 4531 2534 4224 2560 
Q 4710 3187 5024 4230 
z
M 1818 3923 
Q 1798 3059 1619 2176 
L 1018 2304 
Q 1293 3110 1293 3738 
Q 1293 3853 1286 3968 
L 1818 3923 
z
" transform="scale(0.015625)"/>
        <path id="STHeiti-707e" d="M 3635 4666 
L 2995 4499 
Q 2906 4858 2726 5216 
L 3347 5389 
L 3635 4666 
z
M 5741 3142 
L 5184 3142 
L 5184 3987 
L 1190 3987 
L 1190 3066 
L 640 3066 
L 640 4506 
Q 1267 4448 3187 4448 
Q 5107 4448 5741 4506 
L 5741 3142 
z
M 3386 2797 
Q 3488 1690 4096 1075 
Q 4704 461 5971 211 
Q 5747 -26 5613 -480 
Q 4486 -51 3939 486 
Q 3392 1024 3206 1843 
Q 3046 1018 2476 416 
Q 1907 -186 832 -646 
Q 704 -320 378 -96 
Q 1459 307 1996 739 
Q 2534 1171 2704 1769 
Q 2874 2368 2874 2912 
Q 2874 3200 2829 3494 
Q 3200 3411 3539 3411 
Q 3622 3411 3622 3363 
Q 3622 3315 3561 3254 
Q 3501 3194 3386 2797 
z
M 4762 2912 
Q 5075 2707 5331 2637 
Q 5440 2611 5440 2569 
Q 5440 2528 5331 2467 
Q 5222 2406 5040 2131 
Q 4858 1856 4698 1504 
Q 4467 1690 4141 1728 
Q 4518 2157 4762 2912 
z
M 1869 2752 
Q 1786 2054 1600 1478 
L 947 1562 
Q 1331 2029 1318 2810 
L 1869 2752 
z
" transform="scale(0.015625)"/>
        <path id="STHeiti-ff08" d="M 5651 -749 
L 5274 -749 
Q 4646 173 4409 835 
Q 4173 1498 4173 2266 
Q 4173 3034 4432 3750 
Q 4691 4467 5254 5267 
L 5645 5267 
Q 5082 4237 4928 3606 
Q 4774 2976 4774 2093 
Q 4774 1472 4953 861 
Q 5133 250 5651 -749 
z
" transform="scale(0.015625)"/>
        <path id="STHeiti-32" d="M 742 3539 
L 301 3539 
Q 333 4243 768 4668 
Q 1203 5094 1820 5094 
Q 2438 5094 2844 4694 
Q 3251 4294 3251 3718 
Q 3251 3290 3024 2925 
Q 2797 2560 2336 2061 
L 1190 826 
L 3315 826 
L 3315 384 
L 192 384 
L 1946 2278 
Q 2406 2778 2604 3066 
Q 2803 3354 2803 3725 
Q 2803 4096 2512 4377 
Q 2221 4659 1789 4659 
Q 1357 4659 1072 4368 
Q 787 4077 742 3539 
z
" transform="scale(0.015625)"/>
        <path id="STHeiti-30" d="M 1747 269 
Q 1005 269 605 880 
Q 205 1491 205 2681 
Q 205 3872 605 4483 
Q 1005 5094 1741 5094 
Q 2477 5094 2909 4470 
Q 3341 3846 3341 2681 
Q 3341 1517 2905 893 
Q 2470 269 1747 269 
z
M 1760 4659 
Q 1229 4659 934 4147 
Q 640 3635 640 2669 
Q 640 685 1760 685 
Q 2304 685 2608 1206 
Q 2912 1728 2912 2681 
Q 2912 3635 2598 4147 
Q 2285 4659 1760 4659 
z
" transform="scale(0.015625)"/>
        <path id="STHeiti-34" d="M 2726 5094 
L 2816 5094 
L 2816 1894 
L 3373 1894 
L 3373 1453 
L 2816 1453 
L 2816 384 
L 2362 384 
L 2362 1453 
L 160 1453 
L 2726 5094 
z
M 2362 1894 
L 2362 3808 
L 1005 1894 
L 2362 1894 
z
" transform="scale(0.015625)"/>
        <path id="STHeiti-2e" d="M 582 685 
Q 582 845 697 957 
Q 813 1069 969 1069 
Q 1126 1069 1238 957 
Q 1350 845 1350 681 
Q 1350 518 1238 406 
Q 1126 294 969 294 
Q 813 294 697 409 
Q 582 525 582 685 
z
" transform="scale(0.015625)"/>
        <path id="STHeiti-37" d="M 461 4979 
L 3373 4979 
L 915 269 
L 538 461 
L 2662 4544 
L 461 4544 
L 461 4979 
z
" transform="scale(0.015625)"/>
        <path id="STHeiti-ff09" d="M 1120 5267 
Q 1747 4346 1984 3683 
Q 2221 3021 2221 2253 
Q 2221 1485 1961 768 
Q 1702 51 1139 -749 
L 749 -749 
Q 1312 282 1465 912 
Q 1619 1542 1619 2426 
Q 1619 3046 1440 3657 
Q 1261 4269 742 5267 
L 1120 5267 
z
" transform="scale(0.015625)"/>
       </defs>
       <use xlink:href="#STHeiti-957f"/>
       <use xlink:href="#STHeiti-6c99" transform="translate(99.999985 0)"/>
       <use xlink:href="#STHeiti-5730" transform="translate(199.999969 0)"/>
       <use xlink:href="#STHeiti-4e0b" transform="translate(299.999954 0)"/>
       <use xlink:href="#STHeiti-8f66" transform="translate(399.999939 0)"/>
       <use xlink:href="#STHeiti-5e93" transform="translate(499.999924 0)"/>
       <use xlink:href="#STHeiti-706b" transform="translate(599.999908 0)"/>
       <use xlink:href="#STHeiti-707e" transform="translate(699.999893 0)"/>
       <use xlink:href="#STHeiti-ff08" transform="translate(799.999878 0)"/>
       <use xlink:href="#STHeiti-32" transform="translate(899.999863 0)"/>
       <use xlink:href="#STHeiti-30" transform="translate(955.399857 0)"/>
       <use xlink:href="#STHeiti-32" transform="translate(1010.79985 0)"/>
       <use xlink:href="#STHeiti-34" transform="translate(1066.199844 0)"/>
       <use xlink:href="#STHeiti-2e" transform="translate(1121.599838 0)"/>
       <use xlink:href="#STHeiti-37" transform="translate(1149.299835 0)"/>
       <use xlink:href="#STHeiti-ff09" transform="translate(1204.699829 0)"/>
      </g>
     </g>
    </g>
    <g id="xtick_2">
     <g id="line2d_3">
      <path d="M 262.684807 182.990464 
L 262.684807 7.2 
" clip-path="url(#pea81c6c379)" style="fill: none; stroke: #b0b0b0; stroke-opacity: 0.3; stroke-width: 0.8; stroke-linecap: square"/>
     </g>
     <g id="line2d_4">
      <g>
       <use xlink:href="#ma98f26908e" x="262.684807" y="182.990464" style="stroke: #000000; stroke-width: 0.8"/>
      </g>
     </g>
     <g id="text_2">
      <!-- 加拿大Fantuan火灾（2024前） -->
      <g transform="translate(138.742544 268.306267) rotate(-30) scale(0.1 -0.1)">
       <defs>
        <path id="STHeiti-52a0" d="M 1965 3507 
Q 1901 1920 1645 1017 
Q 1389 115 781 -499 
Q 550 -269 288 -154 
Q 877 346 1139 1181 
Q 1402 2016 1440 3507 
Q 851 3501 512 3450 
L 512 4051 
Q 826 4000 1446 3994 
Q 1453 4461 1453 4832 
Q 1453 5203 1395 5325 
Q 1683 5261 2112 5242 
Q 2176 5235 2176 5206 
Q 2176 5178 2131 5114 
Q 1990 4909 1984 3994 
Q 2918 3994 3251 4051 
L 3078 691 
Q 3053 211 2976 -9 
Q 2899 -230 2694 -336 
Q 2490 -442 2035 -506 
Q 2016 -128 1798 154 
Q 1952 141 2048 141 
Q 2355 141 2454 288 
Q 2554 435 2579 992 
L 2701 3507 
L 1965 3507 
z
M 5254 326 
L 4275 326 
L 4275 -397 
L 3693 -397 
Q 3744 70 3744 506 
L 3744 3718 
Q 3744 4115 3706 4269 
Q 4250 4224 4787 4224 
Q 5325 4224 5837 4269 
Q 5798 4147 5798 3718 
L 5798 608 
Q 5798 102 5843 -307 
L 5254 -307 
L 5254 326 
z
M 4275 781 
L 5254 781 
L 5254 3744 
L 4275 3744 
L 4275 781 
z
" transform="scale(0.015625)"/>
        <path id="STHeiti-62ff" d="M 2112 3853 
Q 1440 3411 749 3123 
Q 582 3322 339 3526 
Q 1235 3808 1932 4288 
Q 2630 4768 3008 5325 
Q 3245 5190 3693 5139 
Q 3750 5133 3750 5113 
Q 3750 5094 3718 5078 
Q 3686 5062 3552 4973 
Q 3949 4538 4614 4227 
Q 5280 3917 6074 3808 
Q 5837 3514 5741 3232 
Q 4909 3514 4288 3885 
L 4288 3654 
Q 3898 3693 3203 3693 
Q 2509 3693 2112 3654 
L 2112 3853 
z
M 3258 4736 
Q 2810 4346 2400 4058 
Q 2707 4038 3193 4038 
Q 3680 4038 4013 4058 
Q 3610 4333 3258 4736 
z
M 1446 3373 
Q 2016 3328 3248 3328 
Q 4480 3328 4928 3373 
Q 4896 3117 4896 2806 
Q 4896 2496 4928 2214 
Q 4467 2253 3193 2253 
Q 1920 2253 1446 2221 
Q 1491 2406 1491 2755 
Q 1491 3104 1446 3373 
z
M 1978 2963 
L 1978 2624 
L 4397 2624 
L 4397 2963 
L 1978 2963 
z
M 3072 1626 
Q 1875 1600 1532 1600 
Q 1190 1600 998 1606 
Q 992 1811 813 1997 
Q 1478 1958 2413 1958 
Q 4256 1958 5152 2125 
Q 5293 1894 5478 1709 
Q 5517 1670 5517 1635 
Q 5517 1600 5446 1613 
Q 5216 1651 4816 1651 
Q 4416 1651 3571 1632 
L 3571 1306 
Q 4646 1312 5242 1350 
L 5242 896 
Q 4653 941 3571 941 
L 3571 621 
Q 5171 634 5920 672 
L 5920 192 
Q 4966 243 3571 243 
L 3571 -179 
Q 3571 -326 3510 -403 
Q 3450 -480 3238 -531 
Q 3027 -582 2566 -621 
Q 2534 -333 2381 -128 
Q 2694 -141 2883 -112 
Q 3072 -83 3072 32 
L 3072 243 
Q 1325 243 506 192 
L 506 672 
Q 1542 621 3072 621 
L 3072 941 
Q 1683 941 1184 896 
L 1184 1350 
Q 1830 1306 3072 1306 
L 3072 1626 
z
" transform="scale(0.015625)"/>
        <path id="STHeiti-5927" d="M 3264 2304 
Q 3078 1402 2560 739 
Q 2042 77 909 -486 
Q 723 -192 365 6 
Q 1370 275 2051 963 
Q 2733 1651 2829 3027 
Q 1427 3021 621 2970 
L 621 3584 
Q 1389 3533 2854 3520 
Q 2880 4051 2880 4454 
Q 2880 4858 2848 5158 
Q 3117 5120 3296 5120 
Q 3661 5120 3661 5094 
Q 3661 5069 3603 5024 
Q 3501 4947 3488 4659 
L 3411 3520 
Q 4973 3520 5773 3584 
L 5773 2970 
Q 4915 3027 3379 3027 
Q 3629 1946 4333 1171 
Q 5037 397 5997 237 
Q 5645 -6 5459 -448 
Q 4787 -115 4179 521 
Q 3571 1158 3264 2304 
z
" transform="scale(0.015625)"/>
        <path id="STHeiti-46" d="M 557 4979 
L 2861 4979 
L 2861 4525 
L 1018 4525 
L 1018 3091 
L 2861 3091 
L 2861 2637 
L 1018 2637 
L 1018 384 
L 557 384 
L 557 4979 
z
" transform="scale(0.015625)"/>
        <path id="STHeiti-61" d="M 3872 3782 
L 3872 384 
L 3443 384 
L 3443 966 
Q 2861 269 2112 269 
Q 1363 269 848 803 
Q 333 1338 333 2077 
Q 333 2816 851 3344 
Q 1370 3872 2093 3872 
Q 2925 3872 3443 3162 
L 3443 3782 
L 3872 3782 
z
M 3469 2067 
Q 3469 2650 3078 3050 
Q 2688 3450 2121 3450 
Q 1555 3450 1164 3037 
Q 774 2624 774 2061 
Q 774 1498 1171 1085 
Q 1568 672 2121 672 
Q 2675 672 3072 1069 
Q 3469 1466 3469 2067 
z
" transform="scale(0.015625)"/>
        <path id="STHeiti-6e" d="M 486 3782 
L 928 3782 
L 928 3174 
Q 1453 3872 2202 3872 
Q 2586 3872 2893 3664 
Q 3200 3456 3328 3120 
Q 3456 2784 3456 2131 
L 3456 384 
L 3021 384 
L 3021 2003 
Q 3021 2598 2966 2809 
Q 2912 3021 2800 3168 
Q 2688 3315 2515 3392 
Q 2342 3469 2096 3469 
Q 1850 3469 1613 3347 
Q 1376 3226 1209 3008 
Q 1043 2790 985 2560 
Q 928 2330 928 1632 
L 928 384 
L 486 384 
L 486 3782 
z
" transform="scale(0.015625)"/>
        <path id="STHeiti-74" d="M 1312 922 
Q 1312 749 1357 717 
Q 1402 685 1587 685 
L 1850 685 
L 1850 314 
Q 1581 269 1427 269 
Q 1139 269 1004 409 
Q 870 550 870 851 
L 870 3411 
L 269 3411 
L 269 3782 
L 870 3782 
L 870 5094 
L 1312 5094 
L 1312 3782 
L 2003 3782 
L 2003 3411 
L 1312 3411 
L 1312 922 
z
" transform="scale(0.015625)"/>
        <path id="STHeiti-75" d="M 3405 384 
L 2963 384 
L 2963 992 
Q 2438 294 1690 294 
Q 1306 294 998 502 
Q 691 710 563 1046 
Q 435 1382 435 2035 
L 435 3782 
L 870 3782 
L 870 2163 
Q 870 1568 924 1357 
Q 979 1146 1091 998 
Q 1203 851 1376 774 
Q 1549 698 1795 698 
Q 2042 698 2278 819 
Q 2515 941 2681 1158 
Q 2848 1376 2905 1606 
Q 2963 1837 2963 2534 
L 2963 3782 
L 3405 3782 
L 3405 384 
z
" transform="scale(0.015625)"/>
        <path id="STHeiti-524d" d="M 2746 4576 
L 2125 4333 
Q 2003 4685 1741 4992 
L 2310 5254 
Q 2496 4941 2746 4576 
z
M 4128 4218 
Q 5344 4237 6035 4282 
L 6035 3718 
Q 5094 3782 3238 3782 
Q 1382 3782 442 3718 
L 442 4282 
Q 1382 4218 2458 4218 
L 3565 4218 
Q 3834 4691 4058 5254 
Q 4442 5075 4710 5011 
Q 4762 4998 4762 4969 
Q 4762 4941 4672 4902 
Q 4486 4813 4128 4218 
z
M 4832 3405 
Q 5037 3379 5216 3379 
L 5440 3386 
Q 5536 3386 5536 3350 
Q 5536 3315 5472 3273 
Q 5408 3232 5408 3130 
L 5408 -6 
Q 5408 -243 5344 -361 
Q 5280 -480 5069 -550 
Q 4858 -621 4403 -666 
Q 4371 -314 4173 6 
Q 4474 -45 4634 -45 
Q 4896 -45 4896 115 
L 4896 2611 
Q 4896 3162 4832 3405 
z
M 1408 762 
L 1408 -563 
L 870 -563 
Q 928 122 928 550 
L 928 2592 
Q 928 3034 883 3283 
Q 1434 3238 2080 3238 
Q 2726 3238 3258 3283 
Q 3213 2957 3213 2592 
L 3213 58 
Q 3213 -218 3171 -330 
Q 3130 -442 2966 -499 
Q 2803 -557 2394 -602 
Q 2323 -307 2118 26 
Q 2394 -19 2506 -19 
Q 2618 -19 2666 25 
Q 2714 70 2714 205 
L 2714 762 
L 1408 762 
z
M 2714 2202 
L 2714 2803 
L 1408 2803 
L 1408 2202 
L 2714 2202 
z
M 1408 1786 
L 1408 1184 
L 2714 1184 
L 2714 1786 
L 1408 1786 
z
M 3750 3085 
Q 3987 3034 4314 3034 
Q 4397 3034 4397 2995 
Q 4397 2957 4339 2915 
Q 4282 2874 4282 2739 
L 4282 1338 
Q 4282 979 4320 531 
L 3750 531 
Q 3789 1005 3789 1338 
L 3789 2381 
Q 3789 2848 3750 3085 
z
" transform="scale(0.015625)"/>
       </defs>
       <use xlink:href="#STHeiti-52a0"/>
       <use xlink:href="#STHeiti-62ff" transform="translate(99.999985 0)"/>
       <use xlink:href="#STHeiti-5927" transform="translate(199.999969 0)"/>
       <use xlink:href="#STHeiti-46" transform="translate(299.999954 0)"/>
       <use xlink:href="#STHeiti-61" transform="translate(348.499939 0)"/>
       <use xlink:href="#STHeiti-6e" transform="translate(416.799927 0)"/>
       <use xlink:href="#STHeiti-74" transform="translate(477.799911 0)"/>
       <use xlink:href="#STHeiti-75" transform="translate(511.699905 0)"/>
       <use xlink:href="#STHeiti-61" transform="translate(572.499893 0)"/>
       <use xlink:href="#STHeiti-6e" transform="translate(640.799881 0)"/>
       <use xlink:href="#STHeiti-706b" transform="translate(701.799866 0)"/>
       <use xlink:href="#STHeiti-707e" transform="translate(801.79985 0)"/>
       <use xlink:href="#STHeiti-ff08" transform="translate(901.799835 0)"/>
       <use xlink:href="#STHeiti-32" transform="translate(1001.79982 0)"/>
       <use xlink:href="#STHeiti-30" transform="translate(1057.199814 0)"/>
       <use xlink:href="#STHeiti-32" transform="translate(1112.599808 0)"/>
       <use xlink:href="#STHeiti-34" transform="translate(1167.999802 0)"/>
       <use xlink:href="#STHeiti-524d" transform="translate(1223.399796 0)"/>
       <use xlink:href="#STHeiti-ff09" transform="translate(1323.39978 0)"/>
      </g>
     </g>
    </g>
    <g id="xtick_3">
     <g id="line2d_5">
      <path d="M 400.38099 182.990464 
L 400.38099 7.2 
" clip-path="url(#pea81c6c379)" style="fill: none; stroke: #b0b0b0; stroke-opacity: 0.3; stroke-width: 0.8; stroke-linecap: square"/>
     </g>
     <g id="line2d_6">
      <g>
       <use xlink:href="#ma98f26908e" x="400.38099" y="182.990464" style="stroke: #000000; stroke-width: 0.8"/>
      </g>
     </g>
     <g id="text_3">
      <!-- 柳州火灾 -->
      <g transform="translate(365.069661 217.013389) rotate(-30) scale(0.1 -0.1)">
       <defs>
        <path id="STHeiti-67f3" d="M 1114 2566 
Q 858 1574 570 954 
Q 410 1229 250 1427 
Q 794 2163 1082 3494 
Q 736 3488 416 3450 
L 416 3949 
Q 640 3910 1114 3904 
Q 1114 4736 1050 5165 
Q 1139 5139 1613 5139 
Q 1696 5139 1696 5094 
Q 1696 5050 1648 4998 
Q 1600 4947 1577 4873 
Q 1555 4800 1555 4742 
L 1555 3904 
Q 1920 3910 2138 3949 
L 2138 3450 
Q 1907 3488 1555 3488 
L 1555 634 
Q 1555 102 1606 -570 
L 1062 -570 
Q 1114 115 1114 634 
L 1114 2566 
z
M 3347 1523 
L 2899 1299 
Q 2675 1190 2515 1024 
Q 2426 1274 2317 1453 
Q 2438 1523 2438 1856 
L 2438 3866 
Q 2438 4307 2387 4717 
Q 3187 4826 3706 5133 
Q 3885 4877 3993 4755 
Q 4102 4634 4102 4618 
Q 4102 4602 4064 4602 
L 3936 4614 
Q 3827 4614 3488 4518 
Q 3149 4422 2867 4358 
L 2867 1683 
Q 3238 1837 3379 1914 
Q 3405 2483 3405 3171 
Q 3405 3859 3366 4134 
Q 3686 4058 3878 4051 
Q 3955 4045 3955 4016 
Q 3955 3987 3910 3910 
Q 3827 3782 3827 3200 
Q 3827 2042 3792 1635 
Q 3757 1229 3645 880 
Q 3533 531 3267 220 
Q 3002 -90 2445 -493 
Q 2246 -262 1971 -102 
Q 2624 160 2947 544 
Q 3270 928 3347 1523 
z
M 4794 4333 
L 4794 -538 
L 4262 -538 
Q 4320 134 4320 749 
L 4320 4109 
Q 4320 4550 4282 4794 
Q 4506 4762 5066 4762 
Q 5626 4762 5850 4794 
Q 5818 4614 5818 4109 
L 5818 1171 
Q 5818 922 5773 803 
Q 5728 685 5587 608 
Q 5446 531 5107 435 
Q 5075 736 4877 1050 
Q 5043 1037 5155 1037 
Q 5267 1037 5305 1085 
Q 5344 1133 5344 1293 
L 5344 4333 
L 4794 4333 
z
M 2355 2086 
L 1952 1856 
Q 1843 2240 1600 2682 
L 1920 2867 
Q 2208 2368 2355 2086 
z
" transform="scale(0.015625)"/>
        <path id="STHeiti-5dde" d="M 5011 5133 
Q 5299 5069 5626 5069 
Q 5754 5069 5754 5027 
Q 5754 4986 5686 4947 
Q 5619 4909 5600 4806 
Q 5581 4704 5581 4461 
L 5581 595 
Q 5581 96 5632 -582 
L 5037 -582 
Q 5082 19 5082 595 
L 5082 4141 
Q 5082 4826 5011 5133 
z
M 1651 5069 
Q 1850 5030 2259 5030 
Q 2374 5030 2374 4985 
Q 2374 4941 2310 4890 
Q 2202 4800 2202 4288 
L 2208 3603 
Q 2208 1901 1974 1037 
Q 1741 173 1075 -659 
Q 858 -416 474 -288 
Q 1050 134 1386 841 
Q 1722 1549 1722 3258 
Q 1722 4122 1651 5069 
z
M 3226 4813 
Q 3514 4749 3846 4749 
Q 3968 4749 3968 4707 
Q 3968 4666 3885 4618 
Q 3802 4570 3802 4141 
L 3802 819 
Q 3802 275 3846 -352 
L 3251 -352 
Q 3296 262 3296 819 
L 3296 3821 
Q 3296 4506 3226 4813 
z
M 1402 3616 
Q 1350 2470 1126 1498 
L 531 1600 
Q 890 2451 915 3667 
L 1402 3616 
z
M 3117 1824 
L 2624 1709 
Q 2547 2675 2336 3469 
L 2790 3565 
Q 2925 2925 3117 1824 
z
M 4826 1773 
L 4294 1651 
Q 4211 2598 3981 3437 
L 4435 3539 
Q 4678 2624 4826 1773 
z
" transform="scale(0.015625)"/>
       </defs>
       <use xlink:href="#STHeiti-67f3"/>
       <use xlink:href="#STHeiti-5dde" transform="translate(99.999985 0)"/>
       <use xlink:href="#STHeiti-706b" transform="translate(199.999969 0)"/>
       <use xlink:href="#STHeiti-707e" transform="translate(299.999954 0)"/>
      </g>
     </g>
    </g>
    <g id="xtick_4">
     <g id="line2d_7">
      <path d="M 538.077173 182.990464 
L 538.077173 7.2 
" clip-path="url(#pea81c6c379)" style="fill: none; stroke: #b0b0b0; stroke-opacity: 0.3; stroke-width: 0.8; stroke-linecap: square"/>
     </g>
     <g id="line2d_8">
      <g>
       <use xlink:href="#ma98f26908e" x="538.077173" y="182.990464" style="stroke: #000000; stroke-width: 0.8"/>
      </g>
     </g>
     <g id="text_4">
      <!-- 都昌电动车店火灾 -->
      <g transform="translate(468.124828 237.048571) rotate(-30) scale(0.1 -0.1)">
       <defs>
        <path id="STHeiti-90fd" d="M 2118 4474 
Q 2541 4486 2758 4518 
L 2758 3994 
Q 2470 4038 2118 4038 
L 2118 3219 
L 2246 3219 
Q 3066 4147 3354 4947 
Q 3616 4736 3866 4621 
Q 3923 4595 3923 4569 
Q 3923 4544 3856 4512 
Q 3789 4480 3680 4377 
Q 3571 4275 3494 4154 
Q 3155 3661 2797 3219 
Q 3270 3232 3802 3277 
L 3802 2771 
Q 3290 2822 2445 2829 
Q 2214 2579 1875 2266 
L 2720 2266 
Q 3213 2266 3424 2310 
Q 3373 2131 3373 1747 
L 3373 525 
Q 3373 166 3418 -275 
L 2906 -275 
L 2906 38 
L 1651 38 
L 1651 -384 
L 1120 -384 
Q 1171 26 1171 416 
L 1171 1664 
Q 928 1466 627 1248 
Q 512 1472 269 1619 
Q 640 1786 1146 2176 
Q 1139 2253 1126 2310 
Q 1222 2291 1280 2285 
Q 1638 2586 1882 2829 
Q 1056 2829 461 2771 
L 461 3277 
Q 1056 3219 1664 3219 
L 1664 4045 
Q 1139 4045 806 3994 
L 806 4518 
Q 1075 4474 1664 4467 
Q 1664 5030 1613 5248 
Q 1914 5203 2246 5203 
Q 2317 5203 2317 5174 
Q 2317 5146 2266 5107 
Q 2118 5005 2118 4826 
L 2118 4474 
z
M 2906 1331 
L 2906 1856 
L 1651 1856 
L 1651 1331 
L 2906 1331 
z
M 1651 960 
L 1651 429 
L 2906 429 
L 2906 960 
L 1651 960 
z
M 5306 2675 
Q 5606 2362 5801 2003 
Q 5997 1645 5997 1126 
Q 5997 237 4922 179 
Q 4915 480 4704 768 
Q 4813 762 4902 762 
Q 5229 762 5360 883 
Q 5491 1005 5491 1280 
Q 5491 1850 4826 2566 
L 5267 4358 
L 4499 4358 
L 4499 -666 
L 3930 -666 
Q 3987 -109 3987 352 
L 3987 4192 
Q 3987 4531 3942 4838 
Q 4269 4781 4941 4781 
Q 5613 4781 5914 4838 
L 5306 2675 
z
" transform="scale(0.015625)"/>
        <path id="STHeiti-660c" d="M 5152 4870 
Q 5107 4704 5107 4410 
L 5107 3072 
Q 5107 2765 5152 2611 
Q 4781 2643 3190 2643 
Q 1600 2643 1235 2611 
Q 1280 2765 1280 3072 
L 1280 4410 
Q 1280 4704 1235 4870 
Q 2016 4826 3184 4826 
Q 4352 4826 5152 4870 
z
M 4582 3904 
L 4582 4422 
L 1773 4422 
L 1773 3904 
L 4582 3904 
z
M 1773 3520 
L 1773 3034 
L 4582 3034 
L 4582 3520 
L 1773 3520 
z
M 1498 -186 
L 1498 -634 
L 902 -634 
Q 947 -365 947 77 
L 947 1485 
Q 947 1920 909 2208 
Q 1472 2176 3251 2176 
Q 5030 2176 5587 2208 
Q 5555 1875 5555 1478 
L 5555 211 
Q 5555 -122 5594 -506 
L 5024 -506 
L 5024 -186 
L 1498 -186 
z
M 5024 1229 
L 5024 1760 
L 1498 1760 
L 1498 1229 
L 5024 1229 
z
M 5024 211 
L 5024 845 
L 1498 845 
L 1498 211 
L 5024 211 
z
" transform="scale(0.015625)"/>
        <path id="STHeiti-7535" d="M 3232 4269 
Q 4602 4275 5222 4346 
Q 5178 4083 5178 3622 
L 5178 1843 
Q 5178 1325 5242 851 
L 4640 851 
L 4640 1235 
L 3232 1235 
L 3232 448 
Q 3232 307 3302 243 
Q 3373 179 3613 147 
Q 3853 115 4218 115 
Q 5229 115 5417 224 
Q 5606 333 5638 922 
Q 5811 531 6176 531 
Q 6042 64 5914 -86 
Q 5786 -237 5450 -285 
Q 5114 -333 4378 -333 
Q 3642 -333 3277 -285 
Q 2912 -237 2809 -134 
Q 2707 -32 2707 205 
L 2707 1235 
L 1370 1235 
L 1370 582 
L 781 582 
Q 851 1024 851 1638 
L 851 3622 
Q 851 4045 806 4346 
Q 1440 4275 2707 4269 
Q 2707 4947 2637 5267 
Q 2912 5229 3334 5229 
Q 3437 5229 3437 5174 
Q 3437 5120 3373 5094 
Q 3309 5069 3270 4998 
Q 3232 4928 3232 4870 
L 3232 4269 
z
M 2707 3808 
L 1370 3808 
L 1370 2963 
L 2707 2963 
L 2707 3808 
z
M 4640 2963 
L 4640 3808 
L 3232 3808 
L 3232 2963 
L 4640 2963 
z
M 1370 2534 
L 1370 1670 
L 2707 1670 
L 2707 2534 
L 1370 2534 
z
M 4640 1670 
L 4640 2534 
L 3232 2534 
L 3232 1670 
L 4640 1670 
z
" transform="scale(0.015625)"/>
        <path id="STHeiti-52a8" d="M 3994 3917 
Q 4006 4192 4006 4569 
Q 4006 4947 3955 5222 
Q 4288 5133 4627 5133 
Q 4736 5133 4736 5101 
Q 4736 5069 4672 4998 
Q 4608 4928 4566 4707 
Q 4525 4486 4493 3923 
Q 5523 3955 5939 4026 
Q 5856 3706 5837 3245 
L 5728 806 
Q 5702 294 5616 51 
Q 5530 -192 5312 -304 
Q 5094 -416 4614 -493 
Q 4550 -109 4262 205 
Q 4486 186 4713 186 
Q 4941 186 5062 278 
Q 5184 371 5197 627 
L 5363 3501 
L 4467 3501 
Q 4378 1638 4058 896 
Q 3738 154 2784 -557 
Q 2586 -294 2163 -173 
Q 3187 346 3523 954 
Q 3859 1562 3968 3494 
Q 3392 3475 2874 3411 
L 2874 3962 
Q 3245 3917 3994 3917 
z
M 2803 3994 
Q 2426 4045 1712 4045 
Q 998 4045 698 3994 
L 698 4557 
Q 986 4499 1712 4499 
Q 2438 4499 2803 4550 
L 2803 3994 
z
M 1350 2682 
Q 614 2662 358 2630 
L 358 3155 
Q 749 3098 1593 3098 
Q 2438 3098 2957 3149 
L 2957 2630 
Q 2470 2675 1907 2682 
Q 1363 1242 1126 890 
L 2445 1197 
Q 2266 1632 2138 1830 
L 2592 2042 
Q 2758 1581 3194 723 
L 2682 480 
Q 2656 602 2579 826 
Q 1030 448 659 141 
Q 570 461 384 768 
Q 595 851 723 1049 
Q 851 1248 1059 1789 
Q 1267 2330 1350 2682 
z
" transform="scale(0.015625)"/>
        <path id="STHeiti-5e97" d="M 3712 4461 
Q 5446 4467 5837 4525 
L 5837 3942 
Q 5203 4006 4288 4006 
L 1568 4006 
Q 1600 2272 1437 1232 
Q 1274 192 864 -570 
Q 589 -243 346 -90 
Q 704 397 864 1104 
Q 1024 1811 1024 2713 
Q 1024 3616 960 4525 
Q 1402 4461 3117 4461 
Q 3008 4819 2886 5082 
L 3520 5216 
Q 3565 4915 3712 4461 
z
M 4710 -128 
L 2547 -128 
L 2547 -621 
L 1952 -621 
Q 2016 -237 2016 211 
L 2016 1146 
Q 2016 1459 1971 1843 
Q 2214 1798 3130 1792 
L 3130 2874 
Q 3130 3341 3066 3776 
Q 3354 3725 3706 3725 
Q 3821 3725 3821 3661 
Q 3821 3622 3769 3590 
Q 3718 3558 3686 3468 
Q 3654 3379 3654 3283 
L 3654 3078 
L 4787 3078 
Q 5286 3078 5760 3136 
L 5760 2573 
Q 5376 2630 4787 2630 
L 3654 2630 
L 3654 1792 
Q 5024 1792 5318 1843 
Q 5267 1498 5267 1146 
L 5267 262 
Q 5267 -211 5318 -563 
L 4710 -563 
L 4710 -128 
z
M 2547 307 
L 4710 307 
L 4710 1350 
L 2547 1350 
L 2547 307 
z
" transform="scale(0.015625)"/>
       </defs>
       <use xlink:href="#STHeiti-90fd"/>
       <use xlink:href="#STHeiti-660c" transform="translate(99.999985 0)"/>
       <use xlink:href="#STHeiti-7535" transform="translate(199.999969 0)"/>
       <use xlink:href="#STHeiti-52a8" transform="translate(299.999954 0)"/>
       <use xlink:href="#STHeiti-8f66" transform="translate(399.999939 0)"/>
       <use xlink:href="#STHeiti-5e97" transform="translate(499.999924 0)"/>
       <use xlink:href="#STHeiti-706b" transform="translate(599.999908 0)"/>
       <use xlink:href="#STHeiti-707e" transform="translate(699.999893 0)"/>
      </g>
     </g>
    </g>
    <g id="xtick_5">
     <g id="line2d_9">
      <path d="M 675.773356 182.990464 
L 675.773356 7.2 
" clip-path="url(#pea81c6c379)" style="fill: none; stroke: #b0b0b0; stroke-opacity: 0.3; stroke-width: 0.8; stroke-linecap: square"/>
     </g>
     <g id="line2d_10">
      <g>
       <use xlink:href="#ma98f26908e" x="675.773356" y="182.990464" style="stroke: #000000; stroke-width: 0.8"/>
      </g>
     </g>
     <g id="text_5">
      <!-- 其他火灾案件（滨州84万/北京丰台79.4万/日照12.9万/佛山17万） -->
      <g transform="translate(420.441508 344.16408) rotate(-30) scale(0.1 -0.1)">
       <defs>
        <path id="STHeiti-5176" d="M 1798 4422 
Q 1798 4819 1728 5158 
Q 1958 5114 2362 5114 
Q 2432 5114 2432 5088 
Q 2432 5062 2374 5014 
Q 2317 4966 2317 4819 
L 2317 4422 
L 4141 4422 
Q 4141 4941 4083 5235 
Q 4390 5178 4678 5165 
Q 4800 5158 4800 5120 
Q 4800 5094 4723 5043 
Q 4646 4992 4646 4864 
L 4646 4422 
Q 5306 4435 5728 4474 
L 5728 3942 
Q 5306 3981 4646 3994 
L 4646 1376 
Q 5370 1376 6016 1434 
L 6016 870 
Q 5382 934 3225 934 
Q 1069 934 422 870 
L 422 1434 
Q 1075 1376 1798 1376 
L 1798 3994 
Q 1222 3994 646 3942 
L 646 4474 
Q 1222 4422 1798 4422 
z
M 2317 3430 
L 4141 3430 
L 4141 3994 
L 2317 3994 
L 2317 3430 
z
M 4141 3021 
L 2317 3021 
L 2317 2451 
L 4141 2451 
L 4141 3021 
z
M 2317 2042 
L 2317 1376 
L 4141 1376 
L 4141 2042 
L 2317 2042 
z
M 2374 755 
Q 2605 518 2874 314 
Q 2918 282 2918 256 
Q 2918 230 2854 230 
Q 2701 230 2422 99 
Q 2144 -32 1062 -627 
Q 966 -410 678 -166 
Q 1568 58 2374 755 
z
M 5709 -51 
L 5331 -550 
Q 4653 -32 3738 294 
L 4058 717 
Q 4883 378 5709 -51 
z
" transform="scale(0.015625)"/>
        <path id="STHeiti-4ed6" d="M 1670 3802 
L 1670 -576 
L 1107 -576 
Q 1178 154 1178 864 
L 1178 2874 
Q 979 2509 672 2035 
Q 480 2349 262 2502 
Q 800 3130 1155 3910 
Q 1510 4691 1606 5286 
Q 1946 5094 2278 5030 
Q 2381 5005 2381 4973 
Q 2381 4941 2275 4864 
Q 2170 4787 1670 3802 
z
M 4333 3610 
Q 5370 3981 5728 4160 
L 5606 1958 
Q 5594 1664 5539 1539 
Q 5485 1414 5312 1344 
Q 5139 1274 4704 1190 
Q 4646 1498 4454 1824 
Q 4704 1773 4829 1773 
Q 4954 1773 5014 1808 
Q 5075 1843 5082 1946 
L 5165 3392 
L 4333 3117 
L 4333 1523 
Q 4333 1126 4371 621 
L 3782 621 
Q 3834 1165 3834 1523 
L 3834 2950 
L 3040 2682 
L 3040 608 
Q 3040 378 3113 301 
Q 3187 224 3478 182 
Q 3770 141 4266 141 
Q 4762 141 5034 189 
Q 5306 237 5414 441 
Q 5523 646 5568 1030 
Q 5766 742 6138 640 
Q 5862 -205 5545 -269 
Q 5229 -333 4281 -333 
Q 3334 -333 3030 -288 
Q 2726 -243 2636 -108 
Q 2547 26 2547 358 
L 2547 2515 
Q 2010 2317 1920 2253 
L 1754 2797 
Q 2080 2867 2547 3014 
Q 2547 4115 2490 4474 
Q 2694 4448 3142 4448 
Q 3251 4448 3251 4397 
Q 3251 4346 3184 4320 
Q 3117 4294 3078 4217 
Q 3040 4141 3040 4077 
L 3040 3168 
Q 3654 3373 3834 3437 
L 3834 4474 
Q 3834 5005 3763 5229 
Q 4102 5184 4316 5184 
Q 4531 5184 4531 5155 
Q 4531 5126 4432 5084 
Q 4333 5043 4333 4717 
L 4333 3610 
z
" transform="scale(0.015625)"/>
        <path id="STHeiti-6848" d="M 2938 4621 
Q 2906 4915 2848 5126 
L 3424 5197 
Q 3456 4915 3533 4621 
Q 5050 4621 5747 4685 
L 5747 3904 
L 5158 3904 
L 5158 4250 
L 1280 4250 
L 1280 3834 
L 717 3834 
L 717 4685 
Q 1408 4621 2938 4621 
z
M 1971 3206 
Q 1254 3200 666 3155 
L 666 3616 
Q 1427 3558 2253 3558 
Q 2464 3840 2611 4160 
Q 2918 4051 3059 4006 
Q 3200 3962 3200 3923 
Q 3200 3885 3107 3833 
Q 3014 3782 2803 3558 
L 4365 3558 
Q 5190 3558 5747 3616 
L 5747 3149 
Q 5318 3194 4621 3206 
Q 4493 2880 4045 2528 
Q 4966 2330 5664 2131 
Q 5498 1971 5357 1683 
Q 4461 2029 3674 2246 
Q 3302 2035 2582 1862 
Q 1862 1690 1037 1619 
Q 928 1862 723 2106 
Q 1222 2093 1932 2176 
Q 2643 2259 3072 2400 
Q 2374 2554 1478 2694 
Q 1773 2970 1971 3206 
z
M 4096 3206 
L 2483 3206 
Q 2355 3059 2234 2899 
Q 2835 2797 3520 2643 
Q 3891 2893 4096 3206 
z
M 3450 1318 
Q 5062 1325 5869 1382 
L 5869 896 
Q 5133 947 3930 954 
Q 4288 614 4880 387 
Q 5472 160 6125 134 
Q 5946 -134 5888 -442 
Q 5158 -320 4518 57 
Q 3878 435 3533 960 
L 3450 960 
L 3450 198 
Q 3450 -256 3488 -602 
L 2912 -602 
Q 2963 -275 2963 198 
L 2963 960 
L 2918 960 
Q 2598 480 2009 80 
Q 1421 -320 710 -544 
Q 595 -250 346 -83 
Q 1779 288 2470 960 
Q 1114 947 454 896 
L 454 1382 
Q 1267 1318 2957 1318 
Q 2944 1606 2906 1786 
Q 3130 1754 3360 1754 
L 3558 1766 
Q 3610 1766 3610 1740 
Q 3610 1715 3530 1632 
Q 3450 1549 3450 1421 
L 3450 1318 
z
" transform="scale(0.015625)"/>
        <path id="STHeiti-4ef6" d="M 2893 3174 
Q 2752 2739 2573 2342 
Q 2304 2438 2035 2477 
Q 2560 3373 2803 4819 
Q 3059 4710 3392 4646 
Q 3443 4634 3443 4605 
Q 3443 4576 3418 4544 
Q 3309 4390 3232 4179 
Q 3155 3968 3046 3629 
L 3968 3629 
L 3968 4218 
Q 3968 4870 3923 5190 
Q 4077 5171 4282 5171 
L 4563 5178 
Q 4678 5178 4678 5130 
Q 4678 5082 4595 5030 
Q 4512 4979 4512 4531 
L 4512 3629 
Q 5427 3642 5818 3680 
L 5818 3110 
Q 5261 3168 4512 3174 
L 4512 1901 
Q 5382 1907 6061 1965 
L 6061 1357 
Q 5363 1427 4512 1434 
L 4512 531 
Q 4512 38 4570 -621 
L 3910 -621 
Q 3968 -51 3968 531 
L 3968 1434 
Q 2963 1427 2234 1357 
L 2234 1965 
Q 2957 1907 3968 1901 
L 3968 3174 
L 2893 3174 
z
M 1728 3987 
L 1728 -627 
L 1158 -627 
Q 1235 141 1235 800 
L 1235 3078 
Q 979 2637 595 2061 
Q 422 2323 205 2509 
Q 1037 3392 1581 5165 
Q 1856 5037 2176 4954 
Q 2278 4928 2278 4883 
Q 2278 4838 2150 4755 
Q 2080 4698 1728 3987 
z
" transform="scale(0.015625)"/>
        <path id="STHeiti-6ee8" d="M 3686 4499 
Q 3642 4794 3539 5088 
L 4134 5203 
L 4262 4499 
Q 5459 4499 5830 4544 
L 5811 3507 
L 5325 3507 
L 5325 4096 
L 2637 4096 
L 2637 3469 
L 2138 3469 
L 2138 4544 
Q 2515 4499 3686 4499 
z
M 1933 4288 
L 1581 3834 
Q 1350 4134 736 4525 
L 1075 4941 
Q 1510 4634 1933 4288 
z
M 3117 2534 
L 4352 2534 
Q 5190 2534 5568 2611 
L 5568 2067 
Q 5210 2138 4691 2144 
L 4691 1338 
Q 5472 1344 6003 1395 
L 6003 851 
Q 5587 896 3990 896 
Q 2394 896 1907 851 
L 1907 1395 
Q 2163 1370 2624 1350 
L 2624 2790 
Q 2624 3098 2598 3354 
Q 3770 3418 4666 3712 
Q 4774 3462 4934 3245 
Q 4986 3168 4986 3120 
Q 4986 3072 4922 3085 
Q 4742 3123 4515 3123 
Q 4288 3123 4128 3098 
L 3117 2995 
L 3117 2534 
z
M 4211 2144 
L 3117 2144 
L 3117 1331 
L 4211 1331 
L 4211 2144 
z
M 1619 2822 
L 1376 2317 
Q 992 2630 358 2899 
L 653 3386 
Q 1139 3123 1619 2822 
z
M 1722 1555 
Q 1286 634 960 -563 
Q 704 -352 378 -147 
Q 576 179 851 803 
Q 1126 1427 1235 1914 
Q 1466 1677 1722 1555 
z
M 3130 691 
Q 3373 467 3558 378 
Q 3642 333 3642 288 
Q 3642 243 3539 243 
Q 3501 237 3414 195 
Q 3328 154 3270 109 
Q 2637 -339 2106 -627 
Q 1971 -422 1773 -218 
Q 2547 51 3130 691 
z
M 5830 -147 
L 5427 -582 
Q 4941 -122 4262 282 
L 4595 666 
Q 5344 192 5830 -147 
z
" transform="scale(0.015625)"/>
        <path id="STHeiti-38" d="M 2458 2906 
Q 3328 2477 3328 1702 
Q 3328 1088 2896 678 
Q 2464 269 1763 269 
Q 1062 269 640 678 
Q 218 1088 218 1664 
Q 218 2470 1107 2906 
Q 435 3264 435 3898 
Q 435 4371 828 4732 
Q 1222 5094 1779 5094 
Q 2336 5094 2726 4742 
Q 3117 4390 3117 3885 
Q 3117 3270 2458 2906 
z
M 2656 3904 
Q 2656 4211 2416 4432 
Q 2176 4653 1789 4653 
Q 1402 4653 1152 4432 
Q 902 4211 902 3897 
Q 902 3584 1174 3337 
Q 1446 3091 1792 3091 
Q 2138 3091 2397 3334 
Q 2656 3578 2656 3904 
z
M 2867 1696 
Q 2867 2086 2550 2380 
Q 2234 2675 1782 2675 
Q 1331 2675 1004 2371 
Q 678 2067 678 1654 
Q 678 1242 979 973 
Q 1280 704 1766 704 
Q 2253 704 2560 992 
Q 2867 1280 2867 1696 
z
" transform="scale(0.015625)"/>
        <path id="STHeiti-4e07" d="M 2304 4102 
Q 1312 4096 678 4026 
L 678 4659 
Q 960 4614 3107 4614 
Q 5254 4614 5946 4666 
L 5946 4026 
Q 5274 4102 4128 4102 
L 2918 4102 
Q 2918 3501 2880 3104 
L 4301 3104 
Q 4890 3104 5254 3168 
Q 5222 3053 5216 2925 
L 5082 922 
Q 5050 422 4944 195 
Q 4838 -32 4566 -134 
Q 4294 -237 3686 -288 
Q 3648 19 3347 410 
Q 3648 390 3885 390 
Q 4122 390 4262 473 
Q 4403 557 4457 765 
Q 4512 973 4544 1453 
L 4627 2611 
L 2835 2611 
Q 2714 1453 2304 829 
Q 1894 205 947 -384 
Q 774 -51 435 147 
Q 1229 429 1645 937 
Q 2061 1446 2185 2262 
Q 2310 3078 2310 3802 
Q 2310 3968 2304 4102 
z
" transform="scale(0.015625)"/>
        <path id="STHeiti-2f" d="M 2611 5094 
L 704 -243 
L 224 -243 
L 2131 5094 
L 2611 5094 
z
" transform="scale(0.015625)"/>
        <path id="STHeiti-5317" d="M 3949 2867 
Q 4947 3450 5344 3917 
Q 5530 3603 5766 3386 
Q 5824 3334 5824 3305 
Q 5824 3277 5715 3264 
Q 5542 3245 3949 2336 
L 3949 518 
Q 3949 269 4086 208 
Q 4224 147 4553 147 
Q 4883 147 5020 198 
Q 5158 250 5225 435 
Q 5293 621 5338 1075 
Q 5683 736 5990 710 
Q 5837 186 5696 -32 
Q 5555 -250 5318 -314 
Q 5082 -378 4550 -378 
Q 4019 -378 3792 -326 
Q 3565 -275 3491 -124 
Q 3418 26 3418 378 
L 3418 4282 
Q 3418 4787 3386 5050 
Q 3520 5030 4006 5030 
Q 4109 5030 4109 4992 
Q 4109 4954 4029 4896 
Q 3949 4838 3949 4723 
L 3949 2867 
z
M 2022 2893 
L 960 2893 
Q 717 2893 544 2861 
L 544 3443 
Q 717 3411 960 3411 
L 2022 3411 
L 2022 4102 
Q 2022 4800 1958 4992 
Q 2246 4960 2445 4960 
L 2637 4966 
Q 2714 4966 2714 4934 
Q 2714 4902 2630 4838 
Q 2547 4774 2547 4640 
L 2547 589 
Q 2547 64 2586 -454 
L 1965 -454 
Q 2022 45 2022 678 
Q 1312 352 742 45 
Q 602 358 384 717 
Q 1139 819 2022 1152 
L 2022 2893 
z
" transform="scale(0.015625)"/>
        <path id="STHeiti-4eac" d="M 3021 4493 
Q 2982 4736 2874 5158 
L 3514 5235 
L 3642 4493 
Q 5133 4506 5926 4557 
L 5926 3981 
Q 5018 4045 3210 4045 
Q 1402 4045 493 3981 
L 493 4557 
Q 1370 4493 3021 4493 
z
M 3571 1766 
L 3571 -70 
Q 3571 -256 3491 -355 
Q 3411 -454 3184 -518 
Q 2957 -582 2470 -646 
Q 2426 -269 2170 32 
Q 2464 -6 2649 -6 
Q 2835 -6 2924 45 
Q 3014 96 3014 218 
L 3014 1766 
Q 1894 1760 1325 1722 
Q 1376 2144 1376 2643 
Q 1376 3142 1325 3539 
Q 1907 3488 3222 3488 
Q 4538 3488 5120 3539 
Q 5069 3098 5069 2653 
Q 5069 2208 5114 1722 
Q 4570 1760 3571 1766 
z
M 1907 3053 
L 1907 2208 
L 4531 2208 
L 4531 3053 
L 1907 3053 
z
M 1792 1402 
Q 2010 1229 2272 1094 
Q 2349 1056 2349 1014 
Q 2349 973 2214 934 
Q 2144 909 1792 595 
Q 1440 282 902 -115 
Q 774 102 442 243 
Q 1229 602 1792 1402 
z
M 5894 314 
L 5434 -154 
Q 4973 416 4250 947 
L 4621 1306 
Q 5261 864 5894 314 
z
" transform="scale(0.015625)"/>
        <path id="STHeiti-4e30" d="M 3488 1459 
Q 4896 1459 5894 1523 
L 5894 928 
Q 4896 992 3488 992 
Q 3501 26 3552 -538 
L 2867 -538 
Q 2931 -38 2944 992 
Q 1536 992 544 928 
L 544 1523 
Q 1549 1459 2944 1459 
L 2944 2362 
Q 1779 2355 1139 2298 
L 1139 2893 
Q 1792 2835 2944 2829 
L 2944 3725 
Q 1549 3718 813 3661 
L 813 4269 
Q 1606 4198 2944 4192 
Q 2931 4934 2874 5203 
Q 3181 5146 3533 5146 
Q 3661 5146 3661 5107 
Q 3661 5069 3578 5018 
Q 3558 4998 3523 4844 
Q 3488 4691 3488 4544 
L 3488 4192 
Q 4685 4198 5626 4269 
L 5626 3661 
Q 4890 3718 3488 3725 
L 3488 2829 
Q 4704 2835 5350 2893 
L 5350 2298 
Q 4704 2355 3488 2362 
L 3488 1459 
z
" transform="scale(0.015625)"/>
        <path id="STHeiti-53f0" d="M 4941 2906 
Q 3014 2803 2028 2736 
Q 1043 2669 646 2560 
Q 602 2816 493 3104 
Q 986 3200 1251 3446 
Q 1517 3693 2067 4275 
Q 2618 4858 2899 5306 
Q 3270 5075 3533 4979 
Q 3648 4934 3648 4883 
Q 3648 4832 3510 4825 
Q 3373 4819 3091 4538 
Q 2246 3699 1613 3200 
L 4570 3309 
Q 4179 3686 3725 4102 
L 4166 4403 
Q 4954 3738 5805 2835 
L 5280 2483 
Q 5075 2758 4941 2906 
z
M 1696 -83 
L 1696 -525 
L 1082 -525 
Q 1165 -26 1165 448 
L 1165 1453 
Q 1165 1818 1133 2042 
Q 1472 2010 3085 2010 
Q 4698 2010 5165 2042 
Q 5133 1843 5133 1453 
L 5133 525 
Q 5133 -58 5171 -448 
L 4589 -448 
L 4589 -83 
L 1696 -83 
z
M 4589 378 
L 4589 1555 
L 1696 1555 
L 1696 378 
L 4589 378 
z
" transform="scale(0.015625)"/>
        <path id="STHeiti-39" d="M 1229 269 
L 851 512 
L 2093 2394 
Q 1850 2310 1613 2310 
Q 1062 2310 688 2707 
Q 314 3104 314 3696 
Q 314 4288 730 4691 
Q 1146 5094 1750 5094 
Q 2355 5094 2748 4681 
Q 3142 4269 3142 3693 
Q 3142 3373 3011 3049 
Q 2880 2726 2624 2349 
L 1229 269 
z
M 762 3680 
Q 762 3277 1043 2995 
Q 1325 2714 1728 2714 
Q 2131 2714 2412 2998 
Q 2694 3283 2694 3680 
Q 2694 4077 2412 4361 
Q 2131 4646 1728 4646 
Q 1325 4646 1043 4364 
Q 762 4083 762 3680 
z
" transform="scale(0.015625)"/>
        <path id="STHeiti-65e5" d="M 1901 115 
L 1901 -352 
L 1261 -352 
Q 1312 205 1312 826 
L 1312 3827 
Q 1312 4346 1254 4723 
Q 1683 4678 3270 4678 
Q 4858 4678 5229 4723 
Q 5178 4422 5178 3827 
L 5178 736 
Q 5178 275 5229 -307 
L 4582 -307 
L 4582 115 
L 1901 115 
z
M 4582 2694 
L 4582 4179 
L 1901 4179 
L 1901 2694 
L 4582 2694 
z
M 1901 2195 
L 1901 614 
L 4582 614 
L 4582 2195 
L 1901 2195 
z
" transform="scale(0.015625)"/>
        <path id="STHeiti-7167" d="M 4288 4422 
Q 4173 3334 3309 2746 
Q 3654 2694 4448 2694 
Q 5242 2694 5632 2758 
Q 5581 2317 5581 1862 
Q 5581 1408 5632 1056 
Q 5235 1114 4432 1114 
Q 3629 1114 3200 1062 
Q 3251 1402 3251 1882 
Q 3251 2362 3213 2682 
L 3149 2643 
Q 2995 2912 2733 2995 
Q 3162 3136 3462 3542 
Q 3763 3949 3821 4416 
Q 3322 4416 3066 4365 
L 3066 4915 
Q 3456 4851 4358 4851 
Q 5261 4851 5747 4915 
Q 5613 3456 5491 3177 
Q 5370 2899 4576 2861 
Q 4576 2970 4518 3126 
Q 4461 3283 4358 3411 
Q 4525 3392 4675 3392 
Q 4826 3392 4925 3427 
Q 5024 3462 5056 3529 
Q 5088 3597 5133 3875 
Q 5178 4154 5190 4422 
L 4288 4422 
z
M 5082 1530 
L 5082 2259 
L 3718 2259 
L 3718 1530 
L 5082 1530 
z
M 2176 1485 
L 1286 1485 
L 1286 1088 
L 781 1088 
Q 819 1344 819 1690 
L 819 4346 
Q 819 4608 774 4826 
Q 1114 4762 1786 4762 
Q 2458 4762 2688 4826 
Q 2643 4659 2643 4346 
L 2643 1773 
Q 2643 1434 2682 1178 
L 2176 1178 
L 2176 1485 
z
M 1286 3309 
L 2176 3309 
L 2176 4352 
L 1286 4352 
L 1286 3309 
z
M 1286 1856 
L 2176 1856 
L 2176 2912 
L 1286 2912 
L 1286 1856 
z
M 1485 646 
L 947 -544 
L 397 -269 
Q 794 166 1005 838 
L 1485 646 
z
M 5978 -166 
L 5357 -467 
Q 5120 122 4858 627 
L 5350 813 
Q 5658 269 5978 -166 
z
M 4269 -243 
L 3674 -301 
Q 3603 211 3456 653 
L 3987 723 
Q 4122 192 4269 -243 
z
M 2861 -326 
L 2298 -416 
Q 2298 13 2157 595 
L 2637 678 
Q 2758 83 2861 -326 
z
" transform="scale(0.015625)"/>
        <path id="STHeiti-31" d="M 1184 4979 
L 2086 4979 
L 2086 384 
L 1632 384 
L 1632 4531 
L 909 4531 
L 1184 4979 
z
" transform="scale(0.015625)"/>
        <path id="STHeiti-4f5b" d="M 1024 2822 
Q 838 2541 582 2214 
Q 461 2458 218 2618 
Q 1069 3571 1549 5235 
Q 1888 5043 2099 4998 
Q 2195 4979 2195 4931 
Q 2195 4883 2118 4816 
Q 2042 4749 1517 3718 
L 1517 -557 
L 941 -557 
Q 1024 243 1024 819 
L 1024 2822 
z
M 3571 4224 
L 4154 4224 
Q 4154 4986 4109 5216 
Q 4397 5158 4717 5158 
Q 4806 5158 4806 5120 
Q 4806 5082 4758 5037 
Q 4710 4992 4665 4816 
Q 4621 4640 4621 4454 
L 4621 4224 
Q 5331 4224 5747 4282 
L 5670 2701 
L 4621 2701 
L 4621 1843 
Q 5427 1856 5946 1907 
Q 5946 1677 5888 976 
Q 5830 275 5641 147 
Q 5453 19 5011 -6 
Q 5024 262 4813 538 
Q 5120 525 5241 569 
Q 5363 614 5382 832 
L 5434 1440 
L 4621 1440 
L 4621 518 
Q 4621 -51 4691 -634 
L 4096 -634 
Q 4154 -64 4154 518 
L 4154 1440 
L 3482 1440 
Q 3418 710 3174 304 
Q 2931 -102 2221 -614 
Q 2086 -397 1741 -205 
Q 2400 115 2659 454 
Q 2918 794 3034 1440 
L 1997 1440 
L 2067 3085 
L 3104 3085 
Q 3110 3296 3110 3827 
Q 2432 3814 2125 3789 
L 2125 4282 
Q 2496 4230 3110 4224 
Q 3104 5030 3059 5210 
Q 3270 5139 3610 5139 
Q 3680 5139 3680 5097 
Q 3680 5056 3625 5005 
Q 3571 4954 3571 4224 
z
M 4621 3085 
L 5242 3085 
L 5286 3834 
L 4621 3834 
L 4621 3085 
z
M 3558 3085 
L 4154 3085 
L 4154 3834 
L 3571 3834 
L 3558 3085 
z
M 3552 2701 
Q 3546 2246 3520 1843 
L 4154 1843 
L 4154 2701 
L 3552 2701 
z
M 3078 1843 
Q 3098 2144 3098 2701 
L 2534 2701 
L 2483 1843 
L 3078 1843 
z
" transform="scale(0.015625)"/>
        <path id="STHeiti-5c71" d="M 5082 -64 
L 2720 -64 
Q 1453 -64 787 -141 
Q 832 173 832 531 
L 832 3053 
Q 832 3648 781 3814 
Q 1024 3763 1267 3763 
L 1478 3770 
Q 1549 3770 1549 3734 
Q 1549 3699 1472 3641 
Q 1395 3584 1395 3450 
L 1395 403 
L 2938 403 
L 2938 4147 
Q 2938 4710 2880 5056 
Q 3238 4986 3462 4986 
L 3616 4992 
Q 3706 4992 3706 4957 
Q 3706 4922 3645 4877 
Q 3584 4832 3555 4781 
Q 3526 4730 3526 4627 
L 3526 403 
L 5082 403 
L 5082 2982 
Q 5082 3552 5018 3744 
Q 5261 3699 5434 3699 
Q 5811 3699 5811 3657 
Q 5811 3616 5747 3561 
Q 5683 3507 5660 3465 
Q 5638 3424 5638 3341 
L 5638 365 
Q 5638 -128 5670 -467 
L 5082 -467 
L 5082 -64 
z
" transform="scale(0.015625)"/>
       </defs>
       <use xlink:href="#STHeiti-5176"/>
       <use xlink:href="#STHeiti-4ed6" transform="translate(99.999985 0)"/>
       <use xlink:href="#STHeiti-706b" transform="translate(199.999969 0)"/>
       <use xlink:href="#STHeiti-707e" transform="translate(299.999954 0)"/>
       <use xlink:href="#STHeiti-6848" transform="translate(399.999939 0)"/>
       <use xlink:href="#STHeiti-4ef6" transform="translate(499.999924 0)"/>
       <use xlink:href="#STHeiti-ff08" transform="translate(599.999908 0)"/>
       <use xlink:href="#STHeiti-6ee8" transform="translate(699.999893 0)"/>
       <use xlink:href="#STHeiti-5dde" transform="translate(799.999878 0)"/>
       <use xlink:href="#STHeiti-38" transform="translate(899.999863 0)"/>
       <use xlink:href="#STHeiti-34" transform="translate(955.399857 0)"/>
       <use xlink:href="#STHeiti-4e07" transform="translate(1010.79985 0)"/>
       <use xlink:href="#STHeiti-2f" transform="translate(1110.799835 0)"/>
       <use xlink:href="#STHeiti-5317" transform="translate(1154.499832 0)"/>
       <use xlink:href="#STHeiti-4eac" transform="translate(1254.499817 0)"/>
       <use xlink:href="#STHeiti-4e30" transform="translate(1354.499802 0)"/>
       <use xlink:href="#STHeiti-53f0" transform="translate(1454.499786 0)"/>
       <use xlink:href="#STHeiti-37" transform="translate(1554.499771 0)"/>
       <use xlink:href="#STHeiti-39" transform="translate(1609.899765 0)"/>
       <use xlink:href="#STHeiti-2e" transform="translate(1665.299759 0)"/>
       <use xlink:href="#STHeiti-34" transform="translate(1692.999756 0)"/>
       <use xlink:href="#STHeiti-4e07" transform="translate(1748.39975 0)"/>
       <use xlink:href="#STHeiti-2f" transform="translate(1848.399734 0)"/>
       <use xlink:href="#STHeiti-65e5" transform="translate(1892.099731 0)"/>
       <use xlink:href="#STHeiti-7167" transform="translate(1992.099716 0)"/>
       <use xlink:href="#STHeiti-31" transform="translate(2092.099701 0)"/>
       <use xlink:href="#STHeiti-32" transform="translate(2147.499695 0)"/>
       <use xlink:href="#STHeiti-2e" transform="translate(2202.899689 0)"/>
       <use xlink:href="#STHeiti-39" transform="translate(2230.599686 0)"/>
       <use xlink:href="#STHeiti-4e07" transform="translate(2285.99968 0)"/>
       <use xlink:href="#STHeiti-2f" transform="translate(2385.999664 0)"/>
       <use xlink:href="#STHeiti-4f5b" transform="translate(2429.699661 0)"/>
       <use xlink:href="#STHeiti-5c71" transform="translate(2529.699646 0)"/>
       <use xlink:href="#STHeiti-31" transform="translate(2629.699631 0)"/>
       <use xlink:href="#STHeiti-37" transform="translate(2685.099625 0)"/>
       <use xlink:href="#STHeiti-4e07" transform="translate(2740.499619 0)"/>
       <use xlink:href="#STHeiti-ff09" transform="translate(2840.499603 0)"/>
      </g>
     </g>
    </g>
   </g>
   <g id="matplotlib.axis_2">
    <g id="ytick_1">
     <g id="line2d_11">
      <path d="M 97.449387 175.001976 
L 703.312593 175.001976 
" clip-path="url(#pea81c6c379)" style="fill: none; stroke: #b0b0b0; stroke-opacity: 0.3; stroke-width: 0.8; stroke-linecap: square"/>
     </g>
     <g id="line2d_12">
      <defs>
       <path id="ma903df8a1f" d="M 0 0 
L -3.5 0 
" style="stroke: #000000; stroke-width: 0.8"/>
      </defs>
      <g>
       <use xlink:href="#ma903df8a1f" x="97.449387" y="175.001976" style="stroke: #000000; stroke-width: 0.8"/>
      </g>
     </g>
     <g id="text_6">
      <!-- 0 -->
      <g transform="translate(84.908762 178.981664) scale(0.1 -0.1)">
       <use xlink:href="#STHeiti-30"/>
      </g>
     </g>
    </g>
    <g id="ytick_2">
     <g id="line2d_13">
      <path d="M 97.449387 135.247871 
L 703.312593 135.247871 
" clip-path="url(#pea81c6c379)" style="fill: none; stroke: #b0b0b0; stroke-opacity: 0.3; stroke-width: 0.8; stroke-linecap: square"/>
     </g>
     <g id="line2d_14">
      <g>
       <use xlink:href="#ma903df8a1f" x="97.449387" y="135.247871" style="stroke: #000000; stroke-width: 0.8"/>
      </g>
     </g>
     <g id="text_7">
      <!-- 20000 -->
      <g transform="translate(62.746262 139.227559) scale(0.1 -0.1)">
       <use xlink:href="#STHeiti-32"/>
       <use xlink:href="#STHeiti-30" transform="translate(55.399994 0)"/>
       <use xlink:href="#STHeiti-30" transform="translate(110.799988 0)"/>
       <use xlink:href="#STHeiti-30" transform="translate(166.199982 0)"/>
       <use xlink:href="#STHeiti-30" transform="translate(221.599976 0)"/>
      </g>
     </g>
    </g>
    <g id="ytick_3">
     <g id="line2d_15">
      <path d="M 97.449387 95.493767 
L 703.312593 95.493767 
" clip-path="url(#pea81c6c379)" style="fill: none; stroke: #b0b0b0; stroke-opacity: 0.3; stroke-width: 0.8; stroke-linecap: square"/>
     </g>
     <g id="line2d_16">
      <g>
       <use xlink:href="#ma903df8a1f" x="97.449387" y="95.493767" style="stroke: #000000; stroke-width: 0.8"/>
      </g>
     </g>
     <g id="text_8">
      <!-- 40000 -->
      <g transform="translate(62.746262 99.473454) scale(0.1 -0.1)">
       <use xlink:href="#STHeiti-34"/>
       <use xlink:href="#STHeiti-30" transform="translate(55.399994 0)"/>
       <use xlink:href="#STHeiti-30" transform="translate(110.799988 0)"/>
       <use xlink:href="#STHeiti-30" transform="translate(166.199982 0)"/>
       <use xlink:href="#STHeiti-30" transform="translate(221.599976 0)"/>
      </g>
     </g>
    </g>
    <g id="ytick_4">
     <g id="line2d_17">
      <path d="M 97.449387 55.739662 
L 703.312593 55.739662 
" clip-path="url(#pea81c6c379)" style="fill: none; stroke: #b0b0b0; stroke-opacity: 0.3; stroke-width: 0.8; stroke-linecap: square"/>
     </g>
     <g id="line2d_18">
      <g>
       <use xlink:href="#ma903df8a1f" x="97.449387" y="55.739662" style="stroke: #000000; stroke-width: 0.8"/>
      </g>
     </g>
     <g id="text_9">
      <!-- 60000 -->
      <g transform="translate(62.746262 59.71935) scale(0.1 -0.1)">
       <defs>
        <path id="STHeiti-36" d="M 2349 5094 
L 2726 4851 
L 1485 2970 
Q 1747 3059 1984 3059 
Q 2496 3059 2880 2652 
Q 3264 2246 3264 1660 
Q 3264 1075 2845 672 
Q 2426 269 1827 269 
Q 1229 269 829 678 
Q 429 1088 429 1677 
Q 429 1958 537 2256 
Q 646 2554 954 3014 
L 2349 5094 
z
M 2810 1683 
Q 2810 2086 2528 2368 
Q 2246 2650 1843 2650 
Q 1440 2650 1158 2368 
Q 877 2086 877 1683 
Q 877 1280 1161 998 
Q 1446 717 1843 717 
Q 2240 717 2525 998 
Q 2810 1280 2810 1683 
z
" transform="scale(0.015625)"/>
       </defs>
       <use xlink:href="#STHeiti-36"/>
       <use xlink:href="#STHeiti-30" transform="translate(55.399994 0)"/>
       <use xlink:href="#STHeiti-30" transform="translate(110.799988 0)"/>
       <use xlink:href="#STHeiti-30" transform="translate(166.199982 0)"/>
       <use xlink:href="#STHeiti-30" transform="translate(221.599976 0)"/>
      </g>
     </g>
    </g>
    <g id="ytick_5">
     <g id="line2d_19">
      <path d="M 97.449387 15.985558 
L 703.312593 15.985558 
" clip-path="url(#pea81c6c379)" style="fill: none; stroke: #b0b0b0; stroke-opacity: 0.3; stroke-width: 0.8; stroke-linecap: square"/>
     </g>
     <g id="line2d_20">
      <g>
       <use xlink:href="#ma903df8a1f" x="97.449387" y="15.985558" style="stroke: #000000; stroke-width: 0.8"/>
      </g>
     </g>
     <g id="text_10">
      <!-- 80000 -->
      <g transform="translate(62.746262 19.965245) scale(0.1 -0.1)">
       <use xlink:href="#STHeiti-38"/>
       <use xlink:href="#STHeiti-30" transform="translate(55.399994 0)"/>
       <use xlink:href="#STHeiti-30" transform="translate(110.799988 0)"/>
       <use xlink:href="#STHeiti-30" transform="translate(166.199982 0)"/>
       <use xlink:href="#STHeiti-30" transform="translate(221.599976 0)"/>
      </g>
     </g>
    </g>
   </g>
   <g id="line2d_21">
    <path d="M 124.988624 174.99005 
L 262.684807 174.999988 
L 400.38099 174.974148 
L 538.077173 174.999988 
L 675.773356 174.994025 
" clip-path="url(#pea81c6c379)" style="fill: none; stroke: #1a365d; stroke-width: 2; stroke-linecap: square"/>
    <defs>
     <path id="mefd2f09817" d="M 0 3 
C 0.795609 3 1.55874 2.683901 2.12132 2.12132 
C 2.683901 1.55874 3 0.795609 3 0 
C 3 -0.795609 2.683901 -1.55874 2.12132 -2.12132 
C 1.55874 -2.683901 0.795609 -3 0 -3 
C -0.795609 -3 -1.55874 -2.683901 -2.12132 -2.12132 
C -2.683901 -1.55874 -3 -0.795609 -3 0 
C -3 0.795609 -2.683901 1.55874 -2.12132 2.12132 
C -1.55874 2.683901 -0.795609 3 0 3 
z
" style="stroke: #1a365d"/>
    </defs>
    <g clip-path="url(#pea81c6c379)">
     <use xlink:href="#mefd2f09817" x="124.988624" y="174.99005" style="fill: #1a365d; stroke: #1a365d"/>
     <use xlink:href="#mefd2f09817" x="262.684807" y="174.999988" style="fill: #1a365d; stroke: #1a365d"/>
     <use xlink:href="#mefd2f09817" x="400.38099" y="174.974148" style="fill: #1a365d; stroke: #1a365d"/>
     <use xlink:href="#mefd2f09817" x="538.077173" y="174.999988" style="fill: #1a365d; stroke: #1a365d"/>
     <use xlink:href="#mefd2f09817" x="675.773356" y="174.994025" style="fill: #1a365d; stroke: #1a365d"/>
    </g>
   </g>
   <g id="line2d_22">
    <path d="M 124.988624 174.604435 
L 262.684807 15.190476 
L 400.38099 174.936382 
L 538.077173 174.942345 
L 675.773356 174.618349 
" clip-path="url(#pea81c6c379)" style="fill: none; stroke: #d69e2e; stroke-width: 2; stroke-linecap: square"/>
    <defs>
     <path id="mc533275565" d="M 0 3 
C 0.795609 3 1.55874 2.683901 2.12132 2.12132 
C 2.683901 1.55874 3 0.795609 3 0 
C 3 -0.795609 2.683901 -1.55874 2.12132 -2.12132 
C 1.55874 -2.683901 0.795609 -3 0 -3 
C -0.795609 -3 -1.55874 -2.683901 -2.12132 -2.12132 
C -2.683901 -1.55874 -3 -0.795609 -3 0 
C -3 0.795609 -2.683901 1.55874 -2.12132 2.12132 
C -1.55874 2.683901 -0.795609 3 0 3 
z
" style="stroke: #d69e2e"/>
    </defs>
    <g clip-path="url(#pea81c6c379)">
     <use xlink:href="#mc533275565" x="124.988624" y="174.604435" style="fill: #d69e2e; stroke: #d69e2e"/>
     <use xlink:href="#mc533275565" x="262.684807" y="15.190476" style="fill: #d69e2e; stroke: #d69e2e"/>
     <use xlink:href="#mc533275565" x="400.38099" y="174.936382" style="fill: #d69e2e; stroke: #d69e2e"/>
     <use xlink:href="#mc533275565" x="538.077173" y="174.942345" style="fill: #d69e2e; stroke: #d69e2e"/>
     <use xlink:href="#mc533275565" x="675.773356" y="174.618349" style="fill: #d69e2e; stroke: #d69e2e"/>
    </g>
   </g>
   <g id="patch_3">
    <path d="M 97.449387 182.990464 
L 97.449387 7.2 
" style="fill: none; stroke: #000000; stroke-width: 0.8; stroke-linejoin: miter; stroke-linecap: square"/>
   </g>
   <g id="patch_4">
    <path d="M 703.312593 182.990464 
L 703.312593 7.2 
" style="fill: none; stroke: #000000; stroke-width: 0.8; stroke-linejoin: miter; stroke-linecap: square"/>
   </g>
   <g id="patch_5">
    <path d="M 97.449387 182.990464 
L 703.312593 182.990464 
" style="fill: none; stroke: #000000; stroke-width: 0.8; stroke-linejoin: miter; stroke-linecap: square"/>
   </g>
   <g id="patch_6">
    <path d="M 97.449387 7.2 
L 703.312593 7.2 
" style="fill: none; stroke: #000000; stroke-width: 0.8; stroke-linejoin: miter; stroke-linecap: square"/>
   </g>
   <g id="legend_1">
    <g id="patch_7">
     <path d="M 623.212593 40.14 
L 697.012593 40.14 
Q 698.812593 40.14 698.812593 38.34 
L 698.812593 13.5 
Q 698.812593 11.7 697.012593 11.7 
L 623.212593 11.7 
Q 621.412593 11.7 621.412593 13.5 
L 621.412593 38.34 
Q 621.412593 40.14 623.212593 40.14 
z
" style="fill: #ffffff; opacity: 0.8; stroke: #cccccc; stroke-linejoin: miter"/>
    </g>
    <g id="line2d_23">
     <path d="M 625.012593 19.313437 
L 634.012593 19.313437 
L 643.012593 19.313437 
" style="fill: none; stroke: #1a365d; stroke-width: 2; stroke-linecap: square"/>
     <g>
      <use xlink:href="#mefd2f09817" x="634.012593" y="19.313437" style="fill: #1a365d; stroke: #1a365d"/>
     </g>
    </g>
    <g id="text_11">
     <!-- 案件数 -->
     <g transform="translate(650.212593 22.463437) scale(0.09 -0.09)">
      <defs>
       <path id="STHeiti-6570" d="M 4640 480 
Q 4173 -51 3194 -467 
Q 3059 -237 2803 -26 
Q 3238 70 3673 323 
Q 4109 576 4365 890 
Q 3994 1549 3962 2835 
Q 3744 2458 3520 2176 
Q 3366 2419 3206 2522 
Q 3584 3040 3837 3747 
Q 4090 4454 4147 5171 
Q 4486 5062 4800 5037 
Q 4877 5030 4877 4988 
Q 4877 4947 4781 4896 
Q 4704 4858 4480 4128 
L 5216 4128 
Q 5747 4128 6003 4179 
L 6003 3661 
Q 5850 3680 5562 3699 
Q 5440 1773 4934 896 
Q 5254 518 6112 250 
Q 5856 6 5754 -365 
Q 4902 141 4640 480 
z
M 4627 1363 
Q 5018 2253 5088 3706 
L 4352 3706 
Q 4237 3328 3981 2874 
L 4384 2886 
Q 4384 1907 4627 1363 
z
M 1549 3526 
Q 1222 3520 589 3488 
L 589 3942 
Q 1158 3898 1850 3898 
L 1850 4499 
Q 1850 4800 1786 5165 
Q 2042 5139 2362 5139 
Q 2458 5139 2458 5094 
Q 2458 5050 2406 5030 
Q 2355 5011 2336 4976 
Q 2317 4941 2317 4845 
L 2317 3898 
Q 2758 3904 3507 3942 
L 3507 3488 
Q 2810 3526 2317 3533 
Q 2317 2970 2362 2515 
L 1805 2515 
Q 1850 3034 1850 3456 
Q 1632 3014 1401 2745 
Q 1171 2477 755 2189 
Q 608 2406 282 2573 
Q 1030 2816 1549 3526 
z
M 2861 4922 
Q 3155 4826 3386 4794 
Q 3462 4781 3462 4755 
Q 3462 4730 3388 4701 
Q 3315 4672 3228 4521 
Q 3142 4371 3014 4122 
Q 2835 4166 2560 4186 
Q 2746 4461 2861 4922 
z
M 1510 4230 
L 973 4154 
Q 966 4461 883 4806 
L 1389 4870 
Q 1459 4595 1510 4230 
z
M 3360 2790 
L 3046 2477 
Q 2765 2816 2464 3078 
L 2790 3328 
Q 3034 3117 3360 2790 
z
M 2899 755 
Q 3168 666 3450 525 
Q 3251 314 3168 128 
Q 2886 288 2637 390 
Q 2394 128 1984 -51 
Q 1574 -230 781 -410 
Q 627 -115 346 109 
Q 1619 134 2157 557 
Q 1709 691 1030 781 
Q 1248 1165 1408 1555 
Q 800 1549 531 1504 
L 531 1965 
Q 858 1939 1536 1926 
Q 1600 2118 1696 2458 
Q 1946 2355 2214 2336 
Q 2342 2323 2342 2294 
Q 2342 2266 2243 2198 
Q 2144 2131 2035 1926 
L 2899 1926 
Q 3162 1926 3341 1971 
Q 3123 1158 2899 755 
z
M 1862 1555 
L 1626 1043 
Q 2118 966 2470 883 
Q 2662 1165 2726 1555 
L 1862 1555 
z
" transform="scale(0.015625)"/>
      </defs>
      <use xlink:href="#STHeiti-6848"/>
      <use xlink:href="#STHeiti-4ef6" transform="translate(99.999985 0)"/>
      <use xlink:href="#STHeiti-6570" transform="translate(199.999969 0)"/>
     </g>
    </g>
    <g id="line2d_24">
     <path d="M 625.012593 32.183438 
L 634.012593 32.183438 
L 643.012593 32.183438 
" style="fill: none; stroke: #d69e2e; stroke-width: 2; stroke-linecap: square"/>
     <g>
      <use xlink:href="#mc533275565" x="634.012593" y="32.183438" style="fill: #d69e2e; stroke: #d69e2e"/>
     </g>
    </g>
    <g id="text_12">
     <!-- 预估总损失 -->
     <g transform="translate(650.212593 35.333438) scale(0.09 -0.09)">
      <defs>
       <path id="STHeiti-9884" d="M 4064 4397 
Q 3354 4390 2995 4346 
L 2995 4902 
Q 3520 4845 4470 4845 
Q 5421 4845 5946 4902 
L 5946 4346 
Q 5427 4397 4640 4397 
Q 4544 4077 4422 3565 
Q 5344 3565 5722 3616 
Q 5683 3411 5683 2822 
L 5683 1677 
Q 5683 1216 5734 877 
L 5171 877 
L 5171 3149 
L 3526 3149 
L 3526 851 
L 2982 851 
Q 3040 1274 3040 1651 
L 3040 2822 
Q 3040 3347 3002 3616 
Q 3315 3571 3936 3565 
Q 4070 3994 4064 4397 
z
M 1818 2560 
L 1818 38 
Q 1818 -218 1648 -333 
Q 1478 -448 954 -506 
Q 928 -211 710 96 
Q 915 45 1043 45 
Q 1306 45 1306 294 
L 1306 2560 
Q 736 2554 435 2522 
L 435 3040 
Q 730 2995 1485 2995 
Q 1197 3418 800 3738 
L 1152 4038 
Q 1370 3834 1542 3642 
L 1990 4371 
Q 819 4371 576 4333 
L 576 4864 
Q 883 4813 1680 4813 
Q 2477 4813 2771 4864 
Q 2419 4326 1824 3347 
Q 1888 3283 2003 3155 
L 1811 2995 
Q 2547 3002 2874 3053 
L 2586 1818 
L 2093 1914 
L 2310 2560 
L 1818 2560 
z
M 4058 2778 
Q 4256 2733 4422 2729 
Q 4589 2726 4659 2726 
Q 4730 2726 4730 2707 
Q 4730 2688 4698 2656 
Q 4666 2624 4627 2486 
Q 4589 2349 4582 2253 
Q 4531 1158 4390 774 
Q 4250 390 3856 60 
Q 3462 -269 2720 -582 
Q 2560 -352 2259 -115 
Q 2752 13 3097 182 
Q 3443 352 3651 566 
Q 3859 781 3936 1005 
Q 4013 1229 4045 1613 
Q 4077 1997 4077 2256 
Q 4077 2515 4058 2778 
z
M 6022 -102 
L 5645 -582 
Q 4998 109 4467 480 
L 4800 902 
Q 5498 352 6022 -102 
z
" transform="scale(0.015625)"/>
       <path id="STHeiti-4f30" d="M 1120 2784 
Q 864 2419 717 2227 
Q 608 2451 320 2656 
Q 838 3226 1145 3856 
Q 1453 4486 1638 5261 
Q 1933 5037 2221 4992 
Q 2291 4979 2291 4950 
Q 2291 4922 2221 4845 
Q 2067 4678 1632 3712 
L 1632 -557 
L 1050 -557 
Q 1120 115 1120 736 
L 1120 2784 
z
M 4928 0 
L 3008 0 
L 3008 -544 
L 2438 -544 
Q 2464 -250 2464 122 
L 2464 1984 
Q 2464 2221 2438 2342 
Q 2733 2323 3680 2323 
L 3680 3437 
Q 2701 3430 2061 3373 
L 2061 3949 
Q 2656 3898 3680 3891 
L 3680 4461 
Q 3680 4947 3642 5203 
Q 3846 5165 4307 5165 
Q 4378 5165 4378 5129 
Q 4378 5094 4333 5056 
Q 4218 4960 4218 4698 
L 4218 3891 
Q 5299 3891 5907 3949 
L 5907 3373 
Q 5325 3437 4218 3437 
L 4218 2323 
Q 5254 2323 5504 2342 
Q 5472 2221 5472 1984 
L 5472 109 
Q 5472 -262 5491 -454 
L 4928 -454 
L 4928 0 
z
M 3008 454 
L 4928 454 
L 4928 1869 
L 3008 1869 
L 3008 454 
z
" transform="scale(0.015625)"/>
       <path id="STHeiti-603b" d="M 3411 3968 
Q 3885 4666 4102 5254 
Q 4454 5037 4794 4973 
Q 4877 4960 4877 4928 
Q 4877 4896 4806 4858 
Q 4595 4749 4451 4601 
Q 4307 4454 3962 3968 
Q 4838 3974 5120 4000 
Q 5088 3514 5088 3142 
Q 5088 2771 5120 2029 
Q 4960 2042 3155 2042 
Q 1350 2042 1210 2029 
Q 1242 2374 1242 3020 
Q 1242 3667 1210 4000 
Q 1734 3962 3411 3968 
z
M 1760 3584 
L 1760 2451 
L 4570 2451 
L 4570 3584 
L 1760 3584 
z
M 2701 4422 
L 2234 4038 
Q 1978 4397 1498 4838 
L 1882 5146 
Q 2355 4698 2701 4422 
z
M 3994 954 
L 3469 659 
Q 3264 1178 2925 1626 
L 3443 1850 
Q 3718 1363 3994 954 
z
M 6176 467 
L 5594 115 
Q 5357 640 4794 1325 
L 5286 1581 
Q 5664 1146 6176 467 
z
M 5056 435 
Q 4922 64 4832 -93 
Q 4742 -250 4620 -317 
Q 4499 -384 4176 -416 
Q 3853 -448 3152 -448 
Q 2451 -448 2198 -345 
Q 1946 -243 1946 160 
L 1946 845 
Q 1946 1274 1888 1517 
Q 2170 1459 2406 1459 
L 2554 1466 
Q 2624 1466 2624 1437 
Q 2624 1408 2550 1347 
Q 2477 1286 2477 1165 
L 2477 358 
Q 2477 179 2614 115 
Q 2752 51 3107 51 
Q 3462 51 3811 80 
Q 4160 109 4243 147 
Q 4326 186 4380 326 
Q 4435 467 4499 819 
Q 4762 493 5056 435 
z
M 1427 1389 
Q 1261 672 1101 -205 
L 448 -134 
Q 806 621 858 1434 
L 1427 1389 
z
" transform="scale(0.015625)"/>
       <path id="STHeiti-635f" d="M 1248 2221 
L 1248 3462 
Q 723 3450 454 3405 
L 454 3981 
Q 723 3936 1248 3923 
Q 1248 4845 1210 5133 
Q 1261 5114 1811 5114 
Q 1939 5114 1939 5072 
Q 1939 5030 1869 4992 
Q 1766 4941 1766 4614 
L 1766 3930 
Q 2176 3942 2438 3981 
L 2438 3405 
Q 2176 3443 1766 3456 
L 1766 2394 
Q 2042 2502 2253 2605 
Q 2240 2522 2240 2397 
Q 2240 2272 2310 2099 
L 1766 1926 
L 1766 6 
Q 1766 -218 1712 -310 
Q 1658 -403 1462 -464 
Q 1267 -525 755 -614 
Q 717 -326 538 26 
Q 710 19 880 19 
Q 1050 19 1149 60 
Q 1248 102 1248 269 
L 1248 1747 
Q 794 1574 538 1389 
Q 454 1715 294 1997 
Q 781 2074 1248 2221 
z
M 5530 3418 
Q 5274 3443 4256 3443 
Q 3238 3443 2989 3418 
Q 3008 3699 3008 4204 
Q 3008 4710 2989 4986 
Q 3238 4960 4256 4960 
Q 5274 4960 5530 4986 
Q 5510 4710 5510 4204 
Q 5510 3699 5530 3418 
z
M 5011 3878 
L 5011 4531 
L 3488 4531 
L 3488 3878 
L 5011 3878 
z
M 5773 858 
L 5229 858 
L 5229 2554 
L 3194 2554 
L 3194 826 
L 2669 826 
Q 2682 992 2682 1331 
L 2682 2541 
Q 2682 2944 2669 3046 
Q 3110 3002 4201 3002 
Q 5293 3002 5766 3046 
Q 5754 2816 5754 2554 
L 5754 1350 
Q 5754 1056 5773 858 
z
M 3949 2214 
Q 4230 2144 4467 2144 
L 4595 2150 
Q 4659 2150 4659 2115 
Q 4659 2080 4608 2038 
Q 4557 1997 4518 1846 
Q 4480 1696 4422 1222 
Q 4320 429 3827 19 
Q 3334 -390 2534 -614 
Q 2451 -358 2157 -115 
Q 2752 -19 3238 224 
Q 3725 467 3843 969 
Q 3962 1472 3962 1914 
Q 3962 2074 3949 2214 
z
M 6118 -198 
L 5734 -653 
Q 5171 -141 4384 282 
L 4653 691 
Q 5504 250 6118 -198 
z
" transform="scale(0.015625)"/>
       <path id="STHeiti-5931" d="M 3334 1747 
Q 3046 947 2521 432 
Q 1997 -83 998 -563 
Q 768 -179 461 6 
Q 1299 134 1984 704 
Q 2669 1274 2918 2048 
Q 1626 2042 678 1984 
L 678 2566 
Q 1485 2502 3014 2502 
Q 3072 2918 3085 3590 
L 1760 3590 
Q 1613 3270 1344 2816 
Q 1126 2957 800 2976 
Q 1459 3910 1594 4915 
Q 1965 4774 2259 4774 
Q 2317 4774 2317 4748 
Q 2317 4723 2266 4685 
Q 2106 4557 1933 4051 
L 3085 4051 
Q 3085 4851 3046 5248 
Q 3366 5203 3712 5203 
Q 3834 5203 3834 5174 
Q 3834 5146 3802 5114 
Q 3718 5043 3680 4828 
Q 3642 4614 3629 4051 
Q 4813 4051 5446 4109 
L 5446 3533 
Q 4717 3590 3616 3590 
Q 3603 3034 3546 2502 
Q 5114 2502 5920 2566 
L 5920 1984 
Q 4954 2042 3616 2048 
Q 3891 1325 4412 873 
Q 4934 422 6125 307 
Q 5805 96 5709 -416 
Q 4755 -115 4204 317 
Q 3654 749 3334 1747 
z
" transform="scale(0.015625)"/>
      </defs>
      <use xlink:href="#STHeiti-9884"/>
      <use xlink:href="#STHeiti-4f30" transform="translate(99.999985 0)"/>
      <use xlink:href="#STHeiti-603b" transform="translate(199.999969 0)"/>
      <use xlink:href="#STHeiti-635f" transform="translate(299.999954 0)"/>
      <use xlink:href="#STHeiti-5931" transform="translate(399.999939 0)"/>
     </g>
    </g>
   </g>
  </g>
 </g>
 <defs>
  <clipPath id="pea81c6c379">
   <rect x="97.449387" y="7.2" width="605.863206" height="175.790464"/>
  </clipPath>
 </defs>
</svg>
