<?xml version="1.0" encoding="utf-8" standalone="no"?>
<!DOCTYPE svg PUBLIC "-//W3C//DTD SVG 1.1//EN"
  "http://www.w3.org/Graphics/SVG/1.1/DTD/svg11.dtd">
<svg xmlns:xlink="http://www.w3.org/1999/xlink" width="712.72125pt" height="352.13575pt" viewBox="0 0 712.72125 352.13575" xmlns="http://www.w3.org/2000/svg" version="1.1">
 <metadata>
  <rdf:RDF xmlns:dc="http://purl.org/dc/elements/1.1/" xmlns:cc="http://creativecommons.org/ns#" xmlns:rdf="http://www.w3.org/1999/02/22-rdf-syntax-ns#">
   <cc:Work>
    <dc:type rdf:resource="http://purl.org/dc/dcmitype/StillImage"/>
    <dc:date>2026-06-05T17:18:04.602898</dc:date>
    <dc:format>image/svg+xml</dc:format>
    <dc:creator>
     <cc:Agent>
      <dc:title>Matplotlib v3.10.9, https://matplotlib.org/</dc:title>
     </cc:Agent>
    </dc:creator>
   </cc:Work>
  </rdf:RDF>
 </metadata>
 <defs>
  <style type="text/css">*{stroke-linejoin: round; stroke-linecap: butt}</style>
 </defs>
 <g id="figure_1">
  <g id="patch_1">
   <path d="M -0 352.13575 
L 712.72125 352.13575 
L 712.72125 0 
L -0 0 
z
" style="fill: #ffffff"/>
  </g>
  <g id="axes_1">
   <g id="patch_2">
    <path d="M 25.28125 318.800464 
L 705.52125 318.800464 
L 705.52125 7.2 
L 25.28125 7.2 
z
" style="fill: #fafafa"/>
   </g>
   <g id="matplotlib.axis_1">
    <g id="xtick_1">
     <g id="line2d_1">
      <path d="M 56.20125 318.800464 
L 56.20125 7.2 
" clip-path="url(#p987e055052)" style="fill: none; stroke: #b0b0b0; stroke-opacity: 0.3; stroke-width: 0.8; stroke-linecap: square"/>
     </g>
     <g id="line2d_2">
      <defs>
       <path id="m83f77bc922" d="M 0 0 
L 0 3.5 
" style="stroke: #000000; stroke-width: 0.8"/>
      </defs>
      <g>
       <use xlink:href="#m83f77bc922" x="56.20125" y="318.800464" style="stroke: #000000; stroke-width: 0.8"/>
      </g>
     </g>
     <g id="text_1">
      <!-- 2023 -->
      <g transform="translate(36.337649 343.774735) rotate(-30) scale(0.1 -0.1)">
       <defs>
        <path id="STHeiti-32" d="M 742 3539 
L 301 3539 
Q 333 4243 768 4668 
Q 1203 5094 1820 5094 
Q 2438 5094 2844 4694 
Q 3251 4294 3251 3718 
Q 3251 3290 3024 2925 
Q 2797 2560 2336 2061 
L 1190 826 
L 3315 826 
L 3315 384 
L 192 384 
L 1946 2278 
Q 2406 2778 2604 3066 
Q 2803 3354 2803 3725 
Q 2803 4096 2512 4377 
Q 2221 4659 1789 4659 
Q 1357 4659 1072 4368 
Q 787 4077 742 3539 
z
" transform="scale(0.015625)"/>
        <path id="STHeiti-30" d="M 1747 269 
Q 1005 269 605 880 
Q 205 1491 205 2681 
Q 205 3872 605 4483 
Q 1005 5094 1741 5094 
Q 2477 5094 2909 4470 
Q 3341 3846 3341 2681 
Q 3341 1517 2905 893 
Q 2470 269 1747 269 
z
M 1760 4659 
Q 1229 4659 934 4147 
Q 640 3635 640 2669 
Q 640 685 1760 685 
Q 2304 685 2608 1206 
Q 2912 1728 2912 2681 
Q 2912 3635 2598 4147 
Q 2285 4659 1760 4659 
z
" transform="scale(0.015625)"/>
        <path id="STHeiti-33" d="M 845 3917 
L 378 3917 
Q 506 4486 867 4790 
Q 1229 5094 1750 5094 
Q 2272 5094 2659 4748 
Q 3046 4403 3046 3910 
Q 3046 3315 2458 2970 
Q 2861 2803 3081 2473 
Q 3302 2144 3302 1754 
Q 3302 1146 2857 707 
Q 2413 269 1734 269 
Q 1133 269 742 611 
Q 352 954 224 1613 
L 672 1613 
Q 794 1158 1046 937 
Q 1299 717 1760 717 
Q 2221 717 2534 1011 
Q 2848 1306 2848 1741 
Q 2848 2176 2502 2441 
Q 2157 2707 1498 2720 
L 1498 3142 
Q 1971 3142 2268 3360 
Q 2566 3578 2566 3901 
Q 2566 4224 2326 4438 
Q 2086 4653 1747 4653 
Q 1408 4653 1200 4470 
Q 992 4288 845 3917 
z
" transform="scale(0.015625)"/>
       </defs>
       <use xlink:href="#STHeiti-32"/>
       <use xlink:href="#STHeiti-30" transform="translate(55.399994 0)"/>
       <use xlink:href="#STHeiti-32" transform="translate(110.799988 0)"/>
       <use xlink:href="#STHeiti-33" transform="translate(166.199982 0)"/>
      </g>
     </g>
    </g>
    <g id="xtick_2">
     <g id="line2d_3">
      <path d="M 365.40125 318.800464 
L 365.40125 7.2 
" clip-path="url(#p987e055052)" style="fill: none; stroke: #b0b0b0; stroke-opacity: 0.3; stroke-width: 0.8; stroke-linecap: square"/>
     </g>
     <g id="line2d_4">
      <g>
       <use xlink:href="#m83f77bc922" x="365.40125" y="318.800464" style="stroke: #000000; stroke-width: 0.8"/>
      </g>
     </g>
     <g id="text_2">
      <!-- 2024 -->
      <g transform="translate(345.537649 343.774735) rotate(-30) scale(0.1 -0.1)">
       <defs>
        <path id="STHeiti-34" d="M 2726 5094 
L 2816 5094 
L 2816 1894 
L 3373 1894 
L 3373 1453 
L 2816 1453 
L 2816 384 
L 2362 384 
L 2362 1453 
L 160 1453 
L 2726 5094 
z
M 2362 1894 
L 2362 3808 
L 1005 1894 
L 2362 1894 
z
" transform="scale(0.015625)"/>
       </defs>
       <use xlink:href="#STHeiti-32"/>
       <use xlink:href="#STHeiti-30" transform="translate(55.399994 0)"/>
       <use xlink:href="#STHeiti-32" transform="translate(110.799988 0)"/>
       <use xlink:href="#STHeiti-34" transform="translate(166.199982 0)"/>
      </g>
     </g>
    </g>
    <g id="xtick_3">
     <g id="line2d_5">
      <path d="M 674.60125 318.800464 
L 674.60125 7.2 
" clip-path="url(#p987e055052)" style="fill: none; stroke: #b0b0b0; stroke-opacity: 0.3; stroke-width: 0.8; stroke-linecap: square"/>
     </g>
     <g id="line2d_6">
      <g>
       <use xlink:href="#m83f77bc922" x="674.60125" y="318.800464" style="stroke: #000000; stroke-width: 0.8"/>
      </g>
     </g>
     <g id="text_3">
      <!-- 2025 -->
      <g transform="translate(654.737649 343.774735) rotate(-30) scale(0.1 -0.1)">
       <defs>
        <path id="STHeiti-35" d="M 3149 4979 
L 3149 4544 
L 1510 4544 
L 1280 3290 
Q 1587 3379 1856 3379 
Q 2458 3379 2861 2953 
Q 3264 2528 3264 1862 
Q 3264 1197 2825 733 
Q 2387 269 1664 269 
Q 1114 269 726 598 
Q 339 928 262 1498 
L 730 1498 
Q 813 1114 1075 909 
Q 1338 704 1683 704 
Q 2138 704 2467 1043 
Q 2797 1382 2797 1888 
Q 2797 2349 2509 2646 
Q 2221 2944 1757 2944 
Q 1293 2944 730 2701 
L 1158 4979 
L 3149 4979 
z
" transform="scale(0.015625)"/>
       </defs>
       <use xlink:href="#STHeiti-32"/>
       <use xlink:href="#STHeiti-30" transform="translate(55.399994 0)"/>
       <use xlink:href="#STHeiti-32" transform="translate(110.799988 0)"/>
       <use xlink:href="#STHeiti-35" transform="translate(166.199982 0)"/>
      </g>
     </g>
    </g>
   </g>
   <g id="matplotlib.axis_2">
    <g id="ytick_1">
     <g id="line2d_7">
      <path d="M 25.28125 264.978566 
L 705.52125 264.978566 
" clip-path="url(#p987e055052)" style="fill: none; stroke: #b0b0b0; stroke-opacity: 0.3; stroke-width: 0.8; stroke-linecap: square"/>
     </g>
     <g id="line2d_8">
      <defs>
       <path id="md9feee65a1" d="M 0 0 
L -3.5 0 
" style="stroke: #000000; stroke-width: 0.8"/>
      </defs>
      <g>
       <use xlink:href="#md9feee65a1" x="25.28125" y="264.978566" style="stroke: #000000; stroke-width: 0.8"/>
      </g>
     </g>
     <g id="text_4">
      <!-- 10 -->
      <g transform="translate(7.2 268.958253) scale(0.1 -0.1)">
       <defs>
        <path id="STHeiti-31" d="M 1184 4979 
L 2086 4979 
L 2086 384 
L 1632 384 
L 1632 4531 
L 909 4531 
L 1184 4979 
z
" transform="scale(0.015625)"/>
       </defs>
       <use xlink:href="#STHeiti-31"/>
       <use xlink:href="#STHeiti-30" transform="translate(55.399994 0)"/>
      </g>
     </g>
    </g>
    <g id="ytick_2">
     <g id="line2d_9">
      <path d="M 25.28125 208.323936 
L 705.52125 208.323936 
" clip-path="url(#p987e055052)" style="fill: none; stroke: #b0b0b0; stroke-opacity: 0.3; stroke-width: 0.8; stroke-linecap: square"/>
     </g>
     <g id="line2d_10">
      <g>
       <use xlink:href="#md9feee65a1" x="25.28125" y="208.323936" style="stroke: #000000; stroke-width: 0.8"/>
      </g>
     </g>
     <g id="text_5">
      <!-- 20 -->
      <g transform="translate(7.2 212.303623) scale(0.1 -0.1)">
       <use xlink:href="#STHeiti-32"/>
       <use xlink:href="#STHeiti-30" transform="translate(55.399994 0)"/>
      </g>
     </g>
    </g>
    <g id="ytick_3">
     <g id="line2d_11">
      <path d="M 25.28125 151.669306 
L 705.52125 151.669306 
" clip-path="url(#p987e055052)" style="fill: none; stroke: #b0b0b0; stroke-opacity: 0.3; stroke-width: 0.8; stroke-linecap: square"/>
     </g>
     <g id="line2d_12">
      <g>
       <use xlink:href="#md9feee65a1" x="25.28125" y="151.669306" style="stroke: #000000; stroke-width: 0.8"/>
      </g>
     </g>
     <g id="text_6">
      <!-- 30 -->
      <g transform="translate(7.2 155.648994) scale(0.1 -0.1)">
       <use xlink:href="#STHeiti-33"/>
       <use xlink:href="#STHeiti-30" transform="translate(55.399994 0)"/>
      </g>
     </g>
    </g>
    <g id="ytick_4">
     <g id="line2d_13">
      <path d="M 25.28125 95.014676 
L 705.52125 95.014676 
" clip-path="url(#p987e055052)" style="fill: none; stroke: #b0b0b0; stroke-opacity: 0.3; stroke-width: 0.8; stroke-linecap: square"/>
     </g>
     <g id="line2d_14">
      <g>
       <use xlink:href="#md9feee65a1" x="25.28125" y="95.014676" style="stroke: #000000; stroke-width: 0.8"/>
      </g>
     </g>
     <g id="text_7">
      <!-- 40 -->
      <g transform="translate(7.2 98.994364) scale(0.1 -0.1)">
       <use xlink:href="#STHeiti-34"/>
       <use xlink:href="#STHeiti-30" transform="translate(55.399994 0)"/>
      </g>
     </g>
    </g>
    <g id="ytick_5">
     <g id="line2d_15">
      <path d="M 25.28125 38.360046 
L 705.52125 38.360046 
" clip-path="url(#p987e055052)" style="fill: none; stroke: #b0b0b0; stroke-opacity: 0.3; stroke-width: 0.8; stroke-linecap: square"/>
     </g>
     <g id="line2d_16">
      <g>
       <use xlink:href="#md9feee65a1" x="25.28125" y="38.360046" style="stroke: #000000; stroke-width: 0.8"/>
      </g>
     </g>
     <g id="text_8">
      <!-- 50 -->
      <g transform="translate(7.2 42.339734) scale(0.1 -0.1)">
       <use xlink:href="#STHeiti-35"/>
       <use xlink:href="#STHeiti-30" transform="translate(55.399994 0)"/>
      </g>
     </g>
    </g>
   </g>
   <g id="line2d_17">
    <path d="M 56.20125 298.971343 
L 365.40125 304.636806 
L 674.60125 298.971343 
" clip-path="url(#p987e055052)" style="fill: none; stroke: #1a365d; stroke-width: 2; stroke-linecap: square"/>
    <defs>
     <path id="mfa1817febe" d="M 0 3 
C 0.795609 3 1.55874 2.683901 2.12132 2.12132 
C 2.683901 1.55874 3 0.795609 3 0 
C 3 -0.795609 2.683901 -1.55874 2.12132 -2.12132 
C 1.55874 -2.683901 0.795609 -3 0 -3 
C -0.795609 -3 -1.55874 -2.683901 -2.12132 -2.12132 
C -2.683901 -1.55874 -3 -0.795609 -3 0 
C -3 0.795609 -2.683901 1.55874 -2.12132 2.12132 
C -1.55874 2.683901 -0.795609 3 0 3 
z
" style="stroke: #1a365d"/>
    </defs>
    <g clip-path="url(#p987e055052)">
     <use xlink:href="#mfa1817febe" x="56.20125" y="298.971343" style="fill: #1a365d; stroke: #1a365d"/>
     <use xlink:href="#mfa1817febe" x="365.40125" y="304.636806" style="fill: #1a365d; stroke: #1a365d"/>
     <use xlink:href="#mfa1817febe" x="674.60125" y="298.971343" style="fill: #1a365d; stroke: #1a365d"/>
    </g>
   </g>
   <g id="line2d_18">
    <path d="M 56.20125 38.360046 
L 365.40125 270.474065 
L 674.60125 21.363657 
" clip-path="url(#p987e055052)" style="fill: none; stroke: #d69e2e; stroke-width: 2; stroke-linecap: square"/>
    <defs>
     <path id="m45abfd8585" d="M 0 3 
C 0.795609 3 1.55874 2.683901 2.12132 2.12132 
C 2.683901 1.55874 3 0.795609 3 0 
C 3 -0.795609 2.683901 -1.55874 2.12132 -2.12132 
C 1.55874 -2.683901 0.795609 -3 0 -3 
C -0.795609 -3 -1.55874 -2.683901 -2.12132 -2.12132 
C -2.683901 -1.55874 -3 -0.795609 -3 0 
C -3 0.795609 -2.683901 1.55874 -2.12132 2.12132 
C -1.55874 2.683901 -0.795609 3 0 3 
z
" style="stroke: #d69e2e"/>
    </defs>
    <g clip-path="url(#p987e055052)">
     <use xlink:href="#m45abfd8585" x="56.20125" y="38.360046" style="fill: #d69e2e; stroke: #d69e2e"/>
     <use xlink:href="#m45abfd8585" x="365.40125" y="270.474065" style="fill: #d69e2e; stroke: #d69e2e"/>
     <use xlink:href="#m45abfd8585" x="674.60125" y="21.363657" style="fill: #d69e2e; stroke: #d69e2e"/>
    </g>
   </g>
   <g id="patch_3">
    <path d="M 25.28125 318.800464 
L 25.28125 7.2 
" style="fill: none; stroke: #000000; stroke-width: 0.8; stroke-linejoin: miter; stroke-linecap: square"/>
   </g>
   <g id="patch_4">
    <path d="M 705.52125 318.800464 
L 705.52125 7.2 
" style="fill: none; stroke: #000000; stroke-width: 0.8; stroke-linejoin: miter; stroke-linecap: square"/>
   </g>
   <g id="patch_5">
    <path d="M 25.28125 318.800464 
L 705.52125 318.800464 
" style="fill: none; stroke: #000000; stroke-width: 0.8; stroke-linejoin: miter; stroke-linecap: square"/>
   </g>
   <g id="patch_6">
    <path d="M 25.28125 7.2 
L 705.52125 7.2 
" style="fill: none; stroke: #000000; stroke-width: 0.8; stroke-linejoin: miter; stroke-linecap: square"/>
   </g>
   <g id="legend_1">
    <g id="patch_7">
     <path d="M 616.42125 177.238513 
L 699.22125 177.238513 
Q 701.02125 177.238513 701.02125 175.438513 
L 701.02125 150.561951 
Q 701.02125 148.761951 699.22125 148.761951 
L 616.42125 148.761951 
Q 614.62125 148.761951 614.62125 150.561951 
L 614.62125 175.438513 
Q 614.62125 177.238513 616.42125 177.238513 
z
" style="fill: #ffffff; opacity: 0.8; stroke: #cccccc; stroke-linejoin: miter"/>
    </g>
    <g id="line2d_19">
     <path d="M 618.22125 156.375388 
L 627.22125 156.375388 
L 636.22125 156.375388 
" style="fill: none; stroke: #1a365d; stroke-width: 2; stroke-linecap: square"/>
     <g>
      <use xlink:href="#mfa1817febe" x="627.22125" y="156.375388" style="fill: #1a365d; stroke: #1a365d"/>
     </g>
    </g>
    <g id="text_9">
     <!-- 处罚次数 -->
     <g transform="translate(643.42125 159.525388) scale(0.09 -0.09)">
      <defs>
       <path id="STHeiti-5904" d="M 3770 5184 
Q 4077 5126 4410 5126 
Q 4493 5126 4493 5091 
Q 4493 5056 4416 5017 
Q 4339 4979 4339 4806 
L 4339 1363 
Q 4339 774 4397 378 
L 3782 378 
Q 3827 736 3827 1363 
L 3827 4390 
Q 3827 4966 3770 5184 
z
M 1728 4026 
L 2579 4026 
Q 3059 4026 3405 4038 
Q 3085 1926 2342 915 
Q 2701 525 3293 349 
Q 3885 173 4947 173 
Q 5446 173 6099 211 
Q 5946 19 5862 -454 
Q 4243 -474 3388 -240 
Q 2534 -6 2042 570 
Q 1491 0 832 -512 
Q 653 -256 269 -6 
Q 941 134 1766 941 
Q 1466 1421 1152 2598 
Q 966 2195 704 1786 
Q 480 1958 218 2086 
Q 659 2579 1004 3459 
Q 1350 4339 1466 5184 
Q 1926 4998 2032 4979 
Q 2138 4960 2138 4925 
Q 2138 4890 2080 4858 
Q 2022 4826 1955 4691 
Q 1888 4557 1846 4397 
Q 1805 4237 1728 4026 
z
M 2061 1306 
Q 2349 1760 2563 2390 
Q 2778 3021 2822 3571 
L 1568 3571 
Q 1395 3104 1203 2707 
L 1702 2739 
Q 1728 1958 2061 1306 
z
M 6061 2490 
L 5594 2150 
Q 5018 2854 4442 3405 
L 4826 3731 
Q 5357 3232 6061 2490 
z
" transform="scale(0.015625)"/>
       <path id="STHeiti-7f5a" d="M 5606 3110 
Q 4429 3162 3241 3162 
Q 2054 3162 890 3110 
Q 922 3507 922 3996 
Q 922 4486 890 4883 
Q 1856 4832 3245 4832 
Q 4634 4832 5606 4883 
Q 5574 4595 5574 4000 
Q 5574 3405 5606 3110 
z
M 5056 3565 
L 5056 4397 
L 4128 4397 
L 4128 3565 
L 5056 3565 
z
M 3686 3565 
L 3686 4397 
L 2746 4397 
L 2746 3565 
L 3686 3565 
z
M 2304 3565 
L 2304 4397 
L 1408 4397 
L 1408 3565 
L 2304 3565 
z
M 2227 2477 
L 1830 2099 
Q 1510 2426 1075 2733 
L 1414 3078 
Q 1830 2822 2227 2477 
z
M 4909 2970 
Q 5082 2950 5242 2957 
L 5504 2957 
Q 5587 2957 5587 2915 
Q 5587 2874 5532 2845 
Q 5478 2816 5478 2746 
L 5478 192 
Q 5478 -186 5411 -336 
Q 5344 -486 5120 -550 
Q 4896 -614 4314 -659 
Q 4288 -346 4102 -45 
Q 4467 -90 4649 -90 
Q 4832 -90 4886 -13 
Q 4941 64 4941 282 
L 4941 2387 
Q 4941 2790 4909 2970 
z
M 3418 2624 
Q 3642 2592 3974 2592 
Q 4070 2592 4070 2544 
Q 4070 2496 4012 2477 
Q 3955 2458 3955 2381 
L 3955 973 
Q 3955 678 3981 525 
L 3418 525 
Q 3443 755 3443 973 
L 3443 2227 
Q 3443 2502 3418 2624 
z
M 2963 358 
L 1978 -218 
Q 1498 -499 1325 -691 
Q 1190 -365 979 -83 
Q 1446 45 1446 531 
L 1446 1491 
L 864 1491 
Q 589 1491 390 1466 
L 390 2029 
Q 646 1997 1164 1997 
Q 1683 1997 2054 2029 
Q 1971 1734 1971 1248 
L 1971 352 
Q 2643 768 2912 1005 
Q 2906 922 2906 758 
Q 2906 595 2963 358 
z
" transform="scale(0.015625)"/>
       <path id="STHeiti-6b21" d="M 3008 3571 
Q 2733 3021 2426 2509 
Q 2208 2650 1901 2688 
Q 2797 3840 3008 5203 
Q 3424 5062 3699 5024 
Q 3814 5011 3814 4954 
Q 3814 4928 3763 4896 
Q 3610 4806 3533 4636 
Q 3456 4467 3232 4019 
L 4736 4019 
Q 5510 4019 5952 4070 
L 5395 2522 
L 4858 2618 
L 5210 3571 
L 3008 3571 
z
M 1888 3366 
L 1395 3040 
Q 966 3878 576 4384 
L 1005 4659 
Q 1523 4019 1888 3366 
z
M 3840 1600 
Q 3648 813 3193 278 
Q 2739 -256 1933 -646 
Q 1670 -352 1395 -205 
Q 1888 -58 2262 185 
Q 2637 429 2896 742 
Q 3155 1056 3299 1421 
Q 3443 1786 3465 2013 
Q 3488 2240 3488 2496 
Q 3488 2752 3469 3117 
Q 3802 3066 4003 3066 
Q 4205 3066 4205 3008 
Q 4205 2976 4160 2931 
Q 4077 2848 4006 2496 
Q 4019 1555 4537 963 
Q 5056 371 6150 45 
Q 5882 -243 5754 -570 
Q 4787 -83 4380 397 
Q 3974 877 3840 1600 
z
M 2003 1882 
Q 1485 998 934 -179 
Q 659 154 403 339 
Q 1050 1120 1549 2323 
Q 1734 2054 2003 1882 
z
" transform="scale(0.015625)"/>
       <path id="STHeiti-6570" d="M 4640 480 
Q 4173 -51 3194 -467 
Q 3059 -237 2803 -26 
Q 3238 70 3673 323 
Q 4109 576 4365 890 
Q 3994 1549 3962 2835 
Q 3744 2458 3520 2176 
Q 3366 2419 3206 2522 
Q 3584 3040 3837 3747 
Q 4090 4454 4147 5171 
Q 4486 5062 4800 5037 
Q 4877 5030 4877 4988 
Q 4877 4947 4781 4896 
Q 4704 4858 4480 4128 
L 5216 4128 
Q 5747 4128 6003 4179 
L 6003 3661 
Q 5850 3680 5562 3699 
Q 5440 1773 4934 896 
Q 5254 518 6112 250 
Q 5856 6 5754 -365 
Q 4902 141 4640 480 
z
M 4627 1363 
Q 5018 2253 5088 3706 
L 4352 3706 
Q 4237 3328 3981 2874 
L 4384 2886 
Q 4384 1907 4627 1363 
z
M 1549 3526 
Q 1222 3520 589 3488 
L 589 3942 
Q 1158 3898 1850 3898 
L 1850 4499 
Q 1850 4800 1786 5165 
Q 2042 5139 2362 5139 
Q 2458 5139 2458 5094 
Q 2458 5050 2406 5030 
Q 2355 5011 2336 4976 
Q 2317 4941 2317 4845 
L 2317 3898 
Q 2758 3904 3507 3942 
L 3507 3488 
Q 2810 3526 2317 3533 
Q 2317 2970 2362 2515 
L 1805 2515 
Q 1850 3034 1850 3456 
Q 1632 3014 1401 2745 
Q 1171 2477 755 2189 
Q 608 2406 282 2573 
Q 1030 2816 1549 3526 
z
M 2861 4922 
Q 3155 4826 3386 4794 
Q 3462 4781 3462 4755 
Q 3462 4730 3388 4701 
Q 3315 4672 3228 4521 
Q 3142 4371 3014 4122 
Q 2835 4166 2560 4186 
Q 2746 4461 2861 4922 
z
M 1510 4230 
L 973 4154 
Q 966 4461 883 4806 
L 1389 4870 
Q 1459 4595 1510 4230 
z
M 3360 2790 
L 3046 2477 
Q 2765 2816 2464 3078 
L 2790 3328 
Q 3034 3117 3360 2790 
z
M 2899 755 
Q 3168 666 3450 525 
Q 3251 314 3168 128 
Q 2886 288 2637 390 
Q 2394 128 1984 -51 
Q 1574 -230 781 -410 
Q 627 -115 346 109 
Q 1619 134 2157 557 
Q 1709 691 1030 781 
Q 1248 1165 1408 1555 
Q 800 1549 531 1504 
L 531 1965 
Q 858 1939 1536 1926 
Q 1600 2118 1696 2458 
Q 1946 2355 2214 2336 
Q 2342 2323 2342 2294 
Q 2342 2266 2243 2198 
Q 2144 2131 2035 1926 
L 2899 1926 
Q 3162 1926 3341 1971 
Q 3123 1158 2899 755 
z
M 1862 1555 
L 1626 1043 
Q 2118 966 2470 883 
Q 2662 1165 2726 1555 
L 1862 1555 
z
" transform="scale(0.015625)"/>
      </defs>
      <use xlink:href="#STHeiti-5904"/>
      <use xlink:href="#STHeiti-7f5a" transform="translate(99.999985 0)"/>
      <use xlink:href="#STHeiti-6b21" transform="translate(199.999969 0)"/>
      <use xlink:href="#STHeiti-6570" transform="translate(299.999954 0)"/>
     </g>
    </g>
    <g id="line2d_20">
     <path d="M 618.22125 169.281951 
L 627.22125 169.281951 
L 636.22125 169.281951 
" style="fill: none; stroke: #d69e2e; stroke-width: 2; stroke-linecap: square"/>
     <g>
      <use xlink:href="#m45abfd8585" x="627.22125" y="169.281951" style="fill: #d69e2e; stroke: #d69e2e"/>
     </g>
    </g>
    <g id="text_10">
     <!-- 最大单笔罚款 -->
     <g transform="translate(643.42125 172.431951) scale(0.09 -0.09)">
      <defs>
       <path id="STHeiti-6700" d="M 5190 3117 
Q 4710 3162 3219 3162 
Q 1728 3162 1254 3117 
Q 1299 3232 1299 3520 
L 1299 4570 
Q 1299 4877 1254 4986 
Q 1779 4947 3225 4947 
Q 4672 4947 5190 4986 
Q 5152 4877 5152 4570 
L 5152 3520 
Q 5152 3219 5190 3117 
z
M 4634 4205 
L 4634 4563 
L 1792 4563 
L 1792 4205 
L 4634 4205 
z
M 4634 3514 
L 4634 3853 
L 1792 3853 
L 1792 3514 
L 4634 3514 
z
M 1056 2406 
Q 838 2400 403 2362 
L 403 2880 
Q 960 2816 3161 2816 
Q 5363 2816 5907 2880 
L 5907 2362 
Q 5568 2413 3040 2413 
L 3040 570 
L 3398 634 
Q 3373 390 3379 205 
L 3040 179 
Q 3053 -358 3085 -666 
L 2554 -666 
Q 2592 -224 2592 128 
Q 1894 38 634 -211 
Q 602 38 506 320 
Q 730 326 1056 346 
L 1056 2406 
z
M 2598 2413 
L 1498 2413 
L 1498 2003 
L 2598 2003 
L 2598 2413 
z
M 2598 1216 
L 2598 1664 
L 1498 1664 
L 1498 1216 
L 2598 1216 
z
M 2598 506 
L 2598 890 
L 1498 890 
L 1498 390 
L 2598 506 
z
M 4723 307 
Q 5216 19 5894 0 
Q 5709 -288 5645 -589 
Q 4858 -352 4416 -26 
Q 4109 -314 3616 -653 
Q 3456 -429 3187 -282 
Q 3718 -45 4077 269 
Q 3731 646 3462 1235 
L 3853 1363 
Q 4058 883 4371 576 
Q 4723 1011 4870 1613 
Q 3674 1613 3360 1574 
L 3360 2048 
Q 3725 2003 4425 2003 
Q 5126 2003 5478 2048 
Q 5216 883 4723 307 
z
" transform="scale(0.015625)"/>
       <path id="STHeiti-5927" d="M 3264 2304 
Q 3078 1402 2560 739 
Q 2042 77 909 -486 
Q 723 -192 365 6 
Q 1370 275 2051 963 
Q 2733 1651 2829 3027 
Q 1427 3021 621 2970 
L 621 3584 
Q 1389 3533 2854 3520 
Q 2880 4051 2880 4454 
Q 2880 4858 2848 5158 
Q 3117 5120 3296 5120 
Q 3661 5120 3661 5094 
Q 3661 5069 3603 5024 
Q 3501 4947 3488 4659 
L 3411 3520 
Q 4973 3520 5773 3584 
L 5773 2970 
Q 4915 3027 3379 3027 
Q 3629 1946 4333 1171 
Q 5037 397 5997 237 
Q 5645 -6 5459 -448 
Q 4787 -115 4179 521 
Q 3571 1158 3264 2304 
z
" transform="scale(0.015625)"/>
       <path id="STHeiti-5355" d="M 3456 954 
Q 5050 954 5971 1011 
L 5971 461 
Q 5050 518 3456 518 
Q 3456 -173 3501 -704 
L 2893 -704 
Q 2938 -275 2938 518 
Q 1344 518 429 461 
L 429 1011 
Q 1344 954 2938 954 
L 2938 1466 
Q 1741 1472 1094 1453 
Q 1120 1664 1120 1971 
L 1120 3462 
Q 1120 3872 1101 4013 
Q 1933 3981 3565 3981 
Q 4051 4909 4122 5254 
Q 4518 5062 4800 5018 
Q 4890 5005 4890 4944 
Q 4890 4883 4819 4864 
Q 4646 4826 4051 3981 
Q 4800 3981 5299 4013 
Q 5286 3872 5286 3475 
L 5286 1997 
Q 5286 1677 5306 1446 
Q 4742 1472 3456 1466 
L 3456 954 
z
M 2938 2925 
L 2938 3571 
L 1651 3571 
L 1651 2925 
L 2938 2925 
z
M 3456 3571 
L 3456 2925 
L 4787 2925 
L 4787 3571 
L 3456 3571 
z
M 3456 2534 
L 3456 1875 
L 4787 1875 
L 4787 2534 
L 3456 2534 
z
M 2938 1875 
L 2938 2534 
L 1651 2534 
L 1651 1875 
L 2938 1875 
z
M 2880 4448 
L 2387 4077 
Q 2054 4570 1734 4890 
L 2150 5197 
Q 2509 4774 2880 4448 
z
" transform="scale(0.015625)"/>
       <path id="STHeiti-7b14" d="M 1530 4154 
Q 1178 3635 941 3424 
Q 774 3578 544 3667 
Q 1325 4365 1606 5274 
Q 1965 5107 2253 5069 
Q 2317 5062 2317 5017 
Q 2317 4973 2240 4941 
Q 2035 4851 1786 4531 
L 2368 4531 
Q 3002 4531 3270 4563 
L 3270 4122 
Q 3014 4154 2426 4154 
Q 2560 3680 2675 3437 
L 2150 3341 
Q 2112 3622 1952 4154 
L 1530 4154 
z
M 4154 4166 
Q 3898 3738 3654 3347 
Q 3450 3507 3181 3552 
Q 3443 3789 3728 4307 
Q 4013 4826 4122 5274 
Q 4518 5152 4787 5114 
Q 4858 5101 4858 5075 
Q 4858 5050 4794 5018 
Q 4621 4928 4378 4544 
L 5120 4544 
Q 5715 4544 5971 4576 
L 5971 4134 
Q 5715 4166 5018 4166 
Q 5139 3757 5229 3533 
L 4691 3450 
Q 4666 3699 4550 4166 
L 4154 4166 
z
M 3168 2675 
L 3168 2144 
Q 4410 2202 5267 2266 
L 5293 1798 
Q 5018 1811 4531 1811 
Q 4045 1811 3168 1779 
L 3168 1178 
Q 4717 1222 5683 1325 
L 5709 832 
Q 4826 851 3168 794 
L 3168 320 
Q 3168 134 3213 67 
Q 3258 0 3427 -19 
Q 3597 -38 4109 -38 
Q 4621 -38 4857 3 
Q 5094 45 5203 179 
Q 5312 314 5402 646 
Q 5600 422 5907 288 
Q 5766 -77 5619 -224 
Q 5472 -371 5149 -419 
Q 4826 -467 4070 -467 
Q 3315 -467 3046 -435 
Q 2778 -403 2710 -288 
Q 2643 -173 2643 154 
L 2643 774 
Q 1408 723 467 634 
L 442 1126 
Q 1114 1107 2643 1152 
L 2643 1760 
Q 1555 1722 762 1645 
L 736 2106 
Q 973 2099 1305 2099 
Q 1638 2099 2643 2125 
L 2643 2637 
Q 1722 2579 1030 2554 
Q 966 2778 826 3027 
Q 1120 3008 1542 3008 
Q 3635 3008 4947 3347 
Q 5075 3078 5267 2906 
Q 5312 2861 5312 2829 
Q 5312 2771 5241 2780 
Q 5171 2790 5082 2790 
Q 4787 2790 3168 2675 
z
" transform="scale(0.015625)"/>
       <path id="STHeiti-6b3e" d="M 1824 4147 
Q 1037 4147 550 4102 
L 550 4589 
Q 1050 4544 1824 4544 
Q 1824 5005 1798 5248 
Q 2074 5210 2387 5210 
Q 2470 5210 2470 5181 
Q 2470 5152 2413 5107 
Q 2317 5037 2317 4819 
L 2317 4544 
Q 3002 4550 3546 4589 
L 3546 4102 
Q 3002 4141 2317 4147 
L 2317 3590 
Q 2893 3597 3309 3635 
L 3309 3155 
Q 2861 3200 1971 3200 
Q 1082 3200 736 3155 
L 736 3635 
Q 1248 3590 1824 3590 
L 1824 4147 
z
M 4365 4141 
L 5357 4141 
Q 5786 4141 6080 4192 
L 5766 2899 
L 5235 2957 
L 5421 3674 
L 4224 3674 
Q 4077 3232 3885 2739 
Q 3661 2848 3354 2925 
Q 3936 3942 4000 5178 
Q 4435 5082 4698 5082 
Q 4781 5082 4781 5030 
Q 4781 4979 4707 4928 
Q 4634 4877 4566 4729 
Q 4499 4582 4365 4141 
z
M 4339 3168 
Q 4627 3123 4832 3123 
L 4992 3136 
Q 5043 3136 5043 3097 
Q 5043 3059 5004 3020 
Q 4966 2982 4940 2921 
Q 4915 2861 4873 2675 
Q 4832 2490 4832 2426 
Q 4832 1440 5165 880 
Q 5498 320 6170 0 
Q 5875 -339 5741 -595 
Q 5261 -237 5005 220 
Q 4749 678 4653 1350 
Q 4512 710 4221 272 
Q 3930 -166 3328 -640 
Q 3142 -448 2848 -301 
Q 3456 83 3763 470 
Q 4070 858 4208 1533 
Q 4346 2208 4346 2925 
Q 4346 3059 4339 3168 
z
M 3270 2291 
Q 2816 2336 1965 2336 
Q 1114 2336 762 2291 
L 762 2803 
Q 1210 2758 2013 2758 
Q 2816 2758 3270 2803 
L 3270 2291 
z
M 2362 1427 
L 2362 -38 
Q 2362 -262 2294 -380 
Q 2227 -499 2038 -560 
Q 1850 -621 1466 -646 
Q 1440 -384 1235 -70 
Q 1446 -102 1584 -102 
Q 1722 -102 1792 -51 
Q 1862 0 1862 134 
L 1862 1427 
Q 915 1427 525 1382 
L 525 1888 
Q 1062 1843 2003 1843 
Q 2944 1843 3475 1888 
L 3475 1382 
Q 2950 1421 2362 1427 
z
M 3494 506 
L 3021 205 
Q 2874 621 2624 966 
L 3072 1190 
Q 3302 736 3494 506 
z
M 992 1146 
Q 1280 1024 1414 989 
Q 1549 954 1549 915 
Q 1549 877 1469 822 
Q 1389 768 1328 678 
Q 1267 589 870 -115 
Q 659 6 403 51 
Q 915 730 992 1146 
z
" transform="scale(0.015625)"/>
      </defs>
      <use xlink:href="#STHeiti-6700"/>
      <use xlink:href="#STHeiti-5927" transform="translate(99.999985 0)"/>
      <use xlink:href="#STHeiti-5355" transform="translate(199.999969 0)"/>
      <use xlink:href="#STHeiti-7b14" transform="translate(299.999954 0)"/>
      <use xlink:href="#STHeiti-7f5a" transform="translate(399.999939 0)"/>
      <use xlink:href="#STHeiti-6b3e" transform="translate(499.999924 0)"/>
     </g>
    </g>
   </g>
  </g>
 </g>
 <defs>
  <clipPath id="p987e055052">
   <rect x="25.28125" y="7.2" width="680.24" height="311.600464"/>
  </clipPath>
 </defs>
</svg>
