<?xml version="1.0" encoding="utf-8" standalone="no"?>
<!DOCTYPE svg PUBLIC "-//W3C//DTD SVG 1.1//EN"
  "http://www.w3.org/Graphics/SVG/1.1/DTD/svg11.dtd">
<svg xmlns:xlink="http://www.w3.org/1999/xlink" width="710.735701pt" height="352.378231pt" viewBox="0 0 710.735701 352.378231" xmlns="http://www.w3.org/2000/svg" version="1.1">
 <metadata>
  <rdf:RDF xmlns:dc="http://purl.org/dc/elements/1.1/" xmlns:cc="http://creativecommons.org/ns#" xmlns:rdf="http://www.w3.org/1999/02/22-rdf-syntax-ns#">
   <cc:Work>
    <dc:type rdf:resource="http://purl.org/dc/dcmitype/StillImage"/>
    <dc:date>2026-06-05T07:58:13.077173</dc:date>
    <dc:format>image/svg+xml</dc:format>
    <dc:creator>
     <cc:Agent>
      <dc:title>Matplotlib v3.10.9, https://matplotlib.org/</dc:title>
     </cc:Agent>
    </dc:creator>
   </cc:Work>
  </rdf:RDF>
 </metadata>
 <defs>
  <style type="text/css">*{stroke-linejoin: round; stroke-linecap: butt}</style>
 </defs>
 <g id="figure_1">
  <g id="patch_1">
   <path d="M 0 352.378231 
L 710.735701 352.378231 
L 710.735701 0 
L 0 0 
z
" style="fill: #ffffff"/>
  </g>
  <g id="axes_1">
   <g id="patch_2">
    <path d="M 93.358498 256.205464 
L 703.535701 256.205464 
L 703.535701 7.2 
L 93.358498 7.2 
z
" style="fill: #fafafa"/>
   </g>
   <g id="matplotlib.axis_1">
    <g id="xtick_1">
     <g id="line2d_1">
      <path d="M 115.413096 256.205464 
L 115.413096 7.2 
" clip-path="url(#p0025726766)" style="fill: none; stroke: #b0b0b0; stroke-opacity: 0.3; stroke-width: 0.8; stroke-linecap: square"/>
     </g>
     <g id="line2d_2">
      <defs>
       <path id="m929d8fcc46" d="M 0 0 
L 0 3.5 
" style="stroke: #000000; stroke-width: 0.8"/>
      </defs>
      <g>
       <use xlink:href="#m929d8fcc46" x="115.413096" y="256.205464" style="stroke: #000000; stroke-width: 0.8"/>
      </g>
     </g>
     <g id="text_1">
      <!-- ATL新能安切入OEM供应链 -->
      <g transform="translate(11.235156 329.954716) rotate(-30) scale(0.1 -0.1)">
       <defs>
        <path id="STHeiti-41" d="M 2438 5165 
L 4582 384 
L 4090 384 
L 3366 1952 
L 1382 1952 
L 666 384 
L 154 384 
L 2323 5165 
L 2438 5165 
z
M 2381 4147 
L 1594 2419 
L 3162 2419 
L 2381 4147 
z
" transform="scale(0.015625)"/>
        <path id="STHeiti-54" d="M 102 4531 
L 102 4979 
L 2624 4979 
L 2624 4531 
L 1600 4531 
L 1600 384 
L 1133 384 
L 1133 4531 
L 102 4531 
z
" transform="scale(0.015625)"/>
        <path id="STHeiti-4c" d="M 557 4979 
L 1024 4979 
L 1024 826 
L 2790 826 
L 2790 384 
L 557 384 
L 557 4979 
z
" transform="scale(0.015625)"/>
        <path id="STHeiti-65b0" d="M 1888 4506 
Q 1792 4832 1696 5062 
L 2272 5178 
Q 2368 4762 2432 4506 
Q 3027 4525 3373 4570 
L 3373 4026 
Q 2880 4096 2025 4096 
Q 1171 4096 666 4026 
L 666 4570 
Q 1082 4512 1888 4506 
z
M 4269 3072 
L 5101 3072 
Q 5760 3072 6048 3149 
L 6048 2547 
Q 5760 2618 5370 2630 
L 5370 371 
Q 5370 -205 5421 -646 
L 4800 -646 
Q 4851 -186 4851 371 
L 4851 2630 
L 4269 2630 
Q 4256 1491 4080 755 
Q 3904 19 3501 -582 
Q 3322 -422 2918 -320 
Q 3462 218 3622 1123 
Q 3782 2029 3782 3379 
Q 3782 4128 3731 4678 
Q 4115 4659 4652 4761 
Q 5190 4864 5638 5043 
Q 5702 4902 5801 4748 
Q 5901 4595 5971 4531 
Q 6042 4467 6042 4435 
Q 6042 4403 5997 4403 
Q 5952 4403 5891 4416 
Q 5830 4429 5760 4429 
Q 5645 4429 5072 4358 
Q 4499 4288 4269 4282 
L 4269 3072 
z
M 1779 3309 
L 1267 3123 
Q 1171 3539 998 3763 
L 1478 3949 
Q 1587 3661 1779 3309 
z
M 2522 3053 
Q 3021 3059 3424 3104 
L 3424 2592 
Q 3008 2650 2266 2656 
L 2266 2016 
Q 2874 2022 3341 2074 
L 3341 1542 
Q 2982 1600 2266 1600 
L 2266 154 
Q 2266 -96 2211 -211 
Q 2157 -326 1974 -393 
Q 1792 -461 1363 -531 
Q 1350 -198 1139 77 
Q 1402 32 1539 32 
Q 1677 32 1734 128 
Q 1792 224 1792 570 
L 1792 1606 
Q 1024 1600 563 1542 
L 563 2074 
Q 1030 2016 1792 2016 
L 1792 2656 
Q 896 2650 448 2592 
L 448 3104 
Q 1018 3040 2138 3046 
Q 2406 3565 2534 3942 
Q 2784 3776 3034 3712 
Q 3091 3699 3091 3667 
Q 3091 3635 3017 3603 
Q 2944 3571 2522 3053 
z
M 1062 1408 
Q 1408 1248 1507 1225 
Q 1606 1203 1606 1180 
Q 1606 1158 1520 1107 
Q 1434 1056 1206 707 
Q 979 358 774 -19 
Q 563 154 256 186 
Q 845 749 1062 1408 
z
M 3354 582 
L 2912 262 
Q 2701 762 2381 1088 
L 2758 1344 
Q 2970 1088 3354 582 
z
" transform="scale(0.015625)"/>
        <path id="STHeiti-80fd" d="M 2842 3334 
L 1363 3206 
Q 922 3162 736 3078 
Q 685 3347 589 3622 
Q 749 3693 841 3760 
Q 934 3827 1100 4044 
Q 1267 4262 1436 4556 
Q 1606 4851 1709 5101 
Q 2035 4922 2198 4893 
Q 2362 4864 2362 4825 
Q 2362 4787 2237 4704 
Q 2112 4621 1901 4358 
L 1274 3622 
L 2662 3648 
Q 2464 4000 2278 4237 
L 2669 4442 
Q 3136 3827 3443 3315 
L 2982 3046 
Q 2950 3130 2842 3334 
z
M 4179 3994 
Q 4902 4288 5363 4666 
Q 5562 4371 5760 4237 
Q 5811 4205 5811 4173 
Q 5811 4141 5782 4131 
Q 5754 4122 5670 4122 
Q 5459 4122 4179 3610 
L 4179 3264 
Q 4179 3174 4220 3123 
Q 4262 3072 4406 3043 
Q 4550 3014 4816 3014 
Q 5082 3014 5190 3056 
Q 5299 3098 5356 3222 
Q 5414 3347 5459 3635 
Q 5632 3386 5965 3302 
Q 5850 2957 5747 2819 
Q 5645 2682 5465 2646 
Q 5286 2611 4784 2611 
Q 4282 2611 4064 2646 
Q 3846 2682 3782 2797 
Q 3718 2912 3718 3219 
L 3718 4339 
Q 3718 4787 3674 5043 
Q 3891 5005 4262 5005 
Q 4365 5005 4365 4966 
Q 4365 4928 4272 4857 
Q 4179 4787 4179 4666 
L 4179 3994 
z
M 1350 640 
L 1350 -474 
L 806 -474 
Q 858 38 858 531 
L 858 2240 
Q 858 2598 813 2829 
Q 1216 2778 1977 2778 
Q 2739 2778 3110 2829 
Q 3066 2598 3066 2240 
L 3066 19 
Q 3066 -179 3002 -278 
Q 2938 -378 2758 -432 
Q 2579 -486 2202 -518 
Q 2182 -224 1997 45 
Q 2208 6 2330 6 
Q 2573 6 2573 198 
L 2573 640 
L 1350 640 
z
M 1350 1875 
L 2573 1875 
L 2573 2374 
L 1350 2374 
L 1350 1875 
z
M 2573 1517 
L 1350 1517 
L 1350 1011 
L 2573 1011 
L 2573 1517 
z
M 4122 1312 
Q 4890 1632 5344 1984 
Q 5504 1741 5709 1555 
Q 5747 1523 5747 1491 
Q 5747 1459 5728 1452 
Q 5709 1446 5651 1446 
Q 5459 1446 4122 902 
L 4122 256 
Q 4122 166 4160 124 
Q 4198 83 4336 64 
Q 4474 45 4826 45 
Q 5178 45 5293 237 
Q 5408 429 5434 762 
Q 5638 467 5965 397 
Q 5850 0 5750 -153 
Q 5651 -307 5456 -355 
Q 5261 -403 4742 -403 
Q 4224 -403 4006 -368 
Q 3789 -333 3725 -214 
Q 3661 -96 3661 211 
L 3661 1664 
Q 3661 2086 3610 2368 
Q 3827 2330 4205 2330 
Q 4307 2330 4307 2291 
Q 4307 2253 4214 2182 
Q 4122 2112 4122 1990 
L 4122 1312 
z
" transform="scale(0.015625)"/>
        <path id="STHeiti-5b89" d="M 3066 4326 
Q 2950 4794 2758 5139 
Q 3104 5203 3328 5293 
Q 3488 4832 3578 4326 
Q 5018 4326 5709 4390 
L 5709 3219 
L 5165 3219 
L 5165 3910 
L 1286 3910 
L 1286 3232 
L 755 3232 
L 755 4390 
Q 1325 4326 3066 4326 
z
M 2003 2067 
Q 922 2048 474 2003 
L 474 2522 
Q 851 2458 2202 2458 
Q 2522 3117 2637 3635 
Q 2970 3456 3200 3386 
Q 3277 3360 3277 3315 
Q 3277 3270 3232 3226 
Q 3110 3104 2726 2458 
L 4154 2458 
Q 5651 2458 5965 2522 
L 5965 2003 
Q 5581 2067 4691 2067 
Q 4429 1267 4000 762 
Q 4890 410 5798 -90 
Q 5555 -250 5350 -614 
Q 4646 -58 3590 390 
Q 2688 -294 883 -614 
Q 755 -307 563 -26 
Q 2106 58 3053 614 
Q 2054 1037 1414 1171 
Q 1702 1523 2003 2067 
z
M 4122 2067 
L 2502 2067 
L 2157 1414 
Q 2637 1280 3501 954 
Q 3910 1363 4122 2067 
z
" transform="scale(0.015625)"/>
        <path id="STHeiti-5207" d="M 1139 2867 
Q 653 2810 422 2752 
L 371 3341 
Q 602 3322 1139 3360 
L 1139 3898 
Q 1139 4557 1114 4787 
Q 1312 4749 1469 4745 
Q 1626 4742 1734 4742 
Q 1843 4742 1843 4707 
Q 1843 4672 1792 4627 
Q 1664 4531 1664 4416 
L 1664 3405 
Q 2195 3462 2560 3533 
L 2611 2944 
Q 2342 2950 1664 2906 
L 1664 1018 
Q 2272 1523 2528 1818 
Q 2592 1478 2752 1299 
L 1779 454 
Q 1574 275 1376 19 
Q 1171 282 934 499 
Q 1075 627 1107 726 
Q 1139 826 1139 1146 
L 1139 2867 
z
M 3642 4141 
Q 3085 4141 2682 4102 
L 2682 4672 
Q 3219 4634 4281 4634 
Q 5344 4634 5811 4672 
L 5581 525 
Q 5562 147 5475 -41 
Q 5389 -230 5139 -336 
Q 4890 -442 4358 -512 
Q 4314 -211 4077 160 
Q 4262 154 4457 154 
Q 4653 154 4781 198 
Q 4909 243 4960 358 
Q 5011 474 5024 717 
L 5235 4141 
L 4205 4141 
Q 4192 2022 3843 1136 
Q 3494 250 2451 -589 
Q 2253 -416 1843 -282 
Q 2899 422 3270 1152 
Q 3642 1882 3642 4141 
z
" transform="scale(0.015625)"/>
        <path id="STHeiti-5165" d="M 2893 3898 
Q 2470 4429 1984 4698 
L 2426 5133 
Q 3078 4608 3385 4150 
Q 3693 3693 3936 2938 
Q 4326 1722 4784 1210 
Q 5242 698 6074 326 
Q 5741 58 5549 -314 
Q 4768 218 4355 794 
Q 3942 1370 3571 2605 
Q 3456 2982 3264 3341 
Q 2938 2029 2317 1126 
Q 1696 224 986 -307 
Q 742 -26 422 102 
Q 1466 736 2086 1808 
Q 2707 2880 2893 3898 
z
" transform="scale(0.015625)"/>
        <path id="STHeiti-4f" d="M 358 2662 
Q 358 3328 678 3891 
Q 998 4454 1555 4774 
Q 2112 5094 2768 5094 
Q 3424 5094 3990 4777 
Q 4557 4461 4880 3901 
Q 5203 3341 5203 2685 
Q 5203 2029 4883 1469 
Q 4563 909 4003 589 
Q 3443 269 2787 269 
Q 2131 269 1568 585 
Q 1005 902 681 1459 
Q 358 2016 358 2662 
z
M 4723 2682 
Q 4723 3507 4150 4076 
Q 3578 4646 2771 4646 
Q 1946 4646 1392 4073 
Q 838 3501 838 2678 
Q 838 1856 1408 1286 
Q 1978 717 2784 717 
Q 3590 717 4156 1273 
Q 4723 1830 4723 2682 
z
" transform="scale(0.015625)"/>
        <path id="STHeiti-45" d="M 563 4979 
L 3200 4979 
L 3200 4525 
L 1024 4525 
L 1024 3091 
L 3181 3091 
L 3181 2643 
L 1024 2643 
L 1024 838 
L 3181 838 
L 3181 384 
L 563 384 
L 563 4979 
z
" transform="scale(0.015625)"/>
        <path id="STHeiti-4d" d="M 352 384 
L 1005 4979 
L 1075 4979 
L 2944 1210 
L 4800 4979 
L 4870 4979 
L 5530 384 
L 5075 384 
L 4627 3674 
L 3002 384 
L 2886 384 
L 1242 3699 
L 794 384 
L 352 384 
z
" transform="scale(0.015625)"/>
        <path id="STHeiti-4f9b" d="M 1165 2867 
Q 954 2451 602 1958 
Q 480 2163 192 2355 
Q 685 2931 1027 3603 
Q 1370 4275 1536 5248 
Q 1875 5082 2176 5024 
Q 2278 5005 2278 4966 
Q 2278 4928 2201 4851 
Q 2125 4774 1977 4521 
Q 1830 4269 1670 3949 
L 1670 -608 
L 1094 -608 
Q 1165 90 1165 768 
L 1165 2867 
z
M 3091 1869 
L 3091 3302 
Q 2707 3296 2253 3251 
L 2253 3814 
Q 2675 3776 3091 3757 
L 3091 4211 
Q 3091 5069 3066 5210 
Q 3264 5171 3648 5171 
Q 3738 5171 3738 5139 
Q 3738 5107 3661 5062 
Q 3584 5018 3584 4698 
L 3584 3757 
L 4499 3757 
L 4499 4218 
Q 4499 5050 4474 5216 
Q 4691 5178 5050 5178 
Q 5139 5178 5139 5146 
Q 5139 5114 5062 5069 
Q 4986 5024 4986 4704 
L 4986 3757 
Q 5414 3763 5926 3814 
L 5926 3251 
Q 5427 3302 4986 3309 
L 4986 1869 
Q 5651 1869 6138 1926 
L 6138 1344 
Q 5466 1408 4118 1408 
Q 2771 1408 2099 1344 
L 2099 1926 
Q 2522 1875 3091 1869 
z
M 3584 3309 
L 3584 1869 
L 4499 1869 
L 4499 3309 
L 3584 3309 
z
M 3258 1146 
Q 3597 973 3827 902 
Q 3936 870 3936 828 
Q 3936 787 3837 742 
Q 3738 698 3622 589 
Q 3507 480 3187 128 
L 2477 -653 
Q 2362 -442 1926 -320 
Q 2272 -102 2672 346 
Q 3072 794 3258 1146 
z
M 6093 -134 
L 5581 -570 
Q 5018 250 4435 781 
L 4870 1107 
Q 5581 474 6093 -134 
z
" transform="scale(0.015625)"/>
        <path id="STHeiti-5e94" d="M 3853 4614 
L 3264 4499 
Q 3136 4909 2970 5190 
L 3642 5370 
Q 3750 5024 3853 4614 
z
M 5850 3936 
Q 5446 3987 4333 3987 
L 1536 3987 
Q 1530 2509 1488 1798 
Q 1446 1088 1299 573 
Q 1152 58 813 -582 
Q 550 -307 294 -198 
Q 704 333 864 921 
Q 1024 1510 1024 2400 
Q 1024 3290 947 4512 
Q 1517 4461 3513 4461 
Q 5510 4461 5850 4512 
L 5850 3936 
z
M 4128 1574 
L 3552 1453 
Q 3526 2298 3136 3277 
L 3686 3418 
Q 3962 2477 4128 1574 
z
M 4435 250 
Q 5395 256 5965 314 
L 5965 -275 
Q 5229 -211 3734 -211 
Q 2240 -211 1523 -275 
L 1517 314 
Q 2246 250 3891 250 
Q 4198 691 4547 1641 
Q 4896 2592 5024 3341 
Q 5344 3181 5677 3091 
Q 5773 3066 5773 3034 
Q 5773 3002 5696 2950 
Q 5568 2861 5402 2432 
Q 4986 1376 4435 250 
z
M 3091 1062 
L 2534 845 
Q 2355 1651 1850 2662 
L 2368 2842 
Q 2758 1984 3091 1062 
z
" transform="scale(0.015625)"/>
        <path id="STHeiti-94fe" d="M 4442 4026 
L 3930 2790 
L 4557 2790 
Q 4557 3322 4518 3539 
Q 4768 3482 4982 3482 
Q 5197 3482 5197 3440 
Q 5197 3398 5123 3353 
Q 5050 3309 5030 3200 
Q 5011 3091 5011 2797 
L 5011 2790 
Q 5581 2790 5869 2822 
L 5869 2355 
Q 5709 2374 5011 2374 
L 5011 1709 
Q 5683 1722 6010 1760 
L 6010 1248 
Q 5664 1280 5011 1293 
Q 5011 736 5043 275 
L 4518 275 
Q 4557 742 4557 1293 
Q 3757 1293 3347 1248 
L 3347 1760 
Q 3827 1709 4557 1709 
L 4557 2374 
Q 3686 2374 3501 2298 
Q 3450 2554 3334 2746 
Q 3501 2867 3635 3177 
Q 3770 3488 3955 4013 
Q 3686 3994 3475 3974 
L 3475 4480 
Q 3744 4448 4102 4442 
Q 4218 4883 4282 5248 
Q 4685 5075 4915 5056 
Q 4986 5050 4986 5027 
Q 4986 5005 4925 4966 
Q 4864 4928 4803 4829 
Q 4742 4730 4614 4435 
L 4979 4435 
Q 5581 4435 6010 4480 
L 6010 3974 
Q 5517 4026 4979 4026 
L 4442 4026 
z
M 1165 3942 
Q 813 3379 570 3136 
Q 448 3379 250 3552 
Q 576 3821 870 4326 
Q 1165 4832 1248 5242 
Q 1408 5146 1722 5088 
Q 1862 5062 1862 5008 
Q 1862 4954 1766 4877 
Q 1702 4826 1421 4371 
L 1747 4371 
Q 2086 4371 2246 4403 
L 2246 3917 
Q 2061 3942 1741 3942 
L 1165 3942 
z
M 3200 3872 
L 2752 3680 
Q 2669 4173 2470 4806 
L 2918 4947 
Q 3078 4371 3200 3872 
z
M 1107 1664 
Q 742 1658 467 1613 
L 467 2138 
Q 717 2086 1107 2080 
L 1107 2867 
Q 922 2861 794 2829 
L 794 3341 
Q 1050 3290 1472 3290 
Q 1894 3290 2144 3341 
L 2144 2829 
Q 1920 2874 1568 2880 
L 1568 2074 
Q 2022 2080 2272 2138 
L 2272 1613 
Q 1971 1658 1568 1658 
L 1568 602 
Q 1888 870 2125 1184 
Q 2157 922 2285 710 
L 1587 -6 
Q 1274 -333 1190 -448 
Q 1024 -109 813 64 
Q 1107 230 1107 474 
L 1107 1664 
z
M 2694 563 
L 2694 2560 
Q 2387 2560 2234 2528 
L 2234 3040 
Q 2438 3008 2700 3008 
Q 2963 3008 3219 3040 
Q 3162 2771 3162 2330 
L 3162 608 
Q 3226 576 3405 445 
Q 3584 314 3699 269 
Q 3814 224 4003 185 
Q 4192 147 4422 128 
Q 4653 109 4915 109 
Q 5510 109 6150 205 
Q 6022 -102 5971 -403 
Q 5683 -416 5427 -416 
Q 4646 -416 4131 -313 
Q 3616 -211 3290 19 
Q 3130 134 3021 134 
Q 2912 134 2784 12 
Q 2656 -109 2445 -390 
Q 2266 -141 2074 0 
Q 2445 397 2694 563 
z
" transform="scale(0.015625)"/>
       </defs>
       <use xlink:href="#STHeiti-41"/>
       <use xlink:href="#STHeiti-54" transform="translate(73.999985 0)"/>
       <use xlink:href="#STHeiti-4c" transform="translate(116.599976 0)"/>
       <use xlink:href="#STHeiti-65b0" transform="translate(162.799973 0)"/>
       <use xlink:href="#STHeiti-80fd" transform="translate(262.799957 0)"/>
       <use xlink:href="#STHeiti-5b89" transform="translate(362.799942 0)"/>
       <use xlink:href="#STHeiti-5207" transform="translate(462.799927 0)"/>
       <use xlink:href="#STHeiti-5165" transform="translate(562.799911 0)"/>
       <use xlink:href="#STHeiti-4f" transform="translate(662.799896 0)"/>
       <use xlink:href="#STHeiti-45" transform="translate(749.69989 0)"/>
       <use xlink:href="#STHeiti-4d" transform="translate(803.299881 0)"/>
       <use xlink:href="#STHeiti-4f9b" transform="translate(895.199875 0)"/>
       <use xlink:href="#STHeiti-5e94" transform="translate(995.19986 0)"/>
       <use xlink:href="#STHeiti-94fe" transform="translate(1095.199844 0)"/>
      </g>
     </g>
    </g>
    <g id="xtick_2">
     <g id="line2d_3">
      <path d="M 262.443747 256.205464 
L 262.443747 7.2 
" clip-path="url(#p0025726766)" style="fill: none; stroke: #b0b0b0; stroke-opacity: 0.3; stroke-width: 0.8; stroke-linecap: square"/>
     </g>
     <g id="line2d_4">
      <g>
       <use xlink:href="#m929d8fcc46" x="262.443747" y="256.205464" style="stroke: #000000; stroke-width: 0.8"/>
      </g>
     </g>
     <g id="text_2">
      <!-- 共享电单车投放潮（2019-2022） -->
      <g transform="translate(133.908843 344.017216) rotate(-30) scale(0.1 -0.1)">
       <defs>
        <path id="STHeiti-5171" d="M 2010 1952 
L 2010 3456 
Q 1523 3450 730 3398 
L 730 3974 
Q 1344 3923 2010 3917 
L 2010 4160 
Q 2010 4928 1978 5158 
Q 2195 5120 2611 5120 
Q 2701 5120 2701 5088 
Q 2701 5056 2624 5011 
Q 2547 4966 2547 4646 
L 2547 3917 
L 3834 3917 
L 3834 4275 
Q 3834 5107 3808 5274 
Q 4026 5235 4448 5235 
Q 4538 5235 4538 5203 
Q 4538 5171 4461 5126 
Q 4384 5082 4384 4762 
L 4384 3917 
Q 5146 3923 5715 3974 
L 5715 3398 
Q 4992 3450 4384 3456 
L 4384 1952 
Q 5325 1952 5990 2010 
L 5990 1408 
Q 5005 1485 3177 1485 
Q 1350 1485 358 1408 
L 358 2010 
Q 1030 1952 2010 1952 
z
M 2547 3456 
L 2547 1952 
L 3834 1952 
L 3834 3456 
L 2547 3456 
z
M 5856 -77 
L 5408 -634 
Q 4550 166 3603 698 
L 3974 1094 
Q 5011 493 5856 -77 
z
M 2362 1082 
Q 2579 870 2854 768 
Q 2976 723 2976 684 
Q 2976 646 2883 614 
Q 2790 582 2691 518 
Q 2592 454 2432 304 
Q 2272 154 1808 -140 
Q 1344 -435 864 -691 
Q 704 -442 410 -282 
Q 1018 -32 1590 368 
Q 2163 768 2362 1082 
z
" transform="scale(0.015625)"/>
        <path id="STHeiti-4eab" d="M 3590 4602 
Q 4954 4614 5837 4672 
L 5837 4122 
Q 4922 4186 3194 4186 
Q 1466 4186 550 4122 
L 550 4672 
Q 1318 4614 2970 4602 
Q 2899 4922 2797 5158 
L 3469 5242 
Q 3565 4890 3590 4602 
z
M 5158 2528 
Q 4563 2554 3126 2554 
Q 1690 2554 1318 2534 
Q 1350 2861 1350 3229 
Q 1350 3597 1318 3834 
Q 1869 3802 3238 3802 
Q 4608 3802 5158 3834 
Q 5146 3654 5146 3299 
Q 5146 2944 5158 2528 
z
M 4621 2963 
L 4621 3398 
L 1856 3398 
L 1856 2963 
L 4621 2963 
z
M 3552 672 
L 3552 6 
Q 3552 -192 3485 -297 
Q 3418 -403 3200 -476 
Q 2982 -550 2509 -614 
Q 2496 -211 2285 45 
Q 2592 19 2752 19 
Q 2912 19 2963 70 
Q 3014 122 3014 275 
L 3014 672 
Q 1318 672 486 608 
L 486 1171 
Q 1293 1120 3014 1107 
L 3014 1472 
L 4109 1850 
Q 1568 1856 845 1830 
L 845 2234 
Q 1235 2208 3027 2208 
Q 4819 2208 5318 2246 
L 5318 1728 
Q 4800 1690 4506 1581 
L 3552 1235 
L 3552 1107 
Q 5139 1120 5946 1171 
L 5946 608 
Q 4973 672 3552 672 
z
" transform="scale(0.015625)"/>
        <path id="STHeiti-7535" d="M 3232 4269 
Q 4602 4275 5222 4346 
Q 5178 4083 5178 3622 
L 5178 1843 
Q 5178 1325 5242 851 
L 4640 851 
L 4640 1235 
L 3232 1235 
L 3232 448 
Q 3232 307 3302 243 
Q 3373 179 3613 147 
Q 3853 115 4218 115 
Q 5229 115 5417 224 
Q 5606 333 5638 922 
Q 5811 531 6176 531 
Q 6042 64 5914 -86 
Q 5786 -237 5450 -285 
Q 5114 -333 4378 -333 
Q 3642 -333 3277 -285 
Q 2912 -237 2809 -134 
Q 2707 -32 2707 205 
L 2707 1235 
L 1370 1235 
L 1370 582 
L 781 582 
Q 851 1024 851 1638 
L 851 3622 
Q 851 4045 806 4346 
Q 1440 4275 2707 4269 
Q 2707 4947 2637 5267 
Q 2912 5229 3334 5229 
Q 3437 5229 3437 5174 
Q 3437 5120 3373 5094 
Q 3309 5069 3270 4998 
Q 3232 4928 3232 4870 
L 3232 4269 
z
M 2707 3808 
L 1370 3808 
L 1370 2963 
L 2707 2963 
L 2707 3808 
z
M 4640 2963 
L 4640 3808 
L 3232 3808 
L 3232 2963 
L 4640 2963 
z
M 1370 2534 
L 1370 1670 
L 2707 1670 
L 2707 2534 
L 1370 2534 
z
M 4640 1670 
L 4640 2534 
L 3232 2534 
L 3232 1670 
L 4640 1670 
z
" transform="scale(0.015625)"/>
        <path id="STHeiti-5355" d="M 3456 954 
Q 5050 954 5971 1011 
L 5971 461 
Q 5050 518 3456 518 
Q 3456 -173 3501 -704 
L 2893 -704 
Q 2938 -275 2938 518 
Q 1344 518 429 461 
L 429 1011 
Q 1344 954 2938 954 
L 2938 1466 
Q 1741 1472 1094 1453 
Q 1120 1664 1120 1971 
L 1120 3462 
Q 1120 3872 1101 4013 
Q 1933 3981 3565 3981 
Q 4051 4909 4122 5254 
Q 4518 5062 4800 5018 
Q 4890 5005 4890 4944 
Q 4890 4883 4819 4864 
Q 4646 4826 4051 3981 
Q 4800 3981 5299 4013 
Q 5286 3872 5286 3475 
L 5286 1997 
Q 5286 1677 5306 1446 
Q 4742 1472 3456 1466 
L 3456 954 
z
M 2938 2925 
L 2938 3571 
L 1651 3571 
L 1651 2925 
L 2938 2925 
z
M 3456 3571 
L 3456 2925 
L 4787 2925 
L 4787 3571 
L 3456 3571 
z
M 3456 2534 
L 3456 1875 
L 4787 1875 
L 4787 2534 
L 3456 2534 
z
M 2938 1875 
L 2938 2534 
L 1651 2534 
L 1651 1875 
L 2938 1875 
z
M 2880 4448 
L 2387 4077 
Q 2054 4570 1734 4890 
L 2150 5197 
Q 2509 4774 2880 4448 
z
" transform="scale(0.015625)"/>
        <path id="STHeiti-8f66" d="M 3130 2464 
Q 3130 3245 3059 3373 
Q 3238 3334 3718 3334 
Q 3834 3334 3834 3292 
Q 3834 3251 3754 3206 
Q 3674 3162 3674 2720 
L 3674 2464 
Q 4806 2464 5389 2522 
L 5389 1978 
Q 4973 2022 3674 2022 
L 3674 1050 
Q 5069 1056 5914 1107 
L 5914 557 
Q 5069 608 3674 614 
Q 3674 -403 3725 -685 
L 3085 -685 
Q 3130 -518 3130 614 
Q 1466 614 538 557 
L 538 1107 
Q 1472 1050 3130 1050 
L 3130 2022 
Q 1709 2016 1178 1914 
Q 1133 2189 954 2451 
Q 1254 2522 1500 2835 
Q 1747 3149 2112 3770 
Q 1216 3770 614 3712 
L 614 4282 
Q 1152 4224 2368 4224 
Q 2650 4730 2803 5261 
Q 3251 5056 3398 5017 
Q 3546 4979 3546 4947 
Q 3546 4915 3488 4889 
Q 3430 4864 3286 4685 
Q 3142 4506 2963 4224 
L 4538 4224 
Q 5235 4224 5856 4282 
L 5856 3712 
Q 5235 3770 4538 3770 
L 2688 3770 
Q 2189 2957 1786 2464 
L 3130 2464 
z
" transform="scale(0.015625)"/>
        <path id="STHeiti-6295" d="M 1248 2182 
L 1248 3354 
Q 698 3341 384 3296 
L 384 3885 
Q 646 3846 1248 3834 
Q 1248 4858 1178 5248 
Q 1402 5197 1779 5197 
Q 1939 5197 1939 5139 
Q 1939 5101 1836 5017 
Q 1734 4934 1734 4806 
L 1734 3834 
Q 2266 3846 2515 3885 
L 2515 3296 
Q 2195 3347 1734 3347 
L 1734 2336 
Q 2106 2458 2432 2592 
Q 2419 2509 2419 2355 
Q 2419 2202 2483 2029 
Q 2093 1933 1734 1811 
L 1734 102 
Q 1734 -96 1657 -208 
Q 1581 -320 1363 -397 
Q 1146 -474 710 -531 
Q 672 -224 454 109 
Q 672 83 826 83 
Q 1248 83 1248 301 
L 1248 1632 
Q 678 1434 384 1267 
Q 371 1651 269 1971 
Q 883 2086 1248 2182 
z
M 6093 3552 
Q 5971 3251 5958 2938 
Q 5325 2944 5043 2982 
Q 4762 3021 4675 3104 
Q 4589 3187 4595 3379 
L 4634 4493 
L 3706 4493 
Q 3706 3840 3574 3504 
Q 3443 3168 3008 2720 
Q 2822 2925 2470 3021 
Q 2880 3283 3053 3561 
Q 3226 3840 3226 4358 
Q 3226 4608 3187 4998 
Q 3469 4960 4169 4960 
Q 4870 4960 5203 4998 
Q 5152 4832 5126 4659 
Q 5101 4486 5085 4150 
Q 5069 3814 5069 3699 
Q 5069 3584 5165 3539 
Q 5261 3494 5472 3494 
Q 5683 3494 6093 3552 
z
M 2989 2061 
Q 2893 2061 2739 2048 
L 2739 2624 
Q 3283 2573 4089 2573 
Q 4896 2573 5542 2624 
Q 5158 1318 4506 589 
Q 5120 198 6170 128 
Q 5882 -230 5805 -582 
Q 4742 -288 4109 224 
Q 3443 -288 2477 -646 
Q 2342 -378 2022 -141 
Q 3232 205 3731 557 
Q 3277 1158 2989 2061 
z
M 3488 2086 
Q 3693 1331 4128 877 
Q 4595 1344 4832 2086 
L 3488 2086 
z
" transform="scale(0.015625)"/>
        <path id="STHeiti-653e" d="M 4358 1037 
Q 4813 1702 4858 3578 
L 3891 3578 
Q 3635 2963 3302 2541 
Q 3085 2694 2822 2822 
Q 3635 3776 3789 5235 
Q 3936 5171 4157 5104 
Q 4378 5037 4493 5018 
Q 4538 5011 4538 4969 
Q 4538 4928 4467 4889 
Q 4397 4851 4077 4058 
L 5152 4058 
Q 5811 4058 6003 4096 
L 6003 3558 
Q 5779 3578 5389 3578 
Q 5318 2406 5177 1788 
Q 5037 1171 4717 678 
Q 5350 179 6150 134 
Q 5875 -134 5754 -525 
Q 4851 -173 4410 250 
Q 4006 -256 3309 -614 
Q 3130 -307 2810 -147 
Q 3578 109 4045 646 
Q 3571 1363 3430 2592 
L 3898 2707 
Q 4102 1427 4358 1037 
z
M 2323 4410 
L 1709 4147 
Q 1619 4576 1446 4960 
L 2022 5197 
Q 2138 4858 2323 4410 
z
M 1702 2669 
L 2502 2669 
Q 2803 2669 2938 2694 
L 2810 352 
Q 2790 70 2697 -90 
Q 2605 -250 2377 -342 
Q 2150 -435 1709 -506 
Q 1715 -166 1485 166 
Q 1658 141 1792 141 
Q 2266 141 2285 499 
L 2381 2189 
L 1664 2189 
Q 1574 1261 1385 649 
Q 1197 38 826 -499 
Q 576 -269 275 -224 
Q 774 384 976 1152 
Q 1178 1920 1229 3558 
Q 736 3558 371 3520 
L 371 4077 
Q 845 4032 1792 4032 
Q 2739 4032 3187 4077 
L 3187 3520 
Q 2765 3565 1754 3565 
Q 1741 3219 1702 2669 
z
" transform="scale(0.015625)"/>
        <path id="STHeiti-6f6e" d="M 2899 960 
Q 3482 966 3776 1005 
L 3776 512 
Q 3482 550 2899 557 
L 2899 128 
Q 2899 -160 2931 -518 
L 2432 -518 
Q 2464 -243 2464 128 
L 2464 557 
Q 1869 550 1574 512 
L 1574 1005 
Q 1869 966 2464 960 
L 2464 1517 
Q 2010 1517 1754 1485 
Q 1786 1638 1786 1901 
L 1786 3072 
Q 1786 3379 1754 3507 
Q 1939 3475 2515 3475 
L 2515 4006 
Q 1990 4000 1741 3955 
L 1741 4442 
Q 1990 4397 2515 4390 
Q 2515 5056 2483 5184 
Q 2630 5152 3021 5152 
Q 3098 5152 3098 5117 
Q 3098 5082 3062 5050 
Q 3027 5018 2995 4842 
Q 2963 4666 2950 4390 
Q 3552 4397 3808 4442 
L 3808 3955 
Q 3552 4000 2950 4006 
L 2950 3475 
Q 3565 3475 3744 3507 
Q 3712 3373 3712 3072 
L 3712 1901 
Q 3712 1690 3744 1485 
Q 3558 1517 2899 1517 
L 2899 960 
z
M 3264 2675 
L 3264 3085 
L 2214 3085 
L 2214 2675 
L 3264 2675 
z
M 2214 2323 
L 2214 1894 
L 3264 1894 
L 3264 2323 
L 2214 2323 
z
M 1600 4397 
L 1229 3942 
Q 909 4294 538 4512 
L 909 4909 
Q 1197 4710 1600 4397 
z
M 4595 1638 
Q 4525 416 3654 -614 
Q 3430 -416 3168 -320 
Q 3590 115 3792 470 
Q 3994 826 4070 1286 
Q 4147 1747 4147 2547 
L 4147 4026 
Q 4147 4570 4128 4819 
Q 4448 4787 4998 4787 
Q 5549 4787 5856 4819 
Q 5837 4570 5837 4026 
L 5837 147 
Q 5837 -102 5782 -214 
Q 5728 -326 5542 -396 
Q 5357 -467 4909 -544 
Q 4858 -243 4659 58 
Q 4838 38 5011 38 
Q 5184 38 5283 96 
Q 5382 154 5382 326 
L 5382 1638 
L 4595 1638 
z
M 5382 3450 
L 5382 4397 
L 4602 4397 
L 4602 3450 
L 5382 3450 
z
M 4602 3059 
L 4602 2016 
L 5382 2016 
L 5382 3059 
L 4602 3059 
z
M 1485 2886 
L 1139 2426 
Q 774 2752 326 3034 
L 666 3469 
Q 947 3283 1485 2886 
z
M 1408 1677 
Q 1299 1370 1110 435 
Q 922 -499 915 -614 
Q 576 -352 314 -198 
Q 461 96 678 848 
Q 896 1600 928 1926 
Q 1120 1766 1408 1677 
z
" transform="scale(0.015625)"/>
        <path id="STHeiti-ff08" d="M 5651 -749 
L 5274 -749 
Q 4646 173 4409 835 
Q 4173 1498 4173 2266 
Q 4173 3034 4432 3750 
Q 4691 4467 5254 5267 
L 5645 5267 
Q 5082 4237 4928 3606 
Q 4774 2976 4774 2093 
Q 4774 1472 4953 861 
Q 5133 250 5651 -749 
z
" transform="scale(0.015625)"/>
        <path id="STHeiti-32" d="M 742 3539 
L 301 3539 
Q 333 4243 768 4668 
Q 1203 5094 1820 5094 
Q 2438 5094 2844 4694 
Q 3251 4294 3251 3718 
Q 3251 3290 3024 2925 
Q 2797 2560 2336 2061 
L 1190 826 
L 3315 826 
L 3315 384 
L 192 384 
L 1946 2278 
Q 2406 2778 2604 3066 
Q 2803 3354 2803 3725 
Q 2803 4096 2512 4377 
Q 2221 4659 1789 4659 
Q 1357 4659 1072 4368 
Q 787 4077 742 3539 
z
" transform="scale(0.015625)"/>
        <path id="STHeiti-30" d="M 1747 269 
Q 1005 269 605 880 
Q 205 1491 205 2681 
Q 205 3872 605 4483 
Q 1005 5094 1741 5094 
Q 2477 5094 2909 4470 
Q 3341 3846 3341 2681 
Q 3341 1517 2905 893 
Q 2470 269 1747 269 
z
M 1760 4659 
Q 1229 4659 934 4147 
Q 640 3635 640 2669 
Q 640 685 1760 685 
Q 2304 685 2608 1206 
Q 2912 1728 2912 2681 
Q 2912 3635 2598 4147 
Q 2285 4659 1760 4659 
z
" transform="scale(0.015625)"/>
        <path id="STHeiti-31" d="M 1184 4979 
L 2086 4979 
L 2086 384 
L 1632 384 
L 1632 4531 
L 909 4531 
L 1184 4979 
z
" transform="scale(0.015625)"/>
        <path id="STHeiti-39" d="M 1229 269 
L 851 512 
L 2093 2394 
Q 1850 2310 1613 2310 
Q 1062 2310 688 2707 
Q 314 3104 314 3696 
Q 314 4288 730 4691 
Q 1146 5094 1750 5094 
Q 2355 5094 2748 4681 
Q 3142 4269 3142 3693 
Q 3142 3373 3011 3049 
Q 2880 2726 2624 2349 
L 1229 269 
z
M 762 3680 
Q 762 3277 1043 2995 
Q 1325 2714 1728 2714 
Q 2131 2714 2412 2998 
Q 2694 3283 2694 3680 
Q 2694 4077 2412 4361 
Q 2131 4646 1728 4646 
Q 1325 4646 1043 4364 
Q 762 4083 762 3680 
z
" transform="scale(0.015625)"/>
        <path id="STHeiti-2d" d="M 205 2304 
L 1920 2304 
L 1920 1920 
L 205 1920 
L 205 2304 
z
" transform="scale(0.015625)"/>
        <path id="STHeiti-ff09" d="M 1120 5267 
Q 1747 4346 1984 3683 
Q 2221 3021 2221 2253 
Q 2221 1485 1961 768 
Q 1702 51 1139 -749 
L 749 -749 
Q 1312 282 1465 912 
Q 1619 1542 1619 2426 
Q 1619 3046 1440 3657 
Q 1261 4269 742 5267 
L 1120 5267 
z
" transform="scale(0.015625)"/>
       </defs>
       <use xlink:href="#STHeiti-5171"/>
       <use xlink:href="#STHeiti-4eab" transform="translate(99.999985 0)"/>
       <use xlink:href="#STHeiti-7535" transform="translate(199.999969 0)"/>
       <use xlink:href="#STHeiti-5355" transform="translate(299.999954 0)"/>
       <use xlink:href="#STHeiti-8f66" transform="translate(399.999939 0)"/>
       <use xlink:href="#STHeiti-6295" transform="translate(499.999924 0)"/>
       <use xlink:href="#STHeiti-653e" transform="translate(599.999908 0)"/>
       <use xlink:href="#STHeiti-6f6e" transform="translate(699.999893 0)"/>
       <use xlink:href="#STHeiti-ff08" transform="translate(799.999878 0)"/>
       <use xlink:href="#STHeiti-32" transform="translate(899.999863 0)"/>
       <use xlink:href="#STHeiti-30" transform="translate(955.399857 0)"/>
       <use xlink:href="#STHeiti-31" transform="translate(1010.79985 0)"/>
       <use xlink:href="#STHeiti-39" transform="translate(1066.199844 0)"/>
       <use xlink:href="#STHeiti-2d" transform="translate(1121.599838 0)"/>
       <use xlink:href="#STHeiti-32" transform="translate(1154.799835 0)"/>
       <use xlink:href="#STHeiti-30" transform="translate(1210.199829 0)"/>
       <use xlink:href="#STHeiti-32" transform="translate(1265.599823 0)"/>
       <use xlink:href="#STHeiti-32" transform="translate(1320.999817 0)"/>
       <use xlink:href="#STHeiti-ff09" transform="translate(1376.399811 0)"/>
      </g>
     </g>
    </g>
    <g id="xtick_3">
     <g id="line2d_5">
      <path d="M 409.474398 256.205464 
L 409.474398 7.2 
" clip-path="url(#p0025726766)" style="fill: none; stroke: #b0b0b0; stroke-opacity: 0.3; stroke-width: 0.8; stroke-linecap: square"/>
     </g>
     <g id="line2d_6">
      <g>
       <use xlink:href="#m929d8fcc46" x="409.474398" y="256.205464" style="stroke: #000000; stroke-width: 0.8"/>
      </g>
     </g>
     <g id="text_3">
      <!-- 储能及新业务市场扩展 -->
      <g transform="translate(322.201545 320.201325) rotate(-30) scale(0.1 -0.1)">
       <defs>
        <path id="STHeiti-50a8" d="M 4474 4448 
Q 4787 4454 4992 4493 
L 4992 4013 
Q 4768 4045 4474 4051 
L 4474 3194 
L 4646 3194 
Q 5146 3917 5382 4685 
Q 5568 4531 5888 4390 
Q 5933 4365 5933 4336 
Q 5933 4307 5865 4272 
Q 5798 4237 5577 3859 
Q 5357 3482 5146 3194 
Q 5696 3206 6086 3251 
L 6086 2733 
Q 5600 2778 4845 2784 
Q 4653 2541 4365 2234 
L 5139 2234 
Q 5504 2234 5670 2278 
Q 5619 2099 5619 1651 
L 5619 301 
Q 5619 -102 5677 -499 
L 5139 -499 
L 5139 -154 
L 3994 -154 
L 3994 -614 
L 3514 -614 
Q 3565 -211 3565 186 
L 3565 1466 
Q 3315 1242 3117 1088 
Q 3008 1261 2784 1446 
Q 3200 1709 3546 1997 
Q 3533 2157 3507 2278 
Q 3642 2253 3814 2240 
Q 4102 2509 4339 2790 
Q 3533 2790 3008 2733 
L 3008 3251 
Q 3482 3206 4013 3194 
L 4013 4058 
Q 3558 4051 3302 4013 
L 3302 4493 
Q 3610 4448 4013 4442 
Q 4013 5024 3955 5254 
Q 4192 5210 4506 5210 
Q 4563 5210 4563 5181 
Q 4563 5152 4518 5107 
Q 4474 5062 4474 4813 
L 4474 4448 
z
M 5139 1242 
L 5139 1830 
L 3994 1830 
L 3994 1242 
L 5139 1242 
z
M 3994 845 
L 3994 243 
L 5139 243 
L 5139 845 
L 3994 845 
z
M 1510 4070 
L 1510 -582 
L 954 -582 
Q 1024 64 1024 538 
L 1024 2970 
Q 832 2547 646 2202 
Q 518 2464 237 2637 
Q 608 3098 905 3808 
Q 1203 4518 1338 5165 
Q 1670 5056 1875 5050 
Q 1978 5043 1978 5001 
Q 1978 4960 1888 4870 
Q 1830 4813 1510 4070 
z
M 2957 3712 
L 2419 3565 
Q 2336 4141 2093 4627 
L 2586 4774 
Q 2733 4256 2957 3712 
z
M 3123 602 
L 2586 154 
Q 2426 26 2246 -218 
Q 2067 115 1926 250 
Q 2042 378 2090 515 
Q 2138 653 2138 909 
L 2138 2784 
Q 1856 2784 1658 2746 
L 1658 3277 
Q 1939 3226 2192 3226 
Q 2445 3226 2669 3277 
Q 2598 2989 2598 2470 
L 2598 794 
Q 2835 941 2982 1082 
Q 2982 832 3123 602 
z
" transform="scale(0.015625)"/>
        <path id="STHeiti-53ca" d="M 2598 4237 
Q 2541 2611 2163 1692 
Q 1786 774 819 -109 
Q 595 90 262 294 
Q 1165 915 1590 1843 
Q 2016 2771 2061 4237 
Q 1421 4224 1024 4192 
L 1024 4774 
Q 1651 4730 3344 4730 
Q 5037 4730 5171 4781 
L 4301 2970 
L 4877 2970 
Q 5293 2970 5472 3008 
Q 5146 2067 4861 1555 
Q 4576 1043 4173 691 
Q 4576 461 5149 301 
Q 5722 141 6086 147 
Q 5875 -109 5792 -550 
Q 5286 -454 4707 -201 
Q 4128 51 3744 346 
Q 2771 -346 1664 -627 
Q 1549 -288 1357 -77 
Q 2682 198 3386 691 
Q 2739 1453 2477 2643 
L 2963 2842 
Q 3200 1645 3782 1011 
Q 4416 1606 4666 2464 
L 4205 2464 
Q 3731 2464 3462 2432 
L 4288 4237 
L 2598 4237 
z
" transform="scale(0.015625)"/>
        <path id="STHeiti-4e1a" d="M 2310 301 
L 2310 4198 
Q 2310 4672 2259 5107 
Q 2509 5056 2918 5056 
Q 3002 5056 3002 5018 
Q 3002 4986 2925 4925 
Q 2848 4864 2848 4742 
L 2848 301 
L 3578 301 
L 3578 4186 
Q 3578 4589 3526 5094 
Q 3725 5050 4186 5050 
Q 4269 5050 4269 5014 
Q 4269 4979 4192 4915 
Q 4115 4851 4115 4730 
L 4115 301 
Q 5504 301 6035 358 
L 6035 -250 
Q 5658 -192 3325 -192 
Q 992 -192 499 -250 
L 499 358 
Q 1069 301 2310 301 
z
M 5114 4006 
Q 5472 3840 5830 3808 
Q 5901 3802 5901 3770 
Q 5901 3738 5833 3696 
Q 5766 3654 5654 3433 
Q 5542 3213 5478 2995 
Q 5222 2093 4941 1363 
Q 4691 1517 4390 1485 
Q 4851 2419 5114 4006 
z
M 2048 1523 
L 1389 1306 
Q 1158 2650 614 3603 
L 1203 3853 
Q 1574 2662 2048 1523 
z
" transform="scale(0.015625)"/>
        <path id="STHeiti-52a1" d="M 2496 4589 
L 3757 4589 
Q 4621 4589 5299 4659 
Q 4813 3693 3872 3021 
Q 4634 2637 6182 2515 
Q 5990 2221 5939 1888 
Q 4320 2150 3411 2733 
Q 2067 1965 608 1734 
Q 570 1990 365 2253 
Q 1920 2445 3002 3027 
Q 2522 3418 2150 4019 
Q 1818 3501 1389 3008 
Q 1190 3245 851 3296 
Q 1274 3590 1632 4150 
Q 1990 4710 2157 5350 
Q 2554 5146 2874 5094 
Q 2963 5082 2963 5034 
Q 2963 4986 2880 4973 
Q 2739 4947 2496 4589 
z
M 3424 3290 
Q 3936 3674 4390 4179 
L 2554 4179 
Q 2982 3603 3424 3290 
z
M 3264 1069 
Q 3110 422 2643 48 
Q 2176 -326 1075 -678 
Q 928 -326 672 -115 
Q 1619 13 2092 288 
Q 2566 563 2733 1069 
Q 1728 1069 1280 1011 
L 1280 1587 
Q 1664 1536 2829 1530 
Q 2861 1798 2861 2000 
Q 2861 2202 2854 2330 
Q 3264 2227 3558 2227 
Q 3629 2227 3629 2208 
Q 3629 2189 3577 2147 
Q 3526 2106 3465 1939 
Q 3405 1773 3354 1530 
Q 4890 1530 5312 1587 
L 5235 467 
Q 5190 -186 4883 -381 
Q 4576 -576 3942 -608 
Q 3859 -262 3584 51 
Q 3878 13 4124 13 
Q 4371 13 4512 118 
Q 4653 224 4672 474 
L 4717 1069 
L 3264 1069 
z
" transform="scale(0.015625)"/>
        <path id="STHeiti-5e02" d="M 3590 4525 
L 2970 4339 
Q 2848 4768 2618 5094 
L 3238 5280 
Q 3424 4934 3590 4525 
z
M 2918 3821 
Q 1338 3814 461 3757 
L 461 4365 
Q 1402 4301 3232 4301 
Q 5062 4301 6003 4365 
L 6003 3757 
Q 5120 3821 3475 3821 
L 3475 2970 
Q 4608 2982 5299 3021 
L 5299 672 
Q 5299 390 5232 252 
Q 5165 115 4950 28 
Q 4736 -58 4256 -134 
Q 4224 282 3936 544 
Q 4301 467 4454 467 
Q 4608 467 4675 531 
Q 4742 595 4742 826 
L 4742 2509 
L 3475 2509 
L 3475 461 
Q 3475 6 3539 -640 
L 2854 -640 
Q 2918 6 2918 461 
L 2918 2509 
L 1709 2509 
L 1709 -58 
L 1107 -58 
Q 1158 378 1158 845 
L 1158 3021 
Q 1952 2976 2918 2970 
L 2918 3821 
z
" transform="scale(0.015625)"/>
        <path id="STHeiti-573a" d="M 1619 1222 
Q 2042 1440 2368 1696 
Q 2362 1594 2362 1427 
Q 2362 1261 2374 1069 
Q 1414 614 634 13 
Q 486 384 275 723 
Q 742 838 1139 998 
L 1139 3008 
Q 685 3002 390 2957 
L 390 3533 
Q 634 3488 1139 3482 
Q 1139 4634 1062 5062 
Q 1344 5024 1677 5024 
Q 1760 5024 1760 4992 
Q 1760 4960 1689 4918 
Q 1619 4877 1619 4723 
L 1619 3482 
Q 2106 3488 2349 3533 
L 2349 2957 
Q 2029 3002 1619 3008 
L 1619 1222 
z
M 3552 2592 
Q 3066 2566 2765 2406 
Q 2701 2669 2566 2861 
Q 3014 2950 3408 3292 
Q 3802 3635 4582 4422 
L 3622 4422 
Q 3360 4422 2618 4371 
L 2611 4922 
Q 3277 4890 4240 4890 
Q 5203 4890 5491 4928 
L 5491 4403 
Q 5312 4358 5161 4275 
Q 5011 4192 4688 3907 
Q 4365 3622 3738 2995 
L 4941 2995 
Q 5363 2995 5914 3046 
Q 5856 2195 5818 1229 
Q 5779 333 5754 198 
Q 5715 -38 5606 -163 
Q 5498 -288 5267 -365 
Q 5107 -429 4678 -525 
Q 4659 -224 4410 141 
Q 4666 115 4858 115 
Q 5050 115 5149 192 
Q 5248 269 5280 467 
Q 5312 666 5341 1357 
Q 5370 2048 5370 2592 
L 4883 2592 
Q 4806 1491 4406 745 
Q 4006 0 3162 -589 
Q 2938 -301 2656 -154 
Q 3558 230 3955 844 
Q 4352 1459 4474 2592 
L 3974 2592 
Q 3840 1850 3542 1325 
Q 3245 800 2707 352 
Q 2534 570 2214 678 
Q 2771 998 3084 1456 
Q 3398 1914 3552 2592 
z
" transform="scale(0.015625)"/>
        <path id="STHeiti-6269" d="M 4858 4627 
L 4237 4435 
Q 4122 4781 3949 5120 
L 4531 5293 
Q 4704 5011 4858 4627 
z
M 1293 2202 
L 1293 3539 
Q 755 3526 448 3482 
L 448 4051 
Q 704 4013 1293 4000 
Q 1293 4902 1222 5274 
Q 1446 5229 1850 5229 
Q 2010 5229 2010 5181 
Q 2010 5133 1923 5065 
Q 1837 4998 1817 4953 
Q 1798 4909 1798 4838 
L 1798 4000 
Q 2272 4000 2573 4051 
L 2573 3482 
Q 2342 3520 1798 3533 
L 1798 2406 
Q 2170 2566 2496 2726 
Q 2477 2630 2477 2492 
Q 2477 2355 2554 2195 
Q 2272 2112 1798 1914 
L 1798 154 
Q 1798 -205 1574 -352 
Q 1350 -499 685 -576 
Q 666 -301 474 58 
Q 621 45 822 45 
Q 1024 45 1158 115 
Q 1293 186 1293 352 
L 1293 1677 
Q 730 1389 454 1203 
Q 429 1542 326 1882 
Q 813 2016 1293 2202 
z
M 6067 3757 
Q 5722 3808 4506 3808 
L 3494 3808 
Q 3514 3264 3514 2829 
Q 3514 1530 3309 765 
Q 3104 0 2650 -608 
Q 2374 -384 2029 -307 
Q 2541 115 2761 812 
Q 2982 1510 2982 2829 
Q 2982 3469 2931 4346 
Q 3130 4288 4470 4288 
Q 5811 4288 6067 4346 
L 6067 3757 
z
" transform="scale(0.015625)"/>
        <path id="STHeiti-5c55" d="M 2694 1542 
L 2694 122 
Q 3213 397 3501 627 
Q 3501 358 3597 122 
Q 2560 -384 2374 -678 
Q 2195 -339 1971 -147 
Q 2106 -83 2160 13 
Q 2214 109 2214 326 
L 2214 1542 
L 1459 1542 
Q 1395 403 922 -550 
Q 704 -294 384 -198 
Q 781 397 880 953 
Q 979 1510 979 2412 
Q 979 3315 922 4979 
Q 1530 4915 3286 4915 
Q 5043 4915 5574 4979 
Q 5530 4723 5530 4288 
Q 5530 3853 5574 3501 
Q 5382 3526 5084 3526 
Q 4787 3526 4512 3520 
L 4512 2976 
Q 5171 2989 5542 3027 
L 5542 2522 
Q 5139 2573 4512 2573 
L 4512 1939 
Q 5722 1946 6016 2003 
L 6016 1472 
Q 5619 1542 3763 1542 
Q 3923 1094 4314 742 
Q 4794 1171 4973 1485 
Q 5062 1408 5232 1309 
Q 5402 1210 5472 1187 
Q 5542 1165 5542 1120 
Q 5542 1075 5465 1075 
Q 5389 1075 5181 940 
Q 4973 806 4666 538 
Q 5414 173 6150 160 
Q 5901 -102 5882 -467 
Q 4806 -237 4230 214 
Q 3654 666 3334 1542 
L 2694 1542 
z
M 5005 3930 
L 5005 4493 
L 1498 4493 
L 1498 3930 
L 5005 3930 
z
M 3091 2976 
L 4026 2976 
L 4026 3520 
L 3091 3520 
L 3091 2976 
z
M 2605 2566 
Q 2298 2560 1875 2522 
L 1875 3027 
Q 2163 2995 2605 2982 
L 2605 3520 
L 1498 3520 
Q 1510 2432 1485 1939 
L 2605 1939 
L 2605 2566 
z
M 4026 2573 
L 3091 2573 
L 3091 1939 
L 4026 1939 
L 4026 2573 
z
" transform="scale(0.015625)"/>
       </defs>
       <use xlink:href="#STHeiti-50a8"/>
       <use xlink:href="#STHeiti-80fd" transform="translate(99.999985 0)"/>
       <use xlink:href="#STHeiti-53ca" transform="translate(199.999969 0)"/>
       <use xlink:href="#STHeiti-65b0" transform="translate(299.999954 0)"/>
       <use xlink:href="#STHeiti-4e1a" transform="translate(399.999939 0)"/>
       <use xlink:href="#STHeiti-52a1" transform="translate(499.999924 0)"/>
       <use xlink:href="#STHeiti-5e02" transform="translate(599.999908 0)"/>
       <use xlink:href="#STHeiti-573a" transform="translate(699.999893 0)"/>
       <use xlink:href="#STHeiti-6269" transform="translate(799.999878 0)"/>
       <use xlink:href="#STHeiti-5c55" transform="translate(899.999863 0)"/>
      </g>
     </g>
    </g>
    <g id="xtick_4">
     <g id="line2d_7">
      <path d="M 556.50505 256.205464 
L 556.50505 7.2 
" clip-path="url(#p0025726766)" style="fill: none; stroke: #b0b0b0; stroke-opacity: 0.3; stroke-width: 0.8; stroke-linecap: square"/>
     </g>
     <g id="line2d_8">
      <g>
       <use xlink:href="#m929d8fcc46" x="556.50505" y="256.205464" style="stroke: #000000; stroke-width: 0.8"/>
      </g>
     </g>
     <g id="text_4">
      <!-- 星恒自身战略调整 -->
      <g transform="translate(486.552705 310.124195) rotate(-30) scale(0.1 -0.1)">
       <defs>
        <path id="STHeiti-661f" d="M 3590 166 
Q 4966 173 5907 230 
L 5907 -339 
Q 5158 -282 3292 -282 
Q 1427 -282 608 -346 
L 608 224 
Q 1466 166 3059 166 
L 3059 736 
Q 2086 736 1510 678 
L 1510 1210 
Q 2003 1165 3059 1158 
L 3059 1702 
L 1581 1702 
Q 1274 1274 934 941 
Q 768 1146 538 1286 
Q 1178 1779 1600 2662 
Q 1933 2464 2086 2426 
Q 2182 2400 2182 2374 
Q 2182 2349 2105 2313 
Q 2029 2278 1907 2144 
L 3059 2144 
L 3059 2758 
Q 1472 2758 1190 2726 
Q 1216 2835 1216 3174 
L 1216 4474 
Q 1216 4774 1190 4928 
Q 1568 4896 3251 4896 
Q 4934 4896 5312 4928 
Q 5286 4742 5286 4474 
L 5286 3174 
Q 5286 2867 5312 2726 
Q 5062 2758 3590 2758 
L 3590 2144 
Q 5229 2144 5504 2176 
L 5504 1677 
Q 5126 1702 3590 1702 
L 3590 1158 
Q 4768 1158 5306 1210 
L 5306 678 
Q 4685 736 3590 736 
L 3590 166 
z
M 4768 4051 
L 4768 4474 
L 1734 4474 
L 1734 4051 
L 4768 4051 
z
M 4768 3174 
L 4768 3642 
L 1734 3642 
L 1734 3174 
L 4768 3174 
z
" transform="scale(0.015625)"/>
        <path id="STHeiti-6052" d="M 1120 5126 
Q 1376 5082 1773 5082 
Q 1920 5082 1920 5037 
Q 1920 4992 1811 4921 
Q 1702 4851 1702 4576 
L 1702 506 
Q 1702 64 1766 -653 
L 1120 -653 
Q 1184 -109 1184 512 
L 1184 4115 
Q 1184 4768 1120 5126 
z
M 5997 4282 
Q 5402 4346 4278 4346 
Q 3155 4346 2560 4282 
L 2560 4858 
Q 3194 4800 4282 4800 
Q 5370 4800 5997 4858 
L 5997 4282 
z
M 2624 2822 
L 2125 2669 
Q 2022 3277 1856 3731 
L 2291 3885 
Q 2419 3379 2624 2822 
z
M 2829 3162 
Q 2829 3482 2784 3776 
Q 3142 3725 4265 3725 
Q 5389 3725 5734 3776 
Q 5683 3520 5683 3162 
L 5683 1549 
Q 5683 1190 5722 883 
Q 5114 928 4214 928 
Q 3315 928 2790 883 
Q 2829 1190 2829 1542 
L 2829 3162 
z
M 3315 2534 
L 5152 2534 
L 5152 3277 
L 3315 3277 
L 3315 2534 
z
M 5152 2131 
L 3315 2131 
L 3315 1338 
L 5152 1338 
L 5152 2131 
z
M 960 3757 
Q 909 2854 762 2010 
L 205 2061 
Q 448 2835 448 3757 
L 960 3757 
z
M 6138 -352 
Q 5440 -294 4198 -294 
Q 2957 -294 2266 -352 
L 2266 224 
Q 2925 160 4201 160 
Q 5478 160 6138 224 
L 6138 -352 
z
" transform="scale(0.015625)"/>
        <path id="STHeiti-81ea" d="M 1837 38 
L 1837 -602 
L 1222 -602 
Q 1280 -128 1280 435 
L 1280 3776 
Q 1280 4147 1254 4326 
Q 1498 4301 2426 4288 
Q 2592 4685 2675 5280 
Q 3110 5139 3392 5107 
Q 3475 5094 3475 5068 
Q 3475 5043 3398 4979 
Q 3283 4877 2950 4288 
L 3994 4288 
Q 4992 4288 5453 4326 
Q 5427 4166 5427 3776 
L 5427 435 
Q 5427 -38 5485 -499 
L 4851 -499 
L 4851 38 
L 1837 38 
z
M 4851 3040 
L 4851 3846 
L 1837 3846 
L 1837 3040 
L 4851 3040 
z
M 4851 1824 
L 4851 2598 
L 1837 2598 
L 1837 1824 
L 4851 1824 
z
M 4851 512 
L 4851 1389 
L 1837 1389 
L 1837 512 
L 4851 512 
z
" transform="scale(0.015625)"/>
        <path id="STHeiti-8eab" d="M 2470 4550 
Q 2637 4934 2682 5318 
Q 3104 5216 3373 5190 
Q 3469 5178 3469 5142 
Q 3469 5107 3398 5088 
Q 3328 5069 3241 4966 
Q 3155 4864 2918 4550 
L 4128 4550 
Q 4621 4550 5094 4595 
Q 5050 4358 5050 3942 
L 5050 2298 
Q 5453 2675 5645 2950 
Q 5766 2784 6029 2656 
Q 6138 2605 6138 2576 
Q 6138 2547 6061 2509 
Q 5958 2451 5050 1747 
L 5050 0 
Q 5050 -205 4963 -313 
Q 4877 -422 4633 -489 
Q 4390 -557 3866 -614 
Q 3821 -205 3565 13 
Q 3814 -26 4035 -26 
Q 4256 -26 4390 44 
Q 4525 115 4525 237 
L 4525 1350 
Q 3763 806 2780 304 
Q 1798 -198 960 -499 
Q 781 -198 512 13 
Q 2010 314 3802 1357 
Q 1376 1357 710 1280 
L 710 1818 
Q 1197 1779 1581 1779 
L 1581 3942 
Q 1581 4307 1530 4595 
Q 1997 4550 2470 4550 
z
M 2086 3616 
L 4525 3616 
L 4525 4147 
L 2086 4147 
L 2086 3616 
z
M 4525 3232 
L 2086 3232 
L 2086 2688 
L 4525 2688 
L 4525 3232 
z
M 4525 1843 
L 4525 2304 
L 2086 2304 
L 2086 1773 
L 4435 1773 
L 4525 1843 
z
" transform="scale(0.015625)"/>
        <path id="STHeiti-6218" d="M 3507 2874 
Q 2963 2771 2618 2656 
L 2515 3194 
Q 2899 3219 3462 3302 
Q 3405 4038 3354 5280 
Q 3590 5229 3846 5229 
L 4038 5235 
Q 4102 5235 4102 5203 
Q 4102 5171 4038 5088 
Q 3910 4928 3910 4237 
Q 3910 3872 3949 3386 
L 5037 3571 
Q 5453 3635 5856 3776 
L 5952 3245 
Q 5306 3187 5082 3149 
L 3987 2957 
Q 4102 2061 4378 1382 
Q 4787 1978 4941 2816 
Q 5037 2746 5203 2666 
Q 5370 2586 5472 2566 
Q 5574 2547 5574 2521 
Q 5574 2496 5507 2451 
Q 5440 2406 5286 2042 
Q 5056 1459 4634 915 
Q 5178 102 5357 102 
Q 5440 102 5485 262 
Q 5530 422 5549 774 
Q 5715 448 6086 339 
Q 5850 -544 5587 -544 
Q 5280 -544 4998 -323 
Q 4717 -102 4301 525 
Q 3597 -147 2592 -627 
Q 2419 -346 2086 -218 
Q 3200 109 4038 960 
Q 3661 1741 3507 2874 
z
M 992 480 
L 992 -58 
L 435 -58 
Q 493 358 493 742 
L 493 1696 
Q 493 2131 448 2490 
Q 653 2451 1216 2445 
L 1216 4147 
Q 1216 4704 1133 5114 
Q 1421 5050 1638 5050 
L 1843 5062 
Q 1894 5062 1894 5033 
Q 1894 5005 1840 4950 
Q 1786 4896 1754 4758 
Q 1722 4621 1722 4474 
L 1722 4064 
Q 2451 4070 2874 4128 
L 2874 3546 
Q 2464 3584 1722 3590 
L 1722 2445 
Q 2528 2445 2707 2490 
Q 2662 2208 2662 1696 
L 2662 979 
Q 2662 582 2720 179 
L 2170 179 
L 2170 480 
L 992 480 
z
M 2170 877 
L 2170 2048 
L 992 2048 
L 992 877 
L 2170 877 
z
M 5466 4192 
L 4922 3898 
Q 4691 4365 4403 4704 
L 4902 4960 
Q 5222 4486 5466 4192 
z
" transform="scale(0.015625)"/>
        <path id="STHeiti-7565" d="M 3968 4461 
L 5702 4461 
Q 5350 3405 4736 2758 
Q 5280 2368 6074 2298 
Q 5850 2016 5779 1715 
L 5504 1811 
Q 5459 1594 5459 1306 
L 5459 250 
Q 5459 -205 5504 -589 
L 4966 -589 
L 4966 -96 
L 3795 -96 
L 3795 -608 
L 3290 -608 
Q 3341 -198 3341 205 
L 3341 1306 
Q 3341 1574 3302 1766 
Q 3174 1702 3117 1670 
Q 3014 1888 2867 2080 
Q 3450 2310 4051 2758 
Q 3738 3136 3571 3661 
Q 3456 3437 3245 3104 
Q 3078 3258 2842 3341 
Q 3398 3968 3725 5197 
Q 4013 5043 4269 4992 
Q 4352 4979 4352 4944 
Q 4352 4909 4269 4864 
Q 4141 4781 3968 4461 
z
M 4397 3046 
Q 4781 3456 5056 4064 
L 3834 4064 
Q 4013 3462 4397 3046 
z
M 4371 2432 
Q 3891 2054 3392 1811 
Q 3744 1773 4461 1773 
Q 5178 1773 5472 1818 
Q 4794 2080 4371 2432 
z
M 4966 314 
L 4966 1357 
L 3795 1357 
L 3795 314 
L 4966 314 
z
M 1043 723 
L 1043 -160 
L 550 -160 
Q 602 288 602 768 
L 602 3885 
Q 602 4294 557 4576 
Q 954 4512 1648 4512 
Q 2342 4512 2816 4576 
Q 2778 4339 2778 3885 
L 2778 1126 
Q 2778 608 2822 198 
L 2323 198 
L 2323 723 
L 1043 723 
z
M 1510 4102 
L 1043 4102 
L 1043 2797 
L 1510 2797 
L 1510 4102 
z
M 2323 2797 
L 2323 4102 
L 1882 4102 
L 1882 2797 
L 2323 2797 
z
M 2323 1120 
L 2323 2413 
L 1882 2413 
L 1882 1120 
L 2323 1120 
z
M 1043 2413 
L 1043 1120 
L 1510 1120 
L 1510 2413 
L 1043 2413 
z
" transform="scale(0.015625)"/>
        <path id="STHeiti-8c03" d="M 1786 4173 
L 1261 3859 
Q 1030 4384 749 4813 
L 1235 5088 
Q 1478 4698 1786 4173 
z
M 3750 3379 
Q 3347 3373 3110 3334 
L 3110 3789 
Q 3277 3763 3750 3750 
L 3750 4422 
L 2771 4422 
L 2771 2362 
Q 2771 1261 2716 877 
Q 2662 493 2547 214 
Q 2432 -64 2157 -525 
Q 1946 -365 1606 -301 
Q 1933 122 2067 416 
Q 2202 710 2243 1136 
Q 2285 1562 2285 2464 
L 2285 4890 
Q 3027 4832 4025 4832 
Q 5024 4832 5798 4890 
Q 5747 4499 5747 3578 
L 5747 58 
Q 5747 -224 5696 -333 
Q 5645 -442 5478 -490 
Q 5312 -538 4845 -595 
Q 4723 -262 4544 19 
Q 4800 0 4950 0 
Q 5101 0 5174 32 
Q 5248 64 5248 186 
L 5248 4422 
L 4224 4422 
L 4224 3750 
Q 4653 3763 4902 3789 
L 4902 3334 
Q 4678 3366 4224 3379 
L 4224 2726 
Q 4704 2739 4992 2765 
L 4992 2323 
Q 4531 2362 4006 2362 
Q 3482 2362 3021 2323 
L 3021 2765 
Q 3290 2739 3750 2726 
L 3750 3379 
z
M 2189 1062 
L 1504 109 
Q 1421 -13 1318 -147 
Q 1216 -282 1178 -352 
Q 966 -51 787 122 
Q 890 218 957 381 
Q 1024 544 1024 672 
L 1024 2803 
Q 595 2803 294 2771 
L 294 3354 
Q 634 3315 989 3315 
Q 1344 3315 1594 3354 
Q 1530 3053 1530 2534 
L 1530 794 
Q 1843 1222 2035 1562 
Q 2125 1184 2189 1062 
z
M 4851 397 
Q 4538 429 4022 429 
Q 3507 429 3187 397 
Q 3213 710 3213 1123 
Q 3213 1536 3187 1926 
Q 3507 1894 4064 1894 
Q 4621 1894 4851 1926 
Q 4826 1555 4826 1116 
Q 4826 678 4851 397 
z
M 4378 806 
L 4378 1510 
L 3661 1510 
L 3661 806 
L 4378 806 
z
" transform="scale(0.015625)"/>
        <path id="STHeiti-6574" d="M 4659 2509 
Q 4307 2176 3712 1920 
Q 3616 2144 3398 2285 
Q 3994 2496 4352 2797 
Q 4096 3098 3949 3450 
L 4314 3603 
Q 4435 3302 4621 3078 
Q 4928 3482 5011 4051 
L 4224 4051 
Q 4038 3654 3738 3226 
Q 3571 3354 3386 3398 
Q 3974 4230 4090 5190 
Q 4416 5082 4627 5056 
Q 4704 5043 4704 5014 
Q 4704 4986 4621 4922 
Q 4563 4883 4390 4448 
L 5216 4448 
Q 5722 4448 5939 4486 
L 5939 4026 
Q 5766 4045 5485 4051 
Q 5325 3309 4941 2810 
Q 5318 2573 6042 2458 
Q 5824 2291 5734 1939 
Q 5101 2157 4659 2509 
z
M 1830 2810 
Q 1414 2054 762 1651 
Q 602 1856 365 1939 
Q 1075 2253 1472 2835 
Q 896 2835 698 2822 
Q 736 3027 736 3344 
Q 736 3661 698 3885 
Q 1088 3859 1830 3859 
L 1830 4250 
Q 986 4250 544 4205 
L 544 4653 
Q 979 4602 1830 4602 
Q 1830 5043 1786 5184 
Q 1971 5158 2106 5158 
L 2291 5165 
Q 2355 5165 2355 5139 
Q 2355 5114 2294 5050 
Q 2234 4986 2234 4602 
Q 2976 4602 3437 4640 
L 3437 4205 
Q 3008 4243 2234 4250 
L 2234 3859 
Q 2970 3859 3354 3885 
Q 3328 3597 3328 3334 
Q 3328 3072 3354 2810 
Q 2976 2835 2234 2835 
Q 2234 2291 2291 1939 
L 1773 1939 
Q 1830 2278 1830 2810 
z
M 2234 3558 
L 2234 3136 
L 2925 3136 
L 2925 3558 
L 2234 3558 
z
M 1830 3136 
L 1830 3558 
L 1126 3558 
L 1126 3136 
L 1830 3136 
z
M 3302 2227 
L 2989 1939 
Q 2720 2246 2374 2458 
L 2682 2707 
Q 3104 2394 3302 2227 
z
M 3424 595 
L 3424 77 
Q 4928 77 5914 128 
L 5914 -397 
Q 4870 -346 3225 -346 
Q 1581 -346 538 -397 
L 538 128 
L 1626 90 
L 1626 474 
Q 1626 877 1587 1088 
Q 1670 1056 2138 1056 
Q 2202 1056 2202 1030 
Q 2202 1005 2157 960 
Q 2080 883 2080 614 
L 2080 77 
L 2963 77 
L 2963 1402 
Q 1709 1389 1126 1350 
L 1126 1818 
Q 1824 1773 3133 1773 
Q 4442 1773 5331 1818 
L 5331 1350 
Q 4563 1402 3424 1402 
L 3424 966 
Q 4928 966 5222 992 
L 5222 563 
Q 4634 595 3424 595 
z
" transform="scale(0.015625)"/>
       </defs>
       <use xlink:href="#STHeiti-661f"/>
       <use xlink:href="#STHeiti-6052" transform="translate(99.999985 0)"/>
       <use xlink:href="#STHeiti-81ea" transform="translate(199.999969 0)"/>
       <use xlink:href="#STHeiti-8eab" transform="translate(299.999954 0)"/>
       <use xlink:href="#STHeiti-6218" transform="translate(399.999939 0)"/>
       <use xlink:href="#STHeiti-7565" transform="translate(499.999924 0)"/>
       <use xlink:href="#STHeiti-8c03" transform="translate(599.999908 0)"/>
       <use xlink:href="#STHeiti-6574" transform="translate(699.999893 0)"/>
      </g>
     </g>
    </g>
    <g id="xtick_5">
     <g id="line2d_9">
      <path d="M 703.535701 256.205464 
L 703.535701 7.2 
" clip-path="url(#p0025726766)" style="fill: none; stroke: #b0b0b0; stroke-opacity: 0.3; stroke-width: 0.8; stroke-linecap: square"/>
     </g>
     <g id="line2d_10">
      <g>
       <use xlink:href="#m929d8fcc46" x="703.535701" y="256.205464" style="stroke: #000000; stroke-width: 0.8"/>
      </g>
     </g>
     <g id="text_5">
      <!-- 南亚市场波动 -->
      <g transform="translate(650.903864 300.149905) rotate(-30) scale(0.1 -0.1)">
       <defs>
        <path id="STHeiti-5357" d="M 3488 4550 
Q 4966 4550 5978 4614 
L 5978 4026 
Q 5107 4090 3430 4090 
L 3360 3456 
Q 5274 3456 5651 3533 
Q 5600 3174 5600 2586 
L 5600 134 
Q 5600 -160 5536 -288 
Q 5472 -416 5251 -486 
Q 5030 -557 4493 -621 
Q 4493 -480 4441 -285 
Q 4390 -90 4307 58 
Q 4518 26 4666 26 
Q 5069 26 5069 294 
L 5069 3014 
L 1414 3014 
L 1414 -538 
L 819 -538 
Q 883 -13 883 352 
L 883 2586 
Q 883 3174 832 3533 
Q 1306 3462 2848 3456 
Q 2880 3802 2886 4090 
Q 1299 4077 474 4026 
L 474 4614 
Q 1318 4557 2893 4550 
Q 2893 4915 2854 5210 
Q 3219 5139 3610 5139 
Q 3686 5139 3686 5107 
Q 3686 5075 3628 5040 
Q 3571 5005 3548 4912 
Q 3526 4819 3488 4550 
z
M 3386 1120 
Q 4134 1120 4653 1171 
L 4653 672 
Q 4205 710 3386 717 
Q 3386 96 3430 -384 
L 2842 -384 
Q 2886 96 2886 717 
Q 2131 710 1728 672 
L 1728 1171 
Q 2253 1126 2886 1120 
L 2886 1619 
Q 2278 1613 1843 1568 
L 1843 2054 
Q 2566 2003 3430 2003 
Q 3629 2502 3674 2982 
Q 4051 2778 4237 2752 
Q 4314 2739 4314 2713 
Q 4314 2688 4250 2656 
Q 4186 2624 4112 2499 
Q 4038 2374 3872 2016 
Q 4288 2022 4589 2054 
L 4589 1568 
Q 4218 1613 3386 1619 
L 3386 1120 
z
M 2957 2298 
L 2458 2118 
Q 2330 2458 2163 2720 
L 2675 2886 
Q 2752 2701 2957 2298 
z
" transform="scale(0.015625)"/>
        <path id="STHeiti-4e9a" d="M 4096 314 
Q 5440 301 6029 371 
L 6029 -250 
Q 5318 -192 3158 -192 
Q 998 -192 480 -250 
L 480 371 
Q 1210 294 2317 314 
L 2317 4269 
Q 1184 4256 762 4211 
L 762 4806 
Q 1261 4749 3165 4749 
Q 5069 4749 5709 4806 
L 5709 4211 
Q 5222 4269 4096 4269 
L 4096 314 
z
M 2854 314 
L 3558 314 
L 3558 4269 
L 2854 4269 
L 2854 314 
z
M 5082 3610 
Q 5395 3475 5683 3418 
Q 5786 3398 5786 3369 
Q 5786 3341 5696 3264 
Q 5606 3187 5449 2844 
Q 5293 2502 4819 1286 
Q 4563 1427 4269 1478 
Q 4774 2419 5082 3610 
z
M 1946 1446 
L 1357 1254 
Q 1190 2400 813 3290 
L 1312 3456 
Q 1715 2362 1946 1446 
z
" transform="scale(0.015625)"/>
        <path id="STHeiti-6ce2" d="M 2989 2253 
L 2835 2253 
Q 2797 1357 2601 765 
Q 2406 173 1946 -525 
Q 1862 -429 1696 -365 
Q 1530 -301 1402 -301 
Q 2029 442 2179 1206 
Q 2330 1971 2330 2732 
Q 2330 3494 2298 4326 
Q 2810 4288 3782 4294 
Q 3770 4966 3706 5261 
Q 4192 5197 4333 5197 
Q 4474 5197 4474 5181 
Q 4474 5165 4416 5117 
Q 4358 5069 4320 4851 
Q 4282 4634 4275 4294 
Q 5254 4314 5920 4397 
L 5606 3219 
L 5075 3315 
L 5248 3853 
L 4275 3853 
L 4275 2701 
Q 5203 2701 5517 2758 
Q 5146 1222 4557 499 
Q 5216 115 6080 19 
Q 5843 -230 5754 -608 
Q 4973 -390 4218 147 
Q 3603 -422 3002 -710 
Q 2867 -467 2566 -307 
Q 3130 -134 3846 461 
Q 3386 1011 2989 2253 
z
M 3782 2701 
L 3782 3853 
L 2842 3853 
Q 2854 3514 2854 3242 
Q 2854 2970 2848 2701 
L 3782 2701 
z
M 3488 2253 
Q 3718 1344 4192 787 
Q 4570 1216 4870 2253 
L 3488 2253 
z
M 1997 4326 
L 1645 3859 
Q 1210 4275 666 4608 
L 1005 5024 
Q 1530 4710 1997 4326 
z
M 1734 2976 
L 1427 2451 
Q 1248 2586 893 2765 
Q 538 2944 288 3021 
L 576 3520 
Q 1325 3251 1734 2976 
z
M 1747 1664 
Q 1613 1446 1389 665 
Q 1165 -115 1120 -454 
Q 762 -262 461 -173 
Q 595 13 851 723 
Q 1107 1434 1254 2010 
Q 1472 1805 1747 1664 
z
" transform="scale(0.015625)"/>
        <path id="STHeiti-52a8" d="M 3994 3917 
Q 4006 4192 4006 4569 
Q 4006 4947 3955 5222 
Q 4288 5133 4627 5133 
Q 4736 5133 4736 5101 
Q 4736 5069 4672 4998 
Q 4608 4928 4566 4707 
Q 4525 4486 4493 3923 
Q 5523 3955 5939 4026 
Q 5856 3706 5837 3245 
L 5728 806 
Q 5702 294 5616 51 
Q 5530 -192 5312 -304 
Q 5094 -416 4614 -493 
Q 4550 -109 4262 205 
Q 4486 186 4713 186 
Q 4941 186 5062 278 
Q 5184 371 5197 627 
L 5363 3501 
L 4467 3501 
Q 4378 1638 4058 896 
Q 3738 154 2784 -557 
Q 2586 -294 2163 -173 
Q 3187 346 3523 954 
Q 3859 1562 3968 3494 
Q 3392 3475 2874 3411 
L 2874 3962 
Q 3245 3917 3994 3917 
z
M 2803 3994 
Q 2426 4045 1712 4045 
Q 998 4045 698 3994 
L 698 4557 
Q 986 4499 1712 4499 
Q 2438 4499 2803 4550 
L 2803 3994 
z
M 1350 2682 
Q 614 2662 358 2630 
L 358 3155 
Q 749 3098 1593 3098 
Q 2438 3098 2957 3149 
L 2957 2630 
Q 2470 2675 1907 2682 
Q 1363 1242 1126 890 
L 2445 1197 
Q 2266 1632 2138 1830 
L 2592 2042 
Q 2758 1581 3194 723 
L 2682 480 
Q 2656 602 2579 826 
Q 1030 448 659 141 
Q 570 461 384 768 
Q 595 851 723 1049 
Q 851 1248 1059 1789 
Q 1267 2330 1350 2682 
z
" transform="scale(0.015625)"/>
       </defs>
       <use xlink:href="#STHeiti-5357"/>
       <use xlink:href="#STHeiti-4e9a" transform="translate(99.999985 0)"/>
       <use xlink:href="#STHeiti-5e02" transform="translate(199.999969 0)"/>
       <use xlink:href="#STHeiti-573a" transform="translate(299.999954 0)"/>
       <use xlink:href="#STHeiti-6ce2" transform="translate(399.999939 0)"/>
       <use xlink:href="#STHeiti-52a8" transform="translate(499.999924 0)"/>
      </g>
     </g>
    </g>
   </g>
   <g id="matplotlib.axis_2">
    <g id="ytick_1">
     <g id="line2d_11">
      <path d="M 93.358498 248.26567 
L 703.535701 248.26567 
" clip-path="url(#p0025726766)" style="fill: none; stroke: #b0b0b0; stroke-opacity: 0.3; stroke-width: 0.8; stroke-linecap: square"/>
     </g>
     <g id="line2d_12">
      <defs>
       <path id="m6f248701ef" d="M 0 0 
L -3.5 0 
" style="stroke: #000000; stroke-width: 0.8"/>
      </defs>
      <g>
       <use xlink:href="#m6f248701ef" x="93.358498" y="248.26567" style="stroke: #000000; stroke-width: 0.8"/>
      </g>
     </g>
     <g id="text_6">
      <!-- 0 -->
      <g transform="translate(80.817873 252.245357) scale(0.1 -0.1)">
       <use xlink:href="#STHeiti-30"/>
      </g>
     </g>
    </g>
    <g id="ytick_2">
     <g id="line2d_13">
      <path d="M 93.358498 214.479311 
L 703.535701 214.479311 
" clip-path="url(#p0025726766)" style="fill: none; stroke: #b0b0b0; stroke-opacity: 0.3; stroke-width: 0.8; stroke-linecap: square"/>
     </g>
     <g id="line2d_14">
      <g>
       <use xlink:href="#m6f248701ef" x="93.358498" y="214.479311" style="stroke: #000000; stroke-width: 0.8"/>
      </g>
     </g>
     <g id="text_7">
      <!-- 20 -->
      <g transform="translate(75.277248 218.458998) scale(0.1 -0.1)">
       <use xlink:href="#STHeiti-32"/>
       <use xlink:href="#STHeiti-30" transform="translate(55.399994 0)"/>
      </g>
     </g>
    </g>
    <g id="ytick_3">
     <g id="line2d_15">
      <path d="M 93.358498 180.692952 
L 703.535701 180.692952 
" clip-path="url(#p0025726766)" style="fill: none; stroke: #b0b0b0; stroke-opacity: 0.3; stroke-width: 0.8; stroke-linecap: square"/>
     </g>
     <g id="line2d_16">
      <g>
       <use xlink:href="#m6f248701ef" x="93.358498" y="180.692952" style="stroke: #000000; stroke-width: 0.8"/>
      </g>
     </g>
     <g id="text_8">
      <!-- 40 -->
      <g transform="translate(75.277248 184.67264) scale(0.1 -0.1)">
       <defs>
        <path id="STHeiti-34" d="M 2726 5094 
L 2816 5094 
L 2816 1894 
L 3373 1894 
L 3373 1453 
L 2816 1453 
L 2816 384 
L 2362 384 
L 2362 1453 
L 160 1453 
L 2726 5094 
z
M 2362 1894 
L 2362 3808 
L 1005 1894 
L 2362 1894 
z
" transform="scale(0.015625)"/>
       </defs>
       <use xlink:href="#STHeiti-34"/>
       <use xlink:href="#STHeiti-30" transform="translate(55.399994 0)"/>
      </g>
     </g>
    </g>
    <g id="ytick_4">
     <g id="line2d_17">
      <path d="M 93.358498 146.906593 
L 703.535701 146.906593 
" clip-path="url(#p0025726766)" style="fill: none; stroke: #b0b0b0; stroke-opacity: 0.3; stroke-width: 0.8; stroke-linecap: square"/>
     </g>
     <g id="line2d_18">
      <g>
       <use xlink:href="#m6f248701ef" x="93.358498" y="146.906593" style="stroke: #000000; stroke-width: 0.8"/>
      </g>
     </g>
     <g id="text_9">
      <!-- 60 -->
      <g transform="translate(75.277248 150.886281) scale(0.1 -0.1)">
       <defs>
        <path id="STHeiti-36" d="M 2349 5094 
L 2726 4851 
L 1485 2970 
Q 1747 3059 1984 3059 
Q 2496 3059 2880 2652 
Q 3264 2246 3264 1660 
Q 3264 1075 2845 672 
Q 2426 269 1827 269 
Q 1229 269 829 678 
Q 429 1088 429 1677 
Q 429 1958 537 2256 
Q 646 2554 954 3014 
L 2349 5094 
z
M 2810 1683 
Q 2810 2086 2528 2368 
Q 2246 2650 1843 2650 
Q 1440 2650 1158 2368 
Q 877 2086 877 1683 
Q 877 1280 1161 998 
Q 1446 717 1843 717 
Q 2240 717 2525 998 
Q 2810 1280 2810 1683 
z
" transform="scale(0.015625)"/>
       </defs>
       <use xlink:href="#STHeiti-36"/>
       <use xlink:href="#STHeiti-30" transform="translate(55.399994 0)"/>
      </g>
     </g>
    </g>
    <g id="ytick_5">
     <g id="line2d_19">
      <path d="M 93.358498 113.120235 
L 703.535701 113.120235 
" clip-path="url(#p0025726766)" style="fill: none; stroke: #b0b0b0; stroke-opacity: 0.3; stroke-width: 0.8; stroke-linecap: square"/>
     </g>
     <g id="line2d_20">
      <g>
       <use xlink:href="#m6f248701ef" x="93.358498" y="113.120235" style="stroke: #000000; stroke-width: 0.8"/>
      </g>
     </g>
     <g id="text_10">
      <!-- 80 -->
      <g transform="translate(75.277248 117.099922) scale(0.1 -0.1)">
       <defs>
        <path id="STHeiti-38" d="M 2458 2906 
Q 3328 2477 3328 1702 
Q 3328 1088 2896 678 
Q 2464 269 1763 269 
Q 1062 269 640 678 
Q 218 1088 218 1664 
Q 218 2470 1107 2906 
Q 435 3264 435 3898 
Q 435 4371 828 4732 
Q 1222 5094 1779 5094 
Q 2336 5094 2726 4742 
Q 3117 4390 3117 3885 
Q 3117 3270 2458 2906 
z
M 2656 3904 
Q 2656 4211 2416 4432 
Q 2176 4653 1789 4653 
Q 1402 4653 1152 4432 
Q 902 4211 902 3897 
Q 902 3584 1174 3337 
Q 1446 3091 1792 3091 
Q 2138 3091 2397 3334 
Q 2656 3578 2656 3904 
z
M 2867 1696 
Q 2867 2086 2550 2380 
Q 2234 2675 1782 2675 
Q 1331 2675 1004 2371 
Q 678 2067 678 1654 
Q 678 1242 979 973 
Q 1280 704 1766 704 
Q 2253 704 2560 992 
Q 2867 1280 2867 1696 
z
" transform="scale(0.015625)"/>
       </defs>
       <use xlink:href="#STHeiti-38"/>
       <use xlink:href="#STHeiti-30" transform="translate(55.399994 0)"/>
      </g>
     </g>
    </g>
    <g id="ytick_6">
     <g id="line2d_21">
      <path d="M 93.358498 79.333876 
L 703.535701 79.333876 
" clip-path="url(#p0025726766)" style="fill: none; stroke: #b0b0b0; stroke-opacity: 0.3; stroke-width: 0.8; stroke-linecap: square"/>
     </g>
     <g id="line2d_22">
      <g>
       <use xlink:href="#m6f248701ef" x="93.358498" y="79.333876" style="stroke: #000000; stroke-width: 0.8"/>
      </g>
     </g>
     <g id="text_11">
      <!-- 100 -->
      <g transform="translate(69.736623 83.313563) scale(0.1 -0.1)">
       <use xlink:href="#STHeiti-31"/>
       <use xlink:href="#STHeiti-30" transform="translate(55.399994 0)"/>
       <use xlink:href="#STHeiti-30" transform="translate(110.799988 0)"/>
      </g>
     </g>
    </g>
    <g id="ytick_7">
     <g id="line2d_23">
      <path d="M 93.358498 45.547517 
L 703.535701 45.547517 
" clip-path="url(#p0025726766)" style="fill: none; stroke: #b0b0b0; stroke-opacity: 0.3; stroke-width: 0.8; stroke-linecap: square"/>
     </g>
     <g id="line2d_24">
      <g>
       <use xlink:href="#m6f248701ef" x="93.358498" y="45.547517" style="stroke: #000000; stroke-width: 0.8"/>
      </g>
     </g>
     <g id="text_12">
      <!-- 120 -->
      <g transform="translate(69.736623 49.527205) scale(0.1 -0.1)">
       <use xlink:href="#STHeiti-31"/>
       <use xlink:href="#STHeiti-32" transform="translate(55.399994 0)"/>
       <use xlink:href="#STHeiti-30" transform="translate(110.799988 0)"/>
      </g>
     </g>
    </g>
    <g id="ytick_8">
     <g id="line2d_25">
      <path d="M 93.358498 11.761158 
L 703.535701 11.761158 
" clip-path="url(#p0025726766)" style="fill: none; stroke: #b0b0b0; stroke-opacity: 0.3; stroke-width: 0.8; stroke-linecap: square"/>
     </g>
     <g id="line2d_26">
      <g>
       <use xlink:href="#m6f248701ef" x="93.358498" y="11.761158" style="stroke: #000000; stroke-width: 0.8"/>
      </g>
     </g>
     <g id="text_13">
      <!-- 140 -->
      <g transform="translate(69.736623 15.740846) scale(0.1 -0.1)">
       <use xlink:href="#STHeiti-31"/>
       <use xlink:href="#STHeiti-34" transform="translate(55.399994 0)"/>
       <use xlink:href="#STHeiti-30" transform="translate(110.799988 0)"/>
      </g>
     </g>
    </g>
   </g>
   <g id="line2d_27">
    <path d="M 115.413096 18.51843 
M 409.474398 222.925901 
L 556.50505 244.887034 
" clip-path="url(#p0025726766)" style="fill: none; stroke: #1a365d; stroke-width: 2; stroke-linecap: square"/>
    <defs>
     <path id="m2fbced8727" d="M 0 3 
C 0.795609 3 1.55874 2.683901 2.12132 2.12132 
C 2.683901 1.55874 3 0.795609 3 0 
C 3 -0.795609 2.683901 -1.55874 2.12132 -2.12132 
C 1.55874 -2.683901 0.795609 -3 0 -3 
C -0.795609 -3 -1.55874 -2.683901 -2.12132 -2.12132 
C -2.683901 -1.55874 -3 -0.795609 -3 0 
C -3 0.795609 -2.683901 1.55874 -2.12132 2.12132 
C -1.55874 2.683901 -0.795609 3 0 3 
z
" style="stroke: #1a365d"/>
    </defs>
    <g clip-path="url(#p0025726766)">
     <use xlink:href="#m2fbced8727" x="115.413096" y="18.51843" style="fill: #1a365d; stroke: #1a365d"/>
     <use xlink:href="#m2fbced8727" x="409.474398" y="222.925901" style="fill: #1a365d; stroke: #1a365d"/>
     <use xlink:href="#m2fbced8727" x="556.50505" y="244.887034" style="fill: #1a365d; stroke: #1a365d"/>
    </g>
   </g>
   <g id="patch_3">
    <path d="M 93.358498 256.205464 
L 93.358498 7.2 
" style="fill: none; stroke: #000000; stroke-width: 0.8; stroke-linejoin: miter; stroke-linecap: square"/>
   </g>
   <g id="patch_4">
    <path d="M 703.535701 256.205464 
L 703.535701 7.2 
" style="fill: none; stroke: #000000; stroke-width: 0.8; stroke-linejoin: miter; stroke-linecap: square"/>
   </g>
   <g id="patch_5">
    <path d="M 93.358498 256.205464 
L 703.535701 256.205464 
" style="fill: none; stroke: #000000; stroke-width: 0.8; stroke-linejoin: miter; stroke-linecap: square"/>
   </g>
   <g id="patch_6">
    <path d="M 93.358498 7.2 
L 703.535701 7.2 
" style="fill: none; stroke: #000000; stroke-width: 0.8; stroke-linejoin: miter; stroke-linecap: square"/>
   </g>
   <g id="legend_1">
    <g id="patch_7">
     <path d="M 650.435701 27.27 
L 697.235701 27.27 
Q 699.035701 27.27 699.035701 25.47 
L 699.035701 13.5 
Q 699.035701 11.7 697.235701 11.7 
L 650.435701 11.7 
Q 648.635701 11.7 648.635701 13.5 
L 648.635701 25.47 
Q 648.635701 27.27 650.435701 27.27 
z
" style="fill: #ffffff; opacity: 0.8; stroke: #cccccc; stroke-linejoin: miter"/>
    </g>
    <g id="line2d_28">
     <path d="M 652.235701 19.313437 
L 661.235701 19.313437 
L 670.235701 19.313437 
" style="fill: none; stroke: #1a365d; stroke-width: 2; stroke-linecap: square"/>
     <g>
      <use xlink:href="#m2fbced8727" x="661.235701" y="19.313437" style="fill: #1a365d; stroke: #1a365d"/>
     </g>
    </g>
    <g id="text_14">
     <!-- 说明 -->
     <g transform="translate(677.435701 22.463437) scale(0.09 -0.09)">
      <defs>
       <path id="STHeiti-8bf4" d="M 4186 3866 
Q 4550 4538 4717 5248 
Q 5114 5056 5408 4998 
Q 5491 4986 5491 4960 
Q 5491 4934 5360 4844 
Q 5229 4755 5078 4569 
Q 4928 4384 4621 3866 
Q 5242 3866 5568 3898 
Q 5549 3539 5549 2956 
Q 5549 2374 5568 2016 
Q 5235 2042 4755 2042 
L 4755 384 
Q 4755 154 4828 90 
Q 4902 26 5081 26 
Q 5261 26 5363 74 
Q 5466 122 5523 278 
Q 5581 435 5632 787 
Q 5843 557 6131 493 
Q 6022 70 5923 -106 
Q 5824 -282 5641 -339 
Q 5459 -397 5065 -397 
Q 4672 -397 4470 -310 
Q 4269 -224 4269 147 
L 4269 2042 
L 3744 2042 
Q 3738 1126 3456 550 
Q 3174 -26 2381 -589 
Q 2278 -435 1888 -224 
Q 2643 179 2950 675 
Q 3258 1171 3258 2042 
Q 2771 2029 2515 2016 
Q 2534 2368 2534 2957 
Q 2534 3546 2515 3898 
Q 2829 3866 4186 3866 
z
M 3066 3443 
L 3066 2464 
L 5050 2464 
L 5050 3443 
L 3066 3443 
z
M 2016 4090 
L 1472 3782 
Q 1254 4288 851 4819 
L 1350 5114 
Q 1587 4717 2016 4090 
z
M 3795 4243 
L 3309 4013 
Q 3142 4422 2784 4909 
L 3270 5114 
Q 3526 4640 3795 4243 
z
M 2413 954 
Q 1286 -237 1197 -378 
Q 979 -90 768 51 
Q 922 186 1011 416 
Q 1101 646 1101 870 
L 1101 2912 
Q 544 2912 288 2893 
L 288 3437 
Q 563 3398 1036 3398 
Q 1510 3398 1651 3411 
Q 1587 3072 1587 2624 
L 1587 685 
Q 1907 1062 2157 1395 
Q 2253 1094 2413 954 
z
" transform="scale(0.015625)"/>
       <path id="STHeiti-660e" d="M 3757 1530 
Q 3680 339 2720 -627 
Q 2490 -403 2170 -230 
Q 3251 493 3251 2106 
L 3251 4032 
Q 3251 4640 3219 4838 
Q 3699 4813 4457 4813 
Q 5216 4813 5702 4838 
Q 5664 4653 5664 4032 
L 5664 -19 
Q 5664 -186 5593 -285 
Q 5523 -384 5289 -454 
Q 5056 -525 4570 -576 
Q 4544 -198 4288 70 
Q 4493 51 4678 51 
Q 4864 51 4995 102 
Q 5126 154 5126 365 
L 5126 1530 
L 3757 1530 
z
M 5126 3392 
L 5126 4339 
L 3770 4339 
L 3770 3392 
L 5126 3392 
z
M 3770 2918 
L 3770 1990 
L 5126 1990 
L 5126 2918 
L 3770 2918 
z
M 1254 1018 
L 1254 154 
L 704 154 
Q 723 576 723 1024 
L 723 4160 
Q 723 4666 717 4806 
Q 896 4755 1667 4755 
Q 2438 4755 2605 4806 
Q 2586 4557 2586 4160 
L 2586 1472 
Q 2586 1075 2618 621 
L 2093 621 
L 2093 1018 
L 1254 1018 
z
M 2093 3155 
L 2093 4294 
L 1254 4294 
L 1254 3155 
L 2093 3155 
z
M 2093 1478 
L 2093 2701 
L 1254 2701 
L 1254 1478 
L 2093 1478 
z
" transform="scale(0.015625)"/>
      </defs>
      <use xlink:href="#STHeiti-8bf4"/>
      <use xlink:href="#STHeiti-660e" transform="translate(99.999985 0)"/>
     </g>
    </g>
   </g>
  </g>
 </g>
 <defs>
  <clipPath id="p0025726766">
   <rect x="93.358498" y="7.2" width="610.177203" height="249.005464"/>
  </clipPath>
 </defs>
</svg>
