<?xml version="1.0" encoding="utf-8" standalone="no"?>
<!DOCTYPE svg PUBLIC "-//W3C//DTD SVG 1.1//EN"
  "http://www.w3.org/Graphics/SVG/1.1/DTD/svg11.dtd">
<svg xmlns:xlink="http://www.w3.org/1999/xlink" width="712.739768pt" height="351.584582pt" viewBox="0 0 712.739768 351.584582" xmlns="http://www.w3.org/2000/svg" version="1.1">
 <metadata>
  <rdf:RDF xmlns:dc="http://purl.org/dc/elements/1.1/" xmlns:cc="http://creativecommons.org/ns#" xmlns:rdf="http://www.w3.org/1999/02/22-rdf-syntax-ns#">
   <cc:Work>
    <dc:type rdf:resource="http://purl.org/dc/dcmitype/StillImage"/>
    <dc:date>2026-06-05T10:58:58.307423</dc:date>
    <dc:format>image/svg+xml</dc:format>
    <dc:creator>
     <cc:Agent>
      <dc:title>Matplotlib v3.10.9, https://matplotlib.org/</dc:title>
     </cc:Agent>
    </dc:creator>
   </cc:Work>
  </rdf:RDF>
 </metadata>
 <defs>
  <style type="text/css">*{stroke-linejoin: round; stroke-linecap: butt}</style>
 </defs>
 <g id="figure_1">
  <g id="patch_1">
   <path d="M 0 351.584582 
L 712.739768 351.584582 
L 712.739768 0 
L 0 0 
z
" style="fill: #ffffff"/>
  </g>
  <g id="axes_1">
   <g id="patch_2">
    <path d="M 74.090059 286.30807 
L 705.539768 286.30807 
L 705.539768 18.159375 
L 74.090059 18.159375 
z
" style="fill: #fafafa"/>
   </g>
   <g id="matplotlib.axis_1">
    <g id="xtick_1">
     <g id="line2d_1">
      <path d="M 74.090059 286.30807 
L 74.090059 18.159375 
" clip-path="url(#p969b136dfb)" style="fill: none; stroke: #b0b0b0; stroke-opacity: 0.3; stroke-width: 0.8; stroke-linecap: square"/>
     </g>
     <g id="line2d_2">
      <defs>
       <path id="m5f51b1d9ee" d="M 0 0 
L 0 3.5 
" style="stroke: #000000; stroke-width: 0.8"/>
      </defs>
      <g>
       <use xlink:href="#m5f51b1d9ee" x="74.090059" y="286.30807" style="stroke: #000000; stroke-width: 0.8"/>
      </g>
     </g>
     <g id="text_1">
      <!-- 2022(处罚2023) -->
      <g transform="translate(11.320312 336.297785) rotate(-30) scale(0.1 -0.1)">
       <defs>
        <path id="STHeiti-32" d="M 742 3539 
L 301 3539 
Q 333 4243 768 4668 
Q 1203 5094 1820 5094 
Q 2438 5094 2844 4694 
Q 3251 4294 3251 3718 
Q 3251 3290 3024 2925 
Q 2797 2560 2336 2061 
L 1190 826 
L 3315 826 
L 3315 384 
L 192 384 
L 1946 2278 
Q 2406 2778 2604 3066 
Q 2803 3354 2803 3725 
Q 2803 4096 2512 4377 
Q 2221 4659 1789 4659 
Q 1357 4659 1072 4368 
Q 787 4077 742 3539 
z
" transform="scale(0.015625)"/>
        <path id="STHeiti-30" d="M 1747 269 
Q 1005 269 605 880 
Q 205 1491 205 2681 
Q 205 3872 605 4483 
Q 1005 5094 1741 5094 
Q 2477 5094 2909 4470 
Q 3341 3846 3341 2681 
Q 3341 1517 2905 893 
Q 2470 269 1747 269 
z
M 1760 4659 
Q 1229 4659 934 4147 
Q 640 3635 640 2669 
Q 640 685 1760 685 
Q 2304 685 2608 1206 
Q 2912 1728 2912 2681 
Q 2912 3635 2598 4147 
Q 2285 4659 1760 4659 
z
" transform="scale(0.015625)"/>
        <path id="STHeiti-28" d="M 1466 5370 
L 1978 5370 
Q 1651 4704 1475 3865 
Q 1299 3027 1299 2176 
Q 1299 506 1824 -762 
L 1338 -762 
Q 832 480 832 2118 
Q 832 3891 1466 5370 
z
" transform="scale(0.015625)"/>
        <path id="STHeiti-5904" d="M 3770 5184 
Q 4077 5126 4410 5126 
Q 4493 5126 4493 5091 
Q 4493 5056 4416 5017 
Q 4339 4979 4339 4806 
L 4339 1363 
Q 4339 774 4397 378 
L 3782 378 
Q 3827 736 3827 1363 
L 3827 4390 
Q 3827 4966 3770 5184 
z
M 1728 4026 
L 2579 4026 
Q 3059 4026 3405 4038 
Q 3085 1926 2342 915 
Q 2701 525 3293 349 
Q 3885 173 4947 173 
Q 5446 173 6099 211 
Q 5946 19 5862 -454 
Q 4243 -474 3388 -240 
Q 2534 -6 2042 570 
Q 1491 0 832 -512 
Q 653 -256 269 -6 
Q 941 134 1766 941 
Q 1466 1421 1152 2598 
Q 966 2195 704 1786 
Q 480 1958 218 2086 
Q 659 2579 1004 3459 
Q 1350 4339 1466 5184 
Q 1926 4998 2032 4979 
Q 2138 4960 2138 4925 
Q 2138 4890 2080 4858 
Q 2022 4826 1955 4691 
Q 1888 4557 1846 4397 
Q 1805 4237 1728 4026 
z
M 2061 1306 
Q 2349 1760 2563 2390 
Q 2778 3021 2822 3571 
L 1568 3571 
Q 1395 3104 1203 2707 
L 1702 2739 
Q 1728 1958 2061 1306 
z
M 6061 2490 
L 5594 2150 
Q 5018 2854 4442 3405 
L 4826 3731 
Q 5357 3232 6061 2490 
z
" transform="scale(0.015625)"/>
        <path id="STHeiti-7f5a" d="M 5606 3110 
Q 4429 3162 3241 3162 
Q 2054 3162 890 3110 
Q 922 3507 922 3996 
Q 922 4486 890 4883 
Q 1856 4832 3245 4832 
Q 4634 4832 5606 4883 
Q 5574 4595 5574 4000 
Q 5574 3405 5606 3110 
z
M 5056 3565 
L 5056 4397 
L 4128 4397 
L 4128 3565 
L 5056 3565 
z
M 3686 3565 
L 3686 4397 
L 2746 4397 
L 2746 3565 
L 3686 3565 
z
M 2304 3565 
L 2304 4397 
L 1408 4397 
L 1408 3565 
L 2304 3565 
z
M 2227 2477 
L 1830 2099 
Q 1510 2426 1075 2733 
L 1414 3078 
Q 1830 2822 2227 2477 
z
M 4909 2970 
Q 5082 2950 5242 2957 
L 5504 2957 
Q 5587 2957 5587 2915 
Q 5587 2874 5532 2845 
Q 5478 2816 5478 2746 
L 5478 192 
Q 5478 -186 5411 -336 
Q 5344 -486 5120 -550 
Q 4896 -614 4314 -659 
Q 4288 -346 4102 -45 
Q 4467 -90 4649 -90 
Q 4832 -90 4886 -13 
Q 4941 64 4941 282 
L 4941 2387 
Q 4941 2790 4909 2970 
z
M 3418 2624 
Q 3642 2592 3974 2592 
Q 4070 2592 4070 2544 
Q 4070 2496 4012 2477 
Q 3955 2458 3955 2381 
L 3955 973 
Q 3955 678 3981 525 
L 3418 525 
Q 3443 755 3443 973 
L 3443 2227 
Q 3443 2502 3418 2624 
z
M 2963 358 
L 1978 -218 
Q 1498 -499 1325 -691 
Q 1190 -365 979 -83 
Q 1446 45 1446 531 
L 1446 1491 
L 864 1491 
Q 589 1491 390 1466 
L 390 2029 
Q 646 1997 1164 1997 
Q 1683 1997 2054 2029 
Q 1971 1734 1971 1248 
L 1971 352 
Q 2643 768 2912 1005 
Q 2906 922 2906 758 
Q 2906 595 2963 358 
z
" transform="scale(0.015625)"/>
        <path id="STHeiti-33" d="M 845 3917 
L 378 3917 
Q 506 4486 867 4790 
Q 1229 5094 1750 5094 
Q 2272 5094 2659 4748 
Q 3046 4403 3046 3910 
Q 3046 3315 2458 2970 
Q 2861 2803 3081 2473 
Q 3302 2144 3302 1754 
Q 3302 1146 2857 707 
Q 2413 269 1734 269 
Q 1133 269 742 611 
Q 352 954 224 1613 
L 672 1613 
Q 794 1158 1046 937 
Q 1299 717 1760 717 
Q 2221 717 2534 1011 
Q 2848 1306 2848 1741 
Q 2848 2176 2502 2441 
Q 2157 2707 1498 2720 
L 1498 3142 
Q 1971 3142 2268 3360 
Q 2566 3578 2566 3901 
Q 2566 4224 2326 4438 
Q 2086 4653 1747 4653 
Q 1408 4653 1200 4470 
Q 992 4288 845 3917 
z
" transform="scale(0.015625)"/>
        <path id="STHeiti-29" d="M 896 5370 
Q 1530 3891 1530 2118 
Q 1530 480 1024 -762 
L 538 -762 
Q 1062 506 1062 2176 
Q 1062 3027 886 3865 
Q 710 4704 384 5370 
L 896 5370 
z
" transform="scale(0.015625)"/>
       </defs>
       <use xlink:href="#STHeiti-32"/>
       <use xlink:href="#STHeiti-30" transform="translate(55.399994 0)"/>
       <use xlink:href="#STHeiti-32" transform="translate(110.799988 0)"/>
       <use xlink:href="#STHeiti-32" transform="translate(166.199982 0)"/>
       <use xlink:href="#STHeiti-28" transform="translate(221.599976 0)"/>
       <use xlink:href="#STHeiti-5904" transform="translate(258.499969 0)"/>
       <use xlink:href="#STHeiti-7f5a" transform="translate(358.499954 0)"/>
       <use xlink:href="#STHeiti-32" transform="translate(458.499939 0)"/>
       <use xlink:href="#STHeiti-30" transform="translate(513.899933 0)"/>
       <use xlink:href="#STHeiti-32" transform="translate(569.299927 0)"/>
       <use xlink:href="#STHeiti-33" transform="translate(624.699921 0)"/>
       <use xlink:href="#STHeiti-29" transform="translate(680.099915 0)"/>
      </g>
     </g>
    </g>
    <g id="xtick_2">
     <g id="line2d_3">
      <path d="M 164.29716 286.30807 
L 164.29716 18.159375 
" clip-path="url(#p969b136dfb)" style="fill: none; stroke: #b0b0b0; stroke-opacity: 0.3; stroke-width: 0.8; stroke-linecap: square"/>
     </g>
     <g id="line2d_4">
      <g>
       <use xlink:href="#m5f51b1d9ee" x="164.29716" y="286.30807" style="stroke: #000000; stroke-width: 0.8"/>
      </g>
     </g>
     <g id="text_2">
      <!-- 2023(处罚2023) -->
      <g transform="translate(101.527414 336.297785) rotate(-30) scale(0.1 -0.1)">
       <use xlink:href="#STHeiti-32"/>
       <use xlink:href="#STHeiti-30" transform="translate(55.399994 0)"/>
       <use xlink:href="#STHeiti-32" transform="translate(110.799988 0)"/>
       <use xlink:href="#STHeiti-33" transform="translate(166.199982 0)"/>
       <use xlink:href="#STHeiti-28" transform="translate(221.599976 0)"/>
       <use xlink:href="#STHeiti-5904" transform="translate(258.499969 0)"/>
       <use xlink:href="#STHeiti-7f5a" transform="translate(358.499954 0)"/>
       <use xlink:href="#STHeiti-32" transform="translate(458.499939 0)"/>
       <use xlink:href="#STHeiti-30" transform="translate(513.899933 0)"/>
       <use xlink:href="#STHeiti-32" transform="translate(569.299927 0)"/>
       <use xlink:href="#STHeiti-33" transform="translate(624.699921 0)"/>
       <use xlink:href="#STHeiti-29" transform="translate(680.099915 0)"/>
      </g>
     </g>
    </g>
    <g id="xtick_3">
     <g id="line2d_5">
      <path d="M 254.504262 286.30807 
L 254.504262 18.159375 
" clip-path="url(#p969b136dfb)" style="fill: none; stroke: #b0b0b0; stroke-opacity: 0.3; stroke-width: 0.8; stroke-linecap: square"/>
     </g>
     <g id="line2d_6">
      <g>
       <use xlink:href="#m5f51b1d9ee" x="254.504262" y="286.30807" style="stroke: #000000; stroke-width: 0.8"/>
      </g>
     </g>
     <g id="text_3">
      <!-- 2023.10(处罚2024) -->
      <g transform="translate(179.73871 343.223567) rotate(-30) scale(0.1 -0.1)">
       <defs>
        <path id="STHeiti-2e" d="M 582 685 
Q 582 845 697 957 
Q 813 1069 969 1069 
Q 1126 1069 1238 957 
Q 1350 845 1350 681 
Q 1350 518 1238 406 
Q 1126 294 969 294 
Q 813 294 697 409 
Q 582 525 582 685 
z
" transform="scale(0.015625)"/>
        <path id="STHeiti-31" d="M 1184 4979 
L 2086 4979 
L 2086 384 
L 1632 384 
L 1632 4531 
L 909 4531 
L 1184 4979 
z
" transform="scale(0.015625)"/>
        <path id="STHeiti-34" d="M 2726 5094 
L 2816 5094 
L 2816 1894 
L 3373 1894 
L 3373 1453 
L 2816 1453 
L 2816 384 
L 2362 384 
L 2362 1453 
L 160 1453 
L 2726 5094 
z
M 2362 1894 
L 2362 3808 
L 1005 1894 
L 2362 1894 
z
" transform="scale(0.015625)"/>
       </defs>
       <use xlink:href="#STHeiti-32"/>
       <use xlink:href="#STHeiti-30" transform="translate(55.399994 0)"/>
       <use xlink:href="#STHeiti-32" transform="translate(110.799988 0)"/>
       <use xlink:href="#STHeiti-33" transform="translate(166.199982 0)"/>
       <use xlink:href="#STHeiti-2e" transform="translate(221.599976 0)"/>
       <use xlink:href="#STHeiti-31" transform="translate(249.299973 0)"/>
       <use xlink:href="#STHeiti-30" transform="translate(304.699966 0)"/>
       <use xlink:href="#STHeiti-28" transform="translate(360.09996 0)"/>
       <use xlink:href="#STHeiti-5904" transform="translate(396.999954 0)"/>
       <use xlink:href="#STHeiti-7f5a" transform="translate(496.999939 0)"/>
       <use xlink:href="#STHeiti-32" transform="translate(596.999924 0)"/>
       <use xlink:href="#STHeiti-30" transform="translate(652.399918 0)"/>
       <use xlink:href="#STHeiti-32" transform="translate(707.799911 0)"/>
       <use xlink:href="#STHeiti-34" transform="translate(763.199905 0)"/>
       <use xlink:href="#STHeiti-29" transform="translate(818.599899 0)"/>
      </g>
     </g>
    </g>
    <g id="xtick_4">
     <g id="line2d_7">
      <path d="M 344.711363 286.30807 
L 344.711363 18.159375 
" clip-path="url(#p969b136dfb)" style="fill: none; stroke: #b0b0b0; stroke-opacity: 0.3; stroke-width: 0.8; stroke-linecap: square"/>
     </g>
     <g id="line2d_8">
      <g>
       <use xlink:href="#m5f51b1d9ee" x="344.711363" y="286.30807" style="stroke: #000000; stroke-width: 0.8"/>
      </g>
     </g>
     <g id="text_4">
      <!-- 2023.11(未公示) -->
      <g transform="translate(280.478845 337.142317) rotate(-30) scale(0.1 -0.1)">
       <defs>
        <path id="STHeiti-672a" d="M 3488 2240 
L 3488 563 
Q 3488 26 3552 -589 
L 2874 -589 
Q 2931 -122 2931 563 
L 2931 2093 
Q 2714 1453 2234 912 
Q 1754 371 864 -256 
Q 685 51 397 198 
Q 1018 474 1651 1062 
Q 2285 1651 2560 2240 
Q 1286 2227 582 2176 
L 582 2778 
Q 1510 2714 2931 2707 
L 2931 3706 
Q 1677 3693 1018 3642 
L 1018 4230 
Q 1773 4166 2931 4160 
L 2931 4602 
Q 2931 5069 2874 5267 
Q 3072 5248 3251 5248 
L 3520 5254 
Q 3622 5254 3622 5212 
Q 3622 5171 3568 5139 
Q 3514 5107 3501 5040 
Q 3488 4973 3488 4774 
L 3488 4160 
Q 4602 4166 5338 4230 
L 5338 3642 
Q 4698 3693 3488 3706 
L 3488 2701 
Q 4794 2707 5818 2778 
L 5818 2176 
Q 5114 2234 3872 2240 
Q 4474 864 6061 493 
Q 5933 422 5833 233 
Q 5734 45 5709 -147 
Q 3718 800 3488 2240 
z
" transform="scale(0.015625)"/>
        <path id="STHeiti-516c" d="M 6195 2522 
Q 5843 2298 5638 1926 
Q 4134 3238 3603 4915 
Q 3968 4915 4198 5030 
Q 4704 3296 6195 2522 
z
M 2099 4986 
Q 2445 4806 2714 4755 
Q 2784 4742 2784 4704 
Q 2784 4666 2723 4634 
Q 2662 4602 2550 4419 
Q 2438 4237 2336 4032 
Q 2170 3661 1734 2995 
Q 1299 2330 845 1894 
Q 634 2080 230 2259 
Q 826 2675 1350 3459 
Q 1875 4243 2099 4986 
z
M 4352 589 
Q 4077 1075 3789 1478 
L 4262 1734 
Q 4960 826 5498 -83 
L 4870 -454 
Q 4787 -237 4595 154 
Q 1984 -26 1216 -243 
Q 1158 51 986 378 
Q 1242 403 1882 1356 
Q 2522 2310 2739 3053 
Q 3162 2829 3392 2758 
Q 3494 2726 3494 2688 
Q 3494 2650 3398 2602 
Q 3302 2554 3117 2259 
Q 2496 1299 1837 429 
L 4352 589 
z
" transform="scale(0.015625)"/>
        <path id="STHeiti-793a" d="M 5312 4205 
Q 4640 4250 3264 4250 
Q 1888 4250 1203 4205 
L 1203 4813 
Q 1907 4768 3273 4768 
Q 4640 4768 5312 4813 
L 5312 4205 
z
M 2995 2726 
Q 1286 2726 435 2682 
L 435 3277 
Q 1344 3232 3203 3232 
Q 5062 3232 5965 3277 
L 5965 2682 
Q 4934 2726 3578 2726 
L 3578 32 
Q 3578 -179 3501 -291 
Q 3424 -403 3174 -483 
Q 2925 -563 2374 -653 
Q 2330 -250 2080 77 
Q 2355 26 2554 26 
Q 2995 26 2995 269 
L 2995 2726 
z
M 1690 2163 
Q 1952 1958 2330 1843 
Q 2406 1818 2406 1779 
Q 2406 1741 2266 1702 
Q 2170 1670 1952 1331 
Q 1824 1152 1523 761 
Q 1222 371 941 38 
Q 749 262 365 333 
Q 742 634 1104 1139 
Q 1466 1645 1690 2163 
z
M 6035 397 
L 5491 6 
Q 4941 877 4154 1722 
L 4627 2022 
Q 5446 1222 6035 397 
z
" transform="scale(0.015625)"/>
       </defs>
       <use xlink:href="#STHeiti-32"/>
       <use xlink:href="#STHeiti-30" transform="translate(55.399994 0)"/>
       <use xlink:href="#STHeiti-32" transform="translate(110.799988 0)"/>
       <use xlink:href="#STHeiti-33" transform="translate(166.199982 0)"/>
       <use xlink:href="#STHeiti-2e" transform="translate(221.599976 0)"/>
       <use xlink:href="#STHeiti-31" transform="translate(249.299973 0)"/>
       <use xlink:href="#STHeiti-31" transform="translate(304.699966 0)"/>
       <use xlink:href="#STHeiti-28" transform="translate(360.09996 0)"/>
       <use xlink:href="#STHeiti-672a" transform="translate(396.999954 0)"/>
       <use xlink:href="#STHeiti-516c" transform="translate(496.999939 0)"/>
       <use xlink:href="#STHeiti-793a" transform="translate(596.999924 0)"/>
       <use xlink:href="#STHeiti-29" transform="translate(696.999908 0)"/>
      </g>
     </g>
    </g>
    <g id="xtick_5">
     <g id="line2d_9">
      <path d="M 434.918464 286.30807 
L 434.918464 18.159375 
" clip-path="url(#p969b136dfb)" style="fill: none; stroke: #b0b0b0; stroke-opacity: 0.3; stroke-width: 0.8; stroke-linecap: square"/>
     </g>
     <g id="line2d_10">
      <g>
       <use xlink:href="#m5f51b1d9ee" x="434.918464" y="286.30807" style="stroke: #000000; stroke-width: 0.8"/>
      </g>
     </g>
     <g id="text_5">
      <!-- 2023.12(未公示) -->
      <g transform="translate(370.685947 337.142317) rotate(-30) scale(0.1 -0.1)">
       <use xlink:href="#STHeiti-32"/>
       <use xlink:href="#STHeiti-30" transform="translate(55.399994 0)"/>
       <use xlink:href="#STHeiti-32" transform="translate(110.799988 0)"/>
       <use xlink:href="#STHeiti-33" transform="translate(166.199982 0)"/>
       <use xlink:href="#STHeiti-2e" transform="translate(221.599976 0)"/>
       <use xlink:href="#STHeiti-31" transform="translate(249.299973 0)"/>
       <use xlink:href="#STHeiti-32" transform="translate(304.699966 0)"/>
       <use xlink:href="#STHeiti-28" transform="translate(360.09996 0)"/>
       <use xlink:href="#STHeiti-672a" transform="translate(396.999954 0)"/>
       <use xlink:href="#STHeiti-516c" transform="translate(496.999939 0)"/>
       <use xlink:href="#STHeiti-793a" transform="translate(596.999924 0)"/>
       <use xlink:href="#STHeiti-29" transform="translate(696.999908 0)"/>
      </g>
     </g>
    </g>
    <g id="xtick_6">
     <g id="line2d_11">
      <path d="M 525.125566 286.30807 
L 525.125566 18.159375 
" clip-path="url(#p969b136dfb)" style="fill: none; stroke: #b0b0b0; stroke-opacity: 0.3; stroke-width: 0.8; stroke-linecap: square"/>
     </g>
     <g id="line2d_12">
      <g>
       <use xlink:href="#m5f51b1d9ee" x="525.125566" y="286.30807" style="stroke: #000000; stroke-width: 0.8"/>
      </g>
     </g>
     <g id="text_6">
      <!-- 2024.7(处罚2025) -->
      <g transform="translate(455.158336 340.453254) rotate(-30) scale(0.1 -0.1)">
       <defs>
        <path id="STHeiti-37" d="M 461 4979 
L 3373 4979 
L 915 269 
L 538 461 
L 2662 4544 
L 461 4544 
L 461 4979 
z
" transform="scale(0.015625)"/>
        <path id="STHeiti-35" d="M 3149 4979 
L 3149 4544 
L 1510 4544 
L 1280 3290 
Q 1587 3379 1856 3379 
Q 2458 3379 2861 2953 
Q 3264 2528 3264 1862 
Q 3264 1197 2825 733 
Q 2387 269 1664 269 
Q 1114 269 726 598 
Q 339 928 262 1498 
L 730 1498 
Q 813 1114 1075 909 
Q 1338 704 1683 704 
Q 2138 704 2467 1043 
Q 2797 1382 2797 1888 
Q 2797 2349 2509 2646 
Q 2221 2944 1757 2944 
Q 1293 2944 730 2701 
L 1158 4979 
L 3149 4979 
z
" transform="scale(0.015625)"/>
       </defs>
       <use xlink:href="#STHeiti-32"/>
       <use xlink:href="#STHeiti-30" transform="translate(55.399994 0)"/>
       <use xlink:href="#STHeiti-32" transform="translate(110.799988 0)"/>
       <use xlink:href="#STHeiti-34" transform="translate(166.199982 0)"/>
       <use xlink:href="#STHeiti-2e" transform="translate(221.599976 0)"/>
       <use xlink:href="#STHeiti-37" transform="translate(249.299973 0)"/>
       <use xlink:href="#STHeiti-28" transform="translate(304.699966 0)"/>
       <use xlink:href="#STHeiti-5904" transform="translate(341.59996 0)"/>
       <use xlink:href="#STHeiti-7f5a" transform="translate(441.599945 0)"/>
       <use xlink:href="#STHeiti-32" transform="translate(541.59993 0)"/>
       <use xlink:href="#STHeiti-30" transform="translate(596.999924 0)"/>
       <use xlink:href="#STHeiti-32" transform="translate(652.399918 0)"/>
       <use xlink:href="#STHeiti-35" transform="translate(707.799911 0)"/>
       <use xlink:href="#STHeiti-29" transform="translate(763.199905 0)"/>
      </g>
     </g>
    </g>
    <g id="xtick_7">
     <g id="line2d_13">
      <path d="M 615.332667 286.30807 
L 615.332667 18.159375 
" clip-path="url(#p969b136dfb)" style="fill: none; stroke: #b0b0b0; stroke-opacity: 0.3; stroke-width: 0.8; stroke-linecap: square"/>
     </g>
     <g id="line2d_14">
      <g>
       <use xlink:href="#m5f51b1d9ee" x="615.332667" y="286.30807" style="stroke: #000000; stroke-width: 0.8"/>
      </g>
     </g>
     <g id="text_7">
      <!-- 2024.7(处罚2025) -->
      <g transform="translate(545.365437 340.453254) rotate(-30) scale(0.1 -0.1)">
       <use xlink:href="#STHeiti-32"/>
       <use xlink:href="#STHeiti-30" transform="translate(55.399994 0)"/>
       <use xlink:href="#STHeiti-32" transform="translate(110.799988 0)"/>
       <use xlink:href="#STHeiti-34" transform="translate(166.199982 0)"/>
       <use xlink:href="#STHeiti-2e" transform="translate(221.599976 0)"/>
       <use xlink:href="#STHeiti-37" transform="translate(249.299973 0)"/>
       <use xlink:href="#STHeiti-28" transform="translate(304.699966 0)"/>
       <use xlink:href="#STHeiti-5904" transform="translate(341.59996 0)"/>
       <use xlink:href="#STHeiti-7f5a" transform="translate(441.599945 0)"/>
       <use xlink:href="#STHeiti-32" transform="translate(541.59993 0)"/>
       <use xlink:href="#STHeiti-30" transform="translate(596.999924 0)"/>
       <use xlink:href="#STHeiti-32" transform="translate(652.399918 0)"/>
       <use xlink:href="#STHeiti-35" transform="translate(707.799911 0)"/>
       <use xlink:href="#STHeiti-29" transform="translate(763.199905 0)"/>
      </g>
     </g>
    </g>
    <g id="xtick_8">
     <g id="line2d_15">
      <path d="M 705.539768 286.30807 
L 705.539768 18.159375 
" clip-path="url(#p969b136dfb)" style="fill: none; stroke: #b0b0b0; stroke-opacity: 0.3; stroke-width: 0.8; stroke-linecap: square"/>
     </g>
     <g id="line2d_16">
      <g>
       <use xlink:href="#m5f51b1d9ee" x="705.539768" y="286.30807" style="stroke: #000000; stroke-width: 0.8"/>
      </g>
     </g>
     <g id="text_8">
      <!-- 2024.10(未公示) -->
      <g transform="translate(641.307251 337.142317) rotate(-30) scale(0.1 -0.1)">
       <use xlink:href="#STHeiti-32"/>
       <use xlink:href="#STHeiti-30" transform="translate(55.399994 0)"/>
       <use xlink:href="#STHeiti-32" transform="translate(110.799988 0)"/>
       <use xlink:href="#STHeiti-34" transform="translate(166.199982 0)"/>
       <use xlink:href="#STHeiti-2e" transform="translate(221.599976 0)"/>
       <use xlink:href="#STHeiti-31" transform="translate(249.299973 0)"/>
       <use xlink:href="#STHeiti-30" transform="translate(304.699966 0)"/>
       <use xlink:href="#STHeiti-28" transform="translate(360.09996 0)"/>
       <use xlink:href="#STHeiti-672a" transform="translate(396.999954 0)"/>
       <use xlink:href="#STHeiti-516c" transform="translate(496.999939 0)"/>
       <use xlink:href="#STHeiti-793a" transform="translate(596.999924 0)"/>
       <use xlink:href="#STHeiti-29" transform="translate(696.999908 0)"/>
      </g>
     </g>
    </g>
   </g>
   <g id="matplotlib.axis_2">
    <g id="ytick_1">
     <g id="line2d_17">
      <path d="M 74.090059 274.14387 
L 705.539768 274.14387 
" clip-path="url(#p969b136dfb)" style="fill: none; stroke: #b0b0b0; stroke-opacity: 0.3; stroke-width: 0.8; stroke-linecap: square"/>
     </g>
     <g id="line2d_18">
      <defs>
       <path id="m0d20d36a50" d="M 0 0 
L -3.5 0 
" style="stroke: #000000; stroke-width: 0.8"/>
      </defs>
      <g>
       <use xlink:href="#m0d20d36a50" x="74.090059" y="274.14387" style="stroke: #000000; stroke-width: 0.8"/>
      </g>
     </g>
     <g id="text_9">
      <!-- 0 -->
      <g transform="translate(61.549434 278.123557) scale(0.1 -0.1)">
       <use xlink:href="#STHeiti-30"/>
      </g>
     </g>
    </g>
    <g id="ytick_2">
     <g id="line2d_19">
      <path d="M 74.090059 223.505837 
L 705.539768 223.505837 
" clip-path="url(#p969b136dfb)" style="fill: none; stroke: #b0b0b0; stroke-opacity: 0.3; stroke-width: 0.8; stroke-linecap: square"/>
     </g>
     <g id="line2d_20">
      <g>
       <use xlink:href="#m0d20d36a50" x="74.090059" y="223.505837" style="stroke: #000000; stroke-width: 0.8"/>
      </g>
     </g>
     <g id="text_10">
      <!-- 1 -->
      <g transform="translate(61.549434 227.485525) scale(0.1 -0.1)">
       <use xlink:href="#STHeiti-31"/>
      </g>
     </g>
    </g>
    <g id="ytick_3">
     <g id="line2d_21">
      <path d="M 74.090059 172.867804 
L 705.539768 172.867804 
" clip-path="url(#p969b136dfb)" style="fill: none; stroke: #b0b0b0; stroke-opacity: 0.3; stroke-width: 0.8; stroke-linecap: square"/>
     </g>
     <g id="line2d_22">
      <g>
       <use xlink:href="#m0d20d36a50" x="74.090059" y="172.867804" style="stroke: #000000; stroke-width: 0.8"/>
      </g>
     </g>
     <g id="text_11">
      <!-- 2 -->
      <g transform="translate(61.549434 176.847492) scale(0.1 -0.1)">
       <use xlink:href="#STHeiti-32"/>
      </g>
     </g>
    </g>
    <g id="ytick_4">
     <g id="line2d_23">
      <path d="M 74.090059 122.229771 
L 705.539768 122.229771 
" clip-path="url(#p969b136dfb)" style="fill: none; stroke: #b0b0b0; stroke-opacity: 0.3; stroke-width: 0.8; stroke-linecap: square"/>
     </g>
     <g id="line2d_24">
      <g>
       <use xlink:href="#m0d20d36a50" x="74.090059" y="122.229771" style="stroke: #000000; stroke-width: 0.8"/>
      </g>
     </g>
     <g id="text_12">
      <!-- 3 -->
      <g transform="translate(61.549434 126.209459) scale(0.1 -0.1)">
       <use xlink:href="#STHeiti-33"/>
      </g>
     </g>
    </g>
    <g id="ytick_5">
     <g id="line2d_25">
      <path d="M 74.090059 71.591739 
L 705.539768 71.591739 
" clip-path="url(#p969b136dfb)" style="fill: none; stroke: #b0b0b0; stroke-opacity: 0.3; stroke-width: 0.8; stroke-linecap: square"/>
     </g>
     <g id="line2d_26">
      <g>
       <use xlink:href="#m0d20d36a50" x="74.090059" y="71.591739" style="stroke: #000000; stroke-width: 0.8"/>
      </g>
     </g>
     <g id="text_13">
      <!-- 4 -->
      <g transform="translate(61.549434 75.571426) scale(0.1 -0.1)">
       <use xlink:href="#STHeiti-34"/>
      </g>
     </g>
    </g>
    <g id="ytick_6">
     <g id="line2d_27">
      <path d="M 74.090059 20.953706 
L 705.539768 20.953706 
" clip-path="url(#p969b136dfb)" style="fill: none; stroke: #b0b0b0; stroke-opacity: 0.3; stroke-width: 0.8; stroke-linecap: square"/>
     </g>
     <g id="line2d_28">
      <g>
       <use xlink:href="#m0d20d36a50" x="74.090059" y="20.953706" style="stroke: #000000; stroke-width: 0.8"/>
      </g>
     </g>
     <g id="text_14">
      <!-- 5 -->
      <g transform="translate(61.549434 24.933393) scale(0.1 -0.1)">
       <use xlink:href="#STHeiti-35"/>
      </g>
     </g>
    </g>
    <g id="text_15">
     <!-- 1e7 -->
     <g transform="translate(74.090059 15.159375) scale(0.1 -0.1)">
      <defs>
       <path id="STHeiti-65" d="M 3347 1485 
L 3718 1293 
Q 3168 269 2093 269 
Q 1325 269 825 797 
Q 326 1325 326 2067 
Q 326 2810 828 3341 
Q 1331 3872 2070 3872 
Q 2810 3872 3312 3379 
Q 3814 2886 3834 2035 
L 774 2035 
Q 794 1421 1162 1046 
Q 1530 672 2054 672 
Q 2918 672 3347 1485 
z
M 3347 2413 
Q 3258 2899 2899 3174 
Q 2541 3450 2074 3450 
Q 1114 3450 819 2413 
L 3347 2413 
z
" transform="scale(0.015625)"/>
      </defs>
      <use xlink:href="#STHeiti-31"/>
      <use xlink:href="#STHeiti-65" transform="translate(55.399994 0)"/>
      <use xlink:href="#STHeiti-37" transform="translate(120.399979 0)"/>
     </g>
    </g>
   </g>
   <g id="line2d_29">
    <path d="M 164.29716 274.119488 
L 254.504262 273.899582 
L 344.711363 274.113366 
L 434.918464 30.347952 
L 525.125566 271.700934 
L 615.332667 274.119493 
" clip-path="url(#p969b136dfb)" style="fill: none; stroke: #1a365d; stroke-width: 2; stroke-linecap: square"/>
    <defs>
     <path id="m20aa40adb2" d="M 0 3 
C 0.795609 3 1.55874 2.683901 2.12132 2.12132 
C 2.683901 1.55874 3 0.795609 3 0 
C 3 -0.795609 2.683901 -1.55874 2.12132 -2.12132 
C 1.55874 -2.683901 0.795609 -3 0 -3 
C -0.795609 -3 -1.55874 -2.683901 -2.12132 -2.12132 
C -2.683901 -1.55874 -3 -0.795609 -3 0 
C -3 0.795609 -2.683901 1.55874 -2.12132 2.12132 
C -1.55874 2.683901 -0.795609 3 0 3 
z
" style="stroke: #1a365d"/>
    </defs>
    <g clip-path="url(#p969b136dfb)">
     <use xlink:href="#m20aa40adb2" x="164.29716" y="274.119488" style="fill: #1a365d; stroke: #1a365d"/>
     <use xlink:href="#m20aa40adb2" x="254.504262" y="273.899582" style="fill: #1a365d; stroke: #1a365d"/>
     <use xlink:href="#m20aa40adb2" x="344.711363" y="274.113366" style="fill: #1a365d; stroke: #1a365d"/>
     <use xlink:href="#m20aa40adb2" x="434.918464" y="30.347952" style="fill: #1a365d; stroke: #1a365d"/>
     <use xlink:href="#m20aa40adb2" x="525.125566" y="271.700934" style="fill: #1a365d; stroke: #1a365d"/>
     <use xlink:href="#m20aa40adb2" x="615.332667" y="274.119493" style="fill: #1a365d; stroke: #1a365d"/>
    </g>
   </g>
   <g id="patch_3">
    <path d="M 74.090059 286.30807 
L 74.090059 18.159375 
" style="fill: none; stroke: #000000; stroke-width: 0.8; stroke-linejoin: miter; stroke-linecap: square"/>
   </g>
   <g id="patch_4">
    <path d="M 705.539768 286.30807 
L 705.539768 18.159375 
" style="fill: none; stroke: #000000; stroke-width: 0.8; stroke-linejoin: miter; stroke-linecap: square"/>
   </g>
   <g id="patch_5">
    <path d="M 74.090059 286.30807 
L 705.539768 286.30807 
" style="fill: none; stroke: #000000; stroke-width: 0.8; stroke-linejoin: miter; stroke-linecap: square"/>
   </g>
   <g id="patch_6">
    <path d="M 74.090059 18.159375 
L 705.539768 18.159375 
" style="fill: none; stroke: #000000; stroke-width: 0.8; stroke-linejoin: miter; stroke-linecap: square"/>
   </g>
   <g id="legend_1">
    <g id="patch_7">
     <path d="M 625.439768 38.229375 
L 699.239768 38.229375 
Q 701.039768 38.229375 701.039768 36.429375 
L 701.039768 24.459375 
Q 701.039768 22.659375 699.239768 22.659375 
L 625.439768 22.659375 
Q 623.639768 22.659375 623.639768 24.459375 
L 623.639768 36.429375 
Q 623.639768 38.229375 625.439768 38.229375 
z
" style="fill: #ffffff; opacity: 0.8; stroke: #cccccc; stroke-linejoin: miter"/>
    </g>
    <g id="line2d_30">
     <path d="M 627.239768 30.272813 
L 636.239768 30.272813 
L 645.239768 30.272813 
" style="fill: none; stroke: #1a365d; stroke-width: 2; stroke-linecap: square"/>
     <g>
      <use xlink:href="#m20aa40adb2" x="636.239768" y="30.272813" style="fill: #1a365d; stroke: #1a365d"/>
     </g>
    </g>
    <g id="text_16">
     <!-- 不合格产品 -->
     <g transform="translate(652.439768 33.422813) scale(0.09 -0.09)">
      <defs>
       <path id="STHeiti-4e0d" d="M 3354 4256 
Q 1331 4256 538 4198 
L 538 4787 
Q 1453 4723 3293 4723 
Q 5133 4723 6048 4787 
L 6048 4198 
Q 5427 4243 3987 4256 
Q 3795 3808 3520 3379 
L 3520 461 
Q 3520 -166 3578 -640 
L 2867 -640 
Q 2925 -166 2925 461 
L 2925 2573 
Q 2106 1619 883 762 
Q 659 1107 352 1312 
Q 2483 2246 3354 4256 
z
M 6048 1325 
L 5485 890 
Q 4755 1978 3898 2682 
L 4390 3046 
Q 5254 2240 6048 1325 
z
" transform="scale(0.015625)"/>
       <path id="STHeiti-5408" d="M 3174 4582 
Q 2298 3482 774 2362 
Q 634 2573 288 2784 
Q 755 2982 1408 3497 
Q 2061 4013 2473 4544 
Q 2886 5075 2906 5267 
Q 3392 5094 3565 5075 
Q 3642 5062 3642 5024 
Q 3642 4986 3578 4966 
Q 3514 4947 3456 4902 
Q 3872 4250 4649 3763 
Q 5427 3277 6157 3168 
Q 5894 2899 5773 2560 
Q 3923 3373 3174 4582 
z
M 4640 2566 
Q 4262 2611 3203 2611 
Q 2144 2611 1766 2566 
L 1766 3110 
Q 2266 3066 3267 3066 
Q 4269 3066 4640 3110 
L 4640 2566 
z
M 4576 -19 
L 1869 -19 
L 1869 -595 
L 1261 -595 
Q 1318 -166 1318 205 
L 1318 1414 
Q 1318 1754 1293 1926 
Q 1568 1901 3225 1901 
Q 4883 1901 5152 1926 
Q 5126 1792 5126 1434 
L 5126 224 
Q 5126 -173 5184 -576 
L 4576 -576 
L 4576 -19 
z
M 1869 422 
L 4576 422 
L 4576 1440 
L 1869 1440 
L 1869 422 
z
" transform="scale(0.015625)"/>
       <path id="STHeiti-683c" d="M 3872 4512 
L 5779 4512 
Q 5293 3277 4678 2701 
Q 5190 2349 6157 2227 
Q 6003 1920 5914 1619 
Q 5792 1651 5562 1728 
Q 5530 1542 5530 1248 
L 5530 307 
Q 5530 -13 5587 -486 
L 5030 -486 
L 5030 -51 
L 3469 -51 
L 3469 -557 
L 2912 -557 
Q 2957 -211 2957 237 
L 2957 1248 
Q 2957 1478 2938 1638 
L 2643 1510 
Q 2522 1696 2259 1933 
Q 3238 2195 3974 2714 
Q 3590 3130 3411 3629 
Q 3194 3232 2944 2861 
Q 2752 2989 2483 3053 
Q 3155 3750 3610 5267 
Q 3904 5126 4186 5075 
Q 4262 5062 4262 5024 
Q 4262 4986 4192 4947 
Q 4070 4870 3872 4512 
z
M 4314 3008 
Q 4794 3469 5062 4090 
L 3686 4090 
Q 3949 3398 4314 3008 
z
M 4320 2400 
Q 3859 2093 3136 1734 
Q 3392 1702 4336 1702 
Q 5280 1702 5504 1747 
Q 4819 2003 4320 2400 
z
M 5030 390 
L 5030 1274 
L 3469 1274 
L 3469 390 
L 5030 390 
z
M 1318 2349 
Q 1050 1549 602 768 
Q 499 1024 256 1370 
Q 909 2138 1318 3418 
L 1318 3533 
Q 883 3526 474 3475 
L 474 4006 
Q 800 3955 1318 3949 
Q 1318 4813 1248 5235 
Q 1421 5210 1587 5210 
L 1875 5222 
Q 1946 5222 1946 5187 
Q 1946 5152 1875 5082 
Q 1824 5030 1824 4826 
L 1824 3949 
Q 2362 3968 2573 4006 
L 2573 3475 
Q 2253 3520 1824 3526 
L 1824 608 
Q 1824 13 1869 -595 
L 1267 -595 
Q 1318 83 1318 608 
L 1318 2349 
z
M 2618 2285 
L 2157 2022 
Q 2080 2291 1837 2714 
L 2253 2918 
Q 2374 2656 2618 2285 
z
" transform="scale(0.015625)"/>
       <path id="STHeiti-4ea7" d="M 3200 4416 
Q 3078 4813 2931 5094 
L 3622 5210 
Q 3718 4864 3814 4416 
Q 5120 4422 5869 4480 
L 5869 3930 
Q 4998 3994 3302 3994 
Q 1606 3994 730 3930 
L 730 4480 
Q 1587 4416 3200 4416 
z
M 3923 2714 
Q 4397 3629 4416 3904 
Q 4525 3834 4736 3731 
Q 4947 3629 5027 3603 
Q 5107 3578 5107 3539 
Q 5107 3501 5020 3475 
Q 4934 3450 4828 3312 
Q 4723 3174 4435 2714 
Q 5875 2714 6029 2752 
L 6029 2253 
Q 5562 2298 4429 2298 
L 1702 2298 
Q 1722 1229 1523 630 
Q 1325 32 749 -672 
Q 576 -397 288 -218 
Q 768 147 969 656 
Q 1171 1165 1171 1971 
Q 1171 2323 1133 2752 
Q 1331 2714 3923 2714 
z
M 2925 3014 
L 2330 2842 
Q 2208 3283 2016 3597 
L 2579 3789 
Q 2803 3373 2925 3014 
z
" transform="scale(0.015625)"/>
       <path id="STHeiti-54c1" d="M 4883 4960 
Q 4845 4774 4845 4486 
L 4845 3328 
Q 4845 3110 4883 2848 
Q 4454 2918 3283 2918 
Q 2112 2918 1491 2842 
Q 1536 3072 1536 3328 
L 1536 4486 
Q 1536 4749 1491 4960 
Q 1939 4890 3180 4890 
Q 4422 4890 4883 4960 
z
M 2086 4429 
L 2086 3379 
L 4262 3379 
L 4262 4429 
L 2086 4429 
z
M 3974 109 
L 3974 -390 
L 3424 -390 
Q 3469 -109 3469 288 
L 3469 1747 
Q 3469 2118 3424 2387 
Q 3891 2330 4572 2330 
Q 5254 2330 5786 2394 
Q 5741 2093 5741 1754 
L 5741 320 
Q 5741 19 5779 -326 
L 5222 -326 
L 5222 109 
L 3974 109 
z
M 5222 544 
L 5222 1888 
L 3974 1888 
L 3974 544 
L 5222 544 
z
M 1216 83 
L 1216 -410 
L 666 -410 
Q 717 -58 717 269 
L 717 1709 
Q 717 2131 666 2355 
Q 1120 2291 1821 2291 
Q 2522 2291 2957 2355 
Q 2906 2080 2906 1709 
L 2906 269 
Q 2906 -109 2950 -378 
L 2400 -378 
L 2400 83 
L 1216 83 
z
M 2400 512 
L 2400 1862 
L 1216 1862 
L 1216 512 
L 2400 512 
z
" transform="scale(0.015625)"/>
      </defs>
      <use xlink:href="#STHeiti-4e0d"/>
      <use xlink:href="#STHeiti-5408" transform="translate(99.999985 0)"/>
      <use xlink:href="#STHeiti-683c" transform="translate(199.999969 0)"/>
      <use xlink:href="#STHeiti-4ea7" transform="translate(299.999954 0)"/>
      <use xlink:href="#STHeiti-54c1" transform="translate(399.999939 0)"/>
     </g>
    </g>
   </g>
  </g>
 </g>
 <defs>
  <clipPath id="p969b136dfb">
   <rect x="74.090059" y="18.159375" width="631.449709" height="268.148695"/>
  </clipPath>
 </defs>
</svg>
