<?xml version="1.0" encoding="utf-8" standalone="no"?>
<!DOCTYPE svg PUBLIC "-//W3C//DTD SVG 1.1//EN"
  "http://www.w3.org/Graphics/SVG/1.1/DTD/svg11.dtd">
<svg xmlns:xlink="http://www.w3.org/1999/xlink" width="709.28732pt" height="352.209025pt" viewBox="0 0 709.28732 352.209025" xmlns="http://www.w3.org/2000/svg" version="1.1">
 <metadata>
  <rdf:RDF xmlns:dc="http://purl.org/dc/elements/1.1/" xmlns:cc="http://creativecommons.org/ns#" xmlns:rdf="http://www.w3.org/1999/02/22-rdf-syntax-ns#">
   <cc:Work>
    <dc:type rdf:resource="http://purl.org/dc/dcmitype/StillImage"/>
    <dc:date>2026-06-04T16:31:11.528441</dc:date>
    <dc:format>image/svg+xml</dc:format>
    <dc:creator>
     <cc:Agent>
      <dc:title>Matplotlib v3.10.9, https://matplotlib.org/</dc:title>
     </cc:Agent>
    </dc:creator>
   </cc:Work>
  </rdf:RDF>
 </metadata>
 <defs>
  <style type="text/css">*{stroke-linejoin: round; stroke-linecap: butt}</style>
 </defs>
 <g id="figure_1">
  <g id="patch_1">
   <path d="M -0 352.209025 
L 709.28732 352.209025 
L 709.28732 0 
L -0 0 
z
" style="fill: #ffffff"/>
  </g>
  <g id="axes_1">
   <g id="patch_2">
    <path d="M 72.373775 278.480464 
L 702.08732 278.480464 
L 702.08732 7.2 
L 72.373775 7.2 
z
" style="fill: #fafafa"/>
   </g>
   <g id="matplotlib.axis_1">
    <g id="xtick_1">
     <g id="line2d_1">
      <path d="M 100.997118 278.480464 
L 100.997118 7.2 
" clip-path="url(#p84b674b951)" style="fill: none; stroke: #b0b0b0; stroke-opacity: 0.3; stroke-width: 0.8; stroke-linecap: square"/>
     </g>
     <g id="line2d_2">
      <defs>
       <path id="m8f34750370" d="M 0 0 
L 0 3.5 
" style="stroke: #000000; stroke-width: 0.8"/>
      </defs>
      <g>
       <use xlink:href="#m8f34750370" x="100.997118" y="278.480464" style="stroke: #000000; stroke-width: 0.8"/>
      </g>
     </g>
     <g id="text_1">
      <!-- FY2025综合产能利用率 -->
      <g transform="translate(11.184375 343.84801) rotate(-30) scale(0.1 -0.1)">
       <defs>
        <path id="STHeiti-46" d="M 557 4979 
L 2861 4979 
L 2861 4525 
L 1018 4525 
L 1018 3091 
L 2861 3091 
L 2861 2637 
L 1018 2637 
L 1018 384 
L 557 384 
L 557 4979 
z
" transform="scale(0.015625)"/>
        <path id="STHeiti-59" d="M 198 4979 
L 730 4979 
L 1901 3085 
L 3059 4979 
L 3590 4979 
L 2131 2579 
L 2131 384 
L 1683 384 
L 1683 2579 
L 198 4979 
z
" transform="scale(0.015625)"/>
        <path id="STHeiti-32" d="M 742 3539 
L 301 3539 
Q 333 4243 768 4668 
Q 1203 5094 1820 5094 
Q 2438 5094 2844 4694 
Q 3251 4294 3251 3718 
Q 3251 3290 3024 2925 
Q 2797 2560 2336 2061 
L 1190 826 
L 3315 826 
L 3315 384 
L 192 384 
L 1946 2278 
Q 2406 2778 2604 3066 
Q 2803 3354 2803 3725 
Q 2803 4096 2512 4377 
Q 2221 4659 1789 4659 
Q 1357 4659 1072 4368 
Q 787 4077 742 3539 
z
" transform="scale(0.015625)"/>
        <path id="STHeiti-30" d="M 1747 269 
Q 1005 269 605 880 
Q 205 1491 205 2681 
Q 205 3872 605 4483 
Q 1005 5094 1741 5094 
Q 2477 5094 2909 4470 
Q 3341 3846 3341 2681 
Q 3341 1517 2905 893 
Q 2470 269 1747 269 
z
M 1760 4659 
Q 1229 4659 934 4147 
Q 640 3635 640 2669 
Q 640 685 1760 685 
Q 2304 685 2608 1206 
Q 2912 1728 2912 2681 
Q 2912 3635 2598 4147 
Q 2285 4659 1760 4659 
z
" transform="scale(0.015625)"/>
        <path id="STHeiti-35" d="M 3149 4979 
L 3149 4544 
L 1510 4544 
L 1280 3290 
Q 1587 3379 1856 3379 
Q 2458 3379 2861 2953 
Q 3264 2528 3264 1862 
Q 3264 1197 2825 733 
Q 2387 269 1664 269 
Q 1114 269 726 598 
Q 339 928 262 1498 
L 730 1498 
Q 813 1114 1075 909 
Q 1338 704 1683 704 
Q 2138 704 2467 1043 
Q 2797 1382 2797 1888 
Q 2797 2349 2509 2646 
Q 2221 2944 1757 2944 
Q 1293 2944 730 2701 
L 1158 4979 
L 3149 4979 
z
" transform="scale(0.015625)"/>
        <path id="STHeiti-7efc" d="M 4122 4384 
Q 4070 4742 3974 5069 
L 4518 5158 
Q 4602 4749 4685 4384 
Q 5594 4384 5946 4422 
L 5946 3341 
L 5421 3341 
L 5421 3962 
L 3264 3962 
L 3264 3322 
L 2790 3322 
L 2790 4422 
Q 3149 4384 4122 4384 
z
M 1568 2880 
Q 979 2835 627 2726 
Q 576 2995 474 3213 
Q 941 3494 1414 5062 
Q 1766 4890 1990 4832 
Q 2080 4806 2080 4771 
Q 2080 4736 2016 4713 
Q 1952 4691 1878 4595 
Q 1805 4499 1574 4096 
L 1062 3206 
L 1792 3258 
Q 2035 3712 2157 4038 
Q 2458 3821 2650 3750 
Q 2726 3725 2726 3689 
Q 2726 3654 2646 3632 
Q 2566 3610 1350 1786 
Q 1901 1805 2509 1914 
Q 2502 1722 2547 1446 
L 1318 1338 
Q 954 1306 736 1216 
Q 736 1472 563 1728 
Q 896 1798 1568 2880 
z
M 5498 2643 
Q 5165 2707 4294 2707 
Q 3424 2707 3091 2643 
L 3091 3194 
Q 3443 3130 4236 3130 
Q 5030 3130 5498 3194 
L 5498 2643 
z
M 4045 1702 
Q 3302 1696 2816 1645 
L 2816 2170 
Q 3309 2099 4326 2099 
Q 5344 2099 5939 2170 
L 5939 1645 
Q 5510 1696 4550 1702 
L 4550 96 
Q 4550 -198 4489 -332 
Q 4429 -467 4240 -528 
Q 4051 -589 3616 -621 
Q 3629 -339 3437 6 
Q 3686 -32 3808 -32 
Q 3930 -32 3987 3 
Q 4045 38 4045 179 
L 4045 1702 
z
M 3142 1338 
Q 3251 1254 3398 1187 
Q 3546 1120 3635 1107 
Q 3725 1094 3725 1049 
Q 3725 1005 3673 985 
Q 3622 966 3555 899 
Q 3488 832 3450 768 
Q 3238 403 2688 -301 
Q 2451 -128 2195 -58 
Q 2701 301 3142 1338 
z
M 6054 173 
L 5562 -115 
Q 5242 582 4890 1037 
L 5318 1267 
Q 5798 698 6054 173 
z
M 2509 864 
Q 2458 698 2458 560 
Q 2458 422 2470 333 
Q 1062 96 608 -147 
Q 589 186 454 576 
Q 525 570 621 570 
Q 1286 570 2509 864 
z
" transform="scale(0.015625)"/>
        <path id="STHeiti-5408" d="M 3174 4582 
Q 2298 3482 774 2362 
Q 634 2573 288 2784 
Q 755 2982 1408 3497 
Q 2061 4013 2473 4544 
Q 2886 5075 2906 5267 
Q 3392 5094 3565 5075 
Q 3642 5062 3642 5024 
Q 3642 4986 3578 4966 
Q 3514 4947 3456 4902 
Q 3872 4250 4649 3763 
Q 5427 3277 6157 3168 
Q 5894 2899 5773 2560 
Q 3923 3373 3174 4582 
z
M 4640 2566 
Q 4262 2611 3203 2611 
Q 2144 2611 1766 2566 
L 1766 3110 
Q 2266 3066 3267 3066 
Q 4269 3066 4640 3110 
L 4640 2566 
z
M 4576 -19 
L 1869 -19 
L 1869 -595 
L 1261 -595 
Q 1318 -166 1318 205 
L 1318 1414 
Q 1318 1754 1293 1926 
Q 1568 1901 3225 1901 
Q 4883 1901 5152 1926 
Q 5126 1792 5126 1434 
L 5126 224 
Q 5126 -173 5184 -576 
L 4576 -576 
L 4576 -19 
z
M 1869 422 
L 4576 422 
L 4576 1440 
L 1869 1440 
L 1869 422 
z
" transform="scale(0.015625)"/>
        <path id="STHeiti-4ea7" d="M 3200 4416 
Q 3078 4813 2931 5094 
L 3622 5210 
Q 3718 4864 3814 4416 
Q 5120 4422 5869 4480 
L 5869 3930 
Q 4998 3994 3302 3994 
Q 1606 3994 730 3930 
L 730 4480 
Q 1587 4416 3200 4416 
z
M 3923 2714 
Q 4397 3629 4416 3904 
Q 4525 3834 4736 3731 
Q 4947 3629 5027 3603 
Q 5107 3578 5107 3539 
Q 5107 3501 5020 3475 
Q 4934 3450 4828 3312 
Q 4723 3174 4435 2714 
Q 5875 2714 6029 2752 
L 6029 2253 
Q 5562 2298 4429 2298 
L 1702 2298 
Q 1722 1229 1523 630 
Q 1325 32 749 -672 
Q 576 -397 288 -218 
Q 768 147 969 656 
Q 1171 1165 1171 1971 
Q 1171 2323 1133 2752 
Q 1331 2714 3923 2714 
z
M 2925 3014 
L 2330 2842 
Q 2208 3283 2016 3597 
L 2579 3789 
Q 2803 3373 2925 3014 
z
" transform="scale(0.015625)"/>
        <path id="STHeiti-80fd" d="M 2842 3334 
L 1363 3206 
Q 922 3162 736 3078 
Q 685 3347 589 3622 
Q 749 3693 841 3760 
Q 934 3827 1100 4044 
Q 1267 4262 1436 4556 
Q 1606 4851 1709 5101 
Q 2035 4922 2198 4893 
Q 2362 4864 2362 4825 
Q 2362 4787 2237 4704 
Q 2112 4621 1901 4358 
L 1274 3622 
L 2662 3648 
Q 2464 4000 2278 4237 
L 2669 4442 
Q 3136 3827 3443 3315 
L 2982 3046 
Q 2950 3130 2842 3334 
z
M 4179 3994 
Q 4902 4288 5363 4666 
Q 5562 4371 5760 4237 
Q 5811 4205 5811 4173 
Q 5811 4141 5782 4131 
Q 5754 4122 5670 4122 
Q 5459 4122 4179 3610 
L 4179 3264 
Q 4179 3174 4220 3123 
Q 4262 3072 4406 3043 
Q 4550 3014 4816 3014 
Q 5082 3014 5190 3056 
Q 5299 3098 5356 3222 
Q 5414 3347 5459 3635 
Q 5632 3386 5965 3302 
Q 5850 2957 5747 2819 
Q 5645 2682 5465 2646 
Q 5286 2611 4784 2611 
Q 4282 2611 4064 2646 
Q 3846 2682 3782 2797 
Q 3718 2912 3718 3219 
L 3718 4339 
Q 3718 4787 3674 5043 
Q 3891 5005 4262 5005 
Q 4365 5005 4365 4966 
Q 4365 4928 4272 4857 
Q 4179 4787 4179 4666 
L 4179 3994 
z
M 1350 640 
L 1350 -474 
L 806 -474 
Q 858 38 858 531 
L 858 2240 
Q 858 2598 813 2829 
Q 1216 2778 1977 2778 
Q 2739 2778 3110 2829 
Q 3066 2598 3066 2240 
L 3066 19 
Q 3066 -179 3002 -278 
Q 2938 -378 2758 -432 
Q 2579 -486 2202 -518 
Q 2182 -224 1997 45 
Q 2208 6 2330 6 
Q 2573 6 2573 198 
L 2573 640 
L 1350 640 
z
M 1350 1875 
L 2573 1875 
L 2573 2374 
L 1350 2374 
L 1350 1875 
z
M 2573 1517 
L 1350 1517 
L 1350 1011 
L 2573 1011 
L 2573 1517 
z
M 4122 1312 
Q 4890 1632 5344 1984 
Q 5504 1741 5709 1555 
Q 5747 1523 5747 1491 
Q 5747 1459 5728 1452 
Q 5709 1446 5651 1446 
Q 5459 1446 4122 902 
L 4122 256 
Q 4122 166 4160 124 
Q 4198 83 4336 64 
Q 4474 45 4826 45 
Q 5178 45 5293 237 
Q 5408 429 5434 762 
Q 5638 467 5965 397 
Q 5850 0 5750 -153 
Q 5651 -307 5456 -355 
Q 5261 -403 4742 -403 
Q 4224 -403 4006 -368 
Q 3789 -333 3725 -214 
Q 3661 -96 3661 211 
L 3661 1664 
Q 3661 2086 3610 2368 
Q 3827 2330 4205 2330 
Q 4307 2330 4307 2291 
Q 4307 2253 4214 2182 
Q 4122 2112 4122 1990 
L 4122 1312 
z
" transform="scale(0.015625)"/>
        <path id="STHeiti-5229" d="M 4909 5165 
Q 5165 5107 5555 5107 
Q 5645 5107 5645 5065 
Q 5645 5024 5577 4976 
Q 5510 4928 5510 4768 
L 5510 198 
Q 5510 -90 5433 -227 
Q 5357 -365 5120 -445 
Q 4883 -525 4352 -595 
Q 4333 -275 4070 64 
Q 4269 51 4483 51 
Q 4698 51 4826 112 
Q 4954 173 4954 435 
L 4954 4109 
Q 4954 4826 4909 5165 
z
M 1658 2016 
Q 1325 1210 730 422 
Q 550 698 307 909 
Q 1267 1837 1594 2880 
Q 742 2867 410 2835 
L 410 3392 
Q 749 3354 1658 3341 
L 1658 4218 
Q 1120 4134 685 4096 
Q 621 4320 442 4576 
Q 864 4576 1561 4688 
Q 2259 4800 2912 5011 
Q 2970 4851 3072 4697 
Q 3174 4544 3244 4489 
Q 3315 4435 3315 4403 
Q 3315 4352 3244 4365 
Q 3174 4378 3091 4378 
Q 2778 4378 2182 4301 
L 2182 3341 
Q 3066 3354 3386 3392 
L 3386 2835 
Q 3040 2867 2182 2880 
L 2182 525 
Q 2182 90 2227 -576 
L 1587 -576 
Q 1658 128 1658 525 
L 1658 2016 
z
M 3725 4186 
Q 3968 4134 4326 4134 
Q 4403 4134 4403 4099 
Q 4403 4064 4345 4029 
Q 4288 3994 4288 3834 
L 4288 1766 
Q 4288 1357 4314 966 
L 3725 966 
Q 3750 1382 3750 1766 
L 3750 3482 
Q 3750 3968 3725 4186 
z
M 3322 1485 
L 2874 1165 
Q 2630 1613 2227 2176 
L 2605 2458 
Q 2957 1933 3322 1485 
z
" transform="scale(0.015625)"/>
        <path id="STHeiti-7528" d="M 3501 1491 
L 3501 1024 
Q 3501 454 3546 -70 
L 2931 -70 
Q 2976 467 2976 1024 
L 2976 1491 
L 1709 1491 
Q 1587 352 1024 -570 
Q 774 -352 461 -230 
Q 1203 621 1203 2310 
L 1203 3955 
Q 1203 4557 1152 4864 
Q 2048 4819 3421 4819 
Q 4794 4819 5530 4864 
Q 5472 4525 5472 3955 
L 5472 134 
Q 5472 -122 5417 -224 
Q 5363 -326 5164 -387 
Q 4966 -448 4435 -531 
Q 4365 -192 4230 83 
Q 4666 77 4803 134 
Q 4941 192 4941 358 
L 4941 1491 
L 3501 1491 
z
M 1728 3405 
L 2976 3405 
L 2976 4346 
L 1728 4346 
L 1728 3405 
z
M 3501 3405 
L 4941 3405 
L 4941 4346 
L 3501 4346 
L 3501 3405 
z
M 2976 2938 
L 1728 2938 
L 1728 1958 
L 2976 1958 
L 2976 2938 
z
M 4941 2938 
L 3501 2938 
L 3501 1958 
L 4941 1958 
L 4941 2938 
z
" transform="scale(0.015625)"/>
        <path id="STHeiti-7387" d="M 3066 4621 
Q 2970 4934 2867 5152 
L 3526 5254 
Q 3546 4902 3616 4621 
Q 5018 4627 5837 4685 
L 5837 4115 
Q 4941 4179 3277 4179 
Q 1613 4179 678 4115 
L 678 4685 
Q 1568 4621 3066 4621 
z
M 3046 2790 
L 2662 2739 
Q 2195 2675 2106 2637 
Q 2106 2854 2010 3059 
Q 2336 3155 2842 4128 
Q 3110 3955 3251 3913 
Q 3392 3872 3392 3846 
Q 3392 3821 3251 3769 
Q 3110 3718 2944 3497 
Q 2778 3277 2573 3085 
L 3373 3142 
Q 3686 3501 3859 3770 
Q 4077 3546 4307 3443 
Q 4397 3405 4397 3360 
Q 4397 3315 4307 3308 
Q 4218 3302 3965 3126 
Q 3712 2950 3411 2636 
Q 3110 2323 2624 1952 
L 3808 2035 
Q 3661 2278 3552 2413 
L 3942 2656 
Q 4211 2176 4595 1600 
L 4141 1389 
Q 4109 1466 4000 1683 
L 3456 1651 
L 3456 1018 
Q 5126 1018 5990 1075 
L 5990 518 
Q 5126 576 3456 576 
Q 3469 -160 3520 -691 
L 2886 -691 
Q 2944 -70 2944 576 
Q 1325 563 506 518 
L 506 1075 
Q 1331 1030 2950 1018 
L 2950 1613 
Q 2419 1574 2093 1491 
Q 2048 1786 1933 1965 
Q 2157 1965 2377 2147 
Q 2598 2330 3046 2790 
z
M 5248 3898 
Q 5453 3629 5709 3475 
Q 5760 3443 5760 3414 
Q 5760 3386 5677 3386 
Q 5594 3386 5389 3296 
Q 5184 3206 4755 2803 
Q 4595 3002 4384 3117 
Q 4934 3482 5248 3898 
z
M 1958 3238 
L 1587 2848 
Q 1261 3219 877 3507 
L 1222 3859 
Q 1517 3558 1958 3238 
z
M 5811 1933 
L 5414 1485 
Q 5030 1920 4461 2291 
L 4826 2675 
Q 5242 2317 5811 1933 
z
M 2003 2170 
Q 1824 2099 1024 1350 
Q 890 1645 704 1888 
Q 1018 2003 1357 2272 
Q 1696 2541 1798 2662 
Q 1830 2413 2003 2170 
z
" transform="scale(0.015625)"/>
       </defs>
       <use xlink:href="#STHeiti-46"/>
       <use xlink:href="#STHeiti-59" transform="translate(48.499985 0)"/>
       <use xlink:href="#STHeiti-32" transform="translate(107.699982 0)"/>
       <use xlink:href="#STHeiti-30" transform="translate(163.099976 0)"/>
       <use xlink:href="#STHeiti-32" transform="translate(218.499969 0)"/>
       <use xlink:href="#STHeiti-35" transform="translate(273.899963 0)"/>
       <use xlink:href="#STHeiti-7efc" transform="translate(329.299957 0)"/>
       <use xlink:href="#STHeiti-5408" transform="translate(429.299942 0)"/>
       <use xlink:href="#STHeiti-4ea7" transform="translate(529.299927 0)"/>
       <use xlink:href="#STHeiti-80fd" transform="translate(629.299911 0)"/>
       <use xlink:href="#STHeiti-5229" transform="translate(729.299896 0)"/>
       <use xlink:href="#STHeiti-7528" transform="translate(829.299881 0)"/>
       <use xlink:href="#STHeiti-7387" transform="translate(929.299866 0)"/>
      </g>
     </g>
    </g>
    <g id="xtick_2">
     <g id="line2d_3">
      <path d="M 291.819404 278.480464 
L 291.819404 7.2 
" clip-path="url(#p84b674b951)" style="fill: none; stroke: #b0b0b0; stroke-opacity: 0.3; stroke-width: 0.8; stroke-linecap: square"/>
     </g>
     <g id="line2d_4">
      <g>
       <use xlink:href="#m8f34750370" x="291.819404" y="278.480464" style="stroke: #000000; stroke-width: 0.8"/>
      </g>
     </g>
     <g id="text_2">
      <!-- 核心产线（B2）利用率 -->
      <g transform="translate(203.436957 343.110185) rotate(-30) scale(0.1 -0.1)">
       <defs>
        <path id="STHeiti-6838" d="M 4608 4646 
L 4019 4499 
Q 3936 4832 3802 5133 
L 4339 5274 
Q 4429 5024 4608 4646 
z
M 1242 2208 
Q 909 1318 538 787 
Q 384 1178 218 1395 
Q 864 2150 1242 3392 
Q 723 3379 397 3341 
L 397 3904 
Q 653 3866 1242 3853 
Q 1242 4947 1190 5222 
Q 1472 5171 1773 5171 
Q 1901 5171 1901 5139 
Q 1901 5107 1811 5050 
Q 1741 4998 1741 4877 
L 1741 3853 
Q 2272 3866 2496 3904 
L 2496 3341 
Q 2176 3386 1741 3386 
L 1741 2502 
L 2093 2656 
Q 2374 2189 2611 1824 
L 2150 1562 
Q 2003 1958 1741 2406 
L 1741 563 
Q 1741 6 1792 -640 
L 1184 -640 
Q 1242 -26 1242 563 
L 1242 2208 
z
M 6086 3840 
Q 5453 3891 4361 3891 
Q 3270 3891 2637 3840 
L 2637 4371 
Q 3277 4320 4365 4320 
Q 5453 4320 6086 4371 
L 6086 3840 
z
M 4429 2650 
Q 4736 3110 4877 3411 
Q 5126 3277 5427 3200 
Q 5517 3181 5517 3142 
Q 5517 3104 5443 3088 
Q 5370 3072 5322 3030 
Q 5274 2989 5210 2899 
Q 4563 1997 4102 1539 
Q 3642 1082 2746 493 
Q 2522 736 2246 883 
Q 3366 1382 4154 2278 
Q 3142 2227 2835 2112 
Q 2803 2323 2701 2592 
Q 2950 2675 3168 2960 
Q 3386 3245 3731 3840 
Q 3942 3706 4269 3597 
Q 4352 3571 4352 3542 
Q 4352 3514 4291 3498 
Q 4230 3482 4054 3309 
Q 3878 3136 3386 2618 
Q 3853 2618 4429 2650 
z
M 5018 934 
Q 5606 506 6093 -45 
L 5613 -435 
Q 5152 166 4691 589 
Q 3942 -154 2746 -627 
Q 2573 -333 2342 -166 
Q 3053 77 3517 333 
Q 3981 589 4515 1104 
Q 5050 1619 5306 2304 
Q 5606 2144 5766 2099 
Q 5926 2054 5926 2019 
Q 5926 1984 5846 1955 
Q 5766 1926 5658 1766 
Q 5338 1286 5018 934 
z
" transform="scale(0.015625)"/>
        <path id="STHeiti-5fc3" d="M 4122 3853 
L 3558 3411 
Q 3053 4166 2419 4717 
L 2925 5114 
Q 3469 4467 4122 3853 
z
M 5139 717 
Q 4973 192 4854 3 
Q 4736 -186 4502 -234 
Q 4269 -282 4003 -298 
Q 3738 -314 3424 -314 
Q 2701 -314 2505 -259 
Q 2310 -205 2230 -35 
Q 2150 134 2150 512 
L 2150 2419 
Q 2150 3002 2093 3277 
Q 2317 3245 2470 3245 
L 2765 3245 
Q 2861 3245 2861 3213 
Q 2861 3181 2797 3130 
Q 2720 3059 2720 2931 
L 2720 602 
Q 2720 448 2768 361 
Q 2816 275 2960 262 
Q 3104 250 3386 250 
Q 4013 250 4166 294 
Q 4320 339 4390 515 
Q 4461 691 4525 1171 
Q 4723 819 5139 717 
z
M 6074 1645 
L 5408 1318 
Q 5101 2112 4416 2899 
L 4909 3232 
Q 5446 2477 6074 1645 
z
M 832 3091 
Q 1018 3034 1123 3021 
Q 1229 3008 1379 3008 
Q 1530 3008 1530 2976 
Q 1530 2944 1469 2886 
Q 1408 2829 1305 2310 
Q 1203 1792 979 806 
Q 749 922 294 947 
Q 838 1920 832 3091 
z
" transform="scale(0.015625)"/>
        <path id="STHeiti-7ebf" d="M 1549 2829 
L 979 2726 
Q 755 2688 467 2605 
Q 467 2694 419 2851 
Q 371 3008 307 3104 
Q 538 3206 893 3833 
Q 1248 4461 1491 5235 
Q 1786 5056 2074 4998 
Q 2163 4979 2163 4924 
Q 2163 4870 2093 4838 
Q 1939 4774 1734 4473 
Q 1530 4173 947 3130 
L 1798 3258 
Q 2067 3731 2150 4058 
Q 2470 3866 2733 3795 
Q 2810 3776 2810 3721 
Q 2810 3667 2720 3644 
Q 2630 3622 2509 3462 
Q 2906 3462 3405 3565 
L 3366 5203 
Q 3482 5178 3622 5162 
Q 3763 5146 3853 5146 
L 3994 5152 
Q 4083 5152 4083 5088 
Q 4083 5050 4051 5021 
Q 4019 4992 3971 4883 
Q 3923 4774 3917 4589 
L 3891 3661 
Q 4890 3872 5670 4083 
L 5773 3590 
Q 5254 3526 3904 3245 
Q 3936 2771 3974 2528 
Q 5645 2893 5856 2957 
L 5958 2464 
Q 5933 2483 4045 2112 
Q 4147 1568 4346 1152 
Q 4838 1619 5107 2067 
Q 5363 1856 5606 1734 
Q 5664 1702 5664 1664 
Q 5664 1626 5600 1619 
Q 5536 1613 5344 1453 
Q 5152 1293 4998 1113 
Q 4845 934 4602 717 
Q 4787 474 5033 275 
Q 5280 77 5363 77 
Q 5446 77 5488 272 
Q 5530 467 5555 742 
Q 5779 429 6125 371 
Q 5978 -122 5850 -362 
Q 5722 -602 5546 -602 
Q 5370 -602 4947 -320 
Q 4525 -38 4230 403 
Q 3443 -205 2778 -531 
Q 2650 -269 2387 -70 
Q 2797 38 3110 227 
Q 3424 416 3962 832 
Q 3706 1325 3558 2003 
Q 2925 1862 2637 1773 
L 2534 2278 
Q 2963 2342 3482 2438 
Q 3430 2861 3418 3136 
Q 2912 3014 2586 2912 
L 2464 3405 
Q 2253 3130 1254 1626 
Q 1946 1677 2509 1830 
Q 2483 1728 2483 1625 
Q 2483 1523 2502 1382 
L 1325 1184 
Q 685 1069 646 1037 
Q 646 1325 480 1626 
Q 755 1728 1001 2022 
Q 1248 2317 1549 2829 
z
M 5331 4352 
L 4826 4064 
Q 4621 4442 4384 4717 
L 4883 4966 
Q 5210 4506 5331 4352 
z
M 2547 864 
Q 2528 794 2528 662 
Q 2528 531 2566 384 
Q 1082 70 576 -224 
Q 538 96 384 410 
Q 979 410 2547 864 
z
" transform="scale(0.015625)"/>
        <path id="STHeiti-ff08" d="M 5651 -749 
L 5274 -749 
Q 4646 173 4409 835 
Q 4173 1498 4173 2266 
Q 4173 3034 4432 3750 
Q 4691 4467 5254 5267 
L 5645 5267 
Q 5082 4237 4928 3606 
Q 4774 2976 4774 2093 
Q 4774 1472 4953 861 
Q 5133 250 5651 -749 
z
" transform="scale(0.015625)"/>
        <path id="STHeiti-42" d="M 570 4979 
L 1478 4979 
Q 2202 4979 2576 4688 
Q 2950 4397 2950 3853 
Q 2950 3552 2800 3299 
Q 2650 3046 2362 2893 
Q 2835 2739 3081 2432 
Q 3328 2125 3328 1702 
Q 3328 1133 2912 758 
Q 2496 384 1837 384 
L 570 384 
L 570 4979 
z
M 1024 4531 
L 1024 3059 
L 1286 3059 
Q 1888 3059 2182 3251 
Q 2477 3443 2477 3853 
Q 2477 4531 1555 4531 
L 1024 4531 
z
M 1024 2598 
L 1024 832 
L 1594 832 
Q 2086 832 2320 931 
Q 2554 1030 2701 1238 
Q 2848 1446 2848 1664 
Q 2848 1882 2765 2048 
Q 2682 2214 2518 2342 
Q 2355 2470 2128 2534 
Q 1901 2598 1280 2598 
L 1024 2598 
z
" transform="scale(0.015625)"/>
        <path id="STHeiti-ff09" d="M 1120 5267 
Q 1747 4346 1984 3683 
Q 2221 3021 2221 2253 
Q 2221 1485 1961 768 
Q 1702 51 1139 -749 
L 749 -749 
Q 1312 282 1465 912 
Q 1619 1542 1619 2426 
Q 1619 3046 1440 3657 
Q 1261 4269 742 5267 
L 1120 5267 
z
" transform="scale(0.015625)"/>
       </defs>
       <use xlink:href="#STHeiti-6838"/>
       <use xlink:href="#STHeiti-5fc3" transform="translate(99.999985 0)"/>
       <use xlink:href="#STHeiti-4ea7" transform="translate(199.999969 0)"/>
       <use xlink:href="#STHeiti-7ebf" transform="translate(299.999954 0)"/>
       <use xlink:href="#STHeiti-ff08" transform="translate(399.999939 0)"/>
       <use xlink:href="#STHeiti-42" transform="translate(499.999924 0)"/>
       <use xlink:href="#STHeiti-32" transform="translate(557.399918 0)"/>
       <use xlink:href="#STHeiti-ff09" transform="translate(612.799911 0)"/>
       <use xlink:href="#STHeiti-5229" transform="translate(712.799896 0)"/>
       <use xlink:href="#STHeiti-7528" transform="translate(812.799881 0)"/>
       <use xlink:href="#STHeiti-7387" transform="translate(912.799866 0)"/>
      </g>
     </g>
    </g>
    <g id="xtick_3">
     <g id="line2d_5">
      <path d="M 482.641691 278.480464 
L 482.641691 7.2 
" clip-path="url(#p84b674b951)" style="fill: none; stroke: #b0b0b0; stroke-opacity: 0.3; stroke-width: 0.8; stroke-linecap: square"/>
     </g>
     <g id="line2d_6">
      <g>
       <use xlink:href="#m8f34750370" x="482.641691" y="278.480464" style="stroke: #000000; stroke-width: 0.8"/>
      </g>
     </g>
     <g id="text_3">
      <!-- 搁浅产能（B3-1） -->
      <g transform="translate(412.566208 332.531181) rotate(-30) scale(0.1 -0.1)">
       <defs>
        <path id="STHeiti-6401" d="M 1075 2253 
L 1075 3469 
Q 678 3462 435 3411 
L 435 3949 
Q 640 3904 1075 3898 
Q 1075 4941 1005 5229 
Q 1197 5184 1594 5184 
Q 1747 5184 1747 5136 
Q 1747 5088 1670 5030 
Q 1594 4973 1571 4925 
Q 1549 4877 1549 4794 
L 1549 3904 
Q 1862 3904 2099 3949 
L 2099 3411 
Q 1875 3456 1549 3462 
L 1549 2419 
Q 1888 2560 2074 2656 
Q 2054 2573 2054 2473 
Q 2054 2374 2106 2182 
Q 1888 2125 1549 1984 
L 1549 32 
Q 1549 -166 1481 -281 
Q 1414 -397 1225 -470 
Q 1037 -544 666 -582 
Q 646 -250 442 45 
Q 698 13 838 13 
Q 979 13 1027 61 
Q 1075 109 1075 230 
L 1075 1760 
Q 614 1517 429 1395 
Q 390 1818 333 2061 
Q 634 2112 1075 2253 
z
M 3443 4282 
L 2976 4058 
L 2470 4915 
L 2918 5120 
Q 3168 4672 3443 4282 
z
M 5856 4781 
Q 5798 4429 5798 4045 
L 5798 -13 
Q 5798 -358 5628 -464 
Q 5459 -570 4883 -621 
Q 4838 -320 4659 -38 
Q 4896 -70 5033 -70 
Q 5171 -70 5232 -16 
Q 5293 38 5293 224 
L 5293 4307 
Q 4115 4307 3661 4243 
L 3661 4781 
Q 4141 4723 4752 4723 
Q 5363 4723 5856 4781 
z
M 3962 2246 
Q 3699 2016 3309 1779 
Q 3494 1722 3993 1722 
Q 4493 1722 4800 1766 
Q 4762 1491 4762 985 
Q 4762 480 4800 173 
Q 4499 218 4019 218 
Q 3539 218 3245 166 
Q 3290 531 3290 1020 
Q 3290 1510 3251 1741 
Q 3098 1651 3021 1613 
Q 2925 1779 2778 1965 
Q 3341 2182 3718 2483 
Q 3507 2746 3424 2995 
Q 3290 2771 3168 2630 
Q 3034 2739 2810 2784 
Q 3002 2970 3222 3357 
Q 3443 3744 3565 4115 
Q 3693 4006 3936 3955 
Q 4019 3942 4019 3904 
Q 4019 3866 3948 3811 
Q 3878 3757 3821 3667 
L 4992 3667 
Q 4666 2995 4250 2534 
Q 4704 2266 5293 2195 
Q 5120 1978 5062 1741 
Q 4390 1894 3962 2246 
z
M 3968 2746 
Q 4224 3059 4378 3341 
L 3622 3341 
Q 3616 3322 3590 3283 
Q 3712 2963 3968 2746 
z
M 3699 1382 
L 3699 576 
L 4346 576 
L 4346 1382 
L 3699 1382 
z
M 2202 4070 
Q 2451 4013 2707 4013 
Q 2778 4013 2778 3965 
Q 2778 3917 2742 3862 
Q 2707 3808 2707 3654 
L 2707 -538 
L 2182 -538 
Q 2253 -32 2253 390 
L 2253 3290 
Q 2253 3750 2202 4070 
z
" transform="scale(0.015625)"/>
        <path id="STHeiti-6d45" d="M 3174 2938 
Q 2688 2829 2189 2682 
L 2086 3187 
Q 2541 3258 3155 3386 
L 3098 5165 
Q 3488 5082 3750 5082 
Q 3872 5082 3872 5043 
Q 3872 5005 3789 4921 
Q 3706 4838 3680 4569 
Q 3654 4301 3667 3494 
Q 4896 3750 5645 3955 
L 5741 3475 
Q 5466 3424 4992 3328 
L 3680 3053 
Q 3725 2554 3776 2291 
Q 4890 2534 5818 2784 
L 5914 2298 
L 3872 1882 
Q 3994 1427 4211 1050 
Q 4685 1466 4998 1971 
Q 5216 1760 5498 1613 
Q 5549 1587 5549 1545 
Q 5549 1504 5462 1497 
Q 5376 1491 5232 1385 
Q 5088 1280 4873 1056 
Q 4659 832 4474 685 
Q 4653 467 4915 272 
Q 5178 77 5274 77 
Q 5370 77 5427 262 
Q 5485 448 5536 749 
Q 5747 442 6048 397 
Q 5907 -83 5782 -339 
Q 5658 -595 5466 -595 
Q 5274 -595 4906 -371 
Q 4538 -147 4077 358 
Q 3424 -141 2650 -525 
Q 2509 -288 2253 -70 
Q 2957 115 3808 730 
Q 3526 1184 3366 1773 
Q 2509 1581 2061 1446 
L 1952 1946 
Q 2547 2035 3270 2182 
Q 3200 2541 3174 2938 
z
M 5216 4333 
L 4666 3968 
Q 4538 4250 4275 4544 
L 4813 4858 
L 5216 4333 
z
M 2202 4058 
L 1792 3552 
Q 1318 4064 826 4371 
L 1222 4826 
Q 1722 4397 2202 4058 
z
M 1741 2694 
L 1395 2144 
Q 915 2547 442 2746 
L 755 3238 
Q 1261 2918 1741 2694 
z
M 1645 1363 
Q 1370 698 1018 -730 
Q 659 -422 410 -282 
Q 890 640 1158 1741 
Q 1357 1510 1645 1363 
z
" transform="scale(0.015625)"/>
        <path id="STHeiti-33" d="M 845 3917 
L 378 3917 
Q 506 4486 867 4790 
Q 1229 5094 1750 5094 
Q 2272 5094 2659 4748 
Q 3046 4403 3046 3910 
Q 3046 3315 2458 2970 
Q 2861 2803 3081 2473 
Q 3302 2144 3302 1754 
Q 3302 1146 2857 707 
Q 2413 269 1734 269 
Q 1133 269 742 611 
Q 352 954 224 1613 
L 672 1613 
Q 794 1158 1046 937 
Q 1299 717 1760 717 
Q 2221 717 2534 1011 
Q 2848 1306 2848 1741 
Q 2848 2176 2502 2441 
Q 2157 2707 1498 2720 
L 1498 3142 
Q 1971 3142 2268 3360 
Q 2566 3578 2566 3901 
Q 2566 4224 2326 4438 
Q 2086 4653 1747 4653 
Q 1408 4653 1200 4470 
Q 992 4288 845 3917 
z
" transform="scale(0.015625)"/>
        <path id="STHeiti-2d" d="M 205 2304 
L 1920 2304 
L 1920 1920 
L 205 1920 
L 205 2304 
z
" transform="scale(0.015625)"/>
        <path id="STHeiti-31" d="M 1184 4979 
L 2086 4979 
L 2086 384 
L 1632 384 
L 1632 4531 
L 909 4531 
L 1184 4979 
z
" transform="scale(0.015625)"/>
       </defs>
       <use xlink:href="#STHeiti-6401"/>
       <use xlink:href="#STHeiti-6d45" transform="translate(99.999985 0)"/>
       <use xlink:href="#STHeiti-4ea7" transform="translate(199.999969 0)"/>
       <use xlink:href="#STHeiti-80fd" transform="translate(299.999954 0)"/>
       <use xlink:href="#STHeiti-ff08" transform="translate(399.999939 0)"/>
       <use xlink:href="#STHeiti-42" transform="translate(499.999924 0)"/>
       <use xlink:href="#STHeiti-33" transform="translate(557.399918 0)"/>
       <use xlink:href="#STHeiti-2d" transform="translate(612.799911 0)"/>
       <use xlink:href="#STHeiti-31" transform="translate(645.999908 0)"/>
       <use xlink:href="#STHeiti-ff09" transform="translate(701.399902 0)"/>
      </g>
     </g>
    </g>
    <g id="xtick_4">
     <g id="line2d_7">
      <path d="M 673.463977 278.480464 
L 673.463977 7.2 
" clip-path="url(#p84b674b951)" style="fill: none; stroke: #b0b0b0; stroke-opacity: 0.3; stroke-width: 0.8; stroke-linecap: square"/>
     </g>
     <g id="line2d_8">
      <g>
       <use xlink:href="#m8f34750370" x="673.463977" y="278.480464" style="stroke: #000000; stroke-width: 0.8"/>
      </g>
     </g>
     <g id="text_4">
      <!-- 产能缩减趋势 -->
      <g transform="translate(620.832141 322.373485) rotate(-30) scale(0.1 -0.1)">
       <defs>
        <path id="STHeiti-7f29" d="M 3910 4582 
Q 3853 4902 3750 5146 
L 4352 5235 
Q 4448 4851 4538 4582 
Q 5478 4595 5907 4634 
L 5907 3712 
L 5402 3712 
L 5402 4173 
L 2893 4173 
L 2893 3456 
L 2387 3456 
L 2387 4634 
Q 2714 4582 3910 4582 
z
M 1414 2848 
L 1069 2803 
Q 749 2765 525 2682 
Q 480 2931 358 3104 
Q 570 3270 842 3836 
Q 1114 4403 1306 5101 
Q 1658 4947 1802 4924 
Q 1946 4902 1946 4857 
Q 1946 4813 1862 4787 
Q 1709 4736 941 3155 
L 1606 3232 
Q 1805 3629 1862 3872 
Q 2099 3648 2291 3571 
Q 2362 3546 2362 3507 
Q 2362 3469 2294 3440 
Q 2227 3411 1178 1690 
L 2214 1754 
Q 2182 1606 2182 1497 
Q 2182 1389 2189 1318 
L 1254 1267 
Q 794 1229 621 1158 
Q 608 1402 480 1619 
Q 851 1747 1414 2848 
z
M 2803 2419 
Q 2598 2157 2381 1914 
Q 2298 2106 2029 2157 
Q 2330 2406 2691 2889 
Q 3053 3373 3245 3904 
Q 3405 3789 3642 3706 
Q 3731 3674 3731 3642 
Q 3731 3610 3622 3552 
Q 3558 3501 3251 3027 
L 3251 -506 
L 2733 -506 
Q 2803 192 2803 870 
L 2803 2419 
z
M 4435 3085 
Q 3974 3072 3718 3027 
L 3718 3571 
Q 4077 3507 4829 3507 
Q 5581 3507 5939 3571 
L 5939 3027 
Q 5587 3091 4877 3091 
Q 4845 2803 4762 2438 
Q 5581 2438 5805 2483 
Q 5766 2240 5766 1869 
L 5766 493 
Q 5766 -13 5824 -435 
L 5306 -435 
L 5306 -26 
L 4250 -26 
L 4250 -448 
L 3725 -448 
Q 3782 0 3782 480 
L 3782 1869 
Q 3782 2195 3744 2483 
Q 3949 2445 4320 2438 
Q 4403 2829 4435 3085 
z
M 4250 1453 
L 5306 1453 
L 5306 2022 
L 4250 2022 
L 4250 1453 
z
M 5306 1037 
L 4250 1037 
L 4250 390 
L 5306 390 
L 5306 1037 
z
M 2432 787 
Q 2394 678 2394 556 
Q 2394 435 2413 314 
Q 992 109 512 -186 
Q 499 115 339 506 
Q 794 461 2432 787 
z
" transform="scale(0.015625)"/>
        <path id="STHeiti-51cf" d="M 3923 3757 
L 2202 3757 
Q 2202 1504 2051 790 
Q 1901 77 1466 -666 
Q 1184 -518 915 -486 
Q 1062 -371 1228 -41 
Q 1395 288 1523 733 
Q 1651 1178 1696 1539 
Q 1741 1901 1741 2537 
Q 1741 3174 1702 4275 
Q 2208 4218 3878 4218 
Q 3834 4877 3821 5274 
Q 3923 5242 4064 5226 
Q 4205 5210 4288 5216 
L 4422 5216 
Q 4506 5216 4506 5174 
Q 4506 5133 4442 5065 
Q 4378 4998 4390 4218 
Q 5408 4224 5722 4269 
L 5722 3699 
Q 5325 3757 4410 3757 
Q 4480 2477 4710 1568 
Q 4973 2234 5082 3258 
Q 5350 3142 5632 3130 
Q 5728 3123 5728 3078 
Q 5728 3034 5677 3011 
Q 5626 2989 5587 2889 
Q 5549 2790 5453 2470 
Q 5152 1453 4909 998 
Q 5082 576 5238 365 
Q 5395 154 5472 154 
Q 5549 154 5597 304 
Q 5645 454 5690 762 
Q 5894 557 6118 531 
Q 5997 -19 5869 -278 
Q 5741 -538 5565 -538 
Q 5389 -538 5107 -230 
Q 4826 77 4608 525 
Q 4058 -205 3450 -621 
Q 3245 -384 2995 -275 
Q 3840 166 4403 1005 
Q 4096 1798 3923 3757 
z
M 5510 4582 
L 4986 4416 
Q 4890 4698 4736 4973 
L 5242 5120 
Q 5382 4851 5510 4582 
z
M 1504 3200 
L 960 2938 
Q 781 3635 410 4230 
L 902 4493 
Q 1184 3923 1504 3200 
z
M 3738 2752 
Q 3462 2797 3084 2797 
Q 2707 2797 2451 2752 
L 2451 3245 
Q 2637 3194 3094 3194 
Q 3552 3194 3738 3245 
L 3738 2752 
z
M 1408 2118 
Q 934 602 806 0 
Q 525 250 230 378 
Q 320 518 582 1152 
Q 845 1786 941 2400 
Q 1094 2195 1408 2118 
z
M 3386 666 
L 2899 666 
L 2899 269 
L 2438 269 
Q 2490 576 2490 966 
L 2490 1856 
Q 2490 2182 2451 2368 
Q 2611 2330 3142 2330 
Q 3674 2330 3834 2368 
Q 3795 2189 3795 1856 
L 3795 1107 
Q 3795 774 3840 410 
L 3386 410 
L 3386 666 
z
M 2899 1056 
L 3386 1056 
L 3386 1946 
L 2899 1946 
L 2899 1056 
z
" transform="scale(0.015625)"/>
        <path id="STHeiti-8d8b" d="M 5306 2336 
L 5306 2989 
L 4640 2989 
Q 3725 2989 3475 2944 
L 3475 3405 
Q 3834 3373 4422 3373 
L 4909 4166 
L 3936 4166 
Q 3629 3674 3379 3296 
Q 3238 3443 2918 3526 
Q 3232 3757 3520 4253 
Q 3808 4749 3917 5248 
Q 4256 5107 4493 5069 
Q 4550 5062 4550 5033 
Q 4550 5005 4460 4934 
Q 4371 4864 4166 4550 
L 4858 4550 
Q 5254 4550 5683 4608 
L 4902 3373 
Q 5594 3373 5818 3424 
Q 5811 3309 5811 2560 
L 5811 1517 
Q 5811 1005 5837 570 
L 5306 570 
L 5306 845 
L 4640 845 
Q 3846 845 3328 794 
L 3328 1286 
Q 3827 1248 4640 1248 
L 5306 1248 
L 5306 1933 
L 4640 1933 
Q 3936 1933 3546 1888 
L 3546 2368 
Q 4026 2336 4640 2336 
L 5306 2336 
z
M 2342 1926 
Q 2906 1926 3072 1965 
L 3072 1466 
Q 2906 1504 2342 1504 
L 2342 371 
Q 2874 128 3898 128 
Q 4653 128 6003 262 
Q 5894 -115 5856 -384 
Q 5325 -397 4877 -397 
Q 3386 -397 2810 -275 
Q 2234 -154 1875 144 
Q 1517 442 1248 947 
Q 1069 173 806 -333 
Q 589 -134 326 -13 
Q 627 314 790 890 
Q 954 1466 960 2144 
Q 1261 2048 1401 2048 
Q 1542 2048 1542 2019 
Q 1542 1990 1491 1942 
Q 1440 1894 1357 1498 
Q 1568 973 1875 678 
L 1875 2618 
Q 1107 2618 627 2566 
L 627 3072 
Q 986 3021 1741 3021 
L 1741 3885 
Q 1165 3878 819 3827 
L 819 4358 
Q 1120 4314 1741 4307 
Q 1741 4928 1690 5210 
Q 1894 5178 2118 5178 
L 2298 5184 
Q 2362 5184 2362 5155 
Q 2362 5126 2291 5068 
Q 2221 5011 2221 4710 
L 2221 4307 
Q 2803 4314 3091 4358 
L 3091 3827 
Q 2752 3878 2221 3885 
L 2221 3021 
Q 2829 3027 3136 3072 
L 3136 2566 
Q 2842 2605 2342 2611 
L 2342 1926 
z
" transform="scale(0.015625)"/>
        <path id="STHeiti-52bf" d="M 1498 3430 
L 1498 4038 
Q 864 4038 454 3987 
L 454 4474 
Q 960 4435 1498 4435 
Q 1491 5082 1453 5242 
Q 1651 5203 2010 5203 
Q 2099 5203 2099 5164 
Q 2099 5126 2057 5094 
Q 2016 5062 1987 4982 
Q 1958 4902 1958 4838 
L 1958 4442 
Q 2304 4448 2643 4474 
L 2643 3987 
Q 2298 4026 1958 4032 
L 1958 3507 
Q 2317 3565 2650 3635 
Q 2630 3526 2630 3392 
Q 2630 3258 2650 3168 
Q 2342 3142 1958 3078 
L 1958 2291 
Q 1958 2106 1900 2006 
Q 1843 1907 1660 1843 
Q 1478 1779 1082 1715 
Q 1062 2016 864 2278 
Q 986 2272 1139 2272 
Q 1293 2272 1395 2310 
Q 1498 2349 1498 2451 
L 1498 2989 
Q 909 2861 531 2720 
Q 506 3072 390 3296 
Q 966 3347 1498 3430 
z
M 3565 3469 
Q 3654 3738 3693 4013 
Q 3373 3987 2989 3936 
L 2925 4454 
Q 3514 4454 3725 4461 
Q 3731 4960 3699 5184 
Q 3962 5139 4224 5139 
L 4365 5146 
Q 4410 5146 4410 5123 
Q 4410 5101 4358 5049 
Q 4307 4998 4237 4474 
Q 5069 4499 5530 4589 
Q 5274 3725 5274 3309 
Q 5274 2893 5363 2637 
Q 5453 2381 5523 2381 
Q 5632 2381 5766 2944 
Q 5952 2669 6240 2637 
Q 6010 1811 5626 1811 
Q 5453 1811 5241 1974 
Q 5030 2138 4915 2467 
Q 4800 2797 4800 3168 
Q 4800 3539 4870 4070 
L 4186 4038 
Q 4141 3603 3968 3251 
Q 4358 3034 4704 2797 
L 4358 2394 
Q 4058 2650 3750 2854 
Q 3450 2394 2886 1946 
Q 2694 2189 2413 2304 
Q 3066 2598 3379 3078 
Q 3155 3206 2886 3328 
L 3194 3661 
Q 3437 3533 3565 3469 
z
M 3258 1395 
Q 4845 1395 5395 1466 
L 5114 186 
Q 5050 -96 4941 -227 
Q 4832 -358 4595 -422 
Q 4358 -486 3853 -531 
Q 3808 -179 3590 122 
Q 3834 102 4051 102 
Q 4269 102 4403 156 
Q 4538 211 4570 352 
L 4717 979 
L 3130 979 
Q 2925 410 2377 22 
Q 1830 -365 845 -614 
Q 749 -326 550 -109 
Q 2163 115 2586 979 
Q 1286 979 730 922 
L 730 1459 
Q 1178 1402 2707 1395 
Q 2726 1523 2726 1657 
Q 2726 1792 2701 1875 
Q 3014 1811 3392 1811 
Q 3456 1811 3456 1782 
Q 3456 1754 3398 1702 
Q 3341 1651 3258 1395 
z
" transform="scale(0.015625)"/>
       </defs>
       <use xlink:href="#STHeiti-4ea7"/>
       <use xlink:href="#STHeiti-80fd" transform="translate(99.999985 0)"/>
       <use xlink:href="#STHeiti-7f29" transform="translate(199.999969 0)"/>
       <use xlink:href="#STHeiti-51cf" transform="translate(299.999954 0)"/>
       <use xlink:href="#STHeiti-8d8b" transform="translate(399.999939 0)"/>
       <use xlink:href="#STHeiti-52bf" transform="translate(499.999924 0)"/>
      </g>
     </g>
    </g>
   </g>
   <g id="matplotlib.axis_2">
    <g id="ytick_1">
     <g id="line2d_9">
      <path d="M 72.373775 275.550442 
L 702.08732 275.550442 
" clip-path="url(#p84b674b951)" style="fill: none; stroke: #b0b0b0; stroke-opacity: 0.3; stroke-width: 0.8; stroke-linecap: square"/>
     </g>
     <g id="line2d_10">
      <defs>
       <path id="m1c97d761cf" d="M 0 0 
L -3.5 0 
" style="stroke: #000000; stroke-width: 0.8"/>
      </defs>
      <g>
       <use xlink:href="#m1c97d761cf" x="72.373775" y="275.550442" style="stroke: #000000; stroke-width: 0.8"/>
      </g>
     </g>
     <g id="text_5">
      <!-- -20 -->
      <g transform="translate(50.972213 279.530129) scale(0.1 -0.1)">
       <use xlink:href="#STHeiti-2d"/>
       <use xlink:href="#STHeiti-32" transform="translate(33.199997 0)"/>
       <use xlink:href="#STHeiti-30" transform="translate(88.599991 0)"/>
      </g>
     </g>
    </g>
    <g id="ytick_2">
     <g id="line2d_11">
      <path d="M 72.373775 233.58003 
L 702.08732 233.58003 
" clip-path="url(#p84b674b951)" style="fill: none; stroke: #b0b0b0; stroke-opacity: 0.3; stroke-width: 0.8; stroke-linecap: square"/>
     </g>
     <g id="line2d_12">
      <g>
       <use xlink:href="#m1c97d761cf" x="72.373775" y="233.58003" style="stroke: #000000; stroke-width: 0.8"/>
      </g>
     </g>
     <g id="text_6">
      <!-- 0 -->
      <g transform="translate(59.83315 237.559718) scale(0.1 -0.1)">
       <use xlink:href="#STHeiti-30"/>
      </g>
     </g>
    </g>
    <g id="ytick_3">
     <g id="line2d_13">
      <path d="M 72.373775 191.609618 
L 702.08732 191.609618 
" clip-path="url(#p84b674b951)" style="fill: none; stroke: #b0b0b0; stroke-opacity: 0.3; stroke-width: 0.8; stroke-linecap: square"/>
     </g>
     <g id="line2d_14">
      <g>
       <use xlink:href="#m1c97d761cf" x="72.373775" y="191.609618" style="stroke: #000000; stroke-width: 0.8"/>
      </g>
     </g>
     <g id="text_7">
      <!-- 20 -->
      <g transform="translate(54.292525 195.589306) scale(0.1 -0.1)">
       <use xlink:href="#STHeiti-32"/>
       <use xlink:href="#STHeiti-30" transform="translate(55.399994 0)"/>
      </g>
     </g>
    </g>
    <g id="ytick_4">
     <g id="line2d_15">
      <path d="M 72.373775 149.639207 
L 702.08732 149.639207 
" clip-path="url(#p84b674b951)" style="fill: none; stroke: #b0b0b0; stroke-opacity: 0.3; stroke-width: 0.8; stroke-linecap: square"/>
     </g>
     <g id="line2d_16">
      <g>
       <use xlink:href="#m1c97d761cf" x="72.373775" y="149.639207" style="stroke: #000000; stroke-width: 0.8"/>
      </g>
     </g>
     <g id="text_8">
      <!-- 40 -->
      <g transform="translate(54.292525 153.618894) scale(0.1 -0.1)">
       <defs>
        <path id="STHeiti-34" d="M 2726 5094 
L 2816 5094 
L 2816 1894 
L 3373 1894 
L 3373 1453 
L 2816 1453 
L 2816 384 
L 2362 384 
L 2362 1453 
L 160 1453 
L 2726 5094 
z
M 2362 1894 
L 2362 3808 
L 1005 1894 
L 2362 1894 
z
" transform="scale(0.015625)"/>
       </defs>
       <use xlink:href="#STHeiti-34"/>
       <use xlink:href="#STHeiti-30" transform="translate(55.399994 0)"/>
      </g>
     </g>
    </g>
    <g id="ytick_5">
     <g id="line2d_17">
      <path d="M 72.373775 107.668795 
L 702.08732 107.668795 
" clip-path="url(#p84b674b951)" style="fill: none; stroke: #b0b0b0; stroke-opacity: 0.3; stroke-width: 0.8; stroke-linecap: square"/>
     </g>
     <g id="line2d_18">
      <g>
       <use xlink:href="#m1c97d761cf" x="72.373775" y="107.668795" style="stroke: #000000; stroke-width: 0.8"/>
      </g>
     </g>
     <g id="text_9">
      <!-- 60 -->
      <g transform="translate(54.292525 111.648482) scale(0.1 -0.1)">
       <defs>
        <path id="STHeiti-36" d="M 2349 5094 
L 2726 4851 
L 1485 2970 
Q 1747 3059 1984 3059 
Q 2496 3059 2880 2652 
Q 3264 2246 3264 1660 
Q 3264 1075 2845 672 
Q 2426 269 1827 269 
Q 1229 269 829 678 
Q 429 1088 429 1677 
Q 429 1958 537 2256 
Q 646 2554 954 3014 
L 2349 5094 
z
M 2810 1683 
Q 2810 2086 2528 2368 
Q 2246 2650 1843 2650 
Q 1440 2650 1158 2368 
Q 877 2086 877 1683 
Q 877 1280 1161 998 
Q 1446 717 1843 717 
Q 2240 717 2525 998 
Q 2810 1280 2810 1683 
z
" transform="scale(0.015625)"/>
       </defs>
       <use xlink:href="#STHeiti-36"/>
       <use xlink:href="#STHeiti-30" transform="translate(55.399994 0)"/>
      </g>
     </g>
    </g>
    <g id="ytick_6">
     <g id="line2d_19">
      <path d="M 72.373775 65.698383 
L 702.08732 65.698383 
" clip-path="url(#p84b674b951)" style="fill: none; stroke: #b0b0b0; stroke-opacity: 0.3; stroke-width: 0.8; stroke-linecap: square"/>
     </g>
     <g id="line2d_20">
      <g>
       <use xlink:href="#m1c97d761cf" x="72.373775" y="65.698383" style="stroke: #000000; stroke-width: 0.8"/>
      </g>
     </g>
     <g id="text_10">
      <!-- 80 -->
      <g transform="translate(54.292525 69.678071) scale(0.1 -0.1)">
       <defs>
        <path id="STHeiti-38" d="M 2458 2906 
Q 3328 2477 3328 1702 
Q 3328 1088 2896 678 
Q 2464 269 1763 269 
Q 1062 269 640 678 
Q 218 1088 218 1664 
Q 218 2470 1107 2906 
Q 435 3264 435 3898 
Q 435 4371 828 4732 
Q 1222 5094 1779 5094 
Q 2336 5094 2726 4742 
Q 3117 4390 3117 3885 
Q 3117 3270 2458 2906 
z
M 2656 3904 
Q 2656 4211 2416 4432 
Q 2176 4653 1789 4653 
Q 1402 4653 1152 4432 
Q 902 4211 902 3897 
Q 902 3584 1174 3337 
Q 1446 3091 1792 3091 
Q 2138 3091 2397 3334 
Q 2656 3578 2656 3904 
z
M 2867 1696 
Q 2867 2086 2550 2380 
Q 2234 2675 1782 2675 
Q 1331 2675 1004 2371 
Q 678 2067 678 1654 
Q 678 1242 979 973 
Q 1280 704 1766 704 
Q 2253 704 2560 992 
Q 2867 1280 2867 1696 
z
" transform="scale(0.015625)"/>
       </defs>
       <use xlink:href="#STHeiti-38"/>
       <use xlink:href="#STHeiti-30" transform="translate(55.399994 0)"/>
      </g>
     </g>
    </g>
    <g id="ytick_7">
     <g id="line2d_21">
      <path d="M 72.373775 23.727971 
L 702.08732 23.727971 
" clip-path="url(#p84b674b951)" style="fill: none; stroke: #b0b0b0; stroke-opacity: 0.3; stroke-width: 0.8; stroke-linecap: square"/>
     </g>
     <g id="line2d_22">
      <g>
       <use xlink:href="#m1c97d761cf" x="72.373775" y="23.727971" style="stroke: #000000; stroke-width: 0.8"/>
      </g>
     </g>
     <g id="text_11">
      <!-- 100 -->
      <g transform="translate(48.7519 27.707659) scale(0.1 -0.1)">
       <use xlink:href="#STHeiti-31"/>
       <use xlink:href="#STHeiti-30" transform="translate(55.399994 0)"/>
       <use xlink:href="#STHeiti-30" transform="translate(110.799988 0)"/>
      </g>
     </g>
    </g>
   </g>
   <g id="line2d_23">
    <path d="M 100.997118 95.497375 
L 291.819404 19.53093 
M 673.463977 266.149534 
" clip-path="url(#p84b674b951)" style="fill: none; stroke: #1a365d; stroke-width: 2; stroke-linecap: square"/>
    <defs>
     <path id="m51b742957d" d="M 0 3 
C 0.795609 3 1.55874 2.683901 2.12132 2.12132 
C 2.683901 1.55874 3 0.795609 3 0 
C 3 -0.795609 2.683901 -1.55874 2.12132 -2.12132 
C 1.55874 -2.683901 0.795609 -3 0 -3 
C -0.795609 -3 -1.55874 -2.683901 -2.12132 -2.12132 
C -2.683901 -1.55874 -3 -0.795609 -3 0 
C -3 0.795609 -2.683901 1.55874 -2.12132 2.12132 
C -1.55874 2.683901 -0.795609 3 0 3 
z
" style="stroke: #1a365d"/>
    </defs>
    <g clip-path="url(#p84b674b951)">
     <use xlink:href="#m51b742957d" x="100.997118" y="95.497375" style="fill: #1a365d; stroke: #1a365d"/>
     <use xlink:href="#m51b742957d" x="291.819404" y="19.53093" style="fill: #1a365d; stroke: #1a365d"/>
     <use xlink:href="#m51b742957d" x="673.463977" y="266.149534" style="fill: #1a365d; stroke: #1a365d"/>
    </g>
   </g>
   <g id="patch_3">
    <path d="M 72.373775 278.480464 
L 72.373775 7.2 
" style="fill: none; stroke: #000000; stroke-width: 0.8; stroke-linejoin: miter; stroke-linecap: square"/>
   </g>
   <g id="patch_4">
    <path d="M 702.08732 278.480464 
L 702.08732 7.2 
" style="fill: none; stroke: #000000; stroke-width: 0.8; stroke-linejoin: miter; stroke-linecap: square"/>
   </g>
   <g id="patch_5">
    <path d="M 72.373775 278.480464 
L 702.08732 278.480464 
" style="fill: none; stroke: #000000; stroke-width: 0.8; stroke-linejoin: miter; stroke-linecap: square"/>
   </g>
   <g id="patch_6">
    <path d="M 72.373775 7.2 
L 702.08732 7.2 
" style="fill: none; stroke: #000000; stroke-width: 0.8; stroke-linejoin: miter; stroke-linecap: square"/>
   </g>
   <g id="legend_1">
    <g id="patch_7">
     <path d="M 648.98732 27.27 
L 695.78732 27.27 
Q 697.58732 27.27 697.58732 25.47 
L 697.58732 13.5 
Q 697.58732 11.7 695.78732 11.7 
L 648.98732 11.7 
Q 647.18732 11.7 647.18732 13.5 
L 647.18732 25.47 
Q 647.18732 27.27 648.98732 27.27 
z
" style="fill: #ffffff; opacity: 0.8; stroke: #cccccc; stroke-linejoin: miter"/>
    </g>
    <g id="line2d_24">
     <path d="M 650.78732 19.313437 
L 659.78732 19.313437 
L 668.78732 19.313437 
" style="fill: none; stroke: #1a365d; stroke-width: 2; stroke-linecap: square"/>
     <g>
      <use xlink:href="#m51b742957d" x="659.78732" y="19.313437" style="fill: #1a365d; stroke: #1a365d"/>
     </g>
    </g>
    <g id="text_12">
     <!-- 数值 -->
     <g transform="translate(675.98732 22.463437) scale(0.09 -0.09)">
      <defs>
       <path id="STHeiti-6570" d="M 4640 480 
Q 4173 -51 3194 -467 
Q 3059 -237 2803 -26 
Q 3238 70 3673 323 
Q 4109 576 4365 890 
Q 3994 1549 3962 2835 
Q 3744 2458 3520 2176 
Q 3366 2419 3206 2522 
Q 3584 3040 3837 3747 
Q 4090 4454 4147 5171 
Q 4486 5062 4800 5037 
Q 4877 5030 4877 4988 
Q 4877 4947 4781 4896 
Q 4704 4858 4480 4128 
L 5216 4128 
Q 5747 4128 6003 4179 
L 6003 3661 
Q 5850 3680 5562 3699 
Q 5440 1773 4934 896 
Q 5254 518 6112 250 
Q 5856 6 5754 -365 
Q 4902 141 4640 480 
z
M 4627 1363 
Q 5018 2253 5088 3706 
L 4352 3706 
Q 4237 3328 3981 2874 
L 4384 2886 
Q 4384 1907 4627 1363 
z
M 1549 3526 
Q 1222 3520 589 3488 
L 589 3942 
Q 1158 3898 1850 3898 
L 1850 4499 
Q 1850 4800 1786 5165 
Q 2042 5139 2362 5139 
Q 2458 5139 2458 5094 
Q 2458 5050 2406 5030 
Q 2355 5011 2336 4976 
Q 2317 4941 2317 4845 
L 2317 3898 
Q 2758 3904 3507 3942 
L 3507 3488 
Q 2810 3526 2317 3533 
Q 2317 2970 2362 2515 
L 1805 2515 
Q 1850 3034 1850 3456 
Q 1632 3014 1401 2745 
Q 1171 2477 755 2189 
Q 608 2406 282 2573 
Q 1030 2816 1549 3526 
z
M 2861 4922 
Q 3155 4826 3386 4794 
Q 3462 4781 3462 4755 
Q 3462 4730 3388 4701 
Q 3315 4672 3228 4521 
Q 3142 4371 3014 4122 
Q 2835 4166 2560 4186 
Q 2746 4461 2861 4922 
z
M 1510 4230 
L 973 4154 
Q 966 4461 883 4806 
L 1389 4870 
Q 1459 4595 1510 4230 
z
M 3360 2790 
L 3046 2477 
Q 2765 2816 2464 3078 
L 2790 3328 
Q 3034 3117 3360 2790 
z
M 2899 755 
Q 3168 666 3450 525 
Q 3251 314 3168 128 
Q 2886 288 2637 390 
Q 2394 128 1984 -51 
Q 1574 -230 781 -410 
Q 627 -115 346 109 
Q 1619 134 2157 557 
Q 1709 691 1030 781 
Q 1248 1165 1408 1555 
Q 800 1549 531 1504 
L 531 1965 
Q 858 1939 1536 1926 
Q 1600 2118 1696 2458 
Q 1946 2355 2214 2336 
Q 2342 2323 2342 2294 
Q 2342 2266 2243 2198 
Q 2144 2131 2035 1926 
L 2899 1926 
Q 3162 1926 3341 1971 
Q 3123 1158 2899 755 
z
M 1862 1555 
L 1626 1043 
Q 2118 966 2470 883 
Q 2662 1165 2726 1555 
L 1862 1555 
z
" transform="scale(0.015625)"/>
       <path id="STHeiti-503c" d="M 2438 109 
L 2438 2912 
Q 2438 3322 2406 3610 
Q 2861 3571 3507 3565 
Q 3552 3834 3571 4186 
Q 2490 4173 2086 4147 
L 2086 4646 
Q 2586 4602 3597 4595 
Q 3610 5024 3590 5229 
Q 3840 5184 4294 5184 
Q 4346 5184 4346 5155 
Q 4346 5126 4301 5088 
Q 4192 4998 4128 4595 
Q 5440 4595 6022 4646 
L 6022 4147 
Q 5338 4192 4077 4186 
L 4013 3565 
Q 5043 3565 5434 3610 
Q 5408 3405 5408 2912 
L 5408 102 
Q 5805 109 6118 147 
L 6118 -365 
Q 5754 -320 3965 -320 
Q 2176 -320 1830 -358 
L 1830 147 
Q 2106 122 2438 109 
z
M 4915 2688 
L 4915 3155 
L 2925 3155 
L 2925 2688 
L 4915 2688 
z
M 2925 2323 
L 2925 1824 
L 4915 1824 
L 4915 2323 
L 2925 2323 
z
M 2925 1466 
L 2925 973 
L 4915 973 
L 4915 1466 
L 2925 1466 
z
M 4915 102 
L 4915 608 
L 2925 608 
L 2925 102 
L 4915 102 
z
M 1549 4026 
L 1549 -627 
L 966 -627 
Q 1037 70 1037 749 
L 1037 3066 
Q 845 2726 595 2349 
Q 448 2579 186 2752 
Q 685 3354 944 3933 
Q 1203 4512 1408 5216 
Q 1786 5024 1926 4995 
Q 2067 4966 2067 4918 
Q 2067 4870 1984 4825 
Q 1901 4781 1766 4493 
L 1549 4026 
z
" transform="scale(0.015625)"/>
      </defs>
      <use xlink:href="#STHeiti-6570"/>
      <use xlink:href="#STHeiti-503c" transform="translate(99.999985 0)"/>
     </g>
    </g>
   </g>
  </g>
 </g>
 <defs>
  <clipPath id="p84b674b951">
   <rect x="72.373775" y="7.2" width="629.713545" height="271.280464"/>
  </clipPath>
 </defs>
</svg>
