<?xml version="1.0" encoding="utf-8" standalone="no"?>
<!DOCTYPE svg PUBLIC "-//W3C//DTD SVG 1.1//EN"
  "http://www.w3.org/Graphics/SVG/1.1/DTD/svg11.dtd">
<svg xmlns:xlink="http://www.w3.org/1999/xlink" width="712.603232pt" height="352.456774pt" viewBox="0 0 712.603232 352.456774" xmlns="http://www.w3.org/2000/svg" version="1.1">
 <metadata>
  <rdf:RDF xmlns:dc="http://purl.org/dc/elements/1.1/" xmlns:cc="http://creativecommons.org/ns#" xmlns:rdf="http://www.w3.org/1999/02/22-rdf-syntax-ns#">
   <cc:Work>
    <dc:type rdf:resource="http://purl.org/dc/dcmitype/StillImage"/>
    <dc:date>2026-06-05T15:38:31.952269</dc:date>
    <dc:format>image/svg+xml</dc:format>
    <dc:creator>
     <cc:Agent>
      <dc:title>Matplotlib v3.10.9, https://matplotlib.org/</dc:title>
     </cc:Agent>
    </dc:creator>
   </cc:Work>
  </rdf:RDF>
 </metadata>
 <defs>
  <style type="text/css">*{stroke-linejoin: round; stroke-linecap: butt}</style>
 </defs>
 <g id="figure_1">
  <g id="patch_1">
   <path d="M 0 352.456774 
L 712.603232 352.456774 
L 712.603232 0 
L 0 0 
z
" style="fill: #ffffff"/>
  </g>
  <g id="axes_1">
   <g id="patch_2">
    <path d="M 116.252069 185.645464 
L 705.403232 185.645464 
L 705.403232 7.2 
L 116.252069 7.2 
z
" style="fill: #fafafa"/>
   </g>
   <g id="matplotlib.axis_1">
    <g id="xtick_1">
     <g id="line2d_1">
      <path d="M 116.252069 185.645464 
L 116.252069 7.2 
" clip-path="url(#pb4dd5ece5a)" style="fill: none; stroke: #b0b0b0; stroke-opacity: 0.3; stroke-width: 0.8; stroke-linecap: square"/>
     </g>
     <g id="line2d_2">
      <defs>
       <path id="m787934f870" d="M 0 0 
L 0 3.5 
" style="stroke: #000000; stroke-width: 0.8"/>
      </defs>
      <g>
       <use xlink:href="#m787934f870" x="116.252069" y="185.645464" style="stroke: #000000; stroke-width: 0.8"/>
      </g>
     </g>
     <g id="text_1">
      <!-- CSRC证监发〔2018〕39号 -->
      <g transform="translate(11.179688 259.815047) rotate(-30) scale(0.1 -0.1)">
       <defs>
        <path id="STHeiti-43" d="M 4838 4128 
L 4480 3853 
Q 3840 4646 2835 4646 
Q 2016 4646 1424 4070 
Q 832 3494 832 2659 
Q 832 1824 1411 1264 
Q 1990 704 2861 704 
Q 3834 704 4480 1459 
L 4838 1184 
Q 4499 736 3980 502 
Q 3462 269 2835 269 
Q 1741 269 1043 960 
Q 346 1651 346 2707 
Q 346 3360 669 3913 
Q 992 4467 1565 4780 
Q 2138 5094 2797 5094 
Q 3456 5094 3981 4844 
Q 4506 4595 4838 4128 
z
" transform="scale(0.015625)"/>
        <path id="STHeiti-53" d="M 83 1242 
L 474 1472 
Q 883 717 1427 717 
Q 1779 717 2028 941 
Q 2278 1165 2278 1498 
Q 2278 1760 2067 2029 
Q 1856 2298 1366 2666 
Q 877 3034 707 3216 
Q 538 3398 458 3606 
Q 378 3814 378 4026 
Q 378 4474 694 4784 
Q 1011 5094 1491 5094 
Q 1869 5094 2150 4905 
Q 2432 4717 2694 4346 
L 2323 4058 
Q 2144 4301 1952 4461 
Q 1760 4621 1481 4621 
Q 1203 4621 1027 4454 
Q 851 4288 851 4032 
Q 851 3776 1008 3587 
Q 1165 3398 1718 2988 
Q 2272 2579 2525 2233 
Q 2778 1888 2778 1504 
Q 2778 1005 2390 637 
Q 2003 269 1491 269 
Q 589 269 83 1242 
z
" transform="scale(0.015625)"/>
        <path id="STHeiti-52" d="M 582 4979 
L 1498 4979 
Q 2266 4979 2547 4912 
Q 2829 4845 3030 4691 
Q 3232 4538 3347 4294 
Q 3462 4051 3462 3757 
Q 3462 3168 3046 2832 
Q 2630 2496 1869 2522 
L 3526 384 
L 2957 384 
L 1306 2522 
L 1043 2522 
L 1043 384 
L 582 384 
L 582 4979 
z
M 1043 4531 
L 1043 2970 
L 1837 2970 
Q 2426 2963 2704 3152 
Q 2982 3341 2982 3750 
Q 2982 4160 2707 4345 
Q 2432 4531 1856 4531 
L 1043 4531 
z
" transform="scale(0.015625)"/>
        <path id="STHeiti-8bc1" d="M 1914 4192 
L 1370 3872 
Q 1158 4429 768 4902 
L 1274 5203 
Q 1638 4595 1914 4192 
z
M 2637 262 
L 2637 2451 
Q 2637 2925 2592 3168 
Q 2970 3110 3258 3110 
Q 3328 3110 3328 3065 
Q 3328 3021 3251 2966 
Q 3174 2912 3174 2739 
L 3174 256 
L 3904 256 
L 3904 4243 
Q 2925 4237 2413 4179 
L 2413 4768 
Q 3021 4710 4064 4710 
Q 5107 4710 5837 4768 
L 5837 4179 
Q 5350 4237 4442 4243 
L 4442 2746 
L 4966 2746 
Q 5389 2746 5760 2803 
L 5760 2221 
Q 5453 2253 4966 2253 
L 4442 2253 
L 4442 256 
Q 5786 256 6093 333 
L 6093 -294 
Q 5824 -237 4080 -237 
Q 2336 -237 2010 -294 
L 2010 333 
Q 2240 282 2637 262 
z
M 2400 954 
L 1670 122 
Q 1459 -141 1280 -442 
Q 1024 -122 819 19 
Q 960 141 1005 262 
Q 1050 384 1050 717 
L 1050 2797 
Q 557 2797 282 2765 
L 282 3347 
Q 486 3315 947 3315 
Q 1408 3315 1626 3347 
Q 1562 3117 1562 2445 
L 1562 717 
Q 1869 1082 2106 1408 
Q 2208 1094 2400 954 
z
" transform="scale(0.015625)"/>
        <path id="STHeiti-76d1" d="M 3981 3674 
Q 3648 2906 3386 2394 
Q 3142 2547 2867 2586 
Q 3245 3053 3513 3769 
Q 3782 4486 3866 5158 
Q 4122 5062 4499 5018 
Q 4589 5005 4589 4973 
Q 4589 4941 4534 4902 
Q 4480 4864 4173 4115 
L 4723 4115 
Q 5722 4115 5926 4179 
L 5926 3610 
Q 5619 3674 4723 3674 
L 3981 3674 
z
M 2176 5126 
Q 2394 5101 2554 5101 
L 2758 5107 
Q 2842 5107 2842 5065 
Q 2842 5024 2784 4989 
Q 2726 4954 2726 4813 
L 2726 2854 
Q 2726 2509 2765 2061 
L 2176 2061 
Q 2214 2515 2214 2854 
L 2214 4410 
Q 2214 4883 2176 5126 
z
M 954 4819 
Q 1158 4787 1344 4787 
L 1542 4794 
Q 1626 4794 1626 4752 
Q 1626 4710 1568 4675 
Q 1510 4640 1510 4499 
L 1510 3046 
Q 1510 2522 1536 2246 
L 954 2246 
Q 998 2675 998 3046 
L 998 4096 
Q 998 4582 954 4819 
z
M 5421 2490 
L 4986 2163 
Q 4576 2720 4115 3098 
L 4550 3386 
Q 5005 2944 5421 2490 
z
M 1075 109 
L 1075 1312 
Q 1075 1594 1050 1786 
Q 1683 1766 3203 1766 
Q 4723 1766 5370 1786 
Q 5344 1600 5344 1312 
L 5344 109 
Q 5709 109 5990 160 
L 5990 -422 
Q 5402 -358 3203 -358 
Q 1005 -358 416 -422 
L 416 160 
Q 704 109 1075 109 
z
M 3565 1350 
L 2790 1350 
L 2790 102 
L 3565 102 
L 3565 1350 
z
M 4864 102 
L 4864 1350 
L 4026 1350 
L 4026 102 
L 4864 102 
z
M 2336 1350 
L 1530 1350 
L 1530 102 
L 2336 102 
L 2336 1350 
z
" transform="scale(0.015625)"/>
        <path id="STHeiti-53d1" d="M 2477 3302 
Q 1344 3290 998 3027 
Q 998 3258 800 3590 
Q 1254 3974 1427 4928 
Q 1747 4787 1997 4736 
Q 2054 4723 2054 4697 
Q 2054 4672 2016 4643 
Q 1978 4614 1834 4352 
Q 1690 4090 1523 3738 
L 2598 3738 
Q 2854 4672 2842 5152 
Q 3104 5107 3290 5107 
Q 3635 5107 3635 5084 
Q 3635 5062 3597 5037 
Q 3526 4979 3379 4595 
Q 3232 4211 3110 3738 
Q 3917 3738 4771 3779 
Q 5626 3821 5824 3878 
L 5824 3258 
Q 5414 3302 3994 3302 
L 3002 3302 
Q 2893 2925 2746 2598 
L 4032 2598 
Q 4717 2598 5280 2637 
Q 4986 1862 4707 1398 
Q 4429 934 4045 589 
Q 4352 410 4784 333 
Q 5216 256 6106 218 
Q 5843 -58 5741 -454 
Q 4506 -326 3642 256 
Q 2688 -378 1504 -582 
Q 1363 -326 1133 -102 
Q 2464 166 3200 595 
Q 2720 998 2214 1658 
Q 1645 851 794 224 
Q 621 563 269 717 
Q 954 979 1568 1699 
Q 2182 2419 2477 3302 
z
M 2470 2067 
Q 2848 1485 3622 883 
Q 4160 1344 4442 2131 
L 2509 2131 
L 2470 2067 
z
M 5210 4218 
L 4678 3859 
Q 4435 4346 4077 4646 
L 4499 4998 
Q 4864 4518 5210 4218 
z
" transform="scale(0.015625)"/>
        <path id="STHeiti-3014" d="M 5683 -115 
L 5626 -474 
L 3891 13 
L 3891 4602 
L 5626 5088 
L 5683 4730 
L 4243 4326 
L 4243 288 
L 5683 -115 
z
" transform="scale(0.015625)"/>
        <path id="STHeiti-32" d="M 742 3539 
L 301 3539 
Q 333 4243 768 4668 
Q 1203 5094 1820 5094 
Q 2438 5094 2844 4694 
Q 3251 4294 3251 3718 
Q 3251 3290 3024 2925 
Q 2797 2560 2336 2061 
L 1190 826 
L 3315 826 
L 3315 384 
L 192 384 
L 1946 2278 
Q 2406 2778 2604 3066 
Q 2803 3354 2803 3725 
Q 2803 4096 2512 4377 
Q 2221 4659 1789 4659 
Q 1357 4659 1072 4368 
Q 787 4077 742 3539 
z
" transform="scale(0.015625)"/>
        <path id="STHeiti-30" d="M 1747 269 
Q 1005 269 605 880 
Q 205 1491 205 2681 
Q 205 3872 605 4483 
Q 1005 5094 1741 5094 
Q 2477 5094 2909 4470 
Q 3341 3846 3341 2681 
Q 3341 1517 2905 893 
Q 2470 269 1747 269 
z
M 1760 4659 
Q 1229 4659 934 4147 
Q 640 3635 640 2669 
Q 640 685 1760 685 
Q 2304 685 2608 1206 
Q 2912 1728 2912 2681 
Q 2912 3635 2598 4147 
Q 2285 4659 1760 4659 
z
" transform="scale(0.015625)"/>
        <path id="STHeiti-31" d="M 1184 4979 
L 2086 4979 
L 2086 384 
L 1632 384 
L 1632 4531 
L 909 4531 
L 1184 4979 
z
" transform="scale(0.015625)"/>
        <path id="STHeiti-38" d="M 2458 2906 
Q 3328 2477 3328 1702 
Q 3328 1088 2896 678 
Q 2464 269 1763 269 
Q 1062 269 640 678 
Q 218 1088 218 1664 
Q 218 2470 1107 2906 
Q 435 3264 435 3898 
Q 435 4371 828 4732 
Q 1222 5094 1779 5094 
Q 2336 5094 2726 4742 
Q 3117 4390 3117 3885 
Q 3117 3270 2458 2906 
z
M 2656 3904 
Q 2656 4211 2416 4432 
Q 2176 4653 1789 4653 
Q 1402 4653 1152 4432 
Q 902 4211 902 3897 
Q 902 3584 1174 3337 
Q 1446 3091 1792 3091 
Q 2138 3091 2397 3334 
Q 2656 3578 2656 3904 
z
M 2867 1696 
Q 2867 2086 2550 2380 
Q 2234 2675 1782 2675 
Q 1331 2675 1004 2371 
Q 678 2067 678 1654 
Q 678 1242 979 973 
Q 1280 704 1766 704 
Q 2253 704 2560 992 
Q 2867 1280 2867 1696 
z
" transform="scale(0.015625)"/>
        <path id="STHeiti-3015" d="M 2464 19 
L 730 -467 
L 672 -109 
L 2112 294 
L 2112 4333 
L 672 4736 
L 730 5094 
L 2464 4608 
L 2464 19 
z
" transform="scale(0.015625)"/>
        <path id="STHeiti-33" d="M 845 3917 
L 378 3917 
Q 506 4486 867 4790 
Q 1229 5094 1750 5094 
Q 2272 5094 2659 4748 
Q 3046 4403 3046 3910 
Q 3046 3315 2458 2970 
Q 2861 2803 3081 2473 
Q 3302 2144 3302 1754 
Q 3302 1146 2857 707 
Q 2413 269 1734 269 
Q 1133 269 742 611 
Q 352 954 224 1613 
L 672 1613 
Q 794 1158 1046 937 
Q 1299 717 1760 717 
Q 2221 717 2534 1011 
Q 2848 1306 2848 1741 
Q 2848 2176 2502 2441 
Q 2157 2707 1498 2720 
L 1498 3142 
Q 1971 3142 2268 3360 
Q 2566 3578 2566 3901 
Q 2566 4224 2326 4438 
Q 2086 4653 1747 4653 
Q 1408 4653 1200 4470 
Q 992 4288 845 3917 
z
" transform="scale(0.015625)"/>
        <path id="STHeiti-39" d="M 1229 269 
L 851 512 
L 2093 2394 
Q 1850 2310 1613 2310 
Q 1062 2310 688 2707 
Q 314 3104 314 3696 
Q 314 4288 730 4691 
Q 1146 5094 1750 5094 
Q 2355 5094 2748 4681 
Q 3142 4269 3142 3693 
Q 3142 3373 3011 3049 
Q 2880 2726 2624 2349 
L 1229 269 
z
M 762 3680 
Q 762 3277 1043 2995 
Q 1325 2714 1728 2714 
Q 2131 2714 2412 2998 
Q 2694 3283 2694 3680 
Q 2694 4077 2412 4361 
Q 2131 4646 1728 4646 
Q 1325 4646 1043 4364 
Q 762 4083 762 3680 
z
" transform="scale(0.015625)"/>
        <path id="STHeiti-53f7" d="M 5139 3098 
Q 4448 3136 3190 3136 
Q 1933 3136 1235 3098 
Q 1267 3450 1267 4013 
Q 1267 4576 1235 4922 
Q 2010 4890 3187 4890 
Q 4365 4890 5139 4922 
Q 5107 4576 5107 4013 
Q 5107 3450 5139 3098 
z
M 4595 3603 
L 4595 4422 
L 1786 4422 
L 1786 3603 
L 4595 3603 
z
M 1773 2176 
Q 928 2170 294 2125 
L 294 2726 
Q 1248 2662 3193 2662 
Q 5139 2662 6086 2726 
L 6086 2125 
Q 5286 2189 2336 2182 
L 2221 1459 
L 3789 1459 
Q 4710 1459 5235 1504 
Q 5133 704 5046 310 
Q 4960 -83 4848 -240 
Q 4736 -397 4425 -499 
Q 4115 -602 3398 -704 
Q 3309 -320 3110 -19 
Q 3462 -38 3699 -38 
Q 3936 -38 4080 -16 
Q 4224 6 4301 57 
Q 4378 109 4413 182 
Q 4448 256 4502 518 
Q 4557 781 4570 1011 
L 2752 1011 
Q 2022 1011 1562 941 
L 1773 2176 
z
" transform="scale(0.015625)"/>
       </defs>
       <use xlink:href="#STHeiti-43"/>
       <use xlink:href="#STHeiti-53" transform="translate(81.299988 0)"/>
       <use xlink:href="#STHeiti-52" transform="translate(131.099976 0)"/>
       <use xlink:href="#STHeiti-43" transform="translate(191.799973 0)"/>
       <use xlink:href="#STHeiti-8bc1" transform="translate(273.09996 0)"/>
       <use xlink:href="#STHeiti-76d1" transform="translate(373.099945 0)"/>
       <use xlink:href="#STHeiti-53d1" transform="translate(473.09993 0)"/>
       <use xlink:href="#STHeiti-3014" transform="translate(573.099915 0)"/>
       <use xlink:href="#STHeiti-32" transform="translate(673.099899 0)"/>
       <use xlink:href="#STHeiti-30" transform="translate(728.499893 0)"/>
       <use xlink:href="#STHeiti-31" transform="translate(783.899887 0)"/>
       <use xlink:href="#STHeiti-38" transform="translate(839.299881 0)"/>
       <use xlink:href="#STHeiti-3015" transform="translate(894.699875 0)"/>
       <use xlink:href="#STHeiti-33" transform="translate(994.69986 0)"/>
       <use xlink:href="#STHeiti-39" transform="translate(1050.099854 0)"/>
       <use xlink:href="#STHeiti-53f7" transform="translate(1105.499847 0)"/>
      </g>
     </g>
    </g>
    <g id="xtick_2">
     <g id="line2d_3">
      <path d="M 403.64288 185.645464 
L 403.64288 7.2 
" clip-path="url(#pb4dd5ece5a)" style="fill: none; stroke: #b0b0b0; stroke-opacity: 0.3; stroke-width: 0.8; stroke-linecap: square"/>
     </g>
     <g id="line2d_4">
      <g>
       <use xlink:href="#m787934f870" x="403.64288" y="185.645464" style="stroke: #000000; stroke-width: 0.8"/>
      </g>
     </g>
     <g id="text_2">
      <!-- 《上市公司重大资产重组管理办法》（2023修订）第2条、第50条 -->
      <g transform="translate(152.877963 344.095758) rotate(-30) scale(0.1 -0.1)">
       <defs>
        <path id="STHeiti-300a" d="M 6093 557 
L 5811 339 
L 4397 2272 
L 5811 4205 
L 6093 3987 
L 4838 2272 
L 6093 557 
z
M 4960 557 
L 4678 339 
L 3264 2272 
L 4678 4205 
L 4960 3987 
L 3706 2272 
L 4960 557 
z
" transform="scale(0.015625)"/>
        <path id="STHeiti-4e0a" d="M 3270 390 
Q 5075 390 6022 454 
L 6022 -186 
Q 5069 -122 3219 -122 
Q 1370 -122 422 -186 
L 422 454 
Q 1242 397 2675 390 
L 2675 3488 
Q 2675 4832 2624 5101 
Q 2950 5043 3366 5043 
Q 3462 5043 3462 5001 
Q 3462 4960 3401 4915 
Q 3341 4870 3305 4707 
Q 3270 4544 3270 4326 
L 3270 3482 
L 4115 3482 
Q 4922 3482 5472 3533 
L 5472 2899 
Q 5030 2950 4115 2950 
L 3270 2950 
L 3270 390 
z
" transform="scale(0.015625)"/>
        <path id="STHeiti-5e02" d="M 3590 4525 
L 2970 4339 
Q 2848 4768 2618 5094 
L 3238 5280 
Q 3424 4934 3590 4525 
z
M 2918 3821 
Q 1338 3814 461 3757 
L 461 4365 
Q 1402 4301 3232 4301 
Q 5062 4301 6003 4365 
L 6003 3757 
Q 5120 3821 3475 3821 
L 3475 2970 
Q 4608 2982 5299 3021 
L 5299 672 
Q 5299 390 5232 252 
Q 5165 115 4950 28 
Q 4736 -58 4256 -134 
Q 4224 282 3936 544 
Q 4301 467 4454 467 
Q 4608 467 4675 531 
Q 4742 595 4742 826 
L 4742 2509 
L 3475 2509 
L 3475 461 
Q 3475 6 3539 -640 
L 2854 -640 
Q 2918 6 2918 461 
L 2918 2509 
L 1709 2509 
L 1709 -58 
L 1107 -58 
Q 1158 378 1158 845 
L 1158 3021 
Q 1952 2976 2918 2970 
L 2918 3821 
z
" transform="scale(0.015625)"/>
        <path id="STHeiti-516c" d="M 6195 2522 
Q 5843 2298 5638 1926 
Q 4134 3238 3603 4915 
Q 3968 4915 4198 5030 
Q 4704 3296 6195 2522 
z
M 2099 4986 
Q 2445 4806 2714 4755 
Q 2784 4742 2784 4704 
Q 2784 4666 2723 4634 
Q 2662 4602 2550 4419 
Q 2438 4237 2336 4032 
Q 2170 3661 1734 2995 
Q 1299 2330 845 1894 
Q 634 2080 230 2259 
Q 826 2675 1350 3459 
Q 1875 4243 2099 4986 
z
M 4352 589 
Q 4077 1075 3789 1478 
L 4262 1734 
Q 4960 826 5498 -83 
L 4870 -454 
Q 4787 -237 4595 154 
Q 1984 -26 1216 -243 
Q 1158 51 986 378 
Q 1242 403 1882 1356 
Q 2522 2310 2739 3053 
Q 3162 2829 3392 2758 
Q 3494 2726 3494 2688 
Q 3494 2650 3398 2602 
Q 3302 2554 3117 2259 
Q 2496 1299 1837 429 
L 4352 589 
z
" transform="scale(0.015625)"/>
        <path id="STHeiti-53f8" d="M 5491 4870 
Q 5466 4659 5466 4109 
L 5466 141 
Q 5466 -346 5174 -496 
Q 4883 -646 4237 -627 
Q 4211 -294 4019 26 
Q 4282 6 4483 6 
Q 4685 6 4797 57 
Q 4909 109 4909 314 
L 4909 4333 
L 3078 4333 
Q 1485 4333 1043 4294 
L 1043 4870 
Q 1645 4813 3107 4813 
Q 4570 4813 5491 4870 
z
M 4371 3130 
Q 3782 3187 2649 3187 
Q 1517 3187 653 3130 
L 653 3693 
Q 1530 3635 2714 3635 
Q 3898 3635 4371 3693 
L 4371 3130 
z
M 3546 691 
L 1626 691 
L 1626 26 
L 1037 26 
Q 1107 595 1107 1050 
L 1107 1888 
Q 1107 2259 1062 2554 
Q 1491 2509 2608 2509 
Q 3725 2509 4102 2554 
Q 4058 2253 4058 1894 
L 4058 1050 
Q 4058 646 4102 326 
L 3546 326 
L 3546 691 
z
M 1626 1152 
L 3546 1152 
L 3546 2054 
L 1626 2054 
L 1626 1152 
z
" transform="scale(0.015625)"/>
        <path id="STHeiti-91cd" d="M 2931 4442 
Q 2010 4371 1533 4371 
Q 1056 4371 941 4384 
Q 890 4634 768 4845 
Q 1165 4806 1856 4806 
Q 2547 4806 3459 4899 
Q 4371 4992 4851 5139 
Q 4973 4870 5216 4627 
Q 5274 4570 5274 4538 
Q 5274 4506 5219 4506 
Q 5165 4506 5011 4515 
Q 4858 4525 4448 4525 
Q 4038 4525 3411 4480 
L 3411 3968 
Q 5120 3968 6029 4032 
L 6029 3552 
Q 5120 3616 3411 3616 
L 3411 3174 
Q 4602 3174 5229 3219 
Q 5190 2842 5190 2307 
Q 5190 1773 5229 1248 
Q 4346 1286 3411 1286 
L 3411 896 
Q 4685 896 5382 960 
L 5382 467 
Q 4685 531 3411 531 
L 3411 128 
Q 5075 128 5965 192 
L 5965 -333 
Q 5030 -269 3187 -269 
Q 1344 -269 410 -333 
L 410 192 
Q 1293 128 2931 128 
L 2931 531 
Q 1715 525 1030 467 
L 1030 960 
Q 1715 902 2931 896 
L 2931 1286 
Q 1914 1286 1197 1254 
Q 1229 1702 1229 2249 
Q 1229 2797 1197 3219 
Q 1811 3181 2931 3174 
L 2931 3616 
Q 1254 3616 358 3552 
L 358 4032 
Q 1254 3968 2931 3968 
L 2931 4442 
z
M 2931 2432 
L 2931 2810 
L 1696 2810 
L 1696 2432 
L 2931 2432 
z
M 3411 2810 
L 3411 2432 
L 4698 2432 
L 4698 2810 
L 3411 2810 
z
M 2931 1645 
L 2931 2093 
L 1696 2093 
L 1696 1645 
L 2931 1645 
z
M 3411 2093 
L 3411 1645 
L 4698 1645 
L 4698 2093 
L 3411 2093 
z
" transform="scale(0.015625)"/>
        <path id="STHeiti-5927" d="M 3264 2304 
Q 3078 1402 2560 739 
Q 2042 77 909 -486 
Q 723 -192 365 6 
Q 1370 275 2051 963 
Q 2733 1651 2829 3027 
Q 1427 3021 621 2970 
L 621 3584 
Q 1389 3533 2854 3520 
Q 2880 4051 2880 4454 
Q 2880 4858 2848 5158 
Q 3117 5120 3296 5120 
Q 3661 5120 3661 5094 
Q 3661 5069 3603 5024 
Q 3501 4947 3488 4659 
L 3411 3520 
Q 4973 3520 5773 3584 
L 5773 2970 
Q 4915 3027 3379 3027 
Q 3629 1946 4333 1171 
Q 5037 397 5997 237 
Q 5645 -6 5459 -448 
Q 4787 -115 4179 521 
Q 3571 1158 3264 2304 
z
" transform="scale(0.015625)"/>
        <path id="STHeiti-8d44" d="M 3123 4141 
Q 2893 3846 2611 3571 
Q 2426 3757 2138 3814 
Q 2931 4486 3181 5254 
Q 3482 5114 3725 5094 
Q 3834 5082 3834 5043 
Q 3834 5005 3718 4918 
Q 3603 4832 3424 4570 
L 4685 4570 
Q 5299 4570 5901 4621 
L 5549 3629 
L 4966 3706 
L 5165 4141 
L 4154 4141 
Q 4378 3539 4835 3225 
Q 5293 2912 6080 2848 
Q 5850 2592 5747 2278 
Q 4371 2643 3987 3667 
Q 3578 2739 2534 2381 
Q 2381 2566 2163 2682 
Q 3443 3174 3725 4141 
L 3123 4141 
z
M 2010 4326 
L 1645 3840 
Q 1222 4192 698 4442 
L 1011 4858 
Q 1587 4595 2010 4326 
z
M 2163 3155 
Q 1261 2611 710 2266 
Q 576 2560 397 2803 
Q 1293 3123 2029 3629 
Q 2067 3360 2163 3155 
z
M 5120 544 
L 4570 544 
L 4570 1914 
L 1946 1914 
L 1946 506 
L 1395 506 
Q 1427 768 1427 1088 
L 1427 1818 
Q 1427 2278 1395 2381 
Q 1542 2349 3190 2349 
Q 4838 2349 5120 2381 
Q 5094 2266 5094 1818 
L 5094 1126 
Q 5094 826 5120 544 
z
M 2899 1683 
Q 3219 1600 3417 1590 
Q 3616 1581 3616 1558 
Q 3616 1536 3571 1498 
Q 3450 1402 3354 1069 
Q 3130 250 2557 -124 
Q 1984 -499 1037 -634 
Q 928 -384 691 -198 
Q 1376 -141 1917 64 
Q 2458 269 2656 630 
Q 2854 992 2899 1683 
z
M 5645 -128 
L 5286 -614 
Q 4384 -51 3392 352 
L 3661 755 
Q 4800 282 5645 -128 
z
" transform="scale(0.015625)"/>
        <path id="STHeiti-4ea7" d="M 3200 4416 
Q 3078 4813 2931 5094 
L 3622 5210 
Q 3718 4864 3814 4416 
Q 5120 4422 5869 4480 
L 5869 3930 
Q 4998 3994 3302 3994 
Q 1606 3994 730 3930 
L 730 4480 
Q 1587 4416 3200 4416 
z
M 3923 2714 
Q 4397 3629 4416 3904 
Q 4525 3834 4736 3731 
Q 4947 3629 5027 3603 
Q 5107 3578 5107 3539 
Q 5107 3501 5020 3475 
Q 4934 3450 4828 3312 
Q 4723 3174 4435 2714 
Q 5875 2714 6029 2752 
L 6029 2253 
Q 5562 2298 4429 2298 
L 1702 2298 
Q 1722 1229 1523 630 
Q 1325 32 749 -672 
Q 576 -397 288 -218 
Q 768 147 969 656 
Q 1171 1165 1171 1971 
Q 1171 2323 1133 2752 
Q 1331 2714 3923 2714 
z
M 2925 3014 
L 2330 2842 
Q 2208 3283 2016 3597 
L 2579 3789 
Q 2803 3373 2925 3014 
z
" transform="scale(0.015625)"/>
        <path id="STHeiti-7ec4" d="M 1594 2829 
L 1011 2758 
Q 698 2726 531 2669 
Q 499 2957 390 3181 
Q 832 3443 1427 5101 
Q 1773 4902 1933 4860 
Q 2093 4819 2093 4787 
Q 2093 4755 2029 4729 
Q 1965 4704 1885 4608 
Q 1805 4512 1530 4083 
L 922 3123 
L 1805 3194 
Q 2067 3731 2221 4109 
Q 2490 3949 2746 3853 
Q 2803 3827 2803 3801 
Q 2803 3776 2752 3744 
Q 2701 3712 2608 3590 
Q 2515 3469 2138 2899 
L 1286 1626 
Q 1875 1670 2458 1760 
Q 2394 1549 2406 1280 
L 1190 1190 
Q 826 1165 608 1075 
Q 570 1344 467 1542 
Q 973 1811 1594 2829 
z
M 5594 141 
Q 6022 154 6131 173 
L 6131 -352 
Q 6093 -326 4371 -326 
Q 2650 -326 2400 -365 
L 2400 173 
Q 2554 147 2944 147 
L 2944 4218 
Q 2944 4666 2925 4864 
Q 3514 4832 4269 4832 
Q 5024 4832 5613 4864 
Q 5594 4672 5594 4218 
L 5594 141 
z
M 3450 3270 
L 5075 3270 
L 5075 4384 
L 3450 4384 
L 3450 3270 
z
M 3450 1773 
L 5075 1773 
L 5075 2816 
L 3450 2816 
L 3450 1773 
z
M 5075 1312 
L 3450 1312 
L 3450 141 
L 5075 141 
L 5075 1312 
z
M 2483 755 
Q 2445 634 2445 506 
Q 2445 378 2464 269 
Q 954 -38 493 -352 
Q 467 -45 352 294 
Q 1114 397 2483 755 
z
" transform="scale(0.015625)"/>
        <path id="STHeiti-7ba1" d="M 1472 4333 
Q 1286 4070 941 3674 
Q 774 3885 467 3974 
Q 1133 4416 1459 5280 
Q 1779 5107 2048 5043 
Q 2118 5030 2118 5008 
Q 2118 4986 2054 4960 
Q 1862 4864 1722 4685 
Q 2982 4685 3136 4755 
L 3136 4269 
Q 2886 4326 2310 4333 
Q 2413 4064 2477 3718 
L 1939 3654 
Q 1914 4051 1862 4333 
L 1472 4333 
z
M 4019 4326 
Q 3942 4179 3718 3878 
Q 3520 4083 3264 4154 
Q 3750 4525 3994 5267 
Q 4326 5114 4544 5056 
Q 4608 5043 4608 5020 
Q 4608 4998 4550 4973 
Q 4435 4915 4237 4672 
L 4602 4672 
Q 5568 4672 5933 4755 
L 5933 4275 
Q 5626 4320 4838 4326 
Q 4973 3962 5037 3693 
L 4506 3603 
Q 4474 3942 4378 4326 
L 4019 4326 
z
M 3021 3354 
Q 2950 3603 2874 3789 
L 3379 3885 
Q 3488 3629 3571 3354 
Q 5197 3354 5830 3405 
L 5830 2304 
L 5350 2304 
L 5350 2970 
L 954 2970 
L 954 2336 
L 486 2336 
L 486 3405 
Q 1120 3354 3021 3354 
z
M 4480 -198 
L 1894 -198 
Q 1901 -320 1926 -634 
L 1344 -634 
Q 1389 -288 1389 51 
L 1389 1946 
Q 1389 2342 1338 2669 
Q 1958 2618 3120 2618 
Q 4282 2618 4826 2669 
Q 4794 2387 4794 2083 
Q 4794 1779 4826 1408 
Q 4102 1446 2976 1446 
L 1888 1446 
L 1888 1011 
L 3136 1011 
Q 4365 1011 4998 1037 
Q 4973 909 4973 557 
L 4973 -147 
Q 4973 -314 4998 -608 
L 4480 -608 
L 4480 -198 
z
M 1888 1830 
L 4326 1830 
L 4326 2227 
L 1888 2227 
L 1888 1830 
z
M 1888 179 
L 4480 179 
L 4480 634 
L 1888 634 
L 1888 179 
z
" transform="scale(0.015625)"/>
        <path id="STHeiti-7406" d="M 4397 864 
L 4397 160 
Q 5389 166 6086 211 
L 6086 -333 
Q 5389 -275 4096 -275 
Q 2803 -275 2099 -333 
L 2099 211 
Q 2816 166 3910 160 
L 3910 864 
Q 3187 864 2682 800 
L 2682 1350 
Q 3174 1286 3910 1280 
L 3910 1920 
Q 2771 1914 2598 1882 
Q 2637 2630 2637 3443 
Q 2637 4256 2598 4864 
Q 2797 4813 4214 4813 
Q 5632 4813 5754 4864 
Q 5722 4352 5722 3549 
Q 5722 2746 5766 1882 
Q 5658 1920 4397 1920 
L 4397 1280 
Q 5210 1286 5702 1350 
L 5702 800 
Q 5261 858 4397 864 
z
M 3910 3590 
L 3910 4390 
L 3110 4390 
L 3110 3590 
L 3910 3590 
z
M 4397 4390 
L 4397 3590 
L 5229 3590 
L 5229 4390 
L 4397 4390 
z
M 4397 3187 
L 4397 2336 
L 5229 2336 
L 5229 3187 
L 4397 3187 
z
M 3910 2336 
L 3910 3187 
L 3110 3187 
L 3110 2336 
L 3910 2336 
z
M 1171 4224 
Q 768 4218 429 4179 
L 429 4717 
Q 774 4678 1436 4678 
Q 2099 4678 2438 4717 
L 2438 4179 
Q 2131 4211 1670 4230 
L 1670 2861 
Q 2138 2874 2368 2906 
L 2368 2362 
Q 2035 2400 1670 2406 
L 1670 883 
Q 2035 1011 2368 1184 
Q 2342 979 2342 864 
Q 2342 749 2355 621 
Q 1184 269 448 -218 
Q 448 -45 400 182 
Q 352 410 275 563 
Q 710 595 1171 723 
L 1171 2406 
Q 685 2394 435 2362 
L 435 2906 
Q 742 2861 1171 2854 
L 1171 4224 
z
" transform="scale(0.015625)"/>
        <path id="STHeiti-529e" d="M 3078 3891 
Q 4410 3891 4902 3949 
Q 4864 3712 4826 3238 
L 4640 858 
Q 4595 243 4499 -16 
Q 4403 -275 4128 -412 
Q 3853 -550 3174 -672 
Q 3085 -307 2790 64 
Q 3366 45 3616 102 
Q 3866 160 3962 329 
Q 4058 499 4090 896 
L 4275 3411 
L 3059 3411 
Q 2982 2138 2774 1523 
Q 2566 909 2124 365 
Q 1683 -179 954 -653 
Q 717 -378 384 -218 
Q 1101 90 1593 614 
Q 2086 1139 2265 1756 
Q 2445 2374 2490 3405 
Q 1286 3386 870 3354 
L 870 3949 
Q 1293 3891 2502 3891 
Q 2515 4467 2515 4787 
Q 2515 5107 2490 5267 
Q 2771 5210 3238 5190 
Q 3309 5184 3309 5158 
Q 3309 5133 3261 5059 
Q 3213 4986 3161 4675 
Q 3110 4365 3078 3891 
z
M 1190 2816 
Q 1581 2598 1798 2586 
Q 1862 2579 1862 2556 
Q 1862 2534 1792 2496 
Q 1638 2413 781 1056 
Q 518 1235 198 1312 
Q 461 1530 755 1974 
Q 1050 2419 1190 2816 
z
M 5357 2797 
Q 5901 1862 6144 1248 
L 5555 986 
Q 5306 1683 4838 2566 
L 5357 2797 
z
" transform="scale(0.015625)"/>
        <path id="STHeiti-6cd5" d="M 4115 3744 
L 4115 2598 
Q 5363 2598 6029 2662 
L 6029 2080 
Q 5338 2144 3994 2144 
Q 2650 2144 1958 2080 
L 1958 2662 
Q 2566 2605 3578 2598 
L 3578 3744 
Q 2784 3738 2342 3680 
L 2342 4243 
Q 2784 4186 3578 4179 
Q 3578 4909 3514 5229 
Q 3782 5190 4192 5190 
Q 4320 5190 4320 5155 
Q 4320 5120 4253 5065 
Q 4186 5011 4150 4908 
Q 4115 4806 4115 4698 
L 4115 4179 
Q 5152 4179 5658 4243 
L 5658 3680 
Q 5152 3744 4115 3744 
z
M 2074 4198 
L 1632 3725 
Q 1293 4186 768 4544 
L 1133 4960 
Q 1651 4589 2074 4198 
z
M 1709 2848 
L 1408 2291 
Q 870 2669 358 2867 
L 570 3354 
Q 1216 3104 1709 2848 
z
M 4749 378 
Q 4486 838 4218 1190 
L 4672 1427 
Q 5242 691 5818 -218 
L 5242 -550 
Q 5120 -282 4979 -38 
L 3238 -282 
Q 2611 -371 2355 -486 
Q 2278 -237 2099 58 
Q 2618 307 3450 2106 
Q 3718 1926 3981 1811 
Q 4096 1760 4096 1721 
Q 4096 1683 4003 1654 
Q 3910 1626 3721 1386 
Q 3533 1146 2848 179 
Q 3808 230 4749 378 
z
M 1741 1651 
Q 1139 -109 1082 -621 
Q 813 -397 448 -173 
Q 621 141 816 617 
Q 1011 1094 1091 1356 
Q 1171 1619 1222 1939 
Q 1408 1773 1741 1651 
z
" transform="scale(0.015625)"/>
        <path id="STHeiti-300b" d="M 3302 2246 
L 1888 314 
L 1606 531 
L 2861 2246 
L 1606 3962 
L 1888 4179 
L 3302 2246 
z
M 2170 2246 
L 755 314 
L 474 531 
L 1728 2246 
L 474 3962 
L 755 4179 
L 2170 2246 
z
" transform="scale(0.015625)"/>
        <path id="STHeiti-ff08" d="M 5651 -749 
L 5274 -749 
Q 4646 173 4409 835 
Q 4173 1498 4173 2266 
Q 4173 3034 4432 3750 
Q 4691 4467 5254 5267 
L 5645 5267 
Q 5082 4237 4928 3606 
Q 4774 2976 4774 2093 
Q 4774 1472 4953 861 
Q 5133 250 5651 -749 
z
" transform="scale(0.015625)"/>
        <path id="STHeiti-4fee" d="M 4333 2925 
Q 3693 2458 2752 2125 
Q 2675 2323 2458 2554 
Q 3341 2771 3981 3187 
Q 3603 3533 3450 3853 
Q 3200 3450 2925 3059 
Q 2797 3181 2477 3309 
Q 3232 4096 3475 5242 
Q 3770 5088 4038 5030 
Q 4147 5005 4147 4973 
Q 4147 4941 4054 4883 
Q 3962 4826 3821 4570 
L 4890 4570 
Q 5293 4570 5683 4595 
Q 5350 3795 4691 3219 
Q 5306 2925 6138 2842 
Q 5978 2547 5894 2240 
Q 4979 2490 4333 2925 
z
M 4314 3430 
Q 4717 3763 4896 4160 
L 3629 4160 
Q 3885 3731 4314 3430 
z
M 992 2829 
Q 896 2675 576 2221 
Q 442 2502 211 2656 
Q 723 3187 1024 3884 
Q 1325 4582 1402 5094 
Q 1792 4909 1961 4873 
Q 2131 4838 2131 4800 
Q 2131 4762 2060 4720 
Q 1990 4678 1945 4608 
Q 1901 4538 1766 4275 
L 1472 3686 
L 1472 -595 
L 922 -595 
Q 992 102 992 781 
L 992 2829 
z
M 1869 3930 
Q 2106 3878 2406 3878 
Q 2490 3878 2490 3836 
Q 2490 3795 2432 3760 
Q 2374 3725 2374 3590 
L 2374 1491 
Q 2374 1094 2400 710 
L 1869 710 
Q 1894 1107 1894 1491 
L 1894 3245 
Q 1894 3725 1869 3930 
z
M 4454 2560 
Q 4653 2342 4800 2259 
Q 4896 2202 4896 2163 
Q 4896 2125 4774 2105 
Q 4653 2086 4550 2038 
Q 4448 1990 4275 1888 
Q 3712 1542 3206 1318 
Q 3123 1485 2893 1670 
Q 3731 1971 4454 2560 
z
M 5037 1907 
Q 5190 1741 5344 1648 
Q 5498 1555 5498 1516 
Q 5498 1478 5370 1459 
Q 5242 1440 4848 1168 
Q 4454 896 4089 713 
Q 3725 531 3219 326 
Q 3130 531 2906 704 
Q 3450 832 4054 1181 
Q 4659 1530 5037 1907 
z
M 5587 1165 
Q 5664 1037 5763 925 
Q 5862 813 5932 771 
Q 6003 730 6003 694 
Q 6003 659 5875 633 
Q 5747 608 5628 541 
Q 5510 474 5306 339 
Q 4902 64 4182 -214 
Q 3462 -493 2733 -621 
Q 2688 -384 2477 -154 
Q 3270 -122 4131 243 
Q 4992 608 5587 1165 
z
" transform="scale(0.015625)"/>
        <path id="STHeiti-8ba2" d="M 2176 4019 
L 1574 3731 
Q 1370 4307 960 4896 
L 1498 5139 
Q 1939 4454 2176 4019 
z
M 5024 4122 
L 5024 307 
Q 5024 -70 4953 -230 
Q 4883 -390 4643 -470 
Q 4403 -550 3814 -627 
Q 3814 -365 3590 70 
Q 3827 58 3974 58 
Q 4275 58 4361 125 
Q 4448 192 4448 378 
L 4448 4122 
Q 3277 4122 2541 4070 
L 2541 4634 
Q 3142 4582 4358 4582 
Q 5574 4582 6144 4634 
L 6144 4070 
Q 5818 4109 5024 4122 
z
M 2835 730 
L 1754 -230 
Q 1427 -518 1350 -659 
Q 1126 -250 922 -32 
Q 1222 160 1222 589 
L 1222 2746 
Q 614 2746 307 2694 
L 307 3347 
Q 653 3302 1072 3302 
Q 1491 3302 1824 3347 
Q 1754 2989 1754 2554 
L 1754 461 
Q 2214 902 2624 1357 
Q 2694 941 2835 730 
z
" transform="scale(0.015625)"/>
        <path id="STHeiti-ff09" d="M 1120 5267 
Q 1747 4346 1984 3683 
Q 2221 3021 2221 2253 
Q 2221 1485 1961 768 
Q 1702 51 1139 -749 
L 749 -749 
Q 1312 282 1465 912 
Q 1619 1542 1619 2426 
Q 1619 3046 1440 3657 
Q 1261 4269 742 5267 
L 1120 5267 
z
" transform="scale(0.015625)"/>
        <path id="STHeiti-7b2c" d="M 1485 4096 
Q 1152 3667 781 3264 
Q 653 3469 250 3526 
Q 646 3770 1017 4211 
Q 1389 4653 1613 5152 
Q 1856 5043 2221 4947 
Q 2298 4934 2298 4912 
Q 2298 4890 2214 4851 
Q 2061 4774 1773 4454 
L 2195 4454 
Q 2842 4454 3194 4538 
L 3194 4064 
Q 3053 4096 2272 4096 
Q 2400 3802 2534 3552 
L 2010 3430 
Q 1990 3693 1850 4096 
L 1485 4096 
z
M 4160 4134 
L 3616 3437 
Q 3430 3603 3130 3642 
Q 3782 4166 4198 5152 
Q 4429 5037 4781 4960 
Q 4851 4941 4851 4918 
Q 4851 4896 4806 4864 
Q 4627 4762 4416 4486 
L 5114 4486 
Q 5728 4486 6022 4570 
L 6022 4102 
Q 5914 4134 4934 4134 
Q 5062 3904 5158 3661 
L 4646 3539 
Q 4614 3789 4493 4134 
L 4160 4134 
z
M 3072 2355 
L 3072 2899 
Q 2054 2893 986 2848 
L 986 3354 
Q 2093 3302 3248 3302 
Q 4403 3302 5402 3354 
Q 5370 3098 5370 2611 
Q 5370 2125 5402 1894 
Q 4813 1926 3571 1939 
L 3571 1427 
Q 5037 1440 5805 1485 
Q 5766 1274 5747 1005 
L 5715 506 
Q 5702 243 5603 118 
Q 5504 -6 5264 -76 
Q 5024 -147 4448 -237 
Q 4403 26 4205 352 
Q 4499 314 4704 314 
Q 5190 314 5210 544 
L 5248 1011 
L 3571 1011 
L 3571 461 
Q 3571 38 3616 -678 
L 3014 -678 
Q 3072 -70 3072 461 
L 3072 928 
Q 2195 -58 806 -531 
Q 717 -282 333 -26 
Q 1645 134 2624 1011 
Q 1818 1005 960 960 
Q 1050 1690 1056 1923 
Q 1062 2157 1056 2413 
Q 1901 2355 3072 2355 
z
M 3571 2899 
L 3571 2355 
L 4870 2355 
L 4870 2899 
L 3571 2899 
z
M 3072 1427 
L 3072 1939 
L 1542 1939 
L 1498 1427 
L 3072 1427 
z
" transform="scale(0.015625)"/>
        <path id="STHeiti-6761" d="M 3251 2899 
Q 2278 2432 710 2125 
Q 685 2381 416 2656 
Q 1523 2675 2810 3181 
Q 2406 3482 1965 4038 
Q 1632 3674 1094 3302 
Q 915 3501 627 3616 
Q 1203 3930 1635 4387 
Q 2067 4845 2234 5325 
Q 2650 5216 2819 5187 
Q 2989 5158 2989 5116 
Q 2989 5075 2899 5056 
Q 2758 5024 2458 4646 
L 3386 4646 
Q 5178 4646 5325 4659 
Q 4634 3680 3776 3174 
Q 4538 2854 5600 2854 
Q 5856 2854 6131 2874 
Q 5888 2618 5779 2208 
Q 4051 2458 3251 2899 
z
M 3309 3411 
Q 3898 3693 4301 4224 
L 2342 4224 
Q 2803 3718 3309 3411 
z
M 3526 1434 
L 3526 64 
Q 3526 -166 3465 -265 
Q 3405 -365 3187 -425 
Q 2970 -486 2432 -563 
Q 2400 -205 2157 96 
Q 2637 32 2781 32 
Q 2925 32 2960 73 
Q 2995 115 2995 224 
L 2995 1434 
Q 1542 1434 749 1370 
L 749 1939 
Q 1549 1875 2995 1875 
Q 2989 2298 2957 2534 
Q 3354 2470 3526 2470 
Q 3699 2470 3699 2435 
Q 3699 2400 3612 2365 
Q 3526 2330 3526 2138 
L 3526 1875 
Q 4870 1882 5626 1939 
L 5626 1370 
Q 4870 1427 3526 1434 
z
M 1894 1254 
Q 2010 1152 2160 1069 
Q 2310 986 2403 963 
Q 2496 941 2496 890 
Q 2496 845 2387 845 
Q 2278 845 2061 672 
Q 1120 -83 781 -301 
Q 602 -19 326 122 
Q 762 269 1187 582 
Q 1613 896 1894 1254 
z
M 6042 154 
L 5587 -301 
Q 5350 -96 4825 249 
Q 4301 595 3936 774 
L 4339 1139 
L 6042 154 
z
" transform="scale(0.015625)"/>
        <path id="STHeiti-3001" d="M 2534 672 
L 2150 301 
Q 1491 998 806 1504 
L 1133 1862 
Q 1779 1402 2534 672 
z
" transform="scale(0.015625)"/>
        <path id="STHeiti-35" d="M 3149 4979 
L 3149 4544 
L 1510 4544 
L 1280 3290 
Q 1587 3379 1856 3379 
Q 2458 3379 2861 2953 
Q 3264 2528 3264 1862 
Q 3264 1197 2825 733 
Q 2387 269 1664 269 
Q 1114 269 726 598 
Q 339 928 262 1498 
L 730 1498 
Q 813 1114 1075 909 
Q 1338 704 1683 704 
Q 2138 704 2467 1043 
Q 2797 1382 2797 1888 
Q 2797 2349 2509 2646 
Q 2221 2944 1757 2944 
Q 1293 2944 730 2701 
L 1158 4979 
L 3149 4979 
z
" transform="scale(0.015625)"/>
       </defs>
       <use xlink:href="#STHeiti-300a"/>
       <use xlink:href="#STHeiti-4e0a" transform="translate(99.999985 0)"/>
       <use xlink:href="#STHeiti-5e02" transform="translate(199.999969 0)"/>
       <use xlink:href="#STHeiti-516c" transform="translate(299.999954 0)"/>
       <use xlink:href="#STHeiti-53f8" transform="translate(399.999939 0)"/>
       <use xlink:href="#STHeiti-91cd" transform="translate(499.999924 0)"/>
       <use xlink:href="#STHeiti-5927" transform="translate(599.999908 0)"/>
       <use xlink:href="#STHeiti-8d44" transform="translate(699.999893 0)"/>
       <use xlink:href="#STHeiti-4ea7" transform="translate(799.999878 0)"/>
       <use xlink:href="#STHeiti-91cd" transform="translate(899.999863 0)"/>
       <use xlink:href="#STHeiti-7ec4" transform="translate(999.999847 0)"/>
       <use xlink:href="#STHeiti-7ba1" transform="translate(1099.999832 0)"/>
       <use xlink:href="#STHeiti-7406" transform="translate(1199.999817 0)"/>
       <use xlink:href="#STHeiti-529e" transform="translate(1299.999802 0)"/>
       <use xlink:href="#STHeiti-6cd5" transform="translate(1399.999786 0)"/>
       <use xlink:href="#STHeiti-300b" transform="translate(1499.999771 0)"/>
       <use xlink:href="#STHeiti-ff08" transform="translate(1599.999756 0)"/>
       <use xlink:href="#STHeiti-32" transform="translate(1699.999741 0)"/>
       <use xlink:href="#STHeiti-30" transform="translate(1755.399734 0)"/>
       <use xlink:href="#STHeiti-32" transform="translate(1810.799728 0)"/>
       <use xlink:href="#STHeiti-33" transform="translate(1866.199722 0)"/>
       <use xlink:href="#STHeiti-4fee" transform="translate(1921.599716 0)"/>
       <use xlink:href="#STHeiti-8ba2" transform="translate(2021.599701 0)"/>
       <use xlink:href="#STHeiti-ff09" transform="translate(2121.599686 0)"/>
       <use xlink:href="#STHeiti-7b2c" transform="translate(2221.59967 0)"/>
       <use xlink:href="#STHeiti-32" transform="translate(2321.599655 0)"/>
       <use xlink:href="#STHeiti-6761" transform="translate(2376.999649 0)"/>
       <use xlink:href="#STHeiti-3001" transform="translate(2476.999634 0)"/>
       <use xlink:href="#STHeiti-7b2c" transform="translate(2576.999619 0)"/>
       <use xlink:href="#STHeiti-35" transform="translate(2676.999603 0)"/>
       <use xlink:href="#STHeiti-30" transform="translate(2732.399597 0)"/>
       <use xlink:href="#STHeiti-6761" transform="translate(2787.799591 0)"/>
      </g>
     </g>
    </g>
    <g id="xtick_3">
     <g id="line2d_5">
      <path d="M 691.033691 185.645464 
L 691.033691 7.2 
" clip-path="url(#pb4dd5ece5a)" style="fill: none; stroke: #b0b0b0; stroke-opacity: 0.3; stroke-width: 0.8; stroke-linecap: square"/>
     </g>
     <g id="line2d_6">
      <g>
       <use xlink:href="#m787934f870" x="691.033691" y="185.645464" style="stroke: #000000; stroke-width: 0.8"/>
      </g>
     </g>
     <g id="text_3">
      <!-- 发行规模 -->
      <g transform="translate(655.722363 219.538485) rotate(-30) scale(0.1 -0.1)">
       <defs>
        <path id="STHeiti-884c" d="M 1677 5184 
Q 1997 4915 2240 4813 
Q 2323 4774 2323 4736 
Q 2323 4698 2227 4678 
Q 2061 4640 1737 4246 
Q 1414 3853 800 3290 
Q 672 3501 410 3648 
Q 800 3917 1177 4409 
Q 1555 4902 1677 5184 
z
M 5658 4160 
Q 5184 4218 4329 4218 
Q 3475 4218 3002 4160 
L 3002 4749 
Q 3411 4698 4329 4698 
Q 5248 4698 5658 4749 
L 5658 4160 
z
M 1747 2560 
L 1747 -576 
L 1158 -576 
Q 1216 -51 1216 454 
L 1216 1894 
Q 1050 1702 653 1280 
Q 544 1523 282 1760 
Q 1203 2458 1824 3699 
Q 2042 3520 2362 3347 
Q 2445 3302 2445 3267 
Q 2445 3232 2371 3216 
Q 2298 3200 2134 3030 
Q 1971 2861 1747 2560 
z
M 4934 2566 
L 4934 128 
Q 4934 -141 4844 -278 
Q 4755 -416 4489 -486 
Q 4224 -557 3680 -582 
Q 3661 -301 3379 90 
Q 3661 51 3866 51 
Q 4378 51 4378 326 
L 4378 2573 
Q 3251 2573 2630 2515 
L 2630 3104 
Q 3181 3053 4355 3053 
Q 5530 3053 6067 3104 
L 6067 2515 
Q 5638 2560 4934 2566 
z
" transform="scale(0.015625)"/>
        <path id="STHeiti-89c4" d="M 1984 3635 
Q 1984 3008 1952 2605 
Q 2573 2618 2829 2656 
L 2829 2138 
Q 2598 2163 1907 2176 
Q 1888 2003 1837 1734 
Q 2426 1331 3008 800 
L 2566 422 
Q 2195 915 1734 1299 
Q 1446 243 685 -435 
Q 480 -186 192 -70 
Q 794 416 1066 918 
Q 1338 1421 1414 2176 
Q 717 2170 429 2138 
L 429 2656 
Q 781 2611 1453 2605 
Q 1485 3136 1485 3635 
Q 922 3629 614 3590 
L 614 4109 
Q 909 4064 1491 4058 
Q 1491 4960 1453 5216 
Q 1843 5133 2118 5133 
Q 2202 5133 2202 5104 
Q 2202 5075 2134 5040 
Q 2067 5005 2035 4793 
Q 2003 4582 1997 4058 
Q 2534 4070 2746 4109 
L 2746 3590 
Q 2438 3616 1984 3635 
z
M 5786 1459 
L 5203 1459 
L 5203 4320 
L 3571 4320 
L 3571 1472 
L 3021 1472 
Q 3085 1990 3085 2490 
L 3085 4288 
Q 3085 4608 3040 4838 
Q 3405 4774 4422 4774 
Q 5440 4774 5766 4838 
Q 5728 4698 5728 4288 
L 5728 2477 
Q 5728 1926 5786 1459 
z
M 4038 3782 
Q 4122 3744 4262 3725 
Q 4403 3706 4499 3706 
L 4653 3712 
Q 4698 3712 4698 3677 
Q 4698 3642 4666 3603 
Q 4582 3507 4518 2701 
Q 4416 1357 3936 633 
Q 3456 -90 2426 -576 
Q 2253 -301 1990 -154 
Q 2784 122 3229 544 
Q 3674 966 3866 1606 
Q 4058 2246 4058 3392 
Q 4058 3680 4038 3782 
z
M 6227 371 
Q 6093 -32 5977 -195 
Q 5862 -358 5686 -406 
Q 5510 -454 5152 -454 
Q 4794 -454 4672 -419 
Q 4550 -384 4515 -262 
Q 4480 -141 4480 192 
L 4480 1299 
Q 4480 1568 4442 1779 
Q 4570 1760 4723 1766 
L 4966 1766 
Q 5056 1766 5056 1737 
Q 5056 1709 4992 1664 
Q 4928 1619 4928 1510 
L 4928 198 
Q 4928 83 4966 54 
Q 5005 26 5165 26 
Q 5523 26 5600 176 
Q 5677 326 5702 678 
Q 5926 429 6227 371 
z
" transform="scale(0.015625)"/>
        <path id="STHeiti-6a21" d="M 4909 4461 
Q 5683 4461 6048 4512 
L 6048 4019 
Q 5626 4077 4909 4077 
L 4909 3546 
Q 5376 3558 5600 3578 
Q 5574 3238 5574 2640 
Q 5574 2042 5600 1626 
Q 5165 1651 4218 1651 
Q 4198 1440 4147 1216 
Q 5440 1216 6035 1280 
L 6035 781 
Q 5523 845 4416 845 
Q 4941 102 6086 38 
Q 5798 -243 5786 -570 
Q 4461 -198 4038 826 
Q 3859 352 3449 32 
Q 3040 -288 2278 -550 
Q 2170 -275 1952 -51 
Q 2662 102 3036 310 
Q 3411 518 3565 845 
Q 2822 845 2157 781 
L 2157 1280 
Q 2605 1222 3674 1216 
Q 3706 1440 3706 1651 
Q 3085 1651 2682 1632 
Q 2701 2099 2701 2627 
Q 2701 3155 2682 3578 
Q 3053 3552 3315 3546 
L 3315 4077 
Q 2656 4051 2426 4019 
L 2426 4512 
Q 2714 4474 3315 4461 
Q 3315 4851 3277 5114 
Q 3610 5075 3808 5075 
Q 3872 5075 3872 5043 
Q 3872 5011 3817 4979 
Q 3763 4947 3763 4851 
L 3763 4461 
L 4461 4461 
Q 4461 4858 4422 5114 
Q 4755 5075 4954 5075 
Q 5018 5075 5018 5043 
Q 5018 5011 4963 4979 
Q 4909 4947 4909 4851 
L 4909 4461 
z
M 4461 4077 
L 3763 4077 
L 3763 3546 
L 4461 3546 
L 4461 4077 
z
M 5120 2784 
L 5120 3181 
L 3149 3181 
L 3149 2784 
L 5120 2784 
z
M 3149 2419 
L 3149 2016 
L 5120 2016 
L 5120 2419 
L 3149 2419 
z
M 1190 2317 
Q 934 1510 614 992 
Q 506 1248 218 1408 
Q 550 1760 768 2205 
Q 986 2650 1184 3373 
Q 800 3366 480 3322 
L 480 3814 
Q 723 3770 1190 3763 
Q 1190 4755 1139 5094 
Q 1338 5069 1485 5069 
L 1734 5082 
Q 1818 5082 1818 5037 
Q 1818 4992 1744 4925 
Q 1670 4858 1670 4749 
L 1670 3763 
Q 2157 3770 2400 3814 
L 2400 3322 
Q 2067 3366 1670 3366 
L 1670 659 
Q 1670 160 1734 -544 
L 1126 -544 
Q 1190 160 1190 659 
L 1190 2317 
z
M 2048 2771 
Q 2317 2304 2522 1850 
L 2106 1632 
Q 1984 2093 1690 2566 
L 2048 2771 
z
" transform="scale(0.015625)"/>
       </defs>
       <use xlink:href="#STHeiti-53d1"/>
       <use xlink:href="#STHeiti-884c" transform="translate(99.999985 0)"/>
       <use xlink:href="#STHeiti-89c4" transform="translate(199.999969 0)"/>
       <use xlink:href="#STHeiti-6a21" transform="translate(299.999954 0)"/>
      </g>
     </g>
    </g>
   </g>
   <g id="matplotlib.axis_2">
    <g id="ytick_1">
     <g id="line2d_7">
      <path d="M 116.252069 177.534306 
L 705.403232 177.534306 
" clip-path="url(#pb4dd5ece5a)" style="fill: none; stroke: #b0b0b0; stroke-opacity: 0.3; stroke-width: 0.8; stroke-linecap: square"/>
     </g>
     <g id="line2d_8">
      <defs>
       <path id="mcb067b0fa6" d="M 0 0 
L -3.5 0 
" style="stroke: #000000; stroke-width: 0.8"/>
      </defs>
      <g>
       <use xlink:href="#mcb067b0fa6" x="116.252069" y="177.534306" style="stroke: #000000; stroke-width: 0.8"/>
      </g>
     </g>
     <g id="text_4">
      <!-- 100 -->
      <g transform="translate(92.630194 181.513994) scale(0.1 -0.1)">
       <use xlink:href="#STHeiti-31"/>
       <use xlink:href="#STHeiti-30" transform="translate(55.399994 0)"/>
       <use xlink:href="#STHeiti-30" transform="translate(110.799988 0)"/>
      </g>
     </g>
    </g>
    <g id="ytick_2">
     <g id="line2d_9">
      <path d="M 116.252069 145.089677 
L 705.403232 145.089677 
" clip-path="url(#pb4dd5ece5a)" style="fill: none; stroke: #b0b0b0; stroke-opacity: 0.3; stroke-width: 0.8; stroke-linecap: square"/>
     </g>
     <g id="line2d_10">
      <g>
       <use xlink:href="#mcb067b0fa6" x="116.252069" y="145.089677" style="stroke: #000000; stroke-width: 0.8"/>
      </g>
     </g>
     <g id="text_5">
      <!-- 120 -->
      <g transform="translate(92.630194 149.069364) scale(0.1 -0.1)">
       <use xlink:href="#STHeiti-31"/>
       <use xlink:href="#STHeiti-32" transform="translate(55.399994 0)"/>
       <use xlink:href="#STHeiti-30" transform="translate(110.799988 0)"/>
      </g>
     </g>
    </g>
    <g id="ytick_3">
     <g id="line2d_11">
      <path d="M 116.252069 112.645047 
L 705.403232 112.645047 
" clip-path="url(#pb4dd5ece5a)" style="fill: none; stroke: #b0b0b0; stroke-opacity: 0.3; stroke-width: 0.8; stroke-linecap: square"/>
     </g>
     <g id="line2d_12">
      <g>
       <use xlink:href="#mcb067b0fa6" x="116.252069" y="112.645047" style="stroke: #000000; stroke-width: 0.8"/>
      </g>
     </g>
     <g id="text_6">
      <!-- 140 -->
      <g transform="translate(92.630194 116.624734) scale(0.1 -0.1)">
       <defs>
        <path id="STHeiti-34" d="M 2726 5094 
L 2816 5094 
L 2816 1894 
L 3373 1894 
L 3373 1453 
L 2816 1453 
L 2816 384 
L 2362 384 
L 2362 1453 
L 160 1453 
L 2726 5094 
z
M 2362 1894 
L 2362 3808 
L 1005 1894 
L 2362 1894 
z
" transform="scale(0.015625)"/>
       </defs>
       <use xlink:href="#STHeiti-31"/>
       <use xlink:href="#STHeiti-34" transform="translate(55.399994 0)"/>
       <use xlink:href="#STHeiti-30" transform="translate(110.799988 0)"/>
      </g>
     </g>
    </g>
    <g id="ytick_4">
     <g id="line2d_13">
      <path d="M 116.252069 80.200417 
L 705.403232 80.200417 
" clip-path="url(#pb4dd5ece5a)" style="fill: none; stroke: #b0b0b0; stroke-opacity: 0.3; stroke-width: 0.8; stroke-linecap: square"/>
     </g>
     <g id="line2d_14">
      <g>
       <use xlink:href="#mcb067b0fa6" x="116.252069" y="80.200417" style="stroke: #000000; stroke-width: 0.8"/>
      </g>
     </g>
     <g id="text_7">
      <!-- 160 -->
      <g transform="translate(92.630194 84.180105) scale(0.1 -0.1)">
       <defs>
        <path id="STHeiti-36" d="M 2349 5094 
L 2726 4851 
L 1485 2970 
Q 1747 3059 1984 3059 
Q 2496 3059 2880 2652 
Q 3264 2246 3264 1660 
Q 3264 1075 2845 672 
Q 2426 269 1827 269 
Q 1229 269 829 678 
Q 429 1088 429 1677 
Q 429 1958 537 2256 
Q 646 2554 954 3014 
L 2349 5094 
z
M 2810 1683 
Q 2810 2086 2528 2368 
Q 2246 2650 1843 2650 
Q 1440 2650 1158 2368 
Q 877 2086 877 1683 
Q 877 1280 1161 998 
Q 1446 717 1843 717 
Q 2240 717 2525 998 
Q 2810 1280 2810 1683 
z
" transform="scale(0.015625)"/>
       </defs>
       <use xlink:href="#STHeiti-31"/>
       <use xlink:href="#STHeiti-36" transform="translate(55.399994 0)"/>
       <use xlink:href="#STHeiti-30" transform="translate(110.799988 0)"/>
      </g>
     </g>
    </g>
    <g id="ytick_5">
     <g id="line2d_15">
      <path d="M 116.252069 47.755787 
L 705.403232 47.755787 
" clip-path="url(#pb4dd5ece5a)" style="fill: none; stroke: #b0b0b0; stroke-opacity: 0.3; stroke-width: 0.8; stroke-linecap: square"/>
     </g>
     <g id="line2d_16">
      <g>
       <use xlink:href="#mcb067b0fa6" x="116.252069" y="47.755787" style="stroke: #000000; stroke-width: 0.8"/>
      </g>
     </g>
     <g id="text_8">
      <!-- 180 -->
      <g transform="translate(92.630194 51.735475) scale(0.1 -0.1)">
       <use xlink:href="#STHeiti-31"/>
       <use xlink:href="#STHeiti-38" transform="translate(55.399994 0)"/>
       <use xlink:href="#STHeiti-30" transform="translate(110.799988 0)"/>
      </g>
     </g>
    </g>
    <g id="ytick_6">
     <g id="line2d_17">
      <path d="M 116.252069 15.311157 
L 705.403232 15.311157 
" clip-path="url(#pb4dd5ece5a)" style="fill: none; stroke: #b0b0b0; stroke-opacity: 0.3; stroke-width: 0.8; stroke-linecap: square"/>
     </g>
     <g id="line2d_18">
      <g>
       <use xlink:href="#mcb067b0fa6" x="116.252069" y="15.311157" style="stroke: #000000; stroke-width: 0.8"/>
      </g>
     </g>
     <g id="text_9">
      <!-- 200 -->
      <g transform="translate(92.630194 19.290845) scale(0.1 -0.1)">
       <use xlink:href="#STHeiti-32"/>
       <use xlink:href="#STHeiti-30" transform="translate(55.399994 0)"/>
       <use xlink:href="#STHeiti-30" transform="translate(110.799988 0)"/>
      </g>
     </g>
    </g>
   </g>
   <g id="line2d_19">
    <path d="M 403.64288 15.311157 
L 691.033691 177.534306 
" clip-path="url(#pb4dd5ece5a)" style="fill: none; stroke: #1a365d; stroke-width: 2; stroke-linecap: square"/>
    <defs>
     <path id="m78bd165ae7" d="M 0 3 
C 0.795609 3 1.55874 2.683901 2.12132 2.12132 
C 2.683901 1.55874 3 0.795609 3 0 
C 3 -0.795609 2.683901 -1.55874 2.12132 -2.12132 
C 1.55874 -2.683901 0.795609 -3 0 -3 
C -0.795609 -3 -1.55874 -2.683901 -2.12132 -2.12132 
C -2.683901 -1.55874 -3 -0.795609 -3 0 
C -3 0.795609 -2.683901 1.55874 -2.12132 2.12132 
C -1.55874 2.683901 -0.795609 3 0 3 
z
" style="stroke: #1a365d"/>
    </defs>
    <g clip-path="url(#pb4dd5ece5a)">
     <use xlink:href="#m78bd165ae7" x="403.64288" y="15.311157" style="fill: #1a365d; stroke: #1a365d"/>
     <use xlink:href="#m78bd165ae7" x="691.033691" y="177.534306" style="fill: #1a365d; stroke: #1a365d"/>
    </g>
   </g>
   <g id="patch_3">
    <path d="M 116.252069 185.645464 
L 116.252069 7.2 
" style="fill: none; stroke: #000000; stroke-width: 0.8; stroke-linejoin: miter; stroke-linecap: square"/>
   </g>
   <g id="patch_4">
    <path d="M 705.403232 185.645464 
L 705.403232 7.2 
" style="fill: none; stroke: #000000; stroke-width: 0.8; stroke-linejoin: miter; stroke-linecap: square"/>
   </g>
   <g id="patch_5">
    <path d="M 116.252069 185.645464 
L 705.403232 185.645464 
" style="fill: none; stroke: #000000; stroke-width: 0.8; stroke-linejoin: miter; stroke-linecap: square"/>
   </g>
   <g id="patch_6">
    <path d="M 116.252069 7.2 
L 705.403232 7.2 
" style="fill: none; stroke: #000000; stroke-width: 0.8; stroke-linejoin: miter; stroke-linecap: square"/>
   </g>
   <g id="legend_1">
    <g id="patch_7">
     <path d="M 634.303232 27.27 
L 699.103232 27.27 
Q 700.903232 27.27 700.903232 25.47 
L 700.903232 13.5 
Q 700.903232 11.7 699.103232 11.7 
L 634.303232 11.7 
Q 632.503232 11.7 632.503232 13.5 
L 632.503232 25.47 
Q 632.503232 27.27 634.303232 27.27 
z
" style="fill: #ffffff; opacity: 0.8; stroke: #cccccc; stroke-linejoin: miter"/>
    </g>
    <g id="line2d_20">
     <path d="M 636.103232 19.313437 
L 645.103232 19.313437 
L 654.103232 19.313437 
" style="fill: none; stroke: #1a365d; stroke-width: 2; stroke-linecap: square"/>
     <g>
      <use xlink:href="#m78bd165ae7" x="645.103232" y="19.313437" style="fill: #1a365d; stroke: #1a365d"/>
     </g>
    </g>
    <g id="text_10">
     <!-- 核心规定 -->
     <g transform="translate(661.303232 22.463437) scale(0.09 -0.09)">
      <defs>
       <path id="STHeiti-6838" d="M 4608 4646 
L 4019 4499 
Q 3936 4832 3802 5133 
L 4339 5274 
Q 4429 5024 4608 4646 
z
M 1242 2208 
Q 909 1318 538 787 
Q 384 1178 218 1395 
Q 864 2150 1242 3392 
Q 723 3379 397 3341 
L 397 3904 
Q 653 3866 1242 3853 
Q 1242 4947 1190 5222 
Q 1472 5171 1773 5171 
Q 1901 5171 1901 5139 
Q 1901 5107 1811 5050 
Q 1741 4998 1741 4877 
L 1741 3853 
Q 2272 3866 2496 3904 
L 2496 3341 
Q 2176 3386 1741 3386 
L 1741 2502 
L 2093 2656 
Q 2374 2189 2611 1824 
L 2150 1562 
Q 2003 1958 1741 2406 
L 1741 563 
Q 1741 6 1792 -640 
L 1184 -640 
Q 1242 -26 1242 563 
L 1242 2208 
z
M 6086 3840 
Q 5453 3891 4361 3891 
Q 3270 3891 2637 3840 
L 2637 4371 
Q 3277 4320 4365 4320 
Q 5453 4320 6086 4371 
L 6086 3840 
z
M 4429 2650 
Q 4736 3110 4877 3411 
Q 5126 3277 5427 3200 
Q 5517 3181 5517 3142 
Q 5517 3104 5443 3088 
Q 5370 3072 5322 3030 
Q 5274 2989 5210 2899 
Q 4563 1997 4102 1539 
Q 3642 1082 2746 493 
Q 2522 736 2246 883 
Q 3366 1382 4154 2278 
Q 3142 2227 2835 2112 
Q 2803 2323 2701 2592 
Q 2950 2675 3168 2960 
Q 3386 3245 3731 3840 
Q 3942 3706 4269 3597 
Q 4352 3571 4352 3542 
Q 4352 3514 4291 3498 
Q 4230 3482 4054 3309 
Q 3878 3136 3386 2618 
Q 3853 2618 4429 2650 
z
M 5018 934 
Q 5606 506 6093 -45 
L 5613 -435 
Q 5152 166 4691 589 
Q 3942 -154 2746 -627 
Q 2573 -333 2342 -166 
Q 3053 77 3517 333 
Q 3981 589 4515 1104 
Q 5050 1619 5306 2304 
Q 5606 2144 5766 2099 
Q 5926 2054 5926 2019 
Q 5926 1984 5846 1955 
Q 5766 1926 5658 1766 
Q 5338 1286 5018 934 
z
" transform="scale(0.015625)"/>
       <path id="STHeiti-5fc3" d="M 4122 3853 
L 3558 3411 
Q 3053 4166 2419 4717 
L 2925 5114 
Q 3469 4467 4122 3853 
z
M 5139 717 
Q 4973 192 4854 3 
Q 4736 -186 4502 -234 
Q 4269 -282 4003 -298 
Q 3738 -314 3424 -314 
Q 2701 -314 2505 -259 
Q 2310 -205 2230 -35 
Q 2150 134 2150 512 
L 2150 2419 
Q 2150 3002 2093 3277 
Q 2317 3245 2470 3245 
L 2765 3245 
Q 2861 3245 2861 3213 
Q 2861 3181 2797 3130 
Q 2720 3059 2720 2931 
L 2720 602 
Q 2720 448 2768 361 
Q 2816 275 2960 262 
Q 3104 250 3386 250 
Q 4013 250 4166 294 
Q 4320 339 4390 515 
Q 4461 691 4525 1171 
Q 4723 819 5139 717 
z
M 6074 1645 
L 5408 1318 
Q 5101 2112 4416 2899 
L 4909 3232 
Q 5446 2477 6074 1645 
z
M 832 3091 
Q 1018 3034 1123 3021 
Q 1229 3008 1379 3008 
Q 1530 3008 1530 2976 
Q 1530 2944 1469 2886 
Q 1408 2829 1305 2310 
Q 1203 1792 979 806 
Q 749 922 294 947 
Q 838 1920 832 3091 
z
" transform="scale(0.015625)"/>
       <path id="STHeiti-5b9a" d="M 3744 4480 
L 3091 4314 
Q 2976 4653 2758 5037 
L 3360 5229 
Q 3546 4915 3744 4480 
z
M 659 4307 
Q 1267 4250 3142 4250 
Q 5018 4250 5773 4307 
L 5773 3027 
L 5216 3027 
L 5216 3808 
L 1216 3808 
L 1216 2938 
L 659 2938 
L 659 4307 
z
M 3507 1837 
L 4397 1837 
Q 4960 1837 5389 1901 
L 5389 1318 
Q 4998 1382 4397 1382 
L 3507 1382 
L 3507 154 
Q 4064 70 4729 70 
Q 5395 70 6074 179 
Q 6003 70 5964 -61 
Q 5926 -192 5926 -486 
Q 5715 -506 5376 -506 
Q 4070 -506 3152 -288 
Q 2234 -70 1619 813 
Q 1248 -19 845 -563 
Q 563 -346 384 -256 
Q 1216 730 1594 2182 
Q 1862 2054 2157 2003 
Q 2253 1990 2253 1945 
Q 2253 1901 2176 1824 
Q 1997 1632 1805 1235 
Q 2176 595 2982 282 
L 2982 2707 
Q 1984 2701 1408 2650 
L 1408 3194 
Q 2048 3136 3203 3136 
Q 4358 3136 4992 3194 
L 4992 2650 
Q 4435 2701 3507 2707 
L 3507 1837 
z
" transform="scale(0.015625)"/>
      </defs>
      <use xlink:href="#STHeiti-6838"/>
      <use xlink:href="#STHeiti-5fc3" transform="translate(99.999985 0)"/>
      <use xlink:href="#STHeiti-89c4" transform="translate(199.999969 0)"/>
      <use xlink:href="#STHeiti-5b9a" transform="translate(299.999954 0)"/>
     </g>
    </g>
   </g>
  </g>
 </g>
 <defs>
  <clipPath id="pb4dd5ece5a">
   <rect x="116.252069" y="7.2" width="589.151163" height="178.445464"/>
  </clipPath>
 </defs>
</svg>
