<?xml version="1.0" encoding="utf-8" standalone="no"?>
<!DOCTYPE svg PUBLIC "-//W3C//DTD SVG 1.1//EN"
  "http://www.w3.org/Graphics/SVG/1.1/DTD/svg11.dtd">
<svg xmlns:xlink="http://www.w3.org/1999/xlink" width="712.55966pt" height="351.880596pt" viewBox="0 0 712.55966 351.880596" xmlns="http://www.w3.org/2000/svg" version="1.1">
 <metadata>
  <rdf:RDF xmlns:dc="http://purl.org/dc/elements/1.1/" xmlns:cc="http://creativecommons.org/ns#" xmlns:rdf="http://www.w3.org/1999/02/22-rdf-syntax-ns#">
   <cc:Work>
    <dc:type rdf:resource="http://purl.org/dc/dcmitype/StillImage"/>
    <dc:date>2026-06-07T00:40:31.022309</dc:date>
    <dc:format>image/svg+xml</dc:format>
    <dc:creator>
     <cc:Agent>
      <dc:title>Matplotlib v3.10.9, https://matplotlib.org/</dc:title>
     </cc:Agent>
    </dc:creator>
   </cc:Work>
  </rdf:RDF>
 </metadata>
 <defs>
  <style type="text/css">*{stroke-linejoin: round; stroke-linecap: butt}</style>
 </defs>
 <g id="figure_1">
  <g id="patch_1">
   <path d="M 0 351.880596 
L 712.55966 351.880596 
L 712.55966 0 
L 0 0 
z
" style="fill: #ffffff"/>
  </g>
  <g id="axes_1">
   <g id="patch_2">
    <path d="M 40.370652 295.803904 
L 705.35966 295.803904 
L 705.35966 10.437228 
L 40.370652 10.437228 
z
" style="fill: #fafafa"/>
   </g>
   <g id="matplotlib.axis_1">
    <g id="xtick_1">
     <g id="line2d_1">
      <path d="M 40.370652 295.803904 
L 40.370652 10.437228 
" clip-path="url(#p46ab66ff8a)" style="fill: none; stroke: #b0b0b0; stroke-opacity: 0.3; stroke-width: 0.8; stroke-linecap: square"/>
     </g>
     <g id="line2d_2">
      <defs>
       <path id="m0e69b103cd" d="M 0 0 
L 0 3.5 
" style="stroke: #000000; stroke-width: 0.8"/>
      </defs>
      <g>
       <use xlink:href="#m0e69b103cd" x="40.370652" y="295.803904" style="stroke: #000000; stroke-width: 0.8"/>
      </g>
     </g>
     <g id="text_1">
      <!-- FY2019 -->
      <g transform="translate(11.179688 326.163331) rotate(-30) scale(0.1 -0.1)">
       <defs>
        <path id="STHeiti-46" d="M 557 4979 
L 2861 4979 
L 2861 4525 
L 1018 4525 
L 1018 3091 
L 2861 3091 
L 2861 2637 
L 1018 2637 
L 1018 384 
L 557 384 
L 557 4979 
z
" transform="scale(0.015625)"/>
        <path id="STHeiti-59" d="M 198 4979 
L 730 4979 
L 1901 3085 
L 3059 4979 
L 3590 4979 
L 2131 2579 
L 2131 384 
L 1683 384 
L 1683 2579 
L 198 4979 
z
" transform="scale(0.015625)"/>
        <path id="STHeiti-32" d="M 742 3539 
L 301 3539 
Q 333 4243 768 4668 
Q 1203 5094 1820 5094 
Q 2438 5094 2844 4694 
Q 3251 4294 3251 3718 
Q 3251 3290 3024 2925 
Q 2797 2560 2336 2061 
L 1190 826 
L 3315 826 
L 3315 384 
L 192 384 
L 1946 2278 
Q 2406 2778 2604 3066 
Q 2803 3354 2803 3725 
Q 2803 4096 2512 4377 
Q 2221 4659 1789 4659 
Q 1357 4659 1072 4368 
Q 787 4077 742 3539 
z
" transform="scale(0.015625)"/>
        <path id="STHeiti-30" d="M 1747 269 
Q 1005 269 605 880 
Q 205 1491 205 2681 
Q 205 3872 605 4483 
Q 1005 5094 1741 5094 
Q 2477 5094 2909 4470 
Q 3341 3846 3341 2681 
Q 3341 1517 2905 893 
Q 2470 269 1747 269 
z
M 1760 4659 
Q 1229 4659 934 4147 
Q 640 3635 640 2669 
Q 640 685 1760 685 
Q 2304 685 2608 1206 
Q 2912 1728 2912 2681 
Q 2912 3635 2598 4147 
Q 2285 4659 1760 4659 
z
" transform="scale(0.015625)"/>
        <path id="STHeiti-31" d="M 1184 4979 
L 2086 4979 
L 2086 384 
L 1632 384 
L 1632 4531 
L 909 4531 
L 1184 4979 
z
" transform="scale(0.015625)"/>
        <path id="STHeiti-39" d="M 1229 269 
L 851 512 
L 2093 2394 
Q 1850 2310 1613 2310 
Q 1062 2310 688 2707 
Q 314 3104 314 3696 
Q 314 4288 730 4691 
Q 1146 5094 1750 5094 
Q 2355 5094 2748 4681 
Q 3142 4269 3142 3693 
Q 3142 3373 3011 3049 
Q 2880 2726 2624 2349 
L 1229 269 
z
M 762 3680 
Q 762 3277 1043 2995 
Q 1325 2714 1728 2714 
Q 2131 2714 2412 2998 
Q 2694 3283 2694 3680 
Q 2694 4077 2412 4361 
Q 2131 4646 1728 4646 
Q 1325 4646 1043 4364 
Q 762 4083 762 3680 
z
" transform="scale(0.015625)"/>
       </defs>
       <use xlink:href="#STHeiti-46"/>
       <use xlink:href="#STHeiti-59" transform="translate(48.499985 0)"/>
       <use xlink:href="#STHeiti-32" transform="translate(107.699982 0)"/>
       <use xlink:href="#STHeiti-30" transform="translate(163.099976 0)"/>
       <use xlink:href="#STHeiti-31" transform="translate(218.499969 0)"/>
       <use xlink:href="#STHeiti-39" transform="translate(273.899963 0)"/>
      </g>
     </g>
    </g>
    <g id="xtick_2">
     <g id="line2d_3">
      <path d="M 254.883235 295.803904 
L 254.883235 10.437228 
" clip-path="url(#p46ab66ff8a)" style="fill: none; stroke: #b0b0b0; stroke-opacity: 0.3; stroke-width: 0.8; stroke-linecap: square"/>
     </g>
     <g id="line2d_4">
      <g>
       <use xlink:href="#m0e69b103cd" x="254.883235" y="295.803904" style="stroke: #000000; stroke-width: 0.8"/>
      </g>
     </g>
     <g id="text_2">
      <!-- FY2020 -->
      <g transform="translate(225.692271 326.163331) rotate(-30) scale(0.1 -0.1)">
       <use xlink:href="#STHeiti-46"/>
       <use xlink:href="#STHeiti-59" transform="translate(48.499985 0)"/>
       <use xlink:href="#STHeiti-32" transform="translate(107.699982 0)"/>
       <use xlink:href="#STHeiti-30" transform="translate(163.099976 0)"/>
       <use xlink:href="#STHeiti-32" transform="translate(218.499969 0)"/>
       <use xlink:href="#STHeiti-30" transform="translate(273.899963 0)"/>
      </g>
     </g>
    </g>
    <g id="xtick_3">
     <g id="line2d_5">
      <path d="M 469.395819 295.803904 
L 469.395819 10.437228 
" clip-path="url(#p46ab66ff8a)" style="fill: none; stroke: #b0b0b0; stroke-opacity: 0.3; stroke-width: 0.8; stroke-linecap: square"/>
     </g>
     <g id="line2d_6">
      <g>
       <use xlink:href="#m0e69b103cd" x="469.395819" y="295.803904" style="stroke: #000000; stroke-width: 0.8"/>
      </g>
     </g>
     <g id="text_3">
      <!-- FY2021 -->
      <g transform="translate(440.204854 326.163331) rotate(-30) scale(0.1 -0.1)">
       <use xlink:href="#STHeiti-46"/>
       <use xlink:href="#STHeiti-59" transform="translate(48.499985 0)"/>
       <use xlink:href="#STHeiti-32" transform="translate(107.699982 0)"/>
       <use xlink:href="#STHeiti-30" transform="translate(163.099976 0)"/>
       <use xlink:href="#STHeiti-32" transform="translate(218.499969 0)"/>
       <use xlink:href="#STHeiti-31" transform="translate(273.899963 0)"/>
      </g>
     </g>
    </g>
    <g id="xtick_4">
     <g id="line2d_7">
      <path d="M 683.908402 295.803904 
L 683.908402 10.437228 
" clip-path="url(#p46ab66ff8a)" style="fill: none; stroke: #b0b0b0; stroke-opacity: 0.3; stroke-width: 0.8; stroke-linecap: square"/>
     </g>
     <g id="line2d_8">
      <g>
       <use xlink:href="#m0e69b103cd" x="683.908402" y="295.803904" style="stroke: #000000; stroke-width: 0.8"/>
      </g>
     </g>
     <g id="text_4">
      <!-- 2019-2021合计 -->
      <g transform="translate(624.65553 343.519581) rotate(-30) scale(0.1 -0.1)">
       <defs>
        <path id="STHeiti-2d" d="M 205 2304 
L 1920 2304 
L 1920 1920 
L 205 1920 
L 205 2304 
z
" transform="scale(0.015625)"/>
        <path id="STHeiti-5408" d="M 3174 4582 
Q 2298 3482 774 2362 
Q 634 2573 288 2784 
Q 755 2982 1408 3497 
Q 2061 4013 2473 4544 
Q 2886 5075 2906 5267 
Q 3392 5094 3565 5075 
Q 3642 5062 3642 5024 
Q 3642 4986 3578 4966 
Q 3514 4947 3456 4902 
Q 3872 4250 4649 3763 
Q 5427 3277 6157 3168 
Q 5894 2899 5773 2560 
Q 3923 3373 3174 4582 
z
M 4640 2566 
Q 4262 2611 3203 2611 
Q 2144 2611 1766 2566 
L 1766 3110 
Q 2266 3066 3267 3066 
Q 4269 3066 4640 3110 
L 4640 2566 
z
M 4576 -19 
L 1869 -19 
L 1869 -595 
L 1261 -595 
Q 1318 -166 1318 205 
L 1318 1414 
Q 1318 1754 1293 1926 
Q 1568 1901 3225 1901 
Q 4883 1901 5152 1926 
Q 5126 1792 5126 1434 
L 5126 224 
Q 5126 -173 5184 -576 
L 4576 -576 
L 4576 -19 
z
M 1869 422 
L 4576 422 
L 4576 1440 
L 1869 1440 
L 1869 422 
z
" transform="scale(0.015625)"/>
        <path id="STHeiti-8ba1" d="M 4646 3309 
Q 5555 3315 6138 3366 
L 6138 2726 
Q 5389 2778 4646 2778 
L 4646 506 
Q 4646 -32 4704 -646 
L 3994 -646 
Q 4051 -58 4051 506 
L 4051 2784 
Q 2982 2778 2336 2726 
L 2336 3366 
Q 2995 3315 4051 3309 
L 4051 4288 
Q 4051 4973 3981 5267 
Q 4141 5235 4288 5222 
Q 4435 5210 4538 5210 
L 4717 5216 
Q 4826 5216 4826 5174 
Q 4826 5133 4755 5091 
Q 4685 5050 4665 4957 
Q 4646 4864 4646 4608 
L 4646 3309 
z
M 2099 4147 
L 1523 3814 
Q 1299 4346 890 4896 
L 1427 5197 
Q 1754 4614 2099 4147 
z
M 2688 909 
L 1946 173 
Q 1670 -90 1370 -538 
Q 1146 -218 922 -13 
Q 1037 122 1088 269 
Q 1139 416 1139 659 
L 1139 2739 
Q 608 2739 262 2694 
L 262 3315 
Q 563 3270 979 3270 
Q 1395 3270 1766 3315 
Q 1683 2950 1683 2483 
L 1683 614 
Q 2163 1107 2432 1523 
Q 2522 1165 2688 909 
z
" transform="scale(0.015625)"/>
       </defs>
       <use xlink:href="#STHeiti-32"/>
       <use xlink:href="#STHeiti-30" transform="translate(55.399994 0)"/>
       <use xlink:href="#STHeiti-31" transform="translate(110.799988 0)"/>
       <use xlink:href="#STHeiti-39" transform="translate(166.199982 0)"/>
       <use xlink:href="#STHeiti-2d" transform="translate(221.599976 0)"/>
       <use xlink:href="#STHeiti-32" transform="translate(254.799973 0)"/>
       <use xlink:href="#STHeiti-30" transform="translate(310.199966 0)"/>
       <use xlink:href="#STHeiti-32" transform="translate(365.59996 0)"/>
       <use xlink:href="#STHeiti-31" transform="translate(420.999954 0)"/>
       <use xlink:href="#STHeiti-5408" transform="translate(476.399948 0)"/>
       <use xlink:href="#STHeiti-8ba1" transform="translate(576.399933 0)"/>
      </g>
     </g>
    </g>
   </g>
   <g id="matplotlib.axis_2">
    <g id="ytick_1">
     <g id="line2d_9">
      <path d="M 40.370652 284.142915 
L 705.35966 284.142915 
" clip-path="url(#p46ab66ff8a)" style="fill: none; stroke: #b0b0b0; stroke-opacity: 0.3; stroke-width: 0.8; stroke-linecap: square"/>
     </g>
     <g id="line2d_10">
      <defs>
       <path id="ma73be8c09f" d="M 0 0 
L -3.5 0 
" style="stroke: #000000; stroke-width: 0.8"/>
      </defs>
      <g>
       <use xlink:href="#ma73be8c09f" x="40.370652" y="284.142915" style="stroke: #000000; stroke-width: 0.8"/>
      </g>
     </g>
     <g id="text_5">
      <!-- 0 -->
      <g transform="translate(27.830027 288.122602) scale(0.1 -0.1)">
       <use xlink:href="#STHeiti-30"/>
      </g>
     </g>
    </g>
    <g id="ytick_2">
     <g id="line2d_11">
      <path d="M 40.370652 229.550269 
L 705.35966 229.550269 
" clip-path="url(#p46ab66ff8a)" style="fill: none; stroke: #b0b0b0; stroke-opacity: 0.3; stroke-width: 0.8; stroke-linecap: square"/>
     </g>
     <g id="line2d_12">
      <g>
       <use xlink:href="#ma73be8c09f" x="40.370652" y="229.550269" style="stroke: #000000; stroke-width: 0.8"/>
      </g>
     </g>
     <g id="text_6">
      <!-- 5 -->
      <g transform="translate(27.830027 233.529957) scale(0.1 -0.1)">
       <defs>
        <path id="STHeiti-35" d="M 3149 4979 
L 3149 4544 
L 1510 4544 
L 1280 3290 
Q 1587 3379 1856 3379 
Q 2458 3379 2861 2953 
Q 3264 2528 3264 1862 
Q 3264 1197 2825 733 
Q 2387 269 1664 269 
Q 1114 269 726 598 
Q 339 928 262 1498 
L 730 1498 
Q 813 1114 1075 909 
Q 1338 704 1683 704 
Q 2138 704 2467 1043 
Q 2797 1382 2797 1888 
Q 2797 2349 2509 2646 
Q 2221 2944 1757 2944 
Q 1293 2944 730 2701 
L 1158 4979 
L 3149 4979 
z
" transform="scale(0.015625)"/>
       </defs>
       <use xlink:href="#STHeiti-35"/>
      </g>
     </g>
    </g>
    <g id="ytick_3">
     <g id="line2d_13">
      <path d="M 40.370652 174.957624 
L 705.35966 174.957624 
" clip-path="url(#p46ab66ff8a)" style="fill: none; stroke: #b0b0b0; stroke-opacity: 0.3; stroke-width: 0.8; stroke-linecap: square"/>
     </g>
     <g id="line2d_14">
      <g>
       <use xlink:href="#ma73be8c09f" x="40.370652" y="174.957624" style="stroke: #000000; stroke-width: 0.8"/>
      </g>
     </g>
     <g id="text_7">
      <!-- 10 -->
      <g transform="translate(22.289402 178.937311) scale(0.1 -0.1)">
       <use xlink:href="#STHeiti-31"/>
       <use xlink:href="#STHeiti-30" transform="translate(55.399994 0)"/>
      </g>
     </g>
    </g>
    <g id="ytick_4">
     <g id="line2d_15">
      <path d="M 40.370652 120.364978 
L 705.35966 120.364978 
" clip-path="url(#p46ab66ff8a)" style="fill: none; stroke: #b0b0b0; stroke-opacity: 0.3; stroke-width: 0.8; stroke-linecap: square"/>
     </g>
     <g id="line2d_16">
      <g>
       <use xlink:href="#ma73be8c09f" x="40.370652" y="120.364978" style="stroke: #000000; stroke-width: 0.8"/>
      </g>
     </g>
     <g id="text_8">
      <!-- 15 -->
      <g transform="translate(22.289402 124.344666) scale(0.1 -0.1)">
       <use xlink:href="#STHeiti-31"/>
       <use xlink:href="#STHeiti-35" transform="translate(55.399994 0)"/>
      </g>
     </g>
    </g>
    <g id="ytick_5">
     <g id="line2d_17">
      <path d="M 40.370652 65.772333 
L 705.35966 65.772333 
" clip-path="url(#p46ab66ff8a)" style="fill: none; stroke: #b0b0b0; stroke-opacity: 0.3; stroke-width: 0.8; stroke-linecap: square"/>
     </g>
     <g id="line2d_18">
      <g>
       <use xlink:href="#ma73be8c09f" x="40.370652" y="65.772333" style="stroke: #000000; stroke-width: 0.8"/>
      </g>
     </g>
     <g id="text_9">
      <!-- 20 -->
      <g transform="translate(22.289402 69.75202) scale(0.1 -0.1)">
       <use xlink:href="#STHeiti-32"/>
       <use xlink:href="#STHeiti-30" transform="translate(55.399994 0)"/>
      </g>
     </g>
    </g>
    <g id="ytick_6">
     <g id="line2d_19">
      <path d="M 40.370652 11.179688 
L 705.35966 11.179688 
" clip-path="url(#p46ab66ff8a)" style="fill: none; stroke: #b0b0b0; stroke-opacity: 0.3; stroke-width: 0.8; stroke-linecap: square"/>
     </g>
     <g id="line2d_20">
      <g>
       <use xlink:href="#ma73be8c09f" x="40.370652" y="11.179688" style="stroke: #000000; stroke-width: 0.8"/>
      </g>
     </g>
     <g id="text_10">
      <!-- 25 -->
      <g transform="translate(22.289402 15.159375) scale(0.1 -0.1)">
       <use xlink:href="#STHeiti-32"/>
       <use xlink:href="#STHeiti-35" transform="translate(55.399994 0)"/>
      </g>
     </g>
    </g>
   </g>
   <g id="line2d_21">
    <path d="M 254.883235 243.089245 
L 469.395819 282.832691 
L 683.908402 23.40844 
" clip-path="url(#p46ab66ff8a)" style="fill: none; stroke: #1a365d; stroke-width: 2; stroke-linecap: square"/>
    <defs>
     <path id="m2c0bed5e08" d="M 0 3 
C 0.795609 3 1.55874 2.683901 2.12132 2.12132 
C 2.683901 1.55874 3 0.795609 3 0 
C 3 -0.795609 2.683901 -1.55874 2.12132 -2.12132 
C 1.55874 -2.683901 0.795609 -3 0 -3 
C -0.795609 -3 -1.55874 -2.683901 -2.12132 -2.12132 
C -2.683901 -1.55874 -3 -0.795609 -3 0 
C -3 0.795609 -2.683901 1.55874 -2.12132 2.12132 
C -1.55874 2.683901 -0.795609 3 0 3 
z
" style="stroke: #1a365d"/>
    </defs>
    <g clip-path="url(#p46ab66ff8a)">
     <use xlink:href="#m2c0bed5e08" x="254.883235" y="243.089245" style="fill: #1a365d; stroke: #1a365d"/>
     <use xlink:href="#m2c0bed5e08" x="469.395819" y="282.832691" style="fill: #1a365d; stroke: #1a365d"/>
     <use xlink:href="#m2c0bed5e08" x="683.908402" y="23.40844" style="fill: #1a365d; stroke: #1a365d"/>
    </g>
   </g>
   <g id="patch_3">
    <path d="M 40.370652 295.803904 
L 40.370652 10.437228 
" style="fill: none; stroke: #000000; stroke-width: 0.8; stroke-linejoin: miter; stroke-linecap: square"/>
   </g>
   <g id="patch_4">
    <path d="M 705.35966 295.803904 
L 705.35966 10.437228 
" style="fill: none; stroke: #000000; stroke-width: 0.8; stroke-linejoin: miter; stroke-linecap: square"/>
   </g>
   <g id="patch_5">
    <path d="M 40.370652 295.803904 
L 705.35966 295.803904 
" style="fill: none; stroke: #000000; stroke-width: 0.8; stroke-linejoin: miter; stroke-linecap: square"/>
   </g>
   <g id="patch_6">
    <path d="M 40.370652 10.437228 
L 705.35966 10.437228 
" style="fill: none; stroke: #000000; stroke-width: 0.8; stroke-linejoin: miter; stroke-linecap: square"/>
   </g>
   <g id="legend_1">
    <g id="patch_7">
     <path d="M 46.670652 30.597228 
L 120.470652 30.597228 
Q 122.270652 30.597228 122.270652 28.797228 
L 122.270652 16.737228 
Q 122.270652 14.937228 120.470652 14.937228 
L 46.670652 14.937228 
Q 44.870652 14.937228 44.870652 16.737228 
L 44.870652 28.797228 
Q 44.870652 30.597228 46.670652 30.597228 
z
" style="fill: #ffffff; opacity: 0.8; stroke: #cccccc; stroke-linejoin: miter"/>
    </g>
    <g id="line2d_22">
     <path d="M 48.470652 22.640665 
L 57.470652 22.640665 
L 66.470652 22.640665 
" style="fill: none; stroke: #1a365d; stroke-width: 2; stroke-linecap: square"/>
     <g>
      <use xlink:href="#m2c0bed5e08" x="57.470652" y="22.640665" style="fill: #1a365d; stroke: #1a365d"/>
     </g>
    </g>
    <g id="text_11">
     <!-- 归母净利润 -->
     <g transform="translate(73.670652 25.790665) scale(0.09 -0.09)">
      <defs>
       <path id="STHeiti-5f52" d="M 1882 5242 
Q 2170 5146 2586 5146 
Q 2688 5146 2688 5098 
Q 2688 5050 2618 4998 
Q 2509 4928 2490 4288 
Q 2464 2573 2429 2003 
Q 2394 1434 2272 1011 
Q 2150 589 1833 173 
Q 1517 -243 960 -659 
Q 742 -326 454 -230 
Q 1018 122 1302 381 
Q 1587 640 1718 960 
Q 1850 1280 1894 1862 
Q 1939 2445 1939 3424 
Q 1939 5024 1882 5242 
z
M 5126 2611 
L 5126 4045 
Q 3136 4045 2816 3994 
L 2816 4602 
Q 3302 4531 4288 4531 
Q 5274 4531 5734 4608 
Q 5683 4250 5683 3603 
L 5683 742 
Q 5683 154 5741 -435 
L 5126 -435 
L 5126 128 
Q 2995 128 2637 70 
L 2637 672 
Q 3008 614 5126 614 
L 5126 2144 
Q 3526 2144 2957 2080 
L 2957 2675 
Q 3462 2611 5126 2611 
z
M 640 4378 
Q 928 4339 1293 4339 
Q 1382 4339 1382 4307 
Q 1382 4275 1308 4230 
Q 1235 4186 1235 3853 
L 1235 1043 
L 698 1043 
L 698 3347 
Q 698 4109 640 4378 
z
" transform="scale(0.015625)"/>
       <path id="STHeiti-6bcd" d="M 1254 2810 
L 1402 4877 
Q 2413 4832 3398 4832 
Q 4384 4832 5165 4896 
L 5120 2803 
Q 5574 2822 6048 2874 
L 6048 2227 
Q 5619 2272 5107 2285 
L 5082 883 
Q 5600 896 5850 947 
L 5850 326 
Q 5651 352 5069 352 
Q 5056 -141 4870 -323 
Q 4685 -506 4032 -640 
Q 4013 -314 3629 13 
Q 3949 -26 4147 -26 
Q 4346 -26 4426 57 
Q 4506 141 4512 358 
L 2765 358 
Q 1837 358 1082 288 
L 1222 2285 
Q 768 2272 365 2227 
L 365 2874 
Q 845 2816 1254 2810 
z
M 1798 2803 
L 4563 2803 
L 4589 4339 
L 1901 4339 
L 1798 2803 
z
M 2720 3782 
L 3245 4038 
Q 3430 3757 3693 3315 
L 3194 2963 
Q 2982 3418 2720 3782 
z
M 4550 2291 
L 1766 2291 
L 1677 870 
L 4525 870 
L 4550 2291 
z
M 2694 1798 
L 3219 2054 
Q 3462 1677 3674 1274 
L 3142 1011 
Q 3008 1427 2694 1798 
z
" transform="scale(0.015625)"/>
       <path id="STHeiti-51c0" d="M 5510 2010 
L 5510 1325 
Q 5510 781 5549 550 
L 4986 550 
L 4986 934 
L 3878 934 
L 3878 -147 
Q 3878 -339 3795 -441 
Q 3712 -544 3478 -601 
Q 3245 -659 2758 -710 
Q 2765 -384 2630 -90 
Q 2944 -115 3094 -115 
Q 3245 -115 3289 -70 
Q 3334 -26 3334 115 
L 3334 934 
Q 2163 934 1926 909 
L 1926 1389 
Q 2272 1357 3334 1357 
L 3334 2016 
Q 2490 2016 1754 1965 
L 1754 2496 
Q 2381 2451 3334 2451 
L 3334 3110 
Q 2771 3104 2387 3046 
L 2387 3533 
Q 2816 3514 3661 3514 
L 4205 4224 
L 2874 4224 
Q 2470 3680 1939 3046 
Q 1786 3200 1530 3270 
Q 2362 4109 2842 5306 
Q 3187 5184 3526 5133 
Q 3610 5120 3610 5078 
Q 3610 5037 3530 5014 
Q 3450 4992 3174 4634 
L 4058 4634 
Q 4659 4634 5101 4691 
L 4243 3514 
Q 5306 3520 5536 3558 
Q 5510 3251 5510 2675 
L 5510 2470 
L 6131 2509 
L 6131 1984 
Q 5920 1997 5510 2010 
z
M 4986 2451 
L 4986 3110 
L 3878 3110 
L 3878 2451 
L 4986 2451 
z
M 4986 1357 
L 4986 2016 
L 3878 2016 
L 3878 1357 
L 4986 1357 
z
M 1523 3693 
L 1011 3392 
Q 806 3942 448 4454 
L 909 4762 
Q 1325 4096 1523 3693 
z
M 1613 2080 
Q 1254 1242 819 -70 
Q 595 230 211 365 
Q 410 646 691 1299 
Q 973 1952 1088 2400 
Q 1293 2170 1613 2080 
z
" transform="scale(0.015625)"/>
       <path id="STHeiti-5229" d="M 4909 5165 
Q 5165 5107 5555 5107 
Q 5645 5107 5645 5065 
Q 5645 5024 5577 4976 
Q 5510 4928 5510 4768 
L 5510 198 
Q 5510 -90 5433 -227 
Q 5357 -365 5120 -445 
Q 4883 -525 4352 -595 
Q 4333 -275 4070 64 
Q 4269 51 4483 51 
Q 4698 51 4826 112 
Q 4954 173 4954 435 
L 4954 4109 
Q 4954 4826 4909 5165 
z
M 1658 2016 
Q 1325 1210 730 422 
Q 550 698 307 909 
Q 1267 1837 1594 2880 
Q 742 2867 410 2835 
L 410 3392 
Q 749 3354 1658 3341 
L 1658 4218 
Q 1120 4134 685 4096 
Q 621 4320 442 4576 
Q 864 4576 1561 4688 
Q 2259 4800 2912 5011 
Q 2970 4851 3072 4697 
Q 3174 4544 3244 4489 
Q 3315 4435 3315 4403 
Q 3315 4352 3244 4365 
Q 3174 4378 3091 4378 
Q 2778 4378 2182 4301 
L 2182 3341 
Q 3066 3354 3386 3392 
L 3386 2835 
Q 3040 2867 2182 2880 
L 2182 525 
Q 2182 90 2227 -576 
L 1587 -576 
Q 1658 128 1658 525 
L 1658 2016 
z
M 3725 4186 
Q 3968 4134 4326 4134 
Q 4403 4134 4403 4099 
Q 4403 4064 4345 4029 
Q 4288 3994 4288 3834 
L 4288 1766 
Q 4288 1357 4314 966 
L 3725 966 
Q 3750 1382 3750 1766 
L 3750 3482 
Q 3750 3968 3725 4186 
z
M 3322 1485 
L 2874 1165 
Q 2630 1613 2227 2176 
L 2605 2458 
Q 2957 1933 3322 1485 
z
" transform="scale(0.015625)"/>
       <path id="STHeiti-6da6" d="M 3206 4307 
L 2720 4038 
Q 2522 4531 2195 4915 
L 2656 5178 
Q 2944 4698 3206 4307 
z
M 1837 4275 
L 1370 3866 
Q 1069 4320 634 4640 
L 1037 5005 
Q 1594 4525 1837 4275 
z
M 5805 4819 
Q 5773 4646 5773 4058 
L 5773 115 
Q 5773 -198 5721 -316 
Q 5670 -435 5478 -496 
Q 5286 -557 4762 -627 
Q 4717 -346 4486 -19 
Q 4678 -32 4806 -32 
Q 5094 -32 5184 41 
Q 5274 115 5274 314 
L 5274 4288 
L 4326 4288 
Q 3942 4288 3539 4250 
L 3539 4819 
Q 4013 4774 4678 4774 
Q 5344 4774 5805 4819 
z
M 1875 3795 
Q 2118 3757 2217 3753 
Q 2317 3750 2409 3750 
Q 2502 3750 2502 3715 
Q 2502 3680 2432 3610 
Q 2400 3578 2400 3379 
L 2400 -550 
L 1843 -550 
Q 1901 6 1901 371 
L 1901 3014 
Q 1901 3488 1875 3795 
z
M 4019 1088 
Q 4525 1094 4845 1133 
L 4845 627 
Q 4550 666 3776 666 
Q 3002 666 2714 627 
L 2714 1133 
Q 3040 1094 3558 1088 
L 3558 1971 
Q 3091 1965 2899 1933 
L 2899 2438 
Q 3168 2400 3558 2394 
L 3558 3187 
Q 3046 3187 2822 3149 
L 2822 3654 
Q 3181 3610 3821 3610 
Q 4461 3610 4806 3654 
L 4806 3149 
Q 4474 3187 4019 3187 
L 4019 2394 
Q 4448 2400 4704 2438 
L 4704 1933 
Q 4506 1965 4019 1971 
L 4019 1088 
z
M 1549 2835 
L 1184 2400 
Q 838 2797 358 3155 
L 704 3533 
Q 1120 3258 1549 2835 
z
M 1472 1715 
Q 1293 1338 1037 -474 
Q 678 -230 371 -115 
Q 781 762 960 2022 
Q 1210 1798 1472 1715 
z
" transform="scale(0.015625)"/>
      </defs>
      <use xlink:href="#STHeiti-5f52"/>
      <use xlink:href="#STHeiti-6bcd" transform="translate(99.999985 0)"/>
      <use xlink:href="#STHeiti-51c0" transform="translate(199.999969 0)"/>
      <use xlink:href="#STHeiti-5229" transform="translate(299.999954 0)"/>
      <use xlink:href="#STHeiti-6da6" transform="translate(399.999939 0)"/>
     </g>
    </g>
   </g>
  </g>
 </g>
 <defs>
  <clipPath id="p46ab66ff8a">
   <rect x="40.370652" y="10.437228" width="664.989008" height="285.366676"/>
  </clipPath>
 </defs>
</svg>
