<?xml version="1.0" encoding="utf-8" standalone="no"?>
<!DOCTYPE svg PUBLIC "-//W3C//DTD SVG 1.1//EN"
  "http://www.w3.org/Graphics/SVG/1.1/DTD/svg11.dtd">
<svg xmlns:xlink="http://www.w3.org/1999/xlink" width="710.778279pt" height="352.227468pt" viewBox="0 0 710.778279 352.227468" xmlns="http://www.w3.org/2000/svg" version="1.1">
 <metadata>
  <rdf:RDF xmlns:dc="http://purl.org/dc/elements/1.1/" xmlns:cc="http://creativecommons.org/ns#" xmlns:rdf="http://www.w3.org/1999/02/22-rdf-syntax-ns#">
   <cc:Work>
    <dc:type rdf:resource="http://purl.org/dc/dcmitype/StillImage"/>
    <dc:date>2026-06-05T11:53:44.746947</dc:date>
    <dc:format>image/svg+xml</dc:format>
    <dc:creator>
     <cc:Agent>
      <dc:title>Matplotlib v3.10.9, https://matplotlib.org/</dc:title>
     </cc:Agent>
    </dc:creator>
   </cc:Work>
  </rdf:RDF>
 </metadata>
 <defs>
  <style type="text/css">*{stroke-linejoin: round; stroke-linecap: butt}</style>
 </defs>
 <g id="figure_1">
  <g id="patch_1">
   <path d="M 0 352.227468 
L 710.778279 352.227468 
L 710.778279 0 
L 0 0 
z
" style="fill: #ffffff"/>
  </g>
  <g id="axes_1">
   <g id="patch_2">
    <path d="M 79.207717 206.782923 
L 703.578279 206.782923 
L 703.578279 7.2 
L 79.207717 7.2 
z
" style="fill: #fafafa"/>
   </g>
   <g id="matplotlib.axis_1">
    <g id="xtick_1">
     <g id="line2d_1">
      <path d="M 96.551344 206.782923 
L 96.551344 7.2 
" clip-path="url(#p54b3b7f519)" style="fill: none; stroke: #b0b0b0; stroke-opacity: 0.3; stroke-width: 0.8; stroke-linecap: square"/>
     </g>
     <g id="line2d_2">
      <defs>
       <path id="m5aba576808" d="M 0 0 
L 0 3.5 
" style="stroke: #000000; stroke-width: 0.8"/>
      </defs>
      <g>
       <use xlink:href="#m5aba576808" x="96.551344" y="206.782923" style="stroke: #000000; stroke-width: 0.8"/>
      </g>
     </g>
     <g id="text_1">
      <!-- FY2025经营CF 2.06亿 -->
      <g transform="translate(11.179688 269.578288) rotate(-30) scale(0.1 -0.1)">
       <defs>
        <path id="STHeiti-46" d="M 557 4979 
L 2861 4979 
L 2861 4525 
L 1018 4525 
L 1018 3091 
L 2861 3091 
L 2861 2637 
L 1018 2637 
L 1018 384 
L 557 384 
L 557 4979 
z
" transform="scale(0.015625)"/>
        <path id="STHeiti-59" d="M 198 4979 
L 730 4979 
L 1901 3085 
L 3059 4979 
L 3590 4979 
L 2131 2579 
L 2131 384 
L 1683 384 
L 1683 2579 
L 198 4979 
z
" transform="scale(0.015625)"/>
        <path id="STHeiti-32" d="M 742 3539 
L 301 3539 
Q 333 4243 768 4668 
Q 1203 5094 1820 5094 
Q 2438 5094 2844 4694 
Q 3251 4294 3251 3718 
Q 3251 3290 3024 2925 
Q 2797 2560 2336 2061 
L 1190 826 
L 3315 826 
L 3315 384 
L 192 384 
L 1946 2278 
Q 2406 2778 2604 3066 
Q 2803 3354 2803 3725 
Q 2803 4096 2512 4377 
Q 2221 4659 1789 4659 
Q 1357 4659 1072 4368 
Q 787 4077 742 3539 
z
" transform="scale(0.015625)"/>
        <path id="STHeiti-30" d="M 1747 269 
Q 1005 269 605 880 
Q 205 1491 205 2681 
Q 205 3872 605 4483 
Q 1005 5094 1741 5094 
Q 2477 5094 2909 4470 
Q 3341 3846 3341 2681 
Q 3341 1517 2905 893 
Q 2470 269 1747 269 
z
M 1760 4659 
Q 1229 4659 934 4147 
Q 640 3635 640 2669 
Q 640 685 1760 685 
Q 2304 685 2608 1206 
Q 2912 1728 2912 2681 
Q 2912 3635 2598 4147 
Q 2285 4659 1760 4659 
z
" transform="scale(0.015625)"/>
        <path id="STHeiti-35" d="M 3149 4979 
L 3149 4544 
L 1510 4544 
L 1280 3290 
Q 1587 3379 1856 3379 
Q 2458 3379 2861 2953 
Q 3264 2528 3264 1862 
Q 3264 1197 2825 733 
Q 2387 269 1664 269 
Q 1114 269 726 598 
Q 339 928 262 1498 
L 730 1498 
Q 813 1114 1075 909 
Q 1338 704 1683 704 
Q 2138 704 2467 1043 
Q 2797 1382 2797 1888 
Q 2797 2349 2509 2646 
Q 2221 2944 1757 2944 
Q 1293 2944 730 2701 
L 1158 4979 
L 3149 4979 
z
" transform="scale(0.015625)"/>
        <path id="STHeiti-7ecf" d="M 1587 2765 
Q 819 2643 499 2554 
Q 442 2842 320 3059 
Q 518 3130 880 3898 
Q 1242 4666 1306 5114 
Q 1434 5030 1674 4944 
Q 1914 4858 2010 4845 
Q 2106 4832 2106 4806 
Q 2106 4781 2038 4755 
Q 1971 4730 1894 4643 
Q 1818 4557 1760 4454 
Q 1382 3795 909 3078 
L 1818 3174 
Q 2074 3686 2150 3917 
Q 2483 3725 2733 3654 
Q 2822 3622 2822 3596 
Q 2822 3571 2758 3546 
Q 2586 3469 2419 3213 
Q 1702 2086 1274 1517 
Q 1779 1594 2502 1645 
Q 2400 1427 2400 1139 
Q 1651 1152 736 960 
Q 717 1216 576 1504 
Q 774 1542 1014 1862 
Q 1254 2182 1587 2765 
z
M 4659 3507 
Q 5485 3085 6112 2605 
L 5728 2112 
Q 5210 2637 4320 3142 
Q 3763 2579 2982 2061 
Q 2784 2253 2413 2387 
Q 3725 2989 4602 4301 
L 3834 4301 
Q 3174 4301 2790 4256 
L 2790 4819 
Q 3309 4768 4102 4768 
Q 4896 4768 5549 4819 
Q 5197 4115 4659 3507 
z
M 4563 1395 
L 4563 90 
Q 5600 90 6054 141 
L 6054 -422 
Q 5645 -371 4317 -371 
Q 2989 -371 2579 -422 
L 2579 141 
Q 3046 90 4032 90 
L 4032 1395 
Q 3296 1382 2886 1338 
L 2886 1901 
Q 3386 1843 4339 1843 
Q 5293 1843 5696 1901 
L 5696 1338 
Q 5286 1382 4563 1395 
z
M 2458 640 
Q 2298 320 2317 32 
Q 1920 6 1376 -118 
Q 832 -243 544 -384 
Q 544 -64 397 320 
Q 794 320 1405 409 
Q 2016 499 2458 640 
z
" transform="scale(0.015625)"/>
        <path id="STHeiti-8425" d="M 4282 3693 
Q 5274 3706 5856 3731 
L 5856 2662 
L 5344 2662 
L 5344 3277 
L 1082 3277 
L 1082 2624 
L 570 2624 
L 570 3731 
Q 1082 3699 2106 3693 
L 2106 4218 
Q 1056 4205 467 4160 
L 467 4666 
Q 1133 4614 2106 4614 
Q 2099 4973 2054 5178 
Q 2387 5133 2650 5133 
Q 2733 5133 2733 5101 
Q 2733 5069 2681 5037 
Q 2630 5005 2617 4979 
Q 2605 4954 2605 4890 
L 2605 4614 
L 3782 4614 
Q 3776 4947 3738 5171 
Q 4019 5133 4326 5133 
Q 4410 5133 4410 5101 
Q 4410 5069 4358 5037 
Q 4307 5005 4294 4979 
Q 4282 4954 4282 4890 
L 4282 4614 
Q 5299 4614 5965 4666 
L 5965 4160 
Q 5344 4218 4282 4218 
L 4282 3693 
z
M 2605 3693 
L 3782 3693 
L 3782 4218 
L 2605 4218 
L 2605 3693 
z
M 4794 1568 
Q 4230 1587 3270 1587 
Q 2310 1587 1587 1562 
Q 1619 1773 1619 2176 
Q 1619 2579 1587 2874 
Q 2086 2848 3190 2848 
Q 4294 2848 4794 2874 
Q 4774 2611 4774 2217 
Q 4774 1824 4794 1568 
z
M 4269 1971 
L 4269 2464 
L 2118 2464 
L 2118 1971 
L 4269 1971 
z
M 4698 -109 
L 1722 -109 
L 1722 -576 
L 1152 -576 
Q 1197 -333 1197 -64 
L 1197 890 
Q 1197 1037 1158 1197 
Q 1350 1184 3235 1184 
Q 5120 1184 5280 1197 
Q 5248 1082 5248 890 
L 5248 0 
Q 5248 -269 5293 -512 
L 4698 -512 
L 4698 -109 
z
M 1722 288 
L 4698 288 
L 4698 794 
L 1722 794 
L 1722 288 
z
" transform="scale(0.015625)"/>
        <path id="STHeiti-43" d="M 4838 4128 
L 4480 3853 
Q 3840 4646 2835 4646 
Q 2016 4646 1424 4070 
Q 832 3494 832 2659 
Q 832 1824 1411 1264 
Q 1990 704 2861 704 
Q 3834 704 4480 1459 
L 4838 1184 
Q 4499 736 3980 502 
Q 3462 269 2835 269 
Q 1741 269 1043 960 
Q 346 1651 346 2707 
Q 346 3360 669 3913 
Q 992 4467 1565 4780 
Q 2138 5094 2797 5094 
Q 3456 5094 3981 4844 
Q 4506 4595 4838 4128 
z
" transform="scale(0.015625)"/>
        <path id="STHeiti-20" transform="scale(0.015625)"/>
        <path id="STHeiti-2e" d="M 582 685 
Q 582 845 697 957 
Q 813 1069 969 1069 
Q 1126 1069 1238 957 
Q 1350 845 1350 681 
Q 1350 518 1238 406 
Q 1126 294 969 294 
Q 813 294 697 409 
Q 582 525 582 685 
z
" transform="scale(0.015625)"/>
        <path id="STHeiti-36" d="M 2349 5094 
L 2726 4851 
L 1485 2970 
Q 1747 3059 1984 3059 
Q 2496 3059 2880 2652 
Q 3264 2246 3264 1660 
Q 3264 1075 2845 672 
Q 2426 269 1827 269 
Q 1229 269 829 678 
Q 429 1088 429 1677 
Q 429 1958 537 2256 
Q 646 2554 954 3014 
L 2349 5094 
z
M 2810 1683 
Q 2810 2086 2528 2368 
Q 2246 2650 1843 2650 
Q 1440 2650 1158 2368 
Q 877 2086 877 1683 
Q 877 1280 1161 998 
Q 1446 717 1843 717 
Q 2240 717 2525 998 
Q 2810 1280 2810 1683 
z
" transform="scale(0.015625)"/>
        <path id="STHeiti-4ebf" d="M 1779 3840 
L 1779 -570 
L 1171 -570 
Q 1242 154 1242 864 
L 1242 2835 
Q 1005 2406 582 1786 
Q 486 2144 256 2394 
Q 691 2848 1091 3577 
Q 1491 4307 1709 5235 
Q 2016 5075 2355 5018 
Q 2464 4998 2464 4950 
Q 2464 4902 2339 4822 
Q 2214 4742 1779 3840 
z
M 6131 762 
Q 6022 218 5872 -28 
Q 5722 -275 5200 -348 
Q 4678 -422 3929 -422 
Q 3181 -422 2841 -275 
Q 2502 -128 2502 320 
Q 2502 582 2630 912 
Q 2758 1242 3187 1958 
Q 3616 2675 4518 4051 
L 3981 4051 
Q 2970 4051 2560 4019 
L 2560 4621 
Q 2912 4582 4054 4582 
Q 5197 4582 5568 4646 
L 5568 4179 
Q 5338 4115 4982 3718 
Q 4627 3322 4140 2522 
Q 3654 1722 3376 1194 
Q 3098 666 3098 390 
Q 3098 250 3222 186 
Q 3347 122 3852 122 
Q 4358 122 4710 157 
Q 5062 192 5190 256 
Q 5318 320 5385 509 
Q 5453 698 5491 1146 
Q 5664 966 5789 880 
Q 5914 794 6131 762 
z
" transform="scale(0.015625)"/>
       </defs>
       <use xlink:href="#STHeiti-46"/>
       <use xlink:href="#STHeiti-59" transform="translate(48.499985 0)"/>
       <use xlink:href="#STHeiti-32" transform="translate(107.699982 0)"/>
       <use xlink:href="#STHeiti-30" transform="translate(163.099976 0)"/>
       <use xlink:href="#STHeiti-32" transform="translate(218.499969 0)"/>
       <use xlink:href="#STHeiti-35" transform="translate(273.899963 0)"/>
       <use xlink:href="#STHeiti-7ecf" transform="translate(329.299957 0)"/>
       <use xlink:href="#STHeiti-8425" transform="translate(429.299942 0)"/>
       <use xlink:href="#STHeiti-43" transform="translate(529.299927 0)"/>
       <use xlink:href="#STHeiti-46" transform="translate(610.599915 0)"/>
       <use xlink:href="#STHeiti-20" transform="translate(659.099899 0)"/>
       <use xlink:href="#STHeiti-32" transform="translate(684.099884 0)"/>
       <use xlink:href="#STHeiti-2e" transform="translate(739.499878 0)"/>
       <use xlink:href="#STHeiti-30" transform="translate(767.199875 0)"/>
       <use xlink:href="#STHeiti-36" transform="translate(822.599869 0)"/>
       <use xlink:href="#STHeiti-4ebf" transform="translate(877.999863 0)"/>
      </g>
     </g>
    </g>
    <g id="xtick_2">
     <g id="line2d_3">
      <path d="M 183.269478 206.782923 
L 183.269478 7.2 
" clip-path="url(#p54b3b7f519)" style="fill: none; stroke: #b0b0b0; stroke-opacity: 0.3; stroke-width: 0.8; stroke-linecap: square"/>
     </g>
     <g id="line2d_4">
      <g>
       <use xlink:href="#m5aba576808" x="183.269478" y="206.782923" style="stroke: #000000; stroke-width: 0.8"/>
      </g>
     </g>
     <g id="text_2">
      <!-- Q1 2026经营CF 1,331万 -->
      <g transform="translate(87.920938 275.338444) rotate(-30) scale(0.1 -0.1)">
       <defs>
        <path id="STHeiti-51" d="M 4416 883 
L 5094 19 
L 4531 19 
L 4064 614 
Q 3494 269 2822 269 
Q 1779 269 1072 963 
Q 365 1658 365 2662 
Q 365 3693 1049 4393 
Q 1734 5094 2784 5094 
Q 3443 5094 4003 4774 
Q 4563 4454 4883 3897 
Q 5203 3341 5203 2682 
Q 5203 1626 4416 883 
z
M 4134 1242 
Q 4730 1830 4730 2668 
Q 4730 3507 4154 4076 
Q 3578 4646 2778 4646 
Q 1978 4646 1411 4070 
Q 845 3494 845 2659 
Q 845 1824 1421 1270 
Q 1997 717 2790 717 
Q 3322 717 3776 979 
L 2752 2278 
L 3309 2278 
L 4134 1242 
z
" transform="scale(0.015625)"/>
        <path id="STHeiti-31" d="M 1184 4979 
L 2086 4979 
L 2086 384 
L 1632 384 
L 1632 4531 
L 909 4531 
L 1184 4979 
z
" transform="scale(0.015625)"/>
        <path id="STHeiti-2c" d="M 922 1229 
L 1344 1030 
L 710 -154 
L 397 -19 
L 922 1229 
z
" transform="scale(0.015625)"/>
        <path id="STHeiti-33" d="M 845 3917 
L 378 3917 
Q 506 4486 867 4790 
Q 1229 5094 1750 5094 
Q 2272 5094 2659 4748 
Q 3046 4403 3046 3910 
Q 3046 3315 2458 2970 
Q 2861 2803 3081 2473 
Q 3302 2144 3302 1754 
Q 3302 1146 2857 707 
Q 2413 269 1734 269 
Q 1133 269 742 611 
Q 352 954 224 1613 
L 672 1613 
Q 794 1158 1046 937 
Q 1299 717 1760 717 
Q 2221 717 2534 1011 
Q 2848 1306 2848 1741 
Q 2848 2176 2502 2441 
Q 2157 2707 1498 2720 
L 1498 3142 
Q 1971 3142 2268 3360 
Q 2566 3578 2566 3901 
Q 2566 4224 2326 4438 
Q 2086 4653 1747 4653 
Q 1408 4653 1200 4470 
Q 992 4288 845 3917 
z
" transform="scale(0.015625)"/>
        <path id="STHeiti-4e07" d="M 2304 4102 
Q 1312 4096 678 4026 
L 678 4659 
Q 960 4614 3107 4614 
Q 5254 4614 5946 4666 
L 5946 4026 
Q 5274 4102 4128 4102 
L 2918 4102 
Q 2918 3501 2880 3104 
L 4301 3104 
Q 4890 3104 5254 3168 
Q 5222 3053 5216 2925 
L 5082 922 
Q 5050 422 4944 195 
Q 4838 -32 4566 -134 
Q 4294 -237 3686 -288 
Q 3648 19 3347 410 
Q 3648 390 3885 390 
Q 4122 390 4262 473 
Q 4403 557 4457 765 
Q 4512 973 4544 1453 
L 4627 2611 
L 2835 2611 
Q 2714 1453 2304 829 
Q 1894 205 947 -384 
Q 774 -51 435 147 
Q 1229 429 1645 937 
Q 2061 1446 2185 2262 
Q 2310 3078 2310 3802 
Q 2310 3968 2304 4102 
z
" transform="scale(0.015625)"/>
       </defs>
       <use xlink:href="#STHeiti-51"/>
       <use xlink:href="#STHeiti-31" transform="translate(87.099991 0)"/>
       <use xlink:href="#STHeiti-20" transform="translate(142.499985 0)"/>
       <use xlink:href="#STHeiti-32" transform="translate(167.499969 0)"/>
       <use xlink:href="#STHeiti-30" transform="translate(222.899963 0)"/>
       <use xlink:href="#STHeiti-32" transform="translate(278.299957 0)"/>
       <use xlink:href="#STHeiti-36" transform="translate(333.699951 0)"/>
       <use xlink:href="#STHeiti-7ecf" transform="translate(389.099945 0)"/>
       <use xlink:href="#STHeiti-8425" transform="translate(489.09993 0)"/>
       <use xlink:href="#STHeiti-43" transform="translate(589.099915 0)"/>
       <use xlink:href="#STHeiti-46" transform="translate(670.399902 0)"/>
       <use xlink:href="#STHeiti-20" transform="translate(718.899887 0)"/>
       <use xlink:href="#STHeiti-31" transform="translate(743.899872 0)"/>
       <use xlink:href="#STHeiti-2c" transform="translate(799.299866 0)"/>
       <use xlink:href="#STHeiti-33" transform="translate(826.999863 0)"/>
       <use xlink:href="#STHeiti-33" transform="translate(882.399857 0)"/>
       <use xlink:href="#STHeiti-31" transform="translate(937.79985 0)"/>
       <use xlink:href="#STHeiti-4e07" transform="translate(993.199844 0)"/>
      </g>
     </g>
    </g>
    <g id="xtick_3">
     <g id="line2d_5">
      <path d="M 269.987611 206.782923 
L 269.987611 7.2 
" clip-path="url(#p54b3b7f519)" style="fill: none; stroke: #b0b0b0; stroke-opacity: 0.3; stroke-width: 0.8; stroke-linecap: square"/>
     </g>
     <g id="line2d_6">
      <g>
       <use xlink:href="#m5aba576808" x="269.987611" y="206.782923" style="stroke: #000000; stroke-width: 0.8"/>
      </g>
     </g>
     <g id="text_3">
      <!-- Q1月度经营CF（1月+1.48亿/2月+0.36亿/3月-1.70亿） -->
      <g transform="translate(56.095078 343.866453) rotate(-30) scale(0.1 -0.1)">
       <defs>
        <path id="STHeiti-6708" d="M 4710 1587 
L 2208 1587 
Q 2112 269 1235 -595 
Q 1005 -339 614 -237 
Q 1184 192 1430 800 
Q 1677 1408 1677 2509 
L 1677 4045 
Q 1677 4646 1651 4877 
Q 1978 4851 3501 4851 
Q 5024 4851 5331 4877 
Q 5306 4646 5306 4045 
L 5306 288 
Q 5306 -64 5245 -205 
Q 5184 -346 4969 -416 
Q 4755 -486 4211 -538 
Q 4211 -160 3930 173 
Q 4294 109 4457 109 
Q 4621 109 4665 214 
Q 4710 320 4710 659 
L 4710 1587 
z
M 2227 3443 
L 4710 3443 
L 4710 4371 
L 2227 4371 
L 2227 3443 
z
M 4710 2995 
L 2227 2995 
L 2227 2054 
L 4710 2054 
L 4710 2995 
z
" transform="scale(0.015625)"/>
        <path id="STHeiti-5ea6" d="M 3661 4557 
Q 5344 4563 5779 4614 
L 5779 4090 
Q 5133 4147 4275 4147 
L 1510 4147 
Q 1542 3526 1542 2995 
Q 1542 1786 1379 931 
Q 1216 77 858 -557 
Q 608 -294 326 -160 
Q 685 352 851 1081 
Q 1018 1811 1018 2726 
Q 1018 3642 934 4614 
Q 1446 4563 3059 4557 
Q 3008 4806 2854 5101 
L 3437 5210 
Q 3533 4909 3661 4557 
z
M 2522 3430 
Q 2515 3840 2464 3987 
Q 2707 3923 2938 3923 
L 3053 3930 
Q 3091 3930 3091 3907 
Q 3091 3885 3059 3846 
Q 2989 3770 2982 3430 
L 4269 3430 
Q 4269 3898 4230 4045 
Q 4454 3974 4685 3974 
L 4845 3987 
Q 4877 3987 4877 3968 
Q 4877 3949 4838 3910 
Q 4774 3840 4768 3430 
Q 5472 3437 5888 3482 
L 5888 3014 
Q 5421 3066 4768 3072 
L 4768 2746 
Q 4768 2336 4813 2086 
Q 4538 2138 3658 2138 
Q 2778 2138 2477 2086 
Q 2522 2387 2522 2707 
L 2522 3066 
Q 2074 3059 1773 3014 
L 1773 3482 
Q 2080 3437 2522 3430 
z
M 2982 3072 
L 2982 2522 
L 4269 2522 
L 4269 3072 
L 2982 3072 
z
M 2336 1382 
Q 1997 1363 1843 1344 
L 1843 1824 
Q 2541 1766 3574 1766 
Q 4608 1766 5267 1824 
Q 4787 851 4090 365 
Q 4832 83 5760 83 
Q 5907 83 6067 90 
Q 5824 -192 5779 -557 
Q 4499 -422 3629 64 
Q 2976 -307 1869 -582 
Q 1773 -326 1459 -26 
Q 2278 13 3168 358 
Q 2707 723 2336 1382 
z
M 2880 1389 
Q 3162 877 3622 582 
Q 4147 928 4435 1389 
L 2880 1389 
z
" transform="scale(0.015625)"/>
        <path id="STHeiti-ff08" d="M 5651 -749 
L 5274 -749 
Q 4646 173 4409 835 
Q 4173 1498 4173 2266 
Q 4173 3034 4432 3750 
Q 4691 4467 5254 5267 
L 5645 5267 
Q 5082 4237 4928 3606 
Q 4774 2976 4774 2093 
Q 4774 1472 4953 861 
Q 5133 250 5651 -749 
z
" transform="scale(0.015625)"/>
        <path id="STHeiti-2b" d="M 1728 2899 
L 1728 4250 
L 2150 4250 
L 2150 2899 
L 3520 2899 
L 3520 2470 
L 2150 2470 
L 2150 1114 
L 1728 1114 
L 1728 2470 
L 358 2470 
L 358 2899 
L 1728 2899 
z
" transform="scale(0.015625)"/>
        <path id="STHeiti-34" d="M 2726 5094 
L 2816 5094 
L 2816 1894 
L 3373 1894 
L 3373 1453 
L 2816 1453 
L 2816 384 
L 2362 384 
L 2362 1453 
L 160 1453 
L 2726 5094 
z
M 2362 1894 
L 2362 3808 
L 1005 1894 
L 2362 1894 
z
" transform="scale(0.015625)"/>
        <path id="STHeiti-38" d="M 2458 2906 
Q 3328 2477 3328 1702 
Q 3328 1088 2896 678 
Q 2464 269 1763 269 
Q 1062 269 640 678 
Q 218 1088 218 1664 
Q 218 2470 1107 2906 
Q 435 3264 435 3898 
Q 435 4371 828 4732 
Q 1222 5094 1779 5094 
Q 2336 5094 2726 4742 
Q 3117 4390 3117 3885 
Q 3117 3270 2458 2906 
z
M 2656 3904 
Q 2656 4211 2416 4432 
Q 2176 4653 1789 4653 
Q 1402 4653 1152 4432 
Q 902 4211 902 3897 
Q 902 3584 1174 3337 
Q 1446 3091 1792 3091 
Q 2138 3091 2397 3334 
Q 2656 3578 2656 3904 
z
M 2867 1696 
Q 2867 2086 2550 2380 
Q 2234 2675 1782 2675 
Q 1331 2675 1004 2371 
Q 678 2067 678 1654 
Q 678 1242 979 973 
Q 1280 704 1766 704 
Q 2253 704 2560 992 
Q 2867 1280 2867 1696 
z
" transform="scale(0.015625)"/>
        <path id="STHeiti-2f" d="M 2611 5094 
L 704 -243 
L 224 -243 
L 2131 5094 
L 2611 5094 
z
" transform="scale(0.015625)"/>
        <path id="STHeiti-2d" d="M 205 2304 
L 1920 2304 
L 1920 1920 
L 205 1920 
L 205 2304 
z
" transform="scale(0.015625)"/>
        <path id="STHeiti-37" d="M 461 4979 
L 3373 4979 
L 915 269 
L 538 461 
L 2662 4544 
L 461 4544 
L 461 4979 
z
" transform="scale(0.015625)"/>
        <path id="STHeiti-ff09" d="M 1120 5267 
Q 1747 4346 1984 3683 
Q 2221 3021 2221 2253 
Q 2221 1485 1961 768 
Q 1702 51 1139 -749 
L 749 -749 
Q 1312 282 1465 912 
Q 1619 1542 1619 2426 
Q 1619 3046 1440 3657 
Q 1261 4269 742 5267 
L 1120 5267 
z
" transform="scale(0.015625)"/>
       </defs>
       <use xlink:href="#STHeiti-51"/>
       <use xlink:href="#STHeiti-31" transform="translate(87.099991 0)"/>
       <use xlink:href="#STHeiti-6708" transform="translate(142.499985 0)"/>
       <use xlink:href="#STHeiti-5ea6" transform="translate(242.499969 0)"/>
       <use xlink:href="#STHeiti-7ecf" transform="translate(342.499954 0)"/>
       <use xlink:href="#STHeiti-8425" transform="translate(442.499939 0)"/>
       <use xlink:href="#STHeiti-43" transform="translate(542.499924 0)"/>
       <use xlink:href="#STHeiti-46" transform="translate(623.799911 0)"/>
       <use xlink:href="#STHeiti-ff08" transform="translate(672.299896 0)"/>
       <use xlink:href="#STHeiti-31" transform="translate(772.299881 0)"/>
       <use xlink:href="#STHeiti-6708" transform="translate(827.699875 0)"/>
       <use xlink:href="#STHeiti-2b" transform="translate(927.69986 0)"/>
       <use xlink:href="#STHeiti-31" transform="translate(988.29985 0)"/>
       <use xlink:href="#STHeiti-2e" transform="translate(1043.699844 0)"/>
       <use xlink:href="#STHeiti-34" transform="translate(1071.399841 0)"/>
       <use xlink:href="#STHeiti-38" transform="translate(1126.799835 0)"/>
       <use xlink:href="#STHeiti-4ebf" transform="translate(1182.199829 0)"/>
       <use xlink:href="#STHeiti-2f" transform="translate(1282.199814 0)"/>
       <use xlink:href="#STHeiti-32" transform="translate(1325.899811 0)"/>
       <use xlink:href="#STHeiti-6708" transform="translate(1381.299805 0)"/>
       <use xlink:href="#STHeiti-2b" transform="translate(1481.299789 0)"/>
       <use xlink:href="#STHeiti-30" transform="translate(1541.89978 0)"/>
       <use xlink:href="#STHeiti-2e" transform="translate(1597.299774 0)"/>
       <use xlink:href="#STHeiti-33" transform="translate(1624.999771 0)"/>
       <use xlink:href="#STHeiti-36" transform="translate(1680.399765 0)"/>
       <use xlink:href="#STHeiti-4ebf" transform="translate(1735.799759 0)"/>
       <use xlink:href="#STHeiti-2f" transform="translate(1835.799744 0)"/>
       <use xlink:href="#STHeiti-33" transform="translate(1879.499741 0)"/>
       <use xlink:href="#STHeiti-6708" transform="translate(1934.899734 0)"/>
       <use xlink:href="#STHeiti-2d" transform="translate(2034.899719 0)"/>
       <use xlink:href="#STHeiti-31" transform="translate(2068.099716 0)"/>
       <use xlink:href="#STHeiti-2e" transform="translate(2123.49971 0)"/>
       <use xlink:href="#STHeiti-37" transform="translate(2151.199707 0)"/>
       <use xlink:href="#STHeiti-30" transform="translate(2206.599701 0)"/>
       <use xlink:href="#STHeiti-4ebf" transform="translate(2261.999695 0)"/>
       <use xlink:href="#STHeiti-ff09" transform="translate(2361.99968 0)"/>
      </g>
     </g>
    </g>
    <g id="xtick_4">
     <g id="line2d_7">
      <path d="M 356.705745 206.782923 
L 356.705745 7.2 
" clip-path="url(#p54b3b7f519)" style="fill: none; stroke: #b0b0b0; stroke-opacity: 0.3; stroke-width: 0.8; stroke-linecap: square"/>
     </g>
     <g id="line2d_8">
      <g>
       <use xlink:href="#m5aba576808" x="356.705745" y="206.782923" style="stroke: #000000; stroke-width: 0.8"/>
      </g>
     </g>
     <g id="text_4">
      <!-- Q1 2026存货11.50亿/应收7.65亿/票据0.52亿 -->
      <g transform="translate(181.643626 321.491004) rotate(-30) scale(0.1 -0.1)">
       <defs>
        <path id="STHeiti-5b58" d="M 1549 2272 
Q 1088 1786 608 1427 
Q 397 1683 122 1811 
Q 685 2125 1251 2681 
Q 1818 3238 2202 3872 
Q 1318 3866 627 3834 
L 627 4384 
Q 1267 4339 2438 4333 
Q 2726 4954 2797 5254 
Q 3206 5082 3494 5024 
Q 3584 5011 3584 4979 
Q 3584 4947 3526 4922 
Q 3366 4851 3053 4326 
Q 4838 4326 5824 4384 
L 5824 3834 
Q 5005 3878 2778 3878 
Q 2451 3354 2048 2854 
L 2048 237 
Q 2048 -198 2080 -531 
L 1517 -531 
Q 1549 -198 1549 237 
L 1549 2272 
z
M 4499 1203 
L 4499 166 
Q 4499 -173 4444 -304 
Q 4390 -435 4198 -502 
Q 4006 -570 3475 -666 
Q 3437 -384 3245 -26 
Q 3507 -51 3686 -51 
Q 3866 -51 3930 41 
Q 3994 134 3994 435 
L 3994 1203 
Q 2842 1203 2195 1165 
L 2195 1683 
Q 2886 1632 3994 1632 
L 3994 2189 
L 4749 2714 
L 3533 2714 
Q 3072 2714 2630 2675 
L 2630 3168 
Q 2970 3130 4102 3130 
Q 5235 3130 5613 3181 
L 5613 2720 
Q 5363 2662 5242 2566 
L 4499 2003 
L 4499 1632 
Q 5530 1638 6074 1683 
L 6074 1165 
Q 5395 1197 4499 1203 
z
" transform="scale(0.015625)"/>
        <path id="STHeiti-8d27" d="M 1485 3782 
Q 1133 3405 723 3040 
Q 531 3270 256 3366 
Q 1395 4102 1997 5216 
Q 2259 5030 2425 4966 
Q 2592 4902 2592 4838 
Q 2592 4774 2502 4749 
Q 2458 4736 2304 4611 
Q 2150 4486 1984 4320 
L 1984 2528 
L 1414 2528 
Q 1485 2944 1485 3354 
L 1485 3782 
z
M 3878 4070 
Q 4659 4358 5261 4858 
Q 5536 4595 5702 4486 
Q 5766 4442 5766 4419 
Q 5766 4397 5683 4384 
Q 5510 4358 5027 4131 
Q 4544 3904 3878 3654 
L 3878 3309 
Q 3878 3162 4016 3107 
Q 4154 3053 4573 3053 
Q 4992 3053 5155 3088 
Q 5318 3123 5392 3244 
Q 5466 3366 5523 3674 
Q 5773 3418 6106 3309 
Q 5939 2957 5820 2832 
Q 5702 2707 5459 2672 
Q 5216 2637 4624 2637 
Q 4032 2637 3779 2685 
Q 3526 2733 3452 2845 
Q 3379 2957 3379 3194 
L 3379 3469 
Q 2944 3322 2586 3187 
Q 2458 3469 2253 3642 
Q 2816 3731 3379 3904 
L 3379 4301 
Q 3379 4845 3328 5069 
Q 3514 5037 3987 5037 
Q 4096 5037 4096 4979 
Q 4096 4922 3987 4832 
Q 3878 4742 3878 4634 
L 3878 4070 
z
M 5229 595 
L 4653 595 
L 4653 1798 
L 1920 1798 
L 1920 640 
L 1338 640 
Q 1389 922 1389 1101 
L 1389 1894 
Q 1389 2048 1350 2272 
Q 2195 2234 3244 2234 
Q 4294 2234 5216 2272 
Q 5197 2163 5197 1894 
L 5197 1101 
Q 5197 870 5229 595 
z
M 2950 1485 
Q 3283 1370 3462 1350 
Q 3642 1331 3642 1312 
Q 3642 1293 3610 1277 
Q 3578 1261 3501 1110 
Q 3424 960 3373 806 
Q 3213 282 2627 -44 
Q 2042 -371 781 -576 
Q 730 -269 442 13 
Q 1075 6 1756 147 
Q 2438 288 2672 589 
Q 2906 890 2950 1485 
z
M 5946 -128 
L 5530 -621 
Q 4723 -102 3616 301 
L 3974 710 
L 5946 -128 
z
" transform="scale(0.015625)"/>
        <path id="STHeiti-5e94" d="M 3853 4614 
L 3264 4499 
Q 3136 4909 2970 5190 
L 3642 5370 
Q 3750 5024 3853 4614 
z
M 5850 3936 
Q 5446 3987 4333 3987 
L 1536 3987 
Q 1530 2509 1488 1798 
Q 1446 1088 1299 573 
Q 1152 58 813 -582 
Q 550 -307 294 -198 
Q 704 333 864 921 
Q 1024 1510 1024 2400 
Q 1024 3290 947 4512 
Q 1517 4461 3513 4461 
Q 5510 4461 5850 4512 
L 5850 3936 
z
M 4128 1574 
L 3552 1453 
Q 3526 2298 3136 3277 
L 3686 3418 
Q 3962 2477 4128 1574 
z
M 4435 250 
Q 5395 256 5965 314 
L 5965 -275 
Q 5229 -211 3734 -211 
Q 2240 -211 1523 -275 
L 1517 314 
Q 2246 250 3891 250 
Q 4198 691 4547 1641 
Q 4896 2592 5024 3341 
Q 5344 3181 5677 3091 
Q 5773 3066 5773 3034 
Q 5773 3002 5696 2950 
Q 5568 2861 5402 2432 
Q 4986 1376 4435 250 
z
M 3091 1062 
L 2534 845 
Q 2355 1651 1850 2662 
L 2368 2842 
Q 2758 1984 3091 1062 
z
" transform="scale(0.015625)"/>
        <path id="STHeiti-6536" d="M 1824 1664 
L 1824 4230 
Q 1824 4998 1773 5190 
Q 2003 5146 2413 5146 
Q 2522 5146 2522 5107 
Q 2522 5069 2435 5017 
Q 2349 4966 2349 4544 
L 2349 563 
Q 2349 26 2413 -589 
L 1766 -589 
Q 1824 6 1824 563 
L 1824 1197 
L 1082 992 
Q 826 922 614 762 
Q 512 1030 352 1293 
Q 608 1440 608 1722 
L 608 3539 
Q 608 4115 582 4282 
Q 806 4243 973 4243 
L 1171 4250 
Q 1261 4250 1261 4211 
Q 1261 4173 1203 4141 
Q 1082 4083 1082 3968 
L 1082 1510 
L 1824 1664 
z
M 4224 1286 
Q 4685 1984 4781 3462 
L 3629 3462 
Q 3226 2547 2970 2157 
Q 2733 2317 2522 2387 
Q 2906 2918 3203 3712 
Q 3501 4506 3565 5146 
Q 3981 5005 4250 4966 
Q 4326 4954 4326 4922 
Q 4326 4890 4278 4851 
Q 4230 4813 4150 4653 
Q 4070 4493 3821 3917 
L 5120 3917 
Q 5747 3917 5971 3974 
L 5971 3424 
Q 5754 3462 5318 3462 
Q 5178 1722 4576 896 
Q 5178 365 6061 173 
Q 5734 -134 5664 -493 
Q 4845 -115 4237 518 
Q 3699 -115 2899 -499 
Q 2790 -262 2483 -64 
Q 3213 173 3898 883 
Q 3450 1466 3315 2675 
L 3744 2810 
Q 3814 1888 4224 1286 
z
" transform="scale(0.015625)"/>
        <path id="STHeiti-7968" d="M 2330 3878 
L 2330 4390 
Q 1043 4378 525 4352 
L 525 4890 
Q 1395 4813 3276 4813 
Q 5158 4813 5888 4890 
L 5888 4352 
Q 5306 4390 4083 4390 
L 4083 3878 
Q 4966 3891 5549 3949 
Q 5491 3654 5491 3209 
Q 5491 2765 5549 2496 
Q 4454 2566 3225 2566 
Q 1997 2566 941 2496 
Q 992 2829 992 3257 
Q 992 3686 941 3949 
Q 1427 3904 2330 3878 
z
M 2797 4390 
L 2797 3878 
L 3622 3878 
L 3622 4390 
L 2797 4390 
z
M 4083 3514 
L 4083 2931 
L 5018 2931 
L 5018 3514 
L 4083 3514 
z
M 2330 2931 
L 2330 3514 
L 1459 3514 
L 1459 2931 
L 2330 2931 
z
M 2797 3514 
L 2797 2931 
L 3622 2931 
L 3622 3514 
L 2797 3514 
z
M 5235 1760 
Q 4442 1811 3197 1811 
Q 1952 1811 1165 1741 
L 1165 2272 
Q 1990 2208 3206 2208 
Q 4422 2208 5235 2272 
L 5235 1760 
z
M 3475 986 
L 3475 45 
Q 3475 -250 3427 -362 
Q 3379 -474 3203 -534 
Q 3027 -595 2534 -678 
Q 2470 -358 2240 -51 
Q 2624 -90 2758 -90 
Q 2893 -90 2928 -51 
Q 2963 -13 2963 90 
L 2963 986 
Q 1094 986 525 922 
L 525 1466 
Q 1472 1389 3302 1389 
Q 5133 1389 5901 1466 
L 5901 922 
Q 5069 986 3475 986 
z
M 1830 896 
Q 2080 659 2278 614 
Q 2368 595 2368 560 
Q 2368 525 2266 493 
Q 2061 429 1846 208 
Q 1632 -13 979 -474 
Q 870 -282 531 -109 
Q 1408 352 1830 896 
z
M 5760 102 
L 5427 -378 
Q 4710 141 4077 429 
L 4365 832 
Q 4960 557 5760 102 
z
" transform="scale(0.015625)"/>
        <path id="STHeiti-636e" d="M 1229 2176 
L 1229 3245 
Q 730 3245 448 3187 
L 448 3731 
Q 691 3680 1229 3680 
Q 1229 4454 1216 4681 
Q 1203 4909 1152 5114 
Q 1376 5069 1734 5069 
Q 1888 5069 1888 5021 
Q 1888 4973 1811 4915 
Q 1734 4858 1712 4810 
Q 1690 4762 1690 4678 
L 1690 3686 
Q 2016 3693 2208 3731 
L 2208 3187 
Q 1971 3232 1690 3238 
L 1690 2355 
Q 1971 2477 2240 2624 
Q 2234 2323 2310 2106 
Q 1990 2010 1690 1894 
L 1690 186 
Q 1690 -102 1635 -224 
Q 1581 -346 1395 -419 
Q 1210 -493 736 -576 
Q 723 -243 467 90 
Q 704 51 858 51 
Q 1229 51 1229 269 
L 1229 1696 
Q 794 1485 480 1242 
Q 454 1587 365 1920 
Q 838 2042 1229 2176 
z
M 4627 2214 
L 4627 1523 
Q 5510 1523 5722 1568 
Q 5683 1408 5683 1030 
L 5683 160 
Q 5683 -179 5728 -480 
L 5190 -480 
L 5190 -218 
L 3738 -218 
L 3738 -550 
L 3200 -550 
Q 3245 -307 3245 96 
L 3245 1030 
Q 3245 1357 3206 1568 
Q 3469 1530 4166 1523 
L 4166 2214 
Q 3494 2208 3098 2150 
L 3098 2669 
Q 3533 2618 4166 2611 
L 4166 3302 
L 3027 3302 
Q 3027 1690 2851 986 
Q 2675 282 2253 -474 
Q 2048 -307 1741 -282 
Q 2195 384 2368 1091 
Q 2541 1798 2541 2848 
Q 2541 3898 2496 4838 
Q 2778 4768 4067 4768 
Q 5357 4768 5741 4838 
Q 5696 4461 5696 4051 
Q 5696 3642 5741 3238 
Q 5434 3302 4627 3302 
L 4627 2611 
Q 5542 2611 6042 2669 
L 6042 2150 
Q 5574 2214 4627 2214 
z
M 3027 4378 
L 3027 3712 
L 5235 3712 
L 5235 4378 
L 3027 4378 
z
M 5190 205 
L 5190 1146 
L 3738 1146 
L 3738 205 
L 5190 205 
z
" transform="scale(0.015625)"/>
       </defs>
       <use xlink:href="#STHeiti-51"/>
       <use xlink:href="#STHeiti-31" transform="translate(87.099991 0)"/>
       <use xlink:href="#STHeiti-20" transform="translate(142.499985 0)"/>
       <use xlink:href="#STHeiti-32" transform="translate(167.499969 0)"/>
       <use xlink:href="#STHeiti-30" transform="translate(222.899963 0)"/>
       <use xlink:href="#STHeiti-32" transform="translate(278.299957 0)"/>
       <use xlink:href="#STHeiti-36" transform="translate(333.699951 0)"/>
       <use xlink:href="#STHeiti-5b58" transform="translate(389.099945 0)"/>
       <use xlink:href="#STHeiti-8d27" transform="translate(489.09993 0)"/>
       <use xlink:href="#STHeiti-31" transform="translate(589.099915 0)"/>
       <use xlink:href="#STHeiti-31" transform="translate(644.499908 0)"/>
       <use xlink:href="#STHeiti-2e" transform="translate(699.899902 0)"/>
       <use xlink:href="#STHeiti-35" transform="translate(727.599899 0)"/>
       <use xlink:href="#STHeiti-30" transform="translate(782.999893 0)"/>
       <use xlink:href="#STHeiti-4ebf" transform="translate(838.399887 0)"/>
       <use xlink:href="#STHeiti-2f" transform="translate(938.399872 0)"/>
       <use xlink:href="#STHeiti-5e94" transform="translate(982.099869 0)"/>
       <use xlink:href="#STHeiti-6536" transform="translate(1082.099854 0)"/>
       <use xlink:href="#STHeiti-37" transform="translate(1182.099838 0)"/>
       <use xlink:href="#STHeiti-2e" transform="translate(1237.499832 0)"/>
       <use xlink:href="#STHeiti-36" transform="translate(1265.199829 0)"/>
       <use xlink:href="#STHeiti-35" transform="translate(1320.599823 0)"/>
       <use xlink:href="#STHeiti-4ebf" transform="translate(1375.999817 0)"/>
       <use xlink:href="#STHeiti-2f" transform="translate(1475.999802 0)"/>
       <use xlink:href="#STHeiti-7968" transform="translate(1519.699799 0)"/>
       <use xlink:href="#STHeiti-636e" transform="translate(1619.699783 0)"/>
       <use xlink:href="#STHeiti-30" transform="translate(1719.699768 0)"/>
       <use xlink:href="#STHeiti-2e" transform="translate(1775.099762 0)"/>
       <use xlink:href="#STHeiti-35" transform="translate(1802.799759 0)"/>
       <use xlink:href="#STHeiti-32" transform="translate(1858.199753 0)"/>
       <use xlink:href="#STHeiti-4ebf" transform="translate(1913.599747 0)"/>
      </g>
     </g>
    </g>
    <g id="xtick_5">
     <g id="line2d_9">
      <path d="M 443.423878 206.782923 
L 443.423878 7.2 
" clip-path="url(#p54b3b7f519)" style="fill: none; stroke: #b0b0b0; stroke-opacity: 0.3; stroke-width: 0.8; stroke-linecap: square"/>
     </g>
     <g id="line2d_10">
      <g>
       <use xlink:href="#m5aba576808" x="443.423878" y="206.782923" style="stroke: #000000; stroke-width: 0.8"/>
      </g>
     </g>
     <g id="text_5">
      <!-- FY2025存货8.73亿/应收8.40亿 -->
      <g transform="translate(324.898334 288.83336) rotate(-30) scale(0.1 -0.1)">
       <use xlink:href="#STHeiti-46"/>
       <use xlink:href="#STHeiti-59" transform="translate(48.499985 0)"/>
       <use xlink:href="#STHeiti-32" transform="translate(107.699982 0)"/>
       <use xlink:href="#STHeiti-30" transform="translate(163.099976 0)"/>
       <use xlink:href="#STHeiti-32" transform="translate(218.499969 0)"/>
       <use xlink:href="#STHeiti-35" transform="translate(273.899963 0)"/>
       <use xlink:href="#STHeiti-5b58" transform="translate(329.299957 0)"/>
       <use xlink:href="#STHeiti-8d27" transform="translate(429.299942 0)"/>
       <use xlink:href="#STHeiti-38" transform="translate(529.299927 0)"/>
       <use xlink:href="#STHeiti-2e" transform="translate(584.699921 0)"/>
       <use xlink:href="#STHeiti-37" transform="translate(612.399918 0)"/>
       <use xlink:href="#STHeiti-33" transform="translate(667.799911 0)"/>
       <use xlink:href="#STHeiti-4ebf" transform="translate(723.199905 0)"/>
       <use xlink:href="#STHeiti-2f" transform="translate(823.19989 0)"/>
       <use xlink:href="#STHeiti-5e94" transform="translate(866.899887 0)"/>
       <use xlink:href="#STHeiti-6536" transform="translate(966.899872 0)"/>
       <use xlink:href="#STHeiti-38" transform="translate(1066.899857 0)"/>
       <use xlink:href="#STHeiti-2e" transform="translate(1122.29985 0)"/>
       <use xlink:href="#STHeiti-34" transform="translate(1149.999847 0)"/>
       <use xlink:href="#STHeiti-30" transform="translate(1205.399841 0)"/>
       <use xlink:href="#STHeiti-4ebf" transform="translate(1260.799835 0)"/>
      </g>
     </g>
    </g>
    <g id="xtick_6">
     <g id="line2d_11">
      <path d="M 530.142012 206.782923 
L 530.142012 7.2 
" clip-path="url(#p54b3b7f519)" style="fill: none; stroke: #b0b0b0; stroke-opacity: 0.3; stroke-width: 0.8; stroke-linecap: square"/>
     </g>
     <g id="line2d_12">
      <g>
       <use xlink:href="#m5aba576808" x="530.142012" y="206.782923" style="stroke: #000000; stroke-width: 0.8"/>
      </g>
     </g>
     <g id="text_6">
      <!-- 博力威/宁德/德方纳米/湖南裕能/容百行业对标数据 -->
      <g transform="translate(332.467158 334.48558) rotate(-30) scale(0.1 -0.1)">
       <defs>
        <path id="STHeiti-535a" d="M 5325 4704 
L 4781 4493 
Q 4710 4710 4480 4960 
L 5018 5158 
Q 5114 4973 5325 4704 
z
M 3539 4070 
Q 2573 4064 2042 4019 
L 2042 4506 
Q 2413 4461 3539 4454 
Q 3533 4947 3488 5139 
Q 3744 5101 3949 5101 
Q 4154 5101 4154 5078 
Q 4154 5056 4102 5030 
Q 4051 5005 4022 4925 
Q 3994 4845 3994 4794 
L 3994 4454 
Q 5152 4454 5843 4506 
L 5843 4019 
Q 5190 4070 3994 4070 
L 3994 3674 
Q 5075 3674 5478 3725 
Q 5434 3411 5434 3078 
L 5434 2349 
Q 5434 2176 5472 1498 
L 4954 1498 
L 4954 1869 
L 3994 1869 
Q 4000 1568 4032 1382 
L 3494 1382 
Q 3526 1542 3539 1869 
L 2694 1869 
L 2694 1370 
L 2208 1370 
Q 2240 1690 2240 2234 
L 2240 3078 
Q 2240 3411 2195 3725 
Q 2566 3680 3539 3674 
L 3539 4070 
z
M 3539 2912 
L 3539 3328 
L 2694 3328 
L 2694 2912 
L 3539 2912 
z
M 3994 3328 
L 3994 2912 
L 4954 2912 
L 4954 3328 
L 3994 3328 
z
M 3539 2163 
L 3539 2598 
L 2694 2598 
L 2694 2163 
L 3539 2163 
z
M 3994 2598 
L 3994 2163 
L 4954 2163 
L 4954 2598 
L 3994 2598 
z
M 1478 2931 
L 1478 646 
Q 1478 -32 1517 -589 
L 941 -589 
Q 1005 96 1005 646 
L 1005 2938 
Q 538 2925 301 2886 
L 301 3392 
Q 486 3354 1005 3341 
L 1005 3738 
Q 1005 4787 941 5082 
Q 966 5062 1530 5062 
Q 1613 5062 1613 5017 
Q 1613 4973 1545 4899 
Q 1478 4826 1478 4691 
L 1478 3341 
Q 1862 3354 2074 3392 
L 2074 2886 
Q 1907 2918 1478 2931 
z
M 5146 730 
L 5146 -6 
Q 5146 -243 5088 -352 
Q 5030 -461 4848 -518 
Q 4666 -576 4218 -640 
Q 4198 -486 4019 -77 
Q 4205 -90 4381 -90 
Q 4557 -90 4621 -26 
Q 4685 38 4685 230 
L 4685 730 
L 2963 730 
Q 2234 730 1875 691 
L 1875 1165 
Q 2253 1114 2957 1114 
L 4678 1114 
Q 4666 1338 4640 1485 
Q 4877 1440 5056 1440 
Q 5235 1440 5235 1408 
Q 5235 1376 5200 1325 
Q 5165 1274 5152 1114 
Q 5594 1126 5990 1165 
L 5990 691 
Q 5651 717 5146 730 
z
M 3469 -64 
L 2944 -243 
Q 2810 128 2579 461 
L 3066 646 
Q 3296 314 3469 -64 
z
" transform="scale(0.015625)"/>
        <path id="STHeiti-529b" d="M 3270 3386 
Q 3066 1760 2554 989 
Q 2042 218 947 -499 
Q 678 -230 378 -109 
Q 1453 358 2032 1248 
Q 2611 2138 2682 3386 
Q 1248 3386 781 3328 
L 781 3923 
Q 1203 3872 2714 3866 
Q 2797 5082 2778 5267 
Q 3104 5139 3507 5114 
Q 3610 5107 3610 5062 
Q 3610 5018 3533 4966 
Q 3482 4928 3443 4742 
Q 3405 4557 3328 3866 
Q 5395 3866 5715 3923 
L 5389 582 
Q 5350 198 5241 6 
Q 5133 -186 4848 -304 
Q 4563 -422 3936 -538 
Q 3853 -122 3661 141 
Q 4154 134 4387 185 
Q 4621 237 4713 381 
Q 4806 525 4838 832 
L 5094 3386 
L 3270 3386 
z
" transform="scale(0.015625)"/>
        <path id="STHeiti-5a01" d="M 5536 4749 
L 5011 4474 
Q 4890 4819 4678 5075 
L 5184 5312 
Q 5363 4986 5536 4749 
z
M 3782 3814 
L 1389 3814 
Q 1402 3507 1402 3129 
Q 1402 2752 1376 2342 
L 2093 2342 
Q 2182 2624 2246 2880 
Q 1926 2874 1690 2842 
L 1690 3328 
Q 1946 3290 2630 3290 
Q 3315 3290 3565 3328 
L 3565 2842 
Q 3258 2880 2746 2880 
L 2547 2342 
Q 3315 2342 3622 2381 
Q 3430 1478 3162 986 
Q 3398 902 3744 749 
Q 3584 512 3494 262 
Q 3251 429 2906 608 
Q 2464 90 1466 -256 
Q 1344 19 1107 186 
Q 2080 403 2490 794 
Q 2125 954 1613 1107 
Q 1766 1414 1958 1933 
L 1350 1933 
Q 1235 346 717 -474 
Q 499 -352 179 -307 
Q 538 141 698 851 
Q 858 1562 858 2483 
Q 858 3405 800 4333 
Q 1658 4269 3750 4288 
Q 3686 5075 3674 5286 
Q 3878 5242 4141 5242 
L 4378 5254 
Q 4429 5254 4429 5225 
Q 4429 5197 4368 5142 
Q 4307 5088 4291 4915 
Q 4275 4742 4275 4288 
Q 5683 4307 5901 4333 
L 5901 3770 
Q 5645 3802 4282 3814 
Q 4339 2336 4595 1485 
Q 4915 2131 4986 3315 
Q 5402 3194 5626 3174 
Q 5683 3168 5683 3133 
Q 5683 3098 5613 3072 
Q 5517 3034 5389 2490 
Q 5171 1542 4800 954 
Q 5197 109 5389 109 
Q 5549 109 5632 723 
Q 5888 448 6080 403 
Q 5926 -70 5782 -307 
Q 5638 -544 5472 -544 
Q 5306 -544 5046 -297 
Q 4787 -51 4486 518 
Q 4128 83 3424 -499 
Q 3258 -288 2925 -186 
Q 3789 333 4275 960 
Q 3968 1766 3782 3814 
z
M 2400 1933 
L 2182 1344 
Q 2464 1254 2765 1139 
Q 2944 1440 3053 1933 
L 2400 1933 
z
" transform="scale(0.015625)"/>
        <path id="STHeiti-5b81" d="M 3155 4314 
Q 3059 4730 2848 5101 
L 3520 5267 
Q 3603 4864 3789 4314 
Q 5459 4326 5766 4365 
L 5766 3213 
L 5222 3213 
L 5222 3840 
L 1190 3840 
L 1190 3066 
L 659 3066 
L 659 4365 
Q 1082 4314 3155 4314 
z
M 3680 2234 
L 3680 -32 
Q 3680 -243 3603 -348 
Q 3526 -454 3299 -528 
Q 3072 -602 2554 -691 
Q 2515 -410 2195 6 
Q 2413 -38 2621 -38 
Q 2829 -38 2963 45 
Q 3098 128 3098 262 
L 3098 2234 
Q 1555 2234 653 2163 
L 653 2784 
Q 1555 2720 3276 2720 
Q 4998 2720 5888 2784 
L 5888 2163 
Q 4986 2227 3680 2234 
z
" transform="scale(0.015625)"/>
        <path id="STHeiti-5fb7" d="M 3981 4173 
Q 3923 3917 3898 3699 
Q 4928 3693 5632 3738 
Q 5606 3405 5606 2976 
Q 5606 2547 5632 2214 
Q 5088 2253 3981 2253 
Q 2874 2253 2330 2214 
Q 2355 2547 2355 2976 
Q 2355 3405 2330 3738 
Q 2886 3699 3488 3699 
Q 3552 4038 3571 4173 
Q 2618 4166 2150 4134 
L 2150 4582 
Q 2438 4550 3616 4544 
Q 3629 4730 3629 4899 
Q 3629 5069 3603 5197 
Q 3955 5094 4224 5094 
Q 4314 5094 4314 5059 
Q 4314 5024 4259 4989 
Q 4205 4954 4169 4870 
Q 4134 4787 4077 4544 
Q 5498 4544 5875 4570 
L 5875 4134 
Q 5427 4173 3981 4173 
z
M 4237 3341 
L 3699 3341 
L 3699 2611 
L 4237 2611 
L 4237 3341 
z
M 5184 3341 
L 4640 3341 
L 4640 2611 
L 5184 2611 
L 5184 3341 
z
M 3309 3341 
L 2765 3341 
L 2765 2611 
L 3309 2611 
L 3309 3341 
z
M 1427 5094 
Q 1754 4909 1971 4851 
Q 2061 4826 2061 4800 
Q 2061 4774 1984 4730 
Q 1933 4698 1421 4064 
Q 909 3430 666 3098 
Q 538 3386 314 3526 
Q 717 3866 1024 4298 
Q 1331 4730 1427 5094 
z
M 1498 2688 
L 1498 -563 
L 973 -563 
Q 1030 -115 1030 467 
L 1030 2016 
Q 838 1734 538 1370 
Q 429 1658 250 1850 
Q 672 2176 1059 2726 
Q 1446 3277 1619 3827 
Q 1850 3597 2086 3514 
Q 2157 3488 2157 3446 
Q 2157 3405 2074 3379 
Q 1946 3347 1498 2688 
z
M 5786 1901 
L 5786 1466 
Q 5318 1504 3891 1504 
Q 2464 1504 1997 1466 
L 1997 1914 
Q 2458 1875 3930 1875 
Q 5402 1875 5786 1901 
z
M 4486 589 
L 3955 397 
Q 3872 877 3642 1235 
L 4154 1382 
Q 4256 1030 4486 589 
z
M 6131 282 
L 5626 -109 
Q 5504 141 5251 470 
Q 4998 800 4813 954 
L 5222 1248 
Q 5600 768 6131 282 
z
M 5203 307 
Q 5082 -96 4880 -249 
Q 4678 -403 3923 -403 
Q 3450 -403 3232 -358 
Q 3014 -314 2944 -214 
Q 2874 -115 2874 102 
L 2874 768 
Q 2874 966 2854 1133 
Q 3014 1082 3366 1082 
Q 3418 1082 3418 1053 
Q 3418 1024 3379 976 
Q 3341 928 3325 851 
Q 3309 774 3309 704 
L 3309 218 
Q 3309 77 3417 35 
Q 3526 -6 3910 -6 
Q 4294 -6 4444 29 
Q 4595 64 4649 169 
Q 4704 275 4717 538 
Q 4870 333 5203 307 
z
M 2650 954 
Q 2349 109 2227 -365 
L 1690 -166 
Q 2061 371 2189 1037 
L 2650 954 
z
" transform="scale(0.015625)"/>
        <path id="STHeiti-65b9" d="M 3654 4378 
L 2982 4134 
Q 2874 4563 2630 5005 
L 3322 5222 
Q 3424 4800 3654 4378 
z
M 2854 2758 
L 4499 2758 
Q 4890 2758 5152 2790 
L 4947 454 
Q 4915 83 4825 -89 
Q 4736 -262 4493 -364 
Q 4250 -467 3699 -550 
Q 3642 -141 3283 224 
Q 3597 154 3814 154 
Q 4307 154 4358 563 
L 4557 2259 
L 2797 2259 
Q 2688 1363 2365 784 
Q 2042 205 1210 -525 
Q 1018 -198 589 -77 
Q 1043 147 1388 496 
Q 1734 845 1952 1286 
Q 2170 1728 2246 2227 
Q 2323 2726 2342 3571 
Q 1184 3565 461 3526 
L 461 4102 
Q 1370 4058 3226 4058 
Q 5082 4058 5958 4102 
L 5958 3526 
Q 5050 3571 2938 3571 
Q 2899 3123 2854 2758 
z
" transform="scale(0.015625)"/>
        <path id="STHeiti-7eb3" d="M 4333 2234 
Q 4154 1549 3814 992 
Q 3661 1114 3379 1222 
Q 3968 2125 4096 3654 
L 3309 3654 
L 3309 -582 
L 2752 -582 
Q 2810 -58 2810 454 
L 2810 3130 
Q 2810 3814 2758 4166 
Q 3059 4102 4122 4109 
Q 4128 4563 4077 5254 
Q 4422 5184 4787 5184 
Q 4864 5184 4864 5149 
Q 4864 5114 4809 5085 
Q 4755 5056 4707 4867 
Q 4659 4678 4652 4505 
Q 4646 4333 4627 4109 
Q 5619 4115 5901 4166 
Q 5862 3885 5862 3130 
L 5862 83 
Q 5862 -179 5804 -300 
Q 5747 -422 5536 -489 
Q 5325 -557 4832 -608 
Q 4794 -262 4525 32 
Q 4794 -6 4982 -6 
Q 5171 -6 5267 64 
Q 5363 134 5363 339 
L 5363 1395 
Q 5158 1274 4941 1088 
Q 4659 1709 4333 2234 
z
M 4595 3654 
Q 4563 3194 4454 2739 
Q 5107 1907 5363 1472 
L 5363 3654 
L 4595 3654 
z
M 1581 2797 
L 1005 2720 
Q 634 2675 518 2630 
Q 467 2950 378 3123 
Q 614 3296 931 3862 
Q 1248 4429 1498 5178 
Q 1824 4960 2080 4890 
Q 2176 4858 2176 4819 
Q 2176 4781 2093 4752 
Q 2010 4723 1795 4419 
Q 1581 4115 973 3110 
L 1818 3226 
Q 1952 3482 2170 3949 
Q 2458 3706 2714 3661 
Q 2790 3648 2790 3613 
Q 2790 3578 2729 3555 
Q 2669 3533 2579 3421 
Q 2490 3309 2112 2790 
L 1267 1626 
Q 1875 1651 2592 1728 
Q 2554 1581 2554 1459 
Q 2554 1338 2560 1267 
L 1376 1152 
Q 877 1114 614 1030 
Q 614 1312 499 1555 
Q 960 1741 1581 2797 
z
M 2554 602 
Q 2451 435 2451 205 
Q 2451 141 2458 83 
Q 1139 -64 570 -301 
Q 557 58 410 384 
Q 966 346 2554 602 
z
" transform="scale(0.015625)"/>
        <path id="STHeiti-7c73" d="M 2912 2522 
Q 2618 1690 2179 1104 
Q 1741 518 966 -77 
Q 768 211 461 378 
Q 1203 858 1648 1306 
Q 2093 1754 2541 2515 
Q 1472 2509 602 2451 
L 602 3027 
Q 1427 2970 2963 2963 
L 2963 3808 
Q 2963 4794 2912 5120 
Q 3027 5094 3533 5094 
Q 3629 5094 3629 5052 
Q 3629 5011 3555 4944 
Q 3482 4877 3482 4768 
L 3482 2963 
Q 5094 2963 5939 3027 
L 5939 2451 
Q 5203 2509 3898 2515 
Q 4262 1734 4713 1356 
Q 5165 979 5978 742 
Q 5696 390 5645 70 
Q 4826 390 4346 953 
Q 3866 1517 3565 2522 
L 3482 2522 
L 3482 646 
Q 3482 -70 3520 -538 
L 2925 -538 
Q 2963 58 2963 646 
L 2963 2522 
L 2912 2522 
z
M 4653 4736 
Q 5011 4544 5306 4461 
Q 5389 4435 5389 4403 
Q 5389 4371 5331 4339 
Q 5203 4262 4966 3952 
Q 4730 3642 4346 3091 
Q 4147 3245 3891 3309 
Q 4378 3878 4653 4736 
z
M 2432 3418 
L 1888 3149 
Q 1613 3872 1133 4429 
L 1677 4691 
Q 2022 4173 2432 3418 
z
" transform="scale(0.015625)"/>
        <path id="STHeiti-6e56" d="M 2522 3405 
Q 2099 3398 1773 3373 
L 1773 3840 
Q 2099 3814 2522 3808 
Q 2522 5075 2496 5242 
Q 2739 5190 3072 5190 
Q 3123 5190 3123 5161 
Q 3123 5133 3072 5088 
Q 3021 5043 2989 4966 
Q 2957 4890 2957 4736 
L 2957 3808 
Q 3482 3821 3782 3840 
L 3782 3373 
Q 3578 3392 2957 3405 
L 2957 2496 
Q 3411 2496 3526 2522 
Q 3507 2374 3507 2035 
L 3507 973 
Q 3507 557 3526 378 
L 3091 378 
L 3091 742 
L 2291 742 
L 2291 122 
L 1837 122 
Q 1869 570 1869 941 
L 1869 2035 
Q 1869 2349 1850 2522 
Q 1990 2496 2522 2496 
L 2522 3405 
z
M 3091 1146 
L 3091 2093 
L 2291 2093 
L 2291 1146 
L 3091 1146 
z
M 1939 4352 
L 1594 3898 
Q 1126 4333 634 4640 
L 934 5037 
Q 1504 4678 1939 4352 
z
M 5293 1562 
L 4467 1562 
Q 4352 378 3501 -672 
Q 3238 -499 2938 -416 
Q 3475 19 3760 662 
Q 4045 1306 4045 2067 
L 4045 4083 
Q 4045 4640 4026 4896 
Q 4320 4870 4896 4870 
Q 5472 4870 5760 4896 
Q 5741 4640 5741 4083 
L 5741 269 
Q 5741 -51 5686 -192 
Q 5632 -333 5446 -406 
Q 5261 -480 4800 -550 
Q 4749 -262 4582 70 
Q 4762 51 4934 51 
Q 5107 51 5200 144 
Q 5293 237 5293 499 
L 5293 1562 
z
M 4486 3379 
L 5293 3379 
L 5293 4461 
L 4486 4461 
L 4486 3379 
z
M 5293 2976 
L 4486 2976 
L 4486 1965 
L 5293 1965 
L 5293 2976 
z
M 1626 2867 
L 1344 2394 
Q 742 2886 365 3098 
L 621 3533 
Q 1056 3302 1626 2867 
z
M 1510 1754 
Q 1466 1638 1261 825 
Q 1056 13 986 -467 
Q 672 -243 371 -134 
Q 922 966 1018 2042 
Q 1216 1862 1510 1754 
z
" transform="scale(0.015625)"/>
        <path id="STHeiti-5357" d="M 3488 4550 
Q 4966 4550 5978 4614 
L 5978 4026 
Q 5107 4090 3430 4090 
L 3360 3456 
Q 5274 3456 5651 3533 
Q 5600 3174 5600 2586 
L 5600 134 
Q 5600 -160 5536 -288 
Q 5472 -416 5251 -486 
Q 5030 -557 4493 -621 
Q 4493 -480 4441 -285 
Q 4390 -90 4307 58 
Q 4518 26 4666 26 
Q 5069 26 5069 294 
L 5069 3014 
L 1414 3014 
L 1414 -538 
L 819 -538 
Q 883 -13 883 352 
L 883 2586 
Q 883 3174 832 3533 
Q 1306 3462 2848 3456 
Q 2880 3802 2886 4090 
Q 1299 4077 474 4026 
L 474 4614 
Q 1318 4557 2893 4550 
Q 2893 4915 2854 5210 
Q 3219 5139 3610 5139 
Q 3686 5139 3686 5107 
Q 3686 5075 3628 5040 
Q 3571 5005 3548 4912 
Q 3526 4819 3488 4550 
z
M 3386 1120 
Q 4134 1120 4653 1171 
L 4653 672 
Q 4205 710 3386 717 
Q 3386 96 3430 -384 
L 2842 -384 
Q 2886 96 2886 717 
Q 2131 710 1728 672 
L 1728 1171 
Q 2253 1126 2886 1120 
L 2886 1619 
Q 2278 1613 1843 1568 
L 1843 2054 
Q 2566 2003 3430 2003 
Q 3629 2502 3674 2982 
Q 4051 2778 4237 2752 
Q 4314 2739 4314 2713 
Q 4314 2688 4250 2656 
Q 4186 2624 4112 2499 
Q 4038 2374 3872 2016 
Q 4288 2022 4589 2054 
L 4589 1568 
Q 4218 1613 3386 1619 
L 3386 1120 
z
M 2957 2298 
L 2458 2118 
Q 2330 2458 2163 2720 
L 2675 2886 
Q 2752 2701 2957 2298 
z
" transform="scale(0.015625)"/>
        <path id="STHeiti-88d5" d="M 1907 4378 
L 1344 4192 
Q 1261 4672 1069 5082 
L 1619 5261 
Q 1747 4749 1907 4378 
z
M 3443 5069 
Q 3789 4774 3949 4730 
Q 4000 4717 4000 4697 
Q 4000 4678 3923 4646 
Q 3750 4589 2899 3501 
Q 2688 3686 2406 3795 
Q 3136 4358 3443 5069 
z
M 5882 4064 
L 5466 3616 
Q 5005 4250 4390 4666 
L 4736 5043 
Q 5350 4493 5882 4064 
z
M 3334 -96 
L 3334 -582 
L 2803 -582 
Q 2861 -154 2861 218 
L 2861 1818 
Q 2714 1702 2598 1638 
Q 2458 1818 2214 1952 
Q 3482 2720 3910 4083 
Q 4250 3904 4467 3885 
Q 4538 3878 4538 3856 
Q 4538 3834 4477 3808 
Q 4416 3782 4352 3718 
Q 4947 2509 6099 2298 
Q 5869 2054 5722 1715 
Q 5523 1786 5344 1901 
Q 5306 1562 5306 1408 
L 5306 218 
Q 5306 -198 5363 -531 
L 4826 -531 
L 4826 -96 
L 3334 -96 
z
M 2970 1907 
L 5312 1907 
Q 4512 2419 4154 3418 
Q 3731 2560 2970 1907 
z
M 4826 307 
L 4826 1459 
L 3334 1459 
L 3334 307 
L 4826 307 
z
M 1549 1600 
L 1549 -582 
L 1050 -582 
Q 1101 51 1101 474 
L 1101 2042 
Q 851 1696 525 1357 
Q 442 1664 288 1926 
Q 941 2381 1517 3571 
L 909 3571 
Q 672 3571 435 3507 
L 435 4083 
Q 736 4026 1318 4026 
Q 1901 4026 2221 4083 
Q 2016 3482 1549 2707 
L 1549 2221 
Q 1894 2560 2189 3046 
Q 2374 2816 2560 2694 
Q 2592 2669 2592 2649 
Q 2592 2630 2541 2618 
Q 2432 2598 2227 2409 
Q 2022 2221 1805 1920 
Q 2202 1613 2541 1261 
Q 2355 1120 2176 922 
Q 1875 1376 1549 1600 
z
" transform="scale(0.015625)"/>
        <path id="STHeiti-80fd" d="M 2842 3334 
L 1363 3206 
Q 922 3162 736 3078 
Q 685 3347 589 3622 
Q 749 3693 841 3760 
Q 934 3827 1100 4044 
Q 1267 4262 1436 4556 
Q 1606 4851 1709 5101 
Q 2035 4922 2198 4893 
Q 2362 4864 2362 4825 
Q 2362 4787 2237 4704 
Q 2112 4621 1901 4358 
L 1274 3622 
L 2662 3648 
Q 2464 4000 2278 4237 
L 2669 4442 
Q 3136 3827 3443 3315 
L 2982 3046 
Q 2950 3130 2842 3334 
z
M 4179 3994 
Q 4902 4288 5363 4666 
Q 5562 4371 5760 4237 
Q 5811 4205 5811 4173 
Q 5811 4141 5782 4131 
Q 5754 4122 5670 4122 
Q 5459 4122 4179 3610 
L 4179 3264 
Q 4179 3174 4220 3123 
Q 4262 3072 4406 3043 
Q 4550 3014 4816 3014 
Q 5082 3014 5190 3056 
Q 5299 3098 5356 3222 
Q 5414 3347 5459 3635 
Q 5632 3386 5965 3302 
Q 5850 2957 5747 2819 
Q 5645 2682 5465 2646 
Q 5286 2611 4784 2611 
Q 4282 2611 4064 2646 
Q 3846 2682 3782 2797 
Q 3718 2912 3718 3219 
L 3718 4339 
Q 3718 4787 3674 5043 
Q 3891 5005 4262 5005 
Q 4365 5005 4365 4966 
Q 4365 4928 4272 4857 
Q 4179 4787 4179 4666 
L 4179 3994 
z
M 1350 640 
L 1350 -474 
L 806 -474 
Q 858 38 858 531 
L 858 2240 
Q 858 2598 813 2829 
Q 1216 2778 1977 2778 
Q 2739 2778 3110 2829 
Q 3066 2598 3066 2240 
L 3066 19 
Q 3066 -179 3002 -278 
Q 2938 -378 2758 -432 
Q 2579 -486 2202 -518 
Q 2182 -224 1997 45 
Q 2208 6 2330 6 
Q 2573 6 2573 198 
L 2573 640 
L 1350 640 
z
M 1350 1875 
L 2573 1875 
L 2573 2374 
L 1350 2374 
L 1350 1875 
z
M 2573 1517 
L 1350 1517 
L 1350 1011 
L 2573 1011 
L 2573 1517 
z
M 4122 1312 
Q 4890 1632 5344 1984 
Q 5504 1741 5709 1555 
Q 5747 1523 5747 1491 
Q 5747 1459 5728 1452 
Q 5709 1446 5651 1446 
Q 5459 1446 4122 902 
L 4122 256 
Q 4122 166 4160 124 
Q 4198 83 4336 64 
Q 4474 45 4826 45 
Q 5178 45 5293 237 
Q 5408 429 5434 762 
Q 5638 467 5965 397 
Q 5850 0 5750 -153 
Q 5651 -307 5456 -355 
Q 5261 -403 4742 -403 
Q 4224 -403 4006 -368 
Q 3789 -333 3725 -214 
Q 3661 -96 3661 211 
L 3661 1664 
Q 3661 2086 3610 2368 
Q 3827 2330 4205 2330 
Q 4307 2330 4307 2291 
Q 4307 2253 4214 2182 
Q 4122 2112 4122 1990 
L 4122 1312 
z
" transform="scale(0.015625)"/>
        <path id="STHeiti-5bb9" d="M 3610 4589 
Q 5229 4595 5690 4640 
L 5690 3507 
L 5184 3507 
L 5184 4160 
L 1254 4160 
L 1254 3430 
L 742 3430 
L 742 4640 
Q 1350 4589 2982 4589 
Q 2912 4909 2797 5197 
L 3443 5293 
Q 3539 5005 3610 4589 
z
M 2253 3859 
Q 2477 3693 2643 3622 
Q 2720 3590 2720 3555 
Q 2720 3520 2621 3494 
Q 2522 3469 2330 3290 
Q 1920 2918 1210 2458 
Q 1069 2675 768 2842 
Q 1184 2982 1603 3267 
Q 2022 3552 2253 3859 
z
M 5549 2931 
L 5178 2509 
Q 4448 3130 3635 3475 
L 3936 3853 
Q 4794 3418 5549 2931 
z
M 3347 2938 
Q 3840 2445 4505 2185 
Q 5171 1926 6150 1850 
Q 5926 1574 5843 1229 
Q 5274 1363 4896 1498 
L 4896 134 
Q 4896 -218 4941 -550 
L 4352 -550 
L 4352 -90 
L 2054 -90 
L 2054 -646 
L 1485 -646 
Q 1523 -365 1523 45 
L 1523 1466 
Q 909 1139 627 1011 
Q 480 1286 237 1498 
Q 2106 1907 2931 3328 
Q 3277 3142 3443 3130 
Q 3539 3123 3539 3088 
Q 3539 3053 3347 2938 
z
M 4717 1568 
Q 3667 1971 3136 2682 
Q 2688 2125 1709 1568 
Q 2227 1555 3209 1555 
Q 4192 1555 4717 1568 
z
M 4352 326 
L 4352 1146 
L 2054 1146 
L 2054 326 
L 4352 326 
z
" transform="scale(0.015625)"/>
        <path id="STHeiti-767e" d="M 2861 4256 
Q 1478 4250 538 4186 
L 538 4768 
Q 1478 4704 3270 4704 
Q 5062 4704 5978 4768 
L 5978 4186 
Q 5165 4250 3488 4256 
Q 3360 3693 3213 3270 
Q 4333 3270 5235 3302 
Q 5184 3066 5184 2342 
L 5184 461 
Q 5184 -109 5235 -486 
L 4608 -486 
L 4608 6 
L 1875 6 
L 1875 -634 
L 1248 -634 
Q 1299 -333 1299 301 
L 1299 2368 
Q 1299 2938 1248 3315 
L 2714 3270 
Q 2829 3706 2861 4256 
z
M 4608 1926 
L 4608 2829 
L 1875 2829 
L 1875 1926 
L 4608 1926 
z
M 1875 1472 
L 1875 467 
L 4608 467 
L 4608 1472 
L 1875 1472 
z
" transform="scale(0.015625)"/>
        <path id="STHeiti-884c" d="M 1677 5184 
Q 1997 4915 2240 4813 
Q 2323 4774 2323 4736 
Q 2323 4698 2227 4678 
Q 2061 4640 1737 4246 
Q 1414 3853 800 3290 
Q 672 3501 410 3648 
Q 800 3917 1177 4409 
Q 1555 4902 1677 5184 
z
M 5658 4160 
Q 5184 4218 4329 4218 
Q 3475 4218 3002 4160 
L 3002 4749 
Q 3411 4698 4329 4698 
Q 5248 4698 5658 4749 
L 5658 4160 
z
M 1747 2560 
L 1747 -576 
L 1158 -576 
Q 1216 -51 1216 454 
L 1216 1894 
Q 1050 1702 653 1280 
Q 544 1523 282 1760 
Q 1203 2458 1824 3699 
Q 2042 3520 2362 3347 
Q 2445 3302 2445 3267 
Q 2445 3232 2371 3216 
Q 2298 3200 2134 3030 
Q 1971 2861 1747 2560 
z
M 4934 2566 
L 4934 128 
Q 4934 -141 4844 -278 
Q 4755 -416 4489 -486 
Q 4224 -557 3680 -582 
Q 3661 -301 3379 90 
Q 3661 51 3866 51 
Q 4378 51 4378 326 
L 4378 2573 
Q 3251 2573 2630 2515 
L 2630 3104 
Q 3181 3053 4355 3053 
Q 5530 3053 6067 3104 
L 6067 2515 
Q 5638 2560 4934 2566 
z
" transform="scale(0.015625)"/>
        <path id="STHeiti-4e1a" d="M 2310 301 
L 2310 4198 
Q 2310 4672 2259 5107 
Q 2509 5056 2918 5056 
Q 3002 5056 3002 5018 
Q 3002 4986 2925 4925 
Q 2848 4864 2848 4742 
L 2848 301 
L 3578 301 
L 3578 4186 
Q 3578 4589 3526 5094 
Q 3725 5050 4186 5050 
Q 4269 5050 4269 5014 
Q 4269 4979 4192 4915 
Q 4115 4851 4115 4730 
L 4115 301 
Q 5504 301 6035 358 
L 6035 -250 
Q 5658 -192 3325 -192 
Q 992 -192 499 -250 
L 499 358 
Q 1069 301 2310 301 
z
M 5114 4006 
Q 5472 3840 5830 3808 
Q 5901 3802 5901 3770 
Q 5901 3738 5833 3696 
Q 5766 3654 5654 3433 
Q 5542 3213 5478 2995 
Q 5222 2093 4941 1363 
Q 4691 1517 4390 1485 
Q 4851 2419 5114 4006 
z
M 2048 1523 
L 1389 1306 
Q 1158 2650 614 3603 
L 1203 3853 
Q 1574 2662 2048 1523 
z
" transform="scale(0.015625)"/>
        <path id="STHeiti-5bf9" d="M 5338 3846 
Q 5894 3846 6125 3891 
L 6125 3341 
Q 5734 3379 5338 3379 
L 5338 38 
Q 5338 -294 5066 -432 
Q 4794 -570 4237 -602 
Q 4166 -294 3981 26 
Q 4160 13 4352 13 
Q 4544 13 4665 61 
Q 4787 109 4787 275 
L 4787 3379 
L 3878 3379 
Q 3373 3379 3040 3347 
L 3040 3891 
Q 3322 3846 3878 3846 
L 4787 3846 
Q 4787 5030 4762 5254 
Q 5056 5190 5414 5190 
Q 5517 5190 5517 5152 
Q 5517 5114 5453 5072 
Q 5389 5030 5363 4995 
Q 5338 4960 5338 4877 
L 5338 3846 
z
M 1965 1203 
Q 1434 250 768 -339 
Q 576 -90 262 64 
Q 1133 704 1638 1747 
Q 1069 2662 749 2957 
L 1178 3238 
Q 1485 2848 1882 2310 
Q 2157 3053 2278 3968 
L 1210 3968 
Q 806 3968 467 3942 
L 467 4467 
Q 826 4429 1648 4429 
Q 2470 4429 2938 4467 
Q 2765 3085 2240 1792 
Q 2829 922 3040 390 
L 2509 96 
Q 2336 563 1965 1203 
z
M 3283 2470 
L 3757 2669 
Q 4045 2131 4262 1427 
L 3757 1229 
Q 3590 1888 3283 2470 
z
" transform="scale(0.015625)"/>
        <path id="STHeiti-6807" d="M 1254 2586 
Q 947 1370 602 794 
Q 435 1126 218 1370 
Q 800 2016 1235 3360 
Q 685 3354 326 3309 
L 326 3859 
Q 621 3814 1254 3808 
Q 1254 4717 1184 5229 
Q 1389 5203 1536 5203 
L 1792 5216 
Q 1882 5216 1882 5168 
Q 1882 5120 1805 5053 
Q 1728 4986 1728 4883 
L 1728 3808 
Q 2317 3821 2586 3859 
L 2586 3309 
Q 2214 3354 1728 3354 
L 1728 659 
Q 1728 160 1792 -544 
L 1190 -544 
Q 1254 160 1254 659 
L 1254 2586 
z
M 5587 4256 
Q 5158 4301 4243 4301 
Q 3328 4301 2893 4256 
L 2893 4838 
Q 3347 4794 4252 4794 
Q 5158 4794 5587 4838 
L 5587 4256 
z
M 4448 2790 
L 4448 -6 
Q 4448 -186 4390 -285 
Q 4333 -384 4144 -464 
Q 3955 -544 3539 -627 
Q 3488 -282 3219 -6 
Q 3462 -51 3616 -51 
Q 3770 -51 3843 13 
Q 3917 77 3917 230 
L 3917 2790 
Q 3059 2778 2611 2746 
L 2611 3315 
Q 3181 3270 4297 3270 
Q 5414 3270 5946 3315 
L 5946 2746 
Q 5453 2790 4448 2790 
z
M 2675 1690 
L 2208 1453 
Q 2042 1965 1766 2349 
L 2208 2579 
Q 2451 2093 2675 1690 
z
M 6176 640 
L 5670 282 
Q 5274 1203 4755 1850 
L 5171 2138 
Q 5715 1376 6176 640 
z
M 3027 2080 
Q 3405 1875 3629 1843 
Q 3706 1830 3706 1779 
Q 3706 1728 3613 1705 
Q 3520 1683 3363 1401 
Q 3206 1120 2682 -58 
Q 2502 90 2099 160 
Q 2861 1082 3027 2080 
z
" transform="scale(0.015625)"/>
        <path id="STHeiti-6570" d="M 4640 480 
Q 4173 -51 3194 -467 
Q 3059 -237 2803 -26 
Q 3238 70 3673 323 
Q 4109 576 4365 890 
Q 3994 1549 3962 2835 
Q 3744 2458 3520 2176 
Q 3366 2419 3206 2522 
Q 3584 3040 3837 3747 
Q 4090 4454 4147 5171 
Q 4486 5062 4800 5037 
Q 4877 5030 4877 4988 
Q 4877 4947 4781 4896 
Q 4704 4858 4480 4128 
L 5216 4128 
Q 5747 4128 6003 4179 
L 6003 3661 
Q 5850 3680 5562 3699 
Q 5440 1773 4934 896 
Q 5254 518 6112 250 
Q 5856 6 5754 -365 
Q 4902 141 4640 480 
z
M 4627 1363 
Q 5018 2253 5088 3706 
L 4352 3706 
Q 4237 3328 3981 2874 
L 4384 2886 
Q 4384 1907 4627 1363 
z
M 1549 3526 
Q 1222 3520 589 3488 
L 589 3942 
Q 1158 3898 1850 3898 
L 1850 4499 
Q 1850 4800 1786 5165 
Q 2042 5139 2362 5139 
Q 2458 5139 2458 5094 
Q 2458 5050 2406 5030 
Q 2355 5011 2336 4976 
Q 2317 4941 2317 4845 
L 2317 3898 
Q 2758 3904 3507 3942 
L 3507 3488 
Q 2810 3526 2317 3533 
Q 2317 2970 2362 2515 
L 1805 2515 
Q 1850 3034 1850 3456 
Q 1632 3014 1401 2745 
Q 1171 2477 755 2189 
Q 608 2406 282 2573 
Q 1030 2816 1549 3526 
z
M 2861 4922 
Q 3155 4826 3386 4794 
Q 3462 4781 3462 4755 
Q 3462 4730 3388 4701 
Q 3315 4672 3228 4521 
Q 3142 4371 3014 4122 
Q 2835 4166 2560 4186 
Q 2746 4461 2861 4922 
z
M 1510 4230 
L 973 4154 
Q 966 4461 883 4806 
L 1389 4870 
Q 1459 4595 1510 4230 
z
M 3360 2790 
L 3046 2477 
Q 2765 2816 2464 3078 
L 2790 3328 
Q 3034 3117 3360 2790 
z
M 2899 755 
Q 3168 666 3450 525 
Q 3251 314 3168 128 
Q 2886 288 2637 390 
Q 2394 128 1984 -51 
Q 1574 -230 781 -410 
Q 627 -115 346 109 
Q 1619 134 2157 557 
Q 1709 691 1030 781 
Q 1248 1165 1408 1555 
Q 800 1549 531 1504 
L 531 1965 
Q 858 1939 1536 1926 
Q 1600 2118 1696 2458 
Q 1946 2355 2214 2336 
Q 2342 2323 2342 2294 
Q 2342 2266 2243 2198 
Q 2144 2131 2035 1926 
L 2899 1926 
Q 3162 1926 3341 1971 
Q 3123 1158 2899 755 
z
M 1862 1555 
L 1626 1043 
Q 2118 966 2470 883 
Q 2662 1165 2726 1555 
L 1862 1555 
z
" transform="scale(0.015625)"/>
       </defs>
       <use xlink:href="#STHeiti-535a"/>
       <use xlink:href="#STHeiti-529b" transform="translate(99.999985 0)"/>
       <use xlink:href="#STHeiti-5a01" transform="translate(199.999969 0)"/>
       <use xlink:href="#STHeiti-2f" transform="translate(299.999954 0)"/>
       <use xlink:href="#STHeiti-5b81" transform="translate(343.699951 0)"/>
       <use xlink:href="#STHeiti-5fb7" transform="translate(443.699936 0)"/>
       <use xlink:href="#STHeiti-2f" transform="translate(543.699921 0)"/>
       <use xlink:href="#STHeiti-5fb7" transform="translate(587.399918 0)"/>
       <use xlink:href="#STHeiti-65b9" transform="translate(687.399902 0)"/>
       <use xlink:href="#STHeiti-7eb3" transform="translate(787.399887 0)"/>
       <use xlink:href="#STHeiti-7c73" transform="translate(887.399872 0)"/>
       <use xlink:href="#STHeiti-2f" transform="translate(987.399857 0)"/>
       <use xlink:href="#STHeiti-6e56" transform="translate(1031.099854 0)"/>
       <use xlink:href="#STHeiti-5357" transform="translate(1131.099838 0)"/>
       <use xlink:href="#STHeiti-88d5" transform="translate(1231.099823 0)"/>
       <use xlink:href="#STHeiti-80fd" transform="translate(1331.099808 0)"/>
       <use xlink:href="#STHeiti-2f" transform="translate(1431.099792 0)"/>
       <use xlink:href="#STHeiti-5bb9" transform="translate(1474.799789 0)"/>
       <use xlink:href="#STHeiti-767e" transform="translate(1574.799774 0)"/>
       <use xlink:href="#STHeiti-884c" transform="translate(1674.799759 0)"/>
       <use xlink:href="#STHeiti-4e1a" transform="translate(1774.799744 0)"/>
       <use xlink:href="#STHeiti-5bf9" transform="translate(1874.799728 0)"/>
       <use xlink:href="#STHeiti-6807" transform="translate(1974.799713 0)"/>
       <use xlink:href="#STHeiti-6570" transform="translate(2074.799698 0)"/>
       <use xlink:href="#STHeiti-636e" transform="translate(2174.799683 0)"/>
      </g>
     </g>
    </g>
    <g id="xtick_7">
     <g id="line2d_13">
      <path d="M 616.860145 206.782923 
L 616.860145 7.2 
" clip-path="url(#p54b3b7f519)" style="fill: none; stroke: #b0b0b0; stroke-opacity: 0.3; stroke-width: 0.8; stroke-linecap: square"/>
     </g>
     <g id="line2d_14">
      <g>
       <use xlink:href="#m5aba576808" x="616.860145" y="206.782923" style="stroke: #000000; stroke-width: 0.8"/>
      </g>
     </g>
     <g id="text_7">
      <!-- 天能动力/超威动力行业对标数据 -->
      <g transform="translate(491.161475 292.8611) rotate(-30) scale(0.1 -0.1)">
       <defs>
        <path id="STHeiti-5929" d="M 2893 4218 
Q 1722 4211 1011 4160 
L 1011 4749 
Q 1741 4704 3152 4704 
Q 4563 4704 5338 4762 
L 5338 4160 
Q 4640 4211 3501 4218 
Q 3482 3443 3418 2886 
Q 4922 2886 5792 2944 
L 5792 2317 
Q 4966 2368 3603 2374 
Q 3904 1421 4547 845 
Q 5190 269 6042 198 
Q 5664 -90 5536 -474 
Q 3571 250 3290 2125 
Q 3053 1075 2464 432 
Q 1875 -211 800 -589 
Q 653 -320 358 -83 
Q 1466 250 2016 816 
Q 2566 1382 2752 2374 
Q 1421 2368 608 2317 
L 608 2931 
Q 1600 2886 2829 2886 
Q 2893 3539 2893 4218 
z
" transform="scale(0.015625)"/>
        <path id="STHeiti-52a8" d="M 3994 3917 
Q 4006 4192 4006 4569 
Q 4006 4947 3955 5222 
Q 4288 5133 4627 5133 
Q 4736 5133 4736 5101 
Q 4736 5069 4672 4998 
Q 4608 4928 4566 4707 
Q 4525 4486 4493 3923 
Q 5523 3955 5939 4026 
Q 5856 3706 5837 3245 
L 5728 806 
Q 5702 294 5616 51 
Q 5530 -192 5312 -304 
Q 5094 -416 4614 -493 
Q 4550 -109 4262 205 
Q 4486 186 4713 186 
Q 4941 186 5062 278 
Q 5184 371 5197 627 
L 5363 3501 
L 4467 3501 
Q 4378 1638 4058 896 
Q 3738 154 2784 -557 
Q 2586 -294 2163 -173 
Q 3187 346 3523 954 
Q 3859 1562 3968 3494 
Q 3392 3475 2874 3411 
L 2874 3962 
Q 3245 3917 3994 3917 
z
M 2803 3994 
Q 2426 4045 1712 4045 
Q 998 4045 698 3994 
L 698 4557 
Q 986 4499 1712 4499 
Q 2438 4499 2803 4550 
L 2803 3994 
z
M 1350 2682 
Q 614 2662 358 2630 
L 358 3155 
Q 749 3098 1593 3098 
Q 2438 3098 2957 3149 
L 2957 2630 
Q 2470 2675 1907 2682 
Q 1363 1242 1126 890 
L 2445 1197 
Q 2266 1632 2138 1830 
L 2592 2042 
Q 2758 1581 3194 723 
L 2682 480 
Q 2656 602 2579 826 
Q 1030 448 659 141 
Q 570 461 384 768 
Q 595 851 723 1049 
Q 851 1248 1059 1789 
Q 1267 2330 1350 2682 
z
" transform="scale(0.015625)"/>
        <path id="STHeiti-8d85" d="M 2246 1850 
Q 2797 1856 2970 1888 
L 2970 1434 
Q 2797 1466 2246 1472 
L 2246 339 
Q 2906 70 4064 70 
Q 4877 70 6029 198 
Q 5875 -102 5824 -442 
Q 5107 -467 4307 -467 
Q 3507 -467 2896 -361 
Q 2285 -256 1837 61 
Q 1389 378 1146 730 
Q 966 83 755 -416 
Q 544 -198 320 -70 
Q 845 736 832 2125 
Q 1178 2042 1389 2042 
Q 1459 2042 1459 2019 
Q 1459 1997 1417 1958 
Q 1376 1920 1344 1785 
Q 1312 1651 1254 1280 
Q 1440 870 1766 608 
L 1766 2669 
Q 1050 2669 595 2618 
L 595 3110 
Q 1018 3059 1651 3059 
L 1651 3866 
Q 1190 3859 742 3808 
L 742 4326 
Q 1037 4282 1651 4275 
Q 1651 4717 1581 5120 
Q 1677 5094 2221 5094 
Q 2298 5094 2298 5068 
Q 2298 5043 2246 5011 
Q 2131 4934 2131 4768 
L 2131 4275 
Q 2643 4282 2893 4326 
L 2893 3808 
Q 2650 3853 2131 3859 
L 2131 3059 
Q 2739 3066 3053 3110 
L 3053 2618 
Q 2758 2656 2246 2662 
L 2246 1850 
z
M 3974 4307 
Q 3520 4301 3213 4256 
L 3213 4787 
Q 3437 4736 4445 4736 
Q 5453 4736 5773 4787 
Q 5619 3354 5523 3021 
Q 5427 2688 4653 2618 
Q 4621 2912 4429 3155 
Q 4602 3136 4733 3136 
Q 4864 3136 4937 3168 
Q 5011 3200 5040 3261 
Q 5069 3322 5126 3667 
Q 5184 4013 5203 4314 
L 4442 4314 
Q 4422 3834 4256 3446 
Q 4090 3059 3661 2566 
Q 3443 2752 3187 2835 
Q 3949 3341 3974 4307 
z
M 3872 762 
L 3872 314 
L 3360 314 
Q 3405 602 3405 954 
L 3405 1862 
Q 3405 2278 3360 2477 
Q 3642 2419 4538 2419 
Q 5434 2419 5690 2477 
Q 5645 2266 5645 1862 
L 5645 1018 
Q 5645 666 5690 390 
L 5171 390 
L 5171 762 
L 3872 762 
z
M 5171 1146 
L 5171 2042 
L 3872 2042 
L 3872 1146 
L 5171 1146 
z
" transform="scale(0.015625)"/>
       </defs>
       <use xlink:href="#STHeiti-5929"/>
       <use xlink:href="#STHeiti-80fd" transform="translate(99.999985 0)"/>
       <use xlink:href="#STHeiti-52a8" transform="translate(199.999969 0)"/>
       <use xlink:href="#STHeiti-529b" transform="translate(299.999954 0)"/>
       <use xlink:href="#STHeiti-2f" transform="translate(399.999939 0)"/>
       <use xlink:href="#STHeiti-8d85" transform="translate(443.699936 0)"/>
       <use xlink:href="#STHeiti-5a01" transform="translate(543.699921 0)"/>
       <use xlink:href="#STHeiti-52a8" transform="translate(643.699905 0)"/>
       <use xlink:href="#STHeiti-529b" transform="translate(743.69989 0)"/>
       <use xlink:href="#STHeiti-884c" transform="translate(843.699875 0)"/>
       <use xlink:href="#STHeiti-4e1a" transform="translate(943.69986 0)"/>
       <use xlink:href="#STHeiti-5bf9" transform="translate(1043.699844 0)"/>
       <use xlink:href="#STHeiti-6807" transform="translate(1143.699829 0)"/>
       <use xlink:href="#STHeiti-6570" transform="translate(1243.699814 0)"/>
       <use xlink:href="#STHeiti-636e" transform="translate(1343.699799 0)"/>
      </g>
     </g>
    </g>
    <g id="xtick_8">
     <g id="line2d_15">
      <path d="M 703.578279 206.782923 
L 703.578279 7.2 
" clip-path="url(#p54b3b7f519)" style="fill: none; stroke: #b0b0b0; stroke-opacity: 0.3; stroke-width: 0.8; stroke-linecap: square"/>
     </g>
     <g id="line2d_16">
      <g>
       <use xlink:href="#m5aba576808" x="703.578279" y="206.782923" style="stroke: #000000; stroke-width: 0.8"/>
      </g>
     </g>
     <g id="text_8">
      <!-- FY2020-2024经营CF -->
      <g transform="translate(623.757304 266.3736) rotate(-30) scale(0.1 -0.1)">
       <use xlink:href="#STHeiti-46"/>
       <use xlink:href="#STHeiti-59" transform="translate(48.499985 0)"/>
       <use xlink:href="#STHeiti-32" transform="translate(107.699982 0)"/>
       <use xlink:href="#STHeiti-30" transform="translate(163.099976 0)"/>
       <use xlink:href="#STHeiti-32" transform="translate(218.499969 0)"/>
       <use xlink:href="#STHeiti-30" transform="translate(273.899963 0)"/>
       <use xlink:href="#STHeiti-2d" transform="translate(329.299957 0)"/>
       <use xlink:href="#STHeiti-32" transform="translate(362.499954 0)"/>
       <use xlink:href="#STHeiti-30" transform="translate(417.899948 0)"/>
       <use xlink:href="#STHeiti-32" transform="translate(473.299942 0)"/>
       <use xlink:href="#STHeiti-34" transform="translate(528.699936 0)"/>
       <use xlink:href="#STHeiti-7ecf" transform="translate(584.09993 0)"/>
       <use xlink:href="#STHeiti-8425" transform="translate(684.099915 0)"/>
       <use xlink:href="#STHeiti-43" transform="translate(784.099899 0)"/>
       <use xlink:href="#STHeiti-46" transform="translate(865.399887 0)"/>
      </g>
     </g>
    </g>
   </g>
   <g id="matplotlib.axis_2">
    <g id="ytick_1">
     <g id="line2d_17">
      <path d="M 79.207717 197.711868 
L 703.578279 197.711868 
" clip-path="url(#p54b3b7f519)" style="fill: none; stroke: #b0b0b0; stroke-opacity: 0.3; stroke-width: 0.8; stroke-linecap: square"/>
     </g>
     <g id="line2d_18">
      <defs>
       <path id="mf56dcb4213" d="M 0 0 
L -3.5 0 
" style="stroke: #000000; stroke-width: 0.8"/>
      </defs>
      <g>
       <use xlink:href="#mf56dcb4213" x="79.207717" y="197.711868" style="stroke: #000000; stroke-width: 0.8"/>
      </g>
     </g>
     <g id="text_9">
      <!-- 0 -->
      <g transform="translate(66.667092 201.691555) scale(0.1 -0.1)">
       <use xlink:href="#STHeiti-30"/>
      </g>
     </g>
    </g>
    <g id="ytick_2">
     <g id="line2d_19">
      <path d="M 79.207717 175.323266 
L 703.578279 175.323266 
" clip-path="url(#p54b3b7f519)" style="fill: none; stroke: #b0b0b0; stroke-opacity: 0.3; stroke-width: 0.8; stroke-linecap: square"/>
     </g>
     <g id="line2d_20">
      <g>
       <use xlink:href="#mf56dcb4213" x="79.207717" y="175.323266" style="stroke: #000000; stroke-width: 0.8"/>
      </g>
     </g>
     <g id="text_10">
      <!-- 25000 -->
      <g transform="translate(44.504592 179.302953) scale(0.1 -0.1)">
       <use xlink:href="#STHeiti-32"/>
       <use xlink:href="#STHeiti-35" transform="translate(55.399994 0)"/>
       <use xlink:href="#STHeiti-30" transform="translate(110.799988 0)"/>
       <use xlink:href="#STHeiti-30" transform="translate(166.199982 0)"/>
       <use xlink:href="#STHeiti-30" transform="translate(221.599976 0)"/>
      </g>
     </g>
    </g>
    <g id="ytick_3">
     <g id="line2d_21">
      <path d="M 79.207717 152.934664 
L 703.578279 152.934664 
" clip-path="url(#p54b3b7f519)" style="fill: none; stroke: #b0b0b0; stroke-opacity: 0.3; stroke-width: 0.8; stroke-linecap: square"/>
     </g>
     <g id="line2d_22">
      <g>
       <use xlink:href="#mf56dcb4213" x="79.207717" y="152.934664" style="stroke: #000000; stroke-width: 0.8"/>
      </g>
     </g>
     <g id="text_11">
      <!-- 50000 -->
      <g transform="translate(44.504592 156.914351) scale(0.1 -0.1)">
       <use xlink:href="#STHeiti-35"/>
       <use xlink:href="#STHeiti-30" transform="translate(55.399994 0)"/>
       <use xlink:href="#STHeiti-30" transform="translate(110.799988 0)"/>
       <use xlink:href="#STHeiti-30" transform="translate(166.199982 0)"/>
       <use xlink:href="#STHeiti-30" transform="translate(221.599976 0)"/>
      </g>
     </g>
    </g>
    <g id="ytick_4">
     <g id="line2d_23">
      <path d="M 79.207717 130.546062 
L 703.578279 130.546062 
" clip-path="url(#p54b3b7f519)" style="fill: none; stroke: #b0b0b0; stroke-opacity: 0.3; stroke-width: 0.8; stroke-linecap: square"/>
     </g>
     <g id="line2d_24">
      <g>
       <use xlink:href="#mf56dcb4213" x="79.207717" y="130.546062" style="stroke: #000000; stroke-width: 0.8"/>
      </g>
     </g>
     <g id="text_12">
      <!-- 75000 -->
      <g transform="translate(44.504592 134.525749) scale(0.1 -0.1)">
       <use xlink:href="#STHeiti-37"/>
       <use xlink:href="#STHeiti-35" transform="translate(55.399994 0)"/>
       <use xlink:href="#STHeiti-30" transform="translate(110.799988 0)"/>
       <use xlink:href="#STHeiti-30" transform="translate(166.199982 0)"/>
       <use xlink:href="#STHeiti-30" transform="translate(221.599976 0)"/>
      </g>
     </g>
    </g>
    <g id="ytick_5">
     <g id="line2d_25">
      <path d="M 79.207717 108.15746 
L 703.578279 108.15746 
" clip-path="url(#p54b3b7f519)" style="fill: none; stroke: #b0b0b0; stroke-opacity: 0.3; stroke-width: 0.8; stroke-linecap: square"/>
     </g>
     <g id="line2d_26">
      <g>
       <use xlink:href="#mf56dcb4213" x="79.207717" y="108.15746" style="stroke: #000000; stroke-width: 0.8"/>
      </g>
     </g>
     <g id="text_13">
      <!-- 100000 -->
      <g transform="translate(38.963967 112.137147) scale(0.1 -0.1)">
       <use xlink:href="#STHeiti-31"/>
       <use xlink:href="#STHeiti-30" transform="translate(55.399994 0)"/>
       <use xlink:href="#STHeiti-30" transform="translate(110.799988 0)"/>
       <use xlink:href="#STHeiti-30" transform="translate(166.199982 0)"/>
       <use xlink:href="#STHeiti-30" transform="translate(221.599976 0)"/>
       <use xlink:href="#STHeiti-30" transform="translate(276.999969 0)"/>
      </g>
     </g>
    </g>
    <g id="ytick_6">
     <g id="line2d_27">
      <path d="M 79.207717 85.768858 
L 703.578279 85.768858 
" clip-path="url(#p54b3b7f519)" style="fill: none; stroke: #b0b0b0; stroke-opacity: 0.3; stroke-width: 0.8; stroke-linecap: square"/>
     </g>
     <g id="line2d_28">
      <g>
       <use xlink:href="#mf56dcb4213" x="79.207717" y="85.768858" style="stroke: #000000; stroke-width: 0.8"/>
      </g>
     </g>
     <g id="text_14">
      <!-- 125000 -->
      <g transform="translate(38.963967 89.748546) scale(0.1 -0.1)">
       <use xlink:href="#STHeiti-31"/>
       <use xlink:href="#STHeiti-32" transform="translate(55.399994 0)"/>
       <use xlink:href="#STHeiti-35" transform="translate(110.799988 0)"/>
       <use xlink:href="#STHeiti-30" transform="translate(166.199982 0)"/>
       <use xlink:href="#STHeiti-30" transform="translate(221.599976 0)"/>
       <use xlink:href="#STHeiti-30" transform="translate(276.999969 0)"/>
      </g>
     </g>
    </g>
    <g id="ytick_7">
     <g id="line2d_29">
      <path d="M 79.207717 63.380256 
L 703.578279 63.380256 
" clip-path="url(#p54b3b7f519)" style="fill: none; stroke: #b0b0b0; stroke-opacity: 0.3; stroke-width: 0.8; stroke-linecap: square"/>
     </g>
     <g id="line2d_30">
      <g>
       <use xlink:href="#mf56dcb4213" x="79.207717" y="63.380256" style="stroke: #000000; stroke-width: 0.8"/>
      </g>
     </g>
     <g id="text_15">
      <!-- 150000 -->
      <g transform="translate(38.963967 67.359944) scale(0.1 -0.1)">
       <use xlink:href="#STHeiti-31"/>
       <use xlink:href="#STHeiti-35" transform="translate(55.399994 0)"/>
       <use xlink:href="#STHeiti-30" transform="translate(110.799988 0)"/>
       <use xlink:href="#STHeiti-30" transform="translate(166.199982 0)"/>
       <use xlink:href="#STHeiti-30" transform="translate(221.599976 0)"/>
       <use xlink:href="#STHeiti-30" transform="translate(276.999969 0)"/>
      </g>
     </g>
    </g>
    <g id="ytick_8">
     <g id="line2d_31">
      <path d="M 79.207717 40.991654 
L 703.578279 40.991654 
" clip-path="url(#p54b3b7f519)" style="fill: none; stroke: #b0b0b0; stroke-opacity: 0.3; stroke-width: 0.8; stroke-linecap: square"/>
     </g>
     <g id="line2d_32">
      <g>
       <use xlink:href="#mf56dcb4213" x="79.207717" y="40.991654" style="stroke: #000000; stroke-width: 0.8"/>
      </g>
     </g>
     <g id="text_16">
      <!-- 175000 -->
      <g transform="translate(38.963967 44.971342) scale(0.1 -0.1)">
       <use xlink:href="#STHeiti-31"/>
       <use xlink:href="#STHeiti-37" transform="translate(55.399994 0)"/>
       <use xlink:href="#STHeiti-35" transform="translate(110.799988 0)"/>
       <use xlink:href="#STHeiti-30" transform="translate(166.199982 0)"/>
       <use xlink:href="#STHeiti-30" transform="translate(221.599976 0)"/>
       <use xlink:href="#STHeiti-30" transform="translate(276.999969 0)"/>
      </g>
     </g>
    </g>
    <g id="ytick_9">
     <g id="line2d_33">
      <path d="M 79.207717 18.603052 
L 703.578279 18.603052 
" clip-path="url(#p54b3b7f519)" style="fill: none; stroke: #b0b0b0; stroke-opacity: 0.3; stroke-width: 0.8; stroke-linecap: square"/>
     </g>
     <g id="line2d_34">
      <g>
       <use xlink:href="#mf56dcb4213" x="79.207717" y="18.603052" style="stroke: #000000; stroke-width: 0.8"/>
      </g>
     </g>
     <g id="text_17">
      <!-- 200000 -->
      <g transform="translate(38.963967 22.58274) scale(0.1 -0.1)">
       <use xlink:href="#STHeiti-32"/>
       <use xlink:href="#STHeiti-30" transform="translate(55.399994 0)"/>
       <use xlink:href="#STHeiti-30" transform="translate(110.799988 0)"/>
       <use xlink:href="#STHeiti-30" transform="translate(166.199982 0)"/>
       <use xlink:href="#STHeiti-30" transform="translate(221.599976 0)"/>
       <use xlink:href="#STHeiti-30" transform="translate(276.999969 0)"/>
      </g>
     </g>
    </g>
   </g>
   <g id="line2d_35">
    <path d="M 96.551344 195.898391 
L 183.269478 16.271951 
L 269.987611 197.710972 
L 356.705745 197.710972 
L 443.423878 195.898391 
" clip-path="url(#p54b3b7f519)" style="fill: none; stroke: #1a365d; stroke-width: 2; stroke-linecap: square"/>
    <defs>
     <path id="m1c23d03786" d="M 0 3 
C 0.795609 3 1.55874 2.683901 2.12132 2.12132 
C 2.683901 1.55874 3 0.795609 3 0 
C 3 -0.795609 2.683901 -1.55874 2.12132 -2.12132 
C 1.55874 -2.683901 0.795609 -3 0 -3 
C -0.795609 -3 -1.55874 -2.683901 -2.12132 -2.12132 
C -2.683901 -1.55874 -3 -0.795609 -3 0 
C -3 0.795609 -2.683901 1.55874 -2.12132 2.12132 
C -1.55874 2.683901 -0.795609 3 0 3 
z
" style="stroke: #1a365d"/>
    </defs>
    <g clip-path="url(#p54b3b7f519)">
     <use xlink:href="#m1c23d03786" x="96.551344" y="195.898391" style="fill: #1a365d; stroke: #1a365d"/>
     <use xlink:href="#m1c23d03786" x="183.269478" y="16.271951" style="fill: #1a365d; stroke: #1a365d"/>
     <use xlink:href="#m1c23d03786" x="269.987611" y="197.710972" style="fill: #1a365d; stroke: #1a365d"/>
     <use xlink:href="#m1c23d03786" x="356.705745" y="197.710972" style="fill: #1a365d; stroke: #1a365d"/>
     <use xlink:href="#m1c23d03786" x="443.423878" y="195.898391" style="fill: #1a365d; stroke: #1a365d"/>
    </g>
   </g>
   <g id="patch_3">
    <path d="M 79.207717 206.782923 
L 79.207717 7.2 
" style="fill: none; stroke: #000000; stroke-width: 0.8; stroke-linejoin: miter; stroke-linecap: square"/>
   </g>
   <g id="patch_4">
    <path d="M 703.578279 206.782923 
L 703.578279 7.2 
" style="fill: none; stroke: #000000; stroke-width: 0.8; stroke-linejoin: miter; stroke-linecap: square"/>
   </g>
   <g id="patch_5">
    <path d="M 79.207717 206.782923 
L 703.578279 206.782923 
" style="fill: none; stroke: #000000; stroke-width: 0.8; stroke-linejoin: miter; stroke-linecap: square"/>
   </g>
   <g id="patch_6">
    <path d="M 79.207717 7.2 
L 703.578279 7.2 
" style="fill: none; stroke: #000000; stroke-width: 0.8; stroke-linejoin: miter; stroke-linecap: square"/>
   </g>
   <g id="legend_1">
    <g id="patch_7">
     <path d="M 650.478279 27.27 
L 697.278279 27.27 
Q 699.078279 27.27 699.078279 25.47 
L 699.078279 13.5 
Q 699.078279 11.7 697.278279 11.7 
L 650.478279 11.7 
Q 648.678279 11.7 648.678279 13.5 
L 648.678279 25.47 
Q 648.678279 27.27 650.478279 27.27 
z
" style="fill: #ffffff; opacity: 0.8; stroke: #cccccc; stroke-linejoin: miter"/>
    </g>
    <g id="line2d_36">
     <path d="M 652.278279 19.313437 
L 661.278279 19.313437 
L 670.278279 19.313437 
" style="fill: none; stroke: #1a365d; stroke-width: 2; stroke-linecap: square"/>
     <g>
      <use xlink:href="#m1c23d03786" x="661.278279" y="19.313437" style="fill: #1a365d; stroke: #1a365d"/>
     </g>
    </g>
    <g id="text_18">
     <!-- 来源 -->
     <g transform="translate(677.478279 22.463437) scale(0.09 -0.09)">
      <defs>
       <path id="STHeiti-6765" d="M 3546 1926 
L 3546 582 
Q 3546 -90 3597 -646 
L 2957 -646 
Q 3002 -160 3002 582 
L 3002 1926 
L 2938 1926 
Q 2630 1344 2076 749 
Q 1523 154 883 -294 
Q 691 -51 320 128 
Q 1664 800 2470 1926 
Q 1427 1920 538 1875 
L 538 2426 
Q 1427 2362 3002 2368 
L 3002 3898 
Q 1619 3898 838 3846 
L 838 4410 
Q 1555 4352 3002 4346 
Q 3002 5178 2970 5267 
Q 3091 5242 3235 5229 
Q 3379 5216 3469 5216 
L 3616 5222 
Q 3725 5222 3725 5174 
Q 3725 5126 3635 5046 
Q 3546 4966 3546 4787 
L 3546 4346 
Q 4819 4352 5747 4410 
L 5747 3846 
Q 4877 3898 3546 3898 
L 3546 2368 
Q 5152 2381 5971 2426 
L 5971 1875 
Q 5363 1914 3936 1926 
Q 4192 1357 4800 925 
Q 5408 493 6067 384 
Q 5869 122 5690 -301 
Q 4819 83 4345 553 
Q 3872 1024 3578 1926 
L 3546 1926 
z
M 4595 3699 
Q 4915 3552 5152 3482 
Q 5235 3456 5235 3430 
Q 5235 3405 5158 3353 
Q 5082 3302 4906 3062 
Q 4730 2822 4544 2496 
Q 4288 2694 4038 2726 
Q 4416 3181 4595 3699 
z
M 2298 2886 
L 1811 2547 
Q 1638 2918 1306 3296 
L 1734 3558 
Q 2042 3277 2298 2886 
z
" transform="scale(0.015625)"/>
       <path id="STHeiti-6e90" d="M 1894 4422 
L 1549 3936 
Q 1158 4314 691 4634 
L 1018 5075 
Q 1466 4781 1894 4422 
z
M 5926 4358 
Q 5754 4410 3994 4410 
L 2579 4410 
Q 2611 2272 2448 1385 
Q 2285 499 1677 -384 
Q 1530 -109 1306 -19 
Q 1709 486 1888 1209 
Q 2067 1933 2067 3488 
Q 2067 4045 2048 4890 
Q 2182 4858 3923 4858 
Q 5664 4858 5926 4890 
L 5926 4358 
z
M 3808 3744 
Q 3942 4109 3968 4397 
Q 4333 4243 4550 4192 
Q 4627 4173 4627 4153 
Q 4627 4134 4570 4102 
Q 4461 4038 4314 3744 
Q 5434 3744 5555 3763 
Q 5536 3558 5536 3002 
L 5536 2253 
Q 5536 1824 5562 1478 
Q 5491 1491 4467 1491 
L 4467 -32 
Q 4467 -250 4409 -352 
Q 4352 -454 4160 -512 
Q 3968 -570 3533 -614 
Q 3520 -301 3354 -51 
Q 3526 -70 3673 -70 
Q 3821 -70 3897 -12 
Q 3974 45 3974 269 
L 3974 1491 
Q 3091 1491 3014 1478 
Q 3040 1709 3040 2253 
L 3040 3002 
Q 3040 3533 3021 3763 
Q 3110 3750 3808 3744 
z
M 5050 2822 
L 5050 3354 
L 3520 3354 
L 3520 2822 
L 5050 2822 
z
M 5050 1875 
L 5050 2432 
L 3520 2432 
L 3520 1875 
L 5050 1875 
z
M 1645 2989 
L 1363 2483 
Q 992 2797 378 3117 
L 640 3565 
Q 1261 3238 1645 2989 
z
M 1517 1683 
Q 1440 1491 1229 691 
Q 1018 -109 947 -454 
Q 589 -218 339 -115 
Q 506 179 723 790 
Q 941 1402 1018 1978 
Q 1254 1773 1517 1683 
z
M 3053 1146 
Q 3405 986 3520 957 
Q 3635 928 3635 893 
Q 3635 858 3539 829 
Q 3443 800 3366 707 
Q 3290 614 3072 278 
Q 2854 -58 2733 -224 
Q 2522 -26 2298 64 
Q 2720 474 3053 1146 
z
M 6010 186 
L 5504 -128 
Q 5178 454 4787 864 
L 5222 1139 
Q 5555 698 6010 186 
z
" transform="scale(0.015625)"/>
      </defs>
      <use xlink:href="#STHeiti-6765"/>
      <use xlink:href="#STHeiti-6e90" transform="translate(99.999985 0)"/>
     </g>
    </g>
   </g>
  </g>
 </g>
 <defs>
  <clipPath id="p54b3b7f519">
   <rect x="79.207717" y="7.2" width="624.370562" height="199.582923"/>
  </clipPath>
 </defs>
</svg>
